<?xml version="1.0" encoding="UTF-8" standalone="no"?>
<!-- Created with Sodipodi ("http://www.sodipodi.com/") -->
<svg
   xmlns:dc="http://purl.org/dc/elements/1.1/"
   xmlns:cc="http://web.resource.org/cc/"
   xmlns:rdf="http://www.w3.org/1999/02/22-rdf-syntax-ns#"
   xmlns:svg="http://www.w3.org/2000/svg"
   xmlns="http://www.w3.org/2000/svg"
   xmlns:sodipodi="http://sodipodi.sourceforge.net/DTD/sodipodi-0.dtd"
   xmlns:inkscape="http://www.inkscape.org/namespaces/inkscape"
   inkscape:version="0.45.1"
   sodipodi:docbase="/mnt/vdrsrc/xxv/svn/xxv/XXV-Skins/trunk/stone/images/artwork"
   sodipodi:docname="back.svg"
   sodipodi:version="0.32"
   id="svg581"
   xml:space="preserve"
   style="overflow:visible;enable-background:new 0 0 256 256"
   viewBox="0 0 256 256"
   height="64"
   width="64"
   inkscape:output_extension="org.inkscape.output.svg.inkscape"
   version="1.0"
   inkscape:export-filename="/mnt/vdrsrc/xxv/svn/xxv/XXV-Skins/trunk/stone/images/back.png"
   inkscape:export-xdpi="22"
   inkscape:export-ydpi="22"><metadata
   id="metadata24"><rdf:RDF><cc:Work
       rdf:about=""><dc:format>image/svg+xml</dc:format><dc:type
         rdf:resource="http://purl.org/dc/dcmitype/StillImage" /></cc:Work></rdf:RDF></metadata>
  <defs
   id="defs616" />
  <sodipodi:namedview
   inkscape:current-layer="svg581"
   inkscape:window-y="0"
   inkscape:window-x="0"
   inkscape:window-height="949"
   inkscape:window-width="1175"
   inkscape:cy="24"
   inkscape:cx="24"
   inkscape:zoom="7.4791667"
   id="base"
   width="64px"
   height="64px" />
  <g
   transform="matrix(1.141634,0,0,1.0659342,-19.842174,-10.03842)"
   id="Layer_1">
    <path
   id="path584"
   d="M 144.272,21.158 C 144.27,21.159 141.393,22.931 141.393,22.931 C 138.37,24.792 111.077,41.718 83.964,62.636 C 45.366,92.417 27.388,114.14 27.388,131 L 27.388,131 C 27.388,147.859 45.366,169.582 83.965,199.362 C 111.131,220.321 138.376,237.212 141.394,239.068 L 144.275,240.841 C 146.84,242.423 150.069,242.491 152.7,241.02 C 155.331,239.549 156.965,236.764 156.965,233.752 C 156.965,233.752 156.965,191.267 156.965,185.023 C 163.472,185.023 226.288,185.023 226.288,185.023 C 230.879,185.023 234.613,181.289 234.613,176.699 L 234.613,85.302 C 234.613,80.712 230.879,76.977 226.288,76.977 C 226.288,76.977 163.472,76.977 156.965,76.977 C 156.965,70.734 156.965,28.248 156.965,28.248 C 156.965,25.234 155.33,22.449 152.697,20.98 C 150.068,19.509 146.84,19.577 144.272,21.158 z "
   style="opacity:0.2" />
    <path
   id="path585"
   d="M 142.272,20.158 C 142.27,20.159 139.393,21.931 139.393,21.931 C 136.37,23.792 109.077,40.718 81.964,61.636 C 43.366,91.417 25.388,113.14 25.388,130 L 25.388,130 C 25.388,146.859 43.366,168.582 81.965,198.362 C 109.131,219.321 136.376,236.212 139.394,238.068 L 142.275,239.841 C 144.84,241.423 148.069,241.491 150.7,240.02 C 153.331,238.549 154.965,235.764 154.965,232.752 C 154.965,232.752 154.965,190.267 154.965,184.023 C 161.472,184.023 224.288,184.023 224.288,184.023 C 228.879,184.023 232.613,180.289 232.613,175.699 L 232.613,84.302 C 232.613,79.712 228.879,75.977 224.288,75.977 C 224.288,75.977 161.472,75.977 154.965,75.977 C 154.965,69.734 154.965,27.248 154.965,27.248 C 154.965,24.234 153.33,21.449 150.697,19.98 C 148.068,18.509 144.84,18.577 142.272,20.158 z "
   style="opacity:0.2" />
    <linearGradient
   y2="188.4323"
   x2="204.80099"
   y1="67.090302"
   x1="83.459"
   gradientUnits="userSpaceOnUse"
   id="XMLID_5_">
      <stop
   id="stop587"
   style="stop-color:#0066CC"
   offset="0" />
      <stop
   id="stop588"
   style="stop-color:#003399"
   offset="1" />
    </linearGradient>
    <path
   id="path592"
   d="M 141.272,18.158 C 141.27,18.159 138.393,19.931 138.393,19.931 C 135.37,21.792 108.077,38.718 80.964,59.636 C 42.366,89.417 24.388,111.14 24.388,128 L 24.388,128 C 24.388,144.859 42.366,166.582 80.965,196.362 C 108.131,217.321 135.376,234.212 138.394,236.068 L 141.275,237.841 C 143.84,239.423 147.069,239.491 149.7,238.02 C 152.331,236.549 153.965,233.764 153.965,230.752 C 153.965,230.752 153.965,188.267 153.965,182.023 C 160.472,182.023 223.288,182.023 223.288,182.023 C 227.879,182.023 231.613,178.289 231.613,173.699 L 231.613,82.302 C 231.613,77.712 227.879,73.977 223.288,73.977 C 223.288,73.977 160.472,73.977 153.965,73.977 C 153.965,67.734 153.965,25.248 153.965,25.248 C 153.965,22.234 152.33,19.449 149.697,17.98 C 147.068,16.509 143.84,16.577 141.272,18.158 z "
   style="fill:url(#XMLID_5_)" />
    <linearGradient
   y2="188.39371"
   x2="204.80679"
   y1="66.984901"
   x1="83.397903"
   gradientUnits="userSpaceOnUse"
   id="XMLID_6_">
      <stop
   id="stop594"
   style="stop-color:#FFFFFF"
   offset="0" />
      <stop
   id="stop595"
   style="stop-color:#F0F0F0"
   offset="1" />
    </linearGradient>
    <path
   id="path599"
   d="M 142.758,27.021 C 138.264,29.787 32.713,95.148 32.713,128 C 32.713,160.852 138.264,226.213 142.758,228.979 L 145.639,230.752 C 145.639,230.752 145.639,177.225 145.639,173.698 C 149.238,173.698 223.287,173.698 223.287,173.698 L 223.287,82.302 C 223.287,82.302 149.237,82.302 145.639,82.302 C 145.639,78.775 145.639,25.247 145.639,25.247 L 142.758,27.021 z "
   style="fill:url(#XMLID_6_)" />
    <linearGradient
   y2="189.30589"
   x2="203.9099"
   y1="67.9673"
   x1="82.571297"
   gradientUnits="userSpaceOnUse"
   id="XMLID_7_">
      <stop
   id="stop601"
   style="stop-color:#FFFFFF"
   offset="0" />
      <stop
   id="stop602"
   style="stop-color:#DFDFDF"
   offset="1" />
    </linearGradient>
    <path
   id="path606"
   d="M 39.013,128 C 39.013,148.505 97.944,193.1 139.339,219.402 C 139.339,204.837 139.339,167.398 139.339,167.398 C 139.339,167.398 206.35,167.398 216.987,167.398 C 216.987,157.284 216.987,98.715 216.987,88.601 C 206.349,88.601 139.339,88.601 139.339,88.601 C 139.339,88.601 139.339,51.162 139.339,36.596 C 97.944,62.896 39.013,107.488 39.013,128 z "
   style="fill:url(#XMLID_7_)" />
    <linearGradient
   y2="184.8822"
   x2="195.35651"
   y1="92.283699"
   x1="102.7583"
   gradientUnits="userSpaceOnUse"
   id="XMLID_8_">
      <stop
   id="stop608"
   style="stop-color:#428AFF"
   offset="0" />
      <stop
   id="stop609"
   style="stop-color:#003399"
   offset="1" />
    </linearGradient>
    <path
   id="path613"
   d="M 100.264,80.997 L 100.264,80.997 C 60.619,111.262 54.123,125.278 53.174,128.002 C 54.125,130.728 60.63,144.745 100.264,175.002 C 107.894,180.828 116.307,186.905 125.298,193.112 C 125.298,182.05 125.298,153.359 125.298,153.359 C 125.298,153.359 194.96,153.359 202.947,153.359 C 202.947,146.292 202.947,109.709 202.947,102.641 C 194.96,102.641 125.298,102.641 125.298,102.641 C 125.298,102.641 125.298,73.949 125.298,62.887 C 116.313,69.09 107.901,75.167 100.264,80.997 z "
   style="fill:url(#XMLID_8_)" />
  </g>
</svg>