<?xml version="1.0" encoding="UTF-8" standalone="no"?>
<!-- Created with Sodipodi ("http://www.sodipodi.com/") -->
<svg
   xmlns:dc="http://purl.org/dc/elements/1.1/"
   xmlns:cc="http://web.resource.org/cc/"
   xmlns:rdf="http://www.w3.org/1999/02/22-rdf-syntax-ns#"
   xmlns:svg="http://www.w3.org/2000/svg"
   xmlns="http://www.w3.org/2000/svg"
   xmlns:xlink="http://www.w3.org/1999/xlink"
   xmlns:sodipodi="http://sodipodi.sourceforge.net/DTD/sodipodi-0.dtd"
   xmlns:inkscape="http://www.inkscape.org/namespaces/inkscape"
   inkscape:export-ydpi="22.5"
   inkscape:export-xdpi="22.5"
   inkscape:export-filename="/mnt/vdrsrc/xxv/devlop/XXV-Skins/stone/images/cut.png"
   width="64"
   height="64"
   viewBox="0 0 256 256"
   overflow="visible"
   enable-background="new 0 0 256 256"
   xml:space="preserve"
   id="svg548"
   sodipodi:version="0.32"
   sodipodi:docname="cut.svg"
   sodipodi:docbase="/mnt/vdrsrc/xxv/svn/xxv/XXV-Skins/trunk/stone/images/artwork"
   inkscape:version="0.45.1"
   inkscape:output_extension="org.inkscape.output.svg.inkscape"
   version="1.0">
  <metadata
   id="metadata57">
    <rdf:RDF>
      <cc:Work
   rdf:about="">
        <dc:format>image/svg+xml</dc:format>
        <dc:type
   rdf:resource="http://purl.org/dc/dcmitype/StillImage" />
      </cc:Work>
    </rdf:RDF>
  </metadata>
  <defs
   id="defs627"><linearGradient
     id="XMLID_1_"
     gradientUnits="userSpaceOnUse"
     x1="169.873"
     y1="105.0996"
     x2="176.0432"
     y2="137.0723">
      <stop
   offset="0"
   style="stop-color:#BBBBBB"
   id="stop563" />
      <stop
   offset="1"
   style="stop-color:#BBBBBB"
   id="stop564" />
    </linearGradient><linearGradient
     id="XMLID_2_"
     gradientUnits="userSpaceOnUse"
     x1="171.6855"
     y1="83"
     x2="171.6855"
     y2="158.5">
      <stop
   offset="0"
   style="stop-color:#FFFFFF"
   id="stop570" />
      <stop
   offset="1"
   style="stop-color:#000000"
   id="stop571" />
    </linearGradient><linearGradient
     id="XMLID_3_"
     gradientUnits="userSpaceOnUse"
     x1="8.4750996"
     y1="142.36819"
     x2="103.5664"
     y2="142.36819">
      <stop
   offset="0.0000000"
   style="stop-color:#9999ff;stop-opacity:1.0000000;"
   id="stop577" />
      <stop
   offset="0.79780000"
   style="stop-color:#3333ff;stop-opacity:1.0000000;"
   id="stop578" />
      <stop
   offset="1.0000000"
   style="stop-color:#3333cc;stop-opacity:1.0000000;"
   id="stop579" />
    </linearGradient><linearGradient
     id="XMLID_4_"
     gradientUnits="userSpaceOnUse"
     x1="138.9619"
     y1="81.721703"
     x2="160.70081"
     y2="91.320702">
      <stop
   offset="0"
   style="stop-color:#DDDDDD"
   id="stop593" />
      <stop
   offset="1"
   style="stop-color:#BBBBBB"
   id="stop594" />
    </linearGradient><linearGradient
     id="XMLID_5_"
     gradientUnits="userSpaceOnUse"
     x1="147.6846"
     y1="85.573196"
     x2="160.73129"
     y2="91.334099">
      <stop
   offset="0"
   style="stop-color:#FFFFFF"
   id="stop600" />
      <stop
   offset="1"
   style="stop-color:#000000"
   id="stop601" />
    </linearGradient><linearGradient
     id="XMLID_6_"
     gradientUnits="userSpaceOnUse"
     x1="154.58299"
     y1="68.745102"
     x2="138.4187"
     y2="52.580799">
      <stop
   offset="0"
   style="stop-color:#DDDDDD"
   id="stop607" />
      <stop
   offset="1"
   style="stop-color:#FFFFFF"
   id="stop608" />
    </linearGradient><linearGradient
     id="XMLID_7_"
     gradientUnits="userSpaceOnUse"
     x1="80.110802"
     y1="183.7988"
     x2="150.5206"
     y2="225.1263">
      <stop
   offset="0.0000000"
   style="stop-color:#9999ff;stop-opacity:1.0000000;"
   id="stop614" />
      <stop
   offset="0.75840002"
   style="stop-color:#3333ff;stop-opacity:1.0000000;"
   id="stop615" />
      <stop
   offset="1.0000000"
   style="stop-color:#3333cc;stop-opacity:1.0000000;"
   id="stop616" />
    </linearGradient><linearGradient
     y2="137.0723"
     x2="176.0432"
     y1="105.0996"
     x1="169.873"
     gradientUnits="userSpaceOnUse"
     id="linearGradient1439"
     xlink:href="#XMLID_1_"
     inkscape:collect="always" /><linearGradient
     y2="158.5"
     x2="171.6855"
     y1="83"
     x1="171.6855"
     gradientUnits="userSpaceOnUse"
     id="linearGradient1441"
     xlink:href="#XMLID_2_"
     inkscape:collect="always" /><linearGradient
     y2="142.36819"
     x2="103.5664"
     y1="142.36819"
     x1="8.4750996"
     gradientUnits="userSpaceOnUse"
     id="linearGradient1443"
     xlink:href="#XMLID_3_"
     inkscape:collect="always" /><linearGradient
     y2="91.320702"
     x2="160.70081"
     y1="81.721703"
     x1="138.9619"
     gradientUnits="userSpaceOnUse"
     id="linearGradient1445"
     xlink:href="#XMLID_4_"
     inkscape:collect="always" /><linearGradient
     y2="91.334099"
     x2="160.73129"
     y1="85.573196"
     x1="147.6846"
     gradientUnits="userSpaceOnUse"
     id="linearGradient1447"
     xlink:href="#XMLID_5_"
     inkscape:collect="always" /><linearGradient
     y2="52.580799"
     x2="138.4187"
     y1="68.745102"
     x1="154.58299"
     gradientUnits="userSpaceOnUse"
     id="linearGradient1449"
     xlink:href="#XMLID_6_"
     inkscape:collect="always" /><linearGradient
     y2="225.1263"
     x2="150.5206"
     y1="183.7988"
     x1="80.110802"
     gradientUnits="userSpaceOnUse"
     id="linearGradient1451"
     xlink:href="#XMLID_7_"
     inkscape:collect="always" /></defs>
  <sodipodi:namedview
   id="base"
   inkscape:zoom="11.5"
   inkscape:cx="32"
   inkscape:cy="32"
   inkscape:window-width="1175"
   inkscape:window-height="949"
   inkscape:window-x="0"
   inkscape:window-y="0"
   inkscape:current-layer="svg548"
   width="64px"
   height="64px" />
  <g
   inkscape:export-ydpi="24.000000"
   inkscape:export-xdpi="24.000000"
   inkscape:export-filename="/mnt/vdrsrc/xxv/devlop/XXV-Skins/stone/images/cut.png"
   transform="matrix(0.7332376,0.7770398,-0.6609203,0.9261162,115.28326,-93.706911)"
   id="g1411">
    <path
   style="opacity:0.2;stroke:none"
   d="M 250.649,87.094 L 159.523,108.184 L 194.246,21.081 L 191.235,21.081 C 154.472,21.081 127.051,80.203 113.028,118.944 L 110.727,119.477 C 111.217,124.862 109.352,129.879 106.833,134.877 C 108.371,128.828 109.443,122.691 109.883,116.53 L 106.332,117.352 L 105.396,118.136 C 97.109,125.076 88.968,131.557 84.268,134.998 C 81.253,126.933 76.218,113.673 64.809,108.537 C 58.805,105.835 52.048,105.893 44.723,108.71 C 12.316,121.177 8.682,144.866 8.34,151.829 L 8.333,151.979 L 8.335,152.229 L 8.348,152.483 L 8.389,153.171 C 9.081,162.189 17.063,174.796 29.226,180.378 C 37.286,184.078 50.127,186.113 65.534,174.799 L 94.96,153.186 C 94.96,153.186 94.875,153.213 94.865,153.216 C 95.214,152.984 95.625,152.687 96.261,152.212 C 98.224,150.728 100.242,149.201 101.354,149.389 C 101.461,149.407 101.714,149.471 102.107,149.692 C 102.474,148.736 102.819,147.773 103.166,146.81 C 103.391,146.914 103.616,147.032 103.846,147.17 C 103.147,149.608 102.724,151.184 102.591,151.688 L 102.276,152.879 L 103.185,153.713 C 105.29,155.643 106.792,157.402 107.702,158.983 C 107.713,159.057 107.718,159.118 107.719,159.155 C 107.736,160.283 105.923,162.047 104.169,163.754 L 103.019,164.883 L 77.182,190.72 C 63.602,204.299 63.073,216.977 65.019,225.222 C 67.947,237.621 77.756,246.028 83.786,248.037 C 107.73,256.018 127.993,246.931 142.386,221.755 C 145.057,217.08 146.411,212.421 146.411,207.907 C 146.411,205.886 146.138,203.875 145.597,201.928 C 142.244,189.865 129.886,182.878 122.37,178.679 C 126.504,174.552 134.242,167.4 142.249,160.354 L 142.52,160.115 C 141.336,159.98 140.155,159.866 138.973,159.739 L 143.23,149.06 C 182.265,141.512 244.085,124.24 253.085,89.596 L 253.932,86.335 L 250.649,87.094 z M 59.852,142.38 C 59.935,143.722 59.882,145.03 59.693,146.266 C 59.003,150.77 56.703,154.752 53.385,157.19 C 50.863,159.042 47.928,159.825 45.123,159.394 C 38.79,158.424 34.43,151.809 34.983,144.008 L 35.006,143.667 L 34.985,143.329 C 34.902,141.991 34.956,140.682 35.145,139.44 C 36.411,131.169 42.948,125.281 49.716,126.316 C 56.049,127.284 60.407,133.898 59.853,141.701 L 59.829,142.042 L 59.852,142.38 z M 122.71,213.689 C 122.71,220.537 115.899,226.107 107.527,226.107 C 99.155,226.107 92.344,220.537 92.344,213.689 C 92.344,206.843 99.155,201.273 107.527,201.273 C 115.899,201.273 122.71,206.844 122.71,213.689 z "
   id="path552" />
    <path
   style="fill:#333333;stroke:none"
   d="M 39.282,103.715 C 6.311,116.399 2.608,140.603 2.259,147.719 L 2.252,147.873 L 2.253,148.176 L 2.267,148.472 L 2.308,149.168 C 3.022,158.465 11.228,171.489 23.727,177.226 C 32.03,181.038 45.245,183.147 61.043,171.543 L 90.47,149.93 L 90.337,149.988 L 91.778,148.952 C 93.145,147.919 95.42,146.198 96.107,146.314 L 97.498,146.924 L 97.96,145.988 C 102.405,134.424 105.043,123.17 105.801,112.539 L 105.897,111.188 L 100.793,112.37 L 99.674,113.308 C 92.209,119.561 84.55,125.689 79.657,129.34 C 76.574,121.154 71.44,108.651 60.139,103.564 C 53.882,100.748 46.865,100.799 39.282,103.715 z M 40.194,154.344 C 34.379,153.453 30.383,147.295 30.9,140.018 L 30.928,139.61 L 30.903,139.208 C 30.825,137.938 30.876,136.7 31.054,135.53 C 32.237,127.804 38.262,122.292 44.485,123.244 C 50.298,124.133 54.293,130.291 53.777,137.57 L 53.748,137.978 L 53.774,138.382 C 53.853,139.653 53.802,140.89 53.625,142.053 C 52.975,146.297 50.82,150.04 47.714,152.323 C 45.404,154.016 42.734,154.733 40.194,154.344 z "
   id="path553" />
    <path
   d="M 101.25,113.291 L 100.314,114.075 C 92.027,121.016 83.886,127.496 79.186,130.937 C 76.172,122.872 71.136,109.612 59.727,104.476 C 53.724,101.774 46.966,101.832 39.641,104.649 C 7.234,117.116 3.6,140.805 3.258,147.768 L 3.251,147.918 L 3.253,148.168 L 3.266,148.422 L 3.307,149.11 C 4,158.128 11.981,170.735 24.145,176.317 C 32.205,180.017 45.046,182.052 60.453,170.738 L 89.879,149.125 C 89.879,149.125 89.794,149.152 89.784,149.155 C 90.133,148.924 90.544,148.627 91.18,148.151 C 93.143,146.667 95.161,145.14 96.274,145.328 C 96.38,145.346 96.634,145.411 97.027,145.631 C 101.141,134.927 104.001,123.736 104.804,112.469 L 101.25,113.291 z M 54.771,138.318 C 54.854,139.661 54.8,140.969 54.612,142.204 C 53.922,146.708 51.623,150.69 48.304,153.128 C 45.782,154.98 42.847,155.763 40.042,155.332 C 33.708,154.362 29.349,147.748 29.902,139.947 L 29.925,139.606 L 29.904,139.268 C 29.821,137.929 29.875,136.62 30.064,135.378 C 31.33,127.107 37.867,121.219 44.635,122.254 C 50.968,123.222 55.326,129.836 54.773,137.638 L 54.749,137.979 L 54.771,138.318 z "
   id="path554"
   style="fill:#000033;stroke:none" />
    <path
   style="fill:#333333;stroke:none"
   d="M 100.992,153.641 C 101.607,154.629 101.637,155.106 101.637,155.112 C 101.637,155.113 101.637,155.113 101.637,155.113 C 101.637,155.814 99.529,157.866 98.395,158.969 L 97.235,160.108 L 71.392,185.95 C 61.043,196.299 58.103,206.17 58.103,214.043 C 58.103,216.748 58.45,219.217 58.963,221.389 C 61.98,234.163 72.137,242.842 78.387,244.924 C 102.841,253.074 123.511,243.831 138.171,218.189 C 140.93,213.363 142.328,208.537 142.328,203.845 C 142.328,201.733 142.042,199.631 141.478,197.599 C 138.159,185.658 126.569,178.686 118.938,174.398 C 123.335,170.081 130.558,163.439 137.825,157.044 L 139.795,155.315 L 137.55,155.061 C 125.484,153.693 113.82,152.729 101.891,152.115 L 99.98,152.017 L 100.992,153.641 z M 88.263,209.628 C 88.263,203.333 94.625,198.212 102.446,198.212 C 110.267,198.212 116.63,203.333 116.63,209.628 C 116.63,215.924 110.267,221.046 102.446,221.046 C 94.625,221.046 88.263,215.924 88.263,209.628 z "
   id="path555" />
    <path
   d="M 137.438,156.053 C 125.639,154.715 113.91,153.734 101.84,153.113 C 102.556,154.264 102.633,154.908 102.636,155.093 C 102.653,156.221 100.839,157.985 99.085,159.692 L 97.935,160.822 L 72.099,186.658 C 58.519,200.237 57.99,212.915 59.936,221.16 C 62.864,233.559 72.673,241.967 78.703,243.975 C 102.647,251.956 122.91,242.869 137.303,217.693 C 139.975,213.018 141.328,208.359 141.328,203.845 C 141.328,201.824 141.055,199.813 140.515,197.866 C 137.161,185.803 124.804,178.817 117.288,174.618 C 121.422,170.49 129.16,163.338 137.166,156.292 L 137.438,156.053 z M 117.629,209.628 C 117.629,216.476 110.818,222.046 102.445,222.046 C 94.073,222.046 87.262,216.476 87.262,209.628 C 87.262,202.782 94.073,197.212 102.445,197.212 C 110.818,197.212 117.629,202.782 117.629,209.628 z "
   id="path556"
   style="fill:#000033;stroke:none" />
    <path
   style="fill:#333333;stroke:none"
   d="M 248.624,81.299 L 245.342,82.059 L 104.57,114.638 L 104.649,115.507 C 105.285,122.482 101.771,128.863 98.05,135.62 L 93.981,143.293 L 95.74,143.283 L 96.616,143.296 C 97.956,143.522 100.235,144.805 103.47,149.638 L 104.493,151.165 L 106.322,150.969 C 111.601,150.406 235.775,136.583 248.97,85.787 L 250.232,80.928 L 248.624,81.299 z "
   id="path557" />
    <path
   style="fill:#444444;stroke:none"
   d="M 245.567,83.033 L 105.645,115.416 C 106.507,124.878 100.102,133.205 95.645,142.288 C 96.023,142.252 96.4,142.246 96.781,142.309 C 99.015,142.685 101.546,144.963 104.302,149.08 L 104.989,150.105 L 106.216,149.973 C 111.467,149.412 234.987,135.64 248.004,85.534 L 248.851,82.273 L 245.567,83.033 z "
   id="path558" />
    <path
   d="M 105.646,115.416 L 102.655,116.108 L 102.28,116.421 C 92.492,124.619 81.459,133.378 77.748,135.66 C 77.358,134.775 76.865,133.469 76.404,132.233 C 73.566,124.637 68.815,111.923 58.47,107.266 C 53.239,104.912 47.274,104.992 40.74,107.505 C 10.06,119.309 6.635,141.422 6.316,147.918 L 6.311,148.019 L 6.324,148.273 L 6.363,148.93 C 6.971,156.836 14.43,168.491 25.422,173.534 C 32.735,176.891 44.435,178.702 58.641,168.269 L 88.067,146.656 C 88.068,146.656 89.345,145.7 89.345,145.7 C 91.616,143.982 93.626,142.48 95.647,142.287 C 100.102,133.204 106.507,124.877 105.646,115.416 z M 57.826,138.126 C 57.923,139.691 57.859,141.219 57.638,142.666 C 56.825,147.969 54.084,152.682 50.116,155.595 C 46.935,157.931 43.192,158.912 39.578,158.359 L 39.578,158.359 C 31.655,157.145 26.182,149.137 26.849,139.731 L 26.858,139.595 L 26.85,139.461 C 26.753,137.898 26.817,136.37 27.039,134.918 C 28.56,124.977 36.663,117.939 45.099,119.229 C 53.023,120.44 58.495,128.449 57.828,137.856 L 57.819,137.991 L 57.826,138.126 z "
   id="path559"
   style="fill:#0000cc;stroke:none" />
    <path
   d="M 102.923,118.543 C 99.09,121.737 79.763,137.754 77.177,138.195 C 74.303,138.687 69.227,98.735 41.473,109.41 C 16.498,119.017 8.945,135.981 8.353,148.017 C 8.366,148.27 8.377,148.527 8.396,148.774 C 9.341,161.066 29.923,186.827 57.43,166.625 C 86.857,145.011 79.5,150.413 86.857,145.011 C 90.07,142.652 93.112,139.901 96.67,140.241 C 99.885,132.967 104.23,125.891 102.923,118.543 z M 59.655,142.976 C 57.959,154.048 48.833,161.842 39.269,160.375 C 30.258,158.995 24.082,149.896 24.812,139.586 C 24.712,137.965 24.762,136.302 25.02,134.61 C 26.715,123.537 35.844,115.748 45.407,117.212 C 54.417,118.589 60.594,127.691 59.863,138.001 C 59.963,139.621 59.914,141.285 59.655,142.976 z "
   id="path560"
   style="fill:#ccccff;stroke:none" />
    <path
   style="fill:#eeeeee;stroke:none"
   d="M 103.591,117.985 C 103.591,117.985 103.348,118.189 102.923,118.543 C 104.23,125.891 99.885,132.967 96.671,140.241 C 99.38,140.5 102.388,142.551 105.999,147.945 C 105.999,147.945 233.218,134.338 246.028,85.02 L 103.591,117.985 z "
   id="path561" />
    <path
   style="fill:url(#linearGradient1439);stroke:none"
   d="M 103.591,121.047 C 103.591,121.047 103.572,121.063 103.567,121.068 C 102.259,127.684 100.324,134.181 98.413,140.652 C 100.665,141.504 103.143,143.68 105.998,147.946 C 105.998,147.946 227.466,134.945 244.957,88.33 L 103.591,121.047 z "
   id="path568" />
    <path
   style="opacity:0.2;fill:url(#linearGradient1441);stroke:none"
   d="M 103.591,121.047 C 103.591,121.047 103.572,121.063 103.567,121.068 C 102.259,127.684 100.324,134.181 98.413,140.652 C 100.665,141.504 103.143,143.68 105.998,147.946 C 105.998,147.946 227.466,134.945 244.957,88.33 L 103.591,121.047 z "
   id="path575" />
    <path
   style="fill:url(#linearGradient1443);stroke:none"
   d="M 77.177,141.256 C 74.303,141.748 69.227,101.796 41.473,112.472 C 17.573,121.666 9.632,137.593 8.474,149.494 C 10.133,162.036 30.449,186.44 57.43,166.625 C 86.857,145.011 79.5,150.413 86.857,145.011 C 90.582,142.276 94.077,139.009 98.412,140.652 C 100.323,134.181 102.258,127.684 103.566,121.068 C 103.049,121.5 80.017,140.771 77.177,141.256 z M 59.871,138.207 C 59.897,138.708 59.91,139.213 59.903,139.723 C 59.901,140.084 59.89,140.448 59.871,140.813 C 59.866,140.897 59.87,140.979 59.864,141.062 C 59.964,142.683 59.915,144.347 59.656,146.037 C 57.96,157.11 48.834,164.903 39.27,163.437 C 30.259,162.057 24.083,152.957 24.813,142.648 C 24.809,142.577 24.809,142.505 24.805,142.435 C 24.779,141.934 24.766,141.432 24.773,140.924 C 24.776,140.565 24.786,140.204 24.805,139.842 C 24.81,139.757 24.806,139.672 24.812,139.586 C 24.712,137.965 24.762,136.302 25.02,134.61 C 26.715,123.537 35.844,115.748 45.407,117.212 C 54.417,118.589 60.594,127.691 59.863,138.001 C 59.867,138.068 59.867,138.138 59.871,138.207 z "
   id="path585" />
    <path
   style="opacity:0.2;stroke:none"
   d="M 160.282,102.771 L 113.642,113.565 C 108.117,128.342 104.389,140.744 102.659,146.826 C 103.198,147.509 103.744,148.246 104.302,149.08 L 104.989,150.105 L 106.216,149.973 C 108.01,149.782 123.621,148.045 143.909,143.845 L 160.282,102.771 z "
   id="path586" />
    <path
   style="fill:#333333;stroke:none"
   d="M 191.205,12.958 L 188.195,12.958 C 133.926,12.958 100,138.945 98.583,144.308 L 98.113,146.085 L 99.468,147.327 C 102.056,149.699 103.706,151.792 104.372,153.546 L 104.64,154.25 L 105.391,154.187 C 115.078,153.374 124.788,154.991 133.01,156.68 L 133.499,156.781 L 136.35,154.264 L 192.681,12.958 L 191.205,12.958 L 191.205,12.958 z "
   id="path587" />
    <path
   style="fill:#333333;stroke:none"
   d="M 133.211,155.701 C 133.857,155.129 134.501,154.558 135.144,153.994 L 135.51,153.672 L 191.205,13.959 L 188.195,13.959 C 134.682,13.959 100.959,139.232 99.549,144.565 L 99.234,145.757 L 100.144,146.591 C 102.859,149.08 104.585,151.29 105.307,153.192 C 114.608,152.41 123.909,153.79 133.211,155.701 z "
   id="path588" />
    <path
   d="M 133.211,155.701 C 123.909,153.79 114.608,152.41 105.307,153.191 C 105.556,153.847 105.689,154.466 105.698,155.047 C 105.734,157.494 103.642,159.529 101.219,161.886 L 100.08,163.004 L 74.263,188.821 C 61.681,201.402 61.148,212.967 62.916,220.454 C 65.544,231.585 74.468,239.336 79.671,241.069 C 102.382,248.639 120.877,240.262 134.645,216.172 C 137.058,211.95 138.268,207.822 138.268,203.844 C 138.268,202.094 138.034,200.372 137.565,198.684 C 134.527,187.753 122.678,181.133 115.599,177.178 C 114.439,176.531 113.209,175.839 112.394,175.318 C 114.916,172.349 124.145,163.742 133.211,155.701 z M 120.69,209.628 C 120.69,218.164 112.506,225.107 102.445,225.107 C 92.385,225.107 84.201,218.164 84.201,209.628 C 84.201,201.094 92.386,194.15 102.445,194.15 C 112.506,194.15 120.69,201.094 120.69,209.628 z "
   id="path589"
   style="fill:#0000cc;stroke:none" />
    <path
   d="M 131.351,154.63 C 123.399,154.3 115.447,153.834 107.496,153.342 C 108.732,158.071 104.874,161.099 101.524,164.448 C 95.07,170.902 101.524,164.448 75.708,190.264 C 51.575,214.396 71.57,236.219 80.318,239.134 C 99.681,245.588 118.121,240.978 132.875,215.159 C 147.628,189.343 108.902,178.278 109.825,175.513 C 110.559,173.305 125.399,159.93 131.351,154.63 z M 122.731,209.628 C 122.731,219.306 113.648,227.149 102.445,227.149 C 91.242,227.149 82.16,219.306 82.16,209.628 C 82.16,199.952 91.243,192.109 102.445,192.109 C 113.648,192.109 122.731,199.952 122.731,209.628 z "
   id="path590"
   style="fill:#ccccff;stroke:none" />
    <path
   style="fill:#ffffff;stroke:none"
   d="M 133.795,152.462 L 188.195,16 C 135.639,16 101.523,145.086 101.523,145.086 C 105.124,148.387 106.899,151.061 107.495,153.342 C 115.447,153.834 123.399,154.3 131.35,154.63 C 132.851,153.293 133.795,152.462 133.795,152.462 z "
   id="path591" />
    <path
   style="fill:url(#linearGradient1445);stroke:none"
   d="M 133.795,152.462 L 188.163,16.079 C 136.786,19.401 103.564,145.086 103.564,145.086 C 108.762,149.851 110.171,153.315 109.691,156.165 C 115.779,156.26 121.946,156.589 127.976,157.651 C 131.325,154.636 133.795,152.462 133.795,152.462 z "
   id="path598" />
    <path
   style="opacity:0.2;fill:url(#linearGradient1447);stroke:none"
   d="M 184.933,16.47 L 129.86,151.196 C 129.86,151.196 127.388,153.346 124.032,156.334 C 119.33,155.416 114.536,154.961 109.761,154.719 C 109.791,155.219 109.77,155.701 109.691,156.165 C 115.779,156.26 121.946,156.589 127.976,157.651 C 131.325,154.635 133.795,152.462 133.795,152.462 L 188.163,16.079 C 187.077,16.149 186.003,16.293 184.933,16.47 z "
   id="path605" />
    <path
   style="fill:url(#linearGradient1449);stroke:none"
   d="M 153.783,55.1 C 160.377,47.336 168.154,41.876 176.663,37.991 L 184.081,18.63 C 152.87,20.73 128.762,72.608 115.54,109.316 C 134.661,97.997 140.635,72.747 153.783,55.1 z "
   id="path612" />
    <path
   style="fill:url(#linearGradient1451);stroke:none"
   d="M 127.976,157.651 C 121.946,156.588 115.779,156.259 109.691,156.165 C 109.149,159.383 106.197,161.815 103.564,164.448 C 97.11,170.902 103.564,164.448 77.747,190.264 C 53.615,214.396 73.609,236.219 82.357,239.134 C 87.082,240.708 91.751,241.618 96.325,241.729 C 109.73,241.334 122.256,233.739 132.873,215.16 C 147.626,189.344 108.9,178.279 109.823,175.514 C 110.442,173.652 121.083,163.859 127.976,157.651 z M 124.772,209.628 C 124.772,219.306 115.689,227.149 104.486,227.149 C 104.142,227.149 103.806,227.119 103.465,227.104 C 103.125,227.119 102.789,227.149 102.444,227.149 C 91.241,227.149 82.159,219.306 82.159,209.628 C 82.159,199.952 91.242,192.109 102.444,192.109 C 102.788,192.109 103.124,192.139 103.465,192.154 C 103.805,192.139 104.141,192.109 104.486,192.109 C 115.689,192.109 124.772,199.952 124.772,209.628 z "
   id="path622" />
    <path
   style="fill:#333333;stroke:none"
   d="M 116.18,129.774 C 116.18,134.666 120.144,138.63 125.036,138.63 C 129.929,138.63 133.893,134.665 133.893,129.774 C 133.893,124.883 129.929,120.918 125.036,120.918 C 120.144,120.918 116.18,124.883 116.18,129.774 z "
   id="path623" />
    <path
   d="M 106.059,157.654 L 133.101,157.654 L 133.101,154.082 L 106.059,154.082 L 106.059,157.654 z "
   id="path624"
   style="fill:#0000cc;stroke:none" />
    <path
   d="M 95.912,142.538 L 98.037,143.094 L 105.398,114.958 L 103.273,114.402 L 95.912,142.538 z "
   id="path625"
   style="fill:#0000cc;stroke:none" />
  </g>
</svg>