<?xml version="1.0" encoding="UTF-8" standalone="no"?>
<!-- Created with Inkscape (http://www.inkscape.org/) -->
<svg
   xmlns:dc="http://purl.org/dc/elements/1.1/"
   xmlns:cc="http://web.resource.org/cc/"
   xmlns:rdf="http://www.w3.org/1999/02/22-rdf-syntax-ns#"
   xmlns:svg="http://www.w3.org/2000/svg"
   xmlns="http://www.w3.org/2000/svg"
   xmlns:sodipodi="http://sodipodi.sourceforge.net/DTD/sodipodi-0.dtd"
   xmlns:inkscape="http://www.inkscape.org/namespaces/inkscape"
   width="160"
   height="120"
   id="svg2"
   sodipodi:version="0.32"
   inkscape:version="0.44.1"
   version="1.0"
   sodipodi:docbase="/mnt/vdrsrc/xxv/devlop/XXV-Skins/stone/images/artwork"
   sodipodi:docname="nocover.svg"
   inkscape:export-filename="/mnt/vdrsrc/xxv/devlop/XXV-Skins/stone/images/nocover.png"
   inkscape:export-xdpi="90"
   inkscape:export-ydpi="90">
  <defs
     id="defs4" />
  <sodipodi:namedview
     id="base"
     pagecolor="#ffffff"
     bordercolor="#666666"
     borderopacity="1.0"
     inkscape:pageopacity="0.0"
     inkscape:pageshadow="2"
     inkscape:zoom="6.2583333"
     inkscape:cx="80"
     inkscape:cy="60"
     inkscape:document-units="px"
     inkscape:current-layer="layer1"
     width="160px"
     height="120px"
     inkscape:window-width="1270"
     inkscape:window-height="950"
     inkscape:window-x="0"
     inkscape:window-y="0"
     showguides="true"
     inkscape:guide-bbox="true" />
  <metadata
     id="metadata7">
    <rdf:RDF>
      <cc:Work
         rdf:about="">
        <dc:format>image/svg+xml</dc:format>
        <dc:type
           rdf:resource="http://purl.org/dc/dcmitype/StillImage" />
      </cc:Work>
    </rdf:RDF>
  </metadata>
  <g
     inkscape:label="Ebene 1"
     inkscape:groupmode="layer"
     id="layer1">
    <g
       id="g1888"
       transform="matrix(2.37242,0,0,2.37242,3.772388,-14.36089)">
      <path
         sodipodi:nodetypes="ccccc"
         id="rect5496"
         d="M 22.794995,45.294696 L 30.572112,46.702622 L 54.372767,54.278606 L 22.459775,49.853695 L 22.794995,45.294696 z "
         style="fill:black;fill-opacity:0.55157896;fill-rule:nonzero;stroke:none;stroke-width:0.25;stroke-linecap:butt;stroke-linejoin:bevel;stroke-miterlimit:4;stroke-dashoffset:7.3869732;stroke-opacity:1" />
      <path
         sodipodi:nodetypes="ccccc"
         id="path3674"
         d="M 52.710997,34.415674 L 28.366094,27.63264 L 0.39482058,41.917996 L 21.732813,51.288372 L 52.710997,34.415674 z "
         style="opacity:0.12368972;fill:black;fill-opacity:1;fill-rule:nonzero;stroke:black;stroke-width:0;stroke-linecap:butt;stroke-linejoin:round;stroke-miterlimit:4;stroke-dasharray:none;stroke-dashoffset:7.3869732;stroke-opacity:1" />
      <path
         style="opacity:0.12368972;fill:black;fill-opacity:1;fill-rule:nonzero;stroke:black;stroke-width:0;stroke-linecap:butt;stroke-linejoin:round;stroke-miterlimit:4;stroke-dasharray:none;stroke-dashoffset:7.3869732;stroke-opacity:1"
         d="M 52.710997,34.415674 L 28.366094,27.63264 L 1.6686585,41.783908 L 21.732813,51.288372 L 52.710997,34.415674 z "
         id="path5474"
         sodipodi:nodetypes="ccccc" />
      <path
         sodipodi:nodetypes="ccccc"
         id="path5476"
         d="M 52.710997,34.415674 L 28.366094,27.63264 L 3.4118052,41.716864 L 21.732813,51.288372 L 52.710997,34.415674 z "
         style="opacity:0.12368972;fill:black;fill-opacity:1;fill-rule:nonzero;stroke:black;stroke-width:0;stroke-linecap:butt;stroke-linejoin:round;stroke-miterlimit:4;stroke-dasharray:none;stroke-dashoffset:7.3869732;stroke-opacity:1" />
      <path
         sodipodi:nodetypes="ccccc"
         id="path3668"
         d="M 21.523028,51.47815 L 52.791217,33.94348 L 51.512321,33.806327 L 20.194393,50.379306 L 21.523028,51.47815 z "
         style="fill:black;fill-opacity:0.13263161;fill-rule:nonzero;stroke:none;stroke-width:0.75;stroke-linecap:butt;stroke-linejoin:round;stroke-miterlimit:4;stroke-dashoffset:7.3869732;stroke-opacity:0.68235294" />
      <path
         style="fill:#a9a8a7;fill-opacity:1;fill-rule:nonzero;stroke:#a9a8a7;stroke-width:0.25;stroke-linecap:butt;stroke-linejoin:round;stroke-miterlimit:4;stroke-dasharray:none;stroke-dashoffset:7.3869732;stroke-opacity:1"
         d="M 17.537122,23.087309 L 52.35146,7.2136113 L 51.442393,33.876255 L 20.124465,50.309377 L 17.537122,23.087309 z "
         id="path5460"
         sodipodi:nodetypes="ccccc" />
      <path
         style="fill:white;fill-opacity:0.23368423;fill-rule:nonzero;stroke:#a9a8a7;stroke-width:0.25;stroke-linecap:butt;stroke-linejoin:round;stroke-miterlimit:4;stroke-dasharray:none;stroke-dashoffset:7.3869732;stroke-opacity:1"
         d="M 18.725901,21.548888 L 52.421388,6.1646886 L 51.512321,33.806327 L 21.523028,49.959737 L 18.725901,21.548888 z "
         id="path3666"
         sodipodi:nodetypes="ccccc" />
      <path
         sodipodi:nodetypes="ccccc"
         id="rect2768"
         d="M 19.005614,23.885523 L 53.193483,7.49044 L 52.838371,34.143902 L 21.749618,51.288372 L 19.005614,23.885523 z "
         style="fill:#a9a8a7;fill-opacity:1;fill-rule:nonzero;stroke:#8d8c8b;stroke-width:0.25;stroke-linecap:butt;stroke-linejoin:bevel;stroke-miterlimit:4;stroke-dasharray:none;stroke-dashoffset:7.3869732;stroke-opacity:1" />
      <path
         sodipodi:nodetypes="ccccc"
         id="path3660"
         d="M 20.124464,49.660018 L 61.372195,55.114415 L 60.952625,56.532986 L 19.285326,51.078588 L 20.124464,49.660018 z "
         style="fill:white;fill-opacity:0.23368423;fill-rule:nonzero;stroke:#a9a8a7;stroke-width:0.25;stroke-linecap:butt;stroke-linejoin:round;stroke-miterlimit:4;stroke-dasharray:none;stroke-dashoffset:7.3869732;stroke-opacity:1" />
      <path
         sodipodi:nodetypes="ccccc"
         id="path3662"
         d="M 19.005614,23.926447 L 17.38737,23.01738 L 20.044639,50.519163 L 21.732813,51.288372 L 19.005614,23.926447 z "
         style="fill:white;fill-opacity:0.23368423;fill-rule:nonzero;stroke:#a9a8a7;stroke-width:0.25;stroke-linecap:butt;stroke-linejoin:bevel;stroke-miterlimit:4;stroke-dasharray:none;stroke-dashoffset:7.3869732;stroke-opacity:1" />
      <path
         style="fill:white;fill-opacity:0.23368423;fill-rule:nonzero;stroke:#a9a8a7;stroke-width:0.25;stroke-linecap:butt;stroke-linejoin:bevel;stroke-miterlimit:4;stroke-dasharray:none;stroke-dashoffset:7.3869732;stroke-opacity:1"
         d="M 19.005614,23.926447 L 17.38737,23.01738 L 52.351458,7.0937625 L 53.241764,7.4434028 L 19.005614,23.926447 z "
         id="path3664"
         sodipodi:nodetypes="ccccc" />
      <path
         sodipodi:nodetypes="csssc"
         id="path3671"
         d="M 51.537069,23.371727 C 51.676925,25.192377 50.641507,34.301597 37.796183,41.028592 C 27.520548,46.409861 23.985368,39.947223 23.985368,34.909877 C 23.985368,29.872531 24.967662,21.151239 37.586398,15.01531 C 48.307082,9.8023197 51.606997,16.795961 51.537069,23.371727 z "
         style="fill:#7a7d7b;fill-opacity:1;fill-rule:nonzero;stroke:none;stroke-width:0.75;stroke-linecap:butt;stroke-linejoin:round;stroke-miterlimit:4;stroke-dashoffset:7.3869732;stroke-opacity:0.68235294" />
      <path
         style="fill:#474542;fill-opacity:1;fill-rule:nonzero;stroke:none;stroke-width:0.75;stroke-linecap:butt;stroke-linejoin:round;stroke-miterlimit:4;stroke-dashoffset:7.3869732;stroke-opacity:0.68235294"
         d="M 51.537069,23.371727 C 51.676925,25.192377 50.574463,31.888009 42.824491,37.810475 C 49.175793,31.861291 51.059267,27.533678 50.735965,22.506718 C 49.864391,8.9547711 35.426542,16.055887 37.586398,15.01531 C 48.294367,9.9766077 51.606997,16.795961 51.537069,23.371727 z "
         id="path6384"
         sodipodi:nodetypes="ccscc" />
      <path
         style="fill:#a9a8a7;fill-opacity:1;fill-rule:nonzero;stroke:none;stroke-width:0.75;stroke-linecap:butt;stroke-linejoin:round;stroke-miterlimit:4;stroke-dashoffset:7.3869732;stroke-opacity:0.68235294"
         d="M 41.405432,26.925489 C 41.442744,27.492702 41.166509,30.33063 37.739557,32.426388 C 34.998162,34.102893 34.055026,32.089494 34.055026,30.520136 C 34.055026,28.950779 34.317088,26.233707 37.68359,24.322093 C 40.543718,22.698014 41.424088,24.876844 41.405432,26.925489 z "
         id="path3676"
         sodipodi:nodetypes="csssc" />
      <path
         sodipodi:nodetypes="csssc"
         id="path3678"
         d="M 40.497109,27.280292 C 40.52484,27.698287 40.319533,29.789633 37.772498,31.334053 C 35.734994,32.569515 35.034021,31.085787 35.034021,29.929285 C 35.034021,28.772783 35.228795,26.7705 37.730901,25.36178 C 39.856652,24.164953 40.510975,25.770591 40.497109,27.280292 z "
         style="fill:#807f80;fill-opacity:1;fill-rule:nonzero;stroke:none;stroke-width:0.75;stroke-linecap:butt;stroke-linejoin:round;stroke-miterlimit:4;stroke-dashoffset:7.3869732;stroke-opacity:0.68235294" />
      <path
         style="fill:#a9a8a7;fill-opacity:1;fill-rule:nonzero;stroke:none;stroke-width:0.75;stroke-linecap:butt;stroke-linejoin:round;stroke-miterlimit:4;stroke-dashoffset:7.3869732;stroke-opacity:0.68235294"
         d="M 39.449067,27.935525 C 39.465444,28.182985 39.344198,29.421094 37.840027,30.335413 C 36.636765,31.066826 36.2228,30.188436 36.2228,29.50377 C 36.2228,28.819103 36.337826,27.633721 37.815462,26.799737 C 39.07084,26.091198 39.457256,27.04176 39.449067,27.935525 z "
         id="path3680"
         sodipodi:nodetypes="csssc" />
      <path
         style="fill:#fffff5;fill-opacity:0.4863158;fill-rule:nonzero;stroke:#a9a896;stroke-width:0.25;stroke-linecap:butt;stroke-linejoin:bevel;stroke-miterlimit:4;stroke-dasharray:none;stroke-dashoffset:7.3869732;stroke-opacity:1"
         d="M 19.020034,23.990607 L 62.35119,28.681563 L 60.952625,56.532986 L 21.732813,51.288372 L 19.020034,23.990607 z "
         id="path3656"
         sodipodi:nodetypes="ccccc" />
      <path
         sodipodi:nodetypes="ccccc"
         id="path3658"
         d="M 16.278415,23.716662 L 62.35119,28.681563 L 62.910614,27.58272 L 17.607051,22.617818 L 16.278415,23.716662 z "
         style="opacity:1;fill:#fffff5;fill-opacity:0.57684212;fill-rule:nonzero;stroke:#a9a8a7;stroke-width:0.25;stroke-linecap:butt;stroke-linejoin:round;stroke-miterlimit:4;stroke-dasharray:none;stroke-dashoffset:7.3869732;stroke-opacity:1" />
      <path
         sodipodi:nodetypes="ccccc"
         id="rect5462"
         d="M 19.300178,24.140937 L 61.466871,41.69291 L 60.837517,56.307901 L 21.677736,51.063287 L 19.300178,24.140937 z "
         style="opacity:0.91194967;fill:#fffff5;fill-opacity:0.34526313;fill-rule:nonzero;stroke:none;stroke-width:0.25;stroke-linecap:butt;stroke-linejoin:miter;stroke-miterlimit:4;stroke-dashoffset:7.3869732;stroke-opacity:1" />
    </g>
  </g>
</svg>
