<?xml version="1.0" encoding="UTF-8" standalone="no"?>
<!-- Created with Inkscape (http://www.inkscape.org/) -->
<svg
   xmlns:dc="http://purl.org/dc/elements/1.1/"
   xmlns:cc="http://web.resource.org/cc/"
   xmlns:rdf="http://www.w3.org/1999/02/22-rdf-syntax-ns#"
   xmlns:svg="http://www.w3.org/2000/svg"
   xmlns="http://www.w3.org/2000/svg"
   xmlns:sodipodi="http://sodipodi.sourceforge.net/DTD/sodipodi-0.dtd"
   xmlns:inkscape="http://www.inkscape.org/namespaces/inkscape"
   width="32"
   height="16"
   id="svg1908"
   sodipodi:version="0.32"
   inkscape:version="0.44"
   version="1.0"
   sodipodi:docbase="/mnt/vdrsrc/xxv/devlop/XXV-Skins/stone/images/artwork"
   sodipodi:docname="ofdb.svg"
   inkscape:export-filename="/mnt/vdrsrc/xxv/devlop/XXV-Skins/stone/images/ofdb.png"
   inkscape:export-xdpi="90"
   inkscape:export-ydpi="90">
  <defs
     id="defs1910" />
  <sodipodi:namedview
     id="base"
     pagecolor="#ffffff"
     bordercolor="#666666"
     borderopacity="1.0"
     inkscape:pageopacity="0.0"
     inkscape:pageshadow="2"
     inkscape:zoom="30.450552"
     inkscape:cx="15.680076"
     inkscape:cy="9.047597"
     inkscape:document-units="px"
     inkscape:current-layer="layer1"
     width="32px"
     height="16px"
     inkscape:window-width="1175"
     inkscape:window-height="950"
     inkscape:window-x="0"
     inkscape:window-y="0" />
  <metadata
     id="metadata1913">
    <rdf:RDF>
      <cc:Work
         rdf:about="">
        <dc:format>image/svg+xml</dc:format>
        <dc:type
           rdf:resource="http://purl.org/dc/dcmitype/StillImage" />
      </cc:Work>
    </rdf:RDF>
  </metadata>
  <g
     inkscape:label="Ebene 1"
     inkscape:groupmode="layer"
     id="layer1">
    <path
       style="font-size:33.89316559px;font-style:normal;font-variant:normal;font-weight:normal;font-stretch:normal;text-align:start;line-height:125%;writing-mode:lr-tb;text-anchor:start;fill:#666;fill-opacity:0.49475888;stroke:none;stroke-width:1pt;stroke-linecap:butt;stroke-linejoin:miter;stroke-opacity:1;font-family:Impact"
       d="M 20.459048,13.651187 L 20.459048,15.526161 L 18.817618,15.526161 L 18.817618,13.651187 L 20.459048,13.651187 M 25.980714,6.327426 L 25.980714,15.526161 L 23.806492,15.526161 L 23.806492,14.980714 C 23.598395,15.207984 23.379537,15.378435 23.149919,15.492069 C 22.920295,15.605705 22.679911,15.662522 22.428766,15.662522 C 22.091508,15.662522 21.799101,15.56972 21.551541,15.384117 C 21.303981,15.194726 21.144322,14.976927 21.072567,14.730717 C 21.004398,14.484509 20.970314,14.083 20.970314,13.526188 L 20.970314,9.9978291 C 20.970314,9.4182978 21.004398,9.0073193 21.072567,8.764892 C 21.144322,8.5224779 21.305775,8.3103596 21.556924,8.1285374 C 21.80807,7.9429413 22.107653,7.8501394 22.455674,7.8501317 C 22.724759,7.8501394 22.970526,7.9012751 23.192973,8.0035388 C 23.419003,8.1058175 23.62351,8.2592242 23.806492,8.4637596 L 23.806492,6.327426 L 25.980714,6.327426 M 23.806492,9.8841941 C 23.806488,9.6076893 23.783167,9.4220855 23.736529,9.3273844 C 23.693471,9.2326952 23.60557,9.185347 23.472823,9.1853398 C 23.343658,9.185347 23.255757,9.2289062 23.209118,9.3160209 C 23.166062,9.3993587 23.144534,9.5887502 23.144537,9.8841941 L 23.144537,13.577324 C 23.144534,13.88414 23.166062,14.086789 23.209118,14.18527 C 23.25217,14.279968 23.334689,14.327315 23.456678,14.327315 C 23.596601,14.327315 23.689884,14.274286 23.736529,14.168226 C 23.783167,14.05838 23.806488,13.793232 23.806492,13.372781 L 23.806492,9.8841941 M 31.685361,11.889848 L 28.87071,11.889848 L 28.87071,13.520507 C 28.870707,13.861413 28.894028,14.081107 28.940673,14.179589 C 28.987312,14.278073 29.077007,14.327315 29.20976,14.327315 C 29.374796,14.327315 29.484226,14.262922 29.538046,14.134134 C 29.595448,14.001562 29.62415,13.747779 29.624153,13.372781 L 29.624153,12.378478 L 31.685361,12.378478 L 31.685361,12.935288 C 31.685355,13.401192 31.656653,13.759141 31.599254,14.009137 C 31.545431,14.259134 31.416269,14.526176 31.211768,14.810262 C 31.007256,15.09435 30.74714,15.308361 30.431415,15.452298 C 30.119271,15.592448 29.726404,15.662522 29.252813,15.662522 C 28.793569,15.662522 28.388145,15.592448 28.03654,15.452298 C 27.684931,15.312149 27.410463,15.120863 27.213134,14.878442 C 27.019391,14.632235 26.884847,14.3633 26.809504,14.071636 C 26.734158,13.776187 26.696485,13.348163 26.696487,12.787562 L 26.696487,10.58873 C 26.696485,9.9296541 26.7808,9.4107222 26.949428,9.031933 C 27.118055,8.64937 27.394317,8.3577077 27.778216,8.1569457 C 28.162112,7.9524106 28.603415,7.8501394 29.102126,7.8501317 C 29.712052,7.8501394 30.214348,7.9732435 30.609012,8.219445 C 31.007256,8.4618727 31.285313,8.7857318 31.443182,9.1910221 C 31.60463,9.5925381 31.685355,10.158817 31.685361,10.889863 L 31.685361,11.889848 M 29.505756,10.662593 L 29.505756,10.111464 C 29.505752,9.7213235 29.486019,9.4694338 29.446556,9.3557924 C 29.407087,9.2421641 29.326361,9.185347 29.204379,9.1853398 C 29.053687,9.185347 28.960403,9.2345885 28.924527,9.3330655 C 28.888646,9.4277679 28.870707,9.6872333 28.87071,10.111464 L 28.87071,10.662593 L 29.505756,10.662593"
       id="path1900"
       sodipodi:nodetypes="cccccccccssssccssssccccsssccssscccccsssccccssssscsccscsccccccsssccc" />
    <path
       sodipodi:nodetypes="cccccccccssssccssssccccsssccssscccccsssccccssssscsccscsccccccsssccc"
       id="path1892"
       d="M 20.215293,13.52931 L 20.215293,15.404283 L 18.573863,15.404283 L 18.573863,13.52931 L 20.215293,13.52931 M 25.736959,6.2055483 L 25.736959,15.404283 L 23.562737,15.404283 L 23.562737,14.858837 C 23.35464,15.086107 23.135782,15.256558 22.906164,15.370192 C 22.67654,15.483828 22.436156,15.540645 22.185011,15.540645 C 21.847753,15.540645 21.555346,15.447843 21.307786,15.26224 C 21.060226,15.072849 20.900567,14.85505 20.828812,14.60884 C 20.760643,14.362632 20.726559,13.961123 20.726559,13.404311 L 20.726559,9.8759511 C 20.726559,9.2964201 20.760643,8.8854417 20.828812,8.6430143 C 20.900567,8.4006002 21.06202,8.1884819 21.313169,8.0066597 C 21.564315,7.8210636 21.863898,7.7282617 22.211919,7.7282541 C 22.481004,7.7282617 22.726771,7.7793974 22.949218,7.8816611 C 23.175248,7.9839399 23.379755,8.1373465 23.562737,8.3418819 L 23.562737,6.2055483 L 25.736959,6.2055483 M 23.562737,9.7623168 C 23.562733,9.4858116 23.539412,9.3002079 23.492774,9.2055067 C 23.449716,9.1108175 23.361815,9.0634694 23.229068,9.0634622 C 23.099903,9.0634694 23.012002,9.1070285 22.965363,9.1941433 C 22.922307,9.277481 22.900779,9.4668726 22.900782,9.7623168 L 22.900782,13.455447 C 22.900779,13.762263 22.922307,13.964911 22.965363,14.063393 C 23.008415,14.15809 23.090934,14.205438 23.212923,14.205438 C 23.352846,14.205438 23.446129,14.152408 23.492774,14.046349 C 23.539412,13.936503 23.562733,13.671355 23.562737,13.250904 L 23.562737,9.7623168 M 31.441606,11.767971 L 28.626955,11.767971 L 28.626955,13.398629 C 28.626952,13.739536 28.650273,13.95923 28.696918,14.057712 C 28.743557,14.156196 28.833252,14.205438 28.966005,14.205438 C 29.131041,14.205438 29.240471,14.141045 29.294291,14.012257 C 29.351693,13.879685 29.380395,13.625901 29.380398,13.250904 L 29.380398,12.256601 L 31.441606,12.256601 L 31.441606,12.813411 C 31.4416,13.279315 31.412898,13.637264 31.355498,13.88726 C 31.301676,14.137257 31.172514,14.404299 30.968013,14.688384 C 30.763501,14.972472 30.503385,15.186484 30.18766,15.330421 C 29.875516,15.470571 29.482649,15.540645 29.009058,15.540645 C 28.549814,15.540645 28.14439,15.470571 27.792785,15.330421 C 27.441176,15.190272 27.166708,14.998986 26.969379,14.756565 C 26.775636,14.510358 26.641092,14.241423 26.565749,13.949758 C 26.490403,13.654309 26.45273,13.226285 26.452732,12.665685 L 26.452732,10.466852 C 26.45273,9.8077761 26.537045,9.2888445 26.705673,8.9100554 C 26.8743,8.5274923 27.150562,8.23583 27.534461,8.035068 C 27.918357,7.830533 28.359659,7.7282617 28.858371,7.7282541 C 29.468297,7.7282617 29.970593,7.8513658 30.365257,8.0975673 C 30.763501,8.339995 31.041558,8.6638541 31.199427,9.0691444 C 31.360875,9.4706604 31.4416,10.036939 31.441606,10.767985 L 31.441606,11.767971 M 29.262001,10.540715 L 29.262001,9.9895861 C 29.261997,9.5994459 29.242264,9.3475561 29.202801,9.2339147 C 29.163332,9.1202865 29.082606,9.0634694 28.960624,9.0634622 C 28.809932,9.0634694 28.716648,9.1127109 28.680772,9.2111878 C 28.644891,9.3058902 28.626952,9.5653556 28.626955,9.9895861 L 28.626955,10.540715 L 29.262001,10.540715"
       style="font-size:33.89316559px;font-style:normal;font-variant:normal;font-weight:normal;font-stretch:normal;text-align:start;line-height:125%;writing-mode:lr-tb;text-anchor:start;fill:#6bacfe;fill-opacity:1;stroke:none;stroke-width:1pt;stroke-linecap:butt;stroke-linejoin:miter;stroke-opacity:1;font-family:Impact" />
    <g
       id="g2789"
       transform="translate(0,-0.383974)">
      <path
         sodipodi:nodetypes="cccsscssccccsscsscccsssccssscccccccccccccccsssccssscccccsccsscccsssssccssssccccccsssccssscc"
         style="font-size:33.89316559px;font-style:normal;font-variant:normal;font-weight:normal;font-stretch:normal;text-align:start;line-height:125%;writing-mode:lr-tb;text-anchor:start;fill:#666;fill-opacity:0.49803922;stroke:none;stroke-width:1pt;stroke-linecap:butt;stroke-linejoin:miter;stroke-opacity:1;font-family:Impact"
         d="M 6.2922276,9.4632405 C 6.2922211,10.475999 6.2686325,11.194057 6.2214609,11.617419 C 6.1782088,12.036636 6.0366753,12.420569 5.796861,12.76922 C 5.5609667,13.117875 5.2405513,13.38559 4.8356142,13.572368 C 4.4306675,13.759148 3.9588904,13.852536 3.4202816,13.852536 C 2.9091862,13.852536 2.449204,13.765373 2.0403324,13.591047 C 1.6353882,13.41257 1.309076,13.146929 1.0613937,12.794125 C 0.81370999,12.441323 0.66627958,12.057389 0.61910212,11.642324 C 0.57192414,11.227263 0.54833501,10.500903 0.54833579,9.4632405 L 0.54833579,7.7386519 C 0.54833501,6.725904 0.56995877,6.0099204 0.61320514,5.5906986 C 0.66038221,5.1673426 0.80191563,4.7813337 1.037805,4.4326716 C 1.2776239,4.0840277 1.6000053,3.8163124 2.0049487,3.629524 C 2.4098889,3.4427558 2.8816662,3.3493662 3.4202816,3.3493562 C 3.9313701,3.3493662 4.3893871,3.4386047 4.7943337,3.617072 C 5.2032023,3.7914084 5.5314805,4.0549735 5.7791695,4.407768 C 6.0268467,4.7605805 6.1742772,5.1445144 6.2214609,5.559569 C 6.2686325,5.97464 6.2922211,6.7010006 6.2922276,7.7386519 L 6.2922276,9.4632405 M 3.8094979,6.1510344 C 3.8094943,5.6820206 3.7839398,5.3831752 3.7328343,5.2544977 C 3.685653,5.1216852 3.5854006,5.0552757 3.4320761,5.0552669 C 3.3023339,5.0552757 3.2020812,5.1092336 3.1313179,5.2171413 C 3.0644798,5.3209161 3.0310625,5.6322132 3.031065,6.1510344 L 3.031065,10.857854 C 3.0310625,11.443095 3.0526854,11.8042 3.0959342,11.941169 C 3.1431094,12.078142 3.2492594,12.146628 3.4143844,12.146626 C 3.5834345,12.146628 3.6915502,12.067765 3.7387316,11.910039 C 3.7859052,11.752318 3.8094943,11.376685 3.8094979,10.783142 L 3.8094979,6.1510344 M 7.2003992,3.5610387 L 11.405116,3.5610387 L 11.405116,5.5782467 L 9.6831283,5.5782467 L 9.6831283,7.4896139 L 11.216405,7.4896139 L 11.216405,9.4072072 L 9.6831283,9.4072072 L 9.6831283,13.640854 L 7.2003992,13.640854 L 7.2003992,3.5610387 M 12.012528,3.5610387 L 13.870153,3.5610387 C 15.06925,3.5610485 15.879134,3.6191575 16.299807,3.7353652 C 16.724401,3.8515929 17.046783,4.0425215 17.266951,4.3081525 C 17.487108,4.5738026 17.62471,4.8705724 17.679758,5.1984635 C 17.734792,5.5222211 17.762312,6.1614186 17.762318,7.1160565 L 17.762318,10.646172 C 17.762312,11.551012 17.72103,12.157005 17.638477,12.464149 C 17.559841,12.767147 17.420274,13.005807 17.219774,13.180134 C 17.019263,13.35031 16.771579,13.470679 16.476723,13.54124 C 16.181858,13.607649 15.737602,13.640854 15.143953,13.640854 L 12.012528,13.640854 L 12.012528,3.5610387 M 14.495258,5.2856273 L 14.495258,11.916265 C 14.853019,11.916267 15.073183,11.841557 15.155747,11.692131 C 15.238303,11.538561 15.279585,11.125572 15.279589,10.453167 L 15.279589,6.5370431 C 15.279585,6.0804811 15.265825,5.7878615 15.238308,5.6591839 C 15.210784,5.5305225 15.14788,5.4371333 15.049597,5.3790165 C 14.951308,5.3167651 14.766527,5.2856355 14.495258,5.2856273 M 20.999891,3.5610387 L 20.999891,5.9455782 C 21.196463,5.7048489 21.41466,5.526372 21.654483,5.4101463 C 21.89823,5.2897863 22.161639,5.2296015 22.44471,5.2295933 C 22.771019,5.2296015 23.054085,5.2835597 23.293909,5.3914683 C 23.533725,5.4993928 23.716539,5.6508909 23.842351,5.8459625 C 23.968153,6.04105 24.04285,6.231979 24.066446,6.4187501 C 24.09396,6.6055361 24.107721,7.0039964 24.107726,7.6141328 L 24.107726,11.337251 C 24.107721,11.943246 24.068405,12.395665 23.989782,12.694509 C 23.915077,12.989206 23.736196,13.246545 23.453135,13.466528 C 23.170062,13.68236 22.833921,13.790277 22.44471,13.790277 C 22.165571,13.790277 21.904128,13.725942 21.660379,13.597272 C 21.420557,13.468603 21.200394,13.275598 20.999891,13.018258 L 20.846564,13.640854 L 18.617416,13.640854 L 18.617416,3.5610387 L 20.999891,3.5610387 M 21.725249,7.7261999 C 21.725245,7.2986911 21.699691,7.020599 21.648586,6.8919226 C 21.597474,6.7591094 21.49722,6.6926991 21.347827,6.692692 C 21.202361,6.6926991 21.108004,6.750808 21.06476,6.867019 C 21.021513,6.9790925 20.999889,7.2654861 20.999891,7.7261999 L 20.999891,11.287444 C 20.999889,11.731564 21.023477,12.015883 21.070659,12.140401 C 21.121764,12.26492 21.22005,12.32718 21.365519,12.327179 C 21.514912,12.32718 21.611234,12.262845 21.654483,12.134174 C 21.701656,12.005506 21.725245,11.696283 21.725249,11.206507 L 21.725249,7.7261999"
         id="path1898" />
      <path
         id="path1894"
         d="M 5.9512719,9.0292968 C 5.9512653,10.042055 5.9276769,10.760114 5.8805052,11.183476 C 5.8372529,11.602692 5.6957195,11.986625 5.4559053,12.335277 C 5.2200108,12.683931 4.8995955,12.951646 4.4946585,13.138424 C 4.0897118,13.325204 3.6179347,13.418592 3.0793259,13.418592 C 2.5682305,13.418592 2.1082483,13.331429 1.6993766,13.157103 C 1.2944325,12.978626 0.96812013,12.712985 0.72043792,12.360181 C 0.47275427,12.007379 0.32532384,11.623445 0.27814636,11.20838 C 0.23096838,10.793319 0.20737925,10.066958 0.20738004,9.0292968 L 0.20738004,7.3047082 C 0.20737925,6.2919604 0.22900303,5.5759767 0.27224939,5.156755 C 0.31942646,4.7333989 0.4609599,4.34739 0.69684919,3.9987278 C 0.93666815,3.650084 1.2590494,3.3823687 1.6639931,3.1955803 C 2.0689331,3.008812 2.5407105,2.9154225 3.0793259,2.9154125 C 3.5904144,2.9154225 4.0484313,3.004661 4.4533779,3.1831283 C 4.8622466,3.3574647 5.1905248,3.6210298 5.4382136,3.9738243 C 5.6858909,4.3266369 5.8333214,4.7105707 5.8805052,5.1256253 C 5.9276769,5.5406963 5.9512653,6.2670568 5.9512719,7.3047082 L 5.9512719,9.0292968 M 3.4685422,5.7170907 C 3.4685385,5.248077 3.442984,4.9492314 3.3918786,4.8205539 C 3.3446972,4.6877416 3.2444448,4.6213319 3.0911203,4.6213232 C 2.9613781,4.6213319 2.8611255,4.6752899 2.7903621,4.7831976 C 2.723524,4.8869724 2.6901067,5.1982694 2.6901093,5.7170907 L 2.6901093,10.42391 C 2.6901067,11.009151 2.7117296,11.370256 2.7549785,11.507225 C 2.8021537,11.644198 2.9083035,11.712684 3.0734286,11.712682 C 3.2424787,11.712684 3.3505944,11.633822 3.3977759,11.476095 C 3.4449494,11.318374 3.4685385,10.942741 3.4685422,10.349198 L 3.4685422,5.7170907 M 6.8594434,3.1270951 L 11.064161,3.1270951 L 11.064161,5.144303 L 9.3421726,5.144303 L 9.3421726,7.0556701 L 10.87545,7.0556701 L 10.87545,8.9732636 L 9.3421726,8.9732636 L 9.3421726,13.206911 L 6.8594434,13.206911 L 6.8594434,3.1270951 M 11.671573,3.1270951 L 13.529198,3.1270951 C 14.728296,3.1271048 15.538179,3.1852138 15.958852,3.3014214 C 16.383446,3.4176493 16.705827,3.6085779 16.925996,3.8742089 C 17.146153,4.1398589 17.283755,4.4366287 17.338803,4.7645198 C 17.393837,5.0882773 17.421357,5.7274748 17.421362,6.6821127 L 17.421362,10.212228 C 17.421357,11.117068 17.380075,11.723061 17.29752,12.030205 C 17.218886,12.333203 17.079319,12.571863 16.878818,12.74619 C 16.678308,12.916366 16.430623,13.036735 16.135767,13.107296 C 15.840903,13.173705 15.396645,13.206911 14.802997,13.206911 L 11.671573,13.206911 L 11.671573,3.1270951 M 14.154301,4.8516837 L 14.154301,11.482321 C 14.512065,11.482323 14.732227,11.407612 14.814792,11.258187 C 14.897349,11.104617 14.938629,10.691628 14.938634,10.019223 L 14.938634,6.1030994 C 14.938629,5.6465374 14.924869,5.3539179 14.897352,5.2252402 C 14.869828,5.0965788 14.806925,5.0031895 14.708641,4.9450728 C 14.610352,4.8828215 14.425572,4.8516918 14.154301,4.8516837 M 20.658935,3.1270951 L 20.658935,5.5116345 C 20.855507,5.2709053 21.073705,5.0924283 21.313528,4.9762025 C 21.557275,4.8558427 21.820684,4.7956579 22.103756,4.7956497 C 22.430065,4.7956579 22.713129,4.8496161 22.952954,4.9575246 C 23.192769,5.065449 23.375582,5.2169472 23.501395,5.4120187 C 23.627197,5.6071064 23.701894,5.7980354 23.72549,5.9848064 C 23.753005,6.1715924 23.766765,6.5700528 23.76677,7.1801891 L 23.76677,10.903308 C 23.766765,11.509302 23.727449,11.961722 23.648827,12.260566 C 23.574123,12.555262 23.395241,12.812601 23.112179,13.032584 C 22.829108,13.248416 22.492966,13.356333 22.103756,13.356333 C 21.824616,13.356333 21.563173,13.291998 21.319424,13.163328 C 21.0796,13.034659 20.85944,12.841656 20.658935,12.584315 L 20.50561,13.206911 L 18.27646,13.206911 L 18.27646,3.1270951 L 20.658935,3.1270951 M 21.384294,7.2922562 C 21.38429,6.8647474 21.358736,6.5866553 21.30763,6.4579788 C 21.256519,6.3251658 21.156264,6.2587554 21.006871,6.2587483 C 20.861406,6.2587554 20.767048,6.3168643 20.723806,6.4330753 C 20.680557,6.5451489 20.658934,6.8315424 20.658935,7.2922562 L 20.658935,10.853501 C 20.658934,11.29762 20.682521,11.581939 20.729702,11.706457 C 20.780808,11.830977 20.879095,11.893236 21.024565,11.893235 C 21.173957,11.893236 21.270278,11.828901 21.313528,11.700231 C 21.360701,11.571562 21.38429,11.26234 21.384294,10.772563 L 21.384294,7.2922562"
         style="font-size:33.89316559px;font-style:normal;font-variant:normal;font-weight:normal;font-stretch:normal;text-align:start;line-height:125%;writing-mode:lr-tb;text-anchor:start;fill:black;fill-opacity:1;stroke:none;stroke-width:1pt;stroke-linecap:butt;stroke-linejoin:miter;stroke-opacity:1;font-family:Impact"
         sodipodi:nodetypes="cccsscssccccsscsscccsssccssscccccccccccccccsssccssscccccsccsscccsssssccssssccccccsssccssscc" />
    </g>
  </g>
</svg>
