<?xml version="1.0" encoding="UTF-8" standalone="no"?>
<!-- Created with Sodipodi ("http://www.sodipodi.com/") -->
<svg
   xmlns:xapMM="http://ns.adobe.com/xap/1.0/mm/"
   xmlns:xapGImg="http://ns.adobe.com/xap/1.0/g/img/"
   xmlns:xap="http://ns.adobe.com/xap/1.0/"
   xmlns:pdf="http://ns.adobe.com/pdf/1.3/"
   xmlns:ns="http://ns.adobe.com/SaveForWeb/1.0/"
   xmlns:x="adobe:ns:meta/"
   xmlns:dc="http://purl.org/dc/elements/1.1/"
   xmlns:cc="http://web.resource.org/cc/"
   xmlns:rdf="http://www.w3.org/1999/02/22-rdf-syntax-ns#"
   xmlns:svg="http://www.w3.org/2000/svg"
   xmlns="http://www.w3.org/2000/svg"
   xmlns:xlink="http://www.w3.org/1999/xlink"
   xmlns:sodipodi="http://sodipodi.sourceforge.net/DTD/sodipodi-0.dtd"
   xmlns:inkscape="http://www.inkscape.org/namespaces/inkscape"
   inkscape:export-ydpi="22.5"
   inkscape:export-xdpi="22.5"
   inkscape:export-filename="/mnt/vdrsrc/xxv/devlop/XXV-Skins/stone/images/quiet.png"
   width="64"
   height="64"
   viewBox="0 0 256 256"
   overflow="visible"
   enable-background="new 0 0 256 256"
   xml:space="preserve"
   id="svg3232"
   sodipodi:version="0.32"
   sodipodi:docname="quiet.svg"
   sodipodi:docbase="/mnt/vdrsrc/xxv/svn/xxv/XXV-Skins/trunk/stone/images/artwork"
   inkscape:version="0.45.1"
   inkscape:output_extension="org.inkscape.output.svg.inkscape"
   version="1.0">
  <defs
   id="defs3296"><linearGradient
     id="XMLID_9_"
     gradientUnits="userSpaceOnUse"
     x1="128.0024"
     y1="39.862801"
     x2="128.0024"
     y2="216.15871">
      <stop
   offset="0"
   style="stop-color:#003333"
   id="stop3256" />


      <stop
   offset="1"
   style="stop-color:#006600"
   id="stop3257" />


      
      
      
    </linearGradient><linearGradient
     id="XMLID_10_"
     gradientUnits="userSpaceOnUse"
     x1="127.7437"
     y1="211.125"
     x2="127.7436"
     y2="44.909199">
      <stop
   offset="0"
   style="stop-color:#009933"
   id="stop3263" />


      <stop
   offset="1"
   style="stop-color:#00FF00"
   id="stop3264" />


      
      
      
    </linearGradient><linearGradient
     id="XMLID_11_"
     gradientUnits="userSpaceOnUse"
     x1="126.2256"
     y1="55.005901"
     x2="126.2256"
     y2="283.18289">
      <stop
   offset="0"
   style="stop-color:#FFFFFF"
   id="stop3271" />


      <stop
   offset="0.382"
   style="stop-color:#00FF00"
   id="stop3272" />


      <stop
   offset="0.4331"
   style="stop-color:#00FB02"
   id="stop3273" />


      <stop
   offset="0.4874"
   style="stop-color:#00EE09"
   id="stop3274" />


      <stop
   offset="0.5432"
   style="stop-color:#00D913"
   id="stop3275" />


      <stop
   offset="0.5997"
   style="stop-color:#00BB22"
   id="stop3276" />


      <stop
   offset="0.6517"
   style="stop-color:#009933"
   id="stop3277" />


      <stop
   offset="0.8258"
   style="stop-color:#006600"
   id="stop3278" />


      
      
      
      
      
      
      
    </linearGradient><radialGradient
     id="XMLID_12_"
     cx="100.5962"
     cy="124.4897"
     r="86.195503"
     fx="100.5962"
     fy="124.4897"
     gradientTransform="matrix(0.826,-2.47e-2,-2.47e-2,0.738,18.1722,45.3572)"
     gradientUnits="userSpaceOnUse">
      <stop
   offset="0.3933"
   style="stop-color:#FFFFFF"
   id="stop3288" />


      <stop
   offset="0.7303"
   style="stop-color:#00E100"
   id="stop3289" />


      
      
      
    </radialGradient><linearGradient
     inkscape:collect="always"
     xlink:href="#XMLID_9_"
     id="linearGradient2351"
     gradientUnits="userSpaceOnUse"
     x1="128.0024"
     y1="39.862801"
     x2="128.0024"
     y2="216.15871" /><linearGradient
     inkscape:collect="always"
     xlink:href="#XMLID_10_"
     id="linearGradient2353"
     gradientUnits="userSpaceOnUse"
     x1="127.7437"
     y1="211.125"
     x2="127.7436"
     y2="44.909199" /><linearGradient
     inkscape:collect="always"
     xlink:href="#XMLID_11_"
     id="linearGradient2355"
     gradientUnits="userSpaceOnUse"
     x1="126.2256"
     y1="55.005901"
     x2="126.2256"
     y2="283.18289" /><radialGradient
     inkscape:collect="always"
     xlink:href="#XMLID_12_"
     id="radialGradient2357"
     gradientUnits="userSpaceOnUse"
     gradientTransform="matrix(0.826,-2.47e-2,-2.47e-2,0.738,18.1722,45.3572)"
     cx="100.5962"
     cy="124.4897"
     fx="100.5962"
     fy="124.4897"
     r="86.195503" /><linearGradient
     y2="127.5"
     x2="235.1136"
     y1="127.5"
     x1="20.086399"
     gradientUnits="userSpaceOnUse"
     id="XMLID_4_"
     gradientTransform="matrix(0.4220593,0.4238389,-0.4254349,0.4235063,71.489336,53.14176)">
      <stop
   id="stop556"
   style="stop-color:#AA0000"
   offset="0.0056" />
      <stop
   id="stop557"
   style="stop-color:#663333"
   offset="1" />
    </linearGradient><linearGradient
     y2="127.5029"
     x2="222.7139"
     y1="127.5029"
     x1="32.484901"
     gradientUnits="userSpaceOnUse"
     id="XMLID_5_"
     gradientTransform="matrix(0.4220593,0.4238389,-0.4254349,0.4235063,71.489336,53.14176)">
      <stop
   id="stop563"
   style="stop-color:#FF6D00"
   offset="0.0056" />
      <stop
   id="stop564"
   style="stop-color:#CF0000"
   offset="0.5" />
      <stop
   id="stop565"
   style="stop-color:#FF6666"
   offset="1" />
    </linearGradient><linearGradient
     gradientTransform="matrix(0.4220593,0.4238389,-0.4254349,0.4235063,0.1849865,-52.945198)"
     y2="139.1456"
     x2="127.5972"
     y1="36.8535"
     x1="127.5972"
     gradientUnits="userSpaceOnUse"
     id="XMLID_6_">
      <stop
   id="stop573"
   style="stop-color:#f7f7f7;stop-opacity:1;"
   offset="0.0056" />
      <stop
   id="stop574"
   style="stop-color:#6c66ff;stop-opacity:1;"
   offset="1" />
    </linearGradient><linearGradient
     inkscape:collect="always"
     xlink:href="#XMLID_6_"
     id="linearGradient4292"
     gradientUnits="userSpaceOnUse"
     gradientTransform="matrix(0.4220593,0.4238389,-0.4254349,0.4235063,0.1849865,-52.945198)"
     x1="127.5972"
     y1="36.8535"
     x2="127.5972"
     y2="139.1456" /></defs>


  <sodipodi:namedview
   id="base"
   inkscape:zoom="11.5"
   inkscape:cx="31.616826"
   inkscape:cy="28.99913"
   inkscape:window-width="1269"
   inkscape:window-height="949"
   inkscape:window-x="0"
   inkscape:window-y="0"
   inkscape:current-layer="svg3232"
   width="64px"
   height="64px" />


  <metadata
   id="metadata3233">
    <ns:sfw
   id="sfw6">
      <ns:slices
   id="slices8">
        <ns:slice
   x="0"
   y="0"
   width="256"
   height="256"
   sliceID="124165071"
   id="slice10" />


      </ns:slices>


      <ns:sliceSourceBounds
   x="0"
   y="0"
   width="256"
   height="256"
   bottomLeftOrigin="true"
   id="sliceSourceBounds12" />


      <ns:optimizationSettings
   id="optimizationSettings14">
        <ns:targetSettings
   fileFormat="PNG24Format"
   targetSettingsID="0"
   id="targetSettings16">
          <ns:PNG24Format
   transparency="true"
   includeCaption="false"
   interlaced="false"
   noMatteColor="false"
   matteColor="#FFFFFF"
   filtered="false"
   id="PNG24Format18" />


        </ns:targetSettings>


      </ns:optimizationSettings>


    </ns:sfw>


    <xpacket
   id="xpacket20">begin='﻿' id='W5M0MpCehiHzreSzNTczkc9d'    </xpacket>


    <x:xmpmeta
   x:xmptk="XMP toolkit 3.0-29, framework 1.6"
   id="xmpmeta22">
      
    <metadata
   id="metadata113">
  <rdf:RDF>
        <rdf:Description
   rdf:about="uuid:6fb7133e-0d42-4d20-8954-32780fe62e43">
          <pdf:Producer>
Adobe PDF library 5.00</pdf:Producer>


        </rdf:Description>


        <rdf:Description
   rdf:about="uuid:6fb7133e-0d42-4d20-8954-32780fe62e43" />


        <rdf:Description
   rdf:about="uuid:6fb7133e-0d42-4d20-8954-32780fe62e43" />


        <rdf:Description
   rdf:about="uuid:6fb7133e-0d42-4d20-8954-32780fe62e43">
          <xap:CreateDate>
2004-01-26T11:58:28+02:00</xap:CreateDate>


          <xap:ModifyDate>
2004-03-28T20:35:22Z</xap:ModifyDate>


          <xap:CreatorTool>
Adobe Illustrator 10.0</xap:CreatorTool>


          <xap:MetadataDate>
2004-02-16T23:09:30+01:00</xap:MetadataDate>


          <xap:Thumbnails>
            <rdf:Alt>
              <rdf:li
   rdf:parseType="Resource">
                <xapGImg:format>
JPEG</xapGImg:format>


                <xapGImg:width>
256</xapGImg:width>


                <xapGImg:height>
256</xapGImg:height>


                <xapGImg:image>
/9j/4AAQSkZJRgABAgEASABIAAD/7QAsUGhvdG9zaG9wIDMuMAA4QklNA+0AAAAAABAASAAAAAEA
AQBIAAAAAQAB/+4ADkFkb2JlAGTAAAAAAf/bAIQABgQEBAUEBgUFBgkGBQYJCwgGBggLDAoKCwoK
DBAMDAwMDAwQDA4PEA8ODBMTFBQTExwbGxscHx8fHx8fHx8fHwEHBwcNDA0YEBAYGhURFRofHx8f
Hx8fHx8fHx8fHx8fHx8fHx8fHx8fHx8fHx8fHx8fHx8fHx8fHx8fHx8fHx8f/8AAEQgBAAEAAwER
AAIRAQMRAf/EAaIAAAAHAQEBAQEAAAAAAAAAAAQFAwIGAQAHCAkKCwEAAgIDAQEBAQEAAAAAAAAA
AQACAwQFBgcICQoLEAACAQMDAgQCBgcDBAIGAnMBAgMRBAAFIRIxQVEGE2EicYEUMpGhBxWxQiPB
UtHhMxZi8CRygvElQzRTkqKyY3PCNUQnk6OzNhdUZHTD0uIIJoMJChgZhJRFRqS0VtNVKBry4/PE
1OT0ZXWFlaW1xdXl9WZ2hpamtsbW5vY3R1dnd4eXp7fH1+f3OEhYaHiImKi4yNjo+Ck5SVlpeYmZ
qbnJ2en5KjpKWmp6ipqqusra6voRAAICAQIDBQUEBQYECAMDbQEAAhEDBCESMUEFURNhIgZxgZEy
obHwFMHR4SNCFVJicvEzJDRDghaSUyWiY7LCB3PSNeJEgxdUkwgJChgZJjZFGidkdFU38qOzwygp
0+PzhJSktMTU5PRldYWVpbXF1eX1RlZmdoaWprbG1ub2R1dnd4eXp7fH1+f3OEhYaHiImKi4yNjo
+DlJWWl5iZmpucnZ6fkqOkpaanqKmqq6ytrq+v/aAAwDAQACEQMRAD8A9U4q7FXYq7FXYq7FXYq7
FXYq7FXYq7FXYq7FXYq7FXYq7FXYq7FXYq7FXYq7FXYq7FXYq7FXYq7FXYq7FXYq7FXYqlvmDzFo
3l7TJdT1e5W1tItuTbszHoiKN2Y+AxV4j5g/5ydvTcMnl/SYlgU0Se/LOzDxMcTIF/4M4qk//QzP
nv8A5YNL/wCRVx/2UYq7/oZnz3/ywaX/AMirj/soxV3/AEMz57/5YNL/AORVx/2UYq7/AKGZ89/8
sGl/8irj/soxV3/QzPnv/lg0v/kVcf8AZRirv+hmfPf/ACwaX/yKuP8AsoxV3/QzPnv/AJYNL/5F
XH/ZRirv+hmfPf8AywaX/wAirj/soxV3/QzPnv8A5YNL/wCRVx/2UYq7/oZnz3/ywaX/AMirj/so
xV3/AEMz57/5YNL/AORVx/2UYq7/AKGZ89/8sGl/8irj/soxV3/QzPnv/lg0v/kVcf8AZRirv+hm
fPf/ACwaX/yKuP8AsoxV3/QzPnv/AJYNL/5FXH/ZRirv+hmfPf8AywaX/wAirj/soxV3/QzPnv8A
5YNL/wCRVx/2UYq7/oZnz3/ywaX/AMirj/soxV3/AEMz57/5YNL/AORVx/2UYq7/AKGZ89/8sGl/
8irj/soxV3/QzPnv/lg0v/kVcf8AZRirv+hmfPf/ACwaX/yKuP8AsoxVFad/zk75oS4B1HSbG4t+
6W/qwP8A8E7zj/hcVeyeRfzJ8tec7Vn0yUx3kQBuLCaizJ25AAkMlf2l+mmKsqxV2KuxV2KuxV2K
vm/XDqf5ufmk+j287Q+XtJLqJF3VIY2CSzAHYvM9AvtTwOKvePLfk/y35bs0tdHsYrZVFGlCgyuf
GSQ/Ex+ZxVOK4q6oxVrkMVdyGKu5jFWvUGKu9RffFWvVX3xV3rL74q71l8DirXrp4HFXfWE8DirX
1hPA4q76yngcVd9Zj8D+GKtfWo/A/hirvrcfgfw/rirvrcfgfw/rirX1yLwb8P64q765F4N+H9cV
d9di8G/D+uKtfXovBvw/riqVa/5X8r+abR7TV7GO55CiyMoWZP8AKjkHxKR7HFXzB5n0XXfys8/R
NZXBJgIudOujsJYGJUpIB8ijj+oxV9VeWtfs/MGhWWsWf9xexLKErUoxHxI3up2OKplirsVdirsV
Q+oMy2Fyy/aWJyvzCnFXhP8AziwqvL5nmYcpQLIBz1oxuC2/uVGKvficVaxVrFWicVaJxVrFWsVa
JxVonFWsVaxVrFWicVaxVrFWicVaJxVrFWsVaJxVonFWsVaxVdCSJkp/MP14q8V/5ypRBJ5ZkCjm
wvVZu5CmAgfRyOKsn/5x3vJX8lwWzElQZmSvbjMR/wAbYq9XxV2KuxV2KofUv+Oddf8AGGT/AIic
VeE/84pn/lKP+jD/ALGcVe+nFWsVaJxVonFWsVaxVonFWicVaxVTSaKQsEdXKHi4Ug0PgadMVXYq
0TirWKtYq0TirROKtYq1irROKtE4q1irWKtE4quh/vo/9YfrxV4t/wA5WH/lF/8Ao/8A+xbFU/8A
+cc/+UVg+Vx/yfGKvX8VdirsVdiqH1L/AI511/xhk/4icVeD/wDOKJr/AIp/6MP+xnFXvx64q0Ti
rROKtYq1irROKtE4q1iry7/nI3Xdc0f8tppdJleB7q6itbueMlXS3kVy3FhuOTKqH2OShzcfVSIh
s+WPK3mLzH5N1PT/ADFpUxjMhY0qfTmVG4yQyr3B/CoI3wxzRnKUOsf08vx5Oow6kCZA+qPP4vtH
yF540vzl5fg1axIUuKTwVq0cg+0p+WRIp3kJiQsMjwM2sVaJxVonFWsVaxVonFWicVaxVrFWicVa
JxVdD/fR/wCsP14q8V/5yuNP8Lf9H/8A2LYqyD/nHL/lFLf5XH/J8Yq9gxV2KuxV2KofUv8AjnXX
/GGT/iJxV4N/ziea/wCKf+jD/sZxV78euKtE4q1irWKtE4q0TirWKtYqxL81vL/+IPy813TAvOV7
Vprde5lt6TRgfNowMIO7VmjxQIfKv5caPH5o0rUPLLJzuC4ubIihdZCpVitaV+wNu9aZoO15ZcOp
x5sQskGJHfW9ffTw3afi49RjyYhcjcSO+t6++neQ/Omv/lh5ueO5RmsmYJqFoK8ZI67SR1pv4fcf
bd6fUw1GMTgdj+KLv+z9fGcROO8T+Pm+wtA1/S9f0m31bS51uLK5XlHIv4qR2IOxGTd9GQIsJgTi
lonFWsVaxVonFWicVaxVrFWicVaJxVrFV0H9/H/rD9eKvFf+csDT/C3/AEf/APYtirIP+ccP+UTt
/lcf8nxir2HFXYq7FXYqh9S/4511/wAYZP8AiJxV4J/ziYf+Uq/6MP8AsZxV7+x3OKtYq1irROKt
E4q1irWKtYqtNCKffir430uN/I/51XNhGOMVtfSRQKdqxlxNb/fRM13bECcHGPqxkTHwP6nke2YG
EDIfVikJj4H9T3L83vyj0/zhp51bS1C6gV9UFBu3IV5oB15ftL+11HxdcXJCWKfj4NxLeUf53mP6
X3/fPWaSUZfmdPvxbzh/O/pR/pff7+fBvIvn/wA2fldr72s8bTabIwN7pzMeDrWnqwt0D0Gx+g+2
30+px54ccDY/HNy9B2hGceKBuJ/HzfWXlLzjoHmzSI9U0W5E8DUEqHaSJ6VMcqdVYfj1FRljvYZB
IWE5xZtYq0TirROKtYq1irROKtE4q1irWKroD+/j/wBZf14q8U/5yzP/ACiv/R//ANi2Ksh/5xv/
AOUSt/lcf8n8VexYq7FXYq7FUPqX/HOuv+MMn/ETirwL/nEo/wDKVf8ARh/2M4q+gG6nFWsVaJxV
onFWsVaxVrFWicVaxV8s/wDOTmjyaV5/03zBAvEahbo/PxuLNgp39kMeRnATiYnkRTqO0cQlseUh
T3v8u9cj1Tyhp9wjBuMYj27Koqg/5Flc0vZ2Q+CIn6oXE/D9jgdjZydOIn6oXE/5v7KST8yvyp0T
zfaPII1h1EVZZBReR7mtPhb36Hv4hy4JRn4uE8M+o/hl7/Pza9ZoDxnLgPDk6j+GXv8APz/tfNz2
/n38q/MZu7KSS2dG9N5KVhlXr6c0ZqCD2+9T3zP0mvhm9J9OQc4nn8O8ea6LtHikY/RkHOJ/G483
0P8All+eXlzzisVhdldL8wGi/UpG/dzN427n7Vf5D8Xz65mvQ4dTGe3IvSicXJaJxVrFWsVaJxVo
nFWsVaxVonFV8H9/H/rL+vFXiX/OWp/5RX/o/wD+xbFWRf8AONv/ACiNt8rn/k/ir2PFXYq7FXYq
h9S/4511/wAYZP8AiJxV4D/ziQa/4r/7d/8A2M4q+gW+0fniq0nFWicVaxVrFWsVaJxVrFWsVeP/
APOT2gfpDyBFqaJWXSLpJGbwhn/cuP8Ag2jP0YuHrY3C+5LP+ccPMP1ny1LpzvV7Y/Cv+qaE/wDA
NGM0BHh6mcekqkPuP2vNaSXh6jJDpKpj7pfbT2D1cyOJ2nGlfmDy/o+vWbWuowLIpBVXoOQB6jcE
Eex2yjPhjk57SHIjmHE1Wlx5x6tpDlIcx7i+c/zC/IvVNFke+0X9/aA8goqKb9iSSp9mPybtksXa
M8Xpzbx/nj/fDo4I1WTTms3qh/PH++HRGfl3/wA5C6/5flXSPNyS6jp8Z9P6y3+9kFNqNyp6oH+V
8XuembqMxIWDYeg0+u2Fnij3vo/QfMWieYNNj1LR7yO9spOksZ6GlSrqaMrCu6sAck7SExIWEwxZ
NE4q0TirWKtYq0TirROKr4P7+P8A11/XirxL/nLc0/wp/wBvD/sWxVkf/ONf/KH23yuf+T+KvY8V
dirsVdiqH1L/AI511/xhk/4icVfP/wDziMa/4r/7d/8A2M4q+gm+0fniq0nFWsVaxVrFWicVaxVr
FWicVSbzhoa695W1bRiAWvrWWGMt0EjIfTb/AGL0OLDJHiiQ+Yf+cf8AWn0/zXJYSEotxQFOhqf3
ZBB/ymQ/Rmk7Tjwzx5PPhPx5fa8brfRmx5PMxPx5fa9k8y/mZb+XPMMdjqkYjsJwPRuOhLcQTVie
HcgA06dcwfHyccgI8UYgcufv82rJrssc0oiHFCIHL6t+vn3Mo03XtM1OIS2VwkwIqVBowHiVO+W4
9RGfIuZh1kMo9Jv7/kjGkVlKsAVIoQdwQcsMm4yt5x5+/J7Q/MMT3Fmgtr4AleNAPGint/qnb/Vy
iHHhPFiO3WJ5H3dzrTp5YjxYDXfA/Sfd3H7HiNvP59/K/XzcWcrwfEFlUgm3nUbhJoz7Hbv3U983
Ok10M2w2mOcTzdhou0RI0PTMc4n8bjzfR/5Z/m/oHne2EApY65GtbjTnavIDq8Lbc1/Ed/E5oL0W
DUDJ72eE4XIaxVrFWicVaJxVrFV9v/vRF/rr+vFXiP8Azlyaf4U/7eH/AGLYqyT/AJxq/wCUOtvl
c/8AURir2TFXYq7FXYqh9S/4511/xhk/4icVfPv/ADiGf+Us/wC3f/2M4q+g3PxH54qtxVrFWsVa
JxVrFWsVaJxVonFWsVfIHm2yfyn+dl8kdYoZLz1oSNgI7wCRaeyNJT6M13aWLjwyA5jcfDd5XtnA
TCYHMeofDdnX57aeuqeVbTWIkNUVJPkPtAf8DI5+jNRpctZ4S6SFfpDq4ZR42PIOUxw/P1ReK6Dr
vmjTVa40qWb0LUhpAoLxx8q0J/krTqKZuc+ixZd5D1d42Pzdlm0GPL6jHcdRsfmHpfln/nITUIOE
Osw+qgoDKKtsPf7Y+nlmuydn5YfRLjHcefz/AFuGdNqMf0S8SPdLY/P9b1by9+ZHljW4g1vdoj7c
kdhQE/5Xb/ZUPtmGcpiamDE+f6+TWNaAamDCXn+g8kf5h8v6Vr9i9rfRK/JaJIQCRXfv1Ht/HfHJ
Hi35SHI9QnPijk35SHIjmHzl528g635K1VNR02SRIInEtvcxMQ8RB2ZWG9B947+J2mi7QMjwZNp9
D0l+3yb9JrpCQhk2ydD0l+3ye5/k5+cUHm61Gl6sUh8w26jlSircqNvUQdm/mX7s24NvVabUcYo/
U9QwuU0TirROKtYq1iq+3P8ApEX+uv68VeIf85eH/lE/+3h/2LYqyX/nGj/lDbX5XP8A1EYq9lxV
2KuxV2KofUv+Oddf8YZP+InFXz5/ziCf+Us/7d//AGM4q+g3+0fmcVW4q1irROKtYq1irROKtE4q
1irWKvm//nKfQjDrOi6/EKfWIXtJnG1Hgb1IyfdhK3/A5XMOr7QhuD3p3p8sXmX8ryrDkRES1TWl
Ryf/AIFJGXOOkDjsdYS+439zwxBhjMf4sUtv8039zyb8qL79G+dVs7kDhcB7eRG3HNDXv/qkZ1+K
YkARyL2fZ+UGQI5SD3rzF+RPkfzHbC7tYTpt3Mob1INl5Eb1X5+NctMXZZNNCXR475p/Ivz15Yka
+0stf20VSJrUkSqPdRv/AJ9MqyYRIURYddqOzrFVxRQ/lP8AOHzBocos9UDSwIeLq60ZTv1TanX9
mnvXNNm7MrfEa/onl8O55/L2dLH/AHRr+ieXw7nsllrflvzpo7Qo6SLKprGaMVNNytetO4+8DNXP
nwyBjIfMeYcKchk9EgYzHzHmP1vA/NWhar5G80x3Ni5h9KT1LSVTUKRvx91IPfqNj3ze9n6w5I1L
648/Pzdr2drJS2l/eQ+3z+L6h/LfzxbebvLlvfKQt0F43MVdw67N+ObUG3rcWQTiCGVk4WxrFWsV
aJxVfb/70Rf66/rxV4h/zl8f+UT/AO3h/wBi2Ksl/wCcZ/8AlDLX5XP/AFEYq9mxV2KuxV2KofUv
+Oddf8YZP+InFXz1/wA4fmv+Lf8At3/9jWKvoR/tt8ziq3FWicVaxVrFWicVaJxVrFWsVaJxV5r/
AM5BaF+lfy1vZUXlNpkkd7H40Q8JP+ScjH6MjMbOLrIXjPk8y/IzVEn0m70uYBlSoKk9UrWn0+of
uzlu0ocOUnpIA/oeG1kOHMe6cQfls8880Qy6B57ebvDOs+3ejUf72Vs2nZmS8Q/o7fJ2PZOYjHHv
ga+X7H1z5M1Bb3QoXVuVBsfEHev31zbvZBPCcVYT56/KTyj5ugdrm3FpqVD6WoW4CyA9uY6OPY4D
G2nLgjMb83zlr/lnzn+WGvI0tWtJGrb3cXL0JwprSv7Eg8Oo+WYGr0kcoqXPoe557tDs4SFS+Eu7
8dzMNa1LTvP3k1plKrqdqOhoCTtToNmDNuOlCSPbnxKWnygy5j7Yl5o5JYMgM/qjz/pRP45JH+Q/
mqbR/Mz6dIxEN38QjP8AvxPtCniy/qzqscnttBl34e99Uo6uiupqrAFT4g5c7Z2KtE4q1iq+2/3o
i/11/Xirw/8A5zANP8Jf9vD/ALFcVZN/zjL/AMoXafK5/wCojFXs+KuxV2KuxVD6l/xzrr/jDJ/x
E4q+eP8AnD01/wAW/wDbu/7GsVfQr/bb5nFVpOKtYq1irROKtE4q1irWKtE4q0TiqE1bToNT0u80
64FYL2CS3lHX4ZUKN+BxKJRsU+RvyyuZ9D87TabdUSRZHt5g2wWSJjG3/AhmzQdq47gJdx+94ftb
FQjL+bKvnsmH526YE1G3v0ApIOLU7VG1fpRj9OY/ZGXeUfj+hx+ysvrlHvAP6C9Z/IPXvrvlm3hd
qvHH6TDvWI8RX5qK50sDYe50s+LGHq2SchrFUs8x+XtJ8xaPcaTqsIms7haMP2lb9l0O/FlO4OAi
2E4CQovkzUtK1P8ALvzrPpN8xe1JB9UCizW7k+nMB4jv7gjNV2hpPFhX8Q5PJ9rdn8cTH+Icvx5p
dPJ+iPPUdzEaRi5jmBHQpLQvT6GIw9n5eLFEnpt8k9k5yccCeY2+Wz698sXn1rR4XJqyjifur/Gm
bV65NScVaxVrFV9t/vTF/rr+vFXh3/OYRp/hL/t4/wDYrirKP+cY/wDlCrT5XP8A1EYq9nxV2Kux
V2KofUv+Oddf8YZP+InFXzv/AM4dH/lLv+3d/wBjWKvoWQ/G3zOKrcVaxVonFWicVaxVrFWicVaJ
xVrFWsVfJ35vad/h384Li6UcLe9eK/Q9KrOOMx+mRZM1+txcUZR7w832tp+ITj/OH4+1kf5kQfpb
ycLoENLGokPEftU5P9xQr9OcxoMvDmHv+95HRZuHNE+f+6/UUB/zjxrv1bUrmxdqDmsyD2YcX+4K
PvzscJ6PoHZ09jF9M5c7JonFWicVeQf85I+Vo9Q8pw69Ev8ApWkSgSsOpt52CEHx4ycSPDfKso2t
wNfjuPF3PnC/u/rSWrE1kihELn/UZuP/AAnHMHFDh4vM3+Pi6HDj4DLuMr+dfpt9d/lrdtPoq8vt
FEc18TWv8M2YesibDL8UtYq1iq+2P+kxf66/rxV4d/zmKf8AlEf+3j/2K4qyj/nGL/lCbT5XX/UR
ir2jFXYq7FXYqh9S/wCOddf8YZP+InFXzr/zhwf+Uv8A+3d/2NYq+hpPtt8ziq3FWicVaJxVrFWs
VaJxVonFWsVaxVonFXg3/OUmhcrTRdeRd4nksp28Q49WL7uD/flGcdXWdow2Ekr8q3o1fyUIpGLv
6RRlArUr8QH+ykVs4nVx8PP+PeHznVx8PMY+f7Q898iXbaJ57gjY0QyvbOfEE/D97KudfpsnFR73
uOzc9mMv5w+99habcfWLCCWteSCp9xsfxGZz0KIJxVrFULqenWWp6fcaffRCezuo2iniatGRhQjb
cfMYCLRKIIovEL3/AJxytLPVBPZzS31gG5JBIUBG+yyEAch8srGEOFHs+AN29Y8p6HNpdqRNs7AA
L+J6Za5ye4q1irROKqlt/vTF/rr+vFXhn/OY5/5RD/t4/wDYrirKf+cYP+UHs/ldf9ROKvacVdir
sVdiqH1L/jnXX/GGT/iJxV85/wDOGxr/AIv/AO3d/wBjWKvoiT+8b5nFVhOKtE4q1irWKtE4q0Ti
rWKtYq0TirROKsK/OPQv0z+XOs26rynt4vrkPchrYiRqe5RWX6cryi4lx9XDixl4J+U2pssdzZcj
VD6kajx6j7qNnIduY9hMfinzrt3GQRMfiv2Fjvni1fS/NRuIAVqyTQk+KH4fwUHNn2bm4sQP473a
dkZrxCv4T+0Pqb8u9Wj1Hy7BKhqpVJE/1XWo/Vm/Bt7eMrAPeyfCyaxVonFWsVaxVrFWicVaxVUt
f96Yv9df14q8L/5zJNP8If8Abx/7FcVZV/zi/wD8oNZ/K6/6icVe1Yq7FXYq7FUPqX/HOuv+MMn/
ABE4q+cv+cNDX/GH/bu/7GsVfREn943zP68VWE4q1irWKtE4q0TirWKtYq0TirROKtYqpyxRzRPF
KoaORSrqehUihGKkPj/RoH8s/mBd6VMWC21xNase7LG5of8AZIu3zzQdo4eLGQ8P2xp7xkH+E/Zy
TT81dOJitr0KeSMY5GJrv0P3UQZquw8h4TE9HUdg5SCYn8EfsL0b/nHvXPX0ZLR2q0JeEj5fEv8A
wtBnXYJXF9E0M+LGPJ7LlzltE4q1irWKtYq0TirWKtYqqWv+9UP+uv68VeF/85lmn+D/APt4/wDY
rirKv+cXf+UFs/ldf9ROKva8VdirsVdiqH1L/jnXX/GGT/iJxV84f84Ymv8AjD/t2/8AY1ir6JlP
7xvmf14qsxVrFWicVaJxVrFWsVed+efzw8oeV3ks4nOq6rHs1pbMOCMO0s26r7gciPDKZ54xcTNr
YQ25l41rH56fmbrszppjjTrcmgisogzAduUsgdq+445iZNWRzNOpz9pyHMiISFj+Z+qMWm1DULgk
1PO6lencbB2pmJLWx7y62XasT/FI/Nr9C/mRCRItxeqwPwsJ5VNfY1GAa6HexHakO+X2q9p5z/Nv
SCGh1a/YJSiySfW1AH+TJ6q0+jLoawdJOTi7WHSfz/ax/WPMmp6r5jbXNR4/pB3jecxoIwzRqqV4
jYEhd8ch4wb6p1B8YG/4g9H8xW66p5SLIOR9IOrE1J4/DX/ZOFOczpT4WpI79/1/peP0kvC1H2/o
KWfkXrRsvME1qTtKFlQe6GhH01GdjppbkPonZs9zF9RhgwBU1B3BzMdu7FWsVaxVonFWsVaxVrFV
S1P+lQ/66/rGKvCv+czjT/B//by/7FcVZX/zi5/ygll8rr/qJxV7ZirsVdirsVQ+pf8AHOuv+MMn
/ETir5v/AOcLzX/GP/bt/wCxrFX0TL/eP8z+vFVmKtE4q0TirWKrWYAFmNFG5J6AYq+c/wA2Pzuv
tWuZfL3lKZo9Pr6VxqEVRJcHoUiI3WP3G7f6vXAz6noOTpdZr+Yiaj3sf8j/AJRXurss15RYtiwb
ZBUV3p1/z6jNTLUSmeGH4/Hzec/MZM0uHFsO/wDH9r23Q/y58paVEgeL6w6UpX4FBHcBaEfQae2S
jpIc5kyPyH6/tcvF2VhG+Qmcvl+37fgnUlp5fRSBp9sfdokY/ewJyUsOAfwR+QciWm0w/wAnD/Sg
/ek2p2GgzKR9UijPZolEZH/A0zBz6fBIfSB7tvudbqtHppj6Ij3bfcwnVLZbeb0OXrQfaQOAw+kH
bNDljLFKok08pqsUsM+GJPD0SDU/LmjaihWeAK+9JEG4qfD+CkZkYO0skDvu2aftDJjP4+7kiNO0
0WuljTi6zbMkbGtACoVKkgfZIrhy6mM80ZD4/FGXOJ5RIfi3m+g3J0bztbuDxRbjh7cJdhX5cgc6
3S5NwXu+zc+8Jd/9j670O6FzpVvIDX4Qv3dPwzbvUo7FWsVaJxVrFWsVaxVonFVS1/3qh/11/WMV
eFf85oGn+Dv+3l/2K4qyz/nFr/lA7L5XX/UScVe2Yq7FXYq7FUPqX/HOuv8AjDJ/xE4q+bf+cLTX
/GP/AG7f+xrFX0VL/ev/AKx/XiqwnFWicVaxVrFXiv8AzkP+YU2n2aeU9Nk43N/H6mpSKd1tyaLE
Kd5KfF/k/wCtmJqstekOs7Q1HCOAdebzryP5WigWK7u1BuJyBGrCoUE038aeHc+w35nXavfhi8J2
hreOQhHlf4P6ns1pqMNtAkMXwonTx9yfc4MeYRFBz8WeMIiI5Kja1/lZM6lmdWhZtZ2+1lMtS0T1
aV3WsdfizFyahw8mrSK8vTPLWuw2GYWQmRdNqMnHJD+plfA0cLvUx4F4Xm/n20MGt/WEoBMOQK7A
N9rb5BgM6vRZOKAL2HZeXix/jr+19H/lTra6p5bhk5AsyK5A7NSjj6DQZ0cJcQBe7xT44iXezXJN
jROKtYq1irWKtE4q1iqpa/71Q/66/rGKvCf+c0jT/B3/AG8v+xXFWW/84sf8oFY/K6/6iTir23FX
Yq7FXYqh9S/4511/xhk/4icVfNf/ADhWf+Uy/wC3b/2N4q+i5T+9f/WP68VWE4q1irWKrWYKCSaK
NyT0pir46ub+Tzb5/vdVnYmO5uGmUsCeMQbjEtPBE4/dmh1OXmXjO09RtKX877v7GbLNxKlPhCU4
DwC9PuzmZ3I2Xi5EmVo9NZenxbHIHiDd48lx1diOuQ459ynUSUJNTkbocHDMsDlkUO9y79Tkhiaz
ZWerkuBHC71ceBeF3q48C8LG/PsKSaVBOTV0cqPYCn/VQ5t+zjQp3fZEiJV7/wBbNv8AnH3UpFtD
bk/AszxgexCt/wASkzptIbh8Xv8As6V4/cXuZOZTntYq1irWKtE4q1irWKqlp/vXD/xkX9YxV4R/
zmof+UN/7eX/AGKYqy7/AJxX/wCUBsfldf8AUUcVe3Yq7FXYq7FUPqX/ABzrr/jDJ/xE4q+af+cK
DX/GX/bt/wCxvFX0ZMf3r/6x/XiqzFWsVaJxVB6wsr6TepDX1mt5RHTryKGn44JcmM+RfH/kR0TU
ZqkA+k1K/wCow/jnN5xcS8F2kPSPj9zL/WzU+G87wu9bHw14Xetj4a8LvWx8NeF3rY+GvC71sfDX
hd62Phrwu9bHw14WO+d74CzgswQWZjIw7itP6Kc2Olx8Idz2Zio3+N2ffkdp8sNrbyEU9eX1iPYu
oH/CxVzodJGoe97rs+FYve90zJc5rFWsVaJxVrFWsVaxVUtD/pcP/GRf1jFXg/8Azmuaf4N/7eX/
AGKYqy//AJxV/wDJf2Pyu/8AqKOKvb8VdirsVdiqH1L/AI511/xhk/4icVfNH/OExr/jP/t2/wDY
3ir6Nm/vX/1j+vFVPFWicVaJxVrFXyL520G58k+fbq34FbNpDPZNTZraRuS0r14EcT7jNHqMfDIh
5PtHS0TH4hMfrEbok0RrFIKqf1j6MwJYqeVniotevkfDYcDvXx8NeB3r4+GvA718fDXgd6+PhrwO
9fHw14Ft1fwWMBnuDTascfdiem3h+v8AHJxw97fh05kWMafY33mbW6GojJ5TydQkdfHxP68zsGIz
NB6bQ6OyIj4l9K+QNCWzt1l4cEjULGvhtQD/AGK/rzdgUKeriABQZlhS1irROKtYq1irWKtE4qq2
n+9cH/GRf+JDFXg3/ObJp/gz/t5f9imKsv8A+cVP/JfWHyu/+oo4q9wxV2KuxV2KofUv+Oddf8YZ
P+InFXzN/wA4SH/lM/8At2f9jeKvo6b++f8A1j+vFVMnFWicVaxVrFWGfmf+Xlp5z0P0AVh1W05S
adcnoGI3jf8AyHoK+Gx9jRqMIyDzcXVaYZY+Y5Pmb1NY8tahPpGrW7xPC3Ga3fqpHRloaEHqCD8s
00gYmi8lqtGbN7STaOeC4T1LWUOvUoSAw/VX9ftiIguqlho7tO0kbFXUow6qwofxw8AYmFLfWOPC
EcLvWOPCF4VbhMK+p+6AoSZPhoD3p9oj5DHgDLw0vu/MFnbDjb/v5qfaNOI+XUfr+jImg5OLSE89
kHpuja35ku/U3EXL95cPXgteoX+Zvb78tw4ZZDtyd1o9CZbRG3UvbvIP5ew2kSLHHwjUhpZHHxM3
i3v4L2zcYsQgKD0mDBHHGg9SghigiWKMcUQUAyxuX4q0TirWKtYq1irROKtYqq2f+9cH/GRf+JDF
Xgv/ADm2f+UM/wC3n/2KYqzD/nFL/wAl7YfK7/6ijir3HFXYq7FXYqh9S/4511/xhk/4icVfMv8A
zhEf+U0/7dn/AGN4q+jpz++f/WP68VUycVaxVrFWicVaJxVjPnX8v/Lvm6z9LU4eN1GKW99HQTR9
6A91/wAk7ZVlwxmN2jPp4ZBUg8B80fkr5x8vyvNZD6/ZrutxB8Lgf5Sk7ffmtyaKcfp3dNn7LmOX
qDFHvvMmnq0dwksaftLIjKD93GuYx448w6vJouHmDFYvmS7VQvowmncoCfvNTkfELT+VHf8Ac6PW
9alUw2wajbFIlY1r7VOESkeTOGjHIWUTb+WPNWpMOcLxof2pz6aj/Yn4vuXLY6bJLp83Pw9mz6Rr
3/i2a+WvygaWRGu1a6k6+mAVjH0fab8Bmbi0MRvLd2uHsyMd5b/c9e0DyHaWKIZ1UcAOESAAAeG2
y/R9+ZwFcnZAACgyuOOONAkahUXYKNhhS3irROKtYq1irWKtE4q1irWKqtn/AL2Qf8ZF/wCJDFXg
v/Obp/5Qv/t5/wDYpirMf+cUP/JeWHyu/wDqKOKvccVdirsVdiqH1L/jnXX/ABhk/wCInFXzH/zg
+a/40/7dn/Y3ir6PnP76T/WP68VU8VaxVonFWicVaxVrFWjiqWXvl3RLwlp7SMuerqODfetMVSiX
8uvLTsWETKT13B/WMHCEcIXR+QNBSm0hA6Dl/ZhSj7byzolsQY7YEj9o9fwpiqZRxxRLxjQIv8qg
AfhireKtYq0TirWKtYq1irROKtYq1irWKqtmf9Mg/wCMif8AEhirwT/nOA0/wX/28/8AsUxVmX/O
J/8A5LvT/ld/9RRxV7lirsVdirsVQ+pf8c66/wCMMn/ETir5g/5wgkVJ/Olu54zkacwjOzUQ3Qbb
2LCuKvpG4qJpK/zH9eKqeKtE4q0TirWKtYq0TirWKtYq1irROKtYq1irWKtE4q1irWKtYq0TirWK
tYq1irROKq1iCbyAAVPNT9xrirwD/nOGaMy+TIgwMiLqTsncKxtQp+nicVZt/wA4nhh+XWn1BB43
Z38DdEjFXuWKuxV2KuxVbJGskbRt9lwVb5EUxV8Y6ze63+RH543GtRWzT+XtWaQywLRVltpnDyxp
XYPDJRk9qdicVfVPlPzx5J876fHf+X9UhvA61eFHC3EZ7rLCfjQj3Hy2xVPP0dF/M34Yq79GxfzN
+GKtfoyL+dvwxV36Mi/nb8MVd+i4f52/DFWv0VD/ADt+GKu/RUP87fh/TFWv0TD/ADt+GKu/RMP8
7fhirv0RB/O34f0xVr9Dwfzt+H9MVd+h4P52/D+mKu/Q0H87fh/TFWv0LB/O34f0xV36Fg/34/4f
0xVr9CW/+/H/AA/pirv0Hb/78f8AD+mKtfoO3/34/wCH9MVd+grf/fj/AIf0xV36Ct/9+P8Ah/TF
Wv0Db/78f8P6Yq79AW3+/H/D+mKpN5n84eRPIlhLqGvanDacVJSKRw1xJ4LFCvxuT7D57Yq+IvzF
87a9+cH5kLcWtu0ccvG00myJr6NshLcpCNqmrO5+joBir7H/ACe8uR6FoVtYwD9zaW6RBiKFiafE
fduFT88VehYq7FXYq7FXYqxP8xvy38v+etDk0zVYlL0rBPSrI46Ed/uxV8j+b/8AnFvzbpN66WEy
ywEn0zMGK8faSMNX6UGKsd/6F88/eNr/AMFP/wBUsVd/0L55+8bX/gp/+qWKu/6F88/eNr/wU/8A
1SxV3/Qvnn7xtf8Agp/+qWKu/wChfPP3ja/8FP8A9UsVd/0L55+8bX/gp/8Aqlirv+hfPP3ja/8A
BT/9UsVd/wBC+efvG1/4Kf8A6pYq7/oXzz942v8AwU//AFSxV3/Qvnn7xtf+Cn/6pYq7/oXzz942
v/BT/wDVLFXf9C+efvG1/wCCn/6pYq7/AKF88/eNr/wU/wD1SxV3/Qvnn7xtf+Cn/wCqWKu/6F88
/eNr/wAFP/1SxV3/AEL55+8bX/gp/wDqlirv+hfPP3ja/wDBT/8AVLFXf9C+efvG1/4Kf/qlirv+
hfPP3ja/8FP/ANUsVd/0L55+8bX/AIKf/qlirv8AoXzz942v/BT/APVLFXf9C+efvG1/4Kf/AKpY
qi9M/wCcc/OVxcBLueCCLu8Ylkb/AIFlj/Xir3r8rPyT0zy4P9FhM97IB691LQuR1oxAoif5I698
Ve76bYR2NqsKbnq7eLHviqKxV2KuxV2KuxV2KrZIo5VKSIHQ9VYAj8cVQp0bSyf95k+7FXfobS/+
WZPxxV36G0v/AJZk/HFXfobS/wDlmT8cVd+htL/5Zk/HFXfobS/+WZPxxV36G0v/AJZk/HFXfobS
/wDlmT8cVd+htL/5Zk/HFXfobS/+WZPxxV36G0v/AJZk/HFXfobS/wDlmT8cVd+htL/5Zk/HFXfo
bS/+WZPxxV36G0v/AJZk/HFXfobS/wDlmT8cVd+htL/5Zk/HFXfobS/+WZPxxV36G0v/AJZk/HFX
fobS/wDlmT8cVd+htL/5Zk/HFXfobS/+WZPxxVw0bSwf95k+7FUVHFHEoSNAiDoqgAfhiq7FXYq7
FX//2Q==</xapGImg:image>


              </rdf:li>


            </rdf:Alt>


          </xap:Thumbnails>


        </rdf:Description>


        <rdf:Description
   rdf:about="uuid:6fb7133e-0d42-4d20-8954-32780fe62e43">
          <xapMM:DocumentID>
uuid:ed137d39-db88-465a-86b4-e2eb2fd20abb</xapMM:DocumentID>


        </rdf:Description>


        <rdf:Description
   rdf:about="uuid:6fb7133e-0d42-4d20-8954-32780fe62e43">
          <dc:format>
image/svg+xml</dc:format>


          <dc:title>
            <rdf:Alt>
              <rdf:li
   xml:lang="x-default">
mime.ai</rdf:li>


            </rdf:Alt>


          </dc:title>


        </rdf:Description>


      <cc:Work
   rdf:about="">
  <dc:format>image/svg+xml</dc:format>

  <dc:type
   rdf:resource="http://purl.org/dc/dcmitype/StillImage" />

</cc:Work>

</rdf:RDF>

</metadata>

</x:xmpmeta>


    <xpacket
   id="xpacket72">end='w'    </xpacket>


  </metadata>


  








<g
   id="g3912"
   transform="matrix(1.3840471,0,0,1.3385719,-12.337796,-45.358999)">
  <path
   d="M 108.139,43.324 C 106.35,44.143 105.195,45.942 105.195,47.908 L 105.367,49.211 C 105.367,49.211 133.625,154.674 134.51,157.975 C 130.497,156.779 126.229,156 121.761,155.709 C 113.228,155.155 105.188,156.411 99.704,159.154 C 99.748,159.133 99.806,159.102 99.851,159.083 C 88.971,163.549 79.929,172.953 76.815,183.043 C 76.043,185.545 75.651,188.054 75.651,190.498 C 75.651,194.696 76.831,198.688 79.064,202.044 C 83.792,209.832 91.859,215.46 101.76,217.857 C 111.299,220.167 122.167,219.383 132.362,215.651 C 132.429,215.625 132.508,215.595 132.508,215.595 C 145.307,210.264 153.849,202.961 157.274,194.453 C 158.373,191.72 158.93,188.899 158.93,186.071 C 158.93,183.011 158.267,179.879 156.968,176.759 C 156.948,176.686 136.633,100.872 135.662,97.248 C 137.902,98.144 141.383,99.535 141.383,99.535 C 148.668,102.341 156.925,105.522 163.848,110.416 C 171.448,115.789 176.221,122.429 178.441,130.716 C 179.113,133.222 181.55,134.801 184.112,134.39 C 186.674,133.979 188.495,131.715 188.347,129.124 C 186.732,100.862 169.542,89.691 151.344,77.864 C 138.441,69.475 125.106,60.807 114.41,45.073 C 113.021,43.032 110.384,42.296 108.139,43.324 z "
   id="path3253"
   style="opacity:0.2" />

  <path
   d="M 106.139,42.324 C 104.35,43.143 103.195,44.942 103.195,46.908 L 103.367,48.211 C 103.367,48.211 131.625,153.674 132.51,156.975 C 128.497,155.779 124.229,155 119.761,154.709 C 111.228,154.155 103.188,155.411 97.704,158.154 C 97.748,158.133 97.806,158.102 97.851,158.083 C 86.971,162.549 77.929,171.953 74.815,182.043 C 74.043,184.545 73.651,187.054 73.651,189.498 C 73.651,193.696 74.831,197.688 77.064,201.044 C 81.792,208.832 89.859,214.46 99.76,216.857 C 109.299,219.167 120.167,218.383 130.362,214.651 C 130.429,214.625 130.508,214.595 130.508,214.595 C 143.307,209.264 151.849,201.961 155.274,193.453 C 156.373,190.72 156.93,187.899 156.93,185.071 C 156.93,182.011 156.267,178.879 154.968,175.759 C 154.948,175.686 134.633,99.872 133.662,96.248 C 135.902,97.144 139.383,98.535 139.383,98.535 C 146.668,101.341 154.925,104.522 161.848,109.416 C 169.448,114.789 174.221,121.429 176.441,129.716 C 177.113,132.222 179.55,133.801 182.112,133.39 C 184.674,132.979 186.495,130.715 186.347,128.124 C 184.732,99.862 167.542,88.691 149.344,76.865 C 136.441,68.476 123.106,59.808 112.41,44.074 C 111.021,42.032 108.384,41.296 106.139,42.324 z "
   id="path3254"
   style="opacity:0.2" />

  <path
   d="M 104.139,40.324 C 102.35,41.143 101.195,42.942 101.195,44.908 L 101.367,46.211 C 101.367,46.211 129.625,151.674 130.51,154.975 C 126.497,153.779 122.229,153 117.761,152.709 C 109.228,152.155 101.188,153.411 95.704,156.154 C 95.748,156.133 95.806,156.102 95.851,156.083 C 84.971,160.549 75.929,169.953 72.815,180.043 C 72.043,182.545 71.651,185.054 71.651,187.498 C 71.651,191.696 72.831,195.688 75.064,199.044 C 79.792,206.832 87.859,212.46 97.76,214.857 C 107.299,217.167 118.167,216.383 128.363,212.651 C 128.43,212.625 128.508,212.595 128.508,212.595 C 141.307,207.264 149.849,199.961 153.274,191.453 C 154.373,188.72 154.93,185.899 154.93,183.071 C 154.93,180.011 154.267,176.879 152.968,173.759 C 152.948,173.686 132.633,97.872 131.662,94.248 C 133.902,95.144 137.383,96.535 137.383,96.535 C 144.668,99.341 152.925,102.522 159.848,107.416 C 167.448,112.789 172.221,119.429 174.441,127.716 C 175.113,130.221 177.55,131.8 180.112,131.389 C 182.674,130.978 184.495,128.714 184.347,126.123 C 182.732,97.861 165.542,86.69 147.344,74.864 C 134.441,66.475 121.106,57.807 110.41,42.073 C 109.021,40.032 106.384,39.296 104.139,40.324 z "
   id="path3261"
   style="fill:url(#linearGradient2351)" />

  <path
   d="M 123.575,84.502 C 135.397,93.825 170.947,96.145 179.056,126.413 C 176.531,82.181 132.898,84.502 105.984,44.909 L 137.809,163.686 C 126.631,156.682 107.341,155.848 97.704,160.666 C 81.982,167.004 71.244,184.631 79.022,196.273 C 87.411,210.257 107.301,214.894 126.374,207.916 C 143.127,200.936 153.995,189.291 147.912,175.33 L 123.575,84.502 z "
   id="path3268"
   style="fill:url(#linearGradient2353)" />

  <path
   d="M 139.771,163.16 C 139.817,163.334 139.838,163.51 139.838,163.685 C 139.838,164.318 139.541,164.927 139.016,165.316 C 138.345,165.812 137.44,165.845 136.734,165.404 C 125.743,158.517 107.216,158.177 98.612,162.48 C 98.564,162.503 98.514,162.527 98.464,162.546 C 89.373,166.212 81.859,173.898 79.319,182.128 C 78.266,185.54 77.652,190.569 80.71,195.146 C 80.729,195.173 80.746,195.203 80.763,195.23 C 84.518,201.49 91.055,206.019 99.171,207.984 C 107.353,209.964 116.752,209.267 125.639,206.023 C 136.408,201.529 143.802,195.418 146.459,188.812 C 147.212,186.943 147.588,185.027 147.588,183.078 C 147.588,180.805 147.076,178.486 146.053,176.14 C 146.014,176.048 145.981,175.952 145.954,175.855 L 121.616,85.027 C 121.57,84.852 121.547,84.676 121.547,84.502 C 121.547,83.831 121.88,83.189 122.46,82.808 C 123.19,82.327 124.146,82.368 124.832,82.909 C 128.083,85.473 133.455,87.542 139.672,89.937 C 147.343,92.893 156.038,96.243 163.677,101.643 C 167.81,104.565 171.234,107.822 173.994,111.449 C 172.228,106.819 169.697,102.659 166.33,98.806 C 160.258,91.856 151.99,86.483 143.237,80.794 C 132.623,73.896 120.845,66.225 110.587,54.247 C 115.031,70.833 139.771,163.16 139.771,163.16 z "
   id="path3269"
   style="fill:#ffffff" />

  <path
   d="M 139.771,163.16 C 139.817,163.334 139.838,163.51 139.838,163.685 C 139.838,164.318 139.541,164.927 139.016,165.316 C 138.345,165.812 137.44,165.845 136.734,165.404 C 125.743,158.517 107.216,158.177 98.612,162.48 C 98.564,162.503 98.514,162.527 98.464,162.546 C 89.373,166.212 81.859,173.898 79.319,182.128 C 78.266,185.54 77.652,190.569 80.71,195.146 C 80.729,195.173 80.746,195.203 80.763,195.23 C 84.518,201.49 91.055,206.019 99.171,207.984 C 107.353,209.964 116.752,209.267 125.639,206.023 C 136.408,201.529 143.802,195.418 146.459,188.812 C 147.212,186.943 147.588,185.027 147.588,183.078 C 147.588,180.805 147.076,178.486 146.053,176.14 C 146.014,176.048 145.981,175.952 145.954,175.855 L 121.616,85.027 C 121.57,84.852 121.547,84.676 121.547,84.502 C 121.547,83.831 121.88,83.189 122.46,82.808 C 123.19,82.327 124.146,82.368 124.832,82.909 C 128.083,85.473 133.455,87.542 139.672,89.937 C 147.343,92.893 156.038,96.243 163.677,101.643 C 167.81,104.565 171.234,107.822 173.994,111.449 C 172.228,106.819 169.697,102.659 166.33,98.806 C 160.258,91.856 151.99,86.483 143.237,80.794 C 132.623,73.896 120.845,66.225 110.587,54.247 C 115.031,70.833 139.771,163.16 139.771,163.16 z "
   id="path3286"
   style="fill:url(#linearGradient2355)" />

  <path
   d="M 87.186,176.529 C 88.585,181.882 97.814,184.103 107.797,181.492 C 117.78,178.882 124.738,172.426 123.338,167.072 C 121.938,161.719 112.709,159.498 102.727,162.108 C 92.743,164.72 85.785,171.176 87.186,176.529 z "
   id="path3293"
   style="fill:url(#radialGradient2357)" />

</g><g
   id="g4286"
   transform="translate(72.363014,106.43478)"><rect
     ry="5"
     rx="5"
     y="41.355534"
     x="-67.232582"
     height="39.115273"
     width="139.11528"
     id="rect4279"
     style="opacity:0.2;fill:#808080;fill-opacity:1;fill-rule:nonzero;stroke:#2f2f2f;stroke-width:4;stroke-linecap:round;stroke-linejoin:miter;stroke-miterlimit:4;stroke-dasharray:none;stroke-dashoffset:7.3869732;stroke-opacity:1" /><rect
     style="opacity:0.2;fill:#808080;fill-opacity:1;fill-rule:nonzero;stroke:#2f2f2f;stroke-width:4;stroke-linecap:round;stroke-linejoin:miter;stroke-miterlimit:4;stroke-dasharray:none;stroke-dashoffset:7.3869732;stroke-opacity:1"
     id="rect4277"
     width="139.11528"
     height="39.115273"
     x="-68.623886"
     y="39.268574"
     rx="5"
     ry="5" /><rect
     ry="5"
     rx="5"
     y="37.181622"
     x="-70.363014"
     height="39.115273"
     width="139.11528"
     id="rect2321"
     style="opacity:1;fill:#371fe1;fill-opacity:1;fill-rule:nonzero;stroke:#170856;stroke-width:4;stroke-linecap:round;stroke-linejoin:miter;stroke-miterlimit:4;stroke-dasharray:none;stroke-dashoffset:7.3869732;stroke-opacity:1" /><path
     style="fill:url(#linearGradient4292)"
     d="M -3.2490006,57.557186 C 0.80319057,61.626464 -16.363184,63.311916 -11.785487,66.090044 C -11.780542,64.423315 9.7903299,65.16851 9.7903299,65.16851 C 9.7903299,65.16851 61.084493,65.188218 62.137516,65.185665 C 62.141523,64.179867 62.214294,46.125483 62.217845,45.127734 C 61.16313,45.129438 9.8702371,45.110154 9.8702371,45.110154 C -3.1342646,45.24338 -3.2638966,45.233445 -10.195026,45.099737 C -10.195026,45.099737 -11.278556,45.101431 -13.09218,45.097329 C -10.405656,49.467726 -7.1213951,53.668464 -3.2490006,57.557186 z "
     id="path578"
     sodipodi:nodetypes="ccccccccc" /></g></svg>