/* XPM */
static char * 3sat_xpm[] = {
"80 80 15 1",
" 	c None",
".	c #000000",
"+	c #000003",
"@	c #020202",
"#	c #007BC4",
"$	c #017FC5",
"%	c #0B84C7",
"&	c #1589C9",
"*	c #2792CD",
"=	c #379AD1",
"-	c #49A3D5",
";	c #51A7D7",
">	c #58ABD9",
",	c #62AFDB",
"'	c #6DB6DE",
"                                                                                ",
"                                                                                ",
"                                                                                ",
"                                                                                ",
"                                                                                ",
"                                                                                ",
"                                                                                ",
"                                                                                ",
"                                                                                ",
"                                                                                ",
"                                                                                ",
"                                                                                ",
"                                                                                ",
"                                                                                ",
"                                                                                ",
"                                                                                ",
"                                                                                ",
"                                                                                ",
"                                                                                ",
"                                                                                ",
"                                                                                ",
"                                                                                ",
"                                                                                ",
"                                                                                ",
"                                                                                ",
"                                                                                ",
"                                                                                ",
"                                                                                ",
"                                                                                ",
"                  ...                                                           ",
"              ..........                                                        ",
"             ............                                                       ",
"             .............                                                      ",
"             ..............                                           .         ",
"             ...    .......                                          ...        ",
"                     .......                                         ...        ",
"                      ......                                        ....        ",
"                      ......                                       ....         ",
"                      ......                                      ......        ",
"                     .......     ........        .........       .........@@    ",
"  ,,>=              .......     ...........     ............    ............+   ",
"  ==&#           .........     ............    .............    ............+   ",
"  &%$$           ........      .....   ....    ..... ........   ..........@@    ",
"  $#$$           ........     .....      .     ..      ......     ......        ",
"                 .........    .....            .       ......     .....         ",
"                  .........   .......                  ......     ......        ",
"                     .......   ........              ........     ......        ",
"  ;>>                 ......   ..........          ..........     ......        ",
"  >,;*                .......   ..........       ............     ......        ",
"  --=%                .......    ..........     .....  ......     ......        ",
"  &%$$                .......      ........   ......   ......     ......        ",
"  $$$$                ......          ......  .....    ......     ......        ",
"             .       .......          ......  .....    ......     ......        ",
"            +...   .........   ..     ...... ......    .......    .......  ..   ",
"            ...............    ..... ......   ...... ..........   ...........   ",
"            ...............    ............   .................    ..........   ",
"  ,',=       @...........      ...........    .................    ..........   ",
"  ,,-*        ..........        .........      ......   ......      ........    ",
"  &&$#                                                                 .        ",
"  $$$$                                                                          ",
"                                                                                ",
"                                                                                ",
"                                                                                ",
"                                                                                ",
"  >,,-                                                                          ",
"  >>=%                                                                          ",
"  **&#                                                                          ",
"  $##$                                                                          ",
"  $$$$                                                                          ",
"                                                                                ",
"                                                                                ",
"                                                                                ",
"                                                                                ",
"                                                                                ",
"                                                                                ",
"                                                                                ",
"                                                                                ",
"                                                                                ",
"                                                                                ",
"                                                                                "};
