/* XPM */
static char * AB Moteurs_xpm[] = {
"80 80 12 1",
" 	c None",
".	c #F30524",
"+	c #525755",
"@	c #E22F44",
"#	c #7B706F",
"$	c #D45964",
"%	c #938E8B",
"&	c #D17D83",
"*	c #A6A1A1",
"=	c #E5A1A5",
"-	c #BDB5BC",
";	c #D8D0D2",
"                                                                                ",
"                                                                                ",
"                                                                                ",
"                                                                                ",
"                                                                                ",
"                                                                                ",
"                                                                                ",
"                                                                                ",
"                                                                                ",
"                                                                                ",
"                                                                                ",
"                                                                                ",
"                                                                                ",
"                                                                                ",
"                                                                                ",
"                                                                                ",
"                                                                                ",
"                                                                                ",
"                                                                                ",
"                                                                                ",
"                                                                                ",
"                                                                                ",
"                                                                                ",
"                                                                                ",
"                                                                                ",
"                                                                                ",
"                                                                                ",
"                                                                                ",
"                                                                                ",
"                                                                                ",
"           - % *                                                                ",
"         *%*%***                                                                ",
"         %*%%--%                                                                ",
"        %-**#*-*-                                                               ",
"       *--;*%%*-----------****---------------------------------;;--**-*-;;;%    ",
"       ;;;%++++++++++++#++++++#++++++++++++++++++++++++++++++++##+++++++%-;*    ",
"      ;;;-+*****%%**%*%#%**=*%#%*%%%%%%%%%%%%%%%%%%%%%%#%%%%%%#+#%%%&%%++%;-    ",
"      ;-;%#;=$$$&-&$$$&%-&$$$$&*=$$$$$$&=$$$$$-&$$&=$$$-=$$$$$&#*=&$$$$&+#;-%   ",
"      ;;;*-;....$=....&=@.@&...=&$...@$=@..@$$;@..=$..$;...$@..-=..@&..@+%;;%   ",
"      ;-;;;=....$@@..@;$..&=..@#*=..@%%;...&-;=..@;...==..@=@.@;$..@=-*%+*;;*   ",
"      ;;;;;@.@$...$..&;..@;$..&#;$..&+;&..@$$;@..&=..$;@..@@.@*-;&@..@&+#;;;%   ",
"      ;;;;;..&$..&$.@;$..&=..@#%;..@##;...&--=..@;@..==..@;@.@-&$$=&..$+%;;;%   ",
"      ;*-;$..=$.$=..$-$..$$.@&+-&..$+-=...$$-=..@$.@$;$..&=..@;@..$$.@#+-;;;%   ",
"      ;#%;$$&*&$*&$$#+=$$$$$#++;&$$#+-&$$$$$#%&$$$$$+-$$$*&$$##*$$$$$#++-;;-    ",
"      ;%##+++++++++++#+#+++++#%++++++#+++++++++++++++++++++++++++++++++;;;;%    ",
"      *;%************-**%*%*-;******-********-%%%%%-**********-*%%%%%-;;;;;%    ",
"       *------------------------------------------------------------------%     ",
"                                                                                ",
"                                                                                ",
"                                                                                ",
"                                                                                ",
"                                                                                ",
"                                                                                ",
"                                                                                ",
"                                                                                ",
"                                                                                ",
"                                                                                ",
"                                                                                ",
"                                                                                ",
"                                                                                ",
"                                                                                ",
"                                                                                ",
"                                                                                ",
"                                                                                ",
"                                                                                ",
"                                                                                ",
"                                                                                ",
"                                                                                ",
"                                                                                ",
"                                                                                ",
"                                                                                ",
"                                                                                ",
"                                                                                ",
"                                                                                ",
"                                                                                ",
"                                                                                ",
"                                                                                ",
"                                                                                ",
"                                                                                ",
"                                                                                "};
