/* XPM */
static char * Animaux_xpm[] = {
"80 80 11 1",
" 	c None",
".	c #000000",
"+	c #242B1A",
"@	c #8E0F06",
"#	c #72614B",
"$	c #949494",
"%	c #DD938C",
"&	c #ADACAB",
"*	c #BDBDBC",
"=	c #CACACA",
"-	c #DCDADA",
"                                                                                ",
"                                                                                ",
"                                                                                ",
"                                                                                ",
"                                                                                ",
"                                                                                ",
"                                                                                ",
"                                                                                ",
"                                                                                ",
"                                                                                ",
"                                                                                ",
"                                                                                ",
"                                                                                ",
"                                                  #                             ",
"                                                 #@                             ",
"                                               @@@@                             ",
"                                            @@@@@@@                             ",
"                                          @@@@@@@@@                             ",
"                                       @@@@@@@@@@@@                             ",
"                                    #@@@@@@@@@@@@@@                             ",
"                                   +@@@@@@@@@@@@@@@                             ",
"                                #@@@@@@@@@@@@@@@@@@                             ",
"                             #@@@@@@@@@@@@@@@@@@@@@                             ",
"                            @@@@@@@@@@@@@@@@@@@@@@@                             ",
"                           #@@@@@@@@@@@@@@@@@@@@@@@                             ",
"                           #@@@@@@@@@@@@@@@@@@@@@@@                             ",
"                           #@@@@@@@=%#@@@@@@@@@@@@@                             ",
"                            @@@@@ = *%=@@@@@@@@@@@@                             ",
"                              *#&*&*=*=-%@@@@@@@@@@                             ",
"                               -*=*&==**$#@@@@@@@@@                             ",
"                              &*-*$=&=&=*=#@@@@@@@@                             ",
"                              -&$*---*&$=&*&#@@@@@@                             ",
"                            $ -&*= =-*$ =--*%@@@@@@                             ",
"                              =&--=-  *$=-*$*-*@@@@                             ",
"                             =$$ *=&- =**-  = --#@@                             ",
"                             **  $* -*== & &= -= -=                             ",
"                              $$$-*-==    * ==$+.$-                             ",
"                            &-*-==$*   =& &$=#+++$=                             ",
"                            *&**- =$*--&=**& &++#  *&                           ",
"                             &&$==$ $*$&$* ---$++- $                            ",
"                             $-&  $=*-*=-$*$&$&$## *                            ",
"                            =&#=$*=-*&=-$#===&== *&-*                           ",
"                            $+$ - &---&$*++#-$==*&= #                           ",
"                            #+--$--=&&$$#++$$*=* *-                             ",
"                            ++ -&*$-* #*#@@@@#$$-=*                             ",
"                            @+$# &&&- -#@@@@@@@+++=                             ",
"                            @@++-  &  &*$@@@@@@@@++                             ",
"                           #@@+++=&-=$ * * -@@@@@@@+  #                         ",
"                           #@@@+++&-= $=*&&=&%@@@                               ",
"                           #@@@++++-$=&-==-&= %@                                ",
"                           #@@@@@@++# $&&& && $                                 ",
"          .+               #@@@@@@@@@@++++-=-&-                                 ",
"          ..+              .@@@++@@@@@@@@    *--                   .+    ++     ",
"          ...              .@@@@@@@@@@          -=                  .   +..     ",
"          ...              .@@@@@@@@.@          #$                  ..  ...     ",
"          ...        +     .@@@..@ +..     .+     #+.                ....       ",
"         .$...+  +...+.+   .@@@.   ...    ...     .              +    ..        ",
"        +.$.......   ...   .+@..   ...+   ...+    .  .    +      .    .+        ",
"        ........     ...   .  .+   ....   .. .    .   .   .+     .    .         ",
"       +..     .     ...+  .  .    .+ .   .  ..   .  +..  ..     .   ...        ",
"       .       ..    .  . ++  .    .  +.  .  +.  +......   .+    +  ....        ",
"       .        ..   .  +...  .   +.   ...    .  .+    .   ..   +   .+  .       ",
"      .         +.+  +   +..  .   ++     +     + +     +     ...+  .+           ",
"      .                   .   .                +                   .     .      ",
"      .                                                                  .+     ",
"                                                                          +     ",
"                                                                                ",
"                                                                                ",
"                                                                                ",
"                                                                                ",
"                                                                                ",
"                                                                                ",
"                                                                                ",
"                                                                                ",
"                                                                                ",
"                                                                                ",
"                                                                                ",
"                                                                                ",
"                                                                                ",
"                                                                                "};
