/* XPM */
static char * arte_xpm[] = {
"80 80 15 1",
" 	c None",
".	c #FF4700",
"+	c #FF4801",
"@	c #FF4902",
"#	c #FF4C07",
"$	c #FF4F0A",
"%	c #FF5512",
"&	c #FF5918",
"*	c #FF6022",
"=	c #FF6B32",
"-	c #FF7C49",
";	c #FF8B5E",
">	c #FF9B74",
",	c #FFB395",
"'	c #FFCFBC",
"                                                                                ",
"                                                                                ",
"                                                                                ",
"                                                                                ",
"                                                                                ",
"                                                                                ",
"                                                                                ",
"                                                                                ",
"                                                                                ",
"                                                                                ",
"                                                                                ",
"                                                                                ",
"                                                                                ",
"                                                                                ",
"                                                                                ",
"                                                                                ",
"                                                                                ",
"                                                                                ",
"                                                                                ",
"                                                                                ",
"                                                                                ",
"                                                                                ",
"                                                                                ",
"                                                                                ",
"                                                                                ",
"                                                                                ",
"                                                                                ",
"                                                                                ",
"                                                                                ",
"                                                                                ",
"                                                                                ",
"                                                                                ",
"                                            -;;;--                              ",
"                                            ,'',,>=                             ",
"                                            ,''',,=                             ",
"            --====*                 **     =>'',,>=                             ",
"        ->,',,,>>>;;=&     >,,>>-& -;;=  -;>,,,>>>;---=      =;;;;----*&        ",
"       -,''''',,>>>>;-*    ,''',>--;>;=  ->>>>>;;;;;;;=     ;,,,>;;;;;--=%      ",
"      =,'''',>>;;;;;>;-    ,'',,>;;;;-*  -;-;;;;;;;;;-=    -,',,;--------=%     ",
"      ;,,',,>-==-;;;;;;*   ;,,>>;----=&  *==------====*   =;>;;-=*&%%%**==&     ",
"     *;>>>>-    %------%   ->>;;--=&        &*==--&      %=**%$#     @@@@+@@    ",
"      **===     %=----=%   *=====*          ##$$&=%      #$$#@+.     +++.+@@    ",
"             %%&*====*%#   ####%%$          ....@$#     @+....+@     @@@@@@@@   ",
"         $%&&*&&&&%%$+..   ......           @@@@+..     @@@@@@@@@@@@@@@@@@@@@   ",
"      @#$%&&&%$+.....+@@   @@@@@+           @@@@@@@     @@@@@@@@@@@@@@@@@@@@@   ",
"     @@@@@@@@@@@@@@@@@@@   @@@@@@           @@@@@@@     @@@@@@@@@@@@@@@@@@@@@   ",
"    @@@@@+++++  @@@@@@@@   @@@@@@           @@@@@@@     @@@@@@@@                ",
"    @@@@@@@@@    @@@@@@@   @@@@@@           @@@@@@@      @@@@@@                 ",
"    @@@@@@@@     @@@@@@@   @@@@@@           @@@@@@@      @@@@@@                 ",
"    @@@@@@@@     @@@@@@    @@@@@@           @@@@@@        @@@@@                 ",
"                                                                                ",
"                                                                                ",
"                                                                                ",
"                                                                                ",
"                                                                                ",
"                                                                                ",
"                                                                                ",
"                                                                                ",
"                                                                                ",
"                                                                                ",
"                                                                                ",
"                                                                                ",
"                                                                                ",
"                                                                                ",
"                                                                                ",
"                                                                                ",
"                                                                                ",
"                                                                                ",
"                                                                                ",
"                                                                                ",
"                                                                                ",
"                                                                                ",
"                                                                                ",
"                                                                                ",
"                                                                                ",
"                                                                                ",
"                                                                                ",
"                                                                                ",
"                                                                                ",
"                                                                                "};
