/* XPM */
static char * Arte_xpm[] = {
"80 80 12 1",
" 	c None",
".	c #70719A",
"+	c #FC4B03",
"@	c #F45914",
"#	c #EE5A21",
"$	c #93778C",
"%	c #ED6430",
"&	c #8F8597",
"*	c #DC6E44",
"=	c #AA7D7F",
"-	c #CC765D",
";	c #BD7F70",
"                                                                                ",
"                                                                                ",
"                                                                                ",
"                                                                                ",
"                                                                                ",
"                                                                                ",
"                                                                                ",
"                                                                                ",
"                                                                                ",
"                                                                                ",
"                                                                                ",
"                                                                                ",
"                                                                                ",
"                                                                                ",
"                                                                                ",
"                                                                                ",
"                                                                                ",
"                                                                                ",
"                                                                                ",
"                                                                                ",
"                                                                                ",
"                                                                                ",
"                                                                                ",
"                                                                                ",
"                                                                                ",
"                                                                                ",
"                                                                                ",
"                                                                                ",
"                                                                                ",
"                                                                                ",
"                                            --*-***                             ",
"                                           .++++++@&                            ",
"                                           .++++++@&                            ",
"         &=;;-;;&          .       &;=     =+++++++-  &          &=;;=&         ",
"      .-%#@@++++@%*=     $@###@#;&*+@+- .##@++++++++##@*      .-%#@@@@##*$      ",
"     ;@+++++++++++++%&   =@+++++%%++++* .+@+@++++++++++%     -++++++++++++*.    ",
"    ;@+++++++++++++++%   =++++++++++++- .++++++++++++++%   &@+++++++@++++++#&   ",
"   &@+++++++@@++++++++=  =@+++++++++++* .++++++++++++++*   #+++++++@@+++++++#.  ",
"   *++++++%;&&-@++++++;  =++@+++++@*--=  --*++++++@%---=  *+++++++=..$#++++++*  ",
"   %++@@@%     %++++++-  ;+++++@+%&        .@++++++&     .@+++++@&     #+++++@& ",
"              =+++++++;  =+++++++=         .@+@+++@&     $++++++%      =++++@+; ",
"        .=;--*#+++++++;  $+++++++$         .++++++@$     ;++++++@$$.$.$#++++++* ",
"     =*#+++++++@++++++;  =@+@++@+$         .+++++++&     -++@+++++++++++++++++% ",
"   ;#++++@+++++++++@++-  =@++++++$         .+++++++$     -++++++++++++++++++++% ",
"  =@+++++++++#*@++++++-  =+++++++$         .+++++++&     ;+++++++@+#@@@@@@@#@@* ",
"  *+@@+++++%*& #++++++-  $++++@++&         .@+++++@&     $++++++@;&&&&&&&&&&&&  ",
"  #+@+++++-    #++++++;  =+++++++&          @+++@+@=      #+++++%               ",
"  %+++++++&    #++++++-  =+++++++$          *++++++=      ;+++++@               ",
"  $####@#%&    *######;  &###@##%&          &*#####.       *##@#%               ",
"                                                                                ",
"                                                                                ",
"                                                                                ",
"                                                                                ",
"                                                                                ",
"                                                                                ",
"                                                                                ",
"                                                                                ",
"                                                                                ",
"                                                                                ",
"                                                                                ",
"                                                                                ",
"                                                                                ",
"                                                                                ",
"                                                                                ",
"                                                                                ",
"                                                                                ",
"                                                                                ",
"                                                                                ",
"                                                                                ",
"                                                                                ",
"                                                                                ",
"                                                                                ",
"                                                                                ",
"                                                                                ",
"                                                                                ",
"                                                                                ",
"                                                                                ",
"                                                                                ",
"                                                                                ",
"                                                                                "};
