/* XPM */
static char * Bayerisches FS_xpm[] = {
"80 80 15 1",
" 	c None",
".	c #394F8F",
"+	c #415697",
"@	c #465C9D",
"#	c #4B61A3",
"$	c #5065A7",
"%	c #556AAC",
"&	c #5A6FB2",
"*	c #697CBB",
"=	c #7889C2",
"-	c #8897CA",
";	c #98A5D2",
">	c #A6B1D9",
",	c #B9C1E3",
"'	c #CFD4EE",
"                                                                                ",
"                                                                                ",
"  ,,''','','',',',',',',,',,,,,,,,,,,,,,,,,,,,,,,,,,,,,,,,,,,,,,,,,,,>,,>,>,>;  ",
"  ,''''''''''''''''''''''''''''''''''''''''''''''',',',',,,,,,,,,,,,,,,,,,,,,>  ",
"  ''''''''''''''''''''''''''''''''''''''''''''''''''''''''''''''',',',',,',,,>  ",
"  ,'''''''''''''''''''''''''''''''',',',,,,,,,,,,,,,,,,,,,,,,,,,,,,,,,,,,,,,,>  ",
"  ''''',,,,,,,,,,,,,,,,>,>>>>>>>>>>>>>>>>>>>>>>>>>>>>>>>>>>>>;>;>;>;>;;;;;>,>>  ",
"  ,'''>                                                                   >,>;  ",
"  ,'''>                                                                   >>>;  ",
"  >,',>                                                                   ;>>;  ",
"  ,,',;    >>>>>>>>>>>>>>>>>>>>>>>>>>>;   ;>>;;;;;;;;;;;;;;;;;;;;;;;;-    ;>;;  ",
"  >,,,;    ,,,,,,,,,,,,,,,,,,,>,>,>,>>>   ;>>>>>>>>>>>>>>>>>>>>>>>;>;;    ;>;-  ",
"  >,,,;    ,,,,,,,,,>,>,>>>>>>,>>>>>>,;   ;,>>>>>>>>>>>>>>>;>;>;;;>;;;    ;;;-  ",
"  >,,>;    >>>>>>;>,,>,>>,>>>>>>>>>>>>;   -;;;;;;;;>>;;;;;;;;;;;;;;;;-    -;;-  ",
"  ;>,>;          ;--;;>>>>>>>>>>>>>>>>;    -    ----;;;;;;;;;;;;;;;;;-    -;--  ",
"  ;>>>-              -;;>>>>>>>;>;;;;;;              --;;;;;-;-;------    ----  ",
"  ;>>>-                =;;;;;;;;;;;;;;-               =---------------    ---=  ",
"  ;>>;-                 =;;;;;;;;;;;;;-                =-------------=    =-==  ",
"  ;;>;-                  =-;;;;;-;-;-;-                 =----------=-=    =-==  ",
"  -;;;-                   -------------                  *=-==========    ====  ",
"  -;;--                    -----------=                   ============    ===*  ",
"  --;-=                    =----------=                   *==========*    ****  ",
"  ----=                    *=-=-=======                    *=====*****    ****  ",
"  ----=                     =====-=====                    ***********    ****  ",
"  =---=                     ==========*                    ***********    &*&&  ",
"  ==-==                     *===*=*=**&                    *****&*&&&&    &&&&  ",
"  ====*                     ********&&&                    &&&&&&&&&&&    &&&&  ",
"  ====*                     &&*****&&&&                    &&&&&&&&&&&    &&&&  ",
"  *==**                     &&&&&&&&&&&                    &&&&&&&&&&&    &&&&  ",
"  *****                    &&&&&&&&&&&&                    &&&&&&&&&&&    &%&&  ",
"  *****                    &&&&&&&&&&&&                   &&&&%&%&%&%&    %%%%  ",
"  ****&                   &&&&&&&&&&&&&                   &%%&%%%%%%%%    %%%%  ",
"  &&&&&                   &&&&&&&&&&&&&                  &%%%%%%%%%%%%    %%%%  ",
"  &&&&&                  &&&&&&&&&&&&&&                 %%&%&%%%%%%%%%    %%%%  ",
"  &&&&&                 &&&&&%&%&%&%&%&                %%%%%%%%%%%%%%%    %%%%  ",
"  &&&&&               &&&%&%&%%%%%%%%%%               %%%%%%%%%%%%%%%%    %%%%  ",
"  &&&&&             %%%%%%%%%%%%%%%%%%%            %%%%%%%%%%%%%%%%%%%    %$$$  ",
"  &%&&%    &&%%%%%%%&%%%%%%%%%%%%%%%%%%   %%%%%%%%%%%%%%%%%%$%$%$%$$$$    $$$%  ",
"  %&&%&    %%%&%&%&%%%%%%%%%%%%%%%%%%%%   %%%%%%%%%%%%$%%$%$%$%%$$%%%$    %$$$  ",
"  &%%%%    %%%%%%%%%%%%%%%%%%%%%%%%%%%%   %%%%%%%%$%$%$%$$%$$$$$$$$$$$    $$$$  ",
"  %%%%%    %%%%%%%%%%%%%%%%%%%%%%%%%%$%   %$$$$$$$$$$$$$$$$$$$$$$$$$$$    $$$$  ",
"  %%%%%    %%%%%%%%%%%%%%%%$%$%$%$$$$$$   $$$$$$$$$$$$$$$$$$$$$$$$$$$$    $$$$  ",
"  %%%%%    %%%%%%%%%$%%$%$%%$%$%$$%%%$$   $$$$$$$$$$$$$$$$$$$$$$$$$$$$    $$$$  ",
"  %%%%%             %%$$%$%$$$$$$$$$$$$    $$$$$$$$$$$$$$$$$$$$$$$$$$$    $$#$  ",
"  %%%%$               $%$$$$$$$$$$$$$$$    $$$$$$$$$$$$$$$$$$$#$#$#$##    ####  ",
"  $$$$%                 $$$$$$$$$$$$$$$     $$$$$$#$#$#$#$############    ####  ",
"  $$$$$                  $$$$$$$$$$$$$$      $########################    ####  ",
"  $$$$$                  $$$$$$$$$$$#$$       ###$####################    ####  ",
"  $$$$$                   $$$##$##$####        #######################    ####  ",
"  $$$$$                    ############         ######################    @@@@  ",
"  $$$$$                    ############          #############@#@@@@@@    @#@@  ",
"  #$##$                    ############          ##@#@@@@@@@@#@@@#@@@@    @@@@  ",
"  $##$#                     ###########           #@##@#@#@#@@@#@@@@@@    @@@@  ",
"  #####                     ###########            @@@@@@@@@@@@@@@@@@@    @@@@  ",
"  #####                     @#@#@@@@@@@             @@@@@@@@@@@@@@@@@@    @@@@  ",
"  #####                     #@@@@@@@@@@              @@@@@@@@@@@@@@@@@    @@+@  ",
"  #####                    #@@@@@@@@@@@               @@@@@@@@@@@+@@+@    @+++  ",
"  #@#@#                    @@@@@@@@@@@@               @@@@@@@@@+@@+@@+    ++@+  ",
"  #@#@@                    @@@@@@@@@@@@                @@+@+++@+++++++    ++++  ",
"  @@@@@                   @@@@@@@@@@@@@                 @++++@++++++++    ++++  ",
"  @@@@@                   @@@@@@@+@+@+@                  +++++++++++++    ++++  ",
"  @@@@@                  @@@+@+@+@+@+@+                   ++++++++++++    ++++  ",
"  @@@@@                 @+@+@@+++++++++                    +++++++++++    ++++  ",
"  @@@@@                @+++++++++++++++                    +++++++++++    ++++  ",
"  @+@+@              @+++++++++++++++++                     ++++++++.+    +.+.  ",
"  +++++     +   +++@+++++++++++++++++++                      ++.+.+.+.    ...+  ",
"  +@+@+    ++++++++++++++++++++++++++++                       ++.+++.+    .+..  ",
"  +++++    ++++++++++++++++++++++++++++                        .....+.    +...  ",
"  +++++    ++++++++++++++++++++++++.++.                         +.+...    ....  ",
"  +++++    +++++++++++++++.++.+.+.++.+                           .....    ....  ",
"  +++++                                                                   ....  ",
"  +++++                                                                   ....  ",
"  +.+.+                                                                   ....  ",
"  +.+.+.......................................................................  ",
"  ..+...+.+.+.+.+.............................................................  ",
"  .+...+......................................................................  ",
"  ...+....+...................................................................  ",
"  ............................................................................  ",
"                                                                                ",
"                                                                                "};
