/* XPM */
static char * BBC World_xpm[] = {
"80 80 15 1",
" 	c None",
".	c #8C0000",
"+	c #930000",
"@	c #960707",
"#	c #991010",
"$	c #9E1B1B",
"%	c #A52B2B",
"&	c #AD3E3E",
"*	c #B55252",
"=	c #BD6666",
"-	c #C87D7D",
";	c #D29797",
">	c #DEB3B3",
",	c #EDD5D5",
"'	c #FDFBFB",
"                                                                                ",
"                                                                                ",
"                                                                                ",
"                                                                                ",
"                                                                                ",
"                                                                                ",
"                                                                                ",
"                                                                                ",
"                                                                                ",
"                                                                                ",
"                                                                                ",
"                                                                                ",
"                                                                                ",
"                                                                                ",
"                                                                                ",
"   -------======*****&*&     -------=======*****&&&    -;----=-======******&&   ",
"  -;>>;;;;-;----=-====*=&    >>>;;;;;-----=====*=**    ;>>;;;;;;---======**=*&  ",
"  ;>>>>;;;;;;--======*&&%    >>>>>;;;;;;-==-===*&&%    ;>>>>;;;-;;;;--=*==*&%$  ",
"  -;;;;;>,,>>>>;-=**&%#++    ;;;;;>>,>>>>;-=***%#++    ;>;;;;-;;>>,,>>;-*&$+++  ",
"  =-;---,'''''''>=&&%++++    ;;--->''''''',-&&%@+++    -;----;,'''''''',;#++++  ",
"  =----=,'',,,'''>&#+++++    ---=->'',,,''',&$@++++    ----=>,''',>>>,''>#++++  ",
"  *=-===,',-=*-,',*.+++++    -===->'';*==,',=#+++++    =-==;,''>-=**=*=;>@.+++  ",
"  **=***>',&%@&;''=.+++++    ==***>''-$$+;''-#.++++    *=*=,'';*%%$#@++$&+++++  ",
"  &***&&>',&$#*>',&.+++++    ***&*;''-#$%;',&@+++++    ***;'';%$$$#@+++..+++++  ",
"  %&&%%%>',=*=>''-#++++++    &&&%&;''-&=;''>#++++++    &%*>''=+@++++++++++++++  ",
"  $$$#@@>''''''',%.++++++    $##+$-''''''',*.++++++    $#&>',&.+++++++++++++++  ",
"  @+++++>'',,,''',*++++++    @++.$-''',,,'',-#.++++    @.%>',&.+++++++++++++++  ",
"  ++++++>',=***-,'>&+++++    +++.$-''-&**=>''*@++++    +.%;',=.+++++++++++++++  ",
"  ++++++>',@...@='';.++++    +++.$-''*....*'';%.+++    ++#='';@.++++++++++++++  ",
"  ++++++>',$+..#*,';.++++    +++.$-''*.++.*,'>%.+++    +++$,',=@++++++@$%@++++  ",
"  ++++++>',#+++*>''-.++++    +++.$-''=.++%;'';%.+++    +++@=,',;&@...$*>,$++++  ",
"  ++++++>'',>>>,''>%++@@@    +++.$-'',>>>,'',&++@@@    ++++@-,'',>>;>>'',$+@@@  ",
"  ++++++>''''''',>&@##$$$    +++.$-''''''',>=#@#$$$    ++++.#*>,''''''',-$#$$$  ",
"  ++++++=;;;;;;-=%#$%%%&%    ++++#*;;;;;;;=&@$%%%%%    +++++..#=;>>>>;-*$%%&%%  ",
"  ++++++++++@##$$%%%&&&*&    ++++++.++@##$$%%%&&&*&    ++++++@@++@#$$$%%&&&*&%  ",
"  ++@@##$$$%%%%&&&****==&    +@@##$$$%%%%&&&&***==*    +@@###$$$%%%&&&&****=*&  ",
"                                                                                ",
"                                                                                ",
"                                                                                ",
"                                                                                ",
"                                                                                ",
"                                                                                ",
"                                                                                ",
"                                                                                ",
"                                                                                ",
"     +      ++      ++     ++++++      +++++++++     ++         +++++++         ",
"     +      +++     ++    +++ ++++     ++++++++++    ++         +++++++++       ",
"     ++    ++++     +    ++      ++    ++      +++   ++         ++     +++      ",
"     ++    ++++    ++   ++        ++   ++       ++   ++         +       ++      ",
"      +    +  ++   ++   ++        ++   ++       ++   ++         ++       ++     ",
"      +    +  ++   ++  ++          +   ++      +++   ++         ++       ++     ",
"      ++  ++  ++   +   ++          ++  ++++++++++    ++         ++       ++     ",
"      ++  ++   +  ++   ++          ++  +++++++++     ++         ++       ++     ",
"       +  +    ++ ++   ++          +   ++    ++      ++         ++       ++     ",
"       +  +    ++ ++    ++        ++   ++     ++     ++         ++       ++     ",
"       ++++     +++     ++        ++   ++      ++    ++         +       ++      ",
"       ++++     +++      ++      ++    ++      +++   ++         ++     +++      ",
"        ++      +++       ++++++++     ++       ++   ++++++++   +++++++++       ",
"        ++       +         ++++++      +         ++  ++++++++   +++++++         ",
"                                                                                ",
"                                                                                ",
"                                                                                ",
"                                                                                ",
"                                                                                ",
"                                                                                ",
"                                                                                ",
"                                                                                ",
"                                                                                ",
"                                                                                ",
"                                                                                ",
"                                                                                ",
"                                                                                ",
"                                                                                ",
"                                                                                ",
"                                                                                ",
"                                                                                ",
"                                                                                ",
"                                                                                ",
"                                                                                ",
"                                                                                "};
