/* XPM */
static char * Beur Tv_xpm[] = {
"80 80 15 1",
" 	c None",
".	c #035B8D",
"+	c #2F6C83",
"@	c #7A4D6C",
"#	c #5D8561",
"$	c #689DB3",
"%	c #8DA055",
"&	c #F17442",
"*	c #B8B63F",
"=	c #E6A232",
"-	c #E1CA2B",
";	c #A5C9D8",
">	c #F1C816",
",	c #D2EAF2",
"'	c #FAFDFC",
"                                                                                ",
"                                                                                ",
"                                                                                ",
"                                                                                ",
"                                                                                ",
"                                                                                ",
"                                                                                ",
"                                                                                ",
"                                                                                ",
"                                                                                ",
"                                                                                ",
"                            &=&                                                 ",
"                          &=---=&                                               ",
"                         =>>>>>--&                                              ",
"                       &->>>>>>>>-=                                             ",
"                      =->>>>>>>>>>>-&                                           ",
"                     ->>>>>>>>>>>>>>-=                                          ",
"                   &>>>>>->>->>>>>>-->-#.+@                                     ",
"                 &=>>>>>>>>>>->>>>>>>>>-*...@                                   ",
"                &->>>->>>>>>>>>>>>>>>>>>-*#..+                                  ",
"               &>>>>>>>>>=>>-*->>>>>>>>>>>-%+..@                                ",
"             &=>>>>>>>>-*->-#+*>>**>>->>>>>>*+..+                               ",
"            &>>>>>->>>>%.%>>#.*>-++=>>>>>>>---#...@                             ",
"            >>>>->>>->>*.#->#.*>*.#->>-->>>>>--+...+                            ",
"            >>>->>>%#*>>#.*>#.*>#.%>>%#*->>>>>*.....+@                          ",
"             =->>>>%.+->%.#>#.=>++->%..>>>>>>*+.......@                         ",
"              =>>>>-#.#-*++-#.**.#>*++%>>>>-%+.........+                        ",
"               &>*->-+.%-#.*#.*#.*-+.%>>-**#.............@                      ",
"                 @#->-+.*%.##.%++-+.#>>*#+................+                     ",
"                  @+%-*+.%#.#+#.##.#--#.....................@                   ",
"                  @..#**.++.....#.#*%+.......................@                  ",
"                 @.....##..+##++.+##..........................+                 ",
"                ........+++%===%++..............................@               ",
"              @$.........+*=====%................................+              ",
"            @&',;........#======%+.................................@            ",
"           @.;'';.........+%===#+...................................+           ",
"          +..;'';..........+++@.......................................@         ",
"        @....;'';.+$++.....+$$++...++++...+++...+.+#############+..+###@        ",
"       @.....;'';$,'',$..+;,''',$..$,,;...;,,$$;,$+->>>>->>**>>-#.+*>>-++@      ",
"      +......;'''''''',.+''',,'''$.$'',+..,''''''$#>->>>>>>*%->>*.+->>*+..@     ",
"     +.......;'',;$;''';;'';+.;'',+$'',...;''''''$+-->>>>--*#*>>*+#>>>#....     ",
"     ........;'';..+,'','''+..$,''+$'',+..,'',$+$+.++%>>>#++.%>>>#%>>-#....@    ",
"     ........;'';...;'''''',,,,'''$$'',...;''$.......%>>-+...#>>>*->>*.....@    ",
"     @.......;'';...;''''''''''','$$'',...,'';.......%>>>#...+->>>>>>#....+     ",
"      @......;'';...;''''',$++++++.;'',...;'';.......%>>-+....*>>>>>-+...+      ",
"        .....;'';..+''',,''$.....+$''''$.+,'';.......%>>>#....#--->>*...@       ",
"         +...;'',$$,'',$;''';$$$;'''''',;,'''$.......%>>-#....+->>>>%.+         ",
"          @+.;'''''''';.+,'''''''';$,'''''''';.......%>>>+.....*>>>-+@          ",
"            +;,,;;,,,$...+$,,',,;$..$,,';$;,,$.......%---+.....#---=@           ",
"             @....+++.......++++......++.............+###+.....+###             ",
"               +.................................................@              ",
"                @..............................................+                ",
"                 @+...........................................@                 ",
"                   @........................................+@                  ",
"                    @......................................@                    ",
"                      +...................................@                     ",
"                       @................................+                       ",
"                         +.............................@                        ",
"                          @..........................+                          ",
"                           @+.......................@                           ",
"                             +....................+@                            ",
"                              @..................@                              ",
"                                +...............@                               ",
"                                 @............+                                 ",
"                                   +.........@                                  ",
"                                    @......+                                    ",
"                                      @@@@                                      ",
"                                                                                ",
"                                                                                ",
"                                                                                ",
"                                                                                ",
"                                                                                ",
"                                                                                ",
"                                                                                ",
"                                                                                ",
"                                                                                ",
"                                                                                ",
"                                                                                ",
"                                                                                ",
"                                                                                "};
