/* XPM */
static char * Bloomberg_xpm[] = {
"80 80 7 1",
" 	c None",
".	c #040303",
"+	c #0B111A",
"@	c #0F1E31",
"#	c #142A45",
"$	c #17375E",
"%	c #1B467D",
"                                                                                ",
"                                                                                ",
"                                                                                ",
"                                                                                ",
"                                                                                ",
"                                                                                ",
"                                                                                ",
"                                                                                ",
"                                                                                ",
"                                                                                ",
"                                                                                ",
"                                                                                ",
"                                                                                ",
"                                                                                ",
"                                                                                ",
"                                                                                ",
"                                                                                ",
"                                                                                ",
"                                                                                ",
"                                                                                ",
"                                                                                ",
"                                                                                ",
"                                                                                ",
"                                                                                ",
"                                                                                ",
"                                                                                ",
"                                                                                ",
"                                                                                ",
"                                                                                ",
"                                                                                ",
"    % %    %                                  %                                 ",
"   .....$  ..                                $.+                                ",
"   .+@+..% ..                                $.+                                ",
"   .$  +.# ..    $%%      %$        $%   $%  $.@ %$       $%            $%      ",
"   .#  +.  +.  %....@   %....+  $.+...#$...@ $......#   #....%  +.#.  @...+.+   ",
"   +.+..#  ..  ..$$+.#  +.#$@.+ $..#$...$#.. $..+$#..$ $.@ %+.  +..@ @.+$#..+   ",
"   ...+..$ .. #.$   +. %.#   @. %.#  #.#  #.%$.+   %.@ +.   $.@ +.%  ..   %..   ",
"   .+  $.+ +. +.    @. $.%   $.%%.$  $.%  $.%$.#    .@ ++@@+@+@ +.  %.@    .+   ",
"   .+  %.+ +. @.%   @. %.$   #. %.$  $.%  $.%$.@   %.@ .#       +.  %.+    ..   ",
"   ..@$+.# .. $.+% $.+ %.+% %.+ %.$  $.$  #.%$..$  +.# @.%  %%  +.   +.#  @.+   ",
"   .....+  ..  #.....%  #.....% $.$  $.$  #.%$......@   +.++.@  +.   %......+   ",
"   $###%   ##   $@+#     %@+@%  %#%  %@   %@  @$%@+$     #+@$   $#     #+#%.+   ",
"                                                                           ..   ",
"   #@$   %@$    $%    %@$    $  #   %%    ##     $    $@@%    @  #   #+$  #.@   ",
"    +    %@     #%    %@     @ %#   %#    @     %@   %@  +    .# @    ...+.+    ",
"    @    %+$    #%    %+$    %@@    %$    %#%    #   #$  #    ###+     $#@$     ",
"    @    $#     #$    %@      ++    %#     $@    @   %@ %+   %$ @.              ",
"    $     #$    %@$    #$     %      %    ##     %    %@@     %  #              ",
"                                                                                ",
"                                                                                ",
"                                                                                ",
"                                                                                ",
"                                                                                ",
"                                                                                ",
"                                                                                ",
"                                                                                ",
"                                                                                ",
"                                                                                ",
"                                                                                ",
"                                                                                ",
"                                                                                ",
"                                                                                ",
"                                                                                ",
"                                                                                ",
"                                                                                ",
"                                                                                ",
"                                                                                ",
"                                                                                ",
"                                                                                ",
"                                                                                ",
"                                                                                ",
"                                                                                ",
"                                                                                ",
"                                                                                ",
"                                                                                ",
"                                                                                ",
"                                                                                ",
"                                                                                ",
"                                                                                ",
"                                                                                "};
