/* XPM */
static char * BR_alpha_xpm[] = {
"80 80 15 1",
" 	c None",
".	c #033561",
"+	c #1C3B6E",
"@	c #055076",
"#	c #274878",
"$	c #314C8F",
"%	c #066E98",
"&	c #3D58A2",
"*	c #40697B",
"=	c #0C92C2",
"-	c #5C79AE",
";	c #3FB2D8",
">	c #82B1BF",
",	c #75D2EE",
"'	c #CDE3E6",
"                                                                                ",
"                                                                                ",
"                                                                                ",
"                                                                                ",
"                                                                                ",
"                                                                                ",
"                                                                                ",
"                                                                                ",
"                                                                                ",
"                                                                                ",
"                                                                                ",
"                                                                                ",
"                                                                                ",
"                                                                                ",
"                                                                                ",
"                                                                                ",
"                                                                                ",
"                                                                                ",
"                                                                                ",
"                                                                                ",
"                                                                                ",
" --------------------------------------                                         ",
" ->->->-->-----------------------------               $#+.....+###              ",
" ---                                ---             #+.....@......+$            ",
" --                                  --           #+...+#%--=&%#@...+           ",
" --  --------------- --------------  -&          +...@-;,,,,',,,;=@...$         ",
" --  --------------- --------------  --        $...@->>>,>,,,,,,,,,=@..#        ",
" --       ----------      &-&-&-&-&  -&       $...%->>,,>,,,,,,,,,,,;%..#       ",
" --         ------&-       &---&--&  &&      $...@->;>;>,>,,,,,,',,,,;%..#      ",
" --          &-&-&-&        &&-&&&-  &&      +..@-;>;>;;;;,;,,,,',,,,,;%..$     ",
" &-           &-&-&-         &&&-&&  &&     #..@%----;>;>;;;;;,,'',,;,;=@.+     ",
" -&           --&-&&         &&&&&&  &&    $...@*->>;;-;;;;,;,,''',;;,;;=..#    ",
" &-           &&&&&&          &&&&&  &&&&&&#...%-,'>'>;;;;;;;,,''',;;;;;=%.+    ",
" &&           &&&&&&          &&&&&  &&&&&$...@*>'''''>;=;;;;;,''',;;;;;==@.#   ",
" &&           &&&&&&         &&&&&&  &&&&&$...#>'''''''>;===;;,''',;;;;;==@.+   ",
" &&          &&&&&&&         &&&&&&  &&&&&+...->>>>-%-''>==;==,''',;;;;===%@.   ",
" &&          &&&&&&&        &&&&&&&  &&&&&+..#->>>-%%%=',>===;,''';========@.$  ",
" &&         &&&&&&&&       &&&&&&&&  &&&&$...*->>*@%%%%-'>===;''',;========@.#  ",
" &&      &&&&&&&&&&&     &&&&&&&&&&  &&&&$...**-*@@@%%%%;';%=,''';=========@.#  ",
" &&  &&&&&&&&&&&&&&& &&&&&&&&&&&&&&  &&&&$...*>*@@@%@%%%%>>=;'''';========%@.+  ",
" &&  &&&&&&&&&&&&&&& &&&&&&&&&&&&&&  &&&&$...***.@@@%@%%%-,>''''>=======%%=@.@  ",
" &&       &&&&&&&&&& &&&&&&&&&&&&&&  &&&&$...#*#.@@@@%@%%%-'''''==%==%=%=%%@.#  ",
" &&         &&&&&&&&  &&&&&&&&&&&&&  &&$&$+..+*+.@@@@@@%%%-''''>%%=%%=%%%%%@.#  ",
" &&          &&&&&&&   &$&$&$&$&$$$  &$$&$....*+...@@@%@@->>''>%%=%%%%%%%%%@.$  ",
" &&          $&$$$&$    &$&$$$&$&$&  $$&$$#...++..@@@@@@%>>'>>-%%%%%%%%%%%@..$  ",
" $&           $&$&$&    $$$&$$$$$$$  $$$$&+....+....@@@*->>>>'-%%%%%=%%%%%@.+   ",
" $$           $$$$$$     $$$$$$$$$$  $$$$$#.....*....@***>>>-->-%%->>%@%@@..#   ",
" $$           $$$$$$      $$$$$$$$$  $$$$$$+....++###***>*>-**>>-->'>@%@@@.@    ",
" $$           $$$$$$       $$$$$$$$  $$$$$$#.....+*******>**@@*>>'>'>@@@@..+    ",
" $$          $$$$$$$        $#$#$#$  #$#$  #+......********.@@@*>>>>-@@@@.@     ",
" $$          $#$#$#$         $#$#$#  $#      .......++***+.@.@@#*->*@@@...+     ",
" $#         $#$#$#$#         ######  ##      #........+...@.@@@@@**#@@...+      ",
" #$       ##########          #####  ##       +.....+++########*##@@@...@       ",
" ##  ###############           ####  ##        +....+**************+..@+        ",
" ##   ##########+##             +#+  ++         +.....+#*********@....+         ",
" ##                                  #+           +.....++####++....@+          ",
" ++#                                +++            ++............@++            ",
" ++++++++++++++++++++++++++++++++++++++              +++.......@+.              ",
" ++++++++++++++++++++++++++++++++++++++                   ++++                  ",
"                                                                                ",
"                                                                                ",
"                                                                                ",
"                                                                                ",
"                                                                                ",
"                                                                                ",
"                                                                                ",
"                                                                                ",
"                                                                                ",
"                                                                                ",
"                                                                                ",
"                                                                                ",
"                                                                                ",
"                                                                                ",
"                                                                                ",
"                                                                                ",
"                                                                                ",
"                                                                                ",
"                                                                                ",
"                                                                                ",
"                                                                                "};
