/* XPM */
static char * COMEDY CENTRAL_xpm[] = {
"80 80 6 1",
" 	c None",
".	c #E11535",
"+	c #EB5671",
"@	c #EE6D41",
"#	c #F7BAA2",
"$	c #F9C969",
"                                                                                ",
"                                                                                ",
"                              $$@@@@@@@@@@@@@                                   ",
"                             $@.............@                                   ",
"                            $$..........@@..@                                   ",
"                            $@....@$$$.@$$@.@                                   ",
"                           $@.....@$$$@@$$@.@                                   ",
"                           $@......@@@......$                                   ",
"                           $$...............$                                   ",
"                            $@.....@$$@@$$@.$                                   ",
"                            $$.....@$$@@$$@.$                                   ",
"                    $$$$$$@@@@......@@......$                                   ",
"               $$$$@@@@.....................$                                   ",
"              $@..........@@.@$.....@$@@$$@.$                                   ",
"             $@......@.@$.@$@@$@....@$$@$$@.$$                                  ",
"            $@....@@.$@.$$.@$.$$............$$@@@@@@$                           ",
"           $$......$@.$@.$@@$@@$@........@..@.......@                           ",
"           $@.......$@@$@@$.@$.@$....$$@$$@...$$$$$.@                           ",
"          $$........@$@@$.@@.$@@$....@$@@@....$$$$@.$                           ",
"          $$@........@$@$@@$@@$.$@..................$                           ",
"           $$@........@@.$@@$.$@@$....@@@$@....@@@.@$                           ",
"            $$@........@@@@@$@@@@$....$@@$@...$$$$@@$                           ",
"             $$@........$@@@@$.@@@@...........@@@..@$                           ",
"              $$@.......@$@@.@@@@@$...@@@@@.........@@$                         ",
"               $$........@@@@@@@$@$@..$$@$@...@@$@....@$                        ",
"                $$........$@$@@@@@@@..........$$$@......@                       ",
"                 $@.......@@@@@@@@@@...@@@@..............@$                     ",
"                 $$@.......@@@@@@@@@@..$@@@...@@@.........@$                    ",
"                $$$@........@@@@@@@@@.........$$$@.........@$                   ",
"                $$@.........@@@@@@@@@..@@@@.................@$   ##             ",
"               $$$@..........$@@@@@@@..@@.....@@@............@@@@@@$$           ",
"              $$$$...........@@@@@@@@@....@...$$@...................$           ",
"              $$$$............@@@@@@@@.@@@@...............+++...##+.$           ",
"             $$$$@............@@@@@@@.............++##$#++#$$+.+$$+.$           ",
"            $$$$$@.............@@@@......++++#$$++$$$$$$$#+$$$++$$+.$           ",
"            $$$$$@.............@@@..++.+$$$$$$$$++$$$$$$$$+#$$++$$+.$           ",
"           $$$$$$@.............@@@..#$++$$$$$$$#++$$$+.#$$#+$$$$$$+.$           ",
"           $$$$$$@........++....@@.+$$+.$$$#+.....$$$+.+$$$.+$$$$$.@$           ",
"          $@@@@@@..++$$++.#$#...@..+$$#.$$$#......#$$#.+$$$..$$$$#.@$           ",
"        $@........#$$$$$#.+$$+..@.+$$$$.#$$$......+$$$..$$$+.+$$$#.@            ",
"        @.++#$+..+$$$$$$$++$$$+...+$$$$++$$$+++++.+$$$..#$$+..#$$+.@            ",
"       $.+$$$$$+.$$$++$$$++$$$$+..#$$$$++$$$$$$$$++$$$+.+$$+..+$$+.$            ",
"      $@.#$$$$$$+$$$+.#$$#+$$$$$++$$$$$++$$$$$$$$+.$$$+.+$$#...$$#.@$           ",
"      $@+$$#.$$$+$$$+.+$$#+$$$$$##$$$$$++$$$$##++..$$$+.+$$$...$$$.@$           ",
"      $@+$$+.#$$+#$$+.+$$$+$$$$$$$$$$$$#.$$$#......#$$#.+$$$+..$$$+@$           ",
"      $@+$$+.+$#.#$$+.+$$$+#$$$$$$$$$$$#.#$$#......+$$$.+$$$+..+$$+.$           ",
"      $@.$$#.....+$$+.+$$$+#$$$$$$$##$$$++$$$......+$$$#$$$$...+$$+.$           ",
"      $@.$$$.....+$$#.+$$$++$$$+$$$++$$$++$$$+++++#+$$$$$$$+...+#+..$           ",
"      $$.#$$.....+$$$..$$$++$$$++$$.+$$$++$$$$$$$$$+$$$$$$+.........$           ",
"       $.#$$..++++$$$..#$$++$$$+.++.+$$$++$$$$$$$$$++++++....+++...@$           ",
"       $.+$$+.$$$+$$$+.#$$#+$$$+.....$$$+.$$$$#+++......++...+$#..$$            ",
"       $.+$$+.#$$+#$$++#$$#.$$$+.....#$$+.++...........+$$+..+$$..$$            ",
"       $@+$$+.#$$++$$$$$$$+.#$$+.....+.......++$$$$+...+$$#..+$$..$$            ",
"       $@+$$$+$$$++$$$$$$+..+++......++++#$++$$$$$$$...#$$$..+$$+.$$            ",
"       $@.#$$$$$#..+#$##+.......++++#$$$$$$#+$$$+#$$+..#$$$+.+$$+.$$$           ",
"        $..#$$$#........+++.+#..+$$+#$$$$#+..#$$.+$$+..$$$$#..$$+.$$$$          ",
"        $@..+++.+++..$$$$$$+#$+.+$$++++$$+...+$$++$$+..$$#$$+.$$+....$          ",
"         $$@..+#$$$++$$$$$$.+$$++$$+...$$#...+$$$$$$+..$$+$$+.#$+....$          ",
"          $$@.#$$$$#+$$$....+$$$+$$#...$$$...+$$$$$$+..$$$$$#.+$#.++.$ $$       ",
"           $$.$$++$$+$$$....+$$$$$$$...#$$...+$$$+$$$..$$$$$$++$$$$#.$ $$       ",
"           $$.#$+.$$+$$$++++.$$$$$$$+..+$$+...$$#.+$$++$$++$$++$$$$+.$ $$       ",
"            $.+$#.++.+$$$$$$.$$$$$$$+..+$$+...$$$.+$$++$$+.$$+++++..@$          ",
"            $@+$$....+$$$$$+.#$$$$$$+..+$$+...#$$.+$$++$$+.++.....@@$$          ",
"            $@+$$....+$$+....+$$+#$$+..+$$#...+$$+.$$+.+......@@@$$#            ",
"             @+$$++#$+$$#....+$$++$$#...$$$...+$+.........@@@$$$                ",
"             $.#$++$$+$$$+++++$$+.+$$...+#+..............@$$$$$                 ",
"             $.+$#+$$++$$$$$$+$$+..++....................$$$$$                  ",
"              @+$$$$$++$$$$$$.++...........@@@..........$$$$$$                  ",
"              $.++##+..+............@@@@$$$$$$$........$$$$$$                   ",
"               $@...........@@@@@$$$$$$$$$$$$$$.......$$$$$$                    ",
"                $@@@@@@$$$$$$$$$$$$$$$$$$$$$$$$......$$$$$$                     ",
"                   $$$$$$$$$$$$$$$$$$$$$$$$$$$@....@$$$$$$                      ",
"                     $$$$$$$$$$$$$$$$$$$$$$$$$....@$$$$$                        ",
"                      $$$$$$$$$$$$$$$$$$$$$$$@..@$$$$$$                         ",
"                        $$$$$$$$$$$$$$$$$$$$$$@$$$$$$                           ",
"                          $$$$$$$$$$$$$$$$$$$$$$$$$$                            ",
"                            $$$$$$$$$$$$$$$$$$$$$                               ",
"                              $$$$$$$$$$$$$$$$$                                 ",
"                                                                                ",
"                                                                                "};
