/* XPM */
static char * Cuisine_TV_xpm[] = {
"80 80 14 1",
" 	c None",
".	c #EA9F2F",
"+	c #E7AF55",
"@	c #DFB986",
"#	c #F2C97B",
"$	c #F1D7A3",
"%	c #F5E4BF",
"&	c #FAEFD4",
"*	c #FDF9E2",
"=	c #F8FEF8",
"-	c #F7FEFE",
";	c #FEFEF4",
">	c #FEFDFC",
",	c #FFFFFF",
"                                                                                ",
"                                                                                ",
"                                                                                ",
"                                                                                ",
"                                                                                ",
"                                                                                ",
"                                                                                ",
"                                                                                ",
"                                                                                ",
"                                                                                ",
"                                                                                ",
"                                                                                ",
"                                                                                ",
"                                                                                ",
"                                                                                ",
"                                                                                ",
"                                                                                ",
"                                                                                ",
"                                                                                ",
"                                                                                ",
"                                                                                ",
"                                                                                ",
"                                                                                ",
"                                                                                ",
",,,,,,,,,,,,,,,,,,,,,,,,,,,,,,,,,,,,,,,,,,,,,,,,,,,,,,,,,,,,,,,,,,,,,,,,,,,,,,,,",
",,,,,,,,,,,,,,,,,,,,,,,,,,,,,,,,,,,,,,,,,,,,,,,,,,,,,,,,,,,,,,,,,,,,,,,,,,,,,,,,",
",,,,,,,,,,,,,,,,,,,,,,,,,,,,,,,,,,,,,,,,,,,,,,,,,,,,,,,,,,,,,,,,,,,,,,,,,,,,,,,,",
",,,,,,,,,,,,,,,,,,,,,,,,,,,,,,,,,,,,,,,,,,,,,,,,,,,,,,,,,,,,,,,,,,,,,,,,,,,,,,,,",
",,,,,,,,,,,,,,,,,,,,,,,,,,,,,,,,,,,,,,,,,,,,,,,,,,,,,,,,,,,,,,,,,,,,,,,,,,,,,,,,",
">>--,,,-,,,>;,--,,,,=>>>,,>>-,,,;;==,,>>,--,>>>->>,>,,,,,->,=>>>;=>,>>--->>>>,,,",
",>>>>,;=;;;>>,-,,>,=>>>>,>>>>>>>>=>-,,,>,==;>>,>=;,,,,,,-=>,;;>>;==,,--==>;>=>,,",
",,;>>,=;>;>>,,,,>>,->,>,,>>>>;>>>;;>,>,>,>;;,>,,==,,,,,,,=>,>>>>>=--,--;;,>>=-,,",
",>>>,,-,,-,=>,,,>>,-,,--,>>>>=,>>;;;,,,,,,,,,,,,,-,,,>>>>,,,-,,,---->--;;,,-->,,",
";>>,>;>,,,,=-,,;;--,>,-->>-->>,,>>>,,>;,>,>>>,,>>,>;;,>;>,,>,,,;;;>,,>>>,,-->>,,",
";>-,*%$$$&*,;%%%;->%%%>*%%=-;&$$$&>>;&&,*&*>>->&*;*%%&&%&*;;;&%%%%%%%%&=->>>&&,,",
",--*@+....$>*@.+&,*+.+&%++%=$+++++%*&@#,%@$*;>>#$,%$$%%$%&-;;%@@@@@@$@$>-=>;@$,,",
",>-$+.+...+%&+..&,&+.+&$.+%*++$%#++&*+#,%+#%;>=#$,$$*==*=->>=--,%@&==$@*-->%@&,,",
"=>&$@%&&@..@&+..&,*+..&%..&%.#*,;$#&&+#;%###*=>#$=$%==>;=-->=>,;&@&>=&+%=-=#@>,,",
">>&@#%->&#@$&+..&>*+.+&%..&*+.#%&&*;&##,%# #$;,#$;%$*****=->;;>>%@*,-,@#=->@%,,,",
"-;%@@%*->>>-*+.+&>*+..*%.+%>%#...+%**+#,%#*&#%=#$,$##$#$$&=>>,=;&@&>--&@*-%@*>,,",
"->%$$%--=%%&&+..&,*+.+&%..&,*&%$#.+%&+#-%#**$#;#$;%$*;;*;--->---&@*,->=@$>$@=,,,",
"->%@@%>=%..@%+..%;%+.+&%.+%%#%-=*#+#&##;%@*>&@$#$*$%;--;;--,>=--&@&--;>$@&@%,,,,",
"->>%@##@+..$*#..+#+..@*%..%$.#&*&#+$&+#-%#*>;%##$;%%;>,;,,-;;;--&@&,>;>%@#@;>,,,",
">>>%+.....@&>%+......%;$.+%*#.++++#&&+#;%#&>>*$+$;$$%&&%&*,&$&-,%@&-;>>;@+$>>>,,",
">>>>%#+++@*>-;&#++##%>>%#$*>&$###$&;;$$-*$*>-;*$%;%$$$$$$%-%$;,-&$*>;>->&@*=->,,",
",>>>>,>;>>>=-->;;;,,,-->*;=-,-;**;;-->,>>>;---;;;=>;;;;*;>--=--->---;>=-;*>=->,,",
"*;;=----=>->------->;----====-->;>;;;>,,>>>-==>>--,>,>-->>-=;>-->>>->>;==;>=>>,,",
";>==;=>>>==>>;=->>;;;>>>=-->>===->>>;;>>>>;==;>->>>>,==->>>>>>>=>>>>>>;;=-,>>,,,",
">>,>>>>>,>>>>>=>>>>;;>>>>,>>,>>,,,>,,>>,>>>>>;>->>>>,=>,,>,,>>,>>>>>>>>>>-,,,,,,",
",,,,,,,,,,,,,,,,,,,,,,,,,,,,,,,,,,,,,,,,,,,,,,,,,,,,,,,,,,,,,,,,,,,,,,,,,,,,,,,,",
",,,,,,,,,,,,,,,,,,,,,,,,,,,,,,,,,,,,,,,,,,,,,,,,,,,,,,,,,,,,,,,,,,,,,,,,,,,,,,,,",
",,,,,,,,,,,,,,,,,,,,,,,,,,,,,,,,,,,,,,,,,,,,,,,,,,,,,,,,,,,,,,,,,,,,,,,,,,,,,,,,",
",,,,,,,,,,,,,,,,,,,,,,,,,,,,,,,,,,,,,,,,,,,,,,,,,,,,,,,,,,,,,,,,,,,,,,,,,,,,,,,,",
",,,,,,,,,,,,,,,,,,,,,,,,,,,,,,,,,,,,,,,,,,,,,,,,,,,,,,,,,,,,,,,,,,,,,,,,,,,,,,,,",
",,,,,,,,,,,,,,,,,,,,,,,,,,,,,,,,,,,,,,,,,,,,,,,,,,,,,,,,,,,,,,,,,,,,,,,,,,,,,,,,",
"                                                                                ",
"                                                                                ",
"                                                                                ",
"                                                                                ",
"                                                                                ",
"                                                                                ",
"                                                                                ",
"                                                                                ",
"                                                                                ",
"                                                                                ",
"                                                                                ",
"                                                                                ",
"                                                                                ",
"                                                                                ",
"                                                                                ",
"                                                                                ",
"                                                                                ",
"                                                                                ",
"                                                                                ",
"                                                                                ",
"                                                                                ",
"                                                                                ",
"                                                                                ",
"                                                                                ",
"                                                                                "};
