/* XPM */
static char * EinsFestival_xpm[] = {
"80 80 15 1",
" 	c None",
".	c #010000",
"+	c #C21105",
"@	c #CE3415",
"#	c #D14F45",
"$	c #808181",
"%	c #DB746A",
"&	c #DAA49F",
"*	c #B9B9B9",
"=	c #CACACA",
"-	c #EBC0BE",
";	c #DCDDDD",
">	c #F4DDDA",
",	c #F0F0F0",
"'	c #FEFEFE",
"                                                                                ",
"                                                                                ",
"                                                                                ",
"                                                                                ",
"                                                                                ",
"                                                                                ",
"                                                                                ",
"                                                                                ",
"                                                                                ",
"                                                                                ",
"                                                                                ",
"                                                                                ",
"                                                                                ",
"                                                ;                               ",
"                                             *;'=                               ",
"                                           ;,'''=                               ",
"                                        ,,''',,'*                               ",
"                                      ,',',,,,,'*                               ",
"                                   =,'''',',,,,'*                               ",
"                                ,,''''',,,,,,,,'*                               ",
"                              ,'''''',,',,,,,,,'*                               ",
"                           ,'''''''',',,,,,,,;,'*                               ",
"                        ,,''''''''',',,,,,,,,;;,*                               ",
"                      ,,'''''''''',',,,,,,,;;;;,*                               ",
"                   ;'''''''''''',',,,,,,,;;;;;;,*                               ",
"                  =''''''''''''',,',,,,,;,;;;;;,*                               ",
"                  ='''''''''''',',,,,,,;;;;;;;;,*                               ",
"                  =''''''''''',,,,,,,,;;;;;;;;=&%+                              ",
"                  ='''''''';;,',,,,,,;;;;;;&%%%%%###@+                          ",
"                  =''''',=$$*',,,,,;;;;;;*%%%#%%%%%%##@+                        ",
"                  =''';=$   $',,,,,,;;;;-##%&&%%%%%####@+                       ",
"                  =',*$     $',,,,;;;;;&@#%%%%%%%&%####@@++                     ",
"                  **        $',,,;;;;,&@+%%%%%#&,,,%@@@@@+++                    ",
"                            $',;;;;;;=#+@%%%%#%-'''&#@@@++++                    ",
"                            $';,;;;;;%++@#%#%#%-'''&#@+@+++++                   ",
"                            $';;;;;==#+++#####%-'''&#+@+++++++                  ",
"                            $';=;=;=%++++######-'''&#+++++++++                  ",
"                            $,;;=;;=#+++%->-%%#-'''&@#%->-%++++                 ",
"                            $,====;=+++@>''',-->''';&->,''>@+++                 ",
"                            $,==;==-+++@''''''''''''''''''>#+++                 ",
"                            $,=====&+++@-,''''''''''''''''-@+++                 ",
"                            $,=====&++++@#-,''''''''''',&#@++++                 ",
"                            $,=====&++++++@#%-,''''',-###++++@+                 ",
"                            $;=====*+++++++++-'''''''*++++@@@++                 ",
"                            $;=*=*=*@+++++++%,'''''''>%@+@@+@++                 ",
"                            $;=**==*#++++@+#>''',>'''',#@+@@@+.                 ",
"                            $;*=****&@+@++@&''''-#-''''-#+@@@+                  ",
"                            $;*******#++++%>''';%+#>''''%+@@++                  ",
"                            $;******=&@+@+%>'''%+@+%,'''%+@@+                   ",
"                            $;********#+++@&>>&@+@@@&,>&@@@+                    ",
"                            $=*****=$$ +@@@@#@+@@@@@@@#@@@@.                    ",
"                            $;*=**$     ++@@+@@@@@@@@@@@@@.                     ",
"                            $;*$$         +@@@@@@@@@@@@@+                       ",
"                             $             ++@@@@@@@@@@.                        ",
"                                              ++@@@@+                           ",
"                                                                                ",
"                                                                                ",
"                            .                                                   ",
"         .....   .....    ....  .......  ..  ..     ..    ..      ..            ",
"        ...      ..      ..       ...    ..  ...    ..    ...     ..            ",
"        ...      ..      ..        ..    ..   ..   ...   ....     ..            ",
"        ...      ...     ...       .     ..   ..   ..    .. ..    ..            ",
"        ......   .....    ....     .     ..    ..  ..   ..  ..    ..            ",
"        ...      ..         ...    .     ..    .. ..    ..  ...   ..            ",
"        ...      ..          ..    .     ..    .. ..   ........   ..            ",
"        ...      ..         ...    .     ..     ....   ...   ..   ..            ",
"         ..      .....   .....     .     ..     ...    ..     ..  .....         ",
"                  ....   ....                    .                 ....         ",
"                                                                                ",
"                                                                                ",
"                                                                                ",
"                                                                                ",
"                                                                                ",
"                                                                                ",
"                                                                                ",
"                                                                                ",
"                                                                                ",
"                                                                                ",
"                                                                                ",
"                                                                                "};
