/* XPM */
static char * EinsPlus_xpm[] = {
"80 80 15 1",
" 	c None",
".	c #5E190B",
"+	c #942915",
"@	c #BC290D",
"#	c #B63B23",
"$	c #E9310E",
"%	c #D63A1C",
"&	c #EC3C1A",
"*	c #C24E37",
"=	c #EB4829",
"-	c #F05638",
";	c #CE6D5A",
">	c #F36449",
",	c #F6745B",
"'	c #F48D78",
"                                                                                ",
"                                                                                ",
"                                                                                ",
"                                                                                ",
"                                                                                ",
"                                                                                ",
"                                                                                ",
"                                                                                ",
"                                                                                ",
"                                                                                ",
"                                                                                ",
"                                                                                ",
"                                                                                ",
"                                                                                ",
"                                                                                ",
"                                                                                ",
"                                                                                ",
"                                                                                ",
"                                                                                ",
"                                                                                ",
"                                                                                ",
"                                                                                ",
"                                                                                ",
"                                                                                ",
"                                                                                ",
"                                                                                ",
"                                                                                ",
"                            *                                                   ",
"                          ,';                                   @$$$$$          ",
"                         ,'';                                  $@+   @$         ",
"                        >'''*                                 $$      +$        ",
"                        ;,',*                                 @   @@$+ .$       ",
"                        -,,,*                                $@ @$$$$@  $       ",
"             =---       ->,>#                       ---=     $ $@$$&&+  %#      ",
"       ->>-=->>>>>=     *->>#   ----     +---=    =------=   $   @===+  =*      ",
"       -----------=%    =--=#   ----.    .---%   ==-===-=#   =   #-=-#  -       ",
"       =====#++%==&$$   %&==#   ===&.    .===#  %&==+. .+.   =#  *>>-.  >       ",
"       &=&&+    @$$$$.  $$$&@   &&&&.    +$$&@  $&$$+         >+  *.   ;;       ",
"       $$$$.     $$$$@  @$$$@   $$$$.    .$$$@  @$$$$@        *,*     ;;        ",
"       $$$$.     $$$$@  $$$$@   $$$$.    +$$$@   $$$$$$$        ;;;;;';         ",
"       $$$$.     $$$$@  @$$$@   $$$$.    .$$$@    &&&&&&&@        ;;;           ",
"       $$$$.     $$$$@  $$$$@   $$$$.     &&&@     @&=====%                     ",
"       $$$$.     $$$$+  @$&$@   &&&&.    @===#      ++%=-==                     ",
"       $$$$.    @&&&&.  %&&&@   &===+    ====#        +=--=                     ",
"       &&&&%@  %&&&%&.  %===#   &==-%##%=----#         =>>*                     ",
"       &&&&===&=====.   %=-=#    ----=------>#   %>-***>,>#                     ",
"       ====%&-----%+    =->-#    =->>>>-+#>,,*   ->,,,,,>#.                     ",
"       =--=++##%#+.      =**+     +#**#+ .-**#   +#*****+                       ",
"       ----.                                                                    ",
"       ->>-.                                                                    ",
"       >>>,.                                                                    ",
"       >,,>.                                                                    ",
"       >,;#                                                                     ",
"       >*.                                                                      ",
"                                                                                ",
"                                                                                ",
"                                                                                ",
"                                                                                ",
"                                                                                ",
"                                                                                ",
"                                                                                ",
"                                                                                ",
"                                                                                ",
"                                                                                ",
"                                                                                ",
"                                                                                ",
"                                                                                ",
"                                                                                ",
"                                                                                ",
"                                                                                ",
"                                                                                ",
"                                                                                ",
"                                                                                ",
"                                                                                ",
"                                                                                ",
"                                                                                ",
"                                                                                ",
"                                                                                ",
"                                                                                ",
"                                                                                "};
