/* XPM */
static char * EinsExtra_xpm[] = {
"80 80 15 1",
" 	c None",
".	c #000000",
"+	c #0E4AA5",
"@	c #0A61E5",
"#	c #4085EC",
"$	c #7D8187",
"%	c #71A4F0",
"&	c #B2B3B5",
"*	c #9DC0F4",
"=	c #C6C7C8",
"-	c #C0D5F5",
";	c #D9D9D8",
">	c #E4E6E9",
",	c #F1F2F2",
"'	c #FEFEFE",
"                                                                                ",
"                                                                                ",
"                                                                                ",
"                                                                                ",
"                                                                                ",
"                                                                                ",
"                                                                                ",
"                                                                                ",
"                                                                                ",
"                                                                                ",
"                                                                                ",
"                                                                                ",
"                                                                                ",
"                                               ,                                ",
"                                             &>'&                               ",
"                                           >,',,&                               ",
"                                        >>,',,,'$                               ",
"                                      ,,',,,,,,'&                               ",
"                                   =,,,',',,,,,'$                               ",
"                                >>'''''',,,,,,,,&                               ",
"                              ,,''''',,,,,,,>>>'$                               ",
"                           >'''''''',',,,,,,>,>'$                               ",
"                        >,'''''''',',,,,,>,>>>>,&                               ",
"                      >,''''''''',',,,,,,,>>>>;,$                               ",
"                   ;,,'''''''''''',,,,,,>>>;;;;,$                               ",
"                  &'''''''''''',,,,,,,>>>;;;;>;,$                               ",
"                  &'''''''''''''',,,,,>>;;>;;;;,$                               ",
"                  &''''''''''',,,,,,>>>;;;;;;;=*%                               ",
"                  &''''''''>>,,,,,,>,>;;;;;******%%%#+                          ",
"                  &''''',=$$&,,,,>,>>;;;;-*********%%%#@                        ",
"                  &'',>=$   $',,,>>>;;;;*%%*--****%%%%##@                       ",
"                  &'>&$     $',,>>>;;;;*%**-***---*%%####@+                     ",
"                   &        $',>,>;;;;*%%******-'',%####@@@                     ",
"                            $',>>;;;;=%#%****%*''''%###@@@@@                    ",
"                            $'>>;;;;;%##%%*%%%*,'''%##@@@@@@@                   ",
"                            $';;;;;;-###%%%%%%*>'''%#@@@@@@@@                   ",
"                            $,;;;;;=%####%%%%%%,'''%@@@@@@@@@@                  ",
"                            $>;;;=;=####@#####%>'''#+@@@@@@@@@                  ",
"                            $>=;=;;*#@@@####%#*>'',%#@#@#@@@@@                  ",
"                            $>;=;==*@@##***-*--,''';******#@@@+                 ",
"                            $>===;=&@@#*''''''''''''''''''>#@@+                 ",
"                            $;;====%@@#-''''''''''''''''''>%+@.                 ",
"                            $>=====*@@@*'''''''''''''''''';#@@+                 ",
"                            $;=====&@@@#******-,'''-=*=**&%++@+                 ",
"                            $;=====&@@@@+@++++%;'''%+++++++++@                  ",
"                            $;==&==&#@@@@+@@++#>'',$+++++++@++                  ",
"                            $;&==&=&%@@@@@@+@+#-'''#++++++++@+                  ",
"                            $;=&&=&&&#@@+@+@++#>'''$+++++++++                   ",
"                            $=&=&&&=&&@@@+@++@$>'''#+++++++@+                   ",
"                            $=&&&&&&&&#+@++@++#-'',$++++++++                    ",
"                            $;&&&&=&$$ +@@+++++*'';++++++++                     ",
"                            $=&=&&$     +@@+++++$$++++++++                      ",
"                            $;&$$        ++@+++++++++++++                       ",
"                             $             ++++++++++++.                        ",
"                                             ++++++++                           ",
"                                                                                ",
"                                                                                ",
"                  .....   .     .   .......  .....       ..                     ",
"                 ......   ..   ...  .......  ......     ....                    ",
"                 ..        ..  ..     ..     ..  ..     ....                    ",
"                 ..        .....      ..     ..   .     ....                    ",
"                 .....      ...       ..     ......    ..  ..                   ",
"                 ......     ...       ..     .....     ..  ..                   ",
"                 ..         ....      ..     ....      ..  ..                   ",
"                 ..        .. ...     ..     .....    ........                  ",
"                 ...      ..   ..     ..     ..  ..   ..    ..                  ",
"                 ......   ..    ..    ..     ..  ..   .      .                  ",
"                                                                                ",
"                                                                                ",
"                                                                                ",
"                                                                                ",
"                                                                                ",
"                                                                                ",
"                                                                                ",
"                                                                                ",
"                                                                                ",
"                                                                                ",
"                                                                                ",
"                                                                                ",
"                                                                                "};
