/* XPM */
static char * Escales_xpm[] = {
"80 80 15 1",
" 	c None",
".	c #1462A7",
"+	c #784E78",
"@	c #207ED2",
"#	c #5385B0",
"$	c #20B15C",
"%	c #4CA0EC",
"&	c #B57DAA",
"*	c #EF894D",
"=	c #87AFCA",
"-	c #70D0AF",
";	c #D3AFA3",
">	c #DEC8B9",
",	c #BCD5E6",
"'	c #EFF9FA",
"                                                                                ",
"                                                                                ",
"                                                                                ",
"                                                                                ",
"                                                                                ",
"                                                                                ",
"                                                                                ",
"                                                                                ",
"                                                                                ",
"                                                                                ",
"                                                                                ",
"                                                                                ",
"                                                                                ",
"                                                                                ",
"                                                                                ",
"                                                                                ",
"                                                                                ",
"                                                                                ",
"                                                                                ",
"                                                                                ",
"                                                                                ",
"                                                                                ",
"                                                                                ",
"                                                                                ",
"                              + ++++++++.++.++++.++++++++++ +                   ",
"          ++++++#+##%##@###@#@@%@%#@@@@@@@@@@@@@@@%@%%%%%#%%@@@@.@..#@####++    ",
"    #+#.@.@.@@@@@@%@%%%%%%%%%=%%=%%=%%%%=%%%%%%%=%==%%@.@%@%@@@@@.@.@@@@@%%@#   ",
"   @@@@@@@@@@@@%%%%%%%%%%%%%%%%=%=%%%%%%%%%%=%=%%%%%@.#==@@@%@@@@@@@@@@@@%%%#   ",
"   #%%%%%%%%%%%%%%%%%%%%%%%%@%%%%%%%%@@@@.@@@@%@%@@@.='''=@@%%@%@@@@@@@@@@%%#   ",
"  +@%%%%%%%%%%%%%%%%%%%@@@.@@.@.@@@@@@@@@@@.@@@@@@@.#',,'#@%%%%%%%%%%%%%%%%%@   ",
"  +@@@@@@@@%@%%%%%%%%%%@@@@@@@@@@@@@@%@@@@@@@.@.@..#',=',#@%%%%%%%%%%@%%%%%%#   ",
"  +@@%@%%%%@%%@%%%%@%@@@@@@@@@@@%@%%@%%%%%%%@%@@@.@''=>'=.@%%%@@@@@.@@@@@@@@.   ",
"  +%%%%%%%@%@@@@.@....@@@@@@@@@@@@@@@@@%%%%=%%%%@.,'=='=.@%%%%%@@@@@@@@@@@@@@   ",
"  +@@@@@@.@@@.@.@....@..@@@@@@@@@@@@@@@@@%%%%%%%.=',=',..@@@@@@@@@@@@@@@%@%@@   ",
"  +..........@...#@.......@.@@@.@...@@@@@..@@@%.#,';',#.@..#...@@@.@@@@@@@@@#   ",
"  +.......@@@..=,''#.@.##.@@@@@@..%##.@..@#@..@.=''''#.@.#,',=.@..@.@@@@@@@..   ",
"  +..........#,''''%..#,',.@%@..=''',...=''',@..''''%...=',=',..#,,@.@@@...@+   ",
"  +.....@.@.@'',=',...,'''#.@.#,''=#@.#,'''''#.#'''=...#',=>'%.#''',.@@.@.@.+   ",
"  +...@.@@.@,';#',...=',=',..#'',....@'',#''=..,''=....,',''#.#,',''@..@@...    ",
"  +@@@@%@@.=',=',...=',#.''#.,',.....,',#=''#.#''=.....''''#.#,'=.,'=.@@@.@@+   ",
"  +@%%%@@.@''''=...#',#..='==',#....,'>#,'',.#,''.....='',@.#,'=..=',..@@@@.    ",
"  +@@@@@..='',=...#'''=..#'','=...#,'',,''',#,'',....='',..#'''=...''....@.@+   ",
"  +.@..@=,'',....,''''#..=''''#.#,'''''',''>'''',..=''''>#,''''=..#''#......    ",
"  +.....,',',#.=,',#'',==,',,',''',''''##''''=#''''''=#''''=#'';##=',#......+   ",
"  +.......#,','''#..=,'''',##''',#.='=...#,,#..#,''=#..=',#..#,'''''#.......    ",
"  +@........=,=#......##%#....##.................#......@......#==#.......@.    ",
"  +.....................................................................@..@    ",
"  +...#######..#............#...#######..####@#..####=###.#######.####=#=@@@+   ",
"  +..=-------#;;;&;;;#.=>>>;;>=#==----=#=,,==,-,#,&&&&&,##'>>>>>,.=>;;;;;=@@    ",
"  +..=$$$$$$-#&      =.;******;#-$.$$.-##-%%%%%-#&+++ +;##>;;;;;>#=&*** *;@.+   ",
"  +..--$$$$--#;     &#.,*****>=##.$.$$-#=-%%%%%=#&&+&&&,##>>>>>>,+,&*****=@.    ",
"   ..=-------.,>;&+&;#.=>;;>>>=.=-=-===##,%--,-=#==&&&==###=&#&##.#=;;;;>=..+   ",
"   ......$.#...#####........#..............@..........................@...@.    ",
"   ........................................................................+    ",
"    .+.++++++++++++++++++++ + +                                                 ",
"                                                                                ",
"                                                                                ",
"                                                                                ",
"                                                                                ",
"                                                                                ",
"                                                                                ",
"                                                                                ",
"                                                                                ",
"                                                                                ",
"                                                                                ",
"                                                                                ",
"                                                                                ",
"                                                                                ",
"                                                                                ",
"                                                                                ",
"                                                                                ",
"                                                                                ",
"                                                                                ",
"                                                                                ",
"                                                                                ",
"                                                                                ",
"                                                                                ",
"                                                                                ",
"                                                                                ",
"                                                                                "};
