/* XPM */
static char * EURONEWS_xpm[] = {
"80 80 16 1",
" 	c None",
".	c #053EB7",
"+	c #014BD1",
"@	c #0249DA",
"#	c #294897",
"$	c #433B9F",
"%	c #593A7A",
"&	c #1B50C0",
"*	c #3560B8",
"=	c #4D6EAA",
"-	c #5A7EC1",
";	c #7091C8",
">	c #819EC1",
",	c #A1BAE2",
"'	c #CBDEEF",
")	c #F8FCFD",
"                                                                                ",
"                                                                                ",
"                                                                                ",
"                                                                                ",
"                                                                                ",
"                                                                                ",
"                                                                                ",
"                                                                                ",
"                                                                                ",
"                                                                                ",
"                                                                                ",
"                                                                                ",
"                                                                                ",
"                                                                                ",
"                                                                                ",
"                                                                                ",
"                                                                                ",
"                                                                                ",
"                                                                                ",
"                                                                                ",
"                                                                                ",
"                                                                                ",
"                                                                                ",
"                                                                                ",
"                                                                                ",
"                                                                                ",
"                                                                                ",
"                                                                                ",
"                                                                                ",
"   %$$$$$$$$$$$$$$$$$$$$$$$$$$$$$$$$$$$$$$##$$$$$#$$$$$$$$$$$$$$$$$$$$$$$$$$%   ",
"   #@@@@++++++++@@++++@@@++@@+++++++++++@@+++++++++@@+++++@++@@++@@+@+@@++++$   ",
"   #+@@@+++@@@++++@@@+@@@+@@++++@@@@++++@@@@@@@+@@@+++@@@@@+++@++@++++++@@@@#   ",
"   #++@++++@++@+++@@@+++@+@@++++@+@@++++@@@+@@@+@@@++++@@@@++@@@+@++@++@@@+@#   ",
"   #+@@&*&&&*&&@+++@@@+++@@@+@@@@@+@@@+*&&+++&&&+@@+++@@@++@@@@@@@@@@+@@@@++#   ",
"   #@@&'))))))>.@+@@+++++@@+@@@++++++.*)),&.&');.++@+@++++++@+@@@@++++@@@@++#   ",
"   #@@&')))')'>.@@@++++++@@+@+@++++++.*)));.&');@@++@@@@++++++++++@+++@@@+++#   ",
"   #++&'))-***&@&&+.&&@@.&&..++..&..+@*)))'##')-@@..&..@&&&++.&+.&&++.&..++@%   ",
"   #++&'))*...+-,,*-,,*&,,;-,*.-,',*..*))))>#');..-,,,*.-,,&*',&*,;.-,',*.@@$   ",
"   #+@&')),>;&.>))*;));*)))))=;))'))=.*))))'=');.-))')'#;))=;))-;)>-))')'*++$   ",
"   #+@&')))))*@;))*;))-#))),>-)),#')'#*))')),');#')>#')>*))-,))>,)%')'#;>*++%   ",
"   #+@&')),>>&@>))*;))-*'),#.-))>.,)'**))=>))))-=)),=')'#'),')),''#>))'>#.+@#   ",
"   #+@&'))*..+.>))#;))-*))>..-));.,))=*))=*))))-;))))'),#,))),))),#&>'))'*.@#   ",
"   #+@&'))=.&..>))$;))-*'),..-));#,)'#*))=.,)))-=))>##=#.;)))=)));.#==>))>.@$   ",
"   #+.&')),,,,-;)),'))-*)),.@&')'=)),.*))-.*'));#')'=>)-.=)),*'))*.,)>=));.+%   ",
"   #++&'))))))>=))''))-&)),.@.-')))'*.*))-..>));.*')))'*.&')>#,)'#.-'))),&++%   ",
"   #@++;>;>>>>*+-;**;>*&;>=.@@.&->-&.@&>>&@+&;>*@.&;;-..++->*.*>-++.*;>=&.@@$   ",
"   #+++.......++...+..++..@+++++...+@+...+@@@..+@++...@@++..+@...@@@+..+++++%   ",
"   #@@@++++++@++@++++++@+@@@++@++++@@@+@@+++++++@@+@@++@@+@+++@+++@@@@++@@++#   ",
"   #@@@++@@@@+++@@@++++@++@++@@@+@+@@++@@+++++@@@++@@+++@+@@++@+@+++@@@+@@++#   ",
"   #+@+++@+++++++++++++++++++++++++++++++++++++++++++++++++++++@+++++@@+++@+#   ",
"   %$$$$$$$$$$$$$$$$$$$$$$$$$$$$$$$$$$$$$$$$$$$$$$$$$$$$$$$$$$$$$$$$$$$$$$$$%   ",
"                                                                                ",
"                                                                                ",
"                                                                                ",
"                                                                                ",
"                                                                                ",
"                                                                                ",
"                                                                                ",
"                                                                                ",
"                                                                                ",
"                                                                                ",
"                                                                                ",
"                                                                                ",
"                                                                                ",
"                                                                                ",
"                                                                                ",
"                                                                                ",
"                                                                                ",
"                                                                                ",
"                                                                                ",
"                                                                                ",
"                                                                                ",
"                                                                                ",
"                                                                                ",
"                                                                                ",
"                                                                                ",
"                                                                                ",
"                                                                                ",
"                                                                                ",
"                                                                                "};
