/* XPM */
static char * France 3_xpm[] = {
"80 80 10 1",
" 	c None",
".	c #0B6FA9",
"+	c #0579BB",
"@	c #376B97",
"#	c #418CB9",
"$	c #71B1D6",
"%	c #98CCE5",
"&	c #B5DEEE",
"*	c #D0EEF9",
"=	c #FCFEFC",
"                                                                                ",
"                                                                                ",
"                                                         #+#                    ",
"                                                   ##@++...+@                   ",
"                                               ##@#...++++++                    ",
"                                           #+++..+++++++++++@                   ",
"                                      ##+.+..+++++++++++++++                    ",
"                                  #@...+++++++++++++++++++++@                   ",
"                             @#@++++++++++++++++++++++++++++                    ",
"                         #@+.+.+++++++++++++++++++++++++++++@                   ",
"                   ##+++++++++++++++++++++++++++++++++++++++                    ",
"                 #...+++++++.@++++++++++++++++++++++.+++++++@                   ",
"                 ++++++++++++ %+...++...+++.+.+++.+.+++..+++@                   ",
"                 ++++++++++.#=%+.@#+.###...@##....##..@@##.+@                   ",
"                 ++++.++++++$=$.$%%$#%%%$.$%%&$.#%&&$.#%%%$+                    ",
"                 ++++++++++.#*$.%&$+#$#&%.%&#%&@%%#$$+&&#%&+@                   ",
"                 +++++++++++#*@.%%..$%$&%.$&.$&.%$...#&&$%%+@                   ",
"                 ++++++++++.#*$.%&.@%&# &.%&.%&@%%@#$#%&#$$+@                   ",
"                 ++++.+++.++#&#.%%..$&%%&.%%.$%.#%&&%.#&%%$+                    ",
"                 +++++++.++++#...#+..##@#+@@+##..###..@###++@                   ",
"                 ++++++++++++.++.++++++.+++.++.++++.+++.++++@                   ",
"                 ++++++++++++..+..+++....+..++..+...+......+@                   ",
"                 ++++.+++++++#####+#+##+#+##+#+#+#+#+#+####+                    ",
"                 +++++++++..#&*&&****&&****&*******&****&***                    ",
"                 ++++++++..+#===============================                    ",
"                 ++++++++++.#===============================                    ",
"                 ++++.+++++.#===============================                    ",
"                 ++++++++++.#===============================                    ",
"                 ++++++++++.#===============================                    ",
"                 +++++++.++.#===============================                    ",
"                 +++++++.++.#===============================                    ",
"                 ++++.+++++.#===============================                    ",
"                 +++++++.+++#%% %% % % % % %$ &===========*%                    ",
"                 +++++++++++....@..........@@ *==========*$.                    ",
"                 ++++++++++++.........+++...$*==========&#..@                   ",
"                 ++++++++++++++++++++++++.@%*=========*%@.++@                   ",
"                 ++++.+++++++++++++++++..#&===========$@.+++                    ",
"                 +++++++++++++++++.+++..$*==========*#.+++++@                   ",
"                 +++++++.++++++++.++..@%===========%@.++++++                    ",
"                 ++++++++++++++++++..#&===========&@...+++++@                   ",
"                 +++++++++++++++++..$&=============&&$#.@+++@                   ",
"                 +++++++++++++++++.#&=================*%#.++@                   ",
"                 ++++++++++++++++..+%=====*=============*$+.@                   ",
"                 ++++.++++++++++++..#&===================*$.                    ",
"                 ++++++++++++++++++..$====================*#                    ",
"                 ++++++++++.+++++++++. *======*============&                    ",
"                 +++++++.+++++++++++..#&*&$$ $$%*==========*                    ",
"                 ++++.+++++++++++++++++#$.......$*==========                    ",
"                 +++++++++++++++++++++++...++++.@$==========                    ",
"                 +++++++++++++++++++++++++++++++.@*=========                    ",
"                 ++++++++++.+..+.+++++.+++++++++..&=========                    ",
"                 +++++++++.++#.#.#.+#+@+.+++.+++..&=========                    ",
"                 ++++.++++.$&& &&& &&*%@+++++++++.&=========                    ",
"                 +++++++++.$==========*#.+++++++.#&=========                    ",
"                 +++++++++.$==========*#.+++++++.#*=========                    ",
"                 +++++++++.#*==========%..+++++.@$==========                    ",
"                 +++++++++.#&==========*$@......$*==========                    ",
"                 +++++++++..%============%$###$ *==========*                    ",
"                 ++++++++++.#*=============****============%                    ",
"                 +++++++++++.%============================&#                    ",
"                 +++++++.+++.#&==========================*$.@                   ",
"                 ++++.++.++++.#*=========================$+.@                   ",
"                 +++++++.++++..#&*=====================*$.++                    ",
"                 ++++++++.+++++.#$*==================*%#..++@                   ",
"                 +++++++++.++++++.#$&==============& #...+++@                   ",
"                 +++++..+.+++++++...@#$$%%&&%&%%$$#+..++++++@                   ",
"                 .+++++.++++.++++++++.....@.@@.....+++++++++                    ",
"                 ..+++++++++++++.+.+.++....+.+.+++++++++++++@                   ",
"                 #...++++++++++++++++++++++.++++++++++++++++@                   ",
"                   ##+..++++++++++++++++++++++++++++++++++++@                   ",
"                        ##@....+++++++++++++++..+.++++++++++@                   ",
"                             @@++++++++++++.+.++..++++++++++@                   ",
"                                  @#.+.++++++++++++++.+++.++                    ",
"                                      ##+.++++++++++++++++++@                   ",
"                                          $#++++++++++++++++@                   ",
"                                               ##@.+++.+++++@                   ",
"                                                   #@#....+.@                   ",
"                                                          @#                    ",
"                                                                                ",
"                                                                                "};
