/* XPM */
static char * Game One_xpm[] = {
"80 80 15 1",
" 	c None",
".	c #B70028",
"+	c #BB0031",
"@	c #873260",
"#	c #BA2249",
"$	c #BB4363",
"%	c #994D94",
"&	c #CB5B78",
"*	c #D78199",
"=	c #F896B6",
"-	c #E6A1B5",
";	c #E8B1C3",
">	c #F0D4DD",
",	c #F9EFF4",
"'	c #FFFFFF",
"                                                                                ",
"                                                                                ",
"                                                                                ",
"                                                                                ",
"                                                                                ",
"                                                                                ",
"                                                                                ",
"                                                                                ",
"                                                                                ",
"                                                                                ",
"                                                                                ",
"                                                                                ",
"                                                                                ",
"                                                                                ",
"                %%%%%%%%%%%%%%%%%%%%%%%%%%%%%%%%%%%%%%%%%%%%%%%%%%%%%%%%%%%%    ",
"              @#...........................................................#    ",
"            $+..++++++++++++++++++++++++++++++++++++++++++++++++++++++++++.#    ",
"           #.+++++++++++++++++++++++++++++++++++++++++++++++++++++++++++++.#    ",
"          #.++++++++++++++++++++++++++++++++++++++++++++++++++++++++++++++.#    ",
"         #..+++++++++++......+..+..+..+..+..+..+..+.+......+++++++++++++++.#    ",
"        #.+++++++++++.+#$&**-*-*-*-*-*-*-*-*-*-*-*-*-***$$+..+++++++++++++.#    ",
"       %.++++++++++.#&;>,'''''''''''''''''''''''''''''',,,;*#..+++++++++++.#    ",
"       #.++++++++.#&>''''''''''''''''''''''''''''''''''''''',*#.++++++++++.#    ",
"      %.++++++++.#;'''''''''''''''''''''''''''''''''''''''''''>$.+++++++++.#    ",
"      #.+++++++.#>''''''''''''''''''''''''''''''''''''''''''''',&.++++++++.#    ",
"      .+++++++.#>''''''''''''''''''''''''''''''''''''''''''''''',$.+++++++.#    ",
"     %.+++++++.-'''''''''''''''''''''''''''''''''''''''''''''''''>#.++++++.#    ",
"     $.++++++.&,''''''''''',,>>>>>>>>>>>>>>>>>>>>>>>,,''''''''''''*.++++++.#    ",
"     $.+++++++;'''''''''';*&###+##+##+##+##+##+##+###$&-,'''''''''>#.+++++.#    ",
"     #.+++++.$,''''''''>&....+.+.................+..+...$-'''''''''*.+++++.#    ",
"     #.+++++.*''''''''>#..+++++++++++++++++++++++++++++...-'''''''';.+++++.#    ",
"     #+++++++>''''''',$.+++++++++++++++++++++++++++++++++.+;'''''''>#+++++.#    ",
"     #.++++.#>'''''''-..++++++.....................++++++..&''''''',$.++++.#    ",
"     #+++++.#,'''''''&.++++++#$$$$$$$$$$$$$$$$$$$$$#++++++.#>'''''''&+++++.#    ",
"     #.+++++$,'''''',#.+++++.*,,,,,,,,,,,,,,,,,,,,,*.+++++.#;'''''''*.++++.#    ",
"     #.++++.&,''''''>#++++++.*'''''''''''''''''''''*.+++++++;'''''''*.++++.#    ",
"     #.++++.&'''''''>#.++++..*'''''''''''''''''''''&.+++++++;'''''''*.++++.#    ",
"     #+++++.&,''''''>#++++++.*'''''''''''''''''''''&.+++++++;'''''''*.++++.#    ",
"     #.++++.&,''''''>#.++++..*'''''''''''''''''''',#.+++++++;'''''''*.++++.#    ",
"     #+++++.&,''''''>#++++++.*''''''''''''''''''''>#++++++++;'''''''*.++++.#    ",
"     #.+++..&'''''''>#.++++..*'''''''''''''''''''';+++++++.+;'''''''*.++++.#    ",
"     $.++++.&,''''''>#++++++.#&&&&&&&&&&*,''''''''*+++++++++;'''''''*.++++.#    ",
"     #.++++.&,''''''>#.++++++...........$,''''''',&.++++++++;'''''''*.++++.#    ",
"     #.++++.&,''''''>#+++++++++++.++.+..-''''''''>#.++++++++;'''''''*.++++.#    ",
"     #.+++..&'''''''>#.++++++++++++++..&,''''''''=.+++++++.+;'''''''*.++++.#    ",
"     #+++++.&,''''''>#...............#*,'''''''',$.+++++++++;'''''''*.++++.#    ",
"     #.++++.&,'''''',*&*&**&**&**&**->''''''''''-.++++++++++;'''''''*.++++.#    ",
"     #+++++.&,'''''''''''','','',''''''''''''''>#.++++++++++;'''''''*.++++.#    ",
"     #.+++..&''''''''''''''''''''''''''''''''',$.+++++++++++;'''''''*.++++.#    ",
"     #.++++.&,'''''''''''''''''''''''''''''''>&.++++++++++++;'''''''*.++++.#    ",
"     #.++++.&,'''''''''''''''''''''''''''''';$.+++++++++++++;'''''''*.++++.#    ",
"     $.++++.&,'''''''''''''''''''''''''''',*#.++++++++++++.+;'''''''*.++++.#    ",
"     #.++++.&'''''''''''''''''''''''''',>*$..+++++++++++++++;'''''''*.++++.#    ",
"     #.++++.#------------------------**$#...++++++++++++++++*;--;--;&+++++.#    ",
"     #.++++++..............................+++++........++++..+.....++++++.#    ",
"     #+++++++.#$$$$#.#$$$$#.#$$##$$$.+$$$$$#.++.#$$$$$$#.+++##.#$$$$#+++++.#    ",
"     #.++++++*;====&&;===;*$;=;>;=;>#*;====#.+.#=;==;-=;$.++*&&;====&.++++.@    ",
"     #+++++.$;$#@@#$>$@#@*--&#$>&#@;*;@@#@##++.-*##.$;->;&..=-;%@#@@++++++.%    ",
"     #.++++.&*.$-;-->;;-->;;+.#;#.#;;>--;;-$..#;$...#-=*$>*.*;>-;-;;&.++++.     ",
"     #.++++.&=.+$$;>-$$$$*;;#.#;#.#;;*#$#$#+++#;$...$;-&.#-;;;;$#$#$#++++.#     ",
"     #.++++.&>****-**....*;;#.#=#.#;;;&****#..#;=***;&**..#*>;;*****$.+++.      ",
"     $.++++.#*****##&..+.#&&+.#&+++&&******#++.&****&.$$.+..&&******$+++.$      ",
"     #.++++++.....+..+++++..+++.+++...+....++++......+++++++.......++++.#       ",
"     #.+++++++++++++++++++++++++++++++++++++++++++++++++++++++++++++++.#        ",
"     #.+++++++++++++++++++++++++++++++++++++++++++++++++++++++++++++..$         ",
"     #++++++++++++++++++++++++++++++++++++++++++++++++++++++++++++..#%          ",
"     #...........................................................+#%            ",
"     %@@@@@@@@@@@@@@@@@@@@@@@@@@@@@@@@@@@@@@@@@@@@@@@@@@@@@@@@@%%               ",
"                                                                                ",
"                                                                                ",
"                                                                                ",
"                                                                                ",
"                                                                                ",
"                                                                                ",
"                                                                                ",
"                                                                                ",
"                                                                                ",
"                                                                                ",
"                                                                                ",
"                                                                                "};
