/* XPM */
static char * GigaTV_xpm[] = {
"80 80 15 1",
" 	c None",
".	c #000000",
"+	c #0E6D12",
"@	c #2C8230",
"#	c #1B9321",
"$	c #666C6C",
"%	c #37973B",
"&	c #4CA050",
"*	c #67AE6A",
"=	c #7FBD82",
"-	c #99C99B",
";	c #B7D8B9",
">	c #CEE5CF",
",	c #E7F2E7",
"'	c #FEFEFE",
"                                                                                ",
"                                                                                ",
"                                                                                ",
"                                                                                ",
"                                                                                ",
"                                                                                ",
"                                                                                ",
"                                                                                ",
"                                                                                ",
"                                                                                ",
"                                                                                ",
"                                                                                ",
"                  $     $                    $$$$$$                             ",
"                                                                                ",
"               $             $                      $$                          ",
"                               $$                     $                         ",
"             $                    $                   $                         ",
"            $                       $                                           ",
"            $                                          $                        ",
"                                      $                $                        ",
"                                       $$              $                        ",
"           $                   %&**====**&%   $$$$$$$$$$$$$$                    ",
"           $                 %&*==------==**&@         $                        ",
"           $                %*=-=========-==*%#        $                        ",
"           $              #%*==*===---========&#       $          $             ",
"           $             #&****=*=-;>>>;-====**&##     $            $           ",
"                        #@&****->,,'''',,>>-==**%#     $             $          ",
"                      $@#&*&&=;,''''''''''',;***&%#    $                        ",
"                     &@+@&&&=>'''''''''''''',;*&&&##   $                        ",
"            $    $$   +#%&&=>''''',,;;>,''''',=&&&###                           ",
"            $  $$    #+@%%*>'''''>=&*&*=;,'',=&&&&%##                           ",
"            $$       ++@@&;'''''-*&&&&&&*=,,=&&&%%%##%$                         ",
"           $$$      #++#@='''',=&%%&%&%&%%==&%%%%%%###$                         ",
"           $ $      ++++&;''',=@@%%%%%%%%%%#%%%%%%####%                         ",
"         $   $      ++++=''''-@%@%@%%%%%%%%%%%%#%#%###@                         ",
"                   #++++='''>*@@@@@@@@@@@#@####%######%                         ",
"                   #+++@-'''-@+@@@@%==========*########$                        ",
"                   ++++%;'''=+++++@&>,,,,,,,,,=%#######                         ",
"                   #+++&>'''*+++++#&''''''''''-%#######              $          ",
"                $  ++++@;'''*++++++&,'''''''''-%+######                         ",
"                   #++++-'''-@+++++&>,,,>,,'''-%#######   $         $           ",
"                 $  ++++=''',*+++++@%&%&&%;'''-%#######            $            ",
"                   @++++&,'''-@+++++++++++-'''-%+######    $                    ",
"                   $++++@-''',-@++++++++++-'''-%######     $     $              ",
"                   $@++++$,''',=@++++#+#++-'''-%######          $               ",
"                   $$+++++=,'''';%++++++#-,'''-%+#####       $$                 ",
"                     +++++@-'''''>-*&%*-;,''''-######       $$                  ",
"                  $   +++++@-,''''',;;>,'''''>*#####        $                   ",
"                  $   @+++++@-'''''''''''''';&######     $$                     ",
"                  $    +++++@@=>'''''''''',-%%@####    $$     $                 ",
"                        +++@@@%&=;,'''',>-*&%%%%##  $$                          ",
"                         +++@&%@&*==---=*&&%&&%#@&                              ",
"                 $        #+@@&&&&&&&&&&&&&&&&%%$                               ",
"                 $          @@&&&**********&&%#                                 ",
"         $$      $            @@&*********&&%                                   ",
"            $$$  $             $$@&&&&&&& &$                                    ",
"                 $                       $$                                     ",
"                 $                       $       .....   ..   .....      .      ",
"                 $                      $       .......  ..  .......    ...     ",
"                 $                     $        ..    .  ..  ..    .    ...     ",
"                 $                    $        ..        .. ..         .. ..    ",
"                 $                   $         ..   ...  .. ..   ...   .. ..    ",
"                 $                  $          ..   ...  .. ..    ... .......   ",
"                                   $            ..    .  ..  ..   ..  .......   ",
"                  $              $$             .......  ..  ....... ...   ...  ",
"                   $           $$                 ....         ....   .     .   ",
"                    $                                                           ",
"                     $      $$                                                  ",
"                                                                                ",
"                                                                                ",
"                                                                                ",
"                                                                                ",
"                                                                                ",
"                                                                                ",
"                                                                                ",
"                                                                                ",
"                                                                                ",
"                                                                                ",
"                                                                                ",
"                                                                                "};
