/* XPM */
static char * GoTV_xpm[] = {
"80 80 14 1",
" 	c None",
".	c #285780",
"+	c #2D59B9",
"@	c #2D6A9E",
"#	c #2E6DA1",
"$	c #3571A4",
"%	c #3874A6",
"&	c #3974A6",
"*	c #4079AA",
"=	c #598BB5",
"-	c #759EC1",
";	c #98B6D0",
">	c #C9D9E7",
",	c #FFFFFF",
"                                                                                ",
"                                                                                ",
"                   $&&&&&&&&&&&&&&&&&&&&&&&&&&&&&&&&&&&&&&&&&                   ",
"                  &&&&&&&&&&&&&&&&&&&&&&&&&&&&&&&&&&&&&&&&&&&&$                 ",
"                  &&&&&&&&&&&&&&&&&&&&&&&&&&&&&&&&&&&&&&&&&&&&&                 ",
"                  &&&&&&&&&&&&&&&&&&&&&&&&&&&&&&&&&&&&&&&&&&&&&                 ",
"                  &&&&&&%%%%%%%%%%%%%%%%%%%%%%%%%%%%%%%%%%&&&&&                 ",
"                  &&&&&$$$$$$$$$$$$$$$$$$$$$$$$$$$$$$$$$$$&&&&&                 ",
"                  &&&&$=>>>>>>>>>>>>>>>>>>>>>>>>>>>>>>>>>;&%&&&                 ",
"                  &&&&#;,,,,,,,,,,,,,,,,,,,,,,,,,,,,,,,,,,*$&&&                 ",
"                  &&&&#;,,,,,,,,,,,,,,,,,,,,,,,,,,,,,,,,,>*$&&&                 ",
"                  &&&&#;,,,,,,,,,,,,,,,,,,,,,,,,,,,,,,,,,>*$&&&                 ",
"                  &&&&#;,,,,,,,,,,,,,,,,,,,,,,,,,,,,,,,,,>*$&&&                 ",
"                  &&&&#;,,,,,,,>-;,,,,,,,,,,,,,>->,,,,,,,>*$&&&                 ",
"                  &&&&#;,,,,,,;*@=,,,,,,,,,,,,,=@&;>,,,,,>*$&&&                 ",
"                  &&&&#;,,,,;=#$%%>,,,,,,,,,,,;#&$#*->,,,>*$&&&                 ",
"                  &&&&#;,,;=@$&&&#=,,,,,,,,,,,=@&&&$@&;>,>*$&&&                 ",
"                  &&&&#;,;@$&&&%#$=>,,,,,,,,,,;=#$&&&%@=,>*$&&&                 ",
"                  &&&&#;,>$%&$#$->,,,,,,,,,,,,,,;=@$%&@-,>*$&&&                 ",
"                  &&&&#;,,=##*->,,,,,,,,,,,,,,,,,,;=$@=>,>*$&&&                 ",
"                  &&&&#;,,>=;,,,,,,,,,,,,,,,,,,,,,,,>=>,,>*$&&&                 ",
"                  &&&&#;,,,,,,,,,,,,,,,,,,,,,,,,,,,,,,,,,>*$&&&                 ",
"                  &&&&#;,,,,,,,,,,,,,,,,,,,,,,,,,,,,,,,,,>*$&&&                 ",
"                  &&&&#;,,,,,,,,,,,,,,,,,,,,,,,,,,,,,,,,,>*$&&&                 ",
"                  &&&&#;,,,,,,,,,,,,,,,,,,,,,,,,,,,,,,,,,>*$&&&                 ",
"                  &&&&#;,,,,,,,,,,>,,,,,,,,,,,,,,,,,,,,,,>*$&&&                 ",
"                  &&&&#;,,,,,,,,,>*->,,,,,,>;=;,,,,,,,,,,>*$&&&                 ",
"                  &&&&#;,,,,,,,,,;@#$*;,,,-*##*>,,,,,,,,,>*$&&&                 ",
"                  &&&&#;,,,,,,,,>*$&%$#=;=@$&&#-,,,,,,,,,>*$&&&                 ",
"                  &&&&#;,,,,,,,,,-@$&&&$@$&&&%#%>,,,,,,,,>*$&&&                 ",
"                  &&&&#;,,,,,,,,,,;*#$&&&&&%##*;,,,,,,,,,>*$&&&                 ",
"                  &&&&#;,,,,,,,,,,,,;=$&&&%&->,,,,,,,,,,,,*$&&&                 ",
"                  &&&&$->>>>>>>>>>>>>;&%&&$=>>>;;;;;;;;;;;&%&&&                 ",
"                  &&&&&$$$$$$$$$$$$$$&&&&&&&$#############&&&&&                 ",
"                  &&&&&&%%%%%%%%%%%%%%&&&&&%%%%%%%%%&&&&&&&&&&&                 ",
"                  &&&&&&&&&&&&&&&&&&&&&&&&&&&&&&&&&&&&&&&&&&&&&                 ",
"                  &&&&&&&&&&&&&&&&&&&&&&&&&&&&&&&&&&&&&&&&&&&&&                 ",
"                   &%%%%%%%%%%%%%%%%%%%%%%%%%%%%%$$$%%%%%%%%%%                  ",
"                                                                                ",
"                                                                                ",
"                                                ,,,,                            ",
"                                               ,,,,,                            ",
"                                               ,,,,,                            ",
"                                               ,,,,,                            ",
"                                               ,,,,,                            ",
"                                               ,,,,,                            ",
"      %&%%%&%               &%%%$%&%           ,,,,,,         ,,,,          ,,, ",
"   %&&&&&&&&&&&*          %&&&&&&&&&&&         ,,,,,,,,,,,    ,,,,,         ,,,,",
"  &&&&&&&&&&&&&*.        &&&&&&&&&&&&&&@       ,,,,,,,,,,,    ,,,,,        ,,,,,",
" %&&&&&&&&&&&&&&*       &&&&&&&&&&&&&&&*       ,,,,,,,,,,,    ,,,,,        ,,,,,",
" &&&&&%&&&&&&&&&&$      &&&&&&     %&&&&#      ,,,,,,,,,,,     ,,,,,      ,,,,,,",
"&&&&&&       &&&&$     %&&&&$       &&&&&      ,,,,,           ,,,,,      ,,,,, ",
"&&&&&$       %&&&&     %&&&&        %&&&&&     ,,,,,           ,,,,,      ,,,,, ",
"&&&&&         &&&&     %&&&&        %&&&&      ,,,,,            ,,,,      ,,,,  ",
"&&&&&         &&&&     %&&&&        &&&&&      ,,,,,            ,,,,,    ,,,,,  ",
"&&&&&        &&&&&     %&&&&        &&&&&      ,,,,,            ,,,,,    ,,,,,  ",
"&&&&&         &&&&     %&&&&        &&&&&      ,,,,,            ,,,,,,  ,,,,,,  ",
"&&&&&        @&&&&     %&&&&        &&&&&      ,,,,,             ,,,,,  ,,,,,   ",
"&&&&&        &&&&$     %&&&&        &&&&&      ,,,,,             ,,,,,  ,,,,,   ",
"&&&&&%%%%%%%&&&&&$     %&&&&        &&&&&      ,,,,,             ,,,,,  ,,,,,   ",
"&&&&&&&&&&&&&&&&&      %&&&&        &&&&&      ,,,,,              ,,,,,,,,,,    ",
"&&&&&&&&&&&&&&&&&      %&&&&        &&&&&      ,,,,,              ,,,,,,,,,,    ",
"&&&&&&&&&&&&&&&$       %&&&&        %&&&&      ,,,,,              ,,,,,,,,,,    ",
"&&&&&&%%%&&&&%         &&&&&        %&&&&      ,,,,,,              ,,,,,,,,     ",
"&&&&&&&                %&&&&$      %&&&&&       ,,,,,,             ,,,,,,,,     ",
" &&&&&&&&&&&%$          &&&&&&&&&&&&&&&&$       ,,,,,,,,,,         ,,,,,,,      ",
" #&&&&&&&&&&&&&$        %&&&&&&&&&&&&&&$         ,,,,,,,,,          ,,,,,,      ",
"  +&&&&&&&&&&&&&%         &&&&&&&&&&&&            ,,,,,,,,          ,,,,,,      ",
"    %&&&&&&&&&&&&          %&&&&&&&&#               ,,,,,,          ,,,,,,      ",
"       $$$%%&&&&&%                                                              ",
" &&%$        %&&&%                                                              ",
"&&&&&         &&&&                                                              ",
"&&&&*.       @&&&&                                                              ",
"*&&&&@       @&&&%                                                              ",
" $&&&&*&&&&&*&&&&%                                                              ",
"  &&&&&&&&&&&&&&&                                                               ",
"  %&&&&&&&&&&&&%                                                                ",
"    %&&&&&&&&&%                                                                 ",
"                                                                                ",
"                                                                                "};
