/* XPM */
static char * Gourmet Tv_xpm[] = {
"80 80 16 1",
" 	c None",
".	c #243A72",
"+	c #4A608F",
"@	c #AF424A",
"#	c #7487AA",
"$	c #889BB7",
"%	c #DD959B",
"&	c #A4B1C9",
"*	c #B7C7DB",
"=	c #D0CDD5",
"-	c #C8D9EB",
";	c #DBE6F0",
">	c #EDF9FD",
",	c #FCFDF0",
"'	c #FCFDFB",
")	c #FFFFFF",
"                                                                                ",
"                                                                                ",
"                                                                                ",
"                                                                                ",
"                                                                                ",
"                                                                                ",
"                                                                                ",
"                                                                                ",
"                                                                                ",
"                                                                                ",
"                                                                                ",
"                                                                                ",
"                                                                                ",
"                                                                                ",
"                                                                                ",
"                                                                                ",
"))))))))))))))))))))))))))))))))))))))))))))))))))))))))))))))))))))))))))))))))",
"))))))))))))))))))))))))))))))))))))))))))))))))))))))))))))))))))))))))))))))))",
"))))))))))))))))))))))))))))))))))))))))))))))))))))))))))))))))))))))))))))))))",
"))))))))))))))))))))))))))))))))))))))))))))))))))))))))))))))))))))))))))))))))",
"))))))))))))))))))))))))))))))))))))))))))))))))))))))))))))))))))))))))))))))))",
"))))))))))))))))))))))))))))))))))))))))))))))))))))))))))))))))))))))))))))))))",
"))))))))))))))))))))))))))))))))))))))))))))))))))))))))))))))))))))))))))))))))",
"))))))))))))))))))))))))))))))))))))))))))))))))))))))))))))))))))))))))))))))))",
"))))))))))))))))))))))))))))))))))))))))))))))))))))))))))))))))))))))))))))))))",
"))))))))))))))))))))))))))))))))))))))))))))))))))))))))))))))))))))))))))))))))",
"))))))))))))))))))))))))))))))))))))))))))))))))))))))))))))))))))))))))))))))))",
"))))))))))))))))))))))))))))))))))))))))))))))))))))))))))))))))))))))))))))))))",
"))))))))))))))))))))))))))))))))))))))))))))))))))))))))))))))))))))))))')))))))",
",')',,')';-*-;))',,'))')')')'))))))))))))))))))))'''''''''))))''))'');$+++*>,,))",
"''',,))*+.....+*))','''''''')))))))))))))))))))))''''''''''')))'''''=.+**$.#>'))",
")'',';#.+*-;-&+.+>)')))))))))))))))))))))))))))))')')')')'''))'',)';.&)))';+#)))",
"'''';..*>'''))'=.+;)))))))))))))))))))))))))))))))))))))))'))))''')$+=%%%,%&.>))",
"'''>+.>'>,,,,,,';.+>))))'))))))))))))))))))))))))))))))))))')))''>>+*=@@@%@;+*))",
"'''$.-',,'''''',)=$>)''''')''')')')')''))))))''))'')')))))')')',''>+&)@=@@%)+&))",
"''>.#),''''''''''')')))))))))))'))''')))'))'))))))))))'))),''',,,''##)@=;@=;+-))",
"''*.-)''''''''))''''''''))''))))'))'')'''''')')'))')''')')''')'''')*.;,,,,'#+>))",
"')$.>)''''''))))))'))'')))))''))'''')))))))'')))''))'')))))''')))))'#.*;>;#.-'))",
"')#+''''>,');;;;;;;;'''&#+$;)'=&''';$>=#$*')';-'''';-);$$$#**#$$#&>')$+++.+;)'))",
"')#+>'''','>#......+>>+.##+.-)#.'')=.>+.+.#')&+)'')#$)-.+++$&+..+#>'))>=&;))')))",
"')$.;)')''')-*****#+'+.;))>#.;$+',)=.)+#>&.-)$.-,'>.+)*.-)>',)$+>','))))))'')'))",
"));.*),'''')')''>)##*.-)'',>.$$+>')=.>+$)>.=)$.+))&.+'=.*;;>,)#+>,,,))))'')'''))",
"'''++'''')''''''';.&$+',>','$+$+>))=.>#+&++>>++.;>++.>-....$))#+>',''')'''''''))",
"','-.&)'',')'''))$.>#+>,,','$+$+>,)=.>#..+;';.-+$-.-.--.*;-;,)$.>''''))'')')')))",
"',,'$.&)>,,',')'$.&)&.;,,''>+#$+>,'=.>+##+''-.;&++#>+&;.-,),,,$+>))')'''''''))))",
"'',')$.+;>)))>-+.$,'>++;))'#.-*.*))#.'+$>.#)&.>>+.-)+#-.;''',)$.>''))))'''')))))",
"''',',*+.+#$#+.+*',,)-+.##+.*)'+.#+.&)+#)&.*#+)'#+''$.*.+++$')#+>'''))''''')))))",
",''',,'>*#+++$*>''','';&++#;)',>$++*),&&,'&$&&'';*)'-$>####&,'*$','')))'''))))))",
"''))','')'>'))))'''''')''')''''))'))''))>'))')''))'')''''>')',)))'')))))))))))))",
"))))))))))))))))))))))))))))))))))))))))))))))))))))))))))))))))))))))))))))))))",
"))))))))))))))))))))))))))))))))))))))))))))))))))))))))))))))))))))))))))))))))",
"))))))))))))))))))))))))))))))))))))))))))))))))))))))))))))))))))))))))))))))))",
"))))))))))))))))))))))))))))))))))))))))))))))))))))))))))))))))))))))))))))))))",
"))))))))))))))))))))))))))))))))))))))))))))))))))))))))))))))))))))))))))))))))",
"))))))))))))))))))))))))))))))))))))))))))))))))))))))))))))))))))))))))))))))))",
"))))))))))))))))))))))))))))))))))))))))))))))))))))))))))))))))))))))))))))))))",
"))))))))))))))))))))))))))))))))))))))))))))))))))))))))))))))))))))))))))))))))",
"))))))))))))))))))))))))))))))))))))))))))))))))))))))))))))))))))))))))))))))))",
"))))))))))))))))))))))))))))))))))))))))))))))))))))))))))))))))))))))))))))))))",
"))))))))))))))))))))))))))))))))))))))))))))))))))))))))))))))))))))))))))))))))",
"))))))))))))))))))))))))))))))))))))))))))))))))))))))))))))))))))))))))))))))))",
"))))))))))))))))))))))))))))))))))))))))))))))))))))))))))))))))))))))))))))))))",
"))))))))))))))))))))))))))))))))))))))))))))))))))))))))))))))))))))))))))))))))",
"                                                                                ",
"                                                                                ",
"                                                                                ",
"                                                                                ",
"                                                                                ",
"                                                                                ",
"                                                                                ",
"                                                                                ",
"                                                                                ",
"                                                                                ",
"                                                                                ",
"                                                                                ",
"                                                                                ",
"                                                                                ",
"                                                                                ",
"                                                                                ",
"                                                                                "};
