/* XPM */
static char * hr_fernsehen_xpm[] = {
"80 80 15 1",
" 	c None",
".	c #183664",
"+	c #0E3B67",
"@	c #193765",
"#	c #2E2E61",
"$	c #283464",
"%	c #761B5A",
"&	c #27446F",
"*	c #C10552",
"=	c #35507A",
"-	c #425C84",
";	c #556C92",
">	c #CD3C78",
",	c #697FA1",
"'	c #D8709B",
"                                                                                ",
"                                                                                ",
"                                                                                ",
"                                                                                ",
"                                                                                ",
"                                                                                ",
"                                                                                ",
"                                                                                ",
"                                                                                ",
"                                                                                ",
"                                                                                ",
"                                                                                ",
"                                                                                ",
"                                                                                ",
"                                                                                ",
"                                                                                ",
"                                                                                ",
"                       ==&@@@                                    ;,,;;          ",
"                     -;-=&@.@                                   ;;,,,,,;-       ",
"                   -,,;-&@@.                                     ,,-;;,,,-      ",
"    **            -,,;=                                               -;,,-     ",
"    >>*           ,,,-                                                  ;,;=    ",
"    >''*          ,,;        -;;;;-                                     -;,-    ",
"    >''>*        ;,,-       ;;,,,,,                                     -;,-    ",
"    >''''*       ;,;-       ;;,,,,,                                      ;;-    ",
"    >'''''*      -;;=       -;,,,,,                                      ;;-    ",
"    >''''''*     ---&       -;,,,,;                                      -;-    ",
"    >'''''''*    --=&       -;,,,,;                                      -;=    ",
"    >'''''''>>   ==&@       -;,,;,;                                      -;=    ",
"    >''''''''>>  $&&.       --;;;,;                                      --=    ",
"    *'''''''''>**#+@@       --;,;;-                                      =&@    ",
"    >>'''>'>'>'>>%#+@       --;;;;;    &&===&               &=&&@        @@@    ",
"    >>'>>'>'>>'>>>%#@       =-;;;;-   ==-----&    ==---=  &======&       ..@    ",
"    *>>'>>>>'>>>>>*%%       =-;;-;-@&=-;------&   -;;;;-&&=----===&      @@@    ",
"    >>>>>>>>>>>>>>>>*       ==;----&=--=----=-=   =-;;;===--=====&&@     @@@    ",
"    *>>>>>>>>>>>>>>>**      =--------=&&&=-====@  =-;-----=&@&&=&&@@     @@@    ",
"    *>>>>>>>>>>>>>>>>**     ==------&    &=====&  =------&    @@@@@@     @@@    ",
"    **>>>>>>>>>*>***>***    &=---===      &=&&&@  =-----&      ...@@@    @@@    ",
"    *************>*******    ====-=&      @@@@@@  =----=&      @@@@@@    @@@    ",
"    **********************   ======       @@@@@.  ==-==&       @@@@@@    @@@    ",
"    **********************   &====&       @@@@@.  =====&                 @@@    ",
"    *********************    &==&=&       @@@@@.  &====&                 @@@    ",
"    ********************    +&&&&&@       @@@@@.  &&===&                 @@@    ",
"    *******************     +......       @@@@@@  @@&&&@                 @@@    ",
"    ******************      @.....@       @@@@@@  @@@..@                 @@@    ",
"    *****************       @@@..@@       @@@@@@  @@@@@@                 @@@    ",
"    ***************%%       @@@@@@@       @@@@@@  @@@@@@                 @@@    ",
"    **************%$.       @@@@@@@       @@@@@@  @@@@@@                 @@@    ",
"    *************%#+.       @@@@@@@       @@@@@@  @@@@@@                 @@@    ",
"    *************#+..       @@@@@@@       @@@@@@  @@@@@@                 @@@    ",
"    ***********  $+@@       @@@@@@@       @@@@@@  @@@@@@                 @@@    ",
"    **********   @.@@       @@@@@@@       @@@@@@  @@@@@@                 @@@    ",
"    *********    @@@@       @@@@@@@       @@@@@@  @@@@@@                 @@@    ",
"    ********     @@@@       @@@@@@@       @@@@@@  @@@@@@                 @@@    ",
"    *******      @@@@       @@@@@@@       @@@@@@  @@@@@@                 @@@    ",
"    ******       @@@@       @@@@@@@       @@@@@@  @@@@@@                 @@@    ",
"    *****         @@@        @@@@@@       @@@@@@  @@@@@@                @@@@    ",
"    ****          @@@@       @@@@@                 @                    @@@@    ",
"    ***           @@@@                                                 @@@@     ",
"    **             @@@@@                                              @@@@      ",
"                    @@@@@@@@                                     @@@@@@@@       ",
"                     @@@@@@@@                                   @@@@@@@@        ",
"                        @@@@                                     @@@@           ",
"                                                                                ",
"                                                                                ",
"                                                                                ",
"                                                                                ",
"                                                                                ",
"                                                                                ",
"                                                                                ",
"                                                                                ",
"                                                                                ",
"                                                                                ",
"                                                                                ",
"                                                                                ",
"                                                                                ",
"                                                                                ",
"                                                                                ",
"                                                                                ",
"                                                                                "};
