/* XPM */
static char * HSE24_xpm[] = {
"80 80 17 1",
" 	c None",
".	c #7B7C7F",
"+	c #929497",
"@	c #9498A6",
"#	c #AAA9AD",
"$	c #F6C414",
"%	c #C4C4C8",
"&	c #F8D349",
"*	c #F9D964",
"=	c #F9E07F",
"-	c #E2E6E6",
";	c #F9E8A1",
">	c #FBEEBA",
",	c #FEF3D1",
"'	c #FDF9EB",
")	c #FEFAFB",
"!	c #FDFFFC",
"                                                                                ",
"                                                                                ",
"                                                                                ",
"                                                                                ",
"                                                                                ",
"                                                                                ",
"                                                                                ",
"                                                                                ",
"                                                                                ",
"                                                                                ",
"                                                                                ",
"                                                                                ",
"                                                                                ",
"                                                                                ",
"                                                                                ",
"                                                                                ",
"                                                                                ",
"                                                                                ",
"                                                                                ",
"                                                                                ",
"                                                                                ",
"                                                                                ",
"                                                                                ",
"                                                                                ",
"                                                                                ",
"                                                                                ",
"                                                                                ",
"   !!!!!!!!!!!!!!!!!!!!!!!!!!!!!!!!!!!!!!!!!!!!!!!!!!!!!!!!!!!!!!!!!!!!!!!!!!!  ",
"   !!!!!!!!!!!!!!!!!!!!!!!!!!!!!!!!!!!!!!!!!!!!!!!!!!!!!!!!!!!!!!!!!!!!!!!!!)!  ",
"   !!!!!!!!!!!!!!!!!!!!!!!!!!!!!!!!!!!!!!!!!!!!!!!!!!!!!!!!!!!!!!!!!!!!!!!!!!)  ",
"   !!!!!!!!!!!!!!!!,;*;,!!!!!!!!!!!!!!!!!!!!!!!!!!!!!!!!!!!!!!!!!!!!!!!!!!!!!)  ",
"   !!!!!!!!!!!!!!!!=$$$;'!!!!!!!!!!!!!!!!!!!!!!!!!!!!!!!!!!!!!!!!!!!!!!!!!!!!)  ",
"   !!!!!!!!!!!!!!)'&$$$&,!!!!!!!!!!!!!!!!!!!!!!!!!!!!!!!!!!!!!!!!!!!!!!!!!!!!!  ",
"   !!!!!!!!!!!!!!''$$$$&,!!!!!!!!!!!!!!!!!!!!!!!!!!!!!!!!!!!!!!!!!!!!!!!!!!!!)  ",
"   !!!!!!!!!!!!!!!!;&$&>!!!!!!!!!!!!!!!!!!!!!!!!!!!!!!!!!!!!!!!!!!!!!!!!!!!!!!  ",
"   !!!!!!!!!!!!!!!!';**>,'!!!!!--!!!!--!!!!----!!!------!!!!'>>,'!!!!!!!,>'!!)  ",
"   !!!!!!!'>>>>,'',>;=*&&=>!!)-%#-!)-#%-!)%#++%!)-%+###%!!!,=&$*;''!!!!>*&>!!!  ",
"   !!!!!!,=$$$$$*;&$$$&$$$&'!!%..)')%.#-!%....+)!%.....#)!!&$$$$$=!!!!,*$$;)!)  ",
"   !!!!)=$$$$$$$$$&;''''&$$,!)%.+))-#.#)%+.%---!)#.+-%--''!;;',$$*'!!!=$$$>!!!  ",
"   !!!';$$$&=;&$$$$;!!)!&$&')!#.@)!-#.%!%.+)))!!'#.#)!))!!!''''*$&,!);&$$&,!!)  ",
"   !!),&$&=,'>$$&$$&,!!;$$=!))#.%!)-+.-)#.+)))!)!+.#)!!!!!')!!!*$*'''&&*$&,!!!  ",
"   !!'=$$*'!)*$*>*$$=';&$='!!-+.%-)%.+-'%.+-!!!!-+.%))!!!!!!!!'&$=!!*$==$='!!)  ",
"   !!,*$$,!'!$$*,>$$&*$$;'!!!%+.#%%#.+))%+.#-!))%+.#%%-!!!!!!'>$$;),$=>*$;'!!!  ",
"   !!>&$*,!!'&$$$&$$$&*,'!!!!%+......#)!)%..%-!)%.....%)!!!!!,$$=!,&&,>&$>)!!)  ",
"   !!>$$*,!))>&&$&$$&>'!)!!!'#.+%%#+.#!!)-#..%!)#.+%#%)!!!!!,*$&>!=$;)>$$!!!!!  ",
"   !!>&$&,!'!),;;*$$='!!)!!!!#.#)'%++%)!))-+.#))+.#'-))!!!!,=$$>!>$$*=&$$*'!!)  ",
"   !)'=$$;!!!!))'=$$=)!!!!!')+.%)!%++-)!!))%.+-)+.%)!!!!!!'=$$*!'=$$$$$$$$>!!!  ",
"   !!!;$$&>!'!)';$$&,!!!!!!!-.+%!'%.+-!!!!!%.#--.+-!!!!!!';$$=!!)>*=*&$$&*'!!)  ",
"   !!)'*$$$*;>;&$$$;)!!!!!!)%.+-!)#.+!!!!!)+.%)%.+-')!!!!>$$*!!!)'')!>&$;'!!!!  ",
"   !!!!,*$$$$$$$$$;'!!!!!!!!%.#-!'+.#!-#+#+..-!%..@+#%)!,&$$$&&&>!!!!>$$,!!'!)  ",
"   !!!)),=&$$$$$*;!)!!!!!!)!#+%'!)#+%)-+...+%))%+....%)!>$$$$$$$>!!!);&&'!!!!!  ",
"   !!)!!!!,=**=;')!!!!!!!!!!%#-)!)%%-))%%#%-!))%%%%%%-)!'=======,!!!'>=;)!!!!)  ",
"   !!!!!)!!))!)!!!!'!!!!!!)'')!)!!!')!)!!)))!!)')!!')!')!)))))!!!!!!)!)!!!!!!!  ",
"   !!!!!!!!!!!!'!!'!!!!!!!!!!)!!!!!)!!!!!!!'!!!)!!!!!!!!)!!!!!!!'!!!)!!!!!!!!)  ",
"     @@@@@@@@@@@@@@@@@@@@@@@@@@@@@@@@@@@@@@@@+@@@@@@@@@@@@@@@@@@@@@@@@@@@@@@#@  ",
"                                                                                ",
"                                                                                ",
"                                                                                ",
"                                                                                ",
"                                                                                ",
"                                                                                ",
"                                                                                ",
"                                                                                ",
"                                                                                ",
"                                                                                ",
"                                                                                ",
"                                                                                ",
"                                                                                ",
"                                                                                ",
"                                                                                ",
"                                                                                ",
"                                                                                ",
"                                                                                ",
"                                                                                ",
"                                                                                ",
"                                                                                ",
"                                                                                ",
"                                                                                ",
"                                                                                ",
"                                                                                "};
