/* XPM */
static char * IG3XEX~2_xpm[] = {
"80 80 13 1",
" 	c None",
".	c #231F1F",
"+	c #96272C",
"@	c #2C5C98",
"#	c #5C5156",
"$	c #EC1927",
"%	c #D32D3E",
"&	c #B1455E",
"*	c #895482",
"=	c #EA8287",
"-	c #AFAAAB",
";	c #F2C0C0",
">	c #FBFCFC",
"                                                                                ",
"                                                                                ",
"                                                                                ",
"                                                                                ",
"                                                                                ",
"                                                                                ",
"                                                                                ",
"                                                                                ",
"                                                                                ",
"                                                                                ",
"                                                                                ",
"                                                                                ",
"                                                                                ",
"                                                                                ",
"                                                                                ",
"                                                                                ",
"                                                                                ",
"                                                                                ",
"                                                                                ",
"                                                                                ",
"                                                                                ",
"                                                                                ",
"                                                                                ",
"          @#@                                                                   ",
"          @...@                                                                 ",
"           ....#@                                                               ",
"          @.......@                                                             ",
"          @.........@                                                           ",
"   *&&&&&&*...........#*&&&&&&&&&&&&&&&&&&&&&&&&&&&&&&&&&&&&&&&&&&&&&&&&&&&**   ",
"   *$$$$$$+.......#.#...+%$$$$$$$$$$$$$$$$$$$$$$$$$$$$$$$$$$$$$$$$$$$$$$$$$$*   ",
"   *$$$$$$+.......;>>-....+%$$$$$$=;;;;;;;;=$=;;;;;;;;=$=;;=%$$$$%;;;;;;;;=$*   ",
"   *$$$$$$+......#>>>-.....++%$$$$=>>>>>>>>;$=>>>>>>>>;$=>>;%$$$$=>>>>>>>>;$*   ",
"   *$$$$$$+.......>>>-........+%$$=>>>>>>>>=$=>>>>>>>>;%=>>;$$$$$=>>>>>>>>;$*   ",
"   *$$$$$$+.......---*..........+%=-;;>>>-;=$=>>>=;=;-=$=>>;$$$$$=>>>;=-;-=$*   ",
"   *$$$$$$+.......................+$%=>>;$$$$=>>;$$$$$$$=>>;$$$$$=>>;%$$$$$$*   ",
"   *$$$$$$+...#--*-*-#..............+->>;$$$$=>>;%$$$$$$=>>;%$$$$=>>>%$$$$$$*   ",
"   *$$$$$$+...->>>>>>-................->;$$$$=>>;%$$$$$$=>>;$$$$$=>>;%$$$$$$*   ",
"   *$$$$$$+...->>>>>>-..................*%%$$=>>;=====$$=>>;%$$$$=>>>;====$$*   ",
"   *$$$$$$+...->>>>>>-....................+%$=>>>>>>>;%$=>>;$$$$$=>>>>>>>>$$*   ",
"   *$$$$$$%...##.#>>>-....................++$=>>>>>>>;$$=>>;%$$$$=>>>>>>>>%$*   ",
"   *$$$$$$+.......>>>-..................#%$$$=>>>;;;;=%$=>>;$$$$$=>>>;;;;;$$*   ",
"   *$$$$$$+.......>>>-................#;;$$$$=>>;%%%%$$$=>>;$$$$$=>>;&%$%$$$*   ",
"   *$$$$$$+.......>>>-..............+->>;$$$$=>>;$$$$$$%=>>;$$$$$=>>>%$$$$$$*   ",
"   *$$$$$$+......#>>>-............++$=>>;$$$$=>>;$$$$$$$=>>;%$$$$&>>;%$$$$$$*   ",
"   *$$$$$$+.......;>>-..........++%$$=>>;$$$$=>>;=====%$=>>;===&$=>>>======$*   ",
"   *$$$$$$+......#>>>-........++%$$$$;>>;%$$$=>>>>>>>>;$=>>>>>>;%=>>>>>>>>;$*   ",
"   *$$$$$$+.......>>>-......++%$$$$$$=>>;$$$$=>>>>>>>>;%=>>>>>>;$=>>>>>>>>;$*   ",
"   *$$$$$$+.......>>>-....++%$$$$$$$$=>;=%$$$=;;>;;;>;=$=;>;;;>;$&;>;;;>;>;$*   ",
"   *$$$$$$+.......##*#..++$$$$$$$$$$$$%%$$$$$%%%%%%%%%%$%%%%%%%%$$%%%%%%%%$$*   ",
"   *%%%&%%&............*&%%%%%%%%%%%%%%%%%%%%%%%%%%%%%%%%%%%%%%%%%%%%&%%%%%%*   ",
"          @.........@                                                           ",
"           .......@@                                                            ",
"          @.....@                                                               ",
"           ...@@                                                                ",
"          @.#                                                                   ",
"                                                                                ",
"                                                                                ",
"                                                                                ",
"                                                                                ",
"                                                                                ",
"                                                                                ",
"                                                                                ",
"                                                                                ",
"                                                                                ",
"                                                                                ",
"                                                                                ",
"                                                                                ",
"                                                                                ",
"                                                                                ",
"                                                                                ",
"                                                                                ",
"                                                                                ",
"                                                                                ",
"                                                                                ",
"                                                                                ",
"                                                                                ",
"                                                                                ",
"                                                                                ",
"                                                                                ",
"                                                                                "};
