/* XPM */
static char * Jetix_xpm[] = {
"80 80 15 1",
" 	c None",
".	c #3C4650",
"+	c #F2171A",
"@	c #DB3046",
"#	c #BE3D6A",
"$	c #A94B89",
"%	c #687682",
"&	c #905BAE",
"*	c #E66468",
"=	c #909DA7",
"-	c #DE9296",
";	c #A9BAC6",
">	c #D8B6BC",
",	c #C8D7E2",
"'	c #D5E8F2",
"                                                                                ",
"                                                                                ",
"                                                                                ",
"                                                                                ",
"                                                                                ",
"                                                                                ",
"                                                                                ",
"                                                                                ",
"                                                                                ",
"                                                                                ",
"                                                                                ",
"                                                                                ",
"                                                                                ",
"                                                                                ",
"                                                                                ",
"                                                                                ",
"                                                                                ",
"                         $#                       &@                            ",
"                          +@                     $+$                            ",
"                          #*@                   #**                             ",
"                          $->+&                @*,@                             ",
"                           @,;@$     &&&&     +-'-$                             ",
"                           #>,>@# &$*----*#&&+>''*&                             ",
"                           $-,,,@@-;;;=;;;>*@>'',@                              ",
"                           &@,,-@;;======;;,''''-#                              ",
"                            @;;@>;=======;;,,'''*&                              ",
"                            #-@-%..====;;,;,,'',@                               ",
"                             +*;%;=.%=;;,,,,,,'-#                               ",
"                             +-,,'%..;;,'''',''-$                               ",
"                             #,,,=...;;,'''''''>#                               ",
"                             @',,%...,,'''''''''#                               ",
"                             #'',;%%=,;,,'''''''@                               ",
"                             @',;;;======;;>,''>#                               ",
"                             #>;==%%%%=%=====,'>#                               ",
"                             &-;%%%%%%%%%%%%=='*&                               ",
"                             $@>%%%.%.%%%%%%==,+                                ",
"                            #*>-=%.%......%%%;'-@                               ",
"                           @*,'>-%.......%.%='''>@&                             ",
"                          @-',,,>>=.......%=,',''>@$                            ",
"                        &@-',,,,,,,;=%%%%=,'',,',',*#                           ",
"                       $@>',,,,,,,,'>@#@-'',',',',',*@                          ",
"                      #*,,,,,,,,,,,,@$&&+>',',',','''-@                         ",
"                     #*,'','',','''*@   $@,'''''''''''-@&                       ",
"                    @*>>>>>>>>>>>>-@&    @*>>>>>>>>>>>,-+&                      ",
"                   &@@@@@@@@@@@@@@@$      @@@@@@@@@@@@@@@$                      ",
"                                                                                ",
"                                                                                ",
"              ###  &#$#$##$##$$#$  $#####$#$#$##& &##&  ##$#       ###$ & &&    ",
"              +++  $++++++++++++@  @++++++++++++& #++$  $+++#     ++++&   $*    ",
"              +++  &+++++++++++++  @++++++++++++$ $++$   $+++#   @+++&          ",
"              ++@  $++@$&$&$$&$$&  &$$&$@++#$&$$  $++$    #+++$ #+++$           ",
"              +++  &++$                 #++       $++$     @+++#+++#            ",
"              @+@  $++@$$$$$$$$#&       @++&      #++$      @+++++#             ",
"              +++  &++++++++++++@       @++&      $++$       ++++@              ",
"              @++  $++++++++++++@       @++&      $++$       @+@+@              ",
"   &@+#       ++@  &++#&&&&&&&&&        @++&      $++$      ++++++#             ",
"   &++#       @++  $++$                 #++&      #++$     @++@@+++#            ",
"   &++@&&$&&&$+++  &++@&&&&&&&&&&       @++&      $++$    #+++$ #+++&           ",
"   &++++++++++++@  $++++++++++++@       @+@&      #++$   $+++#   @+++&          ",
"   &+++++++++++++  &+++++++++++++       @++&      #++#  $+++@     @+++&         ",
"   &#############  &############$       $@#       &##&  ####      &###$         ",
"                                                                                ",
"                                                                                ",
"                                                                                ",
"                                                                                ",
"                                                                                ",
"                                                                                ",
"                                                                                ",
"                                                                                ",
"                                                                                ",
"                                                                                ",
"                                                                                ",
"                                                                                ",
"                                                                                ",
"                                                                                ",
"                                                                                ",
"                                                                                ",
"                                                                                ",
"                                                                                ",
"                                                                                "};
