/* XPM */
static char * Jimmy_xpm[] = {
"80 80 15 1",
" 	c None",
".	c #C70738",
"+	c #D50543",
"@	c #C0133E",
"#	c #CF1141",
"$	c #B24333",
"%	c #CC315B",
"&	c #D04A6E",
"*	c #977526",
"=	c #CF6984",
"-	c #DF8AA0",
";	c #ECB7C3",
">	c #F2CED6",
",	c #FBE8EF",
"'	c #FFFFFF",
"                                                                                ",
"                                                                                ",
" $++++++++++++++++++++++++++++++++++++++++++++++++++++++++++++++++++++++++++++$ ",
" $+##########################################################################+$ ",
" $+##########################################################################+$ ",
" $+##########################################################################+$ ",
" $+##########################################################################+$ ",
" $+##########################################################################+$ ",
" $+##########################################################################+$ ",
" $+##########################################################################+$ ",
" $+##########################################################################+$ ",
" $+##########################################################################+$ ",
" $+##########################################################################+$ ",
" $+##########################################################################+$ ",
" $+##########################################################################+$ ",
" $+##########################################################################+$ ",
" $+##########################################################################+$ ",
" $+##########################################################################+$ ",
" $+##########################################################################+$ ",
" $+##########################################################################+$ ",
" $+##########################################################################+$ ",
" $+##########################################################################+$ ",
" $+##########################################################################+$ ",
" $+##########################################################################+$ ",
" $+##########################################################################+$ ",
" $+##########################################################################+$ ",
" $+##########################################################################+$ ",
" $+##########################################################################+$ ",
" $+##########################################################################+$ ",
" $+##########################################################################+$ ",
" $+##########################################################################+$ ",
" $+##########################################################################+$ ",
" $+######....###@...###@.......###....@######@....@..##.@...####.....#####@...$ ",
" $+######&===%.#%===%.#%======&@++%==&%@.####======&%++%===%@.+@====%.####@==== ",
" $+#####.-'''&..-'',&.+='''''',;-;>'',,-%.++%,',''',>-->,',,;&+#-''';#.##.=,''; ",
" $+#####.-'''&..-'',&++=''''''''''''''''>@++%,''''''''''''''',%+%>'''=@#.%>'';* ",
" $+#####+-'''&.+='',&.+=''',-=>'''';=;'''-..%,'''-=;''''>=-''';@.&,'',%+.-'',&$ ",
" $+#####@-'''&..-'',&+.='''=..=''';@.&,'';@+%,'';@.%>''>%.%>'',%@.-'''-@&,''-+$ ",
" $+######-'''&..-'',&.+&'''=..%,''-.+@,''>@.%,''-@#.>''>@.@;'',&..@;'',=;'';@+$ ",
" $+#####.-'''&+.='',&..='''&..&,''-..#>'';@+%,''-@.#;''>#+@;'',&.++&,'',,',&.#$ ",
" $..@.###-'''&+.-'',&.+='''&..&,''-@#@>'';#.%,''-.##>''>@..;''>&#+.@='''''=.#.$ ",
" $%&&&##.-'''&+.='',&..='''=..%,''-..%>'';#.%,''-#+@>''>#+@;'',&@###@;''';@#++$ ",
" $;''>%.+;'',%..-'',&.+='''&+.&,''-..#>'';#.%,''-.##;''>#..;'',&.###.&,''=@###$ ",
" $-'''-&=,''>%+.-'',&..='''=.+%,''-.+#>'';@.%,''-###>''>#+@;'',%.###.&,''=@#@+$ ",
" $%,''',''',-...-'',&.+='''&..&,''-.#@>''>#.%,''-.+@>''>#.@;'',&#@##.&'''-.##+$ ",
" $.=;,''''>-@##.-'',&..='''=++&,''-#+%>'';#.%,''-++@>''>##@;'',%.@##.&,''=+##+$ ",
" $++@&---=%.@##@&---%.#%---%.@@---&#.#=--=##%=--&@##=--=#.@=--=%#@##.%---&##++$ ",
" $+##@.....+####....##@#...@##@..@@@###.@@@#+.@@@@@#+..@###.@@.#+#####..@@####$ ",
" $+##+##.################.####@#++#######@#+###+####+########+#########.######$ ",
" $+@#####@######@##########################+#################################.$ ",
" $+##########################################################################+$ ",
" $+##########################################################################+$ ",
" $+##########################################################################+$ ",
" $+##########################################################################+$ ",
" $+##########################################################################+$ ",
" $+##########################################################################+$ ",
" $+##########################################################################+$ ",
" $+##########################################################################+$ ",
" $+##########################################################################+$ ",
" $+##########################################################################+$ ",
" $+##########################################################################+$ ",
" $+##########################################################################+$ ",
" $+##########################################################################+$ ",
" $+##########################################################################+$ ",
" $+##########################################################################+$ ",
" $+##########################################################################+$ ",
" $+##########################################################################+$ ",
" $+##########################################################################+$ ",
" $+##########################################################################+$ ",
" $+##########################################################################+$ ",
" $+##########################################################################+$ ",
" $+##########################################################################+$ ",
" $+##########################################################################+$ ",
" $+##########################################################################+$ ",
" $+##########################################################################+$ ",
" $+##########################################################################+$ ",
" $++++++++++++++++++++++++++++++++++++++++++++++++++++++++++++++++++++++++++++$ ",
" ****************************************************************************** ",
"                                                                                ",
"                                                                                "};
