/* XPM */
static char * KABEL1_xpm[] = {
"80 80 15 1",
" 	c None",
".	c #C46E22",
"+	c #F07714",
"@	c #F07E22",
"#	c #F1852E",
"$	c #F28E3C",
"%	c #F3974D",
"&	c #F3A260",
"*	c #E7B48A",
"=	c #E6C8AE",
"-	c #DCD8D0",
";	c #F7DECA",
">	c #ECEAE7",
",	c #F6F5F4",
"'	c #FFFFFF",
"                                                                                ",
"                                                                                ",
"                                                                                ",
"                                                                                ",
"                                                                                ",
"                                                                                ",
"                                                                                ",
"                                                                                ",
"                                                                                ",
"                                                                                ",
"                                                                                ",
"                                                                                ",
"                                   $$%%$$$%$%.                                  ",
"                               $$%%%&&&&&&&&%%%%$$                              ",
"                             $%&&&&&&&&&&&&&&&&%&%$#                            ",
"                           $%&&&&&&&&&&&&&&&&&&&&%%%$#                          ",
"                         #%&&&&&&&&&&&&&&%&%&%%%%&%&%%$.                        ",
"                       #$%&&&&&&&&&&&&%%&%&%%&%&%%%%%%%$#                       ",
"                      #@%&&&&&&&&&&%%&%&%%%%%%%%%%%%%%%%#+@                     ",
"                     @+$&&&&&&%&%&%%&%%%%&%%%%%%%%%%%%%%$#+@                    ",
"                    @+#&&&&%&%&%&%%&%%%%%%%%%%%%%%%%$%$%$$++.                   ",
"                   @++$&%%&%%&%%%%%%%%%%%%%%%%%%$%$%$$$$%$#+++                  ",
"                  #++#%&&%%&%%%%%%%%%%%%%%%%%$%$%$$$%$%$$$#+++.                 ",
"                 #+++$%%%%%%%%%%%%%%%%%%$%$$$%$$$$%$$$$$$$$@+++                 ",
"                 @+++#&%%%%%%%%%%%%%%$%$$%$%$$$%$$$$$$$$$$$@+++@                ",
"                +++++$%%%%%%%%%%%%$$%$$%$$$$$$$$$$$$$$$$#$$@++++.               ",
"               @+++++$%%%%%%%%$%$$$%$%$$$$$$$$$$$$$$#$##$##@+++++               ",
"               @+++++$%%%%$%$$%$%$%$$$$$$$$$$$$$$###$##$###++++++.              ",
"              @++++++#%%$$%$$%$$$$$$$$$$$$$$#$####$########@++++++.             ",
"              +++++++#$$%$$$$$$$$$$$$$$$#$##$#$#######@@@#$%&&++++.             ",
"              +++++++@$$$$$$$$$$$$$$$#$#$#$######@@#$%&***==-=+++++             ",
"             #++++++++#$$$$$$$$$$#$##$##########@%&**=--->>>,-#++++.            ",
"             @++++++++@$$$$$$#$##$##$##########@@*-->>>,,,,''>&@++@+            ",
"             ++++++++++@$$#$#$#$############@#@##*>,,'''''''',*#+@@@            ",
"            #+++++++++++##$###############@#@#@@&->,''''''''',=#+@@@            ",
"            #++++++++++++#############@#@@#@#@@$=-,'''''''''',;$+@@@.           ",
"            @+++++++++++++@#######@#@##@##@#@@$*->''''''''''''>$+@@@@           ",
"            @++++++++++++++@###@#####@##@#@@@$*->,'''''''''''',%+#@#@           ",
"            $++++++++++++++++@###@#@@#@#@#@#%=->,''''''''''''',%+###@           ",
"            $+++++++++++++++@+@@@#@###@++#&*-->,'''''''''''''',%+###@           ",
"            &+++++++++++++@+++@@@@@@@@#%**=->>'''''''''''''''',%@###@           ",
"            &+++++++++@+@@+@@@@+@@@@@@#*->>,,''''''''''''''''',%@###@           ",
"            *+++@+@+@@+@@@@@@@@@@@@@@@$->,,''''''''''''''''''',%@$$$@           ",
"            ;++@+@+@@@@@@@@@@@@@@@@@@#$=>''''''''''''''''''''';%@$#$@           ",
"            =$+@@@@@@@@@@@@@@@@@#@###@$->'''''''''''''''''''',=%#$$$.           ",
"            ;&+@@@@@@@@@@@@###########$-,',>;>''''''''''''''',*%#$$$.           ",
"            ,=+@@@@@@@#@###@#@########$*-=**&;'''''''''''''''>&$$$$#.           ",
"             ;%#@#@######@#############%$@@@$=,'''''''''''''';%$$$$#            ",
"             ,*#@##################$#$#$$#$$%=>'''''''''''''';#$%%$#            ",
"             '>%#@############$#$$$#$$$#$$$#*-,,''''''''''''>*$$$%$.            ",
"              ,=%@########$#$$#$$#$$$#$$$$$#*-,''''''''''''';%%%%%$             ",
"              ''*####$#$$$#$$$$$$$$$$$$$$$$%=>''''''''''''''*@%%%$.             ",
"              ''>*##$$$#$$$$$$$$$$$$$$$$$$$*-,''''''''''''';&%%%%$.             ",
"               ''>*##$$$$$$$$$$$$$$$$$%%$$*->,'''''''''''''*%%%%%#              ",
"               '',>=%@#$$$$$$$$$$%$%%%$#$&=-,''''''''''''';&$%%&$.              ",
"                '''>=*%##$$$$%%%%$%$$#$%*->,''''''''''''',&%%%&%.               ",
"                 ''',-*&%%$$$$$$$$$%%%&=--,,'''''''''''',=%%&&%$.               ",
"                 ''''',-=*&$$$#$$%%&*--->,''''''''''''',=$%&%&%.                ",
"                  ''''',>---======---->,,''''''''''''''=%%&&&%.                 ",
"                   ''''''',,>>>>>>>>,'''''''''''''''',=&%&&&%#                  ",
"                    ''''''''',,,,''''''''''''''''''';=%%&&&%#                   ",
"                     ''''''''''''''''''''''''''''',;*$%&&&%#                    ",
"                      >,'''''''''''''''''''''''''>*%%&&&&%#                     ",
"                       *;,''''''''''''''''''''';*&&&&&&&$.                      ",
"                         **;>'''''''''''''',;=**&%&&&&&$.                       ",
"                          .%*==;;;;>;;;;;;=**%%%&&&&&$.                         ",
"                            ++$%&&*****&&$$%&&&&&&&$.                           ",
"                              .#%%&&&&&&&&&&&&&%%#.                             ",
"                                 .##$%%%&%&%$$..                                ",
"                                                                                ",
"                                                                                ",
"                                                                                ",
"                                                                                ",
"                                                                                ",
"                                                                                ",
"                                                                                ",
"                                                                                ",
"                                                                                ",
"                                                                                ",
"                                                                                "};
