/* XPM */
static char * MCM_xpm[] = {
"80 80 15 1",
" 	c None",
".	c #151716",
"+	c #304C66",
"@	c #1582B7",
"#	c #DB3730",
"$	c #747570",
"%	c #55B0D4",
"&	c #A4A2A3",
"*	c #FA9F9C",
"=	c #E8CF0E",
"-	c #C6D1D5",
";	c #F9DE60",
">	c #FDEAC5",
",	c #ECEEEE",
"'	c #FFFFFF",
"                                                                                ",
"                                                                                ",
"                                                                                ",
"                                                                                ",
"                                                                                ",
"                                                                                ",
"                                                                                ",
"                                                                                ",
"                                                                                ",
"                                                                                ",
"                                                                                ",
"                                                                                ",
"                                                                                ",
"                                                                                ",
"                                                                                ",
"                                      @@@@@@@@                                  ",
"                                  @@@@@@@@@@@@@@@+@                             ",
"                               %@@@%@@@@@@@@@@@+@@+@+@                          ",
"                              @@@%@@%@%@@@@@@@@@+@@+@++                         ",
"                            %@%%%%@%@%@@%@@@@@@@@@+@+@++@                       ",
"                           %@%%%@%%%%%%%@%@@@@@@@@@@@+@+++                      ",
"                         %@%%%%%%%%%%%@%@%@@@@@@@@@+@++++++@                    ",
"                        %@%%%%%%%%%%%%%%%@%%@@@@@@@@@+@+++++                    ",
"                       %@%%%%%%-%-%-%%%%%%%@@%@@@@@+@+@++++++@                  ",
"                       @@%%%%%-%--%--%-%%%%%%@@@@@@@@@+@++++++                  ",
"                      %%%%%%--%-------%%%%%%@%@@@@@@+@+++++++++                 ",
"                     %@%%%%-%------------%%%%@%@@@@@@@@@@++++++@                ",
"                    @+@+@$@$%$%%,,----%%@$@@+@@+@@@@@@++.+++++++                ",
"            ..+........+..+..+...%,,$+...+..+.....+@+...+.................+     ",
"           .$,>,'''''',,,',,',,-$.&$.+-,'>,',,'',&....&,,,,,,,,''''''''',&+.    ",
"          .-'''''''''''''''''''',$..&'''''''''''''&.+,'''''''''''''''''''',.    ",
"         .+''''''$&''''''&$,'''''-.+''''',$$''''''&.$''''',$-''''''$$''''''$+   ",
"         .&'''''-.$''''''+.-'''''&.-'''''&.+''''''&.-'''''&.&''''',.+''''''$    ",
"         .-'''''&.&''''',.+,'''''$.,'''''&.$''''''+.''''''+.,'''''-.$''''',.    ",
"         +''''''+.,'''''-.&''''',.$''''''+.&''''',.$''''''..''''''$.-'''''-.    ",
"        +$''''''+.,'''''$.-'''''-.$''''',..-'''''&.-'''''-.$''''''+.''''''$.    ",
"        .-'''''-.$''''''+.''''''$.-'''''&..+++.++..,'''''&.&'''''-.$''''''++    ",
"        .,'''''&.&'''''-.$''''''$.,'''''$.........+''''''$.-'''''&.&''''',.     ",
"       ++''''''$.,'''''&.&''''''.+''''',..$$$$$$$.$''''''.+''''''+.,'''''-.     ",
"       .$''''',.+''''''$.-'''''-.&'''''-..''''''-.&'''''-.&''''''.+>'''''$+     ",
"       .&'''''-.&''''''+.''''''$.,'''''&.$''''''$.,'''''$.-''''',.$''''''.      ",
"       .''''''$.&''''',.$''''',++,'''''$.$''''''++''''''+.,'''''&.&'''''-.      ",
"       $''''''+.,'''''&.-'''''-.$''''',..-'''''-.&''''',.+''''''+.,'''''&.      ",
"      .&''''''.+''''''+.,'''''&.$''''''&$''''''$.-'''''-.$''''',.$''''''$+      ",
"      .-'''''-.&''''',.$''''''$.$'''''''''''''-..''''''$.-'''''&.&''''''.       ",
"      .------$.&-----&.$------+..$----------&$..+------.+------$.&-----&.       ",
"     +.....+.....+..................++...+..........+.....+..........++.+       ",
"     +-+..+>+...->&.,.&&.&,.+&$-+&$&--...>+$,$&++*+>&$+-+*,&.+,$.&$.+-*&+       ",
"     +>...--$..&&.+$'&,$+-,.&&$'&-$>-$..$'&&,$,.$&+,&+$-&-.$.&-$.,..$,&.        ",
"     $,+.&,>&..-$+$$-$'$->,$&$&$,,$,$+..&-,--$,+>$+$-$&$-&+$$,-&$-..-&$.        ",
"     $-&$&$$$..+&*+$$.&$&$&$&.&.$&$-&$..&$&$$.&&&.$&&+&.+&&$&$$$+-&+&&&.        ",
"     .+++++++++.++++.................+++.+++++.+++.++++++++.+++++++++++         ",
"                     ++++++@+@+@@+@                                             ",
"                      +@+@++@+@++@   @@           ===          $##              ",
"                      ++++@+++++@  %%%@@@        ;;;===       =**###            ",
"                       @++++++@+@ %%,-%@++      ;',;;===     &*>*####           ",
"                        ++++++++  %-,-%@@+@    ;;''>====    =#>,>####           ",
"                         +++++++  @%--%@@+@    =;>>;;===    ##*>*####$          ",
"                         %+++++@  @%%@@@++@    ==;;=====    $########$          ",
"                           @++++  @@@@@@++%    =========    $########           ",
"                            %+++  @++@++@@      ========     ########           ",
"                              %@@  @++++@        ======       $#####            ",
"                                 @   @@%           ==           $$              ",
"                                                                                ",
"                                                                                ",
"                                                                                ",
"                                                                                ",
"                                                                                ",
"                                                                                ",
"                                                                                ",
"                                                                                ",
"                                                                                ",
"                                                                                ",
"                                                                                ",
"                                                                                ",
"                                                                                ",
"                                                                                ",
"                                                                                ",
"                                                                                ",
"                                                                                "};
