/* XPM */
static char * MDR JUMP_xpm[] = {
"80 80 15 1",
" 	c None",
".	c #CE130F",
"+	c #5C5B5F",
"@	c #D53F34",
"#	c #DC6253",
"$	c #22D64A",
"%	c #9A9E9A",
"&	c #E48C7A",
"*	c #6CE36C",
"=	c #A8E74D",
"-	c #EDC1B3",
";	c #AAEE9C",
">	c #EEEF3E",
",	c #EEF587",
"'	c #EFF5D2",
"                                                                                ",
"                                                                                ",
"                                                                                ",
"                                                                                ",
"                                                                                ",
"                                                                                ",
"                                                                                ",
"                                                                                ",
"                                                                                ",
"                                                                                ",
"                                                                                ",
"                                                                                ",
"                                                                                ",
"                                                                                ",
"                                                                                ",
"                                                                                ",
"                                                                                ",
"                                                                                ",
"                                                                                ",
"                               '''''''''''''''''                                ",
"                          '''';;',;;;,,,*;;,,,;;;;''''                          ",
"                      ''',;;,,;','';''''''''',***;,,,,;;''                      ",
"                   ';,;*,';,';;,,,'''-------'';*;,'''';;**,''                   ",
"                ';;,*;,;,;;',;;','-&&&&&&&&&&'*;,'-#&&---'',,,'                 ",
"              ';=;;,;,;;,;;,;;,,;'-&&&&&&&&&&';,,,-###@####',>*$;'              ",
"            ';=*;,;,;';;,;;,;;,,;'-&-&&&&&&&&-,,,'-#####@@#-,=$$$$;'            ",
"          ';=$=,;,''''';,;,,;,,;;'-&&&&&&&&&#-',,'&#######@-;$$$$$=,'           ",
"         ',$=,;'''-&&-;,;;,;;,;;;'&&&&&&&&&#&&',='&#####@@@-;*$$*>>>>,'         ",
"       ''$==*;,-&&&&&-;,;,;;,,;;,'&&&&&&&-#&#&'**'&####@##&-'';;,>>>>>,'        ",
"      ';==$=,*'-#&&&&'';;,;;,;;,,'&&&&&&-'&#&#';*'####-@@#&@@#--'',>>>$$;       ",
"     ';$$=>;;,;-#&&&&',;;';,''''''&&&&&#-'&#&#-;*'###&-#@#&@@@.@@&-',$$$$;      ",
"    ';=>=$*;=;'&&#&#&''''',;'--------&&#-'&###-',-##@&'#@@&@@@@@...#-'$$$$'     ",
"    ;$$$$=,=;='&#&&---&&&';;'&#&#&##-&#&-'-###-',-##@-'#@@&@@@.@.@...&'$$$>'    ",
"   '>>>>==*;=;'&##&-#&&&&';,'&&&&#&#&&&#-'-###&''-@#@-'#@@&@@@@.@.....#'=>>>'   ",
"  '$$$$$$=;=;;'&&#&-####&',;'&#&#&&&-&##-'-####''&@@#-'#@@&@@.@.@&#....-,>>>,   ",
"  ;========;=;'###&-#&&#&';;-&#&#&##&&#&-''&###''&#@#''&@@&#.@@.#''-...#'>>>>'  ",
" '>>=$$$$==;=;'###&&###&&',;'#&#&###-###-''&##@-'&@@#''&@@&#@...@';'-...'>>>>'  ",
" ;$$$==>=$==;;'###&-####&'=;'####&##&&##','&@##&'&@@&''&.@&#.@...-,>'#..-,>>$*- ",
" ;$>>>$$$====;-###&&####&';,-&#&####&###'*;-@#@&'#@@&''&@.&#..@.@-,>'&..-,=$$$' ",
"%>>=$$=>=$*=;;-###&&####&'=;'#######&&##-;;-@#@#'#@@-;;&..&#.@...-,,'@..&*$$$$; ",
"%=$$$>=$$>$=*,-###&&####&';;-#######&###',,-#@##&@@@-;;&@.&#.....-''&...-;$$$$* ",
"%$$>>$$==$=$=;-@#@&&####&'=;-#######&###-,,'#@@@#@@@-*;-..&#............-$$$$$; ",
"%=>=$$>=$>$=$;-@##&&@##@&';;-#######&#@#';*'&@@@@@@@'='&..&#...........#'$$$=>, ",
" ,=$$>=$=$$=='&.@@&&@##@&'=;-#@##@#@&##@'*$;&@@@@@@#'>,-..&#...........'*$=>>>' ",
" ;$$>=$=>;,*=;&...&&@#@@&'=,-##@#@#@&#@#-;*'-@@@@@.#'>,&..&#.........#''=>>>>>- ",
" ;$>=$=>'---;;&...##.@#@&'**-@#@@#@@&#@@',>,-@@@@@.&'>,-..##.....#&-'',>>>>>>,% ",
" %>=$$>*'..@''&...#@...@#',,-#@@#@#@&#@@-,>,'@@@@@.-;$;&..#@.....-',>>>>>>>>>'  ",
"  '$$>=$'...''&...##....#;$;-@@##@#@&#@@';**'#@@@.@-*$*&..##.....&,>>>>>>>>>>%  ",
"  %*=>$*'@..-'&...##....#'**-..@.@@@&@@@-*$$;&.....'$$;&..##.....-'>>>>>>>>>'   ",
"   ;>=$='&..#&....##....#'>,-.......&&&&';**;-@##@#'==,-&--#.....-,>>>>>>==;%   ",
"    '$*>;-.@..@.@.#&..@.#'*,-@.@@.@.-'''',>>,'''''''>>,''''#.@.@.-,>>>=*$$*%    ",
"     ;=>*'&.@@@@@@#&@@@.#'$*-.@@.@@.-;==>>>>>>>,>>,>>>>>>>'#.@@@@-;**$$$$*%     ",
"      '=$;'&@.@@@.&-.@@@@';;-@@@@@@@-*$$****===>=>>>=,===='#@@@@@-*$$*$$*;      ",
"      +;*=,'-#@@#&'-@@@@@',,-@@@@@@@-;*$$$$*$*$**;*;;;*;;*'@@@@@@';$*$$*-       ",
"        ;,=*'''''';'#@@#@&''&@@#@#@@-,,=;****$*$*'';;;;';*'#@@@@&'*$$$;%        ",
"         %;*=,*;,**'-@####&&######@&',>,,>,;=;***';;;;;;;*'&&&-'''*=;;+         ",
"           %'>**,,*;'&#############-;*,>,,>,,,,,,,,,;,;;,;''',,,,>,'%           ",
"            +';*>,**,'&###########-'****=,,>,>,,,,,>,,>,,>,>,,>>,,-+            ",
"              +;,,;*;,'-&#######&-',;******;;,>,,>,,,,,,,,,,>,,'%+              ",
"                +%;;*,,''--&&&--'',,,,;;******;;=,,,,,,,,>,,,-%+                ",
"                   +%;',;;;'''';;;;,,,,,;;;;*;**;*;*=*=;,'-%+                   ",
"                      +%%;;;,,,;***;,,,,,,,;;;*;***;;;;%++                      ",
"                          ++%%-'';;;;;,,,,,,,';;;;%%++                          ",
"                                 ++++++%+%%++++                                 ",
"                                                                                ",
"                                                                                ",
"                                                                                ",
"                                                                                ",
"                                                                                ",
"                                                                                ",
"                                                                                ",
"                                                                                ",
"                                                                                ",
"                                                                                ",
"                                                                                ",
"                                                                                ",
"                                                                                ",
"                                                                                ",
"                                                                                ",
"                                                                                "};
