/* XPM */
static char * MTV Central_xpm[] = {
"80 80 15 1",
" 	c None",
".	c #030507",
"+	c #304B61",
"@	c #456985",
"#	c #3C7AA9",
"$	c #4884B2",
"%	c #5390BF",
"&	c #848C92",
"*	c #609BCA",
"=	c #6BA2CF",
"-	c #72ACDA",
";	c #7CB4E2",
">	c #86BEEC",
",	c #C4C5C5",
"'	c #F9F9F8",
"                                                                                ",
"                                                                                ",
"                                                                                ",
"                                                                                ",
"                                                                                ",
"                                                                                ",
"                                                                                ",
"                                                                                ",
"                                                                                ",
"                                                                                ",
"                                                                                ",
"                                                                                ",
"                                                                                ",
"                                                                                ",
"                                                                                ",
"                                                                                ",
"                                                                                ",
"    ++@@@@@@@@@@@@@@@+@+@++.            .++++++++++++++++++++++..               ",
"    +=>>;;;;;----====-===*@+..         +@$%%$$$$$#$###########@...              ",
"    +=>>>>>>;>;;;;;;------;#....      .@%*%%%%%$%$$$$$$########.....            ",
"    @=>>>>;;;;;;;-------===-@.....   .@*%%%%%$%$$$$$$#########@.....            ",
"    +=>>>>;>;;;;;;-----=-==-=@..... .@*%%%%%$%$$$$$$$$$########.....            ",
"    +=>>>;>;;;;;-;-----=-===-*@.....@%*%%%%%%$%%$$$$#$#$######@.....            ",
"    @=>>>>;;;;;;;;------======*+...@**%%%%%%$%$$$$$$$$#########.....            ",
"    +=>>>;>;;;;;-------=-====*=*+++**%*%%%%%%$%$$$$$#$#$######@.....  +&&&      ",
"    +=>>>>;>;;;;;;------=-====**%%***%%%%%%%%%$%$$$$$$#$#######..... &,''',+    ",
"    @=>>;>>;;;;;-;-----=-====*=*=**%*%*%%%%$%$%$$$$$#++@######@.....+,'''''&    ",
"    +=>>>>;;;;;;;;------======******%*%%%%%%%%%$$%$#@&,&@######.....&''''''&    ",
"    @=>>>;>;;;;;-------=-====*=******%%*%%%%$$$%$##@&''&@#####@....@'''''',+    ",
"    +=>>>>;>;;;;;;-----=-====*******%*%%%%%$$$$$$@+&'''&+######...+'''''',@     ",
"    +=>>;>>;;;;;-;------=-=====******%*%%%#@&&++&,'',&@@######@..+,'''''&+      ",
"    @=>>>>;;;;;;;;-----=-====*******%*%%%*@&',,,,''&@@@########..&'''',@        ",
"    +=>>>;>;;;;;-------======*=****%*%%%*%$&''''',&@@$#########.@,''''&         ",
"    +=>>>>;>;;;;;;-------====*=*****%**%$$&,''''&+@#$#$#######@+,''''&          ",
"    @=>>;>>;;;;;-;----=-=-====********%%@@&,''',&$#$#$#$#####@@&''''&           ",
"    +=>>>>;;;;;;;;-----=-====********#@@,,''''',@$#@&&+######@@'''',            ",
"    @=>>>;>;;;;;--------=====*=****%@@,,',,&,'',@$@&,,&@####+@,''',+            ",
"    +=>>>>;>;;;;;;-----=-====*=*=*$#&,'',&+@&'',@$@,'',#####+&''',@.            ",
"    +=>>;>>;;;;;-;------=-====**%%$&,''&+#%$&'',@$@,'',$###@&,'''&..            ",
"    @=>>>>;;;;;;;;-----=-====**=@@,'',@@%%%$@'',@$+&'',@###+,'''&+..            ",
"    +=>>>;>;;;;;--------======*#&,''&&#%%%%$@'',&$#&,'&$###@,'''+...            ",
"    +=>>>>;>;;;;;;-----=-=====*@,'',@#%*%%%$@'',@$#@&',@##+,'''&....            ",
"    @=>>;>>;;;;;-;------=-====*%@,,@$**%%%%$@'',@$%@&',#@@@,'',.....            ",
"    +=>>>>;;;;;;;;-----=-===*=*=$@+$%*%%%%%$@'',@$$@@''&+#&'',@.....            ",
"    @=>>>;>;;;;;--------==%#%-***%%****$+#%$@'',&$$##,',+@,'',+.....            ",
"    +=>>>>;>;;;;;;-----=-*@.+%-*******@+.+%$&,',@$$#$&'',,'',@+.....            ",
"    +=>>;>>;;;;;-;-------*+..+%==**=$@...+%$@'',&$$$@@''''''&+#.....            ",
"    @=>>>>;;;;;;;;-----=-*+...+$***$+....+%$&'',&$$$#+''''',@##.....            ",
"    +=>>>;>;;;;;---------*+....+$=#......+%$&,''&$$$#@,''''&@#@.....            ",
"    +=>>>>;>;;;;;;-----=-*+.....++.....  +%$&'',&$$$##&,'''&@##.....            ",
"    @=>>;>>;;;;;-;-------=+.... ..       +$#&'''&$#$$#@,'''&@#@.....            ",
"    +=>>>>;;;;;;;;-----=-*+....          +#@,''',##$$#+,'''&@##.....            ",
"    @=>>>;>;;;;;---------*+....          +@@'''',@#$$#@&,''&@##.....            ",
"    +=>>>>;>;;;;;;-----=-*+....          +#@,''',@#$$##+&''@@#@.....            ",
"    +=>>;>>;;;;;-;-------=+....          +$%&''''+#$$$$#@&&@###.....            ",
"    +=>>>>;;;;;;;;-----=-*+....          +%%&''''@#$$###@@+###@.....            ",
"    +=>>>;>;;;;;---------*+....          +%$&''''&@$$#$########.....            ",
"    +=>>>>;>;;;;;;-----=-*+....          +%$@''''&$$$#$#######@.....            ",
"    +->>;>>;;;;;-;-------=+....          +%$+,'''@#$$$#$#######.....            ",
"    +=>>>>;;;;;;;;-----=-*+....          +%%$@&,&@#$#$########@.....            ",
"    +=>>>;>;;;;;---------*+....          +$%%@@@@##$$$#$#######.....            ",
"    +=>>>>;>;;;;;;-----=-*+....          +%%%%%$$$$$$#$#######@.....            ",
"    +=>>;>>;;;;;-;-------=+....          +%%$%$%$$$$$$#########.....            ",
"    +;>>>>>>>>>>>>>>;;;;;-+...           +*****%%%%%%%%%%$$$$$#...              ",
"    +@&$@$@@@@@@@@@@@@@@@@+.             .+++++++++++++++++++++..               ",
"     ......+...............                                                     ",
"                                                                                ",
"                                                                                ",
"                                                                                ",
"                                                                                ",
"                                                                                ",
"                                                                                ",
"                                                                                ",
"                                                                                ",
"                                                                                ",
"                                                                                ",
"                                                                                ",
"                                                                                ",
"                                                                                ",
"                                                                                "};
