/* XPM */
static char * Multivision 4_xpm[] = {
"80 80 12 1",
" 	c None",
".	c #0169B6",
"+	c #385B9B",
"@	c #0B6EBA",
"#	c #66558E",
"$	c #2B7DBF",
"%	c #5293CB",
"&	c #7CACD7",
"*	c #A3C3E3",
"=	c #C3D7EC",
"-	c #E1EAF5",
";	c #FCFCFD",
"                                                                                ",
"                                                                                ",
"                                                                                ",
"                                                                                ",
"                                                                                ",
"                                                                                ",
"                                                                                ",
"                                                                                ",
"                                                                                ",
"                                                                                ",
"                                                                                ",
"                                                                                ",
"                                                                                ",
"                                                                                ",
"                                                                                ",
"                                                                                ",
"                                                                                ",
"                                                                                ",
"                                                                                ",
"                                                                                ",
"                                                                                ",
"                                                                                ",
"                                                                                ",
"                                                                                ",
"                                                                                ",
"                                                                                ",
"                                                                                ",
"                                                                                ",
"                                                                                ",
"                                                                                ",
"  ### ######            ######################################################  ",
" +@@..@.@@@     +$+#     @@@.@@@@@@@@@.@@@@@@@@.@@@@@@@@@.@@.@@@@@@@@@@@@@@@.@+ ",
" +@.@..@@    +@@@.@@@+    @...................@...............................+ ",
" +.....+   #.@......@@+   #@.......@$$.....@$........@@@...@.@$..............@+ ",
" +@..@+   +...........@    @.......%;&.@%@.*-%......%-*@.....*-$..............+ ",
" +...+   +.@%%$$%%$....    @.......*;%.==@.$$@.......$$@.....$%@@............@+ ",
" +@@@   #.@*;;;-;;-$..@#   @%*$$*%.=-$*;;&@&&@&&.$****$.&=-$@&&..%==%..$*=*$..+ ",
" +@@    ..&;*%;;%*;&..@#   +=;$%;&.-=@=;=&$;=$;=.*;*-;%%;=*$$;=.&;=--$@-;=;=..+ ",
" +@+   +..*;%$;=.&;&...    .--@*;$$;*.&;%.%;&.-=$;*.*;@&;&..%;&@-=.*;$%;&@;=..+ ",
" +@    ..@-;@%;*.*;%..@   #$;*.=-$%;&.*;$.&;%.==&;@@-=.$-;%.&;%%;&.*;$&;%$;*..+ ",
" +@    ..$;=.&;&.--$..#   .%;&@-=.&;%.=-..*;$.*;-*.$;*..$;-@*;$%;%@--@*;$%;&..+ ",
" +.   #@.%;*.*;%$;-@.@   +.%;=*;&.*;$@-;&.=;@.&;;$.%;&@&&;=@--.%;=*;%@--.*;%..+ ",
" +@   #..%=%.*=@$=&..    @.@*--&@@*=@.&-*@=*@.%-&..&-$$=-=$$=*.@&--&.$=&.&=@..+ ",
" +.    @.@@@.@..@@..#   @....@@..@@@...@@.@@..@@....@..@@@..@....@@....@.@@..@+ ",
" +@    @..........@    @......................................................+ ",
" +.#   #@.......@+   #.......................................................@+ ",
" +@@     @@..@@+    @@........................................................+ ",
" +@@@             +@@@@@@@@@@@@@@@@@@@@@@@@@@@@@@@@@@@@@@@@@@@@@@@@@@@@@@@@@@@+ ",
"                                                                                ",
"                                                                                ",
"                                                                                ",
"                                                                                ",
"                                                                                ",
"                                                                                ",
"                                                                                ",
"                                                                                ",
"                                                                                ",
"                                                                                ",
"                                                                                ",
"                                                                                ",
"                                                                                ",
"                                                                                ",
"                                                                                ",
"                                                                                ",
"                                                                                ",
"                                                                                ",
"                                                                                ",
"                                                                                ",
"                                                                                ",
"                                                                                ",
"                                                                                ",
"                                                                                ",
"                                                                                ",
"                                                                                ",
"                                                                                ",
"                                                                                ",
"                                                                                ",
"                                                                                ",
"                                                                                ",
"                                                                                "};
