/* XPM */
static char * n_tv_xpm[] = {
"80 80 15 1",
" 	c None",
".	c #EC184B",
"+	c #EC2152",
"@	c #EC2958",
"#	c #ED305E",
"$	c #ED3A66",
"%	c #EE436D",
"&	c #EE4C74",
"*	c #EE537A",
"=	c #EE5A7E",
"-	c #EF6184",
";	c #EF6A8B",
">	c #F07996",
",	c #F08CA5",
"'	c #F1A4B7",
"                                                                                ",
"                                                                                ",
"                                                                                ",
"                                                                                ",
"                                                                                ",
"                                                                                ",
"                                                                                ",
"                                                                                ",
"                                                                                ",
"                                                                                ",
"                                                                                ",
"                                                                                ",
"                                                                                ",
"                                                                                ",
"                                                                                ",
"                                                                                ",
"                                                                                ",
"                                                                                ",
"                                                                                ",
"                                                                                ",
"                                                                                ",
"                                                                                ",
"                                                                                ",
"                                                                                ",
"                                                                                ",
"                                                                                ",
"                                                                                ",
"                                              -                                 ",
"                                            >,'=                                ",
"                                         ;,''''=                                ",
"                                        ,''''',*                                ",
"                                        ,''''',%                                ",
"                &&                      ,'',,,>*                                ",
"    ;>>>>>*  &>,,,>>*               ->>>,,,,,,>;=***&&%%%$#..         >>>>>=    ",
"    ,',,,,>&;>,,,,,,>;%             >'',,,,>>>>>;;--=**&%%@...       >''',,-    ",
"    >,,,,,>;>>>>>;>;>;=             >,,,,,>>>;;---=**&%$#@....       >,,>,;$    ",
"    ;,>>>>>>;;;;;;;;;-;%            ;,,>>>;;;;--=**%#@++......      *>,>>=#     ",
"    ;>;;;;;=%  $*=-==*%@            &-=-;;;--*%%%$$#+..........     *;;=%@.     ",
"    =;----*$    #&*&%#...               *--=&#+.       ........     *-*#..      ",
"    *=****%      $%$+....               &==%+...        .......    $&*#...      ",
"    &*&&%#@      ++.+....   %--=*%@     %&$+....        .......    $%$+...      ",
"    %%##@@+      +++++++.   -,>;*$++    @@@++++.        .+++++++   ##@+++       ",
"    ##@+@@+      +@@@@@@+   *;=&$@@+    ++@@@@@+         @@@@@@+   @@@@@+       ",
"    @#####@      @######+   $%#@@##@    @######+         @#####@  @#####        ",
"    #$#$#$#      ##$$$$$@   @@@@@@@     #$$$$$#@          #$$$$#  #$#$$#        ",
"    $%$$$$#      #$$$$$$@               $$$$$$$@          #$$$$$##$$$$$#        ",
"    $%%%%%$      $%%%%%%#               $%%%%%%@          #%%%%%$$%%%%$         ",
"    %&&&&&%      $&&&&&&#               %&&&&&&#           %&&&&&&&&&&$         ",
"    &*****%      %******$               %******%           $*********&#         ",
"    *-====&      %======$               %=======***%       $*========&          ",
"    *-----&      &------%               %=--------=&        *--------%          ",
"    =;;;;;*      *;;;;;;%                &-;;;;;;;;*        %;;;;;;;-           ",
"    &==**=%      %*=**=*                  &=--;-;--&         *=***=*&           ",
"                                            %&***&&                             ",
"                                                                                ",
"                                                                                ",
"                                                                                ",
"                                                                                ",
"                                                                                ",
"                                                                                ",
"                                                                                ",
"                                                                                ",
"                                                                                ",
"                                                                                ",
"                                                                                ",
"                                                                                ",
"                                                                                ",
"                                                                                ",
"                                                                                ",
"                                                                                ",
"                                                                                ",
"                                                                                ",
"                                                                                ",
"                                                                                ",
"                                                                                ",
"                                                                                ",
"                                                                                ",
"                                                                                ",
"                                                                                ",
"                                                                                "};
