/* XPM */
static char * N24_xpm[] = {
"80 80 15 1",
" 	c None",
".	c #0E0E0E",
"+	c #222222",
"@	c #323232",
"#	c #414141",
"$	c #505050",
"%	c #835228",
"&	c #646464",
"*	c #9E734F",
"=	c #808080",
"-	c #F3892E",
";	c #A3A3A3",
">	c #F4984B",
",	c #F5A765",
"'	c #F4B988",
"                                                                                ",
"                                                                                ",
"                                                                                ",
"                                                                                ",
"                                                                                ",
"                                                                                ",
"                                                                                ",
"                                                                                ",
"                                                                                ",
"                                                                                ",
"                                                                                ",
"                                                                                ",
"                                                                                ",
"                                                                                ",
"                                                                                ",
"                                                                                ",
"                                                                                ",
"                                                                                ",
"                                                                                ",
"                                                                                ",
"                                                                                ",
"                                                                                ",
"                                                                                ",
"                                                                                ",
"                                                                                ",
"                                                                                ",
"                                                                                ",
"                                                                                ",
" ,''''''''''''''',',,,'>*====&         $&&&$#                                   ",
" ''''''''''''''''''''',,*;;=;=#        $&&&&#                                   ",
" '''''''''''''''''',',',*;=;===@       &&&&$#                                   ",
" '''''''''''''',',,',,,>*======$       #$$$$#       &===&                       ",
" ,''''''''''',,',,,,,,,>*==&&&&&#      #$#$#@    &=;;;;===$          $==&&&$    ",
" ,'''''''',,,',,,,,,,,,>*&&&&&&&$@     @##@@+   =;;;;;;===&$        @&====&$    ",
" ,'''',',,,,,,,,,,,>>>--%&&&$$$$$@.    ++++..  #;;;;=====&&&#       &=&&&&$#    ",
" ,,',,,,,,,,,,,>>>>-----%$$####@++.    ......   =;;&&&&&&$$#@      #&&&$$$$@    ",
" >,,,,,,,,,,>>>---------%####@+.....   ......   #&#   @$$$#@+     @&&$$$$##@    ",
" >,,,,,,>>>>>>----------%@@@@+.......  ......          #$@+..    +$$$+#$##@+    ",
" >>,,>>>,>>>------------%+++.......... ......          ++++..    #&$@ @#@@++    ",
" >,>>>>>>>>>------------%................+++.         .....+.   @##@  +@+++.    ",
" >>>>>>>----------------%..... ..+.++++++++++         .+++++.  .++..  ++++++    ",
" -->--------------------%..++.  .++++++++++++        .++++++   +++.. .++@@@++   ",
" -------->-->-->--->->--%+.+++  .++++++@@@@@+        ++++@+   +++@++@+@@@@@@#+  ",
" -->->>>>->>->>->>>->>>-%+++++   .@@@@@@@@@@+       +@@@@+.  .+@@@@@@#@#@####@  ",
" ->>>>->->>>>>>>>>>>>>>-%++@@+    +@@@@@@@#@@      +@@@@@+    @@@@##########$@  ",
" ->>>>>>>>>>>>>>>>>>>>>>%@@@@@     @########@     +@@@@@.     +@@@+@@@##$$$##+  ",
" ->>>>>>>>>>>>>>>>>>>>>>%@@@#@      @#####$#@    @@####@             +#$$$$#    ",
" >>>>>>>>>>>,>>,>,>,>,,>%####@      +#$$$$$$@   @######@@####         $&$&&#    ",
" >>,,,,,,,,,>,,,,,,,,,,>%###$#       @$$$$$$#  @$#$#$$$$$$$$&+        $&&&&$    ",
" >>,>,>,>,,,,,,>,,,,,,,>%$#$$#        @&$&&$#  #$$$$$$$$&$&&&+        $&&&&$    ",
" >,,,,,,,,,,,,,,,,,,,,',*&$$&$         $&&&&$  #&$&&&&&&&&&&=@        &====&    ",
"  >>>>>>>>>>>>>,>>>>>>>>%@@@#@         +####@  @@@#@#########         #$$$$#    ",
"                                                                                ",
"                                                                                ",
"                                                                                ",
"                                                                                ",
"                                                                                ",
"                                                                                ",
"                                                                                ",
"                                                                                ",
"                                                                                ",
"                                                                                ",
"                                                                                ",
"                                                                                ",
"                                                                                ",
"                                                                                ",
"                                                                                ",
"                                                                                ",
"                                                                                ",
"                                                                                ",
"                                                                                ",
"                                                                                ",
"                                                                                ",
"                                                                                ",
"                                                                                ",
"                                                                                ",
"                                                                                ",
"                                                                                ",
"                                                                                ",
"                                                                                "};
