/* XPM */
static char * NBC_xpm[] = {
"80 80 15 1",
" 	c None",
".	c #030303",
"+	c #2B2B2B",
"@	c #C10745",
"#	c #4A494B",
"$	c #6E539D",
"%	c #676767",
"&	c #0A8ECD",
"*	c #0CB053",
"=	c #D34877",
"-	c #9082A5",
";	c #EB7722",
">	c #5DC1AF",
",	c #F3C50A",
"'	c #F5C768",
"                                                                                ",
"                                                                                ",
"                                                                                ",
"                              ---              --                               ",
"                            =======          $-----$                            ",
"                           ==========      $---------                           ",
"                          ============    $-----------                          ",
"                         =============    $-----------$                         ",
"                         ============@=  $-------------                         ",
"                        ==========@=@=@  $-$$-$--------$                        ",
"                        @=@=@=@@@@@@@@@  $$$$$$$$$$$$-$$                        ",
"                        @@=@@@@=@@=@@@@   $$$$-$$$-$-$$$                        ",
"                        @@@@@@@@@@@@@@@    $$$$$$$$$$$$$                        ",
"               ;''';;    @@@@@@@@@@@@@@   $$$$$$$$$$$$$    &>>>>>               ",
"             '''''''';   @@@@@@@@@@@@@@  %$$$$$$$$$$$$$   &>&>>>>>>             ",
"            ''''''='=';  @@@@@@@@@@@@@@  $$$$$$$$$$$$$   &>&>>>>>>>>            ",
"           ''''='='';;;;  @@@@@@@@@@@@=  $$$$$$$$$$$$$  &&&>&&>&>>>>            ",
"           ''='''';;';;;; @@@@@@@@@@@@   %$$$$$$$$$$$$ &&&&&>&>>&>>>>           ",
"           ''''=';';;;;;;  @@@@@@@@@@@    $$$$$$$$$$$  &&&&&&&&&>&>>>           ",
"          ;''='';';;;;;;;; @@@@@@@@@@@    $$$$$$$$$$$ &&&&&&&&&>&>>&>&          ",
"          ''=';;;;;;;;;;;; @@@@@@@@@@@    $$$$$$$$$$  &&&&&&&&&&&&&>>&          ",
"          ;'';';';;;;;;;;;  @@@@@@@@@@    $$$$$$$$$$  &&&&&&&&&&&>&&>&          ",
"           ';';;;;;;;;;;;;; @@@@@@@@@@    $$$$$$$$$  &&&&&&&&&&&&&>&&           ",
"           ;;;;;;;;;;;;;;;;  @@@@@@@@@    #$$$$$$$$  &&&&&&&&&&&&&&&&           ",
"           ;;;;;;;;;;;;;;;;; @@@@@@@@      $$$$$$$$ &&&&&&&&&&&&&&&&&           ",
"            ;;;;;;;;;;;;;;;;  @@@@@@@      $$$$$$$  &&&&&&&&&&&&&&&&            ",
"             ;;;;;;;;;;;;;;;  @@@@@@@      $$$$$$$ &&&&&&&&&&&&&&&&             ",
"               ;;;;;;;;;;;;;; @@@@@@@      $$$$$$  &&&&&&&&&&&&&&               ",
"                ;;;;;;;;;;;;;; @@@@@@      $$$$$$ &&&&&&&&&&&&&&                ",
"         '',',,  ;;;;;;;;;;;;; @@@@@@      $$$$$$ &&&&&&&&&&&&&  **>*>>         ",
"       ''''',',,,  ;;;;;;;;;;;  @@@@        $$$$  &&&&&&&&&&&  ***>*>>>>>       ",
"      ''''''',,,,,   ;;;;;;;;;; @@@@        -$$$ &&&&&&&&&&   ***>**>>>>>>      ",
"     '''''',',,,,,,,  ;;;;;;;;; @=@=        $--  &&&&&&&&&   ******>*>>>>>      ",
"     ''''''',',,,,,,,  ;;;;;;;;; ===        --$ &&&&&&&&&  ********>*>>>'>>     ",
"    '''''',',,,,,,,,,,   ;;;;;;;  ==        --  &&&&&&&   **********>*>>>>>     ",
"    '''''''',,,,,,,,,,,,  ;;;;;;  ==        --  &&&&&&  ***********>**>>>>>>    ",
"    '''''',,,,,,,,,,,,,,,,  ;;;;; ='        -  &&&&&   **************>>>>>'>    ",
"    ''''''',',,,,,,,,,,,,,,  ;;'';            >>>&&  ***************>**>>>>>    ",
"    ''''',',,,,,,,,,,,,,,,,,   ;''            >>>   ******************>*>>>     ",
"     ''''',,,,,,,,,,,,,,,,,,,,  ='            >>  *******************>*>>>>     ",
"     ,''',',,,,,,,,,,,,,,,,,,,,   ;          >   *********************>*>>*     ",
"      ,'',,,,,,,,,,,,,,,,,,,,,',,              >>**********************>**      ",
"       ,,',,,,,,,,,,,,,,,,,,,,''''            >>>>*******************>**>       ",
"         ,,,,,,,,,,,,,,,,,,,,,,''''          >'>>>*********************         ",
"                                                                                ",
"                                                                                ",
"                                                                                ",
"                                                                                ",
"                                                                                ",
"                                                                                ",
"                                                                ###             ",
"         %%              #%%%#   ##%#########+              ###%%####+          ",
"         --%             %---%   %-%--%-%-%%%%#+           #%%%%%#%##+.         ",
"         ---%            %%%%%   #%%%%%%%%%%%%%#+        #%%%%%####+++.         ",
"         ----%           %%%%#   #%%%%%####%#####       #%%%%###++++...         ",
"         %----#          #%%%#   #%%##+    +#####.     #%%%%##+      .          ",
"         %%---%#         #####   +####      ++#++.    +#%##++                   ",
"         %%%%%-%#        ###++   +###+       ++++.    #%##+.                    ",
"         %%%%%%%%#       +#+..   +#+++       ++...   +##++.                     ",
"         #%%%%%###+      ++...   +++..      ......   +##+..                     ",
"         ##%#######+     .....   .....     ......    .++..                      ",
"         #####++#++++    .....   ...............    ......                      ",
"         ++##++ +++...   .....   ...............    ......                      ",
"         +++++.  .+....  .....   ................   ......                      ",
"         +++++.   ............   .................  ......                      ",
"         ......    ...........   ......     ......  ......                      ",
"         ......     ..........   .....       ......  .....                      ",
"         ......      .........   .....        .....  ......                     ",
"         ......       ........   .....        .....  ......                     ",
"         ......        .......   .....       ......   ......                    ",
"         ......         ......   .....       ......   .......                   ",
"         ......          ...+.   .+.++.    .++++++.    ++++++++      +          ",
"         +++++.           ++++   ++++++#++##+#+#++      +########+####+         ",
"         +++##+            +##   +############%##+       #%%%%%%%%%%%%+         ",
"         ##%#%+             +#   %%%%%%%%-%%-%%#          +%-%-%-%-%--#         ",
"          ++++               +    +##+###++#++              #%%-----%#          ",
"                                                              %%%%%%            ",
"                                                                                ",
"                                                                                ",
"                                                                                "};
