/* XPM */
static char * NICK_xpm[] = {
"80 80 12 1",
" 	c None",
".	c #FF8C08",
"+	c #FF9418",
"@	c #FF9C29",
"#	c #FF9C39",
"$	c #FFA542",
"%	c #F7A55A",
"&	c #FFAD52",
"*	c #FFBD6B",
"=	c #F7C68C",
"-	c #FFC684",
";	c #FDFDFD",
"                                                                                ",
"                                                                                ",
"                                                                                ",
"                                                                                ",
"                                                                                ",
"                                                                                ",
"                                                                                ",
"                                                                                ",
"                                                                                ",
"                                                                                ",
"                                                                                ",
"                                                                                ",
"                                                                                ",
"                                                                                ",
"                                               ...                              ",
"                                             %....                              ",
"                                             .....                              ",
"                              ==             .....                              ",
"                             =++=            ....                               ",
"                             =++=             ..                                ",
"                              +++         %%=                      =.%          ",
"                              =++        +@@+%                   =....          ",
"                              %+%       +#$$#+                  ..==            ",
"                             +@@@  =%+= @$&&$@ =.                               ",
"        %=                  @#$$$@=+@@@@$&**$@ %+           %%                  ",
"       ...%                +#&**&$##$$$$&***&#@@+        == +=                  ",
"      =....             ==%@$****&&&******-*&&$#+       +++                     ",
"       ...  =%%         +@@$&*---***--------*&&#@      ++++                     ",
"           =+@@+=       @#$&**--------------**&$#@+++ ++++                      ",
"           +@###@=  =+@@$&*******----------***&$$###@@@++=                      ",
"           ++@#$#@ +@##$&***&$$&**------*****&&$$$###@@+%                       ",
"            ==@#$######$&&&&#@@#$&******&&&&&$$##$##@@@++                       ",
"               @#$$$#@@@#$$#@;;+#$&&&&&$$##$$#@@@##@+++++=                      ",
"               =@$&$@=;=@##@;;;%@###$$$#@++@@@+=++++;;+++%                      ",
"                @$$$@;;;=@@+;;;%+@+@@#@++%%+++;;;++%;;+++%                      ",
"                @#$#+;;;;+++;;=+++;=+++%;;;;++;;=++;;;+++=                      ",
"                +##@%;;;;=++;;=++=;;++%;;;;;++;;%++;;%+++                       ",
"                 @@+=;;;;;+%;;=++;;;++;;%%;;++;;..;;;++++=                      ",
"                 +@+;;;;;;.;;;=++;;;+%;;++==+%;;;;;;+++++.                      ",
"                 +@+;;;;;;;;;;++%;;=.;;;+++++%;;;;;++++++.                      ",
"                %@@+;;;%;;;;;;++=;;++;;=+++++;;;;;.++++++.                      ",
"               %+@@+;;;.=;;;;;++;;;++;;+++++.;;;;;%++++++.                      ",
"               ++@@+;;=+=;;;;;++;;;++;;+++;%.;;;;;;.++++..                      ",
"               %@@+%;;=++;;;;=++;;;++;;..=;%.;;=.;;;.++..%                      ",
"               ++++;;;=++=;;;=++;;;+.;;;;;;..;;%.%;;;....                       ",
"               %+++;;;%++=;;;++.;;=++=;;;;;..;;=..;;;...%                       ",
"                +++;;;++++;;;++=;;;+++;;;;.+..%....;%...                        ",
"                %++;;;++++;;;+++;;%+++.%..+++...........                        ",
"                 ++;;;+++++==++++++++++..+++.............                       ",
"                 ++%=%++++++++++++++++++..................%                     ",
"                 =+++++++++++++++++++++..............=   ...=                   ",
"                  .++++++++++++++++++.................    %..%                  ",
"                  =++++++++++++++.....................=    %..  =               ",
"                   =++++++++......................%  =         ...=             ",
"                    =.++++...=...................     =.         %              ",
"                     ......%   === =............       %.=         ...          ",
"                      ....          ............        %..         =......=    ",
"                     =...           =............=       =..           %....=   ",
"                     ...             .......  ....=                      %..    ",
"                    %..%             ......%    ...                             ",
"                   =...%              %...%      ==                             ",
"                   .....                                                        ",
"                  =....%                                                        ",
"                  %....%                                                        ",
"                  =....                                                         ",
"                   ...=                                                         ",
"                                                                                ",
"                                                                                ",
"                                                                                ",
"                                                                                ",
"                                                                                ",
"                                                                                ",
"                                                                                ",
"                                                                                ",
"                                                                                ",
"                                                                                ",
"                                                                                ",
"                                                                                ",
"                                                                                ",
"                                                                                "};
