/* XPM */
static char * NRJ_12_xpm[] = {
"80 80 13 1",
" 	c None",
".	c #490B0D",
"+	c #9F0F11",
"@	c #E5090A",
"#	c #66474A",
"$	c #D35250",
"%	c #8A747B",
"&	c #7A9577",
"*	c #A0A0A0",
"=	c #DB8B86",
"-	c #C5B9B8",
";	c #E3D7D3",
">	c #F7F8F6",
"                                                                                ",
"                                                                                ",
"                                                                                ",
"                                                                                ",
"                                                                                ",
"                                                                                ",
"                                                                                ",
"                                                            &&&%*               ",
"                                                          %%%%$%%%&             ",
"                                                         %=$+$$$==*%            ",
"                                                        &*#+@@$@$==-            ",
"                                                        %%+@@@@@$@$;;           ",
"                                                        *#.@@@@@@$@=-*          ",
"                                                        *..@@@@@@@$$==&         ",
"                                                        *#+@@@@@@@@@=%&         ",
"                                                        -*.+@@@@@@@$$%          ",
"                                                         -#.@@@@@@@$$%          ",
"                                                         **#.+@@@@++=#&&        ",
"                                                          %*#..+.+$--#&*        ",
"                                                           &%&*%%=*%##*         ",
"                                                           &#*-*##...%;*        ",
"                                                        &%*%##.++++++=;*        ",
"                                                        **...+@+@@@@@=-*        ",
"                                               *&&&&&   *%..+@@@@@@@@$=-        ",
"                                            &%%%%%=**%& *%.++@@@@@@@@$=*        ",
"                                        &%%%$$++$@$$==*%%%....+@@@@@@$$*        ",
"                                    %&%%%##++@@@@@@@$=-**%..#.+@@@@@@$$*        ",
"                               &&&%%%##+@@@@@@@@@@@@@@$;>*%%-%+@@@@@@@$=        ",
"                              %%%##..++@@@@@@@@@@@@@@@@=;;&&-*.@@@@@@@$*        ",
"                              *%...+++@@@@@@@+...+@@@@@@=;&*-%+@@@@@@@@*        ",
"                    &&%&      *#.++@@@@@@@@...%#..@@@@@@$;*&-%.@@@@@@@@*        ",
"                 %&%##$-*     &#++@@@@@@@@+%--*;%.@@@@@@$=*&-%.@@@@@@@@*        ",
"             &%%%%$++++$;*    *#.++@@@@@@@+-&..-&.@@@@@@$=-%-%.+@@@@@@@%        ",
"          %%%%##+@@@@@@@=;*   *#...+@@@@@@+-#..*%+@@@@@@$=*-*%.@@@@@@@@%        ",
"         &*#.+++@@@@@@@@$=;%& *%##.+@@@@@@#;*&* .+@@@@@@$=* *%.@@@@@@@+%        ",
"         **.++@@@@@@@@@@@$=-&#&*-%.+@@@@@@#*-%$++@@@@@@@$%  *%.@@@@@@@+=        ",
"         *%.+@@@@@@@@@@@@@$-*%#%*%.@@@@@@@$#+++@@@@@@@++=%  %%.@@@@@@@+%        ",
"         *&.@@@@@@@@@@@@@@@=;;&#*%.@@@@@@@$@@@@@@@@@+++=%   *#.@@@@@@@+%&       ",
"         -%..++@@@@@@@@@@@@@=;;**#.@@@@@@@@@@@@@@@+..$%#    %%.@@@@@@@+%&       ",
"         *#..#++@@@@@@@@@@@@@$;--#++@@@@@@@@@@@@@@%%=%&     &#.@@@@@@@+#&       ",
"         -*%*=.@@@@@@@@@@@@@@@$-*#+@@@@$$=$$$@@@@@=>;*      %#+@@@@@@@+#&       ",
"         %%&&*.@@@@@@@@@@@@@@@@@=$+@=-;>>>>>>;-=+@@->-*     %#+@@@@@@@+#&       ",
"            *%.+@@@@@@@@@@@@@@@@@$$->>>>>>>>>>>>;=++--*%& &*$+@@@@@@@++%&       ",
"            *&.@@@@@@@@++@@@@@@@@=>>>>>>>>>>>>>;>>-$+==$%%#%++@@@@@@@@.%&       ",
"            *%.@@@@@@@+..+@@@@@$>>>>>>>>>>>>>>>>>>>;$++@@+@+@@@@@@@@++#*        ",
"            *%.@@@@@@@..#.+@@@$;>>>>>>>>>>>>>>>>>>>;;#++@@@@@@@@@@@@+.%%        ",
"            *#.@@@@@@@.#-..+@$;>>;>>>>;==$$$$$===-;;>-#.+@@@@@@@@@@++#*#        ",
"            -#.@@@@@@@+%>-#..=;=$$;>>=@@@@@@@@@@@@@=;;-#..++@@@@+++..-%         ",
"            *..@@@@@@@+%**;##>=@@@;>-@@@@@@@@@@@@@@@=;;*##..........-%#         ",
"            *#.@@@@@@@+%*&%  >=@@@>>=@@@@@@@+@+@@@@@$-*-####......#--.          ",
"           **.+@@@@@@@+*&  *>>=@@@;>$@@@@$======$$@@+--*>*%###.#&->-.&          ",
"           **..@@@@@@@+**   >>$@@@>>$@@@$>>>>>>>>=@@@=-*-;>;>;>>>;%.            ",
"           **.+@@@@@@$$*   >>>$@@$>>$@@@$>>>>>>>>;@@+=*-*&;>>>>;&.#             ",
"           *&.+@@@@@@@$*&  >>>=@@@>;=$$$->>>>>>>>=@@@=***;;;-&##.               ",
"          &-%.+@@@@@@@#**  >>>$@@@>>>>>>>;;--==$$$@@@=***%.##.#                 ",
"       &%%%%..+@@@@@@@$*   >>>$@@$>>>>=$$@@@@+@@@@@@@-**-                       ",
"       **#....@@@@@@@@+*   >>>$@@@>>;=@@@@@@@@@@@@@@$;*&-                       ",
"       *&...+@@@@@@@@@#*   >>>$@@@>>;@@@@@@@@@@@@@@+=>*%;                       ",
"       *%.+@@@@@@+++++$*   ;>>$@@$;>=@@@@@@@@@$@$$=-->-*                        ",
"       *%.+@+++....#%$%&   >>>$@@@>>=@@@@$==-;----;--;*-                        ",
"      **%..+....#%%%%       ;>=@@@;>$@@@$;>>>>;;;-***;*;                        ",
"       -#...##%&%&          >;=@@@;>$@@@$$=$=$$$$$@@@-->                        ",
"      **###%%%&              ;-@@@;>$@@@@@@@+@@@@@@@+-;                         ",
"       -%%%&                 ;-@@@-;=@@@@@@@@@@@@@@@$;;                         ",
"      %%&                     -$$+=;$+@@@@@@@@@@@@@$=;                          ",
"                              ;----;*$$$$$+$$$$=%=-;;;                          ",
"                               ;*---------=*=***-;>;-                           ",
"                                 *****&*&**----->>;-                            ",
"                                  **--*&%&%&%&*;>--                             ",
"                                    *;;--**&%-;;-                               ",
"                                      ;;;-----;                                 ",
"                                                                                ",
"                                                                                ",
"                                                                                ",
"                                                                                ",
"                                                                                ",
"                                                                                ",
"                                                                                ",
"                                                                                ",
"                                                                                "};
