/* XPM */
static char * ORF1_xpm[] = {
"80 80 15 1",
" 	c None",
".	c #000000",
"+	c #070707",
"@	c #111111",
"#	c #1F1F1F",
"$	c #353535",
"%	c #575757",
"&	c #42A927",
"*	c #4FBE32",
"=	c #69C451",
"-	c #61DC3F",
";	c #84D46F",
">	c #78F550",
",	c #A1E78D",
"'	c #F1F9EF",
"                                                                                ",
"                                                                                ",
"                                                                                ",
"                                                                                ",
"                                                                                ",
"                                                                                ",
"                                                                                ",
"                                                                                ",
"                                                                                ",
"                                                                                ",
"                                                                                ",
"                                                                                ",
"                                                                                ",
"                                                                                ",
"                                                                                ",
"                                                                                ",
"                                                                                ",
"                                                                                ",
"                                                                                ",
"                                                                                ",
"                                                                                ",
"                                                                                ",
"                                                                                ",
"                                                                                ",
"                                                                                ",
"                                                                                ",
"                                                                                ",
"                                                                                ",
"                                                                                ",
"                                                       ->>>>>>>>>-====*=*=*&    ",
"                                                       >,,,,,,,,,;;;;;;;;;;=    ",
"                                                       -,,,,,,,,,,,;,;;;;;;=    ",
"                                                       >,,,,,,,;;;;;;;;;;;;=    ",
"          #$$##$        $$$$$$$$       $$$$$$$$$$      -;,,,;;;;;;;;;;;;;;;-    ",
"        ##$$$$$$#      #$$$$$$$$#@     #$$$$$$$$$      >;;;;;;;;,,,;;====;--    ",
"       @##########+    @#####@####@    ######@##@      >>;;;;;;;''';=====---    ",
"      .++++    ++++    +++.    ++++    +++.            -;;;;==='''';==****--    ",
"      ....      ....   ....    ....    ....            >>>;===='''';&&&&**--    ",
"     ....       ....   ....    ....    ....            >>;-====;'''=&&&****-    ",
"     ....       ....   ....   .....    ..........      >>---=**&,''=&&&&**--    ",
"     ....       ....   ...........     ..........      >>--=***&,''=&&&****-    ",
"     ....       ....   ..........      ....            >>--***&&,''=&&&&****    ",
"     +@@@+      @@@@   @@@@  +@@@      @@@@            >---**&&&,''=&&*&****    ",
"      #$$#     ##$#@   ##$#   #$$#     #$##            >>-****&&,''=&&&*****    ",
"      @$$$$   #$$$$    $$%#   #$$$$    $$$$            >>--***&&,''=*&*&****    ",
"       #%%%%%%%%%$     $%%%    $%%%$   %%%%            >--***&*&,''=*****-=*    ",
"        $$%%%%%%$      %%%$     $%%%   %%%$            >---****&,,,========*    ",
"            %                                          >---*=*========;;;;;=    ",
"                                                       >>-=======;;;;;;,;,;=    ",
"                                                       ->;;;;;;;;;;,,,,,,,,=    ",
"                                                       ***=*=======>;>>>,>;-    ",
"                                                        &&&&&&&&&***--->---     ",
"                                                                                ",
"                                                                                ",
"                                                                                ",
"                                                                                ",
"                                                                                ",
"                                                                                ",
"                                                                                ",
"                                                                                ",
"                                                                                ",
"                                                                                ",
"                                                                                ",
"                                                                                ",
"                                                                                ",
"                                                                                ",
"                                                                                ",
"                                                                                ",
"                                                                                ",
"                                                                                ",
"                                                                                ",
"                                                                                ",
"                                                                                ",
"                                                                                ",
"                                                                                ",
"                                                                                ",
"                                                                                ",
"                                                                                ",
"                                                                                ",
"                                                                                "};
