/* XPM */
static char * ORF2_xpm[] = {
"80 80 15 1",
" 	c None",
".	c #010101",
"+	c #0C0C0C",
"@	c #1F1F1F",
"#	c #353535",
"$	c #C70A29",
"%	c #F00F33",
"&	c #575757",
"*	c #D02D3E",
"=	c #ED304D",
"-	c #E24D5B",
";	c #EA616F",
">	c #F37388",
",	c #EB9E29",
"'	c #F6E217",
"                                                                                ",
"                                                                                ",
"                                                                                ",
"                                                                                ",
"                                                                                ",
"                                                                                ",
"                                                                                ",
"                                                                                ",
"                                                                                ",
"                                                                                ",
"                                                                                ",
"                                                                                ",
"                                                                                ",
"                                                                                ",
"                                                                                ",
"                                                                                ",
"                                                                                ",
"                                                                                ",
"                                                                                ",
"                                                                                ",
"                                                                                ",
"                                                                                ",
"                                                                                ",
"                                                                                ",
"                                                                                ",
"                                                                                ",
"                                                                                ",
"                                                                                ",
"                                                                                ",
"                                                       %============*******$    ",
"                                                       =;>>>>>>;;;;;;;-;---*    ",
"                                                       =>>>>>>>>>>>;>;>;;>;=    ",
"                                                       =;>>>>>>>;;;;;;;;;;-=    ",
"          @##@@#        ########       ##########      =;>>;;;;,,,,,;----;==    ",
"        @@######@      @########@@     @#########      =-;;;;;,'''''';---==%    ",
"       +@@@@@@@@@@+    @@@@@@+@@@@+    @@@@@@@@@@      =-;---,''''''''-*==%%    ",
"      .+++.    ++..    ..+.    .+..    .+..            ==----,'',,,''',$%%%%    ",
"      ....      ....   ....    ....    ....            %-=-=*-,,-**,'''*$%%%    ",
"     ....       ....   ....    ....    ....            ====*****$$$,'',%$%%%    ",
"     ....       ....   ....   .....    ..........      %==****$$$$*,'',$$%%%    ",
"     ....       ....   ...........     ..........      %=%%$$$$$$,''',*$$%%%    ",
"     ....       ....   ..........      ....            %%%$$$$$$,,'',*$$$$%%    ",
"     +++++      ++++   ++++  ++++      ++++            %%%%$$$*,''',*$$$$%$%    ",
"      @##@     @@##+   @##@   @##@     @#@@            %%%$$$*,''',*$$$$$$%$    ",
"      @####   @####    ####   @####    ####            %%%%$$,'''',,,,*$$%$$    ",
"       @&&&&&&&&&#     #&&&    #&&&#   &&&&            %%%$$*,'''''''',$%*%*    ",
"        ##&&&&&&#      &&&#     &&&&   &&&#            %%%$$$,,,,,,,,,-*===*    ",
"            &                                          %%$%$**-----,-,---;-*    ",
"                                                       %==**-*-*----;;;;;>;*    ",
"                                                       *=-------;;;;;>>>>>>=    ",
"                                                       $**********--=-=--;-*    ",
"                                                        #$$#$$$$$$$$%%%%%%%     ",
"                                                                                ",
"                                                                                ",
"                                                                                ",
"                                                                                ",
"                                                                                ",
"                                                                                ",
"                                                                                ",
"                                                                                ",
"                                                                                ",
"                                                                                ",
"                                                                                ",
"                                                                                ",
"                                                                                ",
"                                                                                ",
"                                                                                ",
"                                                                                ",
"                                                                                ",
"                                                                                ",
"                                                                                ",
"                                                                                ",
"                                                                                ",
"                                                                                ",
"                                                                                ",
"                                                                                ",
"                                                                                ",
"                                                                                ",
"                                                                                ",
"                                                                                "};
