/* XPM */
static char * Playhouse Disney_xpm[] = {
"80 80 15 1",
" 	c None",
".	c #8F136A",
"+	c #8C4761",
"@	c #C55643",
"#	c #599F44",
"$	c #2EA4BC",
"%	c #CF8145",
"&	c #73B994",
"*	c #DFA84C",
"=	c #A2CD4D",
"-	c #E8CC23",
";	c #EECE49",
">	c #EFE83F",
",	c #F5E747",
"'	c #F6F53C",
"                                                                                ",
"                                                                                ",
"                                                                                ",
"                                                                                ",
"                                                                                ",
"                                                                                ",
"                                                                                ",
"                                                                                ",
"                                                                                ",
"                                                                                ",
"                                                                                ",
"                                                                                ",
"    ##++..++##                                                                  ",
"#++............+##                                                              ",
".................++#                                                            ",
"....................##                                                          ",
"........+....+.......+#                                                         ",
"...+...................#                                                        ",
"+.....++@%%%%@++........#                                                       ",
"...+@*;;,>->;,;;%@.......#                                                      ",
"..%;'----------->,*+......#                                                     ",
"@;-----------------'%.....+                                                     ",
">------------------->*.....#                                                    ",
"------;>>>,>>>>------>*.....                                                    ",
"---->>'>>>,>,>,',>---->%....+                                                   ",
"-->,>>>>>>>>>>>>>>'>---'@...+                                                   ",
";,>>>>>,,>>>>>>>>>>,,-->*....                                                   ",
",>>>>>>>,>>>>>>>>>>,>'-->%...#                 #######                          ",
">>>,>>>>>>>>>>>>>>>>>,'--*...+              #++........++#                      ",
">>>>>>>>>>>>>>>>>>>>>>>,>-+..+             +..............+#                    ",
">>>>>>>>>>>>>>>>>>>>>>>>>-@..+           #........+@@@@+....+#                  ",
">>>>>>>>>>>>>>>>>>>>>>>>'>%..+          +......@*;;;>>>;;%+...#                 ",
">>>>>>>>>>>>>>>>>>>>>>>>>'%..+         #.....+*---------->-*+..+#               ",
">>>>>>>>>>>>>>>>>>>>>>>>>'%..+        #.....%>>------------->%...               ",
">>>>>>>>>>>>>>>>>>>>>>>>''%..+        +....%>-->>>>>>>>;-----'*...              ",
">>>>>>>>>>>>>>>>>>>>>>>>>'*..#       +....%>-''>>>>>>'>>>>------+..             ",
">>>>>>>>>>>>>>>>>>>>>>>>>'%..        ....+-''>>>>>>>>>>>>>,---->*..+            ",
">>>>>>>>>>>>>>>>>>>>>>>>>,@..       #....*''>>>>>>>>>>>>>>>'>--->*..#           ",
">>>>>>>>>>>>>>>>>>>>>>>>';+.+       +...+,'>>>>>>>>>>>>>>>>>>>--->@..           ",
">>>>>>>>>>>>>>>>>>>>>>>>'*..        +...%'>>>>>>>>>>>>>>>>>>,,>----..+          ",
">>>>>>>>>>>>>>>>>>>>>>,,'@.#        ....;'>>>>>>>>>>>>>>>>>>>>';-->@..#         ",
">>>>>>>>>>>>>>>>>>>,>'>';..#       #...+,,>>>>>>>>>>>>>>>>>>>>>'---*..#         ",
">>>>>>>>>>>>>>>>>>>>>>''+....+##    ...@'>>>>>>>>>>>>>>>>>>>>,>'>---+..         ",
">>>>>>>>>>>>>>>>>>>>>>'*+.......+# #...@'',>>>>>>>>>>>>>>>>>>>>>>-->%..#        ",
">>>>>>>>>>>>>>>>>>>>>>>;**%++......+...%'>>>>>>>>>>>>>>>>>>>>>>>'>->%..+        ",
">>>>>>>>>>>>>>>>>>>>'>,,'''',;*++......+''>,>>>>>>>>>>>>>>>>>>>>>>---..+        ",
">>>>>>>>>>>>>>>>>>>>>>>'>>>',''';*+....+,>>>>>>>>>>>>>>>>>>>>>>>>'-;-...        ",
">>>>>>>>>>>'>>'''>>>>''>>'>>>>'>'',*+...,'>>>>,>>>>>>>>>>>>>>>>>>>--*...        ",
">>>>>>>>,';%;,;*,'>>,,=%*,,'>,>,>''''*..*'>>>>>>>>>>>>>>>>>>>>>>,,>--...#       ",
",>>>>>>'''*+;;@@@;$=>$&+@%%>'===',>,'';+*'>>>'>>>>>>>>>>>>>>>>>>>,--*...        ",
";'>>,''=='%+,>%@@%$&>$&++++*=##==&$,==',>,>>,,>>>>>>>>>>>>,>>>>>>,->%..+        ",
"+;''=&$$$&*+;@@@@%$='$&+*,%+&='=&$&'$&%@@;'>',>>>>>>>>>>>>>>,>>>>,->@..+        ",
"..%,=$$&&$&%*.@%.=$$$$&+*;&+ ===&$=>$&@@%*'==>'>>>>>>>>>>>>>>>>>',--+..+        ",
"...*>$&'=$$+*@@@@*=&$$&+*,+%;##==$&$$=@@*;=#==>>>>>>>>>>>>>>>>>>>>-*...#        ",
"..+>>$$&&$*@**;;*'>&&&,*,;*;>==->&$$&*%@@=# =#-,>>>>>>>>>>>>>>>>'-;...+         ",
".+;'>&$$$&;%%%%%-,=&&,;;,,'','>>'>&=,%@@.*#=#==',>>>>>>>>>>>>>>'>>@...#         ",
"+,'>>&$='';;;;-*@@*''%@@*,,>>>>>>''''>%@*=#==-'>>>>>>>>>>>>>>>>,>@....          ",
";'>>>=&''>',,';;,-@%;@@%*''>>'>>'>>'>>'''>=#=->'''>>>>>>>>>>>>'>@....#          ",
"'>>>>,,>>>>>''%@;,,%%%%-;;;'';',;>'>''>'>>'>>'>;*''>>>,>>>>''';+...+#           ",
">>>>>>>>>>>';*@@@@*;@***@%**;%;%@*-*%;'>>>>>>>'*.+*,'''''''';%.....#            ",
">>>>>>>>>>,'%*@@*%@;%@%@@%*@@@%@%;@%@*'>>>>>>>'=...+%%*;**%@.....+#             ",
">>>>>>>>>>>';*%@,';*@%@*@@@@%@@@-*@@%;>>>>>>>>>'%...............+               ",
">>>>>>>>>>>>'-@@%%@@*;%;%@%-;**@%*.@*''>>,>>>>>'%............+#                 ",
">>>>>>>>>>>>>'-%*%*-'',''''',',,,%@;''>>>>>>>>>',+....+ ####                    ",
">>>>>>>>>>,,>>',,'''>>'>>'>,>>>';@%'>>>>>>>>>>>''+....#                         ",
">>>>>>>>>>,>>>>>>,>'>>>>>>>,,>>>,%*'>>>>>>>>>>>>'%....+                         ",
">>>>>>>>>>>>>>>'>>>>>,,>>>>>>>>,,,'>,,>>>>>>>>>>'*.....#                        ",
">>>>>>>>>>>>>>,,>>>>>>>>>>>>>>>,>''>,>>>>>>>,>>,';.....#                        ",
",,,,,,,,,,>,,>,,,>,>,,>,>,,>,,,,>>>,,>>,,>,>,>,,',.....+                        ",
"                                                  ##+###                        ",
"                                                                                ",
"                                                                                ",
"                                                                                ",
"                                                                                ",
"                                                                                ",
"                                                                                ",
"                                                                                ",
"                                                                                ",
"                                                                                ",
"                                                                                "};
