/* XPM */
static char * PREMIERE SPORT 1_xpm[] = {
"80 80 17 1",
" 	c None",
".	c #BE2E16",
"+	c #BF451E",
"@	c #C06123",
"#	c #CC5945",
"$	c #CC7746",
"%	c #C5812E",
"&	c #D58B28",
"*	c #D88476",
"=	c #D89238",
"-	c #DA9945",
";	c #E5AAA1",
">	c #E6B87C",
",	c #E4C6B3",
"'	c #EFD1A9",
")	c #F3DCD8",
"!	c #FBF8F7",
"                                                                                ",
"                                                                                ",
"                                                                                ",
"                                                                                ",
"                                                                                ",
"                                                                                ",
"                                                                                ",
"                                                                                ",
"                                                                                ",
"                                                                                ",
"                                                                                ",
"                                                                                ",
"                                                                                ",
"                                                                                ",
"                                                                                ",
"                                                                                ",
"                                                                                ",
"                                                                                ",
"==--------------------=-=-===-============================&&&&&&&&&&&&&&&&&&&&&&",
"-->-------------------------------------=-=-===============-=-=-=-=-=-=====&&&&&",
"-=->->->-->-----------------------------------------=-==---=========&&=&=&--=-=&",
"-=>----->--->->-->-->--------------=--=-=-=----=====-=-===&==-=&==&======&&&&&&&",
"-=--->---->=-----------------------==---=-====-=--=====&==-==&-====%&&=&==&&=&=&",
"-->----------->-----------------=-----==-=----=======%====&&&=&=&&&&=%&=&%=&%&&&",
"-=->--->--------------------------===--=====%=-=%==-&========&%==&==&&=&&&&&&&=&",
"----------------------------=-====---==-====&%==&==&=&%&==&%==&&==&&&&%&&&&&%&&&",
"---->--------------------==-==-=-======%======&-&=====&&=&&&&&=&&&&=&&&=&&&&&&&&",
"=--------------------=-==-==--===-=%=======&===&-&=&=&===%&=&%&=&&&&&&&&&&&&&&&&",
"=---------------=-==-=-==--===-==&==-====&-=&=%&=&%&&%&&&&&=&&&&&%&&&&&@&&&&&@&&",
"==--------====&==%===%&%==&&%&%&&&%&&&&&&&&&&&&&&&&==&=&==&&&&&&&&&&&&&&&&&&&&&&",
"=------=>'''''''''''''''''''''''''''''''''''''''''>%@@@@@@+@@@@@+@+@+@+@+++@+&&&",
"==----&>!!!)))!))))!!!)))))))))!)!!))))))))!)))))!'@.........................+&&",
"&&==--=>!)*#*#;*###;;*##**#####;;*;*##*####;;*.#;!'@.+..+.+.+..+.............%@&",
"&&--==->!;*,!##*;)****))**;;#)*.**#*))**;)#*#*!)!)>++.++...#;;;;*+...........&&&",
"&&&==&>'!*#***#*#*###**;#*);*);.####***##*####**!,$+....#..*)!!!);+.........+&&&",
"@&&===-)!*#;;;#**#;##**;#;)#;;*####***#**#*##**;!'$.#.+....,!!!!!)$........++%&&",
"&@&&&=>!!*;!!!*;!;;*;;;;#;)*);**#;*;);#))*;**;;)!>@....+.+.;;)!!!)*........+@&@&",
"&&&@&=>!),)!!!;)!);),;;);));!););!;*;;;!));!;;;))>@...+......#!!!)#........+@&&&",
"&@&&&&>,,,,,',,,,',,,',,,,',,,,,,,,',,,',,,,,,','%+......+...#!!!;+........@&&&&",
"&@&&&@@%$$%$$$$%$$$$$$$$$$$$$$$$$$$$$$$$$$@$@@$@@@+..+.......*!!!*.........+%&&&",
"&&@&&@+.++$$$$$##$@$#@++++@$@++++@##@+.++@+#+++.@@..........#;!!)*........+@&&@&",
"&&&&&@..#*;;;;***;;;;*#+#*;;;*++*;;;;*#*;;*;;;#.@+..+.......*!!!;+........+@&&&&",
"&&@&&+.+;!!)!!;;!!))!!*#,!!)!!*#))))!!;,)!!!))*.%++...+.+...*!!!;+........@%&&&&",
"@&&&&+.*!;#...+;!*.+;!;;!;..*!;*!;#.*!;#.*!*...+@..+.+.....+;!!!#.........@%&&&&",
"&&@&@.+*!!);;##;!;*;)!;!)#..*!);!,**;!;.#;!#...@@++..+.+#**;)!!!**$+......@&&&&&",
"&&&&@..#;,,,!;;,!,),)**!;#..;));!))));#.#)!+...@+...+..#;,))!!!!)))#+....@@%&&&&",
"&&&&+.+.#**;!);))*;*##*!*#.#));,!*;!)#..*))...+@++++.+.*)!!!!!!!!!)+..+..@@&&&&&",
"@&&&+.#****;!;))*....#*!,*#;!;;),.#,!*..*!;...+%.#.+.+.*))))))))));.++..+@%&%&%&",
"&&%@+#*!!!!))#))*..+..#)!!!!;.;!;..;!)..))*...+%.+#.+.+.#+#++.#+##+...++.%%&=&&&",
"&&&@.+#*#***#.*##......#***##.#*#..##*..###..#@##..#.#......+.......#...#%&&=&=&",
"&&&@@@+@++++@++@+@#@@#@++@#@+@+++@#+@+#@##+@+@@@@#@#@+@#@#@##@#@@#@#@##@@%-&===&",
"&&%%%%%%%%%%%%%%%%%%%%%%%%%%%%%%%%-%%%=%=%%%%%%%%%%%%%%%%%%%%%%%%%%%%%%%%=&=%==&",
"&&=&%%%%%%%=%==%=====&==&=&========&=&=&==-=--%-%%%%-%-%-%===-=-=-==-=---======&",
"&&=======&==%===&%=======&======&&==-======%-=%=---=-======&-&=-=============-==",
"&&=&==&==&===&&-==&=====-&===-=--==========&=&=&&==%=%===-=-=====-=====%==-==-==",
"=%===&===-=&==-&===&========&==========-==----=-==-=-=-===-&-----==------=-=--==",
"&====-====-===-=-======-=-=-=====-==--====&==-=-==-=--=--=-=-%=---======----%-==",
"==-======-==--===---=-==-====-=-==--%==-----==-=--=-=---=-=-==-%--------=-=----=",
"&&=--==-===-%=--==%--===------=-=-=----=-=---==---===-=---%--=--=--=-------==--=",
"==-=--===--=--==---=----=--==----=-==---=-=-----=----==--------=-----------=---=",
"==-==---=--=-------==--=----=--=----------=-----=-------------------------------",
"====-==--=-==-=%=----%---==---=-----=---------=-------=-------------------------",
"&%-=--=-%===%====%==-==%=-=-=%=-==%=====-==-%-=-=-=---=-===---=-=---%=--------==",
"                                                                                ",
"                                                                                ",
"                                                                                ",
"                                                                                ",
"                                                                                ",
"                                                                                ",
"                                                                                ",
"                                                                                ",
"                                                                                ",
"                                                                                ",
"                                                                                ",
"                                                                                ",
"                                                                                ",
"                                                                                ",
"                                                                                ",
"                                                                                ",
"                                                                                "};
