/* XPM */
static char * PREMIERE SPORT PORTAL_xpm[] = {
"80 80 15 1",
" 	c None",
".	c #C7253C",
"+	c #CB4650",
"@	c #C56A36",
"#	c #D38622",
"$	c #D9797F",
"%	c #D68E32",
"&	c #D9953D",
"*	c #DB9A47",
"=	c #DC9E4F",
"-	c #DEA256",
";	c #E0A862",
">	c #E69DA8",
",	c #F0C6C8",
"'	c #FBF1F1",
"                                                                                ",
"                                                                                ",
"                                                                                ",
"                                                                                ",
"                                                                                ",
"                                                                                ",
"                                                                                ",
"                                                                                ",
"                                                                                ",
"                                                                                ",
"                                                                                ",
"                                                                                ",
"                                                                                ",
"                                                                                ",
"                                                                                ",
"                                                                                ",
"                                                                                ",
"*--------------===============*****************&&*&&&&&&&&&&&&&&&&&&%&%%&%%%%%%%",
"-;;;;;;;;;;;;;-;;;---------------=-========*=**=***********&*&*&&&&&&&&&&&&&&&%%",
"-;;;;;;;;;;;;;;;;;;;;;;;--------------============************&**&&*&&&&&&&&&&%%",
"-;;;;;;;;;;;;-;----------------==============************&&&&&&&&&&&&&&&&&%%%&%%",
"=;;;;;;;;;-;-;-;-;---------=-===========**************&&*&*&&&&&&&&&&&%&%&%&%%%%",
"=;;;;;;-;-;-------------=-===========***=********&*&&&*&&&&&&&&&&&&%&%&%%%%%%%%#",
"=-;;;--;---------------===========**************&*&&&&&&&&&&&&&&%&%&%%%%%%%%%%%#",
"=-;--------------=============*************&&&&&&&&&&&&&&&&&%&%%&%%%%%%%%%%%%%%#",
"=------------=-==-=======*=************&*&&*&&&&&&&&&&&&%&%%%%%%%%%%%%%%%%%%%#%#",
"*---------=============*************&&&&&&&&&&&&&&&&&%&%%%%&%%%%%%%%%%%%%#%##%##",
"*=-----=============************&*&&&&*&&&&&&&&&&%&%&%%%%%%%%%%%%%%%%%#%#%%#%###",
"*=--============*************&&&*&&&&&&&&&&&&&%&%%%%%%%%%%%%%%%%%%#%#%#%########",
"*==========*=***********&*&&&&*&&&&&&&&&&&%&%%&%%%%%%%%%%%%%%%%#%#%#%####%######",
"&========*************&&&&&*&&&&&&&&&&&%&%%%&%%%%%%%%%%%%%%#%##%#%##############",
"%*===************&*&&&&*&&&&&&&&&&&&%%&%%%%%%%%%%%%%%%%%#%#%##%#################",
"#&=************&&&&&&&&&&&&&&&&%&%%%%%%%%%%%%%%%%%%%%#%#%#%#%######%############",
"#%*****&&&&%&&%%&&%&%%%%%%%%%%%%%%%%%&%%%%%%%%%%%%#%%%%#%%#%#%#%#%##############",
"##%***&-;--;--;;-------;--=--=--==-&%@%@%@#@#@#@#@#@#@#@#@#@#@#@#@#@#@#@@#@#####",
"###&**#,',,',,,',,,,,,,'',,,,,'',,';+.......................................@###",
"####*&&,'$>$>>$>>>>>$>>$$>>>$>$$>,'@.+>>>>>$+.+............+++........+>$...####",
"#####&;,,$>$$$$+>>$>$$$++>>$$$+$>,,@.$,'''''>+.............>>+........$'>..@####",
"######;,,>,>>>>$>>>'>>>$$>>>>$>>,,,+.>''>>,''.++$+..++++..>''$..+++...,'>..@####",
"######;,,'',,',>>>,,,,>,,>>,,,,>>,;+.>',..$''+$,',$.$,,>>>'''>$+,,',+.''$..@####",
"######%=@$@$-$-$-$-$-$-$$=$-$=$@$*@.+,'>++,',,',>,'+$'''>>'',>>',$>',+',+..#####",
"######..+$$$+$$$+.+$>++@$$$++$$$++@.$'''',''>',$+,'>>''$+$''+.+$>$,',>'>+.@@####",
"######.$>$$$>>$>$$$>>>$$>$>>$>>>+...>'',,,>$>'>.+,',''$..>',..$>>$'',,'$..@##%##",
"#####@.>'>>$,'>,,',$$''>,>',$,,>+...,'>.+..+,'$.$'',',...,'$.$''$>',>''$..@#%%%#",
"#####..>'',$>'>',,>.+,',,,,$+,$..@.+,'>....+>'>.>'>,'>..$,'$+,'>.>',>',+.+#%%%#%",
"#####+.+$$',,>$+$,>.>,',$'>.$'+.+@.$''+.....$'''',$''>..$,''>,'','',>'>+.@#%%%%#",
"##%%#.$>>>,,>+..+>,>,$>>.,>+$,+..+.$>$+.....+$>,$$+$>+..+$,>$$>>>$>$$>$+.@%%%%%%",
"#%%%@.$>>>$$$+...$>,$+$$.$$++$+.@@.+++.+++++..+++..+++++.++++.++.+++++..+@%%%%%%",
"#%%%%@@@@@@@@@@@@@@@@@@@@@@@@@@@@@@@@@@@@@@@@@@@@@@@@@@@@@@@@@@@@@@@@@@@@%&&&&%%",
"%%%%%%######%%%%%%##%%%%%%%%%%%%%%%%%%%%%%%%%%%%%%&%%%%&&%&&&&&&&&%&%&&&&&&%&&&%",
"#%%%%%%%&%&%%%%%%%&%%%%%%%%&%&%&&&%&%&&&&&&&&&&&&&&&&&&&&&%&&&&&&&&&&&&&&&&&&&&%",
"%%&%&%&&&%&%&%&&&%&%&&&&&&&&&&&&&%&&&&&&&&&&&&&&&&&&&&&&&&&&&&&&&&&&&&&&&&&&&&&%",
"%%&&%&&%&&&&&&&%&&&&&&&&&&&&&&&&&&&&&&&&&&&&&&&&&&&&&&&&&&&*&&&&&*&*&*&*&*&***&&",
"%&&&&&&&&&&&&&&&&&&&&&&&&&&&&&&&&&&&&&&&&&&&&&*&&*&*&*&*&*&*&****&**********&*&&",
"%&&&&&&&&&&&&&&&&&&&&&&&&&&&&&&&*&*&**********&**&*****************************&",
"%&&&&&&&*&&*&*&*&*&******************&*&*&*&*********************************=*&",
"&&******&************&*********************************************===========*&",
"&********************************************==================================*",
"&**************************==================================================-=*",
"&****=*========================================================-=--=-=--------=*",
"&*==============================-=-=--=----------------------------------------*",
"&*==*=*==*==================================================--=-=-------------=*",
"&&*********************************************************************=**=*==*&",
"                                                                                ",
"                                                                                ",
"                                                                                ",
"                                                                                ",
"                                                                                ",
"                                                                                ",
"                                                                                ",
"                                                                                ",
"                                                                                ",
"                                                                                ",
"                                                                                ",
"                                                                                ",
"                                                                                ",
"                                                                                ",
"                                                                                ",
"                                                                                ",
"                                                                                "};
