/* XPM */
static char * PREMIERE 7_xpm[] = {
"80 80 15 1",
" 	c None",
".	c #191C69",
"+	c #23246D",
"@	c #2D2D73",
"#	c #363578",
"$	c #3F3C7C",
"%	c #4D4A83",
"&	c #685A61",
"*	c #6A6794",
"=	c #917753",
"-	c #9491AE",
";	c #DAAB33",
">	c #BFBBCA",
",	c #F6D36F",
"'	c #EBE4DC",
"                                                                                ",
"                                                                                ",
"                                                                                ",
"                                                                                ",
"                                                                                ",
"                                                                                ",
"                                                                                ",
"                                                                                ",
"                                                                                ",
"                                                                                ",
"                                                                                ",
"                                                                                ",
"                                                                                ",
"                                                                                ",
"                                                                                ",
"                                                                                ",
"                                                                                ",
"$%%%%%%%$%$%$%$$%$$$$$$$$$$$$$$$$$$$$$$$$$$$$$$$#$############################@@",
"$%%%%%%%%%%%%%%%%%%%%%%%%%%%%$%$%$%$$$$$$$$$$$$$$$$$$$$$$$$$$##################@",
"%%%%%%%%%%%%$$$$$$%%$$$$$$$%%$$$#$$$$#$###$$##$$###@###@@@@@#$$#@@@@@##########@",
"%%%%%%%%%%%*******%%******%$%%*****%******%%%*$$%****%*****%%##%%***%$########@@",
"$%%%%%%%%%$-'''''>**''''>>*$*->''>>>''''''>->>%*-'>'>>>'>''>-$$->>''>$#########@",
"%%%%%%%%%%%>'>-->'>-'>-->'>*>'>----'>>>'->>>'-->'-----'>-->'>*-'>---*@@#####@#@@",
"$%%%%%%%%%*'>%%%-''>'*$%-'>>'-%$$%-'-*>'%>'>'-'>*$$$$>'*$@*''>>>$$#$$@##@#@#@#@@",
"$%%%%%%%%%-'>***>>>'>-**-'>>'------'**'>#>>>'-''*--*->'-**-'->'-*-**%@#@#@@@@@@@",
"$%%%%%%%$%>''>>>'>-''''''>-'''''''>'%-'-%''>'>''''''>>''''''*''''''>*@@#@#@@@@@@",
"$%%%%%%%$%>'>>>>-*-'>->'>%-'>***%->>%-'**''>'>>-****-'>->'>$*'>****%#@@@@@@@@@@@",
"$$%%%$%$$*'>*%%%$%>'*#-''$-'>%%%$-'-%>'%->'>>>'-$$%#-'-$%>'**'>%$$$$@@@@@@@@@@@+",
"#$%$%%$$%*'>%#$$#*''%+%>'-*>'>>>->'*-'>#>'''--''>>>-''%@+-'>%>'>>>>*.@@@@@@@@@@@",
"+$%%$%%$%->*$$$$#*>-$#$->-%->'''>->%*--#>->>%#->'''->>@@+*>>@*>'''>*.@@@@@@@@@++",
".#%$%$$$$$$$$%$$$$##$$$#####@@@@@#@##@@#@@++@#@@++++++@###+++++....+@@@@@@@@@@+.",
".#$%$$$%$$$$$$$$$$$$$$$$##$$#########@@@@@@@###@@@@@@@@@@@@@@@@@@@++++++++++++..",
".+#%$%$$$$$$$$$$$$$$$$$$$$#$#$####@@#&*&*&%$++@####@#@#@#@@@@++++.++......+++...",
"..@$$$$$$$$$$$$$$$$$$#$$#$####$#@$&*--,>,>,=*&$+@#@#@@@@@+++++..................",
"..+#$$$$$$$$$$$$$$$$#$#$###$####%*,','',',,',,=%@@@@@+++........................",
"...+#$$$$$$$$$$$$#$###########@&>,'''','',',,,,=&...............................",
"....++##$$$$$$$$$$$$$$$$#$####&>,'',',',,',,,,,,;&..............................",
".......++@@@@@@@@@@@@@@@@@@++&,,'',',',',,,,,,,,,;$.............................",
"..............++++++........%=,'',',',',,',,,,,,,;;#............................",
"............................=,,','',',,,,,,,,,,;;;;=+...........................",
"...........................&,,',',,$+@@@@@++++.=,;;;&...........................",
"...........................&,,,,'',............&;;;;=...........................",
"..........................+,,,,,,,,&&&&&&&&+...=;;;;=@..........................",
"..........................&,,,,,',',,,,,,,=$..&;;;;;;&..........................",
"..........................&,,,,,,,,,,,,,;;&..&=;;;;;;&..........................",
"..........................=,,,,,,,,,,,,,,&..@=;;;;;;;=..........................",
"..........................=,,,,,,,,,,;,;&..+=;;;;;;;;=..........................",
"..........................=,,,,;,;;;;,;=...=;;;;;;;;;=..................+..+..+.",
"..........................&,,;,,;,;,;;=+..&;;;;;;;;;;&..++++++++++++++++++++++++",
"....................+.+...&;,,;,;;,;;;@..&;;;;;;;;;;;&.+.+.+++++++++++++++++++++",
".+++++++++++++++++++.++++.$;,;,;,;;;;$..&=;;;;;;;;;;=$++++++++++++++++++++++++++",
"+++.+++++++++++++++++++++++=,;,;;;;;&..&=;;;;;;;;;;;=@++++++++++@+++@++@@@@@@@++",
"++++++++++++++++++++++++++.&;,;;,;;&+.$=;;;;;;;;;;;;&.@@@@@@@@@@@@@@@@@@@+@+@+@@",
"++++++++++++@+@+@+@+@@@@@++$=;,;;;=#+#=;;;;;;;;;;;;=$+@@@@@@@@@@@@@@@@@@@@@@@@@@",
"++@@@@@@@@@@+@@@@@@@@+@+@@@@&,;;,;=====;;;;;;;;;;;;&+@@@@@@@@@@@@@@@@@@@@@@@@@@@",
"@@@@@@@@@@@@@@@@@@@@@@@@@@@+#=;,;;;;;;;;;;;;;;;;;;&@@#@@@@@@@@#@#@#############@",
"@@@@@@@@@@@@@@@@@@@@@@@@@@#@@#=;;,;;;;;;;;;;;;;;==@@#@#########################@",
"@@#@@##########################=;;;;;;;;;;;;;;=;=@##############################",
"@###############################*;,;;;;;;;;;;;=&@#############$$$$$$$$$$$$$$$$##",
"@#############################$##%&=;;;;;;;==&&$#$$$$$$$$$$$$$$$#$$$$#$$$$$$$$$#",
"##$##$#$$$$$$$$$$$$$$$$$$$$$$$$$##$%*&====&&%$##$$$$$$$$$$$$$$$$$$$$$$$$$$$$$$$#",
"##$$#$$#$#$#$#$#$#$#$$$$$$$$$$$$$$$##$#######$$$$$$$$$$$$$$$$$$$$$$$$$$$$$$$$$$$",
"@##################################$#######$$##$$#$$$$$$$$$$$$$$$$$$$$$$$$$$$$$#",
"                                                                                ",
"                                                                                ",
"                                                                                ",
"                                                                                ",
"                                                                                ",
"                                                                                ",
"                                                                                ",
"                                                                                ",
"                                                                                ",
"                                                                                ",
"                                                                                ",
"                                                                                ",
"                                                                                ",
"                                                                                ",
"                                                                                ",
"                                                                                ",
"                                                                                "};
