/* XPM */
static char * PREMIERE_xpm[] = {
"80 80 15 1",
" 	c None",
".	c #BA0401",
"+	c #D10202",
"@	c #D2110F",
"#	c #D41F1C",
"$	c #D82B2B",
"%	c #CE3D11",
"&	c #DA3636",
"*	c #DB4141",
"=	c #DE514F",
"-	c #D8601F",
";	c #E1625B",
">	c #DF872C",
",	c #EBAC3A",
"'	c #F8D649",
"                                                                                ",
"                                                                                ",
"                                                                                ",
"                                                                                ",
"                                                                                ",
"                                                                                ",
"                                                                                ",
"                                                                                ",
"                                                                                ",
"                                                                                ",
"                                                                                ",
"                                                                                ",
"                                                                                ",
"                                                                                ",
"                                                                                ",
"                                                                                ",
"                                                                                ",
"*=;======================*=*=*********************&*&&&&&&&&&&&&&&&&&$&$$$$$$$$#",
"=;;;;;;;;;;;;;;;;;;=;====;==============***=;;;;,;;;;**&&*****&*&&&&&&&&&&&&&&$$",
";;;;;;;;;;;;;;;;;;;;;;;;;=;;;;=;=;===*=;;;,'''''''''',,;;=&&**********&&&&&&&&&$",
"=;;;;;;;;;;;;;;;;;;;=;=;=;===========;;,'''''';','''''''',;=*&&*&&&&&&&&&&&&$&$$",
"=;;;;;;;;;;;;;;;;=;=;=;=============;''';;;=======*=;;''''',;*&&&&&&&&&&&&$&$$$#",
"=;;;;;;;;;;;;;;=;;=;====;=======*=;'';;;;;=**********==;;,''',=$&&&&&&&&$&$$&$$$",
"=;;;;;;;;;;;=;=;=====;=========*;,,,;;=**************&&&*=;,'''>*$&&&$$$$$$$$$$#",
"=;;;;;;;;;=;;=;==;=============;,,;=************&*&*&*&&&&&*;''',*$$$$&$$$$$$$$#",
"==;;;;;=;=;==;=============*==;,;;**=*********&**&*&&&&&&&&&&*;'',=$$$$$$$$$$$##",
"=;;;;=;=;==;==============*=*;,;=*=**********&*&*&&&&&&&&&&&$&*;'',*#$$$$$$#$#$#",
"*=;;===;==============*=***=;;;=************&*&&&&&&&&&&&$&$&$$&;'',*#$$$$#$#$##",
"$===;===============*==**=*;;>**********&*&&&&&&&&&&&&&$$&$$$$$$$='',$$#$#$#$###",
"#*;=============*=*=***=**=;;******&*&*&&&&&&&&&&&&$&$$&$$$$$$$$##=''>$#$######@",
"+&;==========*=*=*=**=****;=&****&*&*&&&&&&&&&&&&$&$$&$$$$$$$$$$$$#;''*########+",
"+$=========*==*=*********=**&**&&&*&&&&&&&&&&&&$&$$$$$$$$$$$$$$$$###>',%@@###@++",
"+@&=====*=*=**=**=***********&&&*&&&&&&&&&&$&$$$$$$$$$$$$$$###@@@+@+#,'-.++@++++",
"++$===*=**=***************&&&*&&&&&&&&&&$&$$$$&$$&$$$$####@@@++++++++%',%.++++++",
"++@&**=*=*************&*&&&&&&&&&&&&$&$$$$$&$$$$$####@@+++++++++++++++>'-.++++++",
"+++@&*=***********&*&&&&&&&&&&&&&&$$$$$$&$$$$##@@@++++++++++++++++++++@',.++++++",
"+++++@$&;;;;;=**=;;;;=*&&&*=;==**-=-=-*$#-#++#%%%%@%%%%%+++++%%%%@+++++>,%.+++++",
"+++++++-,','''>&,',','>&$>,',',>,',',',>->-@>,,,,>>,,,,,,%+->,,,,%+++++-,>.+++++",
"+++++++-',>>>''-''>>>''--',>>>-,',,',,',,,--',>>>>',,>>''-%,'>>>>%.++++@,,..++++",
"+++++++>'%...>'>'-...,,>'>%....,,%%'%%,,'>,'>....@'>...-',>'%......+++++>,%.++++",
"++++++@,'%@@-''>'>%--',>',>>>>-'>.>'%%,>'>,'>>>>--',-%-',>',>>>>%+++++++-,%.++++",
"++++++%,'''''>%,'',''>->',>,>,-'-.,>.>'>',,',>,,>>'','',%>',,>,>-.++++++%>>.++++",
"++++++-,'>>>>%%',->''%%,'%%%%%>'%%'>%>'>',,,%%%%-,'>-,'>.>'-%%%%..++++++@>>..+++",
"++++++>'%.....%'-..-'-%>'%%@@@,,%-'%%,',,>,,.@@@%,>..-'>.>'%%@@@.+++++++@-,..+++",
"++++++,,%++++@-'-.+%',%-'',,,>'>%-'%%,,,>%>''',>>'>..%,'%%'',,'>+++++++++-,.++++",
"++++++--.+++++--%.++--%+-->>-%>%.--.%---%.%->->-->%.+@->%.%>>>-%..+++++++%,@.+++",
"++++++@.++++++@..+++@.+++.%.%.@.+@..+@.%..++%.%.....+++@.++@@.%..++++++++-,..+++",
"+++++++++++++++++++++++++++++++++++++++++++++++++++++++++++++++++++++++++%,@++++",
"+++++++++++++++++++++++++++++++++++++++++++++++++@+++@+++@+@+@+@+@@@@@@@+%,@.@@@",
"+++++++++++++++++++++++++++++@+@+@+@+@+@@@@@@@@@@@@@@@@@@@@@@@@@@@@@@@@@@%>#@@@@",
"+++@+@+@@@@@@@@@@@@@@@@@@@@@@@@@@@@@@@@@@@@@@@@@@@@@@@@@@@@@@@@@@@@@@@@@#->#@@@@",
"@@@@@@@@@@@@@@@@@@@@@@@@@@@@@@@@@@@@@@@@@@@@@@@@@@#@#@#@#@#@###########@$*-####@",
"@@@@@@@@@@@@@@@@@#@#@#@#@#####@##@######################################&-$#####",
"@###############################################################$#$#$#$#-=$#$$##",
"@################################$#####$#$#$#$#$$$$$$$$$$$$$$$$$$$$$$$$#=-$$$$$#",
"###########$#$#$#$#$$#$$$$$$$$$$$$$$$$$$$$$$$$$$$$$$$$$$$$$$$$$$$$$$$$$$-=$$$$$$",
"#$$$$$$$$$$$$$$$$$$$$$$$$$$$$$$$$$$$$$$$$$$$$$$$$$$$$$&$&$&$&$&$&&&&&&$***&&&&&$",
"#$$$$$$$$$$$$$$$$$$$$$$$$$$&$&$&$&$&&&&&&&&&&&&&&&&&&&&&&&&&&&&&&&&&&&&=*&&&&&&$",
"$$&$&&&&&&&&&&&&&&&&&&&&&&&&&&&&&&&&&&&&&&&&&&&&&&&&*&*&&*&*&**&******&=*&****&&",
"$&&&&&&&&&&&&&&&&&&&&&&&&*&&&*&&*&**&*&****************************************&",
"$&***&***&***************************************************=**=*=*=*========**",
"&&*&**&&***&**&************************************=**=*=*=*=*=****=*=***=**=**&",
"$&&&&&&&&&&&&&&&&&&&&&&&&&&&&&&*&&*&*******************************************&",
"                                                                                ",
"                                                                                ",
"                                                                                ",
"                                                                                ",
"                                                                                ",
"                                                                                ",
"                                                                                ",
"                                                                                ",
"                                                                                ",
"                                                                                ",
"                                                                                ",
"                                                                                ",
"                                                                                ",
"                                                                                ",
"                                                                                ",
"                                                                                ",
"                                                                                "};
