/* XPM */
static char * PREMIERE 6_xpm[] = {
"80 80 15 1",
" 	c None",
".	c #1A1C69",
"+	c #24256E",
"@	c #2E2E73",
"#	c #373678",
"$	c #403D7C",
"%	c #504C7E",
"&	c #6A6793",
"*	c #846E56",
"=	c #938FAB",
"-	c #CDA133",
";	c #BEB9C7",
">	c #EDC047",
",	c #FCE296",
"'	c #E5E2E9",
"                                                                                ",
"                                                                                ",
"                                                                                ",
"                                                                                ",
"                                                                                ",
"                                                                                ",
"                                                                                ",
"                                                                                ",
"                                                                                ",
"                                                                                ",
"                                                                                ",
"                                                                                ",
"                                                                                ",
"                                                                                ",
"                                                                                ",
"                                                                                ",
"                                                                                ",
"$$%%$%$%$%$$$$$$$$$$$$$$$$$$$$$$$$$$$$$$$$$$$#$###########################@@@#@@",
"$%%%%%%%%%%%%%%%%%%%%%%%%%$%$%$$%$$$$$$$$$$$$$$$$$$$$$$$$$$#$################@#@",
"%%%%%%%%%%%%$$$$$$%$$$$#$$$%%$$$#$$$#######$##$$###@##@@@@@@##$#@@@@@##########@",
"$%%%%%%%%%%&&&&&&&%%&&&&&&%$$%&&&&&&&&&&&&%%%&$$%&&&&%&&&&&%%##$%&&&%$########@@",
"$%%%%%%%%%$=''''';&&''''';&$&=;'';;;'''''';=;;%&;;'';;;'''';=$$=;';';$####@#@#@@",
"$%%%%%%%%%$'';==;''=';==;'==;';====';;;'=';;;;=;'=====';==;';&=';===&@@#@###@#@@",
"$%%%%%%%$%&';%%%='';'&#%=';;'=%$$%='=&;'%;';'=';&$$#$;'&#@&'';;;$$#%$@#@#@#@@@@@",
"$%%%%%%%%%=';&&&;;;';=&&=';;'======'&&';@;;;';''&===&;'=&&='='';&==&$#@@@@@@@@@@",
"$%%%%$%$$%;'';;;';='''''';=''''''';'%='=%'';';''''''';''''''&;''''';&@@#@#@@@@@@",
"$$%$%%%%$%;';;;;=&=';=;';%=';&&&%=';%='&&'';';;=&&&%=';=;';%&';%&&&%@@@@@@@@@@@@",
"$$%%%$$$$&';&%&%$%;'&#=''$=';%%%#='=&;'%=;';;;'=$$%@;'=$$''&&';%$$$#@@@@@@@@@@@+",
"#$%$$%%$%&';%####&''%+%;'=&;';;;=;'&&';#';''=='';;;=''%@+=';%;'';;;&.@@@@@@@@@@+",
"+$%%$$$$%=;&$$$$#&;=$#$=;=%=;''';;;%&;=@;=;;%$=;'''=;=#@+&;;@&;''';&.@@@@@@@@@++",
".#%$%$%$$$$$$$$$$$##$$$#####@@@@@@@##+@@@@++@@@@+++++@@@##++++.....+@@@@@@@@+@+.",
".@$$$$$$$$$$$$$$$$$#$$$$##$##########@@@@@@@###@@@@@@@@@@@@@@@@@+@++++++++++++..",
".+$%$$$$$$$$$$$$$$$$$$#$$$#$######@+#%&*&&%$++@##@#@#@@@#@@@@++++.+........+....",
"..@$$$$$$$$$$$$$$$$#$#$#########@$%&=>;,;>=**&#+@#@@@@@@+++++...................",
"..+#$$$$$$$$$$$$#$#$$##$########%&,,,',,,,,,,>*%@@@@@+++........................",
"...+#$$$$$$$$$$#$#$###########@%;,',',,,,,,,,,,-%...............................",
".....+@#$$$$$$$$$$#$$$$#####@#*;,,,,,,',,,,,,>,>-%..............................",
".......++@@@@@@@@@@@@@@@@@+++%>,,',',,,,,,,,>,>,>-%.............................",
"..............+.+.+.........$-,,',,,,,,,,,,,,,>>>>-#............................",
"...........................+*,,,,,,,,,,,,,>>>>>>>>>*............................",
"...........................%>,,,,,,,;=%@+.+@++->>>>-%...........................",
"...........................*,,,,,,,=%+........*>>>>>*...........................",
"..........................@-,>,,,,=@..@%%*%%%*->>->>-@..........................",
"..........................%>,,>,,;$..%->>>>>>---->->-%..........................",
"..........................*>,>,>,*..*->,>>>>>>>>>->--*..........................",
"..........................*>,>>>>*..*>>>>>>>>---->->-*..........................",
"..........................*,>,>,-%..#$%%$$#**-->-----*..........................",
"..........................*>>>>>-#..........+*----->-*..........................",
"..........................*>,>>>-#.+@###@@+..@-------*...+.+++++++++++++++++++++",
"..........................*>>>>>-#.#------*+.+----->-*..+++.+.+.+.+.+.+++++++++.",
"..+.+.+.+.+.+++++++++++++.$->>>>-%.+*>>----++.-------$.+++++++++++++++++++++++++",
"+++++++++++++.++++++++++++@*>>>>>*..**----*..*------*+++++++++++++++++++++++++++",
"++++++++++++++++++++++++++.*>>>>>-#+..##@...#*------*.+@@@@@@@@@@@@@@@@@@@@@@@@+",
"+++++++++++++++++++++++++++$*>>>>--$@@+@@@@%*------*$+@@+@+@+@@@@@@@@@@@@@@@@@@@",
"+++@+@+@+@@@@@@@@@@@@@@@@@@+*>>>>>--*******--------*+@@@@@@@@@@@@@@@@@@@@@@@@@@@",
"+@@@@@@@@@@@@@@@@@@@@@@@@@@+@*>>>>>>---*----------*#+@@@@@@@@@@@@@@#@#@#@#@#@#@@",
"@@@@@@@@@@@@@@@@@@@@@@@@@@@#@#*>>>->>------------*#@###########################@",
"@@@@@@@#@@#@#@#@###########@##@*->>->>->--------*@##############################",
"@###############################%->>->---------%#######################$#$$$$$##",
"@###############################$%&*-->>>>--**%$##$$$$$$$$$$$$$$$$$$$$$$$$$$#$$#",
"#########$#$#$#$$$#$$$$$$$$$$$$$###%&******%%$@#$$$$$$$$$$$$$$$$$$$$$$$$$$$$$$$#",
"##$#$#$#$#$#$#$##$$#$#$#$#$$#$$$$#$##########$$$$$$$$$$$$$$$$$$$$$$$$$$$$$$$$$$#",
"@##########################################$###$##$##$##$##$#$#$#$$$$$$$$$$$$$##",
"                                                                                ",
"                                                                                ",
"                                                                                ",
"                                                                                ",
"                                                                                ",
"                                                                                ",
"                                                                                ",
"                                                                                ",
"                                                                                ",
"                                                                                ",
"                                                                                ",
"                                                                                ",
"                                                                                ",
"                                                                                ",
"                                                                                ",
"                                                                                ",
"                                                                                "};
