/* XPM */
static char * PRIVATE GOLD_xpm[] = {
"80 80 11 1",
" 	c None",
".	c #6E4B29",
"+	c #7B5971",
"@	c #C34948",
"#	c #A77823",
"$	c #9D8ABF",
"%	c #D27E73",
"&	c #D6A334",
"*	c #EAAF1C",
"=	c #E2BFA8",
"-	c #EBC767",
"                                                                                ",
"                                                                                ",
"                                                                                ",
"                                                                                ",
"                                                                                ",
"                                                                                ",
"                                                                                ",
"                                                                                ",
"                                                                                ",
"                                                                                ",
"                                                                                ",
"                                                                                ",
"                                                                                ",
"                                                                                ",
"                                                                                ",
"                                                                                ",
"                                                                                ",
"                                                                                ",
"                                                                                ",
"                                                                                ",
"                                                                                ",
"                                                                                ",
"                                                                                ",
"                                                                                ",
"                                                                                ",
"                                                                                ",
"                                                                                ",
"                  =======       +@%%+%@@%@+$%@@%@@@%@+=$@$$@%%%+%@@%%+          ",
"               $=--&*****--=$   +@%%@%%@=%@==@@=%@%=@%-%@%=%%@%%=@@=%$          ",
"             $$-&&****&****&-    @%@@==@@@@==%@==%@=%=%%%@===@===%@%%           ",
"             --&***********&-&  @@%  $@@%=@%=@@= +@%=%@=%@%=%@%==@@%%@          ",
"            $-******-*******&.  +@@   %@% +%%@@%  +@ %#$$@+$%@@  %@%%+          ",
"           $******&#..#&***&.+                                                  ",
"          $-****&..+ ++..&-..                     ===+             $=-+         ",
"          -****#.+       #..                     =-*-.           $-**#+         ",
"         $-***&.          +                      -&**.           $***#+         ",
"        $-****.+                                 -***.           $***#+         ",
"        $-****.                                  -***.           $-**#+         ",
"        $****#      $-=-=-=-==%       ===--=     -***.      ==----***#+         ",
"        -&***&      =-*******&.     =-****&*-=   =&**.    $-*&***-***#+         ",
"        -****#     $*&*******&+   $=&&******&&$  -***.   $-&*********#+         ",
"        -&***#.    =-********&.   -****&#****&&  -&**.  $-&**&#&&****#+         ",
"        -****&+    &####&****&.  $-**&.. .&***#  -***.  =&**#....&***#+         ",
"        $&****#$   +.+..#&****.  -**&.    .***&.$-***. =-**&.   +#***#.         ",
"        $&****&&        =&***&+  -**#      &**& $-**&. =***#     +***#+         ",
"         &&****&$       $-***&.  ***#      -***  -***. %&**.      -**#+         ",
"         $&*****-=      =-***&#  ***#      -*** $-***. $***#      ***#+         ",
"          #&******-$$$$$-****&.  &**&#     -**&  -***. &***&+     -**#+         ",
"           #&******-----&&***&+  &***&=   $***#  -***. $&***&=   -***#+         ",
"            .&********&******&.  +&***&-=-&**&.  -***.  #****-==-&***#.         ",
"            +.&**************#.   #*******&**#   -***.  +#***&**&****#+         ",
"              .#&*********&#..    +.&******-..   -**-.   +#*********-#+         ",
"                .##&&&&##..         .##&&##.     %##..    +.#&&&.#&##.+         ",
"                   ....                ...       +           ..    .            ",
"                                                                                ",
"                                                                                ",
"                                                                                ",
"                                                                                ",
"                                                                                ",
"                                                                                ",
"                                                                                ",
"                                                                                ",
"                                                                                ",
"                                                                                ",
"                                                                                ",
"                                                                                ",
"                                                                                ",
"                                                                                ",
"                                                                                ",
"                                                                                ",
"                                                                                ",
"                                                                                ",
"                                                                                ",
"                                                                                ",
"                                                                                ",
"                                                                                ",
"                                                                                ",
"                                                                                ",
"                                                                                ",
"                                                                                "};
