/* XPM */
static char * ProSieben_xpm[] = {
"80 80 15 1",
" 	c None",
".	c #C31C21",
"+	c #C91F24",
"@	c #CD2226",
"#	c #D22428",
"$	c #D8272B",
"%	c #DD292E",
"&	c #E02C30",
"*	c #E13A3D",
"=	c #E4484B",
"-	c #E6585B",
";	c #E9686B",
">	c #EC7A7C",
",	c #EF8E90",
"'	c #F4AAAB",
"                                                                                ",
"                                                                                ",
"  %*=================================*==*=**=*****************************&*&&  ",
"  $-',,,,,,,,,,,,,,,,,,,>,>>>>>>>>>>;>>;;;;;;;;;;;;-;----------==========*=**&  ",
"  $;'''''''''''''''''''''''''',',,,,,,,,,,,>>>>>>>;>;;;;;;;;--------======***&  ",
"  $;''''''''''''''''',',,,,,,,,,,,,>,>>>>>>>>>;;;;;;;;;;--------====***&&&&&%&  ",
"  $>''''''''''''''',',,,,,,,,,,>,>>>>>>>>;>;;;;;;;;;;-----===****&&&&&&&&&&&&&  ",
"  $>''''''''''',',,,,,,,,,,,,>>>>>>>>>;>;;;;;;;;;--===***&*&&&&%%&&&&&&&&&&&&&  ",
"  $;'''''''',,,,,,,,,,,,,>>>>>>>>>>;;;;;;;;;--===***&&%%%%%&&&&&&&&&&&&&&&&&&&  ",
"  $;'''',,,,',,,,,,,,>>>>>>>>>>>;;;;;;;;;---=**%%%%%&&&&&&&&&&&&&&&&&&&&&&&&&&  ",
"  $;'',,',,,,,,,,,,>>>>>>>>>;;;;;;;;;;----=&&&&&&&&&&&&&&&&&&&&&&&&&&&&&&&&&&&  ",
"  $-',,,,,,,,,>,>>>>>>>>>>;;;;;;;;;------*&&&&&&&&&&&&&&&&&&&&&&&&&&&&&&&&&&&&  ",
"  $-,,,,,,,>>>>>>>>>>>;;;;;;;;;----------*&&&&&&&&&&&&&&&&&&&&&&&&&&&&&&&&&&&&  ",
"  $-,,,,>>>>>>>>>>;;;;;;;;;---------=====*&&&&&&&&&&&&&&&&&&&&&&&&&&&&&&&&&&&&  ",
"  $-,>>>>>>>>>>;;;;;;;;-;--------========*&&&&&&&&&&&&&&&&&&&&&&&&&&&&&&&&&&&&  ",
"  $-,>>>>>>>;;;;;;;;-;--------========**&&&&&&&&&&&&&&&&&&&&&&&&&&&&&&&&&&&&&&  ",
"  %=>>>>;;;;;;;;;---------========***&&&&&&&&&&&&&&&&&&&&&&&&&&&&&&&&&&&&&&&&&  ",
"  %=>>;;;;;;;;---;-----=====****&&*&&&&&&&&&&&&&&&&&&&&&&&&&&&&&&&&&&&&&&&&&&&  ",
"  %=>;;;;;------======*******&&&&&%&&&&&&&&&&&&&&&&&&&&&&&&&&&&&&&&&&&&&&&&&&&  ",
"  %*-=-=====******&&&%%&%%%%%&&&&&&&&&&&&&&&&&&&&&&&&&&&&&&&&&&&&&&&&&&&&&&&&&  ",
"  &&&&&&&&%%&&&%%%&&&&&&&&&&&&&&&&&&&&&&&&&&&&&&&&&&&&&&&&&&&&&&&&&&&&&&&&&&&&  ",
"  &&&&&&&&&&&&&&&&&&&&&&&&&&&&&&&&&&&&&&&&&&&&&&&&&&&&&&&&&&&&&&&&&&&&&&&&&&&&  ",
"                                                                                ",
"                                                                                ",
"                                                                                ",
"                                                                                ",
"                                                                                ",
"                                                                 %%$$$%&&***&&  ",
"                                                             %%&***===--;;>-*&  ",
"                                                        &&&***=-;>>,'''''''>=&  ",
"                                                     &&%%&=->,,,,,',,,,,,,'>*&  ",
"                                                  %%$%=->,,,,,'''',',',',,,>*&  ",
"                                               &%$&=-;>,,''',',,,,,,,,,,,,';*&  ",
"                                             &%&*=->,''',,,,,,,,,,,,,,,,,,,;*&  ",
"                                           &&&*=;,'',,,,,,,,,,,,,,,,,,,,,,,;&&  ",
"                                         &&&&=>,,,,,,,,,,,,,,,,,,,,,,,,,,,,-&&  ",
"                                       &&$&->,,,,,,,,,,,,,,,,,,,,,,,>,>,>>,-%&  ",
"                                     &&%&=;>,,,,,,,,,,,,,,,,,,,>,>,>,>,>,>,-$&  ",
"                                    &%&*->,,,,,,,,,,,,,,,>,>,>>,>,>,>>>>>>>=%&  ",
"                                  &&&&=;,,,,,,,,,,,>,>,>>,>,>>,>>>>>>>>>>>>=$&  ",
"                                 &&%&->,,,,,,>,>,>>,>,>>,>>>>>>>>>>>>>>>>>;*%&  ",
"                               &&&%*->,,>,>,>,>,>,>>>>>>>>>>>>>>>>>>>>>>>>-*%&  ",
"                              &&%&*;>,,>,>>>,>>>>>>>>>>>>>>>>>>>>>>>>>;>;>-*%&  ",
"                             &&%%=;>,,>>>>,>>>>>>>>>>>>>>>>>>>>>;>;>;;>;>;=%%&  ",
"                           &&&&%=;>,>>>>>>>>>>>>>>>>>>>>>>>;>;;>;>;;;>;;;;*%&&  ",
"                          &&&&%*;>>>>>>>>>>>>>>>>>>>>;>;>;>;;>;;;;>;;;;;;;*%&&  ",
"                         &&&&&*->>>>>>>>>>>>>>>;>;>;;>;;;;;>;;;;;;;;;;;;;-&%&&  ",
"                        &&&&&&->>>>>>>>>>>>;>;;;>;;;>;;>;;;;;;;;;;;;;;;;-=&&&&  ",
"                       &&&&%&=>>>>>;>;>;;;;>;;>;;;;;;;;;;;;;;;;;;;-;-;-;-*&&&&  ",
"                      &&&&&%*;>;>;>;;>;;>;;;;;;;;;;;;;;;;;;;-;-;--;-;----&%&&&  ",
"                     &&&&&%*->;>;;;>;;;;;;;;;;;;;;;;;;;-;-;-;-;-;-------*&&&&&  ",
"                    &&&&&&%=;;;;;;;;;;;;;;;;;;;;;;;-;--;;-------------;=*&&&&&  ",
"                   &&&&&&&&=>;;;;;;;;;;;;;;;-;-;---;-------------------=%&&&&&  ",
"                  &&&&&&&&*-;;;;;;;;-;-;---;--;---------------------=-=*%&&&&&  ",
"                 &&&&&&&&%=;;;;;;-;-;-;--;---------------------=-=-==-*&&&&&&&  ",
"                &&&&&&&&&&=;-;-----;----------------------=-===-====-=*&&&&&&&  ",
"               &&&&&&&&&&&-;---;-------------------=-=-===-==-=======*&&&&&&&&  ",
"              &&&&&&&&&&&&-------------------=-====-====-============&&&&&&&&&  ",
"              &&&&&&&&&&&&=------------=-=-====-=-=================**&&&&&&&&&  ",
"             &&&&&&&&&&&&&=--------=-==-=====-=================*=*=*&&&&&&&&&&  ",
"            &&&&&&&&&&&&&&=--=-==========-===============*=****=***&&&&&&%%%%&  ",
"           &&&&&&&&&&&&&&&*=-==-==-================*=*=*****=*****&%%%%%%%%%%%  ",
"           &&&&&&&&&&&&&&&&===================*=*****************&%%%%%%$$%$%%  ",
"          &&&&&&&&&&&&&&&&%*===========*=*******************&*&&$$$$$$$$$$$$%%  ",
"         &&&&&&&&&&&&&&&&&&&*===*=********************&*&&&%&&%$$$$$$$$$$$$$$%  ",
"         &&&&&&&&&&&&&&&&&&&&***=************&*&*&&%%&%$&$&$$$$$$$$$$$$$$$$$$$  ",
"        &&&&&&&&&&&%%%%%%%%%%%&*********&*&&%*$&$$&$&$&$$$$$$$$#$#$#########$$  ",
"       &&&&&%%%%%%%%%%%%%%%%$$$%&*&*&&&&&$$&$$$&$$$$$$$$$$$$###$#############$  ",
"       &%%%%%%%%%$%%%$$$$$$$$$$$$$$$$$$$$$$$$$$$$$$#$######################@#$  ",
"      &%%%%$$%$$$$$$$$$$$$$$$$$$#$$$$$$$$$$$########################@@@@@@@@#$  ",
"      %$$$$$$$$$$$$$$$$$$$$$$$$#$##$#$####################@#@#@#@@@@@@@@@@@@#$  ",
"     %$$$$$$$$$$$$$$$$##########################@@#@@#@@@@@@@@@@@@@@@@@@@@++@$  ",
"     $$$$$$#$#$#######################@#@#@@#@@@@@@@@@@@@@@@@@@@@@@@@+++++++@$  ",
"    %#$##$######################@#@#@@@@@@@@@@@@@@@@@@@@@@@+++++++++++++++++@#  ",
"    $####################@@@@@@@@@@@@@@@@@@@@@@@@++++++++++++++++++++++++.+.+#  ",
"   $#############@#@@@@@@@@@@@@@@@@@@@@@+++++++++++++++++++++++++.+.........+#  ",
"  %#@@@@@@@@@@@+@@@+++++++++++++++++++++.++++................................#  ",
"  %$##############################@#@#@#@@@@@@@@@@@@@@@@@@@@@@@+@+@+++++++++@$  ",
"                                                                                ",
"                                                                                "};
