/* XPM */
static char * RFM_TV_xpm[] = {
"80 80 14 1",
" 	c None",
".	c #040951",
"+	c #081E87",
"@	c #771038",
"#	c #FF0000",
"$	c #375798",
"%	c #DB1F1E",
"&	c #AD5B36",
"*	c #6D81B5",
"=	c #D17886",
"-	c #94ADD0",
";	c #ACD3E9",
">	c #E1E4EE",
",	c #FFFFFF",
"                                                                                ",
"                                                                                ",
"                                                                                ",
"                                                                                ",
"                                                                                ",
"                                                                                ",
"                                                                                ",
"                                                                                ",
"                                                                                ",
"                                                                                ",
"                                                                                ",
"                                                                                ",
"                             &%%%%%%%%%%%&                                      ",
"                          &%################%&&                                 ",
"                        %#######################%&                              ",
"                      &############################%&                           ",
"                     #################################%                         ",
"                    #####################################&                      ",
"                  &##########################%%%&&&&&&&&%##&                    ",
"                  #####################%%%==               &%&                  ",
"                 ##################%%&==-=-* $  $ $ $         &                 ",
"                %##############%%%&&$$$+++++++++++++++++$      %                ",
"               &##%##########%@@$++++++++++++++++++++++++++$    %&              ",
"               ######%####%@$+++++$+$+$+$++++++++++++++++++++$   #&             ",
"              %########%@@++++$$$$$**$*$$$$$$+++++++++++++++++$  %#&            ",
"             &#######%@@+++$$$**------***$$$+$+++++++++++++++++  &##            ",
"             %#####%@@+++$$$*--;;;;;---**$$$$+++++++++++++++++++  ###           ",
"             ####%%++++$$$$--;;;;;;;--**$$$+++++++++++++++++++++$ %##&          ",
"            #####@+++++$$*--;;;;;;;--***$$+$++++++++++++++++++++$-####          ",
"            ###%+++++$$**--;;;;;;;-***$$$++++++++++++++++++++++++=%###&         ",
"           %##@@++++$$$*--;;;;;;---*$$$$+++++++++++++++++++++++++=%####         ",
"           ##%@+++$$$$*--;;;;;;;-**$$$+++++++++++++++++++++++++++$#####         ",
"          &##++++++$$**-;;;;;;--**$$$$+++++++++++++++++++++++++++@#####&        ",
"          &#@++++++++$$$$$$*;--*$++++++++++++++++++++++++++++++++@%####%        ",
"          %%$++++$****$*$*$$+$*+$**********$+$**$+++++++++**$++++@######        ",
"          #=++++$>,,,,,,,,,>-+$+-,,,,,,,,,,;+-,,,-++++++$>,,,$+++@######        ",
"          %*+++++>,,,>,>,>,,,-++-,,,,>,>,>,-+-,,,,*+++++;,,,,$+++%######        ",
"         &=$+++++>,,*+$$$+*>,,$+-,,-+$$$$+$++-,,,,,$+++-,,,,,$+++%#####%        ",
"         & $+++++>,,+.+..+.>,>$+-,,*......+++-,,>>,>++*,,>>,>$+++%#####%        ",
"         &  +++++>,,-*****-,,>++-,,;******$++-,,**,,>*,,>$;,,$++@######&        ",
"         &  +++++>,,,,,,,,,,,*++-,,,,,,,,,*+.-,,*+-,,,,,$+>,>$++@%#####&        ",
"         &  $++++>,,>>>>,,,,*+++-,,>>>>>>>$++-,,*.+>,,,*++>,,$++@######         ",
"         %   ++++>,>*+$+$>,,*+++-,,*++++++++.-,,*++$>,-+++>,>$++%#####%         ",
"         #&   +++>,,$.+++$,,,$++-,,*+++++++++-,,*+++$;++++>,,$+@######&         ",
"         %#   $++>,,++++++*,,>++-,,$++++++++.-,,*.++++++++;,,$+@######          ",
"         %#%   $+***+++++++**-$+$-*$+++++++++$**$++++++.++$-*+.%#####%          ",
"         &##&   +.++++++++++++++++.+++++++++++.+.+++.+++.++..+@######           ",
"          ###&   ++++++++++++++++++++++++.+.+.+.++.++.+.++.++.@#####%           ",
"          %###&   ++++++++++++++++.*;;-;-;-;;--++.++.+.-*.+.+.%#####            ",
"          &####&   ++++++++++++++++$***=,-****,*.+..+.$,$....@#####%            ",
"           #%###%   +++++++++++++.++...+>*....*>+..+.+>-..+..@####%             ",
"           &#####%   ++++++++++++++.++++>*.+..+>-.+..->+....@#####&             ",
"            %######& ;+++++++++++.++.+.+>*..+..$,$..$,$.....@####&              ",
"             %######%=>$.++++++.+.+.+..+,*..+...->..>-......####%               ",
"              %#######=>*+.++++++.+.+.+.>*......+>=*>+.....@####                ",
"               %#######%=-++.+.+.+.....+,$.......$,,*.....@####                 ",
"                &########%=$..+....+.+..&+........$&......@###&                 ",
"                  #########%=+...+........................###&                  ",
"                   %#########%@..........................%##&                   ",
"                     %########%%@.......................%##&                    ",
"                      &%#########%@...................@@#%&                     ",
"                         %#########%@................@@#%                       ",
"                           &##########%@@..........@@##&                        ",
"                              &###########%@@@@@@%###%                          ",
"                                 &%%#############%%&                            ",
"                                      &&%%%%%%%&                                ",
"                                                                                ",
"                                                                                ",
"                                                                                ",
"                                                                                ",
"                                                                                ",
"                                                                                ",
"                                                                                ",
"                                                                                ",
"                                                                                ",
"                                                                                ",
"                                                                                ",
"                                                                                ",
"                                                                                ",
"                                                                                "};
