/* XPM */
static char * RTL9_xpm[] = {
"80 80 14 1",
" 	c None",
".	c #0D2B86",
"+	c #1D550B",
"@	c #CC0B0F",
"#	c #2C696F",
"$	c #425DA4",
"%	c #827A58",
"&	c #677FB4",
"*	c #E55D5E",
"=	c #A0AF8E",
"-	c #A4B2CD",
";	c #F2B61A",
">	c #F3DCA7",
",	c #F8F8F8",
"                                                                                ",
"                                                                                ",
"                                                                                ",
"                                                                                ",
"                                                                                ",
"                                                                                ",
"                                                                                ",
"                                                                                ",
"                                                                                ",
"                                                                                ",
"                                                                                ",
"                                                                                ",
"                                                                                ",
"                                                                                ",
"                                                                                ",
"                                                                                ",
"                                                                                ",
"                                                                                ",
"                                                                                ",
"                                                                                ",
"                                                                                ",
"             $&                                                                 ",
"         $%@*****&                                                              ",
"        *@@@@@@****&                                    ........$$$$ $& & &     ",
"       @@>>>>>>>>>>*%    ########################&#&   $.....-,-,-.$$ $$&&&     ",
"      @@@,,,,,,,,,,,>*   #++++++%%=%========%=%+++%%=   .....-,,,-...$.$$&&     ",
"     @@@@>,,,,,,,,,,,=*  ..+++++=,,,,,,,,,,,,,,+%++%#  $.....-,,,,......$ &     ",
"    $@@@@,,,,,,,,,,,,>*&  #+++++=,,,,,,,,,,,,,>+++%+&   .....-,,,-.......$&     ",
"    @@@@@,,,,,>>>,,,,,**& ..++++-,,,,,,,,,,,,,,++++#   $.....-,,,-...... $&     ",
"   $@@@@@,,,,*@@@*,,,,***   ++++=,,,,,,,,,,,,,>++%+&    .....-,,,-.......$&     ",
"   $@@@@@,,,,*@@@@>,,,*@*&  .+++++#++=,,,>++#+#+++#    $.....-,,,-.......$$     ",
"   @@@@@@,,,,*****,,,,*@**   ++++++++=,,,>++++++%+&     .....-,,,-....... $&    ",
"   .@@@@@,,,,,,,,,,,,>@@@%   .+++++++=,,,,+++++++#     $.....-,,,,.......$$     ",
"   @@@@@@,,,,,,,,,,,,*@@@*    +.+++++=,,,-+++++%%       .....-,,,-....... $$    ",
"   $@@@@@>,,,,,,,,,,*@@@@*    .++++++=,,,>++++++#      $.....-,,,-........$     ",
"   $@@@@@,,,,>*>,,,>@@@@@*     .+++++=,,,>++++%#        .....-,,,-.......$$$    ",
"   $@@@@@,,,,*@*,,,,*@@@@$     .+++++=,,,,++++#        $%==>>>,,,-.........     ",
"    .@@@@,,,,*@@>,,,>@@@@$      .++++=,,,>+++%% &==---->>>>>>>,,,,-&-&-&--&     ",
"    $@@@@,,,,*@@*,,,,*@@%       ..+++=,,,,++++=>>>>,,,,,,>;;>>>,,,,,,,,,,,-.    ",
"     %@@@,,,,*@@@,,,,,@@         #+++=,,,>++%=>;;>,,,,,,,,>;;>>,,,,,,,,,,,-.    ",
"      +@@,,,,*@@@=,,,**          ..++=,,,,+++;;;>,,,,,,,,,,>;>>,,,,,,,,,,,-.    ",
"      $@@->->*@@@*>*@@            #++%,,,>++=;;;,,,,,,,,,,,,;>>,----------$.    ",
"        $@@@@@@@@@@@$              +.=,,,>++;;;>,,,,>;;>,,,,>>,>...........     ",
"          $@@@@@@@$$                +++##++&;;;>,,,,;;;;,,,,>;>-                ",
"              #                     .+++++# ;;;>,,,,;;;;,,,,>>>-                ",
"                                     +++++  %;;;,,,,>>;,,,,,;;>>                ",
"                                     .+++#  *;;;>,,,,,,,,,,,;;>-                ",
"                                      .+..  %;;;;,,,,,,,,,,>;>>>&               ",
"                                      .+#   %;;;;;,,,,,,,,,;;;>>&               ",
"                                       .    %;;;;;;>>,,,,,>;;;>>=               ",
"                                            %*;;;;;;;,,,,,;;;;;>&               ",
"                                            &;;;;;;;>,,,,>;;;;;>=               ",
"                                            #*;;;;;;,,,,,;;;;;;;;               ",
"                                             ;;;;;;>,,,,>;;;;;;;;               ",
"                                            $%;;;;;>,,,,;;;;;;;;;&              ",
"                                             ;;;;;;;;;>>;;;;;;%;%&              ",
"                                             %;*;;;*;%;=%%%%$$                  ",
"                                             %%%%$$# $                          ",
"                                                                                ",
"                                                                                ",
"                                                                                ",
"                                                                                ",
"                                                                                ",
"                                                                                ",
"                                                                                ",
"                                                                                ",
"                                                                                ",
"                                                                                ",
"                                                                                ",
"                                                                                ",
"                                                                                ",
"                                                                                ",
"                                                                                ",
"                                                                                ",
"                                                                                ",
"                                                                                ",
"                                                                                ",
"                                                                                ",
"                                                                                ",
"                                                                                "};
