/* XPM */
static char * SAT_1_xpm[] = {
"80 80 15 1",
" 	c None",
".	c #010101",
"+	c #0B0A0B",
"@	c #191919",
"#	c #2B2B2B",
"$	c #3C3C3C",
"%	c #B80F57",
"&	c #4E4E4E",
"*	c #5351AA",
"=	c #2C824D",
"-	c #2179C2",
";	c #DD5414",
">	c #B6548D",
",	c #9B961B",
"'	c #8783C5",
"                                                                                ",
"                                                                                ",
"                                                                                ",
"                                                                                ",
"                                                                                ",
"                                                                                ",
"                                                                                ",
"                                                                                ",
"                                                                                ",
"                                                                                ",
"                                                                                ",
"                                                                                ",
"                                                                                ",
"                                                                                ",
"                                                                                ",
"                                                                                ",
"                                                                                ",
"                                                                                ",
"                                                                                ",
"                                                                                ",
"                                                                                ",
"                                                                                ",
"                                                                                ",
"                                                                                ",
"                                                                                ",
"                                                                                ",
"                                                                                ",
"                                                                                ",
"                                                                                ",
"                                                                                ",
"    #$$&$$&$$&$$$&#     @$$$$$$$$$$$$$$$#  #$$$$$$$$$$$$$$$#         #$$$$$#    ",
"   $&&&&&&&&&&&&&&$    @$&&&&&&&&&&&&&&$#  $&&&&&&&&&&&&&&$#         $$&&&&$#   ",
"  #$&&&&&&&&&&&&&&$    #&&&&&&&&&&&&&&&&@  $&&&&&&&&&&&&&&&#         #&&$$$&$#  ",
"  #$&$$$#$$#$#$#$##   @#&$$##########$$$@  #######$########@         @#####$#@  ",
"  ##$#+               @####+        +###@        @###+                   +#@#@  ",
"  @##@                @@#@@         +@@@+        ++@+.                    .++.  ",
"  +@++                +++++         ..+.+        ....                     ....  ",
"  ..+.+               +...+         ....+        .....                    ....  ",
"  +...............+   +...+         ....+        .....      -  '''        ....  ",
"  .................+  +...+         ....+        .....     -- *'''        ....  ",
"   +................  +...+         ....+        .....     --****  >>     ....  ",
"    ................  +...+         ....+        .....    -- ***  >>>>    ....  ",
"                ....  +...+         ....+        .....    =- *** %%>>     ....  ",
"                ++++  +++++         .++++        .....   ==- ** %%%%      ....  ",
"                +@@@  @@@@+         ++@++        ++@+.   ==--**%%%  %%    ++..  ",
"  +@@@@@@@@@@@@@@##@  +@##@@@@+@@+  +@#@@@       +@@@+    ==-*%%%% %%%    @+@+  ",
"  @$$$$$$$$$$$$$$$$#   #$$$#$#$#$#@ @##$##@      @##@+    ,=&&%%%%%%%%    @##@  ",
"  #$&&&&&$&$&$$$$&#@   @#$$$$$$$$#@ @#$$$$@      @$$#@    ,,,;%%%%%%      ###@  ",
"  @$$$$$$$$$$$$$$#@     @##$$$$$$#@ @#$$##@      @#$@+     ,,;;;;;;;      ###@  ",
"                                                             ,;;;;;             ",
"                                                             ;,  ;              ",
"                                                                                ",
"                                                                                ",
"                                                                                ",
"                                                                                ",
"                                                                                ",
"                                                                                ",
"                                                                                ",
"                                                                                ",
"                                                                                ",
"                                                                                ",
"                                                                                ",
"                                                                                ",
"                                                                                ",
"                                                                                ",
"                                                                                ",
"                                                                                ",
"                                                                                ",
"                                                                                ",
"                                                                                ",
"                                                                                ",
"                                                                                ",
"                                                                                ",
"                                                                                ",
"                                                                                ",
"                                                                                ",
"                                                                                ",
"                                                                                ",
"                                                                                ",
"                                                                                "};
