/* XPM */
static char * SF1_xpm[] = {
"80 80 15 1",
" 	c None",
".	c #E00426",
"+	c #E42342",
"@	c #E8445E",
"#	c #EC7218",
"$	c #ED6C80",
"%	c #EE8321",
"&	c #F08F4C",
"*	c #F299A6",
"=	c #F7DB0A",
"-	c #F9CDD4",
";	c #F9E650",
">	c #FBEE8B",
",	c #FDF5DD",
"'	c #FFFFFE",
"                                                                                ",
"                                                                                ",
"                                                                                ",
"                                                                                ",
"                                                                                ",
"                                                                                ",
"                                                                                ",
"                                                                                ",
"                                                                                ",
"                                                                                ",
"                                                                                ",
"                                                                                ",
"                                                                                ",
"                                                                                ",
"                                                                                ",
"                                                                                ",
"                                                                                ",
"                                                                                ",
"                                                                                ",
"                                                                                ",
"                                                                                ",
"                                                                                ",
"                                                                                ",
"                                                                                ",
"                                                                                ",
"  @$$$$$$$$$$$$$$$@$$@$@$&;;;;;;;;;;;;;;;;;;;;;;;;;;;;;;;;;;;;;;;;;;;;;;;;;;;;  ",
"  $$*$$$$$$$$$$$$$$$$$$$$&;>;>>;>;>;>;>;>;>;>;;;;;;;;;;;;;;;;;;;;;;;;;;;;;;;;;  ",
"  $$*$**$*$$$$$$$$$$$$$$$&>>>>;>;;;;;;;;;;;;;;>>;>>;>;>;>;>;;;;;;;;;;;;;;;;;;;  ",
"  $$$$$$$$***--***$$$$$$$&;;;>>>>>>>>>>>>>>>>;;;;;;;;;;;;;;;>>>>>>;;;;;;;;;;;;  ",
"  $$$$$$$*,'''''',-*$$$@$&;>;>,'''''''''''',>;;;;;;;;;;;;;;>>,,>,,>;=;;;;;;;;=  ",
"  $$$$$$-'''''''''''*$@$@&;;;>,'''''''''''',>;;;;;;;;;;;;;;>'''','>=====;;;;;;  ",
"  @$$$$-''''''''''''*$@@@&;;;>,'''''''''''',>;;;;;;;;;;;;=;'''''''>========;;=  ",
"  @$$$*,'''''',''''-$@@$@&;;;>,'''''''''''',>;;;;;;;;=====>'''''''>===========  ",
"  @@@$*'''''-***--'*@@@@@%;;;>,''''',,,,,,,>>;;;;;=======;,,''''''>===========  ",
"  @$@$-'''',$@@@@$**@@@++#;;;;,'''''>;;=;=;;;;;==========;>>>,''''>===========  ",
"  @@@$,'''',@@@@@@@++....#;;;>,'''''>;;;;;;;================;,''''>===========  ",
"  @@@$,'''''-$++.........%;;=;,''''';=======================;,''''>===========  ",
"  @@@$-''''',-*$@+.......#;;;;,''''',>>>,>>;================;,''''>===========  ",
"  +@+@*,''''''''-*$+.....#=;;;,''''''''''''>================;,''''>===========  ",
"  @+@@@-'''''''''''*+....#;;=;,''''''''''''>====############&-''''*###########  ",
"  ++@++@*'''''''''''-....#;==;,''''''''''''>===#............@-''''*...........  ",
"  ++++++@$*-'''''''',$...#=;=;,'''''''''''',===%............@-''''*...........  ",
"  ++++++.+@@$*-''''''*+..#=;=;,'''''>>>>>>>;===#............@-''''*...........  ",
"  .....+......@*'''''-+..#===;,''''';==========%............@-''''*...........  ",
"  .....++......+,''''-+..#====,''''';==========%............@-''''$...........  ",
"  ....+-*+.....+-''''-+..#===;,''''';==========%............@-''''*...........  ",
"  ....$,'*@....@'''''*+..#====,''''';==========%............@-''''*...........  ",
"  ...@,'''-$$$$-'''',$+..#===;,''''';==========%............@-''''*...........  ",
"  ...*''''''''''''''-+..+#====,''''';==========%............@-''''*.........+.  ",
"  ..+*'''''''''''''-$++++#===;,''''';========;=%............@-''''*.....++++++  ",
"  ...+$,''''''''''-$+++++#===;,'''''>=====;=;=;%............@-''''*+.+++.+++++  ",
"  ....+@*-''''''-*$@++++@%====>>>>,>;=;=;;=;=;;%............@*----$+++++++++@+  ",
"  ..+.+.+@$****$$@++@@@@@%===;;;;;;;;;=;;=;;;;;%...........++@$$@$@++++@@@@@@+  ",
"  ++++++++..+.++++@@+@@@@%=;=========;;=;;;;;;;%........+++.+..+++++@@+@+@@@@@  ",
"  +.++++++++++++@+@+@@+@@&==;=;=;;;;;=;;;=;=;;;%.....+.+..+++++++++++@+@@@@@@+  ",
"                                                                                ",
"                                                                                ",
"                                                                                ",
"                                                                                ",
"                                                                                ",
"                                                                                ",
"                                                                                ",
"                                                                                ",
"                                                                                ",
"                                                                                ",
"                                                                                ",
"                                                                                ",
"                                                                                ",
"                                                                                ",
"                                                                                ",
"                                                                                ",
"                                                                                ",
"                                                                                ",
"                                                                                ",
"                                                                                ",
"                                                                                ",
"                                                                                ",
"                                                                                ",
"                                                                                ",
"                                                                                "};
