/* XPM */
static char * SF2_xpm[] = {
"80 80 15 1",
" 	c None",
".	c #29429F",
"+	c #DF0225",
"@	c #882F6E",
"#	c #E32342",
"$	c #5166B2",
"%	c #E7445F",
"&	c #7284C1",
"*	c #EC6B80",
"=	c #9CA8D3",
"-	c #F299A8",
";	c #C4CAE4",
">	c #F9CBD3",
",	c #EFE9F0",
"'	c #FFFEFE",
"                                                                                ",
"                                                                                ",
"                                                                                ",
"                                                                                ",
"                                                                                ",
"                                                                                ",
"                                                                                ",
"                                                                                ",
"                                                                                ",
"                                                                                ",
"                                                                                ",
"                                                                                ",
"                                                                                ",
"                                                                                ",
"                                                                                ",
"                                                                                ",
"                                                                                ",
"                                                                                ",
"                                                                                ",
"                                                                                ",
"                                                                                ",
"                                                                                ",
"                                                                                ",
"                                                                                ",
"                                                                                ",
"  %***************%**%*%%@&&&&&&&&&&&&&&&&&&&&&&&&&&&&&&&&&&&&&&&&&$&&$&$&$&&$  ",
"  **-********************@=&=&&=&&&&&&&&&&&&&&&&&&&&&&&&&&&&&&&&&&&&&&&&&&&&&$  ",
"  **-*--*-****************==&=&&&&=&&&&&&&&&&=&=&&&&&&&&&&&&&&&$&&&&&&&&&&&&&$  ",
"  ********--->>---*******@&&&===;===;========&&&&&&&&&&&&&&=&====&&&$&&&&&&&&$  ",
"  *******-,'''''',>-***%*@=&&=,'''''''''''',=&&&&&&&&&&&&&=;,'''',;=$$$&$&$&&$  ",
"  ******>'''''''''',-*%**@&&&=,'''''''''''',=&&&&&&&&&&&=;''''''''',;$..$&&$&$  ",
"  %****>''''''''''''-*%%%@&&&=,'''''''''''',=&&&&&&&&&&&;''''''''''',;$.$.$$&$  ",
"  %***-,''''',,,'''>*%%*%@=&&&,'''''''''''',=&$&&&$$$$$=''''''''''''''&....$..  ",
"  %%%*-'''''>--->>'>%%%%%@&&$=,''''',;;;,;,;&&&$$$$$..$,'''',;==;,'''',$......  ",
"  %*%*>'''',*%%%%*-*%%%##@&&&&,'''''=&&$$$$$$$$$$.....&,''''=$...;'''''&......  ",
"  %%%*,'''',*%%%%%%##++++@$&$&,'''''=$$&$&$&$$.......$='''',$....&,''''&......  ",
"  %%%*,'''''-*##+++++++++@&$$=,'''''&$$$$$............;,'',;.....&;''''&......  ",
"  %%%*>''''''>-**#+++++++@$&$&,''''';======&..........$&&&&&.....=,''''&......  ",
"  #%#%-,''''''''>-*#+++++@$$$&,'''''''''''';....................$,'''';$......  ",
"  %#%%%>'''''''''''-#++++@$$$&,''''''''''''=....@@@@@@@@@@@@@@@@;,''''-@@@@@@@  ",
"  ##%##%>'''''''''''>#+++@$$$&,'''''''''''';...@++++++++++++++#-'''''>#+++++++  ",
"  ######%*->'''''''',%+++@$$.&,'''''''''''';...@++++++++++++++*''''',*++++++++  ",
"  ######+#%%*->''''''-#++@$$.&,''''';======&...@+++++++++++++*,'''',*+++++++++  ",
"  +++#++++++++%-'''''>#++@...$,'''''$..........@++++++++++++%>'''''*++++++++++  ",
"  +++++##++++++#,''''>#++@...$,'''''&..........@+++++++++++%>'''''-#++++++++++  ",
"  ++++#>-#+++++#>''''>#++@...$;'''''&..........@++++++++++#>'''''-#+++++++++++  ",
"  ++++*,'-%++++%'''''-#++@...$,'''''&..........@+++++++++#-'''''>%++++++++++++  ",
"  +++%,'''>****>'''',*#++@...$,'''''&..........@+++++++++-''''''>------%++++++  ",
"  +++-''''''''''''''>#++#@...$;'''''&.......$.$@++++++++-,'''''''''''''*++++#+  ",
"  ++#-'''''''''''''>*####@...$,'''''&...$.$$.$.@+++++++*>''''''''''''',*+#####  ",
"  +++#*,'''''''''',*#####@...$,'''''&$.$$$$$$$$@++++++%,'''''''''''''''*+#####  ",
"  ++++#%->,'''''>-*####%#@...$==;;;;&$$$$$$$$$$@+++++#->>>>>>>>>>>>>>>>%####%#  ",
"  +##+#+#**----**%##%%%%%@$.$.$&$$$&$$$$$$$$$&&@+++++#%%%%%%%*%********%#%%%%#  ",
"  #+#####+#++#####%%%#%%%@$$$$$.$$$$$$$$$$&$&$&@+++++++++++#++#++######%%%%%%%  ",
"  +##############%##%%%%%@.$.$$$$$$$$$$$$$$&$$&@++++++#+#############%#%#%%%%#  ",
"                                                                                ",
"                                                                                ",
"                                                                                ",
"                                                                                ",
"                                                                                ",
"                                                                                ",
"                                                                                ",
"                                                                                ",
"                                                                                ",
"                                                                                ",
"                                                                                ",
"                                                                                ",
"                                                                                ",
"                                                                                ",
"                                                                                ",
"                                                                                ",
"                                                                                ",
"                                                                                ",
"                                                                                ",
"                                                                                ",
"                                                                                ",
"                                                                                ",
"                                                                                ",
"                                                                                ",
"                                                                                "};
