/* XPM */
static char * Super RTL_xpm[] = {
"80 80 15 1",
" 	c None",
".	c #862623",
"+	c #D01525",
"@	c #AE4C1D",
"#	c #DB434E",
"$	c #CD7222",
"%	c #C7747B",
"&	c #EF8B28",
"*	c #F6A729",
"=	c #DDA4A9",
"-	c #F8B729",
";	c #FCC12B",
">	c #FDCD2A",
",	c #FFDA29",
"'	c #FFE72A",
"                                                                                ",
"                                                                                ",
"                                                                                ",
"                                                                                ",
"                                                                                ",
"                                                                                ",
"                                                                                ",
"                                                                                ",
"                                                                                ",
"                                                                                ",
"                                                                                ",
"                                                                                ",
"                                                                                ",
"                                                                                ",
"                                                                                ",
"                                                                                ",
"                                                                                ",
"                                                                                ",
"                                                                                ",
"                                                                                ",
"                                                                                ",
"                                                                                ",
"                                                                                ",
"                                                                                ",
"                                                                                ",
"                                                                                ",
"                                                                                ",
"                                                                                ",
"                                                                                ",
"                                                                                ",
"                                                                                ",
"                                                                                ",
"                                                                                ",
"         &-;>;*&   &**     &**    &*&&$*;;&       &*;;;*$     **&  &&           ",
"       &;,>--;>;   *,'$    ;',@   ,';*->,',*     *>;**;,;$   *',*&;,,           ",
"       -'>$.  $&   *,'$    ;',@   >';&@@$-'>&   *,*@  @-'*   &',,>>>;           ",
"      @,'>$@       *,'$    ;,,@   >'-@   $',-  &>'$    *'>$  &',*$.@@           ",
"       ;',-&$$     *,'$    ;'>@   >'-    @,,;  *,'*$&&$-',&  &',&               ",
"       $->,'',;&   *,'$    ;',@   >'-     >,>  *',>;-;;---$  &',&               ",
"        $$*->,,>$  *,'$    ;,,@   >'-    $>,;  *,'$@         &',&               ",
"            @*''&  *,'&    -',@   >'-    &',*  &,'&          *',&               ",
"      $&@   @-',$  &,';$$$*>',@   >';$  &;'>$   -'>$    @&$  &''&               ",
"      $>>---->>&    -,',>-->,>@   >'>;-;,';$    $*,,;;;;,>$  &',&               ",
"       &-;;>;*$     $*>;*$$$-*@   >'-&*-;*$       &*;;;;-$   &-*$               ",
"          @@@.       @@@@   @.    >'*@.@@.          @@@@.      .                ",
"                                 $>';@   +###%#++#####+++##++++                 ",
"                                 #;>&.   #====#++#%==%++#=%#+++                 ",
"                                  &@     #====%+++#%%+++@%%###+                 ",
"                                         ##%#%%#++#%%##+#%%%%#+                 ",
"                                          ...... ......  .....                  ",
"                                                                                ",
"                                                                                ",
"                                                                                ",
"                                                                                ",
"                                                                                ",
"                                                                                ",
"                                                                                ",
"                                                                                ",
"                                                                                ",
"                                                                                ",
"                                                                                ",
"                                                                                ",
"                                                                                ",
"                                                                                ",
"                                                                                ",
"                                                                                ",
"                                                                                ",
"                                                                                ",
"                                                                                ",
"                                                                                ",
"                                                                                ",
"                                                                                ",
"                                                                                ",
"                                                                                ",
"                                                                                ",
"                                                                                ",
"                                                                                ",
"                                                                                ",
"                                                                                ",
"                                                                                "};
