/* XPM */
static char * TELE 5_xpm[] = {
"80 80 15 1",
" 	c None",
".	c #FF0502",
"+	c #FF0E0A",
"@	c #FF1E10",
"#	c #FF2520",
"$	c #FF322D",
"%	c #FF453B",
"&	c #FF5C55",
"*	c #FF8781",
"=	c #FFA5A5",
"-	c #FFADA5",
";	c #FFADAD",
">	c #FFBEB8",
",	c #FFCEC6",
"'	c #FFD2CE",
"                                                                                ",
"                                                                                ",
"                                                                                ",
"                                                                                ",
"                                                                                ",
"                                                                                ",
"                                                                                ",
"                                                                                ",
"           ***************************************                              ",
"           +##########################+++++++++++$                              ",
"          >#$%%%%%%%%%%%%%%%%%%%%%%%$$$$$$$$$$##+&                              ",
"          $$%&&&&&&&&&&&&&&&&&&&&&&%%%%%%%%%%$#@+=                              ",
"         =#$&***************&&&&&&&&&&&&&%%%%$$+$                               ",
"         &#%&*****************&&&&&&&&&%%%%%%$#+>                               ",
"         %$&&&&&&&&&&&&&&*****&&&%%%%%%%%$$$$$++                                ",
"        =+$%%%%%%%%%%%%%&&***&&%%$$##########++=                                ",
"        *+#############$%&&&&&&%##++++++++++++.                                 ",
"                      &#$&&&&&%$#                                               ",
"                      =#%&&&&%%#+                                               ",
"                     =+#%&&&&%$+&                                               ",
"                     =#$%&&&%%#+*                                               ",
"                     ##%%&&&%$#+                                                ",
"                     +$%&&&%%$+=                                                ",
"                    %#$%&&%%$#+                                                 ",
"                    +#%%&&%%#+*                                                 ",
"                   &+$%%%%%$#+;          &#$$$$$$$$#####++++++++........=       ",
"                   +#%%%%%$$++>          #%&&&&%%%%$$$$#####++++........;       ",
"                   +$$%%%%$#+*          ,$&&&&&%%%%$$$$#####@+++.......=        ",
"                  ,+$$%%%$##+*          #%&&&%$#####++++++++++........$         ",
"                  +#$$%%$$#+%           #%&%$#$$%******&#+............&         ",
"                 '+#$$%%$##+&          &#$$#*;          ',>&..........&         ",
"                 %+#$$$$$#+.*         >++*                   $.......#          ",
"                 $+#$$$$##+#          #+                      ,......$          ",
"                =++#$$$##+.-         *                          $....-          ",
"                &++$$$$#@+.                                     ;....           ",
"                %+##$$##++#                                      *..$           ",
"               =++#####@+.                 >>>>,                  #.            ",
"               %+#####@@+.             >&&%@@@+@&&*               $.            ",
"              >.+@###@++.$            &############@*             #.            ",
"              >++@###+++.            $#$%%%%%%%%%%$#+&            *             ",
"              $++@#+@++..          '##%&&&&&&&&&&&%%#+            *             ",
"              .+@+@+++..%         >##%&&*******&&&&%$#&                         ",
"             ;+++@++++............#$%&&*********&&&%$++                         ",
"             ++++++++............#$%&&********&&&&%$$++                         ",
"             .+++++..............#%&*********&&&&%$$#+%                         ",
"            +.+++................#%&*******&&&&&%$##+.                          ",
"            .....................$%&&***&&&&&%%$$#++..                          ",
"           &.@@@@@@@@@@@@@@@@@@#.#%&&&&&&&&%%$$##++..                           ",
"                                .#$%&&&&%%%$$#+++...*                           ",
"                                #+$$%%%$$$##+++....*                            ",
"                                 ++######@+++.....*                             ",
"                                 =@+++++++......&>            &                 ",
"                                   -..........$              *+                 ",
"                                       &%.&-                 +#                 ",
"                                                            ++                  ",
"                                                           #+%                  ",
"                                                         *+#+                   ",
"                                                       ;&###+                   ",
"                                                     >&####+#                   ",
"                                                   '%###$$#+                    ",
"                            =*                   +####$$$$+$                    ",
"                            -+#%%           *&+###$$$%$%$#+                     ",
"                            #$%$$#############$$$%%%%%%$#++                     ",
"                            #%&&&&&%%%%%%%%%$$%%%%%%%%$$#+%                     ",
"                           *$&&**&&&&&&&&&&&%%%%%%%%%$$#++*                     ",
"                           #%&*******&&&&&&&&&%%%%%$$$#@++,                     ",
"                           #%&*******&&&&&&&&&%%%$$$$#@+.*                      ",
"                          &$&&*****&&&&&&&&&%%%$$$$##@++.*                      ",
"                          #$&&&&&&&&&&&&%%%%%$$$####+++.#,                      ",
"                          #%%&&&&&%%%%%%$$$$$####@+++...&                       ",
"                         %#$%%%$$$$$$$#####@@+++++......&                       ",
"                         +++##+++++++++++++++...........*                       ",
"                         ;;;;;;;;;;;;;;;;;;;;;;;;;;;;;;;                        ",
"                                                                                ",
"                                                                                ",
"                                                                                ",
"                                                                                ",
"                                                                                ",
"                                                                                ",
"                                                                                "};
