/* XPM */
static char * TERRA NOVA_xpm[] = {
"80 80 15 1",
" 	c None",
".	c #19371E",
"+	c #2D562D",
"@	c #4C7A42",
"#	c #659762",
"$	c #78A40D",
"%	c #76B46F",
"&	c #9FD206",
"*	c #87C87E",
"=	c #A1CE9D",
"-	c #93DC8E",
";	c #9DE297",
">	c #B2D5AF",
",	c #A4ED9E",
"'	c #BDF0B8",
"                                                                                ",
"                                                                                ",
"                                                                                ",
"                                                                                ",
"                                                                                ",
"                                                                                ",
"                                                                                ",
"                                                                                ",
"                                                                                ",
"                                                                                ",
"                                                                                ",
"                                                                                ",
"                                                                                ",
"                                                                                ",
"                                                                                ",
"                                                                                ",
"                                                                                ",
"                                                                                ",
"                                                                                ",
"                                                                                ",
"                                                                                ",
"                                                                                ",
"                                                                                ",
"                                                                                ",
"                       ;;;=,*###################%;                              ",
"                      ->>>>>>''''''''''''''''''''>;,                            ",
"                      %'>>>>>>>>>>>>>>>>>>>>>>>>>>>>>;                          ",
"                      %'>>>>>>>>>>>>>>>>>>>>>>>>>>>>>>-                         ",
"                      %'>>>>>>>>>>>>>>>>>>>>>>>>>>>>>>>-                        ",
"                      %>==============================>>%                       ",
"                      %>=======================>========,@                      ",
"                      %,================================>#                      ",
"                      %>=*=*=%@@@@@@@@@@@@@@@@@@#*======;%                      ",
"                      #;*=*==%..................+@*=*=*=*%@                     ",
"                      #-****;#.                   %=*****%@                     ",
"                      #*%***;#.                   %**%%%%%@                     ",
"                      ###%*#%#..                  %%%%%%%%@@                    ",
"   ++      ++++++   ++@+@#@@+@+.+++++++  &&&&&&&  &&&&&&&$#&$      && $&&       ",
"   ++      ++..+++ ++.+++@++++.....+.+++&&$$$$$&$ &$$$$$$&$$&$    &&$ &&$&      ",
"   ++.    ++....+++++.@@@@++@+..  ...+.+&&..  .$& &$++@+@&$.&&    &$.&&++&$     ",
"   +++++  ++++++++++. #*%@+@%#. ++++++++&$.    $&+&$#%%%#&$.$&$  &&++&$..&&     ",
"   ++...  ++.......++ %-%@+@*%..++...+.+&$     $$+&$#*-*%&$..$&  &$.$&+  +&$    ",
"   +++..  ++....  .+. %;%@+@*#.++....+.+&$     $&+&$%%**%&$. $&&&&+$&$    &&    ",
"    ++++++++++++   ++ %;%@+@*%.+++++++..&$     $&+$&&&&&&&$.  $&&++$&+    +&$   ",
"     ++++. +++++.  +. %;*#+@*%..+++++.. $$      $.#@$$$$$$$.  +$$. $$      $$   ",
"       ..   ....      %-*%##-%.......             %%#@@@#@+.    .               ",
"                      %;**%***#+                  **%%%%%#+                     ",
"                      %,*---*--%%*               ----;-;,*@                     ",
"                       ,--*-----------------------------,*@                     ",
"                       ,-----------------------------;-;,*@                     ",
"                        ,---------------;-;-;;;;;;;;;;;-,*@                     ",
"                        *,;;-;-;;;;;;;;;;;;;;-;;;;;;;;;;,*@                     ",
"                         *-;;;;;;;;;;;;;;;;;;;;;;;;;;;;;,*@                     ",
"                          %;,;;;;;;;;;;;;;;;;;;;;,;,;,;,'*@                     ",
"                            #*;,,,,,,,,,,,,,,,,,,,,,,,,,,*@                     ",
"                             @@@@@@@@@@@@@@@@@@@@@@@@@@@#@+                     ",
"                                                                                ",
"                                                                                ",
"                                                                                ",
"                                                                                ",
"                                                                                ",
"                                                                                ",
"                                                                                ",
"                                                                                ",
"                                                                                ",
"                                                                                ",
"                                                                                ",
"                                                                                ",
"                                                                                ",
"                                                                                ",
"                                                                                ",
"                                                                                ",
"                                                                                ",
"                                                                                ",
"                                                                                ",
"                                                                                ",
"                                                                                ",
"                                                                                ",
"                                                                                ",
"                                                                                "};
