/* XPM */
static char * TF1_xpm[] = {
"80 80 14 1",
" 	c None",
".	c #020153",
"+	c #382864",
"@	c #254563",
"#	c #484179",
"$	c #CA2023",
"%	c #CA2830",
"&	c #595A80",
"*	c #BE5250",
"=	c #977859",
"-	c #D46E75",
";	c #DB9596",
">	c #EADBE5",
",	c #FCFDFC",
"                                                                                ",
"                                                                                ",
"                                                                                ",
"                                                                                ",
"                                                                                ",
"                                                                                ",
"                                                                                ",
"                                                                                ",
"                                                                                ",
"                                                                                ",
"                                                                                ",
"                                                                                ",
"                                                                                ",
"                                                                                ",
"                                                                                ",
"                                                                                ",
"                                                                                ",
"                                                                                ",
"                                                                                ",
"                                                                                ",
"                                                                                ",
"                                                                                ",
"                                                                                ",
"                                                                                ",
"                                                                                ",
"                                                                                ",
"                                                                                ",
"       &@@+@+@+@+@+@@@@@@@@@@@@@@@@@@@@@&==*===*================== =            ",
"       @................................+%%$$%%%$$$$%$%$$$$$%%%%%$$$$$$$        ",
"       @................................$$$$$$$$$$$%$$$%$$$$$%%%%$$%$$%%        ",
"       @.....#&&&&&&&&&&&&&&.........&&#&---*-----%$$%$$$$$$%$$$%**$%$$$        ",
"       @.....>,,,,,,,,,,,,,>+.......#,,,,,>,,,,,,>*$$$$$$$$$%*-;;>-%$%$%        ",
"       @.....>,,,,,,,,,,,,,>+.......#,,,,,,,,,,,,,*$$$%$$$*;;>,,,,-%$%%$        ",
"       @.....>>,,,,,,,,,,,,>+.......#,,,,,,,,,,,,>*%$%$$$$;,,,,,,,;%%$%%        ",
"       @.....>,,,,,,,,,,,,,>+.......#,,,,,,,>>>>>>*$$$$$$$;,,,,,,,-$%%%%        ",
"       @.....>>,,,,,,,,,,,,>+.......#,,,,,,>-%%%%%$$$$$$$$;,,,,,,,-$%%%%        ",
"       @.....#&&&>,,,,,,&#&&........#,,,,,,,*$$%$%$$$$$$$$;,,,,,,,-$%%%%        ",
"       @........+,,,,,,,#...........#,,,,,,,;---*$$$$$%$$$;,,,,,,,-%$%%%        ",
"       @........@>,,,,,,#...........#,,,,,,,,,,,;$%$$%$$$$;,,,,,,,-$%%%%        ",
"       @........+,,,,,,,#...........#,,,,,,,,,,,-$$$$$$$$$;,,,,,,,-%%$%%        ",
"       @........#>,,,,,,#...........#,,,,,,,,,,,;$$$$$$$$$;,,,,,,,-%$$%%        ",
"       @........+>,,,,,,#...........&,,,,,,,>>>>-$$$$$$$%$;,,,,,,,-$$$$%        ",
"       @........+,,,,,,,#...........#,,,,,,>-*%*$$$$$$$$%$;,,,,,,,-%%%%%        ",
"       @........@>,,,,,,#...........&,,,,,,>*$$$$$$$$$%$%$;,,,,,,,-$%$%%        ",
"       @........#>,,,,,,#...........#,,,,,,,*$$$$$$$$$$$$$;,,,,,,,-$$$%%        ",
"       @........+>,,,,,,#...........#,,,,,,,*%$%$$$$$$$$$$;,,,,,,,-$%%$%        ",
"       @........@>,,,,,,#...........#>,>,,>>*$$$$$$$$$$$$$;,,,,,,,=$$$%%        ",
"       @.........##+#+#+.............#++#*-*$$%$$$$$$$$$$$*---*-*-%$$$$%        ",
"       @................................+$$$$$%$$$$$$$$%$$$$$$$$$$$$$%%%        ",
"       @................................$%$$$$$%$$$$$$%%%%$$$$$%%$$$$%$%        ",
"       &+@@@@@@@@@@@@@@@@@@@@@@@@@@@@@@++*************-*****************        ",
"                                                                                ",
"                                                                                ",
"                                                                                ",
"                                                                                ",
"                                                                                ",
"                                                                                ",
"                                                                                ",
"                                                                                ",
"                                                                                ",
"                                                                                ",
"                                                                                ",
"                                                                                ",
"                                                                                ",
"                                                                                ",
"                                                                                ",
"                                                                                ",
"                                                                                ",
"                                                                                ",
"                                                                                ",
"                                                                                ",
"                                                                                ",
"                                                                                ",
"                                                                                ",
"                                                                                ",
"                                                                                ",
"                                                                                ",
"                                                                                ",
"                                                                                ",
"                                                                                "};
