/* XPM */
static char * TF6_xpm[] = {
"80 80 12 1",
" 	c None",
".	c #E5050B",
"+	c #F10208",
"@	c #DB1318",
"#	c #ED181C",
"$	c #CE2631",
"%	c #E52528",
"&	c #DC3B41",
"*	c #CE4F60",
"=	c #946996",
"-	c #C05C76",
";	c #BD7793",
"                                                                                ",
"                                                                                ",
"                                                                                ",
"                                                                                ",
"                                                                                ",
"                                                                                ",
"                                                                                ",
"                                                                                ",
"                                                                                ",
"                                                                                ",
"                                                                                ",
"                                                                                ",
"                                                                                ",
"                                                                                ",
"                                                                                ",
"                                                                                ",
"                                                                                ",
"                                                                                ",
"                                                                                ",
"                                                                                ",
"                                                                                ",
"                                                                                ",
"                                                                                ",
"                                                                                ",
"                                                                                ",
"                                                                                ",
"                                                                                ",
"                                                                                ",
"                                                                                ",
"    &%%#%%%%%%%%%%%%%%%%%%%%%#&    -*%%%%%%%%%%%%%%%%*    =*&&%%%%%%%%%%#%%%%$- ",
"   ;.+++++.+++++++++++++++++++%  ;%+++++++++++++++++.&  *#++++++++++++++++++++- ",
"   -.++.++........++..+...+++.*;&.+++...+.+.+.+.+..+@*;%...+..........+++++++#= ",
"   &++++.++.++++++++..++..+++#;&.+++++++++++++++++++#*&+++.++++++++++++++++++%  ",
"  =@+........++..+++.........@%#++..+.$$$$$$$$$$$$$%%+++++++@&&&&&&&&&&&&&&&&-  ",
"  =-**-*-*-*%++...+%*--****-*&.+....@=              *+++++.&=                   ",
"            *.++.+@;         -+++.++                *+++++%                     ",
"            &....+&          &.+.++%                $+++++;                     ",
"           =%+++.+&          %+++.+%               $++@.+#*=============        ",
"           ;.+++++*         =++++.+..@............@++...++.@...........@.&*=    ",
"           *.++..+;         -.++...+++............+++....++++++++++++++++++#-   ",
"          ;#+++++%          #+++..++..++.+++++.+..+++..+....++.+...++..+..++$   ",
"          -++.+++*          #+.++.++.+++++++++++++++...+++++++++++++.++...++%   ",
"          *++.+++-         -...++.@%@%#@#########@+.++++@&&&&&&&&&&&&@.++.++%   ",
"          &++.+.#          *...++%;==============*+++++.*            ;@++.++%   ",
"         =#.++++&          %+++++&               -+.+++#              &+++++*   ",
"         -.++.++*          #+.+++&               -++.++%              #+.++#=   ",
"         *++..+.;         -.++++.;               &+.+++%             &.+.++%    ",
"         &++.++%          *++.++%                &.+.++.*=     =  ==*.++.+.*    ",
"         #+.+.+*          %+.+++*                &+....+..++++++++.+++++..@-    ",
"        =.++.++-          #+..++-                &++...+++++++++....+.++++&     ",
"        &++++..;         -.++++@=                =#.++++++++++++++++++++.&      ",
"        #@####&          *@###%&                  -&@.++..++.........+.#*       ",
"                            ;;                      =****************--=        ",
"                                                                                ",
"                                                                                ",
"                                                                                ",
"                                                                                ",
"                                                                                ",
"                                                                                ",
"                                                                                ",
"                                                                                ",
"                                                                                ",
"                                                                                ",
"                                                                                ",
"                                                                                ",
"                                                                                ",
"                                                                                ",
"                                                                                ",
"                                                                                ",
"                                                                                ",
"                                                                                ",
"                                                                                ",
"                                                                                ",
"                                                                                ",
"                                                                                ",
"                                                                                ",
"                                                                                ",
"                                                                                ",
"                                                                                ",
"                                                                                "};
