/* XPM */
static char * TFJ_xpm[] = {
"80 80 13 1",
" 	c None",
".	c #2F316B",
"+	c #484A9A",
"@	c #6B6AA0",
"#	c #8B87B7",
"$	c #9D9EC0",
"%	c #B4BAC9",
"&	c #CDCADA",
"*	c #DBD4E6",
"=	c #E5DDED",
"-	c #ECEAF3",
";	c #F7F5F9",
">	c #FFFFFF",
"                                                                                ",
"                                                                                ",
"                                                                                ",
"                                                                                ",
"                                                                                ",
"                                                                                ",
"                                                                                ",
"                                                                                ",
"                                                                                ",
"                                                                                ",
"                                                                                ",
"                                                                                ",
"                                                                                ",
"                                                                                ",
"                                                                                ",
"                                                                                ",
"                                                                                ",
"                                                                                ",
"                                                                                ",
"                                                  @@                            ",
"                                                  @@                            ",
"                                                 @%&@                           ",
"                                                 @->#@                          ",
"                                                +&>>=@                          ",
"                                               @$;>>>$@                         ",
"                                   #@@#        +=>>>>;#@                        ",
"                               #@@+@@@@@+@@@@@@%>>>>>>*@#@@@@#@+@               ",
"                             #@@@@+++@+#@#$###=>>>>>>>>---;---%@                ",
"                            @@@++++++++#@@##$$$&;>>>>>>>>>>>>;@                 ",
"                          @@+++++++++++@@@#@#$##&;>>>>>>>>>>>%@                 ",
"                         @@+++++.++++.++@@@#@##$#&>>>>>>>>>>*@                  ",
"                         @+++++.++.+.++.@#@@@@####&>>>>>>>>;#                   ",
"                        ++.+............+++@+@@@#$#&-=-=---&@                   ",
"                  %%%% $##########+@######$$$#$#@##$%%%%%%$@                    ",
"                 &>;;>>;>>>>>>>>>=#->;>;>>>;>>>*@#@=>;;;;;%$@                   ",
"                 ;>>>>>>>>>>>>>>>&#;>>>>>>>>>>>&+##;>>>>>>%-#                   ",
"                 =-;-;>>>>>>>;;;>%#>;;>>>;;;;;-%+@#;>>>>>;%>&+                  ",
"                 %  $*>>>>>>=@@@@+$>;>>>>*@@@@@@@@$>>>>;>=%->$@                 ",
"                     &>>>>>>%.....&>-;;>>&.++++@@@&>>>>>>&&>>-@                 ",
"                    $->>>>>>$.....;>>>>;>$++.+@@@@&>>>>>>%&;;;%@                ",
"                     ->>;;>>@....@;>>>>>>$+#@@+@+@->>>>>>$@##@#+                ",
"                    %>>;>>>;@....@>>>>;>>-=-;*+#+#;>>>;>;$@ @  @                ",
"                    *>>>>>>*.....%>>>>>>>>>>>&+@@%>>>>>>=                       ",
"                    =;>->>>%.....&>>>>>>>>>>>%.++%>>;>;>*                       ",
"                    =>>;;>>%.....=>>>>;>*@#@#@.++*>>>>>;&                       ",
"                    ->>>>>>#..+.+->>>;=>$.......+*>>>>>;&                       ",
"                   %;>>;>-;@....#;>>>>>;@....++.@;>>;;>;%                       ",
"                   &;>;>>>-+++..$>>;>>>-@...+...#>>>;;>=$                       ",
"                   &>>>>>>*....+&>>>>>>*.....+.@=>>>>>>*                        ",
"                   *>>>>>>%.+.+.*>>>;>>%...+.$--;>>>>>>&                        ",
"                   =>>>>>>$+++.+=>>>;>>$..+.+=>>>>>>>>=                         ",
"                  $==*==*-#.++.@-;--;-;@...+@=-;-=**&%                          ",
"                    %$$%$#@++++.@@++@+@..@..+@@@@$                              ",
"                          @++++++......++++++++@                                ",
"                           #+@+++++.+.+++++++@@                                 ",
"                             @++++@+++++++++@#                                  ",
"                               #@+++@+++++@                                     ",
"                                  #@+@@@                                        ",
"                                                                                ",
"                                                                                ",
"                                                                                ",
"                                                                                ",
"                                                                                ",
"                                                                                ",
"                                                                                ",
"                                                                                ",
"                                                                                ",
"                                                                                ",
"                                                                                ",
"                                                                                ",
"                                                                                ",
"                                                                                ",
"                                                                                ",
"                                                                                ",
"                                                                                ",
"                                                                                ",
"                                                                                ",
"                                                                                ",
"                                                                                ",
"                                                                                "};
