/* XPM */
static char * TPS HOMECINEMA_xpm[] = {
"80 80 14 1",
" 	c None",
".	c #3A84C1",
"+	c #399898",
"@	c #4596B1",
"#	c #439D9E",
"$	c #4BA29F",
"%	c #50A3A2",
"&	c #68B0AF",
"*	c #7DBBB9",
"=	c #8DC4C2",
"-	c #A7D1D1",
";	c #CBE3E4",
">	c #EBF4F4",
",	c #FFFFFF",
"                                                                                ",
"                                                                                ",
"                                                                                ",
"                                                                                ",
"                                                                                ",
"                                                                                ",
"                                                                                ",
"                                                                                ",
"                                                                                ",
"                                                                                ",
"                                                                                ",
"                                                                                ",
"                                                                                ",
"                                                                                ",
"                                                                                ",
"                                                                                ",
"                                                                                ",
"                                                                                ",
"                                                                                ",
"                                                                                ",
"                                                                                ",
"                                                                                ",
"                                                                                ",
" .$$$$$$$$$$$$$$$$$$$$$$$$$$$$$$$$$$$$$$$$$$$$$$$$$$$$$$$$$$$$$$$$$$$$$$$$$$$$. ",
" .$$$$$$$$$$$$$$$$$$$$$$$$$$$$$$$$$$$$$$$$$$$$$$$%$$$$$$$$$$$$$$$$$$$$$$$$$$$%. ",
" .$$$$$#++#++#++#++#++#++++$$++#+++#++#++#++#++#++#%#++#++#++#++++++#++++#$$$$. ",
" .$$$$$%*&&*&&*&&&&&&&&&*&*%$&&&&*&&&&&&&&&&&&&&&*%#%*&&*&&&&&&&&*&&&*&&*%$$$$. ",
" .%$$##;>>>>>>>>,>>,>,>>>>,*%>>>>>>,>,>,>,>,>>,>,>*$;,>>>>>,>,,>>>>>>>>,>*#$$%. ",
" .$$$#%>,,,,,,,,,,,,,,,,,,>&*,,,,,,,,,,,,,,,,,,,,>%=,,,,,,,,>>>,,,,,,,,,>&+$$%. ",
" .%$$#&>>>>>>>,,,,,,>>>>>>;#-,,,,,,>;;;;;>,,,,,,,;%;,,,,,,;&&&&=>,,,,,,,;%#$$%. ",
" .$$$$$&&%&%&>,,,,,>*%%&%&%%;,,,,,>*+$$$#&>,,,,,,-&,,,,,,,-%%+++*-------=#$$$%. ",
" .%$$$$++#++&>,,,,,;#+###++&>,,,,,>$+++++%>,,,,,,&*,,,,,,,,>>;--*&%%#####$$$$%. ",
" .$$$$$$$$$+-,,,,,,-#$%$$$+*,,,,,,;&%&&&&;,,,,,,>%&,,,,,,,,,,,,,,>>>;=%+$$$$$%. ",
" .%$$$$$$$##;,,,,,,=#$$$#$#-,,,,,,,>>>>>>,,,,,,,=+$-,,,,,,,,,,,,,,,,,,>&#$$$$%. ",
" .$$$$$$$$#%>,,,,,>&+$$$%#$;,,,,,,,,,,,,,,,,,,,-$$##=;>>,,,,,,,,,,,,,,,;$#$$$%. ",
" .$$$$$$$$+*>,,,,,>$#%$$$#&>,,,,,,,,,,,,,,,,,>=$##++++$%&*--;>>,,,,,,,,>&#%$$%. ",
" .$$$$$$$$+=,,,,,,-#$$$$$+*,,,,,,>-;;;-;;;;-*%##%&*&*&&&&#+##$%;,,,,,,,;%#$$$%. ",
" .$$$$$$$##;,,,,,,=#$$%$$+-,,,,,,-+#####+#+++#$#&>,,,,,,,;$+##&;,,,,,,,-+$$$$$. ",
" .$$$$$$$#%>,,,,,,&+$$$$#$;,,,,,,*+$#$#$$$#$$$$#&>,,,,,,,,>;;;>,,,,,,,>%#$$$$%. ",
" .%$$$$$$+*>,,,,,>%#$$$$#&,,,,,,>%#$$$$$$$$$$$$$#-,,,,,,,,,,,,,,,,,,,;&+%$$$$%. ",
" .$$$$$$$#&=--=--*$#$%$$#&=--=--=$#$$$$$$$$$$$$$#%=---=---=-=--=--=-=%+$$$$$$%. ",
" .%$$$$#+#+++++++++#$#++#$++++++++#$#+++#$#+$#++##+++++++++++++++++++++#+#$$$$. ",
" .$$$$#%=**%**#%*==&#&=*&#&**&$**=*#&===&#*=%&*=&%*&#****$&**&#&**&#&=**=&#$$%. ",
" .%$$#%>,,-*,;%;,,,;%;,,-+;,,-&>,,-&;,,,-%>>%=,,-&,-%>,,;%;,,=#;,,*+-,,,>&#$$%. ",
" .$$$#&->,**,-&,;=>>&;,,-%>,,=*,;*%*,;-,;&>>#;,,-=,-&>>*%&>,,*&,,,&%>>,>*#$$$%. ",
" .%$$$#+;,=-,=*,-&,;%>>,=*,>>&-,-$+-,-%-&*,;+;>>;-,**,;$+*,>>=->>>%*,;>;##$$$%. ",
" .$$$$#%;,,,>*-,=-,-&>;,=;;;>%-,,>&;,=+++-,-$>;;;;>&=,,>&=>;>=;;>;$-,=>;$#$$$%. ",
" .%$$$#&>>;>>&;,=-,==,->->-;>$;,;*%;,*%&+;,=%,-;>>>%-,;=%->-;;>->-&>>;>;$#$$$$. ",
" .$$$$#&,;%;>&;>&;,*-,=>>>=>-&>>++&>>&;;%;,&*,-->,;%;,&++;>=>,;=,=&>,>,;$#$$$%. ",
" .%$$$+=,-*,;%>,->>&;>*>,;*,-*>,-*&>>-,;&>>%-,=-,,-%>,-=&>;=>,-=,=-,-*,;$#%$$%. ",
" .$$$$#->=*>-%->>>-#;;*;>*=>*&>>>-%;,>>*%>;#->&=>>=&;>>;&;-*;>&->*->&%>;$#$$$%. ",
" .%$$$$%&%%&%#%&&&+$%%%&%$%&$%&%&%#%&&&+%&%$%&#%&&$$&&&%$&%%&%$&%%&&+%&%#$$$$%. ",
" .$$$$%###$##$####$$$####$#+$#####%##+#$###$##$#++$##+##$##$#######+$$+#$$$$$%. ",
" .%$$$$$$$$%$$$$$$$$$$$$$$$%$$$$$$$$$$$$$$$$$$$$$%$$$$$$$$$$$$$$$$$$$$$$$$$$$%. ",
" .$$$$$$$$$$$$$$$$$$$$$$$$$$$$$$$$$$$$$$$$$$$$$$$$$$$$$$$$$$$$$$$$$$$$$$$$$$$%. ",
" .#@@@@@@@@@@@@@@@@@@@@@@@@@@@@@@@@@@@@@@@@@@@@@@@@@@@@@@@@@@@@@@@@@@@@@@@@@@#. ",
"                                                                                ",
"                                                                                ",
"                                                                                ",
"                                                                                ",
"                                                                                ",
"                                                                                ",
"                                                                                ",
"                                                                                ",
"                                                                                ",
"                                                                                ",
"                                                                                ",
"                                                                                ",
"                                                                                ",
"                                                                                ",
"                                                                                ",
"                                                                                ",
"                                                                                ",
"                                                                                ",
"                                                                                ",
"                                                                                ",
"                                                                                ",
"                                                                                ",
"                                                                                ",
"                                                                                "};
