/* XPM */
static char * TPS CINEFAMILY_xpm[] = {
"80 80 13 1",
" 	c None",
".	c #DB6D00",
"+	c #FF6D00",
"@	c #FF9200",
"#	c #FF9255",
"$	c #FFB600",
"%	c #FFB655",
"&	c #FFB6AA",
"*	c #FFDB55",
"=	c #FFDBAA",
"-	c #FFDBFF",
";	c #FFFFAA",
">	c #FFFFFF",
"                                                                                ",
"                                                                                ",
"                                                                                ",
"                                                                                ",
"                                                                                ",
"                                                                                ",
"                                                                                ",
"                                                                                ",
"                                                                                ",
"                                                                                ",
"                                                                                ",
"                                                                                ",
"                                                                                ",
"                                                                                ",
"                                                                                ",
"                                                                                ",
"                                                                                ",
"                                                                                ",
"                                                                                ",
"                                                                                ",
"                                                                                ",
"                                                                                ",
"                                                                                ",
" @+@@@+++@@@++@@@+++@@@+++@@@+++@@+++@@@+++@@@+++@@@++@@@+++@@@+++@@@+++@@+++@@ ",
" @+@@@@+@@@@+@@@@+@+@@@@+@@@@+@+@@+@+@@@@+@@@@+@+@@@@+@@@@+@@@@+@+@@@++@@@++@@@ ",
" @@@@@+++@@@++@@@+++@@@+++@@@+++@@+++@@@+++@@@+++@@@++@@@+++@@@+++@@@+++@@+@+@@ ",
" @@@@@@@@@@@$@@@@$@$@@@@$@@@@@@$@@$@$@@@@$@@@@$@$@@@@$@@@@@@@@@$@$@@@@$@@@@@@@@ ",
" @@@@+@>>>>>>>>>>>>>>>>>>>>$%>>>>>>>>>>>>>>>>>>>>>@#>>>>>>>>>>>>>>>>>>>>>@@@@@@ ",
" @@@@@@>>>>>>>>>>>>>>>>>>>>@=>>>>>>>>>>>>>>>>>>>>>+>>>>>>>>>>>>>>>>>>>>>>@@@@@@ ",
" @+@@@@>>>>>>>>>>>>>>>>>>>>+>>>>>>>>->>>>>>>>>>>>>@>>>>>>>>%%#%%>>>>>>>>>@++@@@ ",
" @+@@@+@@@@@@>>>>>>>%@@@@@@@>>>>>>>#@@@@+@>>>>>>>=%>>>>>>>=@@@@+#%**=%&&%@+@+@@ ",
" @+@@@++@@@@#>>>>>>&@@@++@@%>>>>>>>@+@@@+#>>>>>>>%%>>>>>>>>>>>>-=%%%@+++@@+++@@ ",
" @@@@@@@@@@@%>>>>>>=+@@@@@@%>>>>>>>@@@@@@=>>>>>>>@%>>>>>>>>>>>>>>>>>=*@@@@@@@@@ ",
" @@@@@@@@@@@;>>>>>>%+@@@@@+=>>>>>>>>>>>>>>>>>>>>%+@=>>>>>>>>>>>>>>>>>>>%+@@@@@@ ",
" @+@@@++@@@%>>>>>>>+@@@@+@@>>>>>>>>>>>>>>>>>>>>=+@@%=>>>>>>>>>>>>>>>>>>%@@@+@@@ ",
" @@@@@+@+@@=>>>>>>>+@@@+@+@>>>>>>>>>>>>>>>>>>>=++@@@++@@%#&=>>>>>>>>>>>=#@+@+@@ ",
" @+@@@@++@+>>>>>>>=+@@@+++%>>>>>>>%&&===&&%=@@.@@%%%%%%%%@++@@@&>>>>>>>%@@@++@@ ",
" @@@@@@@@@+>>>>>>>=@@@@@@@%>>>>>>&@@@@@@@@@@+@@@%>>>>>>>>>@@@+@=>>>>>>>%+@@@@@@ ",
" @@@@@@@@@@>>>>>>>%@@@@@@@=>>>>>>#@@@@@@@@@@@@@@*>>>>>>>>>>>>>>>>>>>>>>@@@@@@@@ ",
" @@@@@@@@@%>>>>>>>@@@@@@@%>>>>>>>+@@@@@@@@@@@@@@@%>>>>>>>>>>>>>>>>>>>;@@@@@@@@@ ",
" @@@@@+@+@%>==;;>=+@@@@++#=;;====@@++@@@+@+@@@@++@====>=>====>====>>=@+@@@+@+@@ ",
" @+@@@@++@@@++@%@+@+@@@@@@@@@+++@@+@%%@@@++@@@+@.@@@++@@@++@%@@@@+@@@++@@@@++@@ ",
" @+@@@+@+@@@@@=>=++@@@@+@+@@@@@@@@@>>>%@+@+@@@@+@@@@+@@@@+@>>>%->@@@@+@+@@+@+@@ ",
" @@@@@@@@@@@@$=>%@@@@@@@@@@@@@@@@@%>>>@@@@@@@@@@@@@@@@@@@@@>>>%>>@@@@@@@@@@@@@@ ",
" @@@@@@@@@%%$@@%@@%@@%#%@@@@%*%@@@*>=@@+@*%@@@@@@+%%%@@&@@@$%@%>>@@@@@@%@@@@@@@ ",
" @@@@@@@>>>>>%%>%@>>>>>>%@%>>>>=@>>>>>%=>>>>>=$>>>>>>>>>>>@>>=%>>=>>@@=>>@@@@@@ ",
" @+@@@@#>>>>>%%>%+>>>>>>#@=>>=>>%>>>>>%>>>>>>>+->>>>>>>>>>@->=%->%>>@+=>>@+++@@ ",
" @+@@@+->>@@@@&>%+>=%+>>%=>>%%=>>+%>=@%>>@+%>>@->=+>>-@@>>%=>=%>>+%>%@>>*@@@+@@ ",
" @+@@@+=>=@@+@=>%+>=@+>>%=>>>>>>>@#>&@%>>++@>>+->=@->=@@>>#=>=%=>+@>>>>%@@++@@@ ",
" @@@@@@>>=++@@=>#@>;@+>>%=>>%%%=%+%>=@%>>@@#>-@>>=+=>>@@>>%>>=%>>@+>>>>%+@@@@@@ ",
" @@@@@@=>>>=>%%>#@>>@+>>*%>>==>>>+%>=@@>>>>>>;@>>=+>>>@@>>%>>=%>>$+%>>>@@@@@@@@ ",
" @@@@@@@=>>>>@%>@@>=@+=>%@@=>>>=%+%>%+@#=>>=>=@=>%@&>=@@>>@=>%@>>@+@>>%@@@@@@@@ ",
" @+@@@+@@%==#+@%@+%@@@%%@@@%=&%@@@+%@@@@@&%%%$+@%@@%%@@@%%@@%#@##@@%>>@+@@+@+@@ ",
" @+@@@+++@@@++@@@+++@@@+++@@@+++@@+++@@@+++@@@+++@@@++@@@+++@@@+++@>>=+@@@++@@@ ",
" @@@@@@@@@@@@@@@@@@@@@@@@@@@@@@@@@@@@@@@@@@@@@@@@@@@@@@@@@@@@@@@@@+>>=@@@@@@@@@ ",
" @@++@@@@+@+@@+@+@@@@+@@@@+@@@@@@+@@@@+@@@@+@+@@@@+@@@@+@@@@+@+@@@+@@@@@@@@@@+@ ",
"                                                                                ",
"                                                                                ",
"                                                                                ",
"                                                                                ",
"                                                                                ",
"                                                                                ",
"                                                                                ",
"                                                                                ",
"                                                                                ",
"                                                                                ",
"                                                                                ",
"                                                                                ",
"                                                                                ",
"                                                                                ",
"                                                                                ",
"                                                                                ",
"                                                                                ",
"                                                                                ",
"                                                                                ",
"                                                                                ",
"                                                                                ",
"                                                                                ",
"                                                                                ",
"                                                                                "};
