/* XPM */
static char * TPS CINESTAR_xpm[] = {
"80 80 14 1",
" 	c None",
".	c #995BA5",
"+	c #9964AE",
"@	c #A268AB",
"#	c #AE7EB7",
"$	c #BC93C3",
"%	c #C9A8CF",
"&	c #D5BDDA",
"*	c #DEC9E2",
"=	c #E5D6E8",
"-	c #EDE2EF",
";	c #F4ECF5",
">	c #FAF8FA",
",	c #FFFFFF",
"                                                                                ",
"                                                                                ",
"                                                                                ",
"                                                                                ",
"                                                                                ",
"                                                                                ",
"                                                                                ",
"                                                                                ",
"                                                                                ",
"                                                                                ",
"                                                                                ",
"                                                                                ",
"                                                                                ",
"                                                                                ",
"                                                                                ",
"                                                                                ",
"                                                                                ",
"                                                                                ",
"                                                                                ",
"                                                                                ",
"                                                                                ",
"                                                                                ",
"                                                                                ",
" +@@@@@@@@@@@@@@@@@@@@@@@@@@@@@@@@@@@@@@@@@@@@@@@@@@@@@@@@@@@@@@@@@@@@@@@@@@@@+ ",
" +@@@@@@@@@@@@@@@@@@@@@@@@@@@@@@@@@@@@@@@@@@@@@@@@@@@@@@@@@@@@@@@@@@@@@@@@@@@@+ ",
" ++@@@@....................+@.....................+@.....................+@@@@+ ",
" +@@@@@#$$$$$$$$$$$$$$$$$$$#+$$$$$$$$$$$$$$$$$$$$$#.#$$$$$$$$$$$$$$$$$$$$#+@@++ ",
" ++@@+@*,>>>>>>>>>>>>>>>>>>$@;>>>>>>>>>>>>>>>>>>>>#@-,>>>>>>,>>>>>>>>>>>>$.@+@+ ",
" +@@@.#;,,,,,,,,,,,,,,,,,,;#$,,,,,,,,,,,,,,,,,,,,;@%,,,,,,,>;-;>,,,,,,,,;#.@@++ ",
" ++@@.$=----->,,,,,,------&.*,,,,,,=&&&&&-,,,,,,,*@-,,,,,,*#+@@$;,,,,,,,*++@@@+ ",
" +@@@+@@#@@@#;,,,,,;#@@@@#@@=,,,,,>#.+...#;,,,,,,%$,,,,,,,*###+.#%%$%%%%$+@@@++ ",
" ++@@@@+.++.$>,,,,,=..++@..#>,,,,,-@.....#>,,,,,>#$,,,,,,,,>>-=*&%$#@....@@@@@+ ",
" +@+@@@@@@@.%,,,,,,&.@@@@@.%,,,,,,-$$$$$%;,,,,,,=@#>,,,,,,,,,,,,,,,>;*$.@@@+@++ ",
" ++@@+@@@@+@=,,,,,>$.@@@@+.&,,,,,,,>,,,,,,,,,,,>$.+%;,,,,,,,,,,,,,,,,,>$+@@@@@+ ",
" +@+@@@@@@.#;,,,,,;#.@+@@@@-,,,,,,,,,,,,,,,,,,>$.@+.#%&*-;>,,,,,,,,,,,,-@+@+@++ ",
" ++@@@@@@@.$>,,,,,=@.@@@@.#>,,,,,,,,>,,>,,>>;&#.@......+@#$$%&*>,,,,,,,-#.@@@@+ ",
" +@@@@@@@@.&,,,,,,&.+@@@@.%,,,,,,=$%%$%%$%$$#@.@@%&%%%%%%#.....=,,,,,,,=@+@@@++ ",
" ++@@@@@@+@=,,,,,,$.@@@@+.&,,,,,,%...........+@.#>,,,,,,,-$###%;,,,,,,,%.@@@+@+ ",
" +@+@@@@@.#;,,,,,;#.@@@@@@;,,,,,>#.+@@@@@@@@@@@.#-,,,,,,,,,;>>,,,,,,,,&++@@@@++ ",
" ++@@@@@@.$-;--;-*+..@@@.#;-;-;;=@@@@@@@@@+@@@@@.$------;-;;;-;--;-;-%+.@@+@+@+ ",
" +@@@@@@@@@######@###@@@@@#######+@@@@@+@@@@@@@+@.###################.@@@@@@@++ ",
" ++@@@+@@@+.......*>&++@@+.......@+++@+@@@@+@++@@@..&=$..............@+@+@@+@@+ ",
" +@@@@@@@..@@@+.@@%*$..+..+@.+@@@.+@@@.+@@..+@@..@.@;,%.@+.++@@.+@@.+@.+@@@@@++ ",
" ++@@+@+.$&===&#.@%&#@&%$%**%#+.@%*==*$@+.$&=-=&$.$*>,=%@@%*-==&#.#&%#%*%@+@@@+ ",
" +@@@@@.%>,;->,-@#>>$#>,;>,,,&.#=,;=-,>%.$>,=*;,;#=,,>,=#*,;**;,=.%,;-,,&.@+@++ ",
" ++@@@.$>>&@@$>>$$,;@%,,*#$-,=@*,=@..&,-@*,-#.$&*$@&,-#@#**#..&,-@&,,-%%$+@@@@+ ",
" +@@@++&,-@.@.##@&,=+&,-@..*,*#;,-&**=,>@&,,-=&%#..&,*+.#$&&*=;,=.*,-#...@@@@++ ",
" ++@@.@=,*...@$$@*,*.*,&..@=,%$,>**=**&&@@%*=-,,;#.=,&.@=,-*&%=,&@=,%.+@@@@+@@+ ",
" +@@@+@=,-#.@*,-@=,%@-,%..#;,$$,>$..#&*#$&&#.@*,>#@;,%.$>,$..#;,%@-,%.@@@@@@+++ ",
" ++@@@.%>,;=;,>$@;,%@>,%..$,,#@=,;*&-,=@$,,-&*;,*+#>,>=%>,-&&;,,$#,,$.@+@@+@@@+ ",
" +@+@@@.%*-;=*#.#**##**#.+#*&#.#&=;;=%@.+%=-;-=%@.@%==*#%=--*%&*$#*&@+@@@@@@@++ ",
" ++@@@@+.+@#@+.@++.@+++@@@@++@+..@#@@.+@@.+@@#+.+@@+@@@+.@#@@..++@@+@@@@@@@+@@+ ",
" +@@@@@@@@+.+@@@@@@+@@@@+@@@+@@@@+.++@@@@@+@..@@@@@@++@@@+.++@@+@@@+@@@+@@@@@++ ",
" +++@@+@@@@@@@@@@@@@+@@+@@@@@@@@@@@@@@@@@@@@@@@+@@@@@@@@@@@@@@@@@@+@@@+@@+@@@@+ ",
" +@@@@@@@@@@@@@@@@@@@@@@@@@@@@@@@@@@@@@@@@@@@@@@@@@@@@@@@@@@@@@@@@@@@@@@@@@@@@+ ",
"                                                                                ",
"                                                                                ",
"                                                                                ",
"                                                                                ",
"                                                                                ",
"                                                                                ",
"                                                                                ",
"                                                                                ",
"                                                                                ",
"                                                                                ",
"                                                                                ",
"                                                                                ",
"                                                                                ",
"                                                                                ",
"                                                                                ",
"                                                                                ",
"                                                                                ",
"                                                                                ",
"                                                                                ",
"                                                                                ",
"                                                                                ",
"                                                                                ",
"                                                                                ",
"                                                                                ",
"                                                                                "};
