/* XPM */
static char * TV Breizh_xpm[] = {
"80 80 14 1",
" 	c None",
".	c #0032FD",
"+	c #0033FE",
"@	c #0033FF",
"#	c #1F48F4",
"$	c #5067AE",
"%	c #4E71FC",
"&	c #80897F",
"*	c #ABAA57",
"=	c #8BA2FC",
"-	c #D4C627",
";	c #ECD813",
">	c #FEEA01",
",	c #D5DDFC",
"                                                                                ",
"                                                                                ",
"                                                                                ",
"                                                                                ",
"                                                                                ",
"                                                                                ",
"                                                                                ",
"                                                                                ",
"                                                                                ",
"                                                                                ",
"@+@@+@@+@@+@@+@@+@@+@@+@@+@@+@@+@@+@@+@@+@@+@@+@@+@@+@@+@@+@@+@@+@@+@@+@@+@@+@@.",
"@@@@@@@@@@@@@@@@@@@@@@@@@@@@@@@@@@@@@@@@@@@@@@@@@@@@@@@@@@@@@@@@@@@@@@@@@@@@@@@@",
"@@@@@@@@@@@@@@@@@@@@@@@@@@@@@@@@@@@@@@@@@@@@@@@@@@@@@@@@@@@@@@@@@@@@@@@@@@@@@@@@",
"@@@@@@@@@@@@@@@@@@@@@@@@@@@@@@@@@@@@@@@@@@@@@@@@@@@@@@@@@@@@@@@@@@@@@@@@@@@@@@@@",
"@@@@@@@@@@@@@@@@@@@@@@@@@@@@@@@@@@@@@@@@@@@@@@@@@@@@@@@@@@@@@@@@@@@@@@@@@@@@@@@@",
"@@@@@@@@@@@@@@@@@@@@@@@@@@@@@@@@@@@@@@@@@@@@@@@@@@@@@@@@@@@@@@@@@@@@@@@@@@@@@@@@",
"@@@@@@@@@@@@@@@@@@@@@@@@@@@@@@@@@@@@@@@@@@@@@@@@@@@@@@@@@@@@@@@@@@@@@@@@@@@@@@@@",
"@@@@@@@@@@@@@@@@@@@@@@@@@@@@@@@@@@@@@@@@@@@@@@@@@@@@@@@@@@@@@@@@@@@@@@@@@@@@@@@@",
"@@@@@@@@@@@@@@@@@@@@@@@@@@@@@@@@@@@@@@@@@@@@@@@@@@@@@@@@@@@@@@@@@@@@@@@@@@@@@@@@",
"@@@@@@@@@@@@@@@@@@@@@@@@@@@@@@@@@@@@@@@@@@@@@@@@@@@@@@@@@@@@@@@@@@@@@@@@@@@@@@@@",
"@@@@@@@@@@@@@@@@@@@@@@@@@@@@@@@@@@@@@@@@@@@@@@@@@@@@@@@@@@@@@@@@@@@@@@@@@@@@@@@@",
"................................................................................",
"................................................................................",
"................................................................................",
"....................................................................+++..@+.....",
"...............................................................+................",
"..........................................................................+.....",
"++++++++++++++++++++++++++++++++++++++++++++++++++++++++++...@@@+.............++",
"+++++++++++++++++++++++++++++++++++++++++++++++++++++++@..........++++++++++@@++",
"@@@++.++@++++++@++++.+++@++.++@@@@++@.++.++.@.@.........+@+#@############@++@@@@",
"@@@+@@++......+@@@@+@@++.@.++.++++.@@.........++@#####%%%%%%%%%%%#%#####@#++@@@@",
"@@+++##%#%###@........................###%%%%%========%%%%%%%%#%#%######@@@+@@@@",
"@@++@###%%%====%%##+#$$+.++####%%%%=====,==,======%=%%=%=%%%%%%#%#%####@##++@@@@",
"@++.+##%%%%=%==,,,,=*>>$==,,,,,,,,,,,,,,==,======%==%=%%%%%%%%%#%#######@@@+@@@@",
"@+++@###%%%%===%%###$>>$++###%%%=%=======,============%=%%%%%#%%%#%#######@++@@@",
"++..@####%###.......$>;$.............######%%%%%%%%%%%%=%%%%%%%##%#####@#@@+@@@@",
"+.+++@@@..@@....@...$>>#........@.+...............+++#@##%#%###%##%#####@#++@@@@",
".@.....+++@@@....+..$>;$...@.....@@@....@@...................@+++@@@@#@+@@@@@@@@",
"++..==%.+.++@+++....$>;$.+++@++.+@.++@++@.+++.+...*-$.....+.+++++$-*+.@+++@..+@@",
"+++.=,=.+++..+++@+..$>>#...@@+.++.+++.+++....+...#;>*..@+..@@@@..*>;#.++++++++@@",
"+...=,=.......+.....$>;$......+......++........@.#&*$............&>-........++@@",
"+...=,=.......+@....$>;$.......+.#..#....#...#.........#..#...#..&>;#..#......@@",
"+...=,,==%==%.@.#==#$>;------*#.&----##*-------&.#*-&.*--------*.&>;------&...@@",
"++..=,,,,#=,,...=,,#$>>>>>>>>>&.*>>>>$$>>>>>>>>>$.;>&.->>>>>>>>;.&>>>>>>>>>$..@@",
"+...=,=%%.=,,#..,,=.$>>&$&$&;;&.*>-&$.&>;&$$$&>;$.->&.$$&$$&>;>*.&>-&$&$*>>$.+@@",
"++..=,=...#,,%.#,,#.$>;#...#;>&.*>*...&>;$$$#&>>$.->&.....$->>&..&>-....$;>$.@@@",
"+...=,=....=,=.=,=..$>;$...#;>&.*>*...&>;>;>>>;>$.;>&....$;>;&...&>;....$>;$.+@@",
"++..=,=....%,,%,,=..$>>$...#;>&.*>*.@.&>>;;;;;;>$.->&...$;>;$....&>-#...#>>$.+@@",
"+...=,=.....,,,,,#..$>;#...#->$.*>*...&>-$######.#->&..&>>-#.....&>-#...$>;$.+@@",
"@@..=,=.....%,,,=...$>;&&&$&;>&.*>*...&>;&&&&&&&#.->&.&>>;*$&$&$.&>-#...$;>$.@@@",
"++..=,=.....#,,,#...$>>>>>>>>>$.*>*...&>>>>>>>>>$.;>&.->>>>>>>>;.&>;....$>;$.@@@",
"+...=,=......=,=#...$;-------*#.&;*....*--------$.-;&.*-------;*.&;*#...#-;$..@@",
"+...#.........+#.....##.#####...##.......##.####...#..##########..##.....#....@@",
"@.+@.....@+@....+..+.................@+..............@..........@...@..+....@.@@",
"@@@@@@@@@@@@@@@@@@@@@@@@@@@@@@@@@@@@@@@@@@@@@@@@@@@@@@@@@@@@@@@@@@@@@@@@@@@@@@@@",
"@@@@@@@@@@@@@@@@@@@@@@@@@@@@@@@@@@@@@@@@@@@@@@@@@@@@@@@@@@@@@@@@@@@@@@@@@@@@@@@@",
"@@@@@@@@@@@@@@@@@@@@@@@@@@@@@@@@@@@@@@@@@@@@@@@@@@@@@@@@@@@@@@@@@@@@@@@@@@@@@@@@",
"@@@@@@@@@@@@@@@@@@@@@@@@@@@@@@@@@@@@@@@@@@@@@@@@@@@@@@@@@@@@@@@@@@@@@@@@@@@@@@@@",
"@@@@@@@@@@@@@@@@@@@@@@@@@@@@@@@@@@@@@@@@@@@@@@@@@@@@@@@@@@@@@@@@@@@@@@@@@@@@@@@@",
"@@@@@@@@@@@@@@@@@@@@@@@@@@@@@@@@@@@@@@@@@@@@@@@@@@@@@@@@@@@@@@@@@@@@@@@@@@@@@@@@",
"@@@@@@@@@@@@@@@@@@@@@@@@@@@@@@@@@@@@@@@@@@@@@@@@@@@@@@@@@@@@@@@@@@@@@@@@@@@@@@@@",
"@@@@@@@@@@@@@@@@@@@@@@@@@@@@@@@@@@@@@@@@@@@@@@@@@@@@@@@@@@@@@@@@@@@@@@@@@@@@@@@@",
"@@@@@@@@@@@@@@@@@@@@@@@@@@@@@@@@@@@@@@@@@@@@@@@@@@@@@@@@@@@@@@@@@@@@@@@@@@@@@@@@",
"@@@@@@@@@@@@@@@@@@@@@@@@@@@@@@@@@@@@@@@@@@@@@@@@@@@@@@@@@@@@@@@@@@@@@@@@@@@@@@@@",
"@@@@@@@@@@@@@@@@@@@@@@@@@@@@@@@@@@@@@@@@@@@@@@@@@@@@@@@@@@@@@@@@@@@@@@@@@@@@@@@@",
"@@@@@@@@@@@@@@@@@@@@@@@@@@@@@@@@@@@@@@@@@@@@@@@@@@@@@@@@@@@@@@@@@@@@@@@@@@@@@@@@",
"@@@@@@@@@@@@@@@@@@@@@@@@@@@@@@@@@@@@@@@@@@@@@@@@@@@@@@@@@@@@@@@@@@@@@@@@@@@@@@@@",
"@@@@@@@@@@@@@@@@@@@@@@@@@@@@@@@@@@@@@@@@@@@@@@@@@@@@@@@@@@@@@@@@@@@@@@@@@@@@@@@@",
"@@@@@@@@@@@@@@@@@@@@@@@@@@@@@@@@@@@@@@@@@@@@@@@@@@@@@@@@@@@@@@@@@@@@@@@@@@@@@@@@",
"                                                                                ",
"                                                                                ",
"                                                                                ",
"                                                                                ",
"                                                                                ",
"                                                                                ",
"                                                                                ",
"                                                                                ",
"                                                                                ",
"                                                                                ",
"                                                                                "};
