/* XPM */
static char * TV POLONIA_xpm[] = {
"80 80 12 1",
" 	c None",
".	c #CB2008",
"+	c #DC1907",
"@	c #D61E05",
"#	c #C32D16",
"$	c #D13524",
"%	c #D54A3B",
"&	c #CA6959",
"*	c #EE7764",
"=	c #EAA093",
"-	c #F3CBBF",
";	c #FCF0E9",
"                                                                                ",
"                                                                                ",
"                                                                                ",
"                                                                                ",
"                                                                                ",
"                                                                                ",
"                                                                                ",
"                                                                                ",
"                                                                                ",
"                                                                                ",
"                                                                                ",
"                                                                                ",
"                                                                                ",
"                                                                                ",
"                                                                                ",
"                                                                                ",
"                                                                                ",
"                                                                                ",
"                                                                                ",
"  %%$%$%$%%$%%$%%$%%$%%%$%%%%$%%%$%%$%%%$%%%%$%%%%$%%$%%%$%%%$%%%%$%%$%%$%$%%   ",
"  #..@.@..+.....@+.+@..@++@@.+..+..@+...++....++...+@@..+...+.@..+.+@@@.+@.++   ",
"  .@.@@@@@++@+@+@@@++@@@@@@+@+@@++@@++@@@++@+@+@+@@@@+@@@@+++++@++.@@@.@+.@@.   ",
"  #@@+@@@@++++++@...@.@....@.@.@@@...+@+..@+@@.@@@@.@+@.@@....@@+@@@@@@@@@@++   ",
"  .+@+@+@@@@+@@@.%*******************************************$.@@@@@@@@@+@@@+   ",
"  #@@+@+@@@@@@@@.**%%%%%%%%%%%%*=%%%%%%%%%%%%&=*%%%%%%%%%%%%*%.@++@@+@@@@@@++   ",
"  .@@@@@@@@@+@@@.**.@++++@@@++@%*$@+++@@@++@@$*$.+@@.@+++@@$*&+@++@+@@@@+@@@+   ",
"  $@@+@@@@@++@@+@&*..$##$#####.&*#$%#@@@@.$$$%*%+@$###..@++$*%@++@.@@@@@@@@@+   ",
"  .@@+@@@@@@+@@+@**.%--------*#%*$*-=#.@@$--*$*%.$=--==&#@@.*%.@+@.@@@@@+@@@+   ",
"  #+@++@@@@@+@.++&*.*;;;;;;;;=#%*#&;;%.@@&;;%#=$.%-;;;;;*#@$*&.@+@@+@@@@+@@++   ",
"  .+@@@@@@@@@@@@@**.#%%&;;=%%$.%*$#-;=.@#-;=.$*$@%;;=%=;;%@#*%@@@+@@@@@@+@@@+   ",
"  $@@@+@@@@@@@@+@&*.@@#$;;&...+&*#.*;;%.&;;%.%*$.%-;%.#-;*@$*%@@@++@@@@@+@@@+   ",
"  .+@@@@@@@@+@@+@**+++@%-;&@++.%*$.#-;=#=;=#.$*%.%-;%.#=;=..*&+@@+@@@@@@+@@@+   ",
"  $@@++@@@@@@@@@@&*.++.%;;&@++@&*.+.=;-&;;&@+$=$.%-;&%*-;&@$*%@@@+@@@@@@+@@+.   ",
"  .@@@@@@@@@+@@+@**@@+.%-;&.@+.%*$++$-;;;-.++$*$.%-;;-;;=.@#*&+@@+@@@@@@+@@@+   ",
"  $@@@+@@@@@@@@@@&*.@+@$;;*.@@+&*#@@.=;;;&@+@$=$.%;;;--&#@+$*%@@@@@@@@@@+@@@+   ",
"  ++@@@@@@@@@+@@@**.@+@%-;&.+@.%*$@@.$;;-#+@.$*%.%-;&#.+.@@#*%@@@+@@@@@@+@@@+   ",
"  $@@+@@@@@+@@@@+&*.@@.%;;&@+@+&*.@@@.=;*.+@.$=$+%-;&++.@++$*&@@@@@@@@@@+@@+.   ",
"  ++.@@@@@@@@+@@@**.@@.%-;*@@@.%*$@@@.%=$@@@.$*$.%-;%+@.@+@#*%+@@+@@@@@@+@@@+   ",
"  $@@+@@@@@+@@@+@&*@++@$**$@@+.&*@++@.$%.@@@@$=$.$**$.@@+@+$*%.@@@@@@@@@+@@@+   ",
"  .+++@@@@+@+@@@@**++@@...+@@@.%*$++@@@@@@@@@$*$....+..++.@.*%.@@@@@@@@@+@@@+   ",
"  $++@@@@@@+++@@.**$$$$$$$$$$$$&=$$$$$$$$$$$#%=%$$$$$$$$$$$$=%@@+@@@@@@@+@@+.   ",
"  .++@@@+@.@+@.@+%**************=*************=**************%+++@+@@@@@+@@@+   ",
"  $+@@@+@@@@@.@@+$$$$$$$$$$$$$$$$$$$$$$$$$$$$$$$$$$$$$$$$$$$$++@@++@@@@@+@@@+   ",
"  #+@@@+@@++@@@@+++@+@+@+@@+++@@@++@+++@.+++++@@@@@++++++++@@@@.@++@@@@@+@@@+   ",
"  #@@@@+@#....@@++@.#$#.@++..#.@.@@++.#$#.@@@+.@@@++#...@..@@@@@..@@@@@@+@@+.   ",
"  ++@@@@@&===*$.@.$*---*$++.*=$+@@@@$=---*#@+#*%+++$**#@$**$+@@@#&$@@@@@+@@@+   ",
"  $+@@@@@=;--;=$.%=;---;=$.#=;&@@..%=;--;;=$@#=-%..$;=$+%--%@@@@%-*.@@@@+@@@+   ",
"  .+@@@@#=;&#=;&.*;-&#&-;*##=;&+++.*;-%#%-;*#.=;-&.%--@@$--%@+@.=;-$@@@@+@@@+   ",
"  $+@@++.=;&#=;%$=;&...&;=##=;&@@+#-;&...&;-.$=;;-&%-=$.%--%++.%--;*@+@@@@++.   ",
"  .++.++.=;;-;=#$-;%...%;-$#=;&+@+$-;$.+.%;-..=;=;-=--$.$--%.+#=-&--$@@@@++++   ",
"  $+@.++#=;-=&#.$--&++.&;-##=;%...#-;%++.&;-##=-&&-;;=..%--%++%-=#*;&.@@@@++.   ",
"  ++@.@@.=;&#.++#*;-$#%-;*.#=;*$#$.=;-$#%-;*##=;%.&-;-$+$--%.#=;---;-%.@@@@@+   ",
"  $@@@@@.=;&.+++.%=;;=;;=$.#-;;--*.#-;-=;;=#.$=-%..&-=#.%--%.&--==*-;*.@@@@+.   ",
"  .+@@@+.*=%+++@@@%=---*%.+.*==--*+.$=---*%.@.*=$.@+%*$@$==$@*=%...%=*.+++@@+   ",
"  $@@@++@..+@@+..+.##%##.+@....#..++.#$%$#.@@@...@@@.@@.+...@@......#..@++@.+   ",
"  .+@@++@@@+@@@..@++.@@.@@@@++@@@+@@@@...++@@@@@@+@@@@@@+++@@++@@@..@@.@++@..   ",
"  #@@+@@@@.@@.@@@++++@+@@++++@.@@@.@@@@.++@@@@@@@++@.@@+@@@@++@@+++@@+@@+@@@+   ",
"  .++++.++++@+++@.++..@+++.+.@++++.+@++++.@+++++@@++@++++.+@.++.@++++++.@@@++   ",
"  &&&&&&&&&&&&&&&&&&&&&&&&&&&&&&&&&&&&&&&&&&&&&&&&&&&&&&&&&&&&&&&&&&&&&&&&&&&   ",
"                                                                                ",
"                                                                                ",
"                                                                                ",
"                                                                                ",
"                                                                                ",
"                                                                                ",
"                                                                                ",
"                                                                                ",
"                                                                                ",
"                                                                                ",
"                                                                                ",
"                                                                                ",
"                                                                                ",
"                                                                                ",
"                                                                                ",
"                                                                                ",
"                                                                                ",
"                                                                                ",
"                                                                                ",
"                                                                                ",
"                                                                                "};
