/* XPM */
static char * TVEI_xpm[] = {
"80 80 14 1",
" 	c None",
".	c #1F2638",
"+	c #274990",
"@	c #464748",
"#	c #2D5495",
"$	c #496DA3",
"%	c #696B6E",
"&	c #78899F",
"*	c #89A5D0",
"=	c #A5A6A8",
"-	c #BDC0C3",
";	c #ABC7E6",
">	c #D5EBF3",
",	c #FAFDFC",
"                                                                                ",
"                                                                                ",
"                                                                                ",
"                                                                                ",
"                                                                                ",
"                                                                                ",
"                                                                                ",
"                                                                                ",
"                                                                                ",
"                                                                                ",
"                                                                                ",
"                                                                                ",
"                                                                                ",
"                                                                                ",
"                                                                                ",
"                                                                                ",
"                  ........................................  ..                  ",
"                 .#++#+#++#++#++#++#++#++#++#++#++#+++#+#++++#+                 ",
"                 .#++++++++++++++++++++++++++++++++++++++++++++                 ",
"                 .+++++++++++++++++++++++++++++++++++++++++++++                 ",
"                 .#++++++++++++++++++++++++++++++++++++++++++#+                 ",
"                 .+++++++++++++++++++++++++++++++++++++++++++++                 ",
"                 .#++++++++++++++++++++++++++++++++++++++++++++                 ",
"                 .+++++++++++++++++++++++++++++++++++++++++++++                 ",
"                 .#++++++++++++++++++++++++++++++++++++++++++++                 ",
"                 .#++++++++++++++++++++++++++++++++++++++++++++                 ",
"                 .#++++++++++++++++++++++++++++++++++++++++++++                 ",
"                 .#++++++++++++++++++++++++++++++++++++++++++++                 ",
"                 .#++++++++++++++++++++++++++++++++++++++++++++                 ",
"                 .#+++++#*&&#++++++++++++++++++++++++++++++++++                 ",
"                 .#+++++$>,>$++++++++++++++++++++++++++++++++++                 ",
"                 .#+++++$,,>$++++++++++++++++++++++++++++++++++                 ",
"                 .#+++$*-,,,***********$++#****#$*********#++++                 ",
"                 .#+++*,,,,,,,,,,,,,,,,;++&>,,>$;,,,,,,,,>$++++                 ",
"                 .#+++*,,,,,,,,,,,,,,,,*+#;,,,*#>,,,,,,,,>#++++                 ",
"                 .++++&>,,,,,,,,,,,,,,,*+$>,,>$*,,,,>>,,,,$++++                 ",
"                 .#+++$&*,,,*&$*>,,,&$&$+;,,,;$>,,,*#$;,,>#++++                 ",
"                 .#+++++$,,>$+++;,,,&+++#>,,,$*,,,,;**-,,>$++++                 ",
"                 .#+++++$,,>$+++&,,,>#++*,,,;#>,,,,,,,,,,,#++++                 ",
"                 .#+++++$,,,$+++#>,,,*++>,,,&&,,,,,,,,,,,,#++++                 ",
"                 .#+++++$>,>$++++*,,,>#$,,,>$;,,,,>>>>>>>>#++++                 ",
"                 .#+++++$,,>$++++#>,,,*;,,,*$,,,>&#$$$%$#$#++++                 ",
"                 .#+++++$,,,;****#;,,,,,,,>#*,,,,*********+++++                 ",
"                 .++++++$,,,,,,,>+$,,,,,,,;+$,,,,,,,,,,,,*#++++                 ",
"                 .#+++++&,,,,,,>&+#;,,,,,>$++;,,,,,,,,,,>$+++++                 ",
"                 .#+++++$>>>>>>;$++*>>>>>;+++&>>>>>>>>>>*#+++++                 ",
"                 .#+++++#######+++++$##$##++++$########$#++++++                 ",
"                 .#++++++++++#++++++++++++++++++++++++++++++++#                 ",
"                 .#++++++++++++++++++++++++++++++++++++++++++++                 ",
"                 .+++++++++++++++++++++++++++++++++++++++++++++                 ",
"                 .#++++++++++++++++++++++++++++++++++++++++++++                 ",
"                 .#++++++++++++++++++++++++++++++++++++++++++++                 ",
"                 .#++++++++++++++++++++++++++++++++++++++++++++                 ",
"                 .+++++++++++++++++++++++++++++++++++++++++++++                 ",
"                 .#++++++++++++++++++++++++++++++++++++++++++++                 ",
"                 .#++++++++++++++++++++++++++++++++++++++++++++                 ",
"                 .#++++++++++++++++++++++++++++++++++++++++++++                 ",
"                 .+++++++++++++++++++++++++++++++++++++++++++++                 ",
"                 .+++++++++++++++++++++++++++++++++++++++++++++                 ",
"                 .++++++++#++++#++$$++++++++#$#++++++++++++#+#$                 ",
"       =-@    %.  #+#++++$$+++$$++&++++++++$;;&+++#++++++#+++$&       %         ",
"       @= .&& &@ &;& $$#&$&$;&$*+&;*#*;;#+.$;#.$;*+&;;*+$;;&#-;%  @=& = .=%%    ",
"       @& -=&==.&-%;.@=%&%&&;%%&%;@=->@=%  @>-%%;% &=@-=-@%-%-@-..-@&-= =%%>.   ",
"       @% -===>.=-&-@ --.%&.=&%%%= @>= &%  @-@..== &% &>= @=%% &@@= .>-.-  -.   ",
"       @& %==%-.@=&=  %- %% -=%% ===&= %%  @-= .== &-==@&=--%% &@ ==-%= %-=-.   ",
"           @% .  .%    .    %     %. @ ..   %%. @. =%%.  %@  . .   %@ .  @%.    ",
"                                                   @                            ",
"                                                                                ",
"                                                                                ",
"                                                                                ",
"                                                                                ",
"                                                                                ",
"                                                                                ",
"                                                                                ",
"                                                                                ",
"                                                                                ",
"                                                                                ",
"                                                                                ",
"                                                                                ",
"                                                                                "};
