/* XPM */
static char * VH1 Classic_xpm[] = {
"80 80 11 1",
" 	c None",
".	c #000000",
"+	c #121319",
"@	c #252B41",
"#	c #2F3D73",
"$	c #2D46A3",
"%	c #4A5EAA",
"&	c #6C6B6A",
"*	c #9A9A9A",
"=	c #CDCDCD",
"-	c #FBFBFB",
"                                                                                ",
"                                                                                ",
"                                                                                ",
"                                                                                ",
"                                                                                ",
"                                                                                ",
"                                                                                ",
"                                                                                ",
"                                                                                ",
"                                                                                ",
"                                                                                ",
"                                                                                ",
"                                                                                ",
"                                                                                ",
"                                                                                ",
"                                                                                ",
"                                    $# ##$$                                     ",
"                                 $@@+.....+@@                                   ",
"                                #+...........+#                                 ",
"                              $+...............+$                               ",
"                             $+.......++@+......+$                              ",
"                            $+.....+&*****@@.....+$                             ",
"                            +.....&==-&@@+*=&+....+                             ",
"                           #....+&-==@....@-=&+....@                            ",
"                          $+....*-*++.....@=--*+...+$                           ",
"                          @....&--&.......@----&....@                           ",
"                          +...+=-=&......+@=---=+...+                           ",
"                         $+...#---*@@.....@=----&...+$                          ",
"                         #....*-----*@&&&@&=----*+...#                          ",
"                         #...+=-----**-=-=&=----=+...#                          ",
"                         @...+*-----&&*&**&=----=+...@                          ",
"                         #...+=-----&.++@+&=----=+...#                          ",
"                         #....*---=*#.....+*=---*+...#                          ",
"                         $+...&--=@+........@=--&...+$                          ",
"                          +...+=-*...........*-=@...+                           ",
"                          @....&-*...........*-&+...@                           ",
"                          $+...+*=+.........+*=+....#                           ",
"                           @....+**&*&&&*&&***+....@                            ",
"                            +....+&=-------=&@....+                             ",
"                            #......@&*=-=*&#+.....#                             ",
"                             #....+..@+@@+.......#                              ",
"                              #+...............+#                               ",
"                               $@.............@$                                ",
"                                 $@++.....+++$                                  ",
"                                    $@@#@#$                                     ",
"                   $$                &    $               ##$                   ",
"                  @+.@     $@##%#$%#@#$#  +@&####$@#     +...$                  ",
"                  +...#    $@++&.@&+.++@  @*&+@&+@@%     +..+$                  ",
"                  @..+#         ##$@$$      #$  #%&%     $              $$      ",
"          $##$$   +...#                           &&#              ###$ $$      ",
"        $+++..+@  @..+#  $@++.++@     @++.++#   ++...+#  @++@    @+.+.+@        ",
"       $+.......$ +...$  @..++...@   +...++.+  @...++..%%...+$  @.......+       ",
"       @...@#+..  @..+#  @.+  @..+  $....   # $....      +..+  #...+#@.+@       ",
"      $...+$ $#$  @...#   @@  @...$  +...      +...      +..+  +...$  ##        ",
"      #...@       @..+$   @+ +...+$  #....+@   $+...+@  $...+  ...+             ",
"      $...+       @..+#  +.+  +..+$    @+...@     +...@  +..+  ....$            ",
"      $...+#  $#  +...# #..+ %+...#     #....  $  $+..+  @..+  +...@   #        ",
"       @...+@@..$ +...+%@..+++.....##+  @...+ @.+@@...+  +...@%@....@@+.@       ",
"       $+......@  @....$%+...+@+..+#$++.....# $+......@  @....%%+......+$       ",
"        $#+++@#    #@#$  $#@#  #@#   $@+++@#    #++.@$    #@@$   #@+++#         ",
"                                                                                ",
"                                                                                ",
"                                                                                ",
"                                                                                ",
"                                                                                ",
"                                                                                ",
"                                                                                ",
"                                                                                ",
"                                                                                ",
"                                                                                ",
"                                                                                ",
"                                                                                ",
"                                                                                ",
"                                                                                ",
"                                                                                ",
"                                                                                ",
"                                                                                ",
"                                                                                ",
"                                                                                ",
"                                                                                "};
