/* XPM */
static char * Voyage_xpm[] = {
"80 80 15 1",
" 	c None",
".	c #0F5995",
"+	c #065DA4",
"@	c #0864AE",
"#	c #076BB9",
"$	c #1767A6",
"%	c #0F6BB4",
"&	c #0C6DB4",
"*	c #056FC1",
"=	c #146BB1",
"-	c #3A79AD",
";	c #6799C1",
">	c #8EB6D3",
",	c #B8D9EC",
"'	c #E3F4F9",
"                                                                                ",
"                                                                                ",
"                                                                                ",
"                                                                                ",
"                                                                                ",
"                                                                                ",
"                                                                                ",
"&&&&&&&&&&&&&&&&&&&&&&&&&&&&&&&&&&&&&&&&&&&&&&&&&&&&&&&&&&&&&&&&&&&&&&&&&&&&&&&&",
"&&&&&&&&&&&&&&&&&&&&&&&&&&&&&&&&&&&&&&&&&&&&&&&&&&&&&&&&&&&&&&&&&&&&&&&&&&&&&&&&",
"&&&&&&&&&&&&&&&&&&&&&&&&&&&&&&&&&&&&&&&&&&&&&&&&&&&&&&&&&&&&&&&&&&&&&&&&&&&&&&&&",
"&&&&&&&&&&&&&&&&&&&&&&&&&&&&&&&&&&&&&&&&&&&&&&&&&&&&&&&&&&&&&&&&&&&&&&&&&&&&&&&&",
"&&&&&&&&&&&&&&&&&&&&&&&&&&&&&&&&&&&&&&&&&&&&&&&&&&&&&&&&&&&&&&&&&&&&&&&&&&&&&&&&",
"&&&&&&&&&&&&&&&&&&&&&&&&&&&&&&&&&&&&&&&&&&&&&&&&&&&&&&&&&&&&&&&&&&&&&&&&&&&&&&&&",
"&&&&&&&&&&&&&&&&&&&&&&&&&&&&&&&&&&&&&&&&&&&&&&&&&&&&&&&&&&&&&&&&&&&&&&&&&&&&&&&&",
"&&&&&&&&&&&&&&&&&&&&&&&&&&&&&&&&&&&&&&&&&&&&&&&&&&&&&&&&&&&&&&&&&&&&&&&&&&&&&&&&",
"&&&&&&&&&&&&&&&&&&&&&&&&&&&&&&&&&&&&&&&&&&&&&&&&&&&&&&&&&&&&&&&&&&&&&&&&&&&&&&&&",
"&&&&&&&&&&&&&&&&&&&&&&&&&&&&&&&&&&&&&&&&&&&&&&&&&&&&&&&&&&&&&&&&&&&&&&&&&&&&&&&&",
"&&&&&&&&&&&&&&&&&&&&&&&&&&&&&&&&&&&&&&&&&&&&&&&&&&&&&&&&&&&&&&&&&&&&&&&&&&&&&&&&",
"&&&&&&&&&&&&&&&&&&&&&&&&&&&&&&&&&&&&&&&&&&&&&&&&&&&&&&&&&&&&&&&&&&&&&&&&&&&&&&&&",
"&&&&&&&&&&&&&&&&&&&&&&&&&&&&&&&&&&&&&&&&&&&&&&&&&&&&&&&&&&&&&&&&&&&&&&&&&&&&&&&&",
"&&&&&&&&&&&&&&&&&&&&&&&&&&&&&&&&&&&&&&&&&&&&&&&&&&&&&&&&&&&&&&&&&&&&&&&&&&&&&&&&",
"&&&&&&&&&&&&&&&&&&&&&&&&&&&&&&&&&&&&&&&&&&&&&&&&&&&&&&&&&&&&&&&&&&&&&&&&&&&&&&&&",
"&&&&&&&&&&&&&&&&&&&&&&&&&&&&&&&&&&&&&&&&&&&&&&&&&&&&&&&&&&&&&&&&&&&&&&&&&&&&&&&&",
"&&&&&&&&&&&&&&&&&&&&&&&&&&&&&&&&&&&&&&&&&&&&&&&&&&&&&&&&&&&&&&&&&&&&&&&&&&&&&&&&",
"&&&&&&&&&&&&&&&&&&&&&&&&&&&&&&&&&&&&&&&&&&&&&&&&&&&&&&&&&&&&&&&&&&&&&&&&&&&&&&&&",
"&&&&&&&&&&&&&&&&&&&&&&&&&&&&&&&&&&&&&&&&&&&&&&&&&&&&&&&&&&&&&&&&&&&&&&&&&&&&&&&&",
"&&&&&&&&&&&&&&%%%&&&&&&&&&&&&&%%&&&%%&&&%%&&%%&&&&&&&&&&&&&&&&&%&&&&&&&&%&&&&&%&",
"&==#%&&&&=%&%$$$==&*#&$$#&$&*=$$#*%$==*%===%$=&**#&&&=$=##*&$$$$&**&%%&&$**&%===",
"&&&#%=&&&=%&#&%%%=%##&&$@&$&#&==##%=%%&&%&*#%=%&#&%#@&&&@#@@@&&=&&&$$%&$$=%&%%=%",
"&##&%=&#&=&&#&#*#%%&#*@$@&&&&#&&%%%%%%%%#***&%%&&#%%@#&&&&&&&*&%=&&$==*=$$=&#%%%",
"&##%=&&&&&%%#&&**&=**#@&***&&&#*#%%#*&=&*****#&=&&=$&###@@=&#*&&&&&=%******&&*#%",
"&$$$%&&&#&%$$$=**%$@++$.#*#&=@@=&%*%%%&&&&$@&#&&%&#**###$++@#*@$&&*$$@#@@**%#*#%",
"#-$$=&%&#*%-$$&&&+$--;-$$@#&$--$&##==%&&$$-$@&#&&&**@@=-;--=@=-$&*@$$-=--=+=&#*#",
"@>,-@%=&#*+;';$&.->'',''>-.@=>,-+*#$$=*@.>,,$#*##&=+$>'''''';>'-$@.;,'''',-.%*#&",
"@>'>$@=@@*@>';++-''>;-;>''-+#>'>.*#$$$&.;'''>.&**=.$,''>;>>,'''-+.;',;-->',-.&*#",
"#$,';+=%&#$,'-@-,';++#+.;',-+-''$@&==$+-'';,'-@**%$>',$+....>''&+-',-.+..-',.@*#",
"#.;'>.$&&+;',$+;'>.@***@@>'>+.>'>.*#&$$>';.;'>.*#%$''-+****+$',=+>'-.@@#@+>'-+*@",
"&@$,'-+&#.>';.@,'-.#%#**@-',=+-''$&**+-',$.=',$+*@-'>.=***%=$',=$,'-----;>,'>+##",
"%*$;'>+#@-''-+$',$#*$$$#$$''-+$>';+**.,'-+*+>'>+*+;'>.#*&$$$$',$$,''',''''',;.#*",
"&#@$,'-$.>';@#-,,-+#%=$&#$,,-@+-''$*@-',.=#+$',$$@;'>$$@$$*#-',=$,';;;;----$+$&@",
"&#=.;'>.-''-@%.,'-.%*%%#+;',$%@.>';+$,'-.$...;'>.@-',$$*=%#+;',=.,'$.++@@+@=@%%&",
"&@*+$''$>';+#*+;',$+*##++>'>+#*@-',$.,',>,>,>,''-+$,';.#**+.>',-.;'>.@@##$++=%@&",
"&&&&.;',',$#=*#$,'>.+...>',-@%%@.,';.-,',',',''';.+;'';$$.$,'',-.-,';$.++$-;@@%&",
"&@&*@$''';+#$@*+-,'>;;;,',-+*%%=@-',-#-$--$$---''-@+;'',,,,,;',$@.-,',>;>,'>*@%&",
"&$=*&.;,;$##$=&$.-;,,,,,>$@**$$&&.,'>@@$$@&.$..>,-@#.-;>,>;-$',-#*$$>,''',>*@=@&",
"&==&#%$$$=%%=$=&=+$--=-=.+&&&&&&+$,';+**=&&&**#$-****@++@+#+-',$+&%..$--==@@=%%&",
"&&&%&#%%%#%====#%==@&@@@#*&&$&&&.;'>.#*#%&%%***$$***#####*#.;'>$@#@==$+++##==%%&",
"&*#&&***#*%=#&=%#==&##&&**%$$&&.-''-.=*#==$$&#%$=##@..$@#@+-,'-#*####**%$*#==%%&",
"&*#=&*%%%#%=#*#&%=%&#&%$=%@==#.-,';.=*%%%$$=%=$$$##->;---->'';+#===$&**&$%%==%%&",
"&&*&&#%%%*%$&*&&%%%##&=$==#==@-''>.@#&%&#$$=#=$$=%+-''''''',-+%*$==$=**#$=%=%%%&",
"&&&$&*=$=*%$=&&%%***#&&%##&@#*->;.#*&&=#*=%**&$=&&=&-;>>>;-=@#&$$&&$$&*@$$====%&",
"&&&&&&%%%%%%=%%%%%##&&%%%#%%%#@$$$#@&&%%&%%##%=%%%=@++..$.@@%&%%%&&$%%#%=%%%%&&&",
"&%%%%%%%%%%%%%%%%%=%%%%%%%%%%=%&%&%%%%%%%%%=%%%%%%%%&&&%&&%%%%%%%%%&%%%%&%%&&&&&",
"&%%%%%%%%%%%%%%%%%%%%%%%%%%%%%%%%%%%%%%%%%%%%%%%%%%%%%%=%%%%%%%%%%%%%%%%%%%&&&&&",
"&%%%%%%%%%%%%%%%%%%%%%%%%%%%%%%%%%%%%%%%%%%%%%%%%%%%%%%%%%%%%%%%%%%%%%%%%%%&&&&&",
"&%%%%%%%%%%%%%%%%%%%%%%%%%%@%@%@%@%@%@%%%%%%%%%%%%%%%%%%@%@%@%%%%%%%%%%%%%%&&&&&",
"&%%%%%%%%%%%%%%%%%%%%%%%%%%%%%%%%%%%%%%%%%%%%%%%%%%%%%%%%%%%%%%%%%%%%%%%%%%&&&&&",
"&%%%%%%%%%%%%%%%%%%%%%%%%%%%%%%%%%%%%%%%%%%%%%%%%%%%%%%%%%%%%%%%%%%%%%%%%%%&&&&&",
"&%%%%%%%%%%%%%%%%%%%%%%%%%%%%%%%%%%%%%%%%%%%%%%%%%%%%%%%%%%%%%%%%%%%%%%%%%%&&&&&",
"&%%%%%%%%%%%%%%%%%%%%%%%%%%%%%%%%%%%%%%%%%%%%%%%%%%%%%%%%%%%%%%%%%%%%%%%%%%&&&&&",
"&%%%%%%%%%%%%%%%%%%%%%%%%%%%%%%%%%%%%%%%%%%%%%%%%%%%%%%%%%%%%%%%%%%%%%%%%%%&&&&&",
"&%%%%%%%%%%%%%%%%%%%%%%%%%%%%%%%%%%%%%%%%%%%%%%%%%%%%%%%%%%%%%%%%%%%%%%%%%%&&&&&",
"&%%%%%%%%%%%%%%%%%%%%%%%%%%%%%%%%%%%%%%%%%%%%%%%%%%%%%%%%%%%%%%%%%%%%%%%%%%&&&&&",
"&&&&&&&&&&&&&&&&&&&&&&&&&&&&&&&&&&&&&&&&&&&&&&&&&&&&&&&&&&&&&&&&&&&&&&&&&&&&&&&&",
"&&&&&&&&&&&&&&&&&&&&&&&&&&&&&&&&&&&&&&&&&&&&&&&&&&&&&&&&&&&&&&&&&&&&&&&&&&&&&&&&",
"&&&&&&&&&&&&&&&&&&&&&&&&&&&&&&&&&&&&&&&&&&&&&&&&&&&&&&&&&&&&&&&&&&&&&&&&&&&&&&&&",
"&&&&&&&&&&&&&&&&&&&&&&&&&&&&&&&&&&&&&&&&&&&&&&&&&&&&&&&&&&&&&&&&&&&&&&&&&&&&&&&&",
"&&&&&&&&&&&&&&&&&&&&&&&&&&&&&&&&&&&&&&&&&&&&&&&&&&&&&&&&&&&&&&&&&&&&&&&&&&&&&&&&",
"&&&&&&&&&&&&&&&&&&&&&&&&&&&&&&&&&&&&&&&&&&&&&&&&&&&&&&&&&&&&&&&&&&&&&&&&&&&&&&&&",
"&&&&&&&&&&&&&&&&&&&&&&&&&&&&&&&&&&&&&&&&&&&&&&&&&&&&&&&&&&&&&&&&&&&&&&&&&&&&&&&&",
"&&&&&&&&&&&&&&&&&&&&&&&&&&&&&&&&&&&&&&&&&&&&&&&&&&&&&&&&&&&&&&&&&&&&&&&&&&&&&&&&",
"&&&&&&&&&&&&&&&&&&&&&&&&&&&&&&&&&&&&&&&&&&&&&&&&&&&&&&&&&&&&&&&&&&&&&&&&&&&&&&&&",
"&&&&&&&&&&&&&&&&&&&&&&&&&&&&&&&&&&&&&&&&&&&&&&&&&&&&&&&&&&&&&&&&&&&&&&&&&&&&&&&&",
"                                                                                ",
"                                                                                ",
"                                                                                ",
"                                                                                ",
"                                                                                ",
"                                                                                ",
"                                                                                "};
