/* XPM */
static char * XXL_xpm[] = {
"80 80 14 1",
" 	c None",
".	c #BE0427",
"+	c #415360",
"@	c #A9344C",
"#	c #73818D",
"$	c #B88195",
"%	c #83A6B9",
"&	c #ADABB6",
"*	c #ADC3D4",
"=	c #CACBC8",
"-	c #C0D7E9",
";	c #F7C4C4",
">	c #E1E3DF",
",	c #F5EEE9",
"                                                                                ",
"                                                                                ",
"                                                                                ",
"                                                                                ",
"                                                                                ",
"                                                                                ",
"                                                                                ",
"                                                                                ",
"                                                                                ",
"                                                                                ",
"                                                                                ",
"                                                                                ",
"                                                                                ",
"                                                                                ",
"                                                                                ",
"                                                                                ",
"                                                                                ",
"                                                                                ",
"                                                                                ",
"                                                                                ",
"                                                                                ",
"                                                                                ",
"                                                                                ",
"                                                                                ",
"                                                                                ",
"                                                                                ",
"                                                                                ",
" >>,,,,,,,,-&%%&&*=>>>-=*=->>>,,,,>>-*&*****%###&>,,>-**=*=******&**==%#*,,,,,, ",
" =&>,,>>>>--=***&%%**----*****---->--*******%#%%%%---*****=***=*****=*&%*,,,,#& ",
" >*>,>*%%%%%%%%%%%%%%%%%%%%%%%%%%%%%%%%%%%%%%%%%%%%%%%%%%%%%%%%%%%%%%%*->,,,>+% ",
" =&>>-*%%%%%%%%%%%%%%%%%%%%%%%%%%%%%%%%%%%%%%%%%%%%%%%%%%%%%%%%%%%%%%%*--,,,,#% ",
"  &--*%%$$$&$&$$&%%%*%$$$&$$&$%%%&$&$$$&$$&%%%%*$&$&$$&$%%*%&&&&&&&%*%**-,,,,%& ",
" >=-***$@@.@.@.@@&**&@.@@.@.@.#&*&+.@@@.@@@$***@@.@.@@@@@%&@.@@@@@@$***--->,>-  ",
" >,>****$........@**@@.......+&***$@.......@**$........@&*&@.......@****-->>->> ",
" >>>*****#........$$........@*-***=$@.......$&@.......@&--&@.......$****------- ",
" >%-------$.......@........$*-------$........@.......@*-*-&........$*--------%& ",
"  #*------=$..............@=-------->$..............@&----=@.......$******--*+% ",
" >+%-------=@............$>>----*----=$............@;>----=........@######%##+% ",
" =#*-------->@..........$>,--*-*-*-*-==$..........@$&*%*%%#........@%%#%%#%%#+# ",
" =+#***----->$.........@;,>-*&%%%%%%#%&$..........@%##%##%$@.......@++#######+# ",
" *+#########$@..........$;-&%####%##%#$@.........@@$%%%%%#$........@&&&%%%%%#+# ",
"  +#####%#%$@............@;=&%&%&%%%&&@............@###+##+........$>>=>;=&&%+% ",
" &+##+#####@..............@$#########@...............#&%$&$@.......@;;;;;;;-*+% ",
" =+&%#####@................@#&##$#$$@........@.......@;=>>;@..............$>*+# ",
"  %=>>==;@.......@$;........$>,>>>>$........$;@.......$;>,;...............@,-+# ",
" >&>,>,;$........$,,$........$;,>,$........@,,$........@,,;...............$,=+  ",
" >&=,,;$........@;>,>@........$;,$........@;>,,@........$;;@..............@,*#% ",
" >&=,,$@.@@@@@@@;,,,,;@@@@@@@@@&;@.@.@.@@@;,,>,;@@.@@.@@@$;@@@.@.@.@@.@@@.$,=+% ",
"  &>,>;;;;;;;;;>,,>>,,;;;;;;;;;;;;;;;;;;;;,>,>,,;;;;;;;;;;>;;;;;;;;;;;;;;;;>,&* ",
" >&>,,,,,,,,,,,,,,>>,>,,,,,,,,,,,,,,,,,,,,>,,,,,,,,,,,,,>>,,>,,,,,,,,,>,,,,,>,> ",
" =#&&&&&&========;>>>>==&==&&=&&=&============&==*====================;======,, ",
" >#+++#$&&&=&&$#$#==,>>=&##+++++++++######+#++++++++++#%===>>>>>>;==&&&&$##&&>> ",
"                                                                                ",
"                                                                                ",
"                                                                                ",
"                                                                                ",
"                                                                                ",
"                                                                                ",
"                                                                                ",
"                                                                                ",
"                                                                                ",
"                                                                                ",
"                                                                                ",
"                                                                                ",
"                                                                                ",
"                                                                                ",
"                                                                                ",
"                                                                                ",
"                                                                                ",
"                                                                                ",
"                                                                                ",
"                                                                                ",
"                                                                                ",
"                                                                                ",
"                                                                                ",
"                                                                                ",
"                                                                                ",
"                                                                                ",
"                                                                                ",
"                                                                                "};
