/* XPM */
static char * ZDF_xpm[] = {
"80 80 15 1",
" 	c None",
".	c #D46F39",
"+	c #D87641",
"@	c #DF7D46",
"#	c #E6824A",
"$	c #E98750",
"%	c #E98852",
"&	c #EB8C57",
"*	c #EB9362",
"=	c #EC9A6D",
"-	c #EEA379",
";	c #F0AD88",
">	c #F1B695",
",	c #F3BFA3",
"'	c #F5CBB4",
"                                                                                ",
"                                                                                ",
"                                                                                ",
"                                                                                ",
"                                                                                ",
"                                                                                ",
"                                                                                ",
"                                                                                ",
"                                                                                ",
"                                                                                ",
"                                                                                ",
"                                                                                ",
"                                                                                ",
"                                                                                ",
"                                                                                ",
"                                                                                ",
"                                                                                ",
"                                                                                ",
"                  ==;>,,,,,;-=                                                  ",
"                ->''''''''''''>;%                                               ",
"              ;''''''''''''''''''>*                                             ",
"            -,''''''''''''''','',',;                                            ",
"           ;,''''',',',',,,,,,,,,,,,>=                                          ",
"          >,',,,,,,,,,,,,,,,,,,,,,,,,>=                                         ",
"        &>',,,,,,,,,,,,,,,,>,>,>>>>>>,>-                                        ",
"        >,,,,,,>,>>>>>>>>>>>>>>>>>>>>>>>-                                       ",
"       ;>>>>>>>>>>>>>>>>>>>>>>>>>>>;>;;;;*                                      ",
"      ->>>>>>>>>>>>>>>>;>;;;;;;;;;;;;;;;;-                                      ",
"     *;>>>>;;;;;;;;;;;;;;;;;>;;;;;;;;;;;;;=                                     ",
"     ;;;;;;;;;;;;;;;;;;;;;;-----------==---@                                    ",
"    &;;;;;;;;;;-;-;--------%             *&$############           ##########@  ",
"    -;;--------------------                %$$$$$$$$$$#$$#+     .#$$$$$$$$$$##  ",
"   @=--------------------=-                 $$$$%&&&&&&%%%$#    $%%%%&&&&&&&&$  ",
"   @*=-------=-============@                #$%$#....+@#$$$%#  $$$$$#@........  ",
"   #$&====================***&$$$$$$%%$+    #$%$        #$$$$  %$%#@            ",
"  ##$$&=====*=*=***********&%$$$$$$$$$%#     $%%         @%$%@+%$%@             ",
"  #$%$%&****************&&&%$$$$%%%%%%%$     $%$          %$%##$$&.             ",
"  #$$$$$&&&****&*&&&&&&&&%$$$%%&&&&$##$@     $$#          $$$$#$$%              ",
"  #$$$$$$%%&&&&&&&&&&%%%$$$$$$#@...###      #$%#          $$$$$$$%+             ",
"  #$$$$$$$$$%$%%%%%%%$$$$$$$$@              $$%#          $$$$$$$$$$$$$$$$%#    ",
"  #$$$$$$$$$$$$$$$$$$$$$$$$%+              #$$%#          #$$$$$$$$$$$$$$$%##   ",
"  #$$$$$$$$$$$$$$$$$$$$$$$$#              @$$$%#          $$$$$$$$%&&&&&&&&$    ",
"  #$$$$$$$$$$$$$$$$$$$$$$$$+     .@######$%$$$%#          $$$$%$$$@             ",
"  #$%$$$$$$$$$$$$$$$$$####%     #&$$$$$$$%$$$$%#          $$$$$$$&              ",
"  ##%$$$$$$$$$$$$$$$####$#$     #$$$$$$$$$$$$$%#         @$$%##$$&.             ",
"   #%$$$$$$$$$$#########@##     $%%%%%%%%%%%$$%#         #$$$#@$%%.             ",
"   #%$$$$$#$#############@#     #$#########$$$%$#      +#%$%# @$$$.             ",
"   +%$$$##########@@@@@@@@#                 #$%$$####$%&%%%$  #$$%.             ",
"    $$##########@@###@@@@@@                 $%%$$%%%%%%$$$#   $%%&.             ",
"    #$#####@@@@#@@@@@@@@@@@                 $$%%%%%%%%$$#@    #$$$.             ",
"     $@#@@@#@#@@@@@@@@@@@@@.................                                    ",
"     @##@##@@@@@@@@@@@@++@+@@@@+@+++++++++@                                     ",
"      @@@@@@@@@@@@+++++@++++++++++++++.+.+.                                     ",
"       @@@@@@+@++@+@++++++++++++++.+..+.++                                      ",
"       +@@++@++@++++++++++++++....+.....+                                       ",
"        +@+@++++++++++++++.+..+.+......+                                        ",
"         .@++++++++++++.+.+..........+.                                         ",
"          .+++++++++.+.+..............                                          ",
"            ++.+.....................                                           ",
"             .++.+................+                                             ",
"               ..+++.............                                               ",
"                  .............                                                 ",
"                       ..                                                       ",
"                                                                                ",
"                                                                                ",
"                                                                                ",
"                                                                                ",
"                                                                                ",
"                                                                                ",
"                                                                                ",
"                                                                                ",
"                                                                                ",
"                                                                                ",
"                                                                                ",
"                                                                                ",
"                                                                                ",
"                                                                                ",
"                                                                                ",
"                                                                                ",
"                                                                                "};
