/* XPM */
static char * ZDFdokukanal_xpm[] = {
"80 80 15 1",
" 	c None",
".	c #914A23",
"+	c #656565",
"@	c #D8692C",
"#	c #C27143",
"$	c #F2722D",
"%	c #E27B42",
"&	c #FF7D35",
"*	c #9F9F9F",
"=	c #FB8949",
"-	c #FB965D",
";	c #F9A573",
">	c #FDC4A5",
",	c #D2D2D2",
"'	c #FBF7F4",
"                                                                                ",
"                                                                                ",
"                                                                                ",
"                                                                                ",
"                                                                                ",
"                                                                                ",
"                                                                                ",
"                                                                                ",
"                                                                                ",
"                                                                                ",
"                                                                                ",
"                                                                                ",
"                                                                                ",
"                                                                                ",
"                                                                                ",
"                                                                                ",
"                                                                                ",
"                                                                                ",
"                            -;;-                                                ",
"                         =;;;;;;;-%                                             ",
"                       =;;;;;;;;;;;-&                                           ",
"                     &-;;;;;;;;;;;;;-=$                                         ",
"                    $=-;;;;;;;;;;;;;-=&@                                        ",
"                   $&-;---;;;;;;;-----=&@                                       ",
"                   &=----;-----------=&&$@                                      ",
"                  &&&-----------;;---;-=&$                                      ",
"                 &&&&===-------->>>>>>>>;=$%=-===         ----;                 ",
"                 &&&&==-===-=-=-'''''''''>==----;--=   =-;;;;;;;                ",
"                 &&&&&=========->>>>>>>'''>==%###%--=  -;-%###-#                ",
"                &&&&&&&=========--;---=;''>;$.    .=-%%--.                      ",
"                $&&&&&&&&&===&==&&&&&&$-'''-$.     %==&=%                       ",
"                &&&&&&&&&&&&&=&&&&=-;;;>''>=$.     @=&=&@.                      ",
"                &&&&&&&&&&&&&&&&=>'''''''';&$.     $&&&&$@@$$$$                 ",
"                &&&&&&&&&&&&&&&&>'''''''>>=&$.     @&&&&&&&&&&&                 ",
"                &&&&&&&&&&&&&&&&'''>;;-;-$&&$.     $&&&&$.....                  ",
"                $&&&&&&&&&&&&&&=''>&$$&&&&&&$.     &&&$&@                       ",
"                $&&&&&&&&&&&&&&=''>=&=&&&=&&$.    $&&$@&@                       ",
"                 &&&&&&&&&&&&&&=''''>'>',';==&%%====@.%=@                       ",
"                 &&&&&&&&&&&&&&=''''''''''>=======%#  %=%                       ",
"                  &&&&&&&&&&&&&=;>;>;>>;>;#....#..     .                        ",
"                  $&&&&&&&&&&&&==&=======%                                      ",
"                   &&&&&&&&&&==========-%.                                      ",
"                    &&&&&&&&======-----%.                                       ",
"                     &&&&&======------%.                                        ",
"                      @&&====--------%.                                         ",
"                       @&===-----;--.                                           ",
"                         .@%===-%#.                                             ",
"                             ...                                                ",
"                                                                                ",
"                                                                                ",
"                                                                                ",
"                   '          ,                                                 ",
"                  ''*        ''           ,'                     '              ",
"                ''''+  '''   ', ,'      ' '*     ''     '    ''  '              ",
"               '''''+ '''''  '',''  ''  ',,,,,  '* '  '  ,  ' *, '*             ",
"              *'*+,'*+',+*', ''''*  '' +',,''*   ,*' +,  ,* ,*,, ,*             ",
"              ,'* ,'*+', +',*,''',  ''++',,,,*   ,*' +,  ,* ,*,, ,*             ",
"               ',+''* ''*,'**''*''* '',,',,**, ,'  ' +,  ,,,, *, ,*             ",
"               '''''+ ,''',  ',+*', ,''',,,*  , ,',' *,  ,* ',',*,*             ",
"                 +      *+            ++                                        ",
"                                                                                ",
"                                                                                ",
"                                                                                ",
"                                                                                ",
"                                                                                ",
"                                                                                ",
"                                                                                ",
"                                                                                ",
"                                                                                ",
"                                                                                ",
"                                                                                ",
"                                                                                ",
"                                                                                ",
"                                                                                ",
"                                                                                ",
"                                                                                ",
"                                                                                ",
"                                                                                ",
"                                                                                ",
"                                                                                "};
