/* XPM */
static char * 1_2_3_tv_xpm[] = {
"80 80 16 1",
" 	c None",
".	c #0B0406",
"+	c #0F263E",
"@	c #242223",
"#	c #660816",
"$	c #474646",
"%	c #D40D34",
"&	c #2E5779",
"*	c #5E5E5E",
"=	c #457FAC",
"-	c #767675",
";	c #8F8F90",
">	c #5BAAE5",
",	c #AFAFAE",
"'	c #D6D6D6",
")	c #FBFBFB",
"                                                                                ",
"                                                                                ",
"                                                                                ",
"                                                                                ",
"                                                                                ",
"                                                                                ",
"                                                                                ",
"                                                                                ",
"                                                                                ",
"                                                                                ",
"                                                                                ",
"                                                                                ",
"                                                                                ",
"                                                                                ",
"                                                                                ",
"                                                                                ",
"                                                                                ",
"                                                                                ",
"                                                                                ",
"                                                                                ",
"                                                           $$+$                 ",
"                                                          @+&&.@        ; -     ",
"                                '  -$@$$       -$@@@     *+=>>&.       @...@    ",
"                            ;-$$+@.......@    ...@@@     @+>>>+@      @.&-+.@   ",
"                     , --+@.......#.###....  @@;'';@    ;.=>>&.. *   *.&>>&.@   ",
"                 -$$.@.....####%#%%%%%%*##.@-.-)))$$    @+>>;+..++..-.+>>>+.$   ",
"               $......####%%%%%%%%%%%####.....')),@.$   .&>>&..+>>*...=>>&..    ",
"              @##%#%%%%%%%%%%%#%#%%%##...@..@;)))),.  @.+>>>==+=>'&..=>>=+.*    ",
"             @.#%%%%%%%#%%%##.......@*;,',-.,)))))-.$.+&=>>>>=+=>>+.+;>>+.@     ",
"            *.#*%%%%##.##%#.@-;,,*.$'))))),@')))';.@@+;'>>>,>&+>>>.+=>>&.@      ",
"           -......#.@$**@..-)))));.'))''))-.,))'$..*$.>>>>=++.=>>&.+>>=..-      ",
"          @@.@*;;$.-')))-.$))''))**)),$)))@.')),.@-'$.+=>,+..+=>>&+>>>+.$       ",
"        *.,;@,)))-@)),))$.,)'$')'+'))@;)),.$)))$.;)),.+=>=...+>>>+=>>+.@        ",
"        @,)--),))*;);;)'.$));$,,*+*&$;)))*.,))'@@))),.&,>&.@.&>>=&>>&..         ",
"       $,))@')-')@--*')-.-))'*@....*')))'.$'))-.-)))$.>>>.@ .&>>&=>=+.-         ",
"       @;),$,-,);..-'),..,)))),@.*')))))-.;)))@@')',.&>>&.- .>>>=,>&.$          ",
"      ,.-)-..$)'@.@'))$...;')))$$))';')'@.'));.*;....=>;+. @+=>>>>&.@           ",
"       $')@.$))*.@@;))*.@$$-))'@,))--)),.*)))$.@.###.>>=.* @$>>>>>..            ",
"       $),.@')*.$',*)'@.')'$));@))'@'))$.,)),...#%%#.&>+.  .&>>>>+.$            ",
"      $;)*.')-..,);,),.*));,))$;))',))'.$)))';.#%%%%.=>+@  @&'>>&..             ",
"      @,).;)'+@@)),')$.;))))),.,))))));.-))))*.#%%%#+=&.   .+&>=+.-             ",
"     ;$),*))))-$)))),..,)))),@.,)';'',@.@;;,-..%%%#..@.@   *...+.*              ",
"      *,$$,;;;@.---$....$$$@....@...............#.- $.@      @..                ",
"     $.@.@@....#.#.##%##.#.##%##.###.##%##...- -                                ",
"     ,  '  *..##%###%#%%%#%#%#%%%#%#%#%#%#..*                                   ",
"            @#%%%%%%%%%%%%%%%%%%%%%%%%%%%#.@                                    ",
"            ;.##%%%%%%%%%%%%%%%%%%%%%%%##..                                     ",
"             *...############%%%%%%###...@                                      ",
"               ...............##%%%.....*                                       ",
"                             @..#%%#.@                                          ",
"                              *...%#..                                          ",
"                                @..#..$                                         ",
"                                '$....+                                         ",
"                                  ;@...*                                        ",
"                                    $..@                                        ",
"                                     ,@.;                                       ",
"                                       $@                                       ",
"                                         ,                                      ",
"                                                                                ",
"                                                                                ",
"                                                                                ",
"                                                                                ",
"                                                                                ",
"                                                                                ",
"                                                                                ",
"                                                                                ",
"                                                                                ",
"                                                                                ",
"                                                                                ",
"                                                                                ",
"                                                                                ",
"                                                                                ",
"                                                                                ",
"                                                                                ",
"                                                                                ",
"                                                                                ",
"                                                                                ",
"                                                                                ",
"                                                                                ",
"                                                                                "};
