/* XPM */
static char * 102_5 HIT CH_xpm[] = {
"80 80 16 1",
" 	c None",
".	c #040202",
"+	c #231414",
"@	c #7C0B12",
"#	c #383737",
"$	c #CF0714",
"%	c #EE0414",
"&	c #E61925",
"*	c #5C5B5A",
"=	c #DB303B",
"-	c #DE4853",
";	c #DD6E75",
">	c #A09F9F",
",	c #ECA8AC",
"'	c #D8CECE",
")	c #FCFCFC",
"                                                                                ",
"                                                                                ",
"                                                                                ",
"                                                                                ",
"                                                                                ",
"                                                                                ",
"                                                                                ",
"                                                                                ",
"                                                                                ",
"                                                                                ",
"                                                                                ",
"                                                                                ",
"                                  ' , ; ; , '                                   ",
"                               ,;=&&%&%&%&%&&=-,                                ",
"                            ,-=$%%%%%%%%%%%%%%%$&-,                             ",
"                          ,-%%%%%%%%%&%%%%%%%%%%%%%-,                           ",
"                        ,=%%%%%%%%%%%%%%%%%%%%%%%$%%&*                          ",
"                       ;%%%%%%%%%%%%%%%%%%%%%%%%%%%%%%%;                        ",
"                      -%%%%%%%%%%%%%%%%%%%%%%%%%%%%%%%%$='                      ",
"                    ,=%%%&%%%&%%%%%%%%%%%%%%%%%%%%%%%&%%%-,                     ",
"                    &$%%%%%%%%%%%%%%%%%%%%%%%%%%%%%%%%%%%%&,                    ",
"                  ,=%%%%%%%%%%%%%%%%%%%%%%%%%%%%%%%%%%%%%%$=,                   ",
"                  =%%%%%%%%%%%%%%%%%%%%%%%%%%%%%%%%%%%%%%%%%='                  ",
"                 -$$$&$%$%$$$%$$$%$$$%$$$%$$$%$$$&$$$&$$$%$=$-                  ",
"                ;.+...+++.+.+.+.+.+.+.+.+.+.+.+.+.+.+.+.+.+.+.;                 ",
"               ,%@...+.......................................@%,                ",
"               =%$+.........................................+$%&                ",
"              ;%%&@...+*#*####+....######*####+##*##+.+#....@%%%;               ",
"              =%%%$...*))')))')>*..>)')))')))'#>)'))*+>>*...$%%%=               ",
"             ,%%%%%@..*))))))))))>.'))))))))))#'))))**>'*..@%%%%%,              ",
"             =%%%%%$+.*)))))))))))*>))))))))))#>))))*+>**.+%%%%%%=              ",
"            ,&%%%%%%@.*)))))''))))>'))))))))))#'))))*.+#..@%%%%%%&              ",
"            ;$%%%%%%$.*)))))*.>)))'***'))))***+'))))*....+%%%%%%%$;             ",
"            -%%%%%%%%@*)))))*+>)))>...'))))*...'))))*....$%%%%%%%%=             ",
"            &%%%%%%%%@*)))))''))))>..+'))))#..+'))))*...+$%%%%%%%%&             ",
"            %%%%%%%%%%;))))))))))'+..+'))))*...'))))*...@&%%%%%%%%%,            ",
"           ;%%%%%%%%%$;)))))))))>.....'))))#...'))))*...%%%%%%%%%%%;            ",
"           ,%%%%%%%%%%;)))))))))'+...+'))))*...'))))>>*>-%%%%%%%%%%;            ",
"           -%%%%%%%%%$;))))>>))))>...+'))))#..+'))))))))'%%%%%%%%%%-            ",
"           -%&%%%%%%%%;))))>#)))))*..+'))))*...')))))))),%%%%%%%%%%;            ",
"           =%%%%%%%%%$;))))>.>))))'+..'))))#...'))))))))'%%%%%%%%%%-            ",
"           -%%%%%%%%%%;))))'.*'))))>.+'))))*...'))))))'),%%%%%%%%%%;            ",
"           -%%%%%%%%%%====#+..#+#+##..#+#+#....+###+#==@&%%%%%%%%%%-            ",
"           ;%%%%%%%%%%$$$&@....++......+++..........@&$$%%%%%%%%%&%;            ",
"           ;%%%%%%%%%%-,'''+.#'')>#..+>')'>.......#''''',%%%%%%%%$%;            ",
"            %%%%%%%%%%;))))*#))))))#.')))))'......*)))))'%%%%%%%%%%,            ",
"            &%%%%%%%%%-')))*,))>'))>*))'>'))#.....>))>,;;%%%%%%%%%&,            ",
"            =%%%%%%%%%%=')';')'++)))*>>*.)))#.....>))'',&%%%%%%%%%=             ",
"            ;$%%%%%%%%%&))'*))'..')'#...>))>.....+''''))'&%%%%%%%%-             ",
"            ,%%%%%%%%%%=')';')'+#)))+..>))>+...+.@=&$='))-%%%%%%%&,             ",
"             &%%%%%$%%%&)))*,))>'))>..>))''>*#''*@';;;)))=%%%%%%%&              ",
"             ;%%%&%%%&%=)))==)))))'#+'))))))*>)),-))))))>%%%%%%%%;              ",
"             ,&%%$%%%$%%,,,&%=,'';+.>''>'>''#+''-$;,'',-%$%%%%%%%>              ",
"              -%%%%%%%%%$$$%%%$#...+...........$%%%%&&$%%%%%%%%%-               ",
"               $%%%%%%%%%%%%%%%$+.............+$%%%%%%%%%%%%%%%%,               ",
"               ;%&%%%%%%%%%%%%%%@....+.......+$%%%%%%%%%%&%%%%%;                ",
"                =$%%%%%%%%%%%%%%%+...........+%%%%%%%%%%%%%%%%=                 ",
"                ,&%%%%%%%%%%%%%%%@...........$%%%%%%%%%%%%%%%&,                 ",
"                 ;%%%%%%%%%%%%%$%$+.........+%%$%%%%%%%%%%%%%;                  ",
"                  ;%%&%%%%%%%%%%%&@.........$%%%%%%%%&%%%%%&;                   ",
"                   -%%%%%%%%%%%%%%%+.......+%%%%%%%%%%%%%%%-                    ",
"                    ;%%%%%%%%%%%%%%$.......$%%%%%%%%%%%%%%-                     ",
"                     ;&%%%%%%%%%%%%$+.....@%%%%%%%%%%%%%%;                      ",
"                      ,=%%%%%%%%%%%%@.....$%%%%%%%%%%%%=,                       ",
"                        ;$%%%%%%%%%%%+...+%%%%%%%%%%%$-                         ",
"                          -&%%%%%%%%%$...$%&%%%&%%%&=                           ",
"                           ,-&%%%%%%%%+.+%%%%%%%%$=;                            ",
"                              ;-&&$%%%@.$%%%%%=-;                               ",
"                                ';;--&=@&&=-;;                                  ",
"                                                                                ",
"                                                                                ",
"                                                                                ",
"                                                                                ",
"                                                                                ",
"                                                                                ",
"                                                                                ",
"                                                                                ",
"                                                                                ",
"                                                                                ",
"                                                                                "};
