/* XPM */
static char * 40 LATINO_xpm[] = {
"80 80 16 1",
" 	c None",
".	c #030103",
"+	c #221210",
"@	c #4E1B15",
"#	c #722D21",
"$	c #454545",
"%	c #DF082D",
"&	c #AF2946",
"*	c #854434",
"=	c #A34731",
"-	c #717070",
";	c #C45A42",
">	c #EF5937",
",	c #E3664A",
"'	c #E3876F",
")	c #DAB0A3",
"                                                                                ",
"                                                                                ",
"                                                                                ",
"                                                                                ",
"                                                                                ",
"                                                                                ",
"                                                                                ",
"                                                                                ",
"                                                                                ",
"                                                                                ",
"                                                                                ",
"                                                                                ",
"                                                                                ",
"               ,>>,'>,,,,,,',,,',','''''''')')'))))))))))))))))                 ",
"               ,>&&###====;=;;>;,;,;,>,;>>,>>>,>,>,>,>,>,>,;>>;                 ",
"               ',=.....+.++++++@+@@@@@@@@@@@@####=*=*==;==*==>>                 ",
"               ,,&..........................................=>,                 ",
"               ',=+........................................+->>                 ",
"               ,,=+........................................+;>,                 ",
"               ',>+..........+.......................+.....@;>                  ",
"               ',&+........................................+,%                  ",
"               )>>@............+.....@#@...................$;>                  ",
"               ',>@.............++#*;;'-@.........++@@$@@@+@,;                  ",
"                >,@..........@#=;',,,,,,@+.....+#;;',',',';>>>                  ",
"                ,,@......+#*;;,,,,'))',,#....+*;',,>>>>>>%>>>=                  ",
"                ,,@+.@#=;',,,'')      ,'#..+#',,>>>>>>>,,,,,=,                  ",
"                ,>=&;;,;,,''          ,,#.+*',>>>,                              ",
"                ;>,,,''               ,,&#;'>>>)                                ",
"                ';''                  ,>>>,>>,                                  ",
"                       -              ,>>>>>,                                   ",
"                     $@#%             '>>>>,                                    ",
"                    +&&>%'            '>>>'                                     ",
"                    ;&&%%&            '>>,                                      ",
"                      '';             '>;                                       ",
"                                      )'                                        ",
"                                                                                ",
"                                                                                ",
"                                                                                ",
"                                                                                ",
"                 ,>>>,,,;)                                                      ",
"                 ;>&##=;>;              ;;,;'                                   ",
"                 ,>=+..=,,              ;>>,;,                                  ",
"                 ,>&+..#,;              ,>#@;,>'                                ",
"                 ',=+..$,>              >,#.+;,,,            ),;                ",
"                 ,>&+..#,>,,',''''     '>,&...@=,>,,',''''';,;>;                ",
"                 '>=+..+=,>>>,;,;,;,,,,>,'#+...+@#=;;,>,>,,,=>>>                ",
"                 ,,=+...++@+@@@@@@#@##&##@+........+@@#@#@@++#,;                ",
"                 '>;+........................+...............$,,                ",
"                 ,>&@++++.+.+.+.+............................+,;                ",
"                 '=>;,;,;;;;;;-;-;=;===***********#$##@$@@@@@#>>                ",
"                  ',',',,,,,,,,,,,,;,,,>,,,>>>,;,>,;,>,;,;,;,;>&                ",
"                                                                                ",
"                 .-             $-      +$                                      ",
"                 +-             $-      -.                                      ",
"                 +-             $$                                              ",
"                 $$             .+                                              ",
"                 ++          -$...+--                                           ",
"                 $.             .$                        $$$)                  ",
"                 $.             .-               +.+    $......$                ",
"                 -.       -..   +       -  --   +--.   .+      .+               ",
"                 -.      ..+.$  $       -  $$  +) -+  .$       ++               ",
"                 ).    $.- -.$  -       +  $.$.)  +  .+        +-               ",
"                 ).   $.  -..$  -       .  +..-   + -.)       $+                ",
"                  .  $.- $.+.-  +   -   .  $.$    + $+       ++                 ",
"                  +  ....+  $$  .+-.-   +  $+     . -.-   -+.$                  ",
"                  +  ++-    $$  +..-    $  -      .  $.+.++-                    ",
"                                                                                ",
"                                                                                ",
"                                                                                ",
"                                                                                ",
"                                                                                ",
"                                                                                ",
"                                                                                ",
"                                                                                ",
"                                                                                ",
"                                                                                ",
"                                                                                ",
"                                                                                ",
"                                                                                ",
"                                                                                "};
