/* XPM */
static char * 40 PRINCIPALES_xpm[] = {
"80 80 16 1",
" 	c None",
".	c #070607",
"+	c #46332D",
"@	c #0A6033",
"#	c #2D4C9A",
"$	c #CA2B29",
"%	c #049F3B",
"&	c #646865",
"*	c #139B6A",
"=	c #8498A1",
"-	c #ED910E",
";	c #E0876A",
">	c #A2BD1F",
",	c #F1C973",
"'	c #F0CDBF",
")	c #F7F204",
"                                                                                ",
"                                                                                ",
"                                                                                ",
"                                                                                ",
"                                                                                ",
"                                                                                ",
"                                                                                ",
"                                                                                ",
"                                                                                ",
"                                                                                ",
"                                                                                ",
"                                                                                ",
"                                                                                ",
"                                                                                ",
"                                                                                ",
"                                                        ;;$$$$$&$;;             ",
"                                '$+                 '$$$$+$$$$$$$+$+>           ",
"                              ;';$+               '';';;$-$;-;-,-;$--';;        ",
"                            ';'';$$             ''''',,-,;;-----;-,;,,'.&       ",
"                         ';''';$$;+           '''',,,,,;-----------;,'''+;      ",
"                       ;;'',;$;;;$+          ='''-,,,$----------------,';+=     ",
"                     ';'''$;;';$$;+        ';'',,';----)-----------)-)-)))&     ",
"                  ';''';$$';;$$$$$$       '$',,,,-------------------))))))>,    ",
"                ''''';;;;'$$$$$$$;+      '$',),,---)-)---------)-)))))))))),    ",
"              ';'''$;;';$$$$$$$$$$+     '+;-,,----------------)))))))))))))&&   ",
"           '''''';$';;$$$$$$$$$--;+    '$$-,,--)---------)-))))))))))))))))>+   ",
"         '';'''$;;'$$$$$$$$$-----&+    $$$,;----------)-)))))))))))))))))))>+   ",
"       ';'''$$$;$'$$$$$------)---;+   ;$$,,--)-----)))))))))))))))))))))))),+   ",
"     ',,';$+$+&$$,$$$$-----------=+  ,$$;;------)-)))))))>)))))))))))))))))=@   ",
"    $'''$$+$&' ;;'---------------;+  ;$-,;-)-)))))))))))>>>)))))))))))))>>%*@   ",
"    +$;$&$==   &;',--------------,;  $-;,-)))))))))))>>@&@+-)>)))))))>>%%%*@@   ",
"    $$;$+;     &$'---------------;+ ;--,))))))))))))>>@    &>)))))>>%*%%%%**@   ",
"    ';;+;&&++.;$-'---$---------$-$- +-),)))))))))))>>+     &>,>%>%%%%%%%%%*@&   ",
"    '';'';--$-$;''------------->-),>>),))))))))))))>+      >%=*%%%%%%%%%%%*@*   ",
"    '',-,;;-;;;;;-----------))))),'>>,)))))))))))))-&      .%**%%%%%%%%%%%*.    ",
"    '';---$-$--------;---))))))))),',)))))))))))))))&    '&%*=%%%%%%%%%%%*@&    ",
"    '';$-$-$-$---$----))))))))))))),)))))))))))))>>%*@&+='=@=*%%%%%%%%%%*%@     ",
"    ''--------$----)))))))))))))))))))))))))))>>%%*==*@@*>*=**%%%%%%%%%%*%@     ",
"    '',--$-$-$--)))))))))))))))))))))))))))>>%%%%%**'**%**=*%%%%%%%%%%%**.=     ",
"    '';------)))))))))))))))))))))))))))>>%%%%%%%%%%%*****%%%%%%%%%*#*#=#&      ",
"    '';---)))))))))))))))))))))))))>>%%%%@%%%%%%%%%%%%%%%%%%%%%%*@#######       ",
"    ',,))))))))))))))))))))))))))>%%%%%%%%%%%%%%%%%%%%%%%%%%%*#*#####=##=       ",
"    ,>)))))))))))))))))))))))>>%%%%%%%%%%%%%%%%%%%%%%%%%%%*#########*##=        ",
"    ,)))))))))))))))))))))>>%%%%%%%%%%%%%%%%%%%%%%%%%%%*#*#########=##=         ",
"    -->>>>>>>->>>>)))))>>%%%%%%%%%%%*%%%%%%%%%%%%%%@*##############+#=          ",
"    &>>)>>>)>>&)>>))>>%%%%%%%%%%%%%*****%%%%%%%***#####*#######*##.#            ",
"    ++&+&@&+&@+&>**%%%%%%%%%%%%%%%*@@@@@*%%%%@################*##.&             ",
"               =@=*%%%%%%%%%%%%%%**&   @@=**#############*#*#=###               ",
"               &#=*%%%%%%%%%%%%%%*@&    #.##*################.#                 ",
"               **=*%%%%%%%%%%%%%%*@=     =+####=#*#=#*#=#####                   ",
"               &***%*%*%*%*%*%***###       =#+#.###.#+#.##=                     ",
"               =@@@%@%@%@%@@@######=          ==&;#=#=='                        ",
"               =&@&&&@&&&#&#$###&##=                                            ",
"                                                                                ",
"                                                                                ",
"                                                                                ",
"                                                                                ",
"   =...+   +...   +.  +'    .@   +...  +.  +...&    &=    &.    =..+.=  +...&   ",
"   &.  ..  .+ +.  +.  +.&   .+  ..     ..  .+  .&   ..    &.    =.&    +.+      ",
"   &.  +.  .+ +.  +.  +..+  .&  .'     ..  .+  .&  +##+   &.    =.+&=  =..&     ",
"   &..++   .+..   +.  +. &...+  .=     ..  ...+&  +.  .+  &.    =.++=    &+.+   ",
"   =.      .& .+  +.  ..   @.+  .+     ..  .+    =.+++..= &.    =.+        ..   ",
"   &.      .&  .+ #.  +.    &+   ....  ..  .+    .+    .. &...+ =....+ &....    ",
"                                                                                ",
"                                                                                ",
"                                                                                ",
"                                                                                ",
"                                                                                ",
"                                                                                ",
"                                                                                ",
"                                                                                ",
"                                                                                ",
"                                                                                ",
"                                                                                ",
"                                                                                ",
"                                                                                ",
"                                                                                ",
"                                                                                ",
"                                                                                ",
"                                                                                "};
