/* XPM */
static char * AB 1_xpm[] = {
"80 80 10 1",
" 	c None",
".	c #8A0B0D",
"+	c #B41E20",
"@	c #FF0000",
"#	c #D61919",
"$	c #AD4D4D",
"%	c #F06165",
"&	c #E59697",
"*	c #FBD8D5",
"=	c #FFFFFF",
"                                                                                ",
"                                                                                ",
"                                                                                ",
"                                                                                ",
"                                                                                ",
"                                                                                ",
"                                                                                ",
"                                                                                ",
"                                                                                ",
"                                                                                ",
"                                                                                ",
"                                                                                ",
"                                                                                ",
"                                                                                ",
"                                                                                ",
"                                                                                ",
"                                                                                ",
"                                                                                ",
"                                                                                ",
"                                                                                ",
"                                                                                ",
"                                                                                ",
"                                                                                ",
"                                                                                ",
"                                                                                ",
"                                                                                ",
"       +#####++$$              +####++$$$              +###+++$$$               ",
"      +##############%        +#######++#####%%        #############%%%         ",
"     +####################   .####################   +####################%     ",
"    .#####################+ ..####################+  +#####################     ",
"    .+#######+############# ..####################+  +#####+######+########     ",
"    .###################### ..##+#################+  +#####################%    ",
"    .+#########%%%%######## ..#####&&%%%%%#########  #########%****%#######%    ",
"    .#########$===**%###### ..####%====*===**&&+###  +#######$*====%######+%    ",
"    +#########*=====*###### ..####%============*+##  +######+*=====%######+%    ",
"    ++#######&==***==%+#### ..####%===*******===###  +#####&=======%#######%    ",
"    .########*==*&===%##### ..####%===$$$$$&&===+##  +#####*=======%######+%    ",
"    +#######%===&+&==*##### ..####%===######+===+##  ######===*$*==%#######%    ",
"    +######$*===###===%#### ..####$===**==*====*###  +#####$&&+#*==%#######&    ",
"    +######&===*###===&+### ..####%============&###  +##########*==%#######%    ",
"    +#####+====%+++%==*&### ..####%====******===+##  +##########===%#######&    ",
"    .#####&=======*====*+@# +.###+%==*++#####**=$##  +##########*==%#######&    ",
"    +#####*=============### ..###+%===###+###*==$##  +##########===%#######%    ",
"    +####+==========*===&## ..####%===**&&***===$##  +#####+####*==%#######&    ",
"    ++###$===***&&%%%*==*## .+####%=============+##  +##########===%#######%    ",
"    ++##%*===+######@$*==## ..####%======*===*=&###  +##########===%#######&    ",
"    +##+*****########+##### ..#####**&&%%%%###+####  +##########&&*%#######&    ",
"    .##+%$$$$#####@###+#### +.#####$$$#$++#+#######  +##########$$+########%    ",
"    +###################+## ..#####################  +#+###################     ",
"    $##################@#+  ..####################   +###@#############+@#%     ",
"    $++#################+&  ..+#################++   .################+#+$      ",
"     ..+###+#+#+++++....     ..+####+++++++.....     ..#######+#+++.....$       ",
"     $.........$              .........$$             ...+.....$$               ",
"      &.+.$%                  $..++$                   .+.$%                    ",
"                                                                                ",
"                                                                                ",
"                                                                                ",
"                                                                                ",
"                                                                                ",
"                                                                                ",
"                                                                                ",
"                                                                                ",
"                                                                                ",
"                                                                                ",
"                                                                                ",
"                                                                                ",
"                                                                                ",
"                                                                                ",
"                                                                                ",
"                                                                                ",
"                                                                                ",
"                                                                                ",
"                                                                                ",
"                                                                                ",
"                                                                                ",
"                                                                                ",
"                                                                                ",
"                                                                                ",
"                                                                                ",
"                                                                                "};
