/* XPM */
static char * ALEGRIA__xpm[] = {
"80 80 16 1",
" 	c None",
".	c #0B090A",
"+	c #530D10",
"@	c #8B080A",
"#	c #434444",
"$	c #FD0203",
"%	c #AD5351",
"&	c #6F7171",
"*	c #FE3A3C",
"=	c #FD5757",
"-	c #999999",
";	c #F97B7C",
">	c #FDA09F",
",	c #CCCDCD",
"'	c #FFC2C3",
")	c #F9F8F8",
"                                                                                ",
"                                                                                ",
"                                                                                ",
"                                                                                ",
"                                                                                ",
"                                                                                ",
"                                                                                ",
"                                                                                ",
"                                                                                ",
"                                                                                ",
"                                                                                ",
"                                                                                ",
"                                                                                ",
"                                                                                ",
"                                                                                ",
"                                                                                ",
"                                                                                ",
"                                                                                ",
"                                                                                ",
"                                                                                ",
"                                                                                ",
"                                                                                ",
"                                                                                ",
"                                                                                ",
"                                                                                ",
"                        >;                                                      ",
"                     ;=$$$                                                      ",
"                 >=*$$$$$$*                                                     ",
"             ;=**$$$$$$$$$*                                                     ",
"         > *$$$$$$$$$$$$$$$                                                     ",
"      >*$$$$$$$$$$*$$$$$$$$;                                                    ",
"   =$*$$$$$$$$$=>>##&'=$$$$* &.                                &&               ",
"  '$$$$$$$$$$$>))....,)>*$$* ..&                               -                ",
"   *$$$$$$$$*)))-....-)))=$$>#.                                                 ",
"   *$$$$$$$$')))&....#))))*$ #.&                                                ",
"   >$$$$$$$>)))).#,)..,)))'$$#.    -####-     -##- , )  ###- ) #&   -#&-##,     ",
"    $$$$$$$')))-.&)),.&))))*$..&  &.-  &.&   #.& -#..#  ....#  .#  -#   )..     ",
"    *$$$$$=))))#.,)))..))))>$+.- -.-    &.  -.     &.#  ...&   .#        ,.-    ",
"    =$$$$$>))),..,)))#.-)))'$..  #.-     .& &.     -.#  ..&    .#        &.     ",
"    >*$$$$>)))&.#))))-.#))))$+.- #.#  ,-..# ##      .&  ..     .#     , #..&    ",
"     $$$$$>)))#.#))))&..)))'$..  ...&   ,  )#.      .#  ..     .#   &#- -..     ",
"     *$$$$;)),...&-,&...-))'$+.- #.         ##      .#  ..     .#  #.    ,.&    ",
"     =$$$$=))#..........#))=$..  #.,        &.-    &.#  ..     .#  .-    -.     ",
"      $$$$$),#.#-),,,,#..,)*$+.- -.-     -   #.   -#.&  ..,    .# -.&    &.&    ",
"      *$$$$=-..-)))))))..#;$$..   &.& ,-##    &.###..# ,#.     .#  ..& -#..#    ",
"      *$$$$$%&-)))))))))&%$$$@+;    #&#&           -.#  &&     &   ,##&-  &     ",
"      ;$$$$$$;))))))))))'$$$$$$*                    .#                          ",
"       $$$$$$$*'))))))'=$$$$$$$$            ,-     ,.-                          ",
"       $$$$$$$$$*=;;;*$$$$$$$$$$' '  >  '   ;.#-  ,.+         '                 ",
"       ;$ $$$$$$$$$$$$$$$$$**===**$$$$$$$$$$$$@#%%@$$$$$$$$$$$$$$$$$$$$$$$$$$>  ",
"       ;= ;$$$$$$$$$$$$$*====$$$$$$$$$$$$$$$$$$$$$$$$$$$$$$$$$$$$$$$$$$$$$$$$   ",
"        $= $$$$$$$$$*====*$$$$$$$$$$$$$$$$$$$$$$$$$$$$$$$$$$$$$$$$$$$$$$$$$$$'  ",
"        *  $$$$$**==;$$$$$$$$$$$$$$$$$$$$$$$$$$$$$$$$$$$$$$$$$$$$$$$$$$$$$$$$   ",
"        =*=*$**===$$$$$$$$$$$$$$$$$$$$$$$$$$$$$$$$$$$$$$$$$$$$$$$$$$$$$$$$$$$>  ",
"         *=  ;=************************************ *************************   ",
"                                                                                ",
"                                                                                ",
"                                                                                ",
"                                                                                ",
"                                                                                ",
"                                                                                ",
"                                                                                ",
"                                                                                ",
"                                                                                ",
"                                                                                ",
"                                                                                ",
"                                                                                ",
"                                                                                ",
"                                                                                ",
"                                                                                ",
"                                                                                ",
"                                                                                ",
"                                                                                ",
"                                                                                ",
"                                                                                ",
"                                                                                ",
"                                                                                ",
"                                                                                ",
"                                                                                ",
"                                                                                "};
