/* XPM */
static char * ALOUETTE_xpm[] = {
"80 80 16 1",
" 	c None",
".	c #DB0306",
"+	c #ED0402",
"@	c #FC0102",
"#	c #D7151B",
"$	c #EB1A1D",
"%	c #D32D31",
"&	c #F02E0F",
"*	c #E83335",
"=	c #E24E50",
"-	c #F8622D",
";	c #ED6E6E",
">	c #F29595",
",	c #FE9D4D",
"'	c #FBCAC9",
")	c #FEF9F8",
"                                                                                ",
"                                                                                ",
"                                                                                ",
"                                                                                ",
"                                                                                ",
"                                                                                ",
"                                                                                ",
"                                                                                ",
"                                                                                ",
"                                                                                ",
"                                                                                ",
"                                                                                ",
"                                                                                ",
"                                                                                ",
"                                                                                ",
"                                                                                ",
"    @@@@@@@@@@@@@@@@@@@@@@@@@@@@@@@@@@@@@@@+@+@@@@@@@@@@@@@@@@@@@@@@@@@@@@@     ",
"    @@@@@@@@@@@@@@@@@@@@@@@@@@@@@@@@@@@@@+.***++@@@@@@@@@@@@@@@@@@@@@@@@@@@     ",
"    @@@@@@@@@@@@@@@@@@@@@@@@@@@@@@@@@@@@@.;')''=$+@@@@@@@@@@@@@@@@@@@@@@@@@     ",
"    @@@@@@@@@@@@@@@@@@@@@@@@@$@@@@@@@@@@++*>;>')'=+@@@@@@@@@@@@@@@@@@@@@@@@     ",
"    @@@@@@@@@@@@@@@@@+@@@@@+@@@+@+$$&&&&&+..+.%;'';.@+@@@+@+@@@@@@@@@@@@@@@     ",
"    @@@@@@@@@@@@@@@@@@@@@@@@@@+&-,,,,,,,,,-&+@+.%>)>.+@@@@+@@@@@@@@@@@@@@@@     ",
"    @@@@@@@@@@@@@@@@@@@@@@@++#-,,,,&-&&&--,;-&+@+.;'>.@+@@@@@@@@@@@+@@@@@@@     ",
"    @@@@@@@@@@@@@@@@@@@@@@@$-,,,--$++@@@+@$*-,*+@@.;';.@@@@@@@@@@$+@@@@@@@@     ",
"    @@@@@@@@@@@@@@@@@@@@@+$-,,,&++@@@@@@@@@++&;-$+@.;>%+@@@+@+@@@+@@@@@@@@@     ",
"    @@@@@@@@@@@@@@@@@@@@+&-',,$+@@@@@@+@@@@@@@$;*++@.>;$@@@@@@@@@@@@@@@@@@@     ",
"    @@@@@@@@@@@@@@@@@@@++-,-&$@+@@@@@+$@@@@+@@+@$+@+@+=+@@@+@@@+++++@@@@@@@     ",
"    @@@@@@@@@@@@@@@@@$@@$,-$+@#-*$+@+&,,$+$$+$@@@$@@+@+$@@$*+@+#;'-$@@@@@@@     ",
"    @@@@@@@@@@@@@@@@@+@+@+++@+&,,&+++&,-$#,-++@@@+@@@@@@@.>>*++*));+@@@@@@@     ",
"    @@@@@@@@@@@@@@@@@@@@@@@@@@&,-$$--&#&+&;-+@@@@@@@@@@@.;))*++'))*@@@@@@@@     ",
"    @@@@@@@+@@@+@+@@@@@@@@+.++@+++-,,-$+@+$+@@@+@@@+@@@+#>)'$@*')>#+@+@@@@@     ",
"    @@@@@@@@@@@@@@@@@$@@@@#>;$@@@@-,,,+@@@@@@@@@@@@@@@@+=))'.@;))>++.*-=+$@     ",
"    @@@@@@@@@@@@@@@@@+@+@.>)>+@@@+$--$+@@@@+@+@@@+@+@+@.>))=+.>))%.%>>;$@+@     ",
"    @@@@@@@@@@@@+@@@+@@@+*')%+@@@@+@+@@@@@@@@@@@@@@@@@@#')'*@*'))>>)'=.+++@     ",
"    @@@@@@@+@@+->$++@@@@+>)>+@@@@@@@@@@@@@@@@@@@@+@+++@=))'+.-)))));#.=;>=+     ",
"    @@@@@@@@@@=))'$@@$@@$));+@@@@@@@@@@@@@@@@@@+$;==>*.;))>#*'))))=..>))))*     ",
"    @@@@@@@@@#')))>.@+@+>)'%@@@+@@@+@++$$.@@+@@+>))');#>))'>))))'%..>));')=     ",
"    @@@@@@@@.>))))'*+@+$')>#@@@++$+@@+%''*+@@@+>))>>)>%)))))))))=..>));=')%     ",
"    @@@@@@@.=')))))=+@+=))>.@+$;>';+@.>)>+++++*')>%>);%')'>;>))'*+%')'=')>#     ",
"    @@@@@@+&'''))))>+@+'))=++$'))))=.;))=+*>>%>));>)'%=))'..;)))*+=)))')>%+     ",
"    @+++@@#>'%'))))>#+*')'*++;)';')>#>)'$#'))='))')>*.;))>++>))'$+;))'';#.@     ",
"    @@+@@+=);=')))))%+;))'.+=));#')>=))>#'))'=')'';$++%))>.$>))'.@;))=#++*@     ",
"    @@@@@#''%%)))))'*.'))>.+')'+*')%'))=>'))>#')>...&$#')>++>))>.+=');#*;;$     ",
"    @@@@.>)'.-))))))*#'))>.=));.;)'=')'')=;)'%>)'=*>>*.>)'$+;))>+@.>))'',&@     ",
"    @+@+*')=.=)))))'*$)))=.>)'*+');%))));.$;>**'))';%+@+;;$+=')'$.%,>>>*.+@     ",
"    @@@#>));.=)))))'#=)))=.')'#>))$$>))>.@+++$.*;>*++@@++++@#>))>>>;.+.@@@+     ",
"    @@+*)))'==)))))>.=)))*+>)'>))=++$;;.@+@@@+@++.+@@@@+@+@@+$>''>*+@@@@@+@     ",
"    @@+>))))>='))))>+*)))=.;))));$@@@@+@@@@@@$@@@@@@@@@-$@@@@@+%$++@@$@@@@@     ",
"    @+*')))''=')))'=+.>))>;-;;>=#+@@@+@@@@@@@@@@@+@@+.-,&+@@@@@+@@@@@@@@@@@     ",
"    @+;))'%**$;)))>.@+*''';*+@++@@@@+$+@@@@@@@@@@@+$&-,,+@@@@@@@@@@@@@@@@@@     ",
"    @$'))=++++#;)'>+@@+$*$#+@@@@@@@@@+@@@@@+@+@@@@+-,,,#+@@@@@@@@@@@@@@@@@@     ",
"    .;))'$@@@@+#$=$$+$@@+@@$.@@@$-+@@@@@@@@@@$@@@$-,,,&+@@@@@@@@@@@@@@@@@@@     ",
"    #>));.@@@+@@@+@@@+@+@++=;.@+$=-#++@+@+@@@@++$-,,,$+@@+@@@@@@@@@@@@@@@@@     ",
"    #')'$@@@@@@@@@@@@@@@+@+&';.@@@=,-&+#++++.$&-,,,-+@@@@@@@@@@@@@@@@@@@@@@     ",
"    +='=.@@@@@@+@+@@@@@@@+@.=';.+@+$-;,--&----,,,-&+@@@@@@@@@@@@@@@@@@@@@@@     ",
"    ++$#+@@@@@@@@@@@@@@@+$@@.;)>#+@@+&-,,,,,,,--@@+@@@@@@@@@@@@@@@@@@@@@@@@     ",
"    @@@+@+@@@+@@@@@@@@@+@+@+@.;''=++@++.&$&$&+++@@@@@+@@@@@@@@@@@@@@@@@@@@@     ",
"    @@@@@@@@@@@@@@@@@@@@@@@@@@.=')>;%%#*+@@@@@@@@@@@@@@@@@@@@@@@@@@@@@@@@@@     ",
"    @@@@@@@@@@@@@@@@@@@@@@@@@@@.#;''''''*+@@@@@@@@@@@@@@@@@@@@@@@@@@@@@@@@@     ",
"    @@@@@@@@@@@@@@@@@@@@@@@@@@@$++$;>''>$@@@@@@@@@@@@@@@@@@@@@@@@@@@@@@@@@@     ",
"    @@@@@@@@@@@@@@@@@@@@@@@@@@++@@@+++$.++@@@@@@@@@@@@@@@@@@@@@@@@@@@@@@@@@     ",
"    @@@@@@@@@@@@@@@@@@@@@@@@@@@@@@@@@@+@+@@@@@@@@@@@@@@@@@@@@@@@@@@@@@@@@@@     ",
"                                                                                ",
"                                                                                ",
"                                                                                ",
"                                                                                ",
"                                                                                ",
"                                                                                ",
"                                                                                ",
"                                                                                ",
"                                                                                ",
"                                                                                ",
"                                                                                ",
"                                                                                ",
"                                                                                ",
"                                                                                ",
"                                                                                ",
"                                                                                ",
"                                                                                ",
"                                                                                "};
