/* XPM */
static char * AXN_xpm[] = {
"80 80 16 1",
" 	c None",
".	c #E20107",
"+	c #FA0108",
"@	c #EC0914",
"#	c #DA121C",
"$	c #DC2B34",
"%	c #F62933",
"&	c #E8414B",
"*	c #E45A62",
"=	c #EA7072",
"-	c #E98387",
";	c #F39FA3",
">	c #F7B8BA",
",	c #FACBCE",
"'	c #FEEBE9",
")	c #FDFEFD",
"                                                                                ",
"                                                                                ",
"                                                                                ",
"                                                                                ",
"                                                                                ",
"                                                                                ",
"                                                                                ",
"                                                                                ",
"                                                                                ",
"                                                                                ",
"                                                                                ",
"                                                                                ",
"                                                                                ",
"                                                                                ",
"                                                                                ",
"                                                                                ",
"                                                                                ",
"                                                                                ",
"                                                                                ",
"                                                                                ",
"                                                                                ",
"                                                                                ",
"                                                                                ",
"                                                                                ",
"                                                                                ",
"                                                                                ",
"                                                                                ",
"                                                                                ",
"                                                                                ",
"                                                                                ",
"                                                                                ",
" &.#@#@#@@@#+@.#@@@@@@@@@@@@@#######..+@.++#*')))))'&#@%#@@@@@@#@#@@@@@#@@+@@%$ ",
" #+++++++++++.&=..+++++++++++&;;;;;;-@+++..='')))),$.++@*$..+++++.+++++.@...++# ",
" $+++@+@+@+@.&,)=.+++@+@+@+@+%;))))));#++#-))))))>#++++%,'-$.++++@+@+@@-;>;*.+# ",
" $++++++@+@.$>))'*.+++++@+@+@.#-))))))>.#;))))));#+++++#,)),-#+++++++.#,)))=.+# ",
" %+++@+++++#>))))'&++++@+++++@+#-))))));;)))))'-.++@+++#,))))'=%.+++++@,)))-.+# ",
" $++@++++.#;))',)),#++++++++++++#=)))'))))))),*.+++++++#,)))))),=..+++@>)))=.+# ",
" $+++@+@+#-))'&$,)),#@@@+++++++@@#*')))))))),*.++@+@+++$,)))))))),*#.+@,)))-.+# ",
" $++@+@+.=)))*..$,));#@+++++++@+++.*))))))),$.++++@++++@,))',>)))))>*.#>)))=.+# ",
" %+@+@+#*)))=#@@#*'))-.@+@+++@++++#;)))))))'*#+++@+@+@+#,)));#*,))))'>*,)))-.+# ",
" $++++.&'))',>,>,>'))'=.+.++@+++.$>))'))))))'=#.+++++++#,)));..#*>))))'')))=.+# ",
" $++++&'))))))))))))))'*.+++++++&,))))))))))))-#+++++++$,)));+++.#*>)))))))-.+# ",
" $++@$,)))';>>>>>>>>))),&.@+++.&'))')))--')))))-#.+++++#,)));.+++++@*>)))))=.+# ",
" $++#>))),$..+.+++.#;))),&.++@='))))))=..;))))));%.++++#,)));@++++++.#*,'))-.+# ",
" $+@;')',$.++++++++.#>)));#..=))))))'*.++.-')')')>$.+++#,')';.++@++++..#=>)-.+# ",
" $+@%&$&%++++@+@+++@.%&&%&@#;))))))'*.++++@&&&&&&&%@+@+@%&$&%++@+@+@+@++.#==.+# ",
" $+++++++++++++++++++.+++.$;))))))'&.++++++.+++++.++++++++++++++++++@+++++.+++# ",
" $++++++++++++++++++++++.&,)))))),&.++++++++++++++++.+++++++++++++++++++++++++# ",
" *&&&&&&&&&&&&&&&&&&&&&&*,)))'))'-$&&&&&&%&&&&&&&&&&&&&&&&&&&&&&&&&&&&&&&&&&&%* ",
"                                                                                ",
"                                                                                ",
"                                                                                ",
"                                                                                ",
"                                                                                ",
"                                                                                ",
"                                                                                ",
"                                                                                ",
"                                                                                ",
"                                                                                ",
"                                                                                ",
"                                                                                ",
"                                                                                ",
"                                                                                ",
"                                                                                ",
"                                                                                ",
"                                                                                ",
"                                                                                ",
"                                                                                ",
"                                                                                ",
"                                                                                ",
"                                                                                ",
"                                                                                ",
"                                                                                ",
"                                                                                ",
"                                                                                ",
"                                                                                ",
"                                                                                ",
"                                                                                ",
"                                                                                ",
"                                                                                "};
