/* XPM */
static char * BARÇA TV_xpm[] = {
"80 80 16 1",
" 	c None",
".	c #6C0518",
"+	c #083A8A",
"@	c #85183A",
"#	c #3E65A2",
"$	c #A05F6D",
"%	c #7091BC",
"&	c #C395A1",
"*	c #9EB5D1",
"=	c #D2BEC4",
"-	c #C3D4E4",
";	c #E5D2D6",
">	c #E8E0E6",
",	c #DEECF3",
"'	c #F2F5F7",
")	c #FFFFFF",
"                                                                                ",
"                                                                                ",
"                                                                                ",
"                                                                                ",
"                                                                                ",
"                                                                                ",
"                                                                                ",
"                                                                                ",
"                                                                                ",
"                                                                                ",
"                                                                                ",
"                                                                                ",
"                                                                                ",
"                                                                                ",
"                                                                                ",
"                                                                                ",
"  )))))))))))))))))))))))))))))))))))))))))))))))))))))))))))))))))))))))))))   ",
"  )))))))))))))))))))))))))))))))))))))))))))))))))))))))))))))))))))))))))))   ",
"  )))))))))))))))))))))))))))))))))))))))))))))))))))))))))))))))))))))))))))   ",
"  )))))))))))))))))))))))))))))))))))))))))))))))))))))))))))))))))))))))))))   ",
"  )))))))))))))))))))))))))))))))))))))))))))))))))))))))))))))))))))))))))))   ",
"  )))))))))))))))))))))))))))))))))))))))))))))))))))))))))))))))))))))))))))   ",
"  )))))))))))))))))))))))))))))))))))))))))))))))))))))))))))))))))))))))))))   ",
"  )))))))))))))))))))))))))))))))))))))))))))))))))))))))))))))))))))))))))))   ",
"  )))))))))))))))))))))))))))))))))))))))))))))))))))))))))))))))))))))))')))   ",
"  )))))))))))))))))))))))))))))))))))))))))))))))))))))))))))))))))))))))))))   ",
"  )))))))))))))))))))))))))))))))))))))))))))))))))))))))))))))))))))))))))))   ",
"  ))))))))))))))))))))))))))))))))))))))))))))))))))))))))))))))))))''==&==))   ",
"  )))))))))))))))))))))))))))))))))))))))))))')))')))))))))))>>;;&&$$@@@@.@$)   ",
"  )))))))))))))))))))))))))))))))))))))))))))))))))))))';=&=&&@$@@.@@@.@$&@.$   ",
"  )))))))))))))))))))))))))))))))))))))))))))))))),'>$&$$@@.....@$@.@..&)$.@.   ",
"  ))))))))))))))))))))))))))))))))))))))))'',,**%%#,&....@@$$=;&$)=.@.$)&.@@.   ",
"  )))))))))))))))')))))))')))'))))))'>>--%%##+++#++;@.$&>>>'';=@$);...';@.@.+   ",
"  ))))))))))))))))))))))))))))',--**%#+#+++##%%%++#;.&);&>)&@@..@>'$.=)$.@@@@   ",
"  )))))))))))))))))))))'',-*%%%##+++++%+#*-,)'),++*=.@$..&'...@..=)$$)&.@@@.$   ",
"  ))))))))))))))))''--%%##+#+++++*-,,''#*>*%+@-,++-&.@..@>;.@@@@.&);>>.@@@@.=   ",
"  )))))))))',--**##+++++###%->%+>,-**%#++.++##'*++-@.@@.$'&.@.@@@@'))..@@@@.=   ",
"  )))),-**%%#++#+##%%*#+-)',*)%%'#++++++%,))'''%+%'@@@@.$)@.@@@@@@='$.@@@@.$>   ",
"  ))*#%+++++##+#--''')*+,*#++,$%'+#+#++%)%##+%)++%;.@@@.&)@.@@@@@.@........$)   ",
"  )'+++#*,,,,)##*%#++'%#'#+#+#+-=++++++,-++#%''++-$.@@@@&&.@.@...+.@@$$&=;;')   ",
"  )-+++%'&%+%)#+##%%-,#$)+++#+#,%+##%#+-)')',-%+#-$.@.......@@$$&&;>'')))))))   ",
"  )-+#+,*+#%=-+%))'-,,+*-++##+%)--'))-+%**%#++++#'+..##%$&&;>))))))))))))))))   ",
"  )%++#>'-'>)#+'%++.*-+,%+#+#+#--)-##++++++.++##*>=&;>'))))))))))))))))))))))   ",
"  '#+##'%#+#,%#)%*-')*#'####+#+++#+++++##%*->''))))))))))))))))))))))))))))))   ",
"  ,+++%,$#%-'+#,,****+#+++++++++#@%%--'))))))))))')))')))))))))))))))))))))))   ",
"  ,#++-))'--#++#++++++++#%%**--')))))))))))))))))))))))))))))))))))))))))))))   ",
"  )#++%##++++++.++#%*=--,')))))))))))))))))))))))))))))))))))))))))))))))))))   ",
"  )'#++++$#$%*-,>''))))))))))))))))))))))))))))))))))))))))))))))))))))))))))   ",
"  )))***,')))))))))))')))))))))))))))))))))))))))))))))))))))))))))))))))))))   ",
"  )))))))))))))))))))))))))))))))))))))))))))))))))))))))))))))))))))))))))))   ",
"  )')))))))))))')))))))))))))))))))))))))))))))))))))))))))))))))))))))))))))   ",
"  )))))))))))))))))))))))))))))))))))))))))))))))))))))))))))))))))))))))))))   ",
"  )))))))))))))))))))))))))))))))))))))))))))))))))))))))))))))))))))))))))))   ",
"  )))))))))))))))))))))))))))))))))))))))))))))))))))))))))))))))))))))))))))   ",
"  )))))))))))))))))))))))))))))))))))))))))))))))))))))))))))))))))))))))))))   ",
"  )))))))))))))))))))))))))))))))))))))))))))))))))))))))))))))))))))))))))))   ",
"  )))))))))))))))))))))))))))))))))))))))))))))))))))))))))))))))))))))))))))   ",
"  )))))))))))))))))))))))))))))))))))))))))))))))))))))))))))))))))))))))))))   ",
"  )))))))))))))))))))))))))))))))))))))))))))))))))))))))))))))))))))))))))))   ",
"  )))))))))))))))))))))))))))))))))))))))))))))))))))))))))))))))))))))))))))   ",
"                                                                                ",
"                                                                                ",
"                                                                                ",
"                                                                                ",
"                                                                                ",
"                                                                                ",
"                                                                                ",
"                                                                                ",
"                                                                                ",
"                                                                                ",
"                                                                                ",
"                                                                                ",
"                                                                                ",
"                                                                                ",
"                                                                                ",
"                                                                                ",
"                                                                                ",
"                                                                                ",
"                                                                                ",
"                                                                                "};
