/* XPM */
static char * BBC World_xpm[] = {
"80 80 10 1",
" 	c None",
".	c #000000",
"+	c #262626",
"@	c #414141",
"#	c #616161",
"$	c #777777",
"%	c #868686",
"&	c #979797",
"*	c #A8A8A8",
"=	c #B8B8B8",
"                                                                                ",
"                                                                                ",
"                                                                                ",
"                                                                                ",
"                                                                                ",
"                                                                                ",
"                                                                                ",
"                                                                                ",
"                                                                                ",
"                                                                                ",
"                                                                                ",
"                                                                                ",
"                                                                                ",
"                                                                                ",
"                                                                                ",
"                                                                                ",
"                                                                                ",
"                                                                                ",
"                                                                                ",
"                                                                                ",
"                                                                                ",
"                                                                                ",
"                                                                                ",
"                                                                                ",
"                                                                                ",
"                                                                                ",
"                                                                                ",
"                                                                                ",
"                                                                                ",
"                                                                                ",
"                                                                                ",
"                                                                                ",
"                                                                                ",
"                                                                                ",
"  =%%%%%%%%&%  &%%%%%%%&%* *%%%%%%%%%&                                          ",
"  #..+@@+....$ ...@@@....@ +...@$#@...               *$&   &##=   *    *%%%     ",
"  #..$   *+..% +.@    +..@ @.+=    *..  +   $.   #$ @+#@+  @@$+*  .    +@#@+#   ",
"  $..% .# @..% ..@ ++ %..@ @.* @..+#.+  #$  @+#  + ##   $+ #& @#  +    +=   +&  ",
"  #..% @* +..% +.@ #$ @..@ ++ #.......   + *@*+ &# +     @*##&+*  +    +=   $#  ",
"  $..$    @..% ..@    #..@ @+ @......+   @&#& @&#&=@     @*#++@   +    +=   &#  ",
"  #..% +.* ..% +.@ @.# +.@ ++ %.......   *++  %+@  +     +=#& +%  +    +=   ##  ",
"  $..% ++= ..% ..@ #+% @.@ @.% %++$%.+    +#   .$  #@   @@ @% *+  +*   +&  #.=  ",
"  #..$    #..% +.@    &..@ @..$    %..    %=   %=   #+@+#  #&  #% ++++=#+@+@*   ",
"  #...+@++...$ ...++@+...@ +....++....                *                         ",
"  %+@++++++++& @+++++++++# #+++++++++@                                          ",
"                                                                                ",
"                                                                                ",
"                                                                                ",
"                                                                                ",
"                                                                                ",
"                                                                                ",
"                                                                                ",
"                                                                                ",
"                                                                                ",
"                                                                                ",
"                                                                                ",
"                                                                                ",
"                                                                                ",
"                                                                                ",
"                                                                                ",
"                                                                                ",
"                                                                                ",
"                                                                                ",
"                                                                                ",
"                                                                                ",
"                                                                                ",
"                                                                                ",
"                                                                                ",
"                                                                                ",
"                                                                                ",
"                                                                                ",
"                                                                                ",
"                                                                                ",
"                                                                                ",
"                                                                                ",
"                                                                                ",
"                                                                                ",
"                                                                                ",
"                                                                                ",
"                                                                                "};
