/* XPM */
static char * BFM_xpm[] = {
"80 80 16 1",
" 	c None",
".	c #020102",
"+	c #31140A",
"@	c #4A2112",
"#	c #582B15",
"$	c #383939",
"%	c #773C1D",
"&	c #944F29",
"*	c #6E6E6F",
"=	c #B55E2C",
"-	c #D17036",
";	c #F16E1C",
">	c #E47530",
",	c #F47326",
"'	c #EE7D39",
")	c #ABABAC",
"                                                                                ",
"                                                                                ",
"                                                                                ",
"                                                                                ",
"                                                                                ",
"                                                                                ",
"                                                                                ",
"                                                                                ",
"                                                                                ",
"                                                                                ",
"                                                                                ",
"                                                                                ",
"                                                                                ",
"                                                                                ",
"                                                                                ",
"                                                                                ",
"                                                                                ",
"                                                                                ",
"                                                                                ",
"                                                                                ",
"                                                                                ",
"                                                                                ",
"                                                                                ",
"                                                                                ",
"                                                                                ",
"    ;;;;;;;;;;;;;;;;;;;;;;;;;;;;;;;;;;;;;;;;;;;;;;;;;;;;;;;;;;;;;;;;;;;;;;;;    ",
"    ;;,;;;,;;>>>>>>>>;,-',;;>;;;>>>>>>>>>->>>;,>>>>->>,;,;>>>>>>,>,;,;,;,;,-    ",
"    ;,,,;,;,,=@@@@@@@#@#$=-';,>&@$@@@#@#@@@@&)%@@#@@@%-,;'=#@@@@@#=';,;,;,;;    ",
"    ;;>;;;;;'%............#=,;>@............%-#.......=>,>%.......&,,;,;,;;;    ",
"    ;;;,;,;,,%.........+...%>,-#............%'#.......&';>#.......&,;,;,>,;;    ",
"    ;;,;,;,;'%..............=,>@............%'#.......%>,-@.......&,;;,;>;;-    ",
"    ;,;,;,;,,%.....@@@+....+&'>#.....+++.+++%'#.......@',=.......+&';,,,;,;;    ",
"    ;;>;,;;;'%....@->>-+....&,>@....%*======->#.......+='%........&,,;,;;;;-    ",
"    ;,;,;,;,,%....#''''$...+='>#....%''''''',,#........='%........&';,;,;,;;    ",
"    ;;>;,;,;'%....@&&&%....#>,>@....@%%%%%%=,>#........%'@........&,>;,;;;,-    ",
"    ;,;,;,>,,%............#',,>#...........&,'#....$...%-$..+$...+&';,,,;,;;    ",
"    ;;>;,;,;,%............+%>;>@...........%,>#....$+..+*...%#....&,,;,;;;;-    ",
"    ;,;,;,;,,%.....+........%'>#...........&,,#....*#..+$...%%....&';,;,;,;;    ",
"    ;;>;,;,;,%....@*=*=#....+-'@....+++++++&'>#....&%.......=#....&,>;,;;;,-    ",
"    ;,;,;,;,,%....#',''-.....;'#....%>---;-;,,#....&&+.....+-%...+&';,,,;,;;    ",
"    ;;>;;;;;'%....#'','=+...+&'@....%',,,,,;,>#....&-......#'#....&,,;,;,;;;    ",
"    ;,;,;,;,,%....+*&&%@.....='#....%';,,,;,;,#....&'@.....&'#....&';,;,;,;;    ",
"    ;;>;,;>;,%..............@-'@....%,;;,;,;,>#....%'%....+&'#....&,,;,;;;,-    ",
"    ;,;,;,,,,%.............+&'>#....%';;;,;,;'#....&'=....+-,%...+&,;,;,;,;;    ",
"    ;;;;;;;;'%.............%>>>@....%>,;,;;;;>#....%'*+...@-'#....&,,;,;,;,-    ",
"    ;,;,,,;;,%.........++@&',,>#....%',,;>;,;'#....&''@...%'>%...+&';,;,;,,;    ",
"    ;;>;;;,;;===========->';,>>=====;>,>>>,;;;-=====;,-===;;;=====;;,;,;;;,;    ",
"    ;,,,;,,,;,,',',',',',,;,,,,,,',',,,,;,,,;,,',',,;,,',',,,,,',',,,,,,,,,;    ",
"    -----------------------------------------=-----------------------------=    ",
"    +@+@+++@+@+@+@+@+@+@+++@+++@+++@+@+@+@+@+++@+@+++@+@+@+@+@+@+@+@+++@++++    ",
"    ........................................................................    ",
"    .*...)$..$*)$.$).$))$$$$*)$..*)*.*)*..*$.*$)*$*)*$*)$$)$$$$)*$**$)$*$)*$    ",
"    $)$.$))..$)*).))$$)*)*)*)*)..)**)*)$..)*$$*)$$)$**)$)$)*)*)$)*)**)**))*.    ",
"    .)..*))$.$))*$))***.))*)$$)$.)$*)))*..)*..*)$*)..)*.))))))).*)))))*)*)*.    ",
"    +))$)*)*.$)$)*)*)*)))*)*)))..)))**)*+.))*.*)*$)*)$)*)*)*)*)*)$)*)***))*.    ",
"    .***$.$$.$$$$*..$$**.$$.**...***.$**..$*$+$**$$)$.$*+$$$$$$*$$$$$$$$$**+    ",
"    ........................................................................    ",
"                                                                                ",
"                                                                                ",
"                                                                                ",
"                                                                                ",
"                                                                                ",
"                                                                                ",
"                                                                                ",
"                                                                                ",
"                                                                                ",
"                                                                                ",
"                                                                                ",
"                                                                                ",
"                                                                                ",
"                                                                                ",
"                                                                                ",
"                                                                                ",
"                                                                                ",
"                                                                                ",
"                                                                                ",
"                                                                                ",
"                                                                                ",
"                                                                                ",
"                                                                                "};
