/* XPM */
static char * Boomerang_xpm[] = {
"80 80 16 1",
" 	c None",
".	c #003585",
"+	c #003A8D",
"@	c #014296",
"#	c #03438D",
"$	c #0B4D98",
"%	c #114D93",
"&	c #195496",
"*	c #1957A1",
"=	c #265D98",
"-	c #255FA2",
";	c #3065A2",
">	c #396EA8",
",	c #4C7CAF",
"'	c #668EBA",
")	c #84A3C5",
"                                                                                ",
"                                                                                ",
"                                                                                ",
"                                                                                ",
"                                                                                ",
"                                                                                ",
"                                                                                ",
"                                                                                ",
"                                                                                ",
"                                                                                ",
"                                                                                ",
"                                                                                ",
"                                                                                ",
"                                                                                ",
"                                                                                ",
"                                                                                ",
"                                                                                ",
"                                                                                ",
"                                                                                ",
"                                                                                ",
"                                                                                ",
"                                                                                ",
"                                                                                ",
"                                                                                ",
"                                                                                ",
"                                                                                ",
"                                                                                ",
"                                                                                ",
"           ))                                         '*@.'                     ",
"         '#+.+'           )+$                       )%.$>;'                     ",
"        >+@>)'#           $$*-                     '+@)                         ",
"       ,.&    $'       )'>#  #                 '  '.=                           ",
"      ).*     *>     '.@#+>  #'  >;        ,;) +  +;                            ",
"      $%      &;    '+= >@#  -, ;+.      )@#@* & *%  )$#                        ",
"     '.'      $;   '@#  +,>, ;-,+>$      .> -* $>.  ;.>#                        ",
"     *%       @,  %#$%''+  % ,@@> = '%, =%  .  #+' &+  +      =,     ,&&'       ",
"     .'   .,  +' @@@, #@=  . >@# '->++* +  -% ,@$ ;.  =.  ,  #@#   ;.#,-.       ",
"    ,+    +> ). ,#$#  *@,  + ,+> ,@@;$,'% ,.  *@  .   +$ '+ %#@>  ##    =       ",
"    *-    +> ,@ &,$$  >.)  . >+  %+, @)-**.   ## %>  #@  @$#;,+  %@     &       ",
"    +'    +' &$   .,  >+   # ;#  +* ,#>*@&   *+> +  >#@  #@& ,# ,+   .          ",
"    +     +' #$$' .,  *+   @ *$  .  ;.++'    +@',& ,+>&=-@+  @, +   @+          ",
"    @     +''#@$@,@'  ++  >- $*        %,   #&+ '&>#; $$#+;  @-*&  &@#   ;%&=   ",
"    #     #,>+='@,>> &-@  +' +>         +=%. >#  %.&  #+,,  ,.#+' &+ $,&&'      ",
"    $     #*$@  .  &## )#$#  +'          ,,  --       >=    ,; >$$+  $&         ",
"    ;     $@+> '+       ),   .               +,                 =*,,#$          ",
"          $;,  >+                            %)                   =*>;          ",
"          ;-   @&                                                %= '>          ",
"          '#  '.'                                               *>  ;)          ",
"           .  #@                                               ,%   %           ",
"           )+$.'                                               %   )$           ",
"            '&'                                                $   %'           ",
"                                                               $  ,#            ",
"                                                               +--.             ",
"                                                                &;              ",
"                                                                                ",
"                                                                                ",
"                                                                                ",
"                                                                                ",
"                                                                                ",
"                                                                                ",
"                                                                                ",
"                                                                                ",
"                                                                                ",
"                                                                                ",
"                                                                                ",
"                                                                                ",
"                                                                                ",
"                                                                                ",
"                                                                                ",
"                                                                                ",
"                                                                                ",
"                                                                                ",
"                                                                                ",
"                                                                                ",
"                                                                                ",
"                                                                                ",
"                                                                                ",
"                                                                                ",
"                                                                                ",
"                                                                                "};
