/* XPM */
static char * C+ CINE 2_xpm[] = {
"80 80 16 1",
" 	c None",
".	c #040202",
"+	c #720B0F",
"@	c #303030",
"#	c #C40710",
"$	c #E10B18",
"%	c #595859",
"&	c #B14248",
"*	c #CD3942",
"=	c #D5585F",
"-	c #909090",
";	c #D97F84",
">	c #E9A7AA",
",	c #BCBBBB",
"'	c #EDDBDB",
")	c #FEFCFC",
"                                                                                ",
"                                                                                ",
"                                                                                ",
"                                                                                ",
"                                                                                ",
"                                                                                ",
"                                                                                ",
"                                                                                ",
"                                                                                ",
"                                                                                ",
"                                                                                ",
"                                                                                ",
"                                                                                ",
"                                                                                ",
"                                                                                ",
"                                                                                ",
"                                                                                ",
"                                                                                ",
"                                                                                ",
"                                                                                ",
"                                                                                ",
"                                                                                ",
"                                                                                ",
"                                                                                ",
"                                                                                ",
"                                                                                ",
"   %@@@@@@@@@@@@@@@@@@@@@@@@@@@@@@@@@@@@@@@@@@@@@@@+%&*******&;,)')))))';&*&    ",
"   @................................................+*$$$$$$#;'))))))))))>$#    ",
"   @...@%@%....@%@....%@...@%...@@%...@@@....@%@....+#$$$$$#>)))))))))))))>#    ",
"   @..%)))),..@))'@..-)'..@)'..@,))%..%)-....-)-....+*$$$$#;)))))))))))))))>    ",
"   @.%)),-,,..,)))%..,))-.-),..@)))%..-)-....-)%....+#$$$$*'))))))>->))))))'    ",
"   @.))-...@.%)',)%.@))))@-)-..'',),.@,)%.-',))','%.+*$$$$=))))))>###>))))))    ",
"   .@))@.....-)%%)-.@)'-)-,)-.%)-.),..')%.,)))))))%.+#$$$#>)))))'#$$$#')))))    ",
"   @@))%....@)),,),.@),@')))%.,),,)'.@')@.@-%,),%-@.+*$$$$>)))))>#$$$$>)))))    ",
"   ..,),%@-.,)',')).%),.%)))@%)'',))%@)'-%@..-)%....+#$$$#')))))>#$$$#')))))    ",
"   @.%,)))'%')@..')%-)-..,)'@')-.@-)--))))%..,)-....+*$$$$*==-==**$$#=))))))    ",
"   @...%-,%@%@...@%.@@@...%@@@@...@@@.%@%@....%@....+#$$$$##$#$#$$$$#>)))')'    ",
"   @................................................+*$$$$$$$$$$$$$$=)))))),    ",
"   +................................................+$$$$$$$$$$$$$$*')))))'#    ",
"   &+#+++++++#+++#+++#+++#+++#+++++++#+++++++++++#+++*$$$$$$$$$$$$*'))))))=#    ",
"   &$$$$$$$$$$$$$$$$$$$$$$$$$###$#$$$#$$*$$#$$$#$#$$$#$$$#$$$$$$$#>))))))=$#    ",
"   *$$$$$$$$$$$$$$$$$$$$$$$$#===$*=*$==*$$*=$*=;==$$$$$$$$$$$$$$#>))))));$$$    ",
"   &$$$$$$$$$$$$$$$$$$$$$$$#>))'&;)=&')=##>'&=)))>*#$$$$$$$$$$$#;))))))=#$$#    ",
"   *$$$$$$$$$$$$$$$$$$$$$$#>)';>=,);&)))*#>)&=)'=;$$$$$$$$$$$$#=))))));#$$$$    ",
"   *$$$$$$$$$$$$$$$$$$$#$#=)'###&;)=&'))'+>)&=)>&&$$$#$$$$$$$#*')))))=##$#$#    ",
"   *$$$$$$$$$$$$$$$$$$$$$$;);#$$#>)=&)>;),>)&;')'>#$$$$$$$$$$*')))))';;;;;;;    ",
"   &$$$$$$$$$$$$$$$$$$$$$#=''####>)=&'>+>))'&=);=&$$$$$$$$$#$>))))))))))))))    ",
"   *$$$$$$$$$$$$$$$$$$$$$$#')'>>&>)=&)>#&'))&;),==$$$$$$$$$*>)))))))))))))))    ",
"   &$$$$$$$$$$$$$$$$$$$$$$#&'')'*;'=&'>##&''&='')>$$$$$$$$#;))))))))))))))))    ",
"   *$$$$$$$$$$$$$$$$$$$$$$$$#===#***#=*$$$*=$**=**$$$$#$$$=)))))))))))))))))    ",
"   ############################+###############+#########*))))))))))))))))))    ",
"                                                                                ",
"                                                                                ",
"                                                                                ",
"                                                                                ",
"                                                                                ",
"                                                                                ",
"                                                                                ",
"                                                                                ",
"                                                                                ",
"                                                                                ",
"                                                                                ",
"                                                                                ",
"                                                                                ",
"                                                                                ",
"                                                                                ",
"                                                                                ",
"                                                                                ",
"                                                                                ",
"                                                                                ",
"                                                                                ",
"                                                                                ",
"                                                                                ",
"                                                                                ",
"                                                                                ",
"                                                                                ",
"                                                                                ",
"                                                                                ",
"                                                                                ",
"                                                                                "};
