/* XPM */
static char * C+ DEPORTE 3_xpm[] = {
"80 80 16 1",
" 	c None",
".	c #010201",
"+	c #20381E",
"@	c #515251",
"#	c #208919",
"$	c #3D8F37",
"%	c #5FA45B",
"&	c #8D8D8D",
"*	c #85BA82",
"=	c #A8BFA8",
"-	c #C5C7C6",
";	c #B8DFB3",
">	c #CEEBCB",
",	c #DDE4DC",
"'	c #EBFBE9",
")	c #FDFEFD",
"                                                                                ",
"                                                                                ",
"                                                                                ",
"                                                                                ",
"                                                                                ",
"                                                                                ",
"                                                                                ",
"                                                                                ",
"                                                                                ",
"                                                                                ",
"                                                                                ",
"                                                                                ",
"                                                                                ",
"                                                                                ",
"                                                                                ",
"                                                                                ",
"                                                                                ",
"                                                                                ",
"                                                                                ",
"                                                                                ",
"                                                                                ",
"                                                                                ",
"                                                                                ",
"                                                                                ",
"                                                                                ",
"                                                                                ",
"                                                                                ",
"                                                                                ",
"    ................................................+@#####+%='')))))''=%+#$    ",
"    ...+@@@+...@@@...+@+...@+....@++...@+....@@@....+$#####*')))))))))))'%#%    ",
"    ..@-)))&+.+-),@..&)-+.@'-...=))+..&)&....&)&....+#####%')))')))')))))>$$    ",
"    .@')-=-,+.&)))@..-))&.&)-+.@)))&..&)&....=)&.+..+$###$>)))))))))))))))*%    ",
"    .-)&+..+..',-)&.+,)))+&)=..&)&)&..-)&.&--,),-=@.+####%))))));$$%')))))>$    ",
"    +))@.....&)&@)&.+),-)-&)&.@)&+)-.+-)@.&)))))))@.+$###*)))))'$###%))))),&    ",
"    +,)@....+,)&-)-.+),+-)))@.-)-&)-+.,,+.@@@=)&@@+.+####%****=%####$')))),$    ",
"    .-),@@@+&),,,),+@)=.@)))+@)),,))+@))@&...&)&....+$##############$)))))=%    ",
"    .+-))),@,,@.+-)@&'&..&)-+&)&+.&)&@),),@..&)&....+############+##;))))'%$    ",
"    ...&&-@@@@...+@@+@+..+@@.@++..+@++@@@@...+@@....+$#####$#####**>))))'*#%    ",
"    ................................................+############;)))))-%##$    ",
"    .............................+..................+$#######$###;))))),*%#%    ",
"    ++++++++++++++++++++++++++++++++++++++++++++++++#############;)))))))'*$    ",
"    $$#$#$$%$$#$#$$$#$#$$$$$#$#$$$$$$$$%$$#$#$$$$$#%#############*;>')))))'=    ",
"    $$%%%$$#$$*%%%$%%%%#$##$*%%@##%%%%%#$%*%%%%%%%%#################*')))))>    ",
"    #%>)''*$#;''';$'')';##&')));##*'')>%%))));%'');$#$##$=*=*;*%#####;))))))    ",
"    #$'>*-);#%)=*$$>,%>'*@'';&>);+*';&'>%%,);$%';%%#####%))))))*#####%)))'))    ",
"    #%>>#$>)$*)=%$$'>#=)*=);##$')&*)*$''$#;)%#%)-&$$####$')))));#####*))))))    ",
"    #$';$+='%%)''*$>'>''%;)@###*)%*''>'*##;'%#%')';######;))))),%###$>)')))'    ",
"    #%>>@$>)$*)-%%$'';;*#;)=##$>'%*),);##$;)%#%)-&%$#$###*))))))>*%*>)))))),    ",
"    #@'>*-);#%)=%$$>>+###%''=%>);+*'=='%#@;'%+%';%%#######>)),)))))))'))))'&    ",
"    #%>'''=$#*')';@'>$#%##%''''>$#*)*%>>%#;'%#%''';$######%'))))))))))))))%%    ",
"    ##%%%$$#$$%%%$$%%#$$$##$***###%%%#%%%#%%$#$%%%%########$>)))))))))))'%#$    ",
"    #######$#########$#$#$#######$###$###$###$###############*>'')))''>;$##$    ",
"                                                                                ",
"                                                                                ",
"                                                                                ",
"                                                                                ",
"                                                                                ",
"                                                                                ",
"                                                                                ",
"                                                                                ",
"                                                                                ",
"                                                                                ",
"                                                                                ",
"                                                                                ",
"                                                                                ",
"                                                                                ",
"                                                                                ",
"                                                                                ",
"                                                                                ",
"                                                                                ",
"                                                                                ",
"                                                                                ",
"                                                                                ",
"                                                                                ",
"                                                                                ",
"                                                                                ",
"                                                                                ",
"                                                                                ",
"                                                                                ",
"                                                                                "};
