/* XPM */
static char * C+ DEPORTE 2_xpm[] = {
"80 80 16 1",
" 	c None",
".	c #010201",
"+	c #20381E",
"@	c #515251",
"#	c #208919",
"$	c #3C8F36",
"%	c #61A55D",
"&	c #8D8D8D",
"*	c #86BB83",
"=	c #A9BFA8",
"-	c #C6C7C6",
";	c #BAE1B7",
">	c #D6ECD4",
",	c #EAECE9",
"'	c #EBFEE9",
")	c #FDFEFD",
"                                                                                ",
"                                                                                ",
"                                                                                ",
"                                                                                ",
"                                                                                ",
"                                                                                ",
"                                                                                ",
"                                                                                ",
"                                                                                ",
"                                                                                ",
"                                                                                ",
"                                                                                ",
"                                                                                ",
"                                                                                ",
"                                                                                ",
"                                                                                ",
"                                                                                ",
"                                                                                ",
"                                                                                ",
"                                                                                ",
"                                                                                ",
"                                                                                ",
"                                                                                ",
"                                                                                ",
"                                                                                ",
"                                                                                ",
"                                                                                ",
"                                                                                ",
"                                                                                ",
"    ................................................+$######%>')))))))))>%+%    ",
"    ....@@@.....@+....@+...+@...++@...+++....+@+....+$#####%)))))))))))))'%@    ",
"    ..@,)))-..+,),+..&)-..@)-+..&),@..@)&....-)&....+$####$'))))))))))))))>*    ",
"    .+,)>&--+.&)))@..=))&.&)-..+)))&..&)&....&)@....+####+*))))')>**>))))))-    ",
"    .-)-+..@.+,,=)&.+,)),@&)&..-,=)-..-)&.@--,),--@.+$###$>)))))>$##$')))))'    ",
"    +,)@.....&)@@)=.+,,&)&&)&.@)&+)&..,)@.=)))))))&.+####%))))))*####*)))))'    ",
"    +,)&....+,)-=)-.+)-@-),)@.=)--),++,)+.+&@-)-@&+.+$#$#*))))))$####*))))))    ",
"    .&)-@+@.&),-,),.@)-.@)),@+)),-))@+),&@+..&)@....+####*)))))'%####*)')))'    ",
"    .+-)))-@,)@++-,@&)&..=)-+-)&.+&)&&)),)@..=)&....+$###%%&%%%%$####>)))))'    ",
"    ..+@==@.@+...+@.+@+...@++@@...++++@+@++..+@+....+###############%')))))-    ",
"    ................................................+$###$#######$#$>)))))'*    ",
"    ................................................+@#############*),)'))*$    ",
"    +++#+++#+++#+++#+#+#+++#+#+#+++#+#+#+++#+++#+@+#+$############*))))));#%    ",
"    $$$#$#$$$$$#$$$#$#$$$$$#$#$$$$$@$#$$$#$##$$#$#$$#############%))))));##$    ",
"    #%%%%%#$$%%%%&$%%*%$#%#%&*%$#%%*%*$$$*%%%%$%%*%$#####$###$##%))))));$##%    ",
"    #$>''>*##*'''*$>'''*$+&>)))*$+*'''>$*')')*%>'';#$##########$>)))));####$    ",
"    #%>'*>);#*);%%$'>*-)%$''=*;);#*)=*'>$*>)=%%);*%$###$######$>)))))>$####%    ",
"    #$';#@>'%%)=%$%>>+=)**)*##$>)$*'*@'>$+;'%+%)-$%###########;)))));######$    ",
"    #%>>$#*)%*))';$>'>''%;)%#%#=)**),''=#$;)%#%)));$#########;))))))=****;*;    ",
"    #$>;#@>'%%)=%$$>'*;%#*)*#+$;'$*'>';+#@;'%+%';$%#########*'))))))))))))))    ",
"    #%>'&;);#*);%%$'>##$#%')**;);#*'*;'*#$;)%#%)-&%$###$###*')))))))))))))))    ",
"    #$>''';##*'''*$>;#$###*>'');%#*'*@>;%@;>%#%>'';#######%>))))))))))))))))    ",
"    #%%%%%#$#%%%%%$%%$$$#%#&*;%$#%%*$$%*%$%%$$$%%*%$###$#$>)))))))))))))))))    ",
"    ###+#+##$+###+#####@###@#+#@#@#+###+###+###+#+###+#+$;))),))))))))))))))    ",
"                                                                                ",
"                                                                                ",
"                                                                                ",
"                                                                                ",
"                                                                                ",
"                                                                                ",
"                                                                                ",
"                                                                                ",
"                                                                                ",
"                                                                                ",
"                                                                                ",
"                                                                                ",
"                                                                                ",
"                                                                                ",
"                                                                                ",
"                                                                                ",
"                                                                                ",
"                                                                                ",
"                                                                                ",
"                                                                                ",
"                                                                                ",
"                                                                                ",
"                                                                                ",
"                                                                                ",
"                                                                                ",
"                                                                                ",
"                                                                                "};
