/* XPM */
static char * C+ DEPORTE 1_xpm[] = {
"80 80 16 1",
" 	c None",
".	c #010101",
"+	c #20381E",
"@	c #4F4F4F",
"#	c #1E8B17",
"$	c #3F9639",
"%	c #828282",
"&	c #63AA5F",
"*	c #83B880",
"=	c #A7A7A7",
"-	c #9DCB9A",
";	c #C9CBC9",
">	c #B5DAB1",
",	c #CBE9C9",
"'	c #E5F2E4",
")	c #FCFEFC",
"                                                                                ",
"                                                                                ",
"                                                                                ",
"                                                                                ",
"                                                                                ",
"                                                                                ",
"                                                                                ",
"                                                                                ",
"                                                                                ",
"                                                                                ",
"                                                                                ",
"                                                                                ",
"                                                                                ",
"                                                                                ",
"                                                                                ",
"                                                                                ",
"                                                                                ",
"                                                                                ",
"                                                                                ",
"                                                                                ",
"                                                                                ",
"                                                                                ",
"                                                                                ",
"                                                                                ",
"                                                                                ",
"                                                                                ",
"                                                                                ",
"                                                                                ",
"    ................................................+@###$)))))))))))&#####$    ",
"    ...+@@@+...@@@...+@@...@+....@++...@+....@@@....+$#$#&'))))))))))*#####&    ",
"    ..@;)))=+.+;)'@..%);+.@);...=))@..%)=....=)%....+####&)))))))))))&#####$    ",
"    .@');=='..%)))@..;))%.%);+.@)))=..=)%....=)%.+..+$###*)))))))))))*###$#&    ",
"    .=)=+..+..';=)%.+;)))+%)=..='%)=..;)%.%;;;);;=@.+####$****-')))))&#####$    ",
"    +))@.....%)%@)%.+)'=)=%)%.@)%+);..;)@.=)))))))@.+$########$))))))*#####&    ",
"    +')@....+')=;);.+);.;)')@.=);=);+.''+.@@@=)=@@+.+#########$')))))&#####$    ",
"    .=)'@@@.%)''')'+@)=.@)))+@))''')+@)'@%...=)%....+$###$####$))))))*###$#&    ",
"    ..;)))'@''@.+=)@%)=..%);+=)%+.=)%@)'))@..%)%....+#########$))))))&#####$    ",
"    ...%=;@@@@...@@++@+..+@@.@++..+@+@@@@@...@@@....+$########$))))))*#####&    ",
"    ................................................+#########$')))))&#####$    ",
"    ................................................+$###$####$))))))*###$#&    ",
"    ++++++++++++++++++++++++++++++++++++++++++++++++##########$')))))&#####$    ",
"    $$#$#$$$$$#$#$#$#$#$$$$$#$#$$$#$###$$$#$#$$$#$#$##########$))))))*#####&    ",
"    ##&&&$##$$&$&$$$&&&##$#$*&&@##&%&&$#$&&&&$$$&&&###########$')))))&#####$    ",
"    #&')))-$#-)))>$')))>##&')))>##*)')'%&)))),&')),$#$###$####$))))))*###$#&    ",
"    #$''*;)>#%)-&$$''%,)*@)'-*,)>+*)-%),$&')-$&)>%&###########$')))))&#####$    ",
"    #$',#$,)$*)-$$$',#=)*-)-##$')%*)*$''##>)$#&);%$$###$######$))))))*#####&    ",
"    #$',##-)&&)))-$,),)'&>)$#$#=)&*)'')*##>)&#&'))>###########$')))))&#####$    ",
"    #&',##,)$*);%&$''>>*#>)-@#$,)&*)')>##$>)&#&);&$$#$###$####$))))))*###$#&    ",
"    #$',*;)>#&)-&$$',+###$))-%,)>+*)=-)&#@>)&+&);$&###########$))))))&#####$    ",
"    #$,)))-$#*'))>@',##$##&)))),$#*)*$''&#>)&#&)))>$##########$))))))*#####&    ",
"    #$&&&$$#$$&$&$$$&#$#$##$***###&&$#&&&#&&$#$&&&&###########$')))))&#####$    ",
"    #################$###########$###$###$###$################$))))))&#####$    ",
"                                                                                ",
"                                                                                ",
"                                                                                ",
"                                                                                ",
"                                                                                ",
"                                                                                ",
"                                                                                ",
"                                                                                ",
"                                                                                ",
"                                                                                ",
"                                                                                ",
"                                                                                ",
"                                                                                ",
"                                                                                ",
"                                                                                ",
"                                                                                ",
"                                                                                ",
"                                                                                ",
"                                                                                ",
"                                                                                ",
"                                                                                ",
"                                                                                ",
"                                                                                ",
"                                                                                ",
"                                                                                ",
"                                                                                ",
"                                                                                ",
"                                                                                "};
