/* XPM */
static char * C_Cinema_16_9_xpm[] = {
"80 80 16 1",
" 	c None",
".	c #271817",
"+	c #73181C",
"@	c #3E3130",
"#	c #5A4E4E",
"$	c #D7383B",
"%	c #EA3238",
"&	c #CB4548",
"*	c #827674",
"=	c #D45E61",
"-	c #DB7A7C",
";	c #ABA2A1",
">	c #E19194",
",	c #EEB4B6",
"'	c #F0D7D8",
")	c #FEFAFA",
"                                                                                ",
"                                                                                ",
"                                                                                ",
"                                                                                ",
"                                                                                ",
"                                                                                ",
"                                                                                ",
"                                                                                ",
"                                                                                ",
"                                                                                ",
"                                                                                ",
"                                                                                ",
"             +=>                                                                ",
"             %%$=>                                                              ",
"             %%$%$&=,                                                           ",
"             %%%%%%%$=-,                                                        ",
"             %%%%%%%%%%$==,                                                     ",
"             %%%%%%%%%%%%%$==>                                                  ",
"             $%%%%%%%%%%%$%%%$&%->                                              ",
"             %%%%%%%%%%%%%%%%%%%%%$==>                                          ",
"             $%%%%%%%%%%%%%%%%%%%%%$$$$%==>                                     ",
"             %%%%%%%%%%%%%%%%%%%%%%%%%%%$%$&&==-->,                             ",
"             %%%%%%$%%%%%%%%%%%%%%%%%%%%%%%%%%%%%$$$&&==-->                     ",
"             %%%%%%%%%%%%=%%%%%%%%%%%=%%%%%%%%%%%%%%%%%%%%$%$%$%$&&             ",
"             +%%%%%$$$$$%$%%%%%%%$%$%$%%%%%$$$%%%%%%%$$$$+%$%%%%%$&             ",
"             %$%%%%-->>,-=%%%%%===$=====$=->--&$$%%%$=->>>--&%$%$%&             ",
"             $%%%='')))))',=$$,'),&-'''=,')')''=$%$&,')))))''-&%%%&             ",
"             %%&-)))))')))))-&,)))&>)))))))))))'&%=')))','')))>$%%&             ",
"             $$=)))',===,'))'&,))'&-))))'>>>))))-+,))'>&&+=,)))=$%&             ",
"             %$,))),$%$%$,'''-,))'&>)))'&%%$>)))>-')),#&$&$=')),$%&             ",
"             %&,)))=%%%%%%=%=$,))'&-)))-$%%$=)))>-)))'',',',)))'&%&             ",
"             %$'))'=%%%%%%$$$&,)))&>)))-%%%%=)))>>))))))))))))))=%&             ",
"             +$,)))=%%%%%=>>>&,))'&-)))=%$%%='))>-)));>->->-----&$&             ",
"             %$>))),&%%%&')))-,))'&>)))-$%%%=)))>=')),$$$$$*-;--%%&             ",
"             $%&'))),---,))),&,))'&-)))=%%%%='))>$,))',=&&-,)))-%%&             ",
"             %%%-))))))))))'=&,)))&>)))-%%%%=)))>$='))))''))))>&%%&             ",
"             +%%$=,')')))',&$$,'',&-'''=%%%%=,''>$%%>')')))''-$%%$&             ",
"             %%%%%$=----==$$$%%=&=$=%&%&%%%%%=%=%%%%$&=-->-=$%%%%%&             ",
"             $%$%$$$$$%$%$$$%$$$$$%$%$&$$%%$%%%$$$%%%$$$$$$$%$%$%%&             ",
"             %%%=,'',>&=>>=,--,'>=$&-''',-$->>-,,>&>,'-&$-,','>=$%&             ",
"             %%=''','),-),-))'''),&>),>>)'=>)''')''''''=-'';>,)>$%&             ",
"             %$,),&$=',>),-));&-))-));&=,),,)'*=,),=&')>=>-==,)'%%&             ",
"             %&,)-$%$&&*),-''&%&'',')'','',;)>$+,),+$,);-,',''),&$&             ",
"             %$'),$$&,,>)'-),=%=')>)'>==-,-,),$$>)>%$,),')>=&>)'%%&             ",
"             %%-)',>'),-),-)'%%&''=,);--''->)>$$,)>$%>);'),*>'),&$&             ",
"             %%%-,''',&=,>=,>&%=>,%&>''',>$-,>$%-,-%$>,-=''',>,,%%&             ",
"             $%%%$=&&$%$$$%$$$%%$$%$$%=&&$%$$$%%%$$$%$&$$$=&&$$$%%&             ",
"             &%&%=$&%=%&%=&&%&%=%=&&%=$&$=%&%=&&%=&=%=%&%&%&%=&=%=&             ",
"             .+++.+++++++.+++++++.+++++++++++++++++.+.+++++++.+++++             ",
"             ..@*;*;@..**;*&..#;*;*@.#*=..@;*..**+@;*;**.#*;-*+....             ",
"             ..@))'')#.')'');.')'''@.*))@.;))..').#))''*.;)'')'@..@             ",
"             ..#)'.#)'.)'..')@;)@....'))#@'))#.')@@);....;)*.*);.@.             ",
"             ..@);..)'.')..;).;);**.@;));@)')#.;).@)'*;#.*)#.*)*...             ",
"             ..#)'#;)'.')'')*.;)'';@.)''';';)*.')@@))'';.;))');@.+.             ",
"             ..@))));@.')')#..;)@...#)'#));#)*.;).#);....*)');.....             ",
"             ..#)'.@...)'*)'@.;)@...*);@))*#)'.')@@);....;)*')*..@.             ",
"             ..@);.....').;)'@;))')@;);.')#@)'.;).#))');.*)#@))*...             ",
"             ..@**.@...**..**##*#**@#*@.#*.@**.##@.*****.#*#.#**.@.             ",
"             .@...@...........@#*@....*#......**#..................             ",
"             ..@.@.@.@.@.@.@..;))*.@.;)*.@...;)))'...@.@.@.@.@.@.@.             ",
"             .................#;)#..*))*#.;#@),.;)#................             ",
"             ..@.@.@.@.@.@.@.@.*)*.@');)'#);@);.;)#..@.@.@.@.@.@.@.             ",
"             .@.......@........*)*.#);.;)#...;)');@...............@             ",
"             ..@.@.@.@.@.@.@.@.;)*.#)'@')#**.@#')*.@.@.@.@.@.@.@.@.             ",
"             ...@...@..........*)#..*')'*@)*..*)*..................             ",
"             ..................@@@...@@@..@@..@#...................             ",
"                                                                                ",
"                                                                                ",
"                                                                                ",
"                                                                                ",
"                                                                                ",
"                                                                                ",
"                                                                                ",
"                                                                                ",
"                                                                                ",
"                                                                                ",
"                                                                                ",
"                                                                                ",
"                                                                                ",
"                                                                                "};
