/* XPM */
static char * CADENA DIAL_xpm[] = {
"80 80 16 1",
" 	c None",
".	c #000082",
"+	c #09018B",
"@	c #17128E",
"#	c #262297",
"$	c #34309E",
"%	c #4640A6",
"&	c #5E59B2",
"*	c #7A75BF",
"=	c #65A900",
"-	c #70AF01",
";	c #86BA2B",
">	c #9995CE",
",	c #A7CD65",
"'	c #C2C0E2",
")	c #FAFAFC",
"                                                                                ",
"                                                                                ",
"                                                                                ",
"                                                                                ",
"                                                                                ",
"                                                                                ",
"                                                                                ",
"                                                                                ",
"                                                                                ",
"                                                                                ",
"                                                                                ",
"                                                                                ",
"                                                                                ",
"                                                                                ",
"                                                                                ",
"                                                                                ",
"                                                                                ",
"                                                                                ",
"                                                                                ",
"                                                                                ",
"                                                                                ",
"                 ..+....     =======         '  >>  '>' ' '  '     ====-==      ",
"                 .+++++.     =-----=    *>>  %  &>* &   # >  $'    =-----=      ",
"                 .+++++.     =-----=    *   **' * * &>  &** '**    =-----=      ",
"                 .+++.+.     =---=-=    *   &&* *>* &   >># **%    =-----=      ",
"                 .+++++.     =======    '*' ' ' >>  >>' ' > ' '    =-----=      ",
"                 .+++++.                                           =-----=      ",
"                 .+++++.                                           =-----=      ",
"                 .+++.+.                                           =-----=      ",
"        %#@#%    .+++++.                      ,,;;-;;;;'           =-----=      ",
"     %....+...+  .+++++.     ,,,,,,;        ;=====-=====-;         =-----=      ",
"    #.+++++++++.@++++++.     =======      ,-=-------------=,       =-----=      ",
"   $.++++.+++.+.+.+++.+.     =---=-=     ,==-------------=-=;      =-----=      ",
"   .+++++++++++++++++++.     =-----=      -=----------------=      =-----=      ",
"  %.+++.+++++.+++++++++.     =-----=       -=----===--------=-     =-----=      ",
"  +++++@.++++@.++++++++.     =-----=        ;----;;;---------=     =-----=      ",
"  ..+.''%.++''%.+++++.+.     =---=-=         -=;     ;=------=     =-----=      ",
"  .+.#)))$.$))'#.++++++.     =-----=          ,       ;------=     =-----=      ",
"  .++.*))'@.*))'@.+++++.     =-----=                   =---=-=     =-----=      ",
"  .+++.>))>+.'))>+.++++.     =-----=                   ------=     =-----=      ",
"  .++.++'))*.+'))*..+.+.     =---=-=          ,;;-;;;-;------=     =-----=      ",
"  .++++.@)))&.@)))&.+++.     =-----=       ,-==-=-=-===------=     =-----=      ",
"  .+++++.#)))$.$)))#.++.     =-----=      ;=-----------------=     =-----=      ",
"  .+++++.#'))%.#'))$.++.     =-----=     ,=-------------------     =-----=      ",
"  .++.+.@'))*.@'))&.+++.     =---=-=     =---=---=====-------=     =-----=      ",
"  .++++@'))>.@'))>.++++.     =-----=    ,=-------,,),';------=     =-----=      ",
"  .++..>))'..>))'.+++++.     =-----=    ;=-----=       =-----=     =-----=      ",
"  .++.*)))@.*))'+++++++.     =-----=    ------=,       =------     =-----=      ",
"  .+.@)))#.#)))#..+++.+.     =---=-=    -=----=-      ;=-=---=     =-----=      ",
"  .+.@')%.+@')%.+++++++.     =-----=    ;-------;    ;=------=     =------=     ",
"  #.+.@@..+.@@..+++++++.     =-----=    ,=------==;===-------=     =-------===  ",
"   .++.+++++.++++++++++.     =-----=     =-----------;--------     ;=--------=  ",
"   ..++++.+++.+++++++++.     =-----=     ==--=-------=-------=     ,=----=---=  ",
"    .+++++++++++.++++++.     =-----=      =-----------=------=      ;=-------=  ",
"     ..++++.++.@ .+.+++.     =-----=       ===-----==- ----=-=       ;==---=-=  ",
"      $+.+...@%  ....+..     ==-=-==        ,;=====-;  -=-====         ;--=-==  ",
"                                                                                ",
"                                                                                ",
"                                                                                ",
"                                                                                ",
"                                                                                ",
"                                                                                ",
"                                                                                ",
"                                                                                ",
"                                                                                ",
"                                                                                ",
"                                                                                ",
"                                                                                ",
"                                                                                ",
"                                                                                ",
"                                                                                ",
"                                                                                ",
"                                                                                ",
"                                                                                ",
"                                                                                ",
"                                                                                ",
"                                                                                ",
"                                                                                ",
"                                                                                ",
"                                                                                "};
