/* XPM */
static char * CADENA SER_xpm[] = {
"80 80 16 1",
" 	c None",
".	c #122739",
"+	c #132E5C",
"@	c #193976",
"#	c #445138",
"$	c #626F1B",
"%	c #5B6A8D",
"&	c #737953",
"*	c #788725",
"=	c #95A141",
"-	c #929EB8",
";	c #B7C02C",
">	c #B7BB54",
",	c #D8E04F",
"'	c #CCD6EC",
")	c #FBFB2C",
"                                                                                ",
"                                                                                ",
"                                                                                ",
"                                                                                ",
"                                                                                ",
"                                                                                ",
"                                                                                ",
"                                                                                ",
"                                                                                ",
"                                                                                ",
"                                                                                ",
"                                                                                ",
"  @@@@@@@@@@@@@@@@@@@@@@@@@@@@@@@@@@@@@@@@@@@@@@@@@@@@@@@@@@@@@@@@@@@@@@@@@@@@  ",
"  @@@@@@@@@@@@@@@@@@@@@@@@@@@@@@@@@@@@@@@@@@@@@@@@@@@@@@@@@@@@@@@@@@@@@@@@@@@@  ",
"  @@@@@@@@@@@@@@@@@@@@@@@@@@@@@@@@@@@@@@@@@@@@@@@@@@@@@@@@@@@@@@@@@@@@@@@@@@@@  ",
"  @@@@@@@@@@@@@@@@@@@@@@@@@@@@@@@@@@@@@@@@@@@@@@@@@@@@@@@@@@@@@@@@@@@@@@@@@@@@  ",
"  @@@@@@@@@@@@@@@@@@@@@@@@@@@@@@@@@@@@@@@@@@@@@@@@@@@@@@@@@@@@@@@@@@@@@@@@@@@@  ",
"  @@@@@@@@@@@@@@@@@@@@@@@@@@@@@@@@@@@@@@@@@@@@@@@@@@@@@@@@@@@@@@@@@@@@@@@@@@@@  ",
"  @@@@@@@@@@@@@@@@@@@@@@@@@@@@@@@@@@@@@@@@@@@@@@@@@@@@@@@@@@@@@@@@@@@@@@@@@@@@  ",
"  @@@@@@@@@@@@@@@@@@@@@@@@@@@@@@@@@@@@@@@@@@@@@@@@@@@@@@@@@@@@@@@@@@@@@@@@@@@@  ",
"  @@@+@@@@@@@@@@@@@@@+@+@@@@@+@@@+@@@@@@@@@@@+@@@@@@@+@+@@@@@@@@@@@@@+@+@@@@@+  ",
"  @@@@@@@@@@@@@@@@@@@@@@@@@@@@@@@@@@@@@@@@@@@@+@@@@@@@@@@@@@@@@@@@@@@@@@@@@@@@  ",
"  @@@@@+@@@@@@@@@@@@@@@@@@@@@+@+@@@@@+@@@@@@@+@+@@@@@@@@@@@+@@@@@@@@@@@@@@@@@@  ",
"  @@@@+++@+++%@@@@@@@@+@@@@@@@@@+++++#@@@@@@+#+@@@@@@@@@+@@++#@@@@@@@@+@@@@@@@  ",
"  @@@+@-'-'-@+@@@@@+@@@+@@@@@++%'--@++@@@@@@--'-%@@@@@+%%.+@-@+@@+@@@.%@+@@@@@  ",
"  @@@+-'%%&'%+@@@@@+%'-++@@@@@.'-##'-@@@@@+-'#@%@@@@@@+-'%.%'%+@@@@@+%''+@@@@@  ",
"  @@@+-%.++@@@@@@@@+'%'%+@@@@@+-%.++'%+@@@+-'%%++@@+@@+%-'%+'%+@@@@++'>--+@@@@  ",
"  @@@+--.@+++%@@@@+-'-''.#@@@@+'%+++'%+@@#+-''-@+@@@@@+-%-'-'%+@@#@+%'%''#+@@@  ",
"  @@@.--++%'%+@@@+%'-%%-%+@@@@+--.+-'@@@@@+->.+@@@@@@@+--.%''@+@@@@+'-%%'-++@@  ",
"  @@@+%'''''@@@@@+%'++.--@+@@@+-''''%+@@@@+-''''%+@@@@+-%+.-'%+@@@+-'%++%'@@@@  ",
"  @@@@@@@@#+@@@+@@@@@@@@@+@+@@@+@@#@+@@@@@@@@@@@@@@@@@@+@@@+@+@@@@@@@+@@+@@@@@  ",
"  @@@@@@+@@@+@+++@+++++++@+++#@@+@+++@+@+@+++++++@@@+++++@+++#+++@@@+@@@@@@@@@  ",
"  @@@@@@@@@.#%&&&$&&&$&&&#&&&##%&$&&&#&&&$&&&$&&&+%%&$&$&#&&&#&$&#&@+@@@@@@+@@  ",
"  @@@@@@@+#>,),),),))),))),),>$',),))),))),))),),$>))),))))))),))),,=#@@@@@@@@  ",
"  @@@@@@@#>))))))))))))))))))>*,)))))))))))))))),$)))))))))))))))))))$.@@@@@@@  ",
"  @@@@@@+>));$$$$*$$$$$$$$$$$$$)))*$$$$$$$$$$$$$#$,);$$$$*$$$$$$$$$,))&+@@@@@@  ",
"  @@@+@+#,)>#&===&===*=======$$));#==&===========#,,$$===*===*====##)),.@@@@@@  ",
"  @@@@@@&))*=)))))))))))))))),$));$))))))))))))),$;)$,)))))))))))),*=);#@@@@@@  ",
"  @@@@@+&))$;)))));=;;,;;;,;,=*,);&,);;;>;,;;;,;-#))&;);;;,;;;;;)))$=),.@@@@@@  ",
"  @@@#@@#));#;))))=*#..++#.+++$)))$),#...........#))$,);.+++++.;))>#;),#@#@@@@  ",
"  @@@+@@+*));.#=))),,==@@+@@@+$));$,)============#))&;)>@@@@@.>))=#>),=+@+@@@@  ",
"  @@@@@@+#,)),$##=,)))),=#+@@+$)),$))))))))))))),$;)$,)>@@@@.>)),#=)),@@@@@@@@  ",
"  @@@@@@@+%;))),>##$;,))),>##.&,);&>,>,;,>,;,>,>>$))$;)>@@+.>));$;)),#+@@@@@@@  ",
"  @@@@@@@@++$;)))),=##=))))),&$)))+..............#))$))>@@+>)),#=)),#+@@@@@@@@  ",
"  @@@@@+@@@++.&&,)),,&*$*;)))>$,);#&=========*==&#))&;)>@.>)),$*)),#@@@@@@@@@@  ",
"  @@@@@@@@@@@@++#&,))));=&#=,>$));$))))))))))))),$;)$,)>.=));$=)),#+@@@@@@@@@@  ",
"  @@@@@@@@@@@@@@@+#$,,))),=#$.&,);&,);,;,>,;,>,;>#))&;)>#,),$$)),#+@@@@@@@@@@@  ",
"  @@@@++++++++++++++.%=>)))),&$)))$))#...#...#...#))$));*),**)),#.+++++++@@@@@  ",
"  @@@+#&&&&&&&&&&&&&&%&*;;)))>$));$,)*&&&&&&&&&&#.))$;)*>,;$)))*&&&&&&&&&#@@@+  ",
"  @@@+&)))))))))))))))));)))),$));$))),)))))))))>$,)$,)==)=*,))),)))))))),+@@@  ",
"  @@@+*,)))))))))))))))))))))=*,);&,)))))))))))),#,,&;)=>),#*,))))))))))),#+@@  ",
"  @@@@#***&*&*&*&*&*&*&*&***&.$)),#&&***&*&*&*&*..#&.))>&))>#=**&*&*&*****@@@@  ",
"  @@@+#***********************;));***************&*&=;);.;)),=***********$+@@@  ",
"  @@@+&))))))))))))))))))))))))))))))))))))))))))))))))>+&,))))))))))))))'#+@@  ",
"  @@@+&>;=;=;=;=;=;=;=;=;=;=;=;=;=;=;=;=;=;=;=;=;=;=;=>&@+#*;;;=;=;=;;;=;=#+@@  ",
"  @@@@@#+#+#+#+#+#+@+#+@+#+++#+++#+@+#+#+#+#+#+#+#+@+#+#@@+@+++@+#+#+#+@+#@@@@  ",
"  @@@@@+@+@+@+@+@+@+@+@+@+@+@+@@@+@+@+@+@+@+@+@+@+@+@@@+@+@@@+@@@+@+@+@+@+@@@@  ",
"  @@@@@@@@@@@@@@@@@@@@@@@@@@@@@@@@@@@@@@@@@@@@@@@@@@@@@@@@@@@@@@@@@@@@@@@@@@@@  ",
"  @@@@@@@@@+@@@+@@@@@@@@@@@@@@@+@@@@@@@@@@@@@@@@@@@@@@@@@@@@@@@@@@@@@@@@@@@@@@  ",
"  @@@@@@@@@@@@@@@@@@@@@@@@@@@@@@@@@@@@@@@@@@@@@@@@@@@@@@@@@@@@@@@@@@@@@@@@@@@@  ",
"  @@@@@@@@@@@@@@@@@@@@@@@@@@@@@@@@@@@@@@@@@@@@@@@@@@@@@@@@@@@@@@@@@@@@@@@@@@@@  ",
"  @@@@@@@@@@@@@@@@@@@@@@@@@@@@@@@@@@@@@@@@@@@@@@@@@@@@@@@@@@@@@@@@@@@@@@@@@@@@  ",
"  @@@@@@@@@@@@@@@@@@@@@@@@@@@@@@@@@@@@@@@@@@@@@@@@@@@@@@@@@@@@@@@@@@@@@@@@@@@@  ",
"  @@@@@@@@@@@@@@@@@@@@@@@@@@@@@@@@@@@@@@@@@@@@@@@@@@@@@@@@@@@@@@@@@@@@@@@@@@@@  ",
"  @@@@@@@@@@@@@@@@@@@@@@@@@@@@@@@@@@@@@@@@@@@@@@@@@@@@@@@@@@@@@@@@@@@@@@@@@@@@  ",
"  @@@@@@@@@@@@@@@@@@@@@@@@@@@@@@@@@@@@@@@@@@@@@@@@@@@@@@@@@@@@@@@@@@@@@@@@@@@@  ",
"  @@@@@@@@@@@@@@@@@@@@@@@@@@@@@@@@@@@@@@@@@@@@@@@@@@@@@@@@@@@@@@@@@@@@@@@@@@@@  ",
"  @@@@@@@@@@@@@@@@@@@@@@@@@@@@@@@@@@@@@@@@@@@@@@@@@@@@@@@@@@@@@@@@@@@@@@@@@@@@  ",
"                                                                                ",
"                                                                                ",
"                                                                                ",
"                                                                                ",
"                                                                                ",
"                                                                                ",
"                                                                                ",
"                                                                                ",
"                                                                                ",
"                                                                                ",
"                                                                                ",
"                                                                                "};
