/* XPM */
static char * CANAL+___30_xpm[] = {
"80 80 16 1",
" 	c None",
".	c #040302",
"+	c #11100E",
"@	c #422909",
"#	c #333333",
"$	c #6C4F13",
"%	c #616161",
"&	c #936F1D",
"*	c #AD8521",
"=	c #C89920",
"-	c #DFAD22",
";	c #ECAF09",
">	c #B2B2B2",
",	c #EBB72C",
"'	c #F5BA17",
")	c #F7F7F7",
"                                                                                ",
"                                                                                ",
"                                                                                ",
"                                                                                ",
"                                                                                ",
"                                                                                ",
"                                                                                ",
"                                                                                ",
"                                                                                ",
"                                                                                ",
"                                                                                ",
"                                                                                ",
"                                                                                ",
"                                                                                ",
"                                                                                ",
"                                                                                ",
"                                                                                ",
"                                                                                ",
"                                                                                ",
"                                                                                ",
"                                                                                ",
"                                                                                ",
"    ........................................................................    ",
"    ++++..+%%%#+.++++++++++++++++++++++++++++++++#+++++++#+++++++#####++++++    ",
"    +.+.+%)))))>#.+.+%)>)#.++.%>)%+.+.%>)#.++.#>)>>.+..+>>>+..++.+>))+.++.++    ",
"    ++.#>)))))))%.+.%))))%.++.>)))%.+.>))%.++.>)))>#.+.%))>#++++.#)))#.+++++    ",
"    +..%)))>%%>>%.+.>))))%.+++)))))+.+)))#.+.#)))))#.+.#))>.+....+)))+....++    ",
"    +.#)))%....#++.%))))))++.#)))))>.#))>#.+.>))>))%.+.>))>..#%%#%)))>#%%#++    ",
"    +.%))>..+.+.+.+>))%>)>#..#)))>))#+)))+..#))>%))%...%))%..#)))))))))))#.+    ",
"    +.%))>.++++++.#))>.>))#..%))%%))>%))>.+.>))%#))>++.>))%..%)))))))))))%.+    ",
"    +.>))>.++++++.>))%+%))%..%))%.>))>))>..#)))+#>)>#.+>))%..#)>)>)))>)>)#.+    ",
"    +.%)))#..+.+.%))))))))>..>))%.%)))))%..>))))))))#.#)))+..++#+#)))%+#+#++    ",
"    +.#>))>##+%+.>))))))))>+.%))%..>))))%.#)))))))))%.#))>###+...+)))+..+.++    ",
"    ++.>)))))))##)))%%%%>))#.)))#+.#))))#.>))>#%#>))>.%))))))%.+.#>))#.+++++    ",
"    +++.%))))))+>))%....%))#+))>#.+.>))>+#)))+...+))>.>))))))#.+.+)))#.+++++    ",
"    ++++.#%>>>##%%%#++++#%%#+%%%+++++%%%.%%%#+++++%%%+#%%%%%%#+++#%%%#++++++    ",
"    +.+++......+...++++++...+...+.+++...+....+++++...++.......++++....+++.++    ",
"    ++++++++++++++++++++++++++++++++++++++++++++++++++++++++++++++++++++++++    ",
"    +++++++++++++++++++++++++++++++.+++.+++.+++.+++.++++++++++++++++++++++++    ",
"    *****************************************************=*=*=*=*=***=*=*=**    ",
"    ,;',,-''';',';''';''';''''',';''';',';''';'''-';',''',';''';''''''';''',    ",
"    -;;;;;;;;;;;;;;;;;;;;;;;;;;;;;;;;;;;;;;;;;;;;;;''-***=,';;;',=**=,;;;;;-    ",
"    -;;-;;;;;;;;;;;-;;;-;;;-;;;;;;;;;;;;;;;;;;;;;;;-$+...+$=;;;-&+..+@-;;;;-    ",
"    -;;;;;;;;';;;';;;;;;;;;;;;;;;,;;;,;;;,;;;;;;;;,$...+...$,''&......@,;;;;    ",
"    --;-;-;;;;;;;;;;;;;;;;;;;;;;;;;;;;;;;;;;;;;;;;=...&=&..+-;=+.+**@..&';;-    ",
"    -;;;;;;;;;;;;;;;;;;;;;;;;;;;;;;;;;;;;;;;;;;;;'=*&*''*..@-'&..$,'&..$;;;-    ",
"    -;;;;;;;;;;;;;;;;;;;;;;;;;;;;;;;;;;;;;;;;;;;;;;'''*$@.@*',$..&';=..+-;;-    ",
"    -;;;;;;;;;;;;;;;;;;;;;;;;;;;;;;;;;;;;;;;;';;;;;;;'$...@=''@..*''=+.@-';;    ",
"    --;;;;;;;;;;;;;;;;;;;;;;;-;-;-;;;;;;;;;;;;;;;;;;;;=%$..+=,@..&';-..+-;;-    ",
"    -;;;;;;;;;;;;;;;;;;;;;;;;;;;;;;;'';;;''';;;'';;'-;'',$..$'@..&''=+.@-;;,    ",
"    -;;-;-;;;;;;;;;;;;;;;;;;;;;;;;;-**';,=*=;;;*='=++@,;,$..$,&..$,'*..@;-;-    ",
"    -;;;;;;;;;;;;;;;;;;;;;;;;;;;;;'&..&'=@.$-'$.+*-@.+&>*@..&'=@.@*>@..*';;;    ",
"    --;;;;;-;-;;;-;-;-;-;-;-;;;-;;'+..@,&...*-+..@'$.......@,;'$......@-'-;-    ",
"    -;;;;;;;;;;;;;;;;;;;;;;;;;;;;;;&..$'=@.@='$.+*''$@...+@-;;;,$+..+$=';;;-    ",
"    -;;-;;;;;;;;;;;;;;;;;;;;;;;;;;;-*&'-,=&=,;-&*;;;,=*%&*,;;;;;'=*&=-'-;;;-    ",
"    -----,---,---,---;---;---;---;-,,,---,,,---,,,---,,,,'-------',,,,---'->    ",
"                                                                                ",
"                                                                                ",
"                                                                                ",
"                                                                                ",
"                                                                                ",
"                                                                                ",
"                                                                                ",
"                                                                                ",
"                                                                                ",
"                                                                                ",
"                                                                                ",
"                                                                                ",
"                                                                                ",
"                                                                                ",
"                                                                                ",
"                                                                                ",
"                                                                                ",
"                                                                                ",
"                                                                                ",
"                                                                                ",
"                                                                                ",
"                                                                                ",
"                                                                                ",
"                                                                                "};
