/* XPM */
static char * Canal+ Sport_xpm[] = {
"80 80 13 1",
" 	c None",
".	c #000000",
"+	c #24211B",
"@	c #5B5A55",
"#	c #816E27",
"$	c #1FB32B",
"%	c #8B7574",
"&	c #9D948D",
"*	c #5AC461",
"=	c #B1B1B1",
"-	c #9ADC9F",
";	c #D5DED5",
">	c #FFFFFF",
"                                                                                ",
"                                                                                ",
"                                                                                ",
"                                                                                ",
"                                                                                ",
"                                                                                ",
"                                                                                ",
"                                                                                ",
"                                                                                ",
"                                                                                ",
"                                                                                ",
"                                                                                ",
"                                                                                ",
"                                                                                ",
"                                                                                ",
"                                                                                ",
"                                                                                ",
"                                                                                ",
"                                                                                ",
"                                                                                ",
"                                                                                ",
"                                                                                ",
"                                                                                ",
"                                                                                ",
"                                                                                ",
"                                                                                ",
"                                                                                ",
"                                                                                ",
"                                                                                ",
"                                                                                ",
"                                                                                ",
"                                        #$$$$$$$$$$$$$$$$$$$$$$$$$$$$$$$$$$$$$# ",
"                                        #$$$$$$$-;-*$----$$$*;>-*$$*---*$----*# ",
"                                        #$$$$$$->;;**>>;>-$->>->>*$*>>>>*->>>-# ",
"                                        +++++$$;>*$$*>-$>;*>;*$*>>$->$->*$->-$# ",
" .....++...............................++.+.+$$->>-$*>;->;->-$$$->*->->>*$*>*$# ",
" +..@;>>;@.+=;%..@;=..&;+..&;=..+;=...+;=....$$$*;>-$>>>;**>-$$$->*;>>>-$$->*$# ",
" +.+>>=&;@.%>>;..&>>@.;>+.+>>>+.@>=...+>;....$$-**>-*>-$$$*;>-*->;*>;->-$$->-$# ",
" +.&>&..+.+;;;;+.=>>;+;;..&>=>@.%>%.%&&>;&&@.+#;>>>**>;$$$$*>>>>;*$>-$;>*$->*$# ",
" +.;>+....%>@=>+.;;%>=>=.@>=+>%.&>@.;>>>>>>@.#+#&&*$$**$$$$$$---$$$**$***$$**$# ",
" +.=>%...+;>;;>@+>=.;>>&.=>;;>&.=>+.+@@>;@@+.+##+@$$$$$$$$$$$$$$$$$$$$$$$$$$$$# ",
" +.@>>&&@@>;;;>&+>&.@>>%+;>;;>=.;>=%+.+>=....##@############################### ",
" +..@;>>@=;+.+;=+;%..&>@&>@..=;+=;>;+.+;=....%&&&%                              ",
" +...+++.+.....+.+....+..+....+.+.+....+.....%&&&%                              ",
" ++..+.+..+..+..+...+..+...+.+...............%&&&%                              ",
"                                    @%@%@@%@%&&&&                               ",
"                                    &&&&=&&&&&&&&%                              ",
"                                    &&&&%&&&&%&&&%                              ",
"                                                                                ",
"                                                                                ",
"                                                                                ",
"                                                                                ",
"                                                                                ",
"                                                                                ",
"                                                                                ",
"                                                                                ",
"                                                                                ",
"                                                                                ",
"                                                                                ",
"                                                                                ",
"                                                                                ",
"                                                                                ",
"                                                                                ",
"                                                                                ",
"                                                                                ",
"                                                                                ",
"                                                                                ",
"                                                                                ",
"                                                                                ",
"                                                                                ",
"                                                                                ",
"                                                                                ",
"                                                                                ",
"                                                                                ",
"                                                                                ",
"                                                                                ",
"                                                                                ",
"                                                                                ",
"                                                                                ",
"                                                                                "};
