/* XPM */
static char * CANAL ALGERIE_xpm[] = {
"80 80 16 1",
" 	c None",
".	c #000000",
"+	c #171513",
"@	c #640813",
"#	c #162C4E",
"$	c #A60917",
"%	c #3E5432",
"&	c #FA0305",
"*	c #035EC0",
"=	c #6E6E73",
"-	c #8178F5",
";	c #64BC09",
">	c #97969D",
",	c #BCBACD",
"'	c #E5E5EA",
")	c #FBFBFD",
"                                                                                ",
"                                                                                ",
"                                                                                ",
"                                                                                ",
"                                                                                ",
"                                                                                ",
"                                                                                ",
"                                                                                ",
"                                                                                ",
"********************************************************************************",
"................................................................................",
"................................................................................",
".....................................@$@$@$@@@@.................................",
".....................................@$&&&&&&&$+................................",
".....................................@$&&&&&&&&@................................",
"......................................@&&&&&&&&&@...............................",
"......................................+&&&&&&&&&$+..............................",
"......................................+@&&&&&&&&&@..............................",
".......................................+&&&&&&&&&&+.............................",
"........................................@&&&&&&&&&$.............................",
"....................................+...@$&&&&&&&&&@............................",
"..............................+++%%+.....$&&&&&&&&&$+...........................",
"...........................+%%%;;;;%.....@&&&&&&&&&&$...........................",
"........................+%%;;;;;;;;;%....+$&&&&&&&&&&+..........................",
"......................+%;;;;;;;;;;;;;#....@&&&&&&&&&&$+.........................",
"....................+%;;;;;;;;;;;;;;;;.....$&&&&&&&&&&@.........................",
"..................+%;;;;;;;;;;;;;;;;;;%....@&&&&&&&&&&&+........................",
".................+;;;;;;;;;;;;;;;;;;;;;%...+$&&&&&&&&&&$........................",
"................%;;;;;;;;;;;;;;;;;;;;;;%+...@&&&&&&&&&&&@.......................",
"..............+%;;;;;;;;;;;;;;;;;;;%%+++....+$&&&&&&&&&&$+......................",
".............+%;;;;;;;;;;;;;;;;;%+...........@&&&&&&&&&&&$......................",
".............%;;;;;;;;;;;;;;;;++.............+&&&&&&&&&&&&+..+..................",
"............%;;;;;;;;;;;;;;;%.................@&&&&&&&&&&&$+....................",
"...........+;;;;;;;;;;;;;;;#..................+$&&&&&&&&&&&@....................",
"...........#;;;;;;;;;;;;;;+...+###.......++.++.$&&&&&&&&&&&$@...................",
"...........;;;;;;;;;;;;;;%..+*----*#+...$$&$&$&$&&&&&&&&&&&&$...................",
"..........+;;;;;;;;;;;;;;+.+--------#+..$&&&&&&&&&&&&&&&&&&&&@..................",
"..........%;;;;;;;;;;;;;%..*--,'',,--#..$&&&&&&&&&&&&&&&&&&&&$+.................",
"..........%;;;;;;;;;;;;;%.#--,'))',--#..$&&&&&&&&&&&&&&&&&&&&&$.................",
"..........%;;;;;;;;;;;;;%.+--,'''',--##.$&&&&&&&&&&&&&&&&&&&&&&+................",
"..........%;;;;;;;;;;;;;%.+#--,,',---#.+$&&&&&&&&&&&&&&&&&&&&&&$+...............",
"..........+;;;;;;;;;;;;;;+.#--------#...$&&&&&&&&&&&&&&&&&&&&&&&@...............",
"..........+%;;;;;;;;;;;;;%..+#=---##...+@$$$$$$$$$$&&&&&&&&&&&&&$@..............",
"...........%;;;;;;;;;;;;;;+...###+#.....+++++@+++++@&&&&&&&&&&&&&$..............",
"...........+;;;;;;;;;;;;;;;+.......................+$&&&&&&&&&&&&&@+............",
"............#;;;;;;;;;;;;;;;%.......................@&&&&&&&&&&&&&&+............",
"............+%;;;;;;;;;;;;;;;;#.....................+$&&&&&&&&&&&&&$+...........",
".............+%;;;;;;;;;;;;;;;;%%++..................@&&&&&&&&&&&&&&@...........",
".............++%;;;;;;;;;;;;;;;;;;%%%++++............+@@$@$@$@$@$@$@@...........",
"...............+%;;;;;;;;;;;;;;;;;;;;;;;#.......................................",
".................%;;;;;;;;;;;;;;;;;;;;;=+.......................................",
"..................+%;;;;;;;;;;;;;;;;;;;+........................................",
"....................%%;;;;;;;;;;;;;;;;%.........................................",
"......................+%;;;;;;;;;;;;;;+.........................................",
"......................+.+%;;;;;;;;;;;+..........................................",
"...........................+%%;;;;;;%+..........................................",
"..............................++%%%%............................................",
"............+#++....+#+.........+%=%+....+##+%+##+.+#+##+#....+#+.+#+##+%++.....",
"...........#,)'#....,)=.......%,')))'=..+,)''''''#+,')')'),#.+,'%.,')')'''#.....",
"...........>)))=...#')%......=))=%#>))%.#)'=%%=%%.%))=%%=')>.%)'#+')=%%%=%+.....",
"..........=),,)>...%)'+.....%')%....=>#.=)'+++++..=),....,)>.=),.%)'#++++.......",
".........#')+=),+..=),+.....>)>..+#+++..=)))''),+.>)'===>',+.>)>.=))'''),+......",
"........+,)>.=)'#..,)>.....+')%..=)')'++,)>>>>>=..,)'''')'#.+')=.>),>>>>>+......",
"........=)),,,))%.+,)=.....#')=..#%>),.+')#......+')%++%')=.#))#+')%............",
".......#')>,,,))=.#))=%%%%+.,),%#+=')>.%)'%##%##.%)'+..+')%.=)'+%)'=#%#%#.......",
"......+,)>....>),.=)))))))%.#,))''',)=.>))'''')>.=)>...#))#.>),.=))'')'),+......",
"......+==+....%=%.%=======+..+====++=+.%=======%.%=%...+==#.%=%.%=======%.......",
"................................................................................",
"................................................................................",
"################################################################################",
"                                                                                ",
"                                                                                ",
"                                                                                ",
"                                                                                ",
"                                                                                ",
"                                                                                ",
"                                                                                ",
"                                                                                ",
"                                                                                ",
"                                                                                "};
