/* XPM */
static char * CANAL HISTORIA_xpm[] = {
"80 80 16 1",
" 	c None",
".	c #761708",
"+	c #8D1E12",
"@	c #9C2213",
"#	c #9E2320",
"$	c #A43614",
"%	c #AA3423",
"&	c #B54E1F",
"*	c #C46527",
"=	c #D47B35",
"-	c #DE9233",
";	c #E69941",
">	c #E0AE7D",
",	c #F2B148",
"'	c #F0B55F",
")	c #FCCC5B",
"                                                                                ",
"                                                                                ",
"                                                                                ",
"                                                                                ",
"                                                                                ",
"                                                                                ",
"                                                                                ",
"                                                                                ",
"                                                                                ",
"                                                                                ",
"                                                                                ",
"                                                                                ",
"                                                                                ",
"                                                                                ",
"                                                                                ",
"                                                                                ",
"                                                                                ",
"                                                                                ",
"                                                                                ",
"                     )))))')''>',',','''''')')')')))))))>>                      ",
"                     >;==*=*********-==*-=========;=-=;;=$                      ",
"                     )*$@@@%@#@%@@@#@$@@@$#$@$@%@$$$@$$$@&                      ",
"                     )=+@+@#####@+#@@#@#@+++++@+@@@++##+%&                      ",
"                     )=@$***&**&&***&&@%&*&&&*&%%%%%%*$#@*                      ",
"                     >=#$*';----;;;=*.@@%=';=**&*%*%%.+#&&                      ",
"                     )=$@$*),,---=*&..##@&;),-&*&&$$..#$%*                      ",
"                     '*@%@$*'));&$&..+###+$;))'*$$%..+##@*                      ",
"                     )=#+%#$;)))$*%..%#%##+*)))*$*+.#%+%&*                      ",
"                     >=@#+%$,)),*&&.+##+##@&)))*&%+.%+#@&*                      ",
"                     )*#%%@&;)),&*&+###%##+*)),*&*@.##%@$*                      ",
"                     >*+%@@$;,),=**.+#####+&))'*&&%.###+$*                      ",
"                     )*$%%$&;)))=;*.+###+#+&,),=&*$.##@$%>                      ",
"                     '*@#@$$-,))-==.$@$$$#%$,),==*$.%#@+&*                      ",
"                     )*@#%#&;)))-;,--;-';;;,,),-*;$.#%@$&=                      ",
"                     )*@##@%,))),;,,))))))))))'=-*$.#@##*=                      ",
"                     )*@%%%%;))),',,-,;,;,;,,,;---$.###$&>                      ",
"                     >*@#+@$'))-*=---*=**&&&&&=;-=$.%@#@*=                      ",
"                     )*@%%+&,)),&*=>;;=;=*&&*;;;-;$.####*;                      ",
"                     '*@%#@%,)),*$***&*&&&&$-,,===&.###@*-                      ",
"                     )*@@%#$,)),&&&..$++++.&,),=*=$.###@*'                      ",
"                     >*@##@$;)),*&&.++@+@+.&)),=*&%.%+#@*;                      ",
"                     )*%%@@&;)))==&.+#####+&,),=&*%.+##%*'                      ",
"                     '*+%#+$;,),--*.#####@+&)))*&&$.###@*;                      ",
"                     )*@#%%&;,))-;*.+#####+*')'*$&++#%@$*'                      ",
"                     '*@#+#$,,,,;=*.+##@##@&)))&$%+.#@@+=,                      ",
"                     )*%%#+%;,,,=;&.+#####+*')'*@%+.##+$='                      ",
"                     ,*+###$;,),&&%.#@#@##@&)))&@%+.###+='                      ",
"                     '*%%#+&-)),&&%.+#####+*))'&+#++###$='                      ",
"                     >*@%+$=),'-*&$.#####+$;),,*&@+.@@@@*;                      ",
"                     '*@@&=';***==&&#@##@&;';==;=*&$##@$*'                      ",
"                     ,*+$*=&&$&%&==*&@#+&=*&&***===*&%++&-                      ",
"                     '*@%$...++$.$.$+$+$+$.+.$+$.$$$+%+$$>                      ",
"                     ,*@@+++#+++#..+#+#+#++.+.+.+.+++++@%*                      ",
"                     '*@##%%%%$$@##%@@@@@%@%$&$&%%$$$&$&$*                      ",
"                     *$@%@%$$+&$&%&%&&&%&&&&&****=====-==&                      ",
"                     >>>;>>>>>>>>>>>>>>>>'>>>)>>>>>)>)))>>                      ",
"                                                                                ",
"                                                                                ",
"                                                                                ",
"                                                                                ",
"                                                                                ",
"                                                                                ",
"                                                                                ",
"                                                                                ",
"                                                                                ",
"                                                                                ",
"                                                                                ",
"                                                                                ",
"                                                                                ",
"                                                                                ",
"                                                                                ",
"                                                                                ",
"                                                                                ",
"                                                                                ",
"                                                                                ",
"                                                                                ",
"                                                                                ",
"                                                                                ",
"                                                                                ",
"                                                                                "};
