/* XPM */
static char * Canal 24 Horas_xpm[] = {
"80 80 16 1",
" 	c None",
".	c #023C7C",
"+	c #3C6290",
"@	c #625B5D",
"#	c #7389A4",
"$	c #9D9A9C",
"%	c #99ABBF",
"&	c #E6ABAE",
"*	c #C0BFBD",
"=	c #B3C6DB",
"-	c #F1C272",
";	c #D1CFCC",
">	c #DADDE3",
",	c #EBF1F7",
"'	c #FBF0D8",
")	c #FFFFFE",
"                                                                                ",
"                                                                                ",
"                                                                                ",
"                                                                                ",
"                                                                                ",
"                                                                                ",
"                                                                                ",
"                                                                                ",
"                                                                                ",
"                                                                                ",
"  ))))))))))))))))))))),)))))))))))))),&&;),)'),)))))))'))))))))))))))))))))))  ",
"  ))))))))))))))))))))))))))))))))))))>@@>))))))))))))))))))))))))))))))))))))  ",
"  ))))))))))))))))))),,,,,,,,,,,,,,,)')@$')),,,,,,,,,,,,,,))))))))))))))))))))  ",
"  ))))))))))))))))))))#++++++++++++#,)'--'))#++++++++++++#,)))))))))))))))))))  ",
"  ))))))))))))))))))))=.............,))--'),+............%))))))))))))))))))))  ",
"  )))))))))))))))))))),#...........@,))'')))+...........+,))))))))))))))))))))  ",
"  ))))))))))))))))))),)#............,)))),),#...........+,))))))))))))))))))))  ",
"  )))))))))))))))))))))#...........+,)))))))+...........+)))))))))))))))))))))  ",
"  )))))))))))))))))))))#............,)))))),+...........+)))))))))))))))))))))  ",
"  )))))))))))))))))))))#...........@,)))))))+...........+)))))))))))))))))))))  ",
"  )))))))))))))))))))')#...........#))))))))%...........+,))))))))))))))))))))  ",
"  )))))))))))))))))))))#.........+>)),>==>,)),+.........+)))))))))))))))))))))  ",
"  )))))))))))))))))))))#........+,)>%++...+#>),#........+)))))))))))))))))))))  ",
"  )))))))))))))))))))))#.....+.+,)>@.........;))+....+..+)))))))))))))))))))))  ",
"  ))))))))))))))))))),)#.......=)=............=)>.......+)))))))))))))))))))))  ",
"  )))))))))))))))))))))#......+),+...+.........,)%......+)))))))))))))))))))))  ",
"  ))))))))))))))))),)))+......=)=...#=+........#)=......+)))))))))))))))))))))  ",
"  )))))))))))))))))))))=.....@,)+...+=+........+,)+.....#)))))))))))))))))))))  ",
"  ))))))))))))))))))),)'>+...+)>+...............>)#...+*''))))))))))))))))))))  ",
"  ))))))))))))))))))))''-'=+.#)>................=)#..='--)))))))))))))))))))))  ",
"  )))))))))))))))))))))--'=..+)=................=)#..%'--'))))))))))))))))))))  ",
"  ))))))))))))))))))))))=#...#),.....+.......+.+=)#...+*')))))))))))))))))))))  ",
"  ))))))))))))))))))),)%......,)#..............+),+.....#)))))))))))))))))))))  ",
"  )))))))))))))))))))))#......=)=..............%)>......+)))))))))))))))))))))  ",
"  ))))))))))))))))),)))#......#))+............+,)#......+)))))))))))))))))))))  ",
"  )))))))))))))))))))))#.......=),+..+.......@>)=+......+)))))))))))))))))))))  ",
"  )))))))))))))))))))))#........>),+........+=),+.......+,))))))))))))))))))))  ",
"  )))))))))))))))))))))#........+>))=#.+.++%,),#........+)))))))))))))))))))))  ",
"  )))))))))))))))))))))#..........=)))>=>>)))=+.........+)))))))))))))))))))))  ",
"  )))))))))))))))))))))#...........#,)))))))#...........+)))))))))))))))))))))  ",
"  )))))))))))))))))))')#............,)))),))+...........+,))))))))))))))))))))  ",
"  )))))))))))))))))))))#...........+,)))))))+...........+)))))))))))))))))))))  ",
"  )))))))))))))))))))))#............,)),))))+...........+)))))))))))))))))))))  ",
"  )))))))))))))))))))))#...........+,)))))))+...........+)))))))))))))))))))))  ",
"  ))))))))))))))))))),)+............,))'''),#...........+,))))))))))))))))))))  ",
"  ))))))))))))))))))))%............@,)'--'))+............%))))))))))))))))))))  ",
"  ))))))))))))))))))))%#############,)'--'),%############$))))))))))))))))))))  ",
"  ))))))))))))))))))))))))))))))))))))))')))))))))))))))))))))))))))))))))))))  ",
"  ))))))))))))))))))))))))))))))))),),))),),))))))))))),))))))))))))))))))))))  ",
"  ))))))))))))))))))))))))))))))))))))))))))))))))))))))))))))))))))))))))))))  ",
"  ))))))))))))))))))))))))))))))))))))))))))))))))))))))))))))))))))))))))))))  ",
"  ))))))))))))))))))))))))))))))))))))))))))))))))))))))))))))))))))))))))))))  ",
"  ))))))))))))))))))))))))))))))))))))))))))))))))))))))))))))))))))))))))))))  ",
"  *;***;***********;*********************************************************'  ",
"  ;;;;;;;;;;;;;;;;;;;;;;;;;;;;;;;;;;;;;;;;;*;;;;;;;;;;;;;;;;;;;;;;;;;;;;;;;;;,  ",
"  ))))))))))))))))))))))))))))))))))))))))))))))))))))))))))))))))))))))))))))  ",
"  ))),))))))))))))))))))),))))))))))))))))))))))))))))))))))))))),))))))))))))  ",
"  ))))))))))))))))))))))))))))))))))))))))))))))))))))))))))))))))))))))))))))  ",
"  ),))),))))))),))))))))))),))))))))))),))))))))))),))),))))))))))))))))))))))  ",
"  )),$$*$>)))))))))))))))))>@))))));$>))))*')))))*@;)>@*))))))))))))))))))))))  ",
"  ))@@,>$@)))))))))))')))));@,))))>$$.,));@;)))))%@,),@*),))),))))))))))))))))  ",
"  );@))))'))>>,),>>>))),>))'@))))),),@>),$@;)))));@)))@>)),;>))),>,)>>))),>)))  ",
"  )@@))))));%@*)*.&@$)>%@%);@,))))))$@),*;$*)))));@$*$@;)>$$@&)*@@>=%@*)*@*,))  ",
"  )$@))))))>,$$)>#);@),'@%)'@))))))>@')>@$@$)))))>@>>'@>)$$)*$);@)),,$$)*@;)))  ",
"  )>@&)),$);*@*)'@)*$);$@$);@,)))))#;,,,*$@$)))));@)))@;)#$);@);#))*%@$))$@;),  ",
"  ))$@*>@$)$@#$);@;$@)$$@$);@,))))$@@@>)))@;)))))%.>)>.*),@*$*)*@,)$@#$)**@>))  ",
"  )))>**;,),*;>),=,;;,,*;;),>,))))>&*;))))',)))));*>)>=;)),%>));=,)>*;>)'*>)))  ",
"  ))))))))))))))))))))))))))))))))))))))))))))))))))))))))))))))))))))))))))))  ",
"  ))))))))))))))))))))))))))))))))))))))))))))))))))))))))))))))))))))))))))))  ",
"                                                                                ",
"                                                                                ",
"                                                                                ",
"                                                                                ",
"                                                                                ",
"                                                                                ",
"                                                                                ",
"                                                                                ",
"                                                                                ",
"                                                                                ",
"                                                                                "};
