/* XPM */
static char * CARTOON NET__xpm[] = {
"80 80 12 1",
" 	c None",
".	c #000000",
"+	c #1E1D1C",
"@	c #353638",
"#	c #595959",
"$	c #898989",
"%	c #B6B6B6",
"&	c #D1D1D1",
"*	c #E5E4E3",
"=	c #EFEFEF",
"-	c #F8F8F7",
";	c #FFFFFF",
"                                                                                ",
"                                                                                ",
"                                                                                ",
"                                                                                ",
"                                                                                ",
"                                                                                ",
"                                                                                ",
"                                                                                ",
"                                                                                ",
"                                                                                ",
"                                                                                ",
"                                                                                ",
"                                                                                ",
"                                                                                ",
"                                                                                ",
"                                                                                ",
"                                                                                ",
"                                                                                ",
"                                                                                ",
"                                                                                ",
"                                                                                ",
"                                                                                ",
"                                                                                ",
"                                                                                ",
"                                                                                ",
"                                                                                ",
"                                                                                ",
"                                                                                ",
"                                                                                ",
"                                                                                ",
"   ...+@+...+*--------&+.+++++...#-*******-$...+@@+...%-;=&&&--*@......@+.@     ",
"   .+$-;-%@.+=;;;$%;;;&.#---;=%+.$;#+++++@-$..#*;;&#..%;%@..+#--+@%@..#-*+      ",
"   .%;;*;;*++*;;&.+=;;&.#;;%%;;$.#;#++..+@=$.#;;*=;;#.%*+..+..#=+@;-$+#;-+@     ",
"   @-;%+#%#.@*;-#..$;;&.#;;@@-;$.$;=*#.+==;$.&;&@@&;%+%$..%*#.+&+@-;;&%;=+      ",
"   #;;@.....+*;%.++.&;&.#;;&&;*+.#;;;#.@-;;$.*;$..$;&+%#.+=;%..%@@-;;;;;-+@     ",
"   @=;%@#&$++==+.#@.@;&.#;;=;;&+.$;;;#.+=;;$.%;*##*;%.%$..$&@.+&+@-;%&;;=@@     ",
"   .$;;;;;&++*$..+...$&.#;;#$;;%.#;;;#.+=;;$.#-;;;;-@.%=+.....$-+@;;#+$-;+      ",
"   .+$*-=%+.@%+.$&%#.@%.#**@.%**@#;;;#+@-;;$..#&*=%#..%;&#++@$;=+@&&#..#%@@     ",
"   ...+++...+&**;;;=**&..++...++.$;;;=&*;;;$....++....%;;;*&=;;-+.+.......      ",
"   ####@####@####@####@@##@#####@@#########+#########@@#@######@@##########     ",
"   =-;;;-*&-$...+.+....%;=-===*--@.........@*;;-&*;;;%..++++....$;&&*;*&&=      ",
"   =#%-;=@+%$.+&**==$..%&@+@+@+$;@$&%.#+@*%#*;%@++#%;%.#-===*%..$=@+$=@+#-      ",
"   -@.#&-+.$$.@-;&$$#..%&.+...+$;@$;=@*$$;%@=$.....+*%.#;;%%;;$.$=+.#$..&;      ",
"   ;@..+$+.$%.@*;%##@..%-*%..$==-@+*-&;**-#+&@.@%%..#&.$;-@@;;$.$=+.@..$;-      ",
"   -@......$$.@*;;;;#..%;;&+.$;;=@.%;;;;;*+@%+.$;;@.#&.#;;&*;&+.$-+...+%;-      ",
"   -@.@@...$%.@*;%##@..%;;&..$;;-@.@-;=-;$.@&+.@*%+.#&.#;;-;;&..$=+.@+.@=;      ",
"   =@.#=$+.$$.@=;&$$#..%;;&..$;;-@..&-#%;@.@*$..+...&%.#;;@$;;$.$-+.$$..#-      ",
"   =#+#;;&#$$.+&==-;$..%;;&+.$;;-@..$$.@%+.+==#+..@%;%.#=*@.%**@$*@+$-#++%%     ",
"   =*&=;;;-=$..++++++..%;-=&%*;;=@...+..+..+*;;&%&=;;%..++...+++#;**=-=***      ",
"                                                                                ",
"                                                                                ",
"                                                                                ",
"                                                                                ",
"                                                                                ",
"                                                                                ",
"                                                                                ",
"                                                                                ",
"                                                                                ",
"                                                                                ",
"                                                                                ",
"                                                                                ",
"                                                                                ",
"                                                                                ",
"                                                                                ",
"                                                                                ",
"                                                                                ",
"                                                                                ",
"                                                                                ",
"                                                                                ",
"                                                                                ",
"                                                                                ",
"                                                                                ",
"                                                                                ",
"                                                                                ",
"                                                                                ",
"                                                                                ",
"                                                                                ",
"                                                                                ",
"                                                                                ",
"                                                                                "};
