/* XPM */
static char * CAZA Y PESCA_xpm[] = {
"80 80 16 1",
" 	c None",
".	c #000000",
"+	c #010105",
"@	c #070703",
"#	c #0E0D0B",
"$	c #12120A",
"%	c #1A1912",
"&	c #27261E",
"*	c #313028",
"=	c #3E3D32",
"-	c #504F3F",
";	c #656452",
">	c #888875",
",	c #ACAC93",
"'	c #D4D4B8",
")	c #F5F5D6",
"                                                                                ",
"                                                                                ",
"                                                                                ",
"                                                                                ",
"                                                                                ",
"                                                                                ",
"                                                                                ",
"                                                                                ",
"                                                                                ",
"                                                                                ",
"                                                                                ",
"                                                                                ",
"                                                                                ",
"                                                                                ",
"                                                                                ",
"                                                                                ",
"                                                                                ",
"                                                                                ",
"                                                                                ",
"                                                                                ",
"                                                                                ",
"                                                                                ",
"                                                                                ",
"                                                                                ",
"                                                                                ",
"                                                                                ",
" ...................................................................+.........  ",
" +++.+...+.+.+.+.@++.+...+++...+++...+.+...+.+.+.+++...+.....+................  ",
" .+.+.+.+...+++.+.+.+.+.+.+++...+...........+.+.+.++....+...+...&&====---=--;-  ",
" ..+.+...+.+.+.+++.+.+...+++...........+.+.+......++...++..++.%>>;-;=;>******&  ",
" .....+...+...+++....++.+.+.+...+.+.+...+.+.+++.....+.++....+.#%@....+;.......  ",
" ..+.+.+.+++.@++++.++++....+.+.+.+++++...+...+...+.+.+++.++++#.....@+.-=.@....  ",
" ...+.+.+.+++.+.+...+...+...++..@.+++.+.....@...+...+++++...+..@;;%.@.=-......  ",
" +.@...++...++.....@...+++...........+.....+...@+...++...+.+...;;;>@..;;.+.+..  ",
" +..$**++$*#+#*&*&@.&&@.+@*%.@*#@@**&.#&**#.&=&+.$=&@+%&@......>*#>..='&..+.+.  ",
" @.-')'$.,)>.='))'#@')*..@,'.>'%.=))'>=)))*>))>.-))'#.,)=..+.+.=>,-@>'=..+.+.+  ",
" .$''==+$'),@#=;)>@*))>...-);'>..*)-,';);&&),$#%),-=.%'),.+.....%->,'&..+++.+.  ",
" .=)-...-)>)*..,)&.>,,'@.+@'))%..=);,'-),>%'),%-)-...;','%.+.@+..;',..+@+@++..  ",
" .-)-...,'-)>.-);.@,>;)*...-)>...*))'-=),>$#>)';)=...,';)-..+.+.;,&>=.+++.@...  ",
" .&),=*%')')'&')=*=)'')>.@.*);.@.=)>$.-)-&#%$')-)'**&))'),...@.->$.>,..@...@++  ",
" ..;))';)=%;);))),>'&%,'#..*)-...*)=..-))'=,)';.>)),;'=$,'&.+.$;%..%'-....+.+.  ",
" +..&-*&*+.#***==**&..%=#..#*%++.#*$.+#===#*-*...*-*&*..$=$+++>;.+.,-;>>;>;@..  ",
" .+......++...................+.......................++....+#>&..;,$+=*%-,...  ",
" +++.@.++#+@+#+@.@.+++..++++.+.+.+...+++.+.+...+......++...+.@+..&,*.@...==...  ",
" ...+.++++++@++++.+.+...+.+.....+...+...+.+.+.+.......+.+.+......*-.+++.@...+.  ",
" ..+.+.+.++@+@+#++.+.+...+...+.+.....+.@.+.+...@.+.+...@.+.+.++@&;>$.+.@.@.+++  ",
" ...+...+.+++++++++.+.................+.+.....+...+++.+.+.+.+.+.=>;@....+.+.+.  ",
" ......+.@+@+@+@++.+...........................................@..............  ",
" .........+.+.+.+.............................................................  ",
" ..........+.+.+.+.+..........................................................  ",
" .........+...+...+...........................................................  ",
" ..........+.+.+.+.+..........................................................  ",
"                                                                                ",
"                                                                                ",
"                                                                                ",
"                                                                                ",
"                                                                                ",
"                                                                                ",
"                                                                                ",
"                                                                                ",
"                                                                                ",
"                                                                                ",
"                                                                                ",
"                                                                                ",
"                                                                                ",
"                                                                                ",
"                                                                                ",
"                                                                                ",
"                                                                                ",
"                                                                                ",
"                                                                                ",
"                                                                                ",
"                                                                                ",
"                                                                                ",
"                                                                                ",
"                                                                                ",
"                                                                                ",
"                                                                                ",
"                                                                                ",
"                                                                                "};
