/* XPM */
static char * CCTV9_xpm[] = {
"80 80 16 1",
" 	c None",
".	c #0C2862",
"+	c #592048",
"@	c #1C427A",
"#	c #BE1922",
"$	c #285994",
"%	c #3F5980",
"&	c #436E9E",
"*	c #71819E",
"=	c #879AB4",
"-	c #99ADC4",
";	c #B3C1D3",
">	c #C1CEDD",
",	c #D0DCE9",
"'	c #E5EEF7",
")	c #FCFDFD",
"                                                                                ",
"                                                                                ",
"                                                                                ",
"                                                                                ",
"                                                                                ",
"                                                                                ",
"                                                                                ",
"                                                                                ",
"                                                                                ",
"                                                                                ",
"                                                                                ",
"                                                                                ",
"                                                                                ",
"                                                                                ",
"                                                                                ",
"                                                                                ",
"                                                                                ",
"                                                                                ",
"                                                                                ",
"                                                                                ",
"                                                                                ",
" =.@+@+@+@+@@@+@@@@@@@@@@@@%@@@%@%@%@%@%@%@%@%$%$%$%$%$%$%$&%&%&%&%&%&%&&&&&&&  ",
"  ............................@.@.@.@.@.@.@.@@@@@@@@@@$@@@$@$@$@$$$@$$$$$$$$$$- ",
" =...................@.@.@.@.@.@.@.@.@@@@@@@@@@@@$@$@$@$@$@$$$$$$$$$$$$$$$$$$&  ",
"  ............................@.@.@.@.@.@.@@@@@@@@@@@@@@$@$@$@$@$@$$$$$$$$$$$$- ",
" *.................@.@.@.@.@.@.@.@.@@@.@@@@@@@@$@@@@@$@$@$@$@@@$@$@$@$$$$$$&$&  ",
"  ..........@.@.......+.+.+...@.@.@.@.@.@.@.@@@@@@@@$@$@@@%%*&*&*&*&*&$@$$$$$$- ",
" =.......*=>,',-.@.++######+=,>,>,>,>,>,;=@@@$@$->%->&@@%;,)))))))))''>=$$$&$&  ",
" *.....%>))'','-..++#######+=,,>,,',,>,,))-+@@@&)-*);+@*')))))))))))))))>&$$$$- ",
"  ....*)),==*=**.+########++%=****@**=**&')=.@@,'*>)&@=)))))';===;'))))))'&$$&  ",
" *...%))-*>')))>.+#########+;))));&')))'*%)>@.*);&);@&)))))'*@@@@@*,)))))),%$$- ",
"  ...,)>*))'=--*+#######+#+@&--,)>*));;)'*;)&@;)&>)*@,)))))-@$&;=$@*)))))));$&- ",
" *..%')*,);+....###+##+........*);*')%.>)=*)-+);*)>+&'))))'&$@>))&$@,))))))'&$  ",
"  ..*),*')%....+##+###.@.@.@@@.=)>%)'&.*)'%,,;)*>)*@*)))))'&$$,))=@$-)))))))*$- ",
" *..%))*')-.....###+##+...@.@..*)>*')%@.>)=*))>*)>$.=))))))&@@-''%$@=)))))))=$  ",
" =...')-=));%*%%+#######+#+@.@.=)>*)'*@@&),*,)*;)=@@=))))));@$$*%%$$=)))))))=&- ",
"  ...*)'=='))')>++#########+@..*)>*')%@@@>)*=>*',@@@;))))))'-%$@*&$@-)))))))=$  ",
" *....-))-*--;;=.+####+####+.@.=)>%)'&.@@*),%*;)=@@%')))))))),>,)=@$;)))))))*&- ",
"  .....=)))>;;>*..++#######++..*)>*))%@@@@>)>;),%@@*)))))))-*&-),$$$')))))),&$- ",
" =......%-,))))>.@.++#######+@.*';%',%@@@@%>'),*@$%,)))))));@@$=&$@-)))))))-$&  ",
"  .........+@.@.......+.+++.@...%..@%.@@@@@@%%$.@@;)))))))));%$@$%-'))))));%&$- ",
" *...@+@@@.@.@.@@@@%@%@%@%@%@%@%@%$%@%%%%%$%@%%&*>))))))))))))>>>')))))))>&&&&  ",
" *..-'''''''''''''''''''''''''''''''''''''''''''))))))))))))))))))))))),-&&$&&- ",
"  ..*>;;;;;;;;;;;>;;;;;;;;;;;>;;;>;>;>;>;>;>;>>>;>;>;>;>;>;>;>>>;>;>;;=*$&&&&&  ",
" *..............................@...@.@.@.@@@@@@@@@@@@@@$@$@$@$$$$$$$$$$&$&$&$- ",
"  .............@...@.@.@.@.@@@.@@@@@@@@@@@@$@$@$@$@$$%@$$$$$$$$&$&$&$&&&&&&&&&- ",
" *....................@.@.@.@.@.@@@.@@@@@@@@@@$@$@$@$@@@$$$$$$%$$$%$&$&&&$&$&&  ",
"  .......*;....@.@.@.@.@;%.@.@@@@@@@.%-%.@@$@%@$@%-=%-=-&%$$$&$%$%--$&&&&&&&&&- ",
" *.....@@='+%+.......+*=)=*$@.@.@.@&=-'-=&@@$@@@%%,--,;';@$$$$$$$&'&-&$$&$&&&&  ",
" *....%';,';,,+..@.@.*'>';)=.@.@@@.-,='=,;.$@$@$$->,;;=>-$$%$&$&=)-*,)*&&&&&&&- ",
"  ....*,.*'.*'@......*;+'+,*..@.@@@=,-'-,-@@$@$@$@>;-;>;-@$$$$$&,>;;;>>$&$&$&&  ",
" =....*)->'->'...@..&'',',''*@@@@@.->='=>;@$@$@$@;)''>>,-%$$$$$&&=====%%&&&&&&- ",
"  ....*>*-'*--......@+@>)>%+@.@.@..-';';'=.@@@@@$=,**-)-%@$$$$$@='==;'&$&$&&&&- ",
" *.....+.*,....@.@.@.@='*,-%@@@@@@.=*%'*%*&$@$@$@@;*%,,==&$$$$$$=,%*='%&$&&&&&  ",
"  .......*'.......@.%,,+.%,'*.@.@@@..@,;->-.@@$@@@>='*-''%$$$$$@='>;,'&$&$&&&&- ",
" =.......%%..@.@.@.@.%.....%.@@@@@@@@@@%%%@@@$@$@%&%%@%*%%$$$&$$&*@%%*$&&&&&&&  ",
" *......................@...@.@.@.@@@@@.@.@@@@@@$@@@@@$@@@$$$$$$$@$$$@$$&$&&&&- ",
"  .............@...@.@.@@@.@@@.@@@@@@@@$@$@$@$@$$$@$$$$$$$$&$$$&$&$&$&&&&&&&&&  ",
" *@.@+@.@+@.@@@+@@@+@@@@@@%@@@%@%@%@%$%@%$%$%%%%%%%%&%&%&%&%&%&%&%*&&&*&&&*&*&; ",
"                                                                                ",
"                                                                                ",
"                                                                                ",
"                                                                                ",
"                                                                                ",
"                                                                                ",
"                                                                                ",
"                                                                                ",
"                                                                                ",
"                                                                                ",
"                                                                                ",
"                                                                                ",
"                                                                                ",
"                                                                                ",
"                                                                                ",
"                                                                                ",
"                                                                                ",
"                                                                                ",
"                                                                                ",
"                                                                                ",
"                                                                                "};
