/* XPM */
static char * CCTV4_xpm[] = {
"80 80 13 1",
" 	c None",
".	c #112D69",
"+	c #23518B",
"@	c #BC1722",
"#	c #416A9E",
"$	c #7489A7",
"%	c #9BAAC0",
"&	c #B4C2D4",
"*	c #C3D1DF",
"=	c #D3DCE9",
"-	c #E2E8ED",
";	c #EEF4F8",
">	c #FFFFFF",
"                                                                                ",
"                                                                                ",
"                                                                                ",
"                                                                                ",
"                                                                                ",
"                                                                                ",
"                                                                                ",
"                                                                                ",
"                                                                                ",
"                                                                                ",
"                                                                                ",
"                                                                                ",
"                                                                                ",
"                                                                                ",
"                                                                                ",
"                                                                                ",
"                                                                                ",
"                                                                                ",
"                                                                                ",
"                                                                                ",
"                                                                                ",
"  ......................................+.+.+.++++++++++++++++++++++#+#+#+#+##  ",
"  ...................................+.+..+..++.+.+.+.++++++++++++++++++++++++  ",
"  .............................+..+.+..+.+.+.+.++.+++++++++++++++++++++#+#+#+#  ",
"  ...................................+..+.+.+.+.+++.+.+++++++++++#+++#+++++#++  ",
"  ...........................+..+..+...+..+.++.++.++++++++.++++++++++++#+#+#+#  ",
"  ...................................+.....+.++.++..++++.+############++++#+#+  ",
"  .......$%&&*$......@@@@@.$*&&*&*&*&&*&$++.+.+$&#$*#+.+%*-;>;>>;>>;;*$#+###+#  ",
"  ....+&>>>;-;%...@@@@@@@@@%----------=>>%.++.#;*$;=++#=>>>>>>>>>>>>>;;=$++#+#  ",
"  ...#->=%$$$$#..@@@@@@@@@.+$$$$#+$$$$$#->$+.+%>$%>$.$->;>>>>>>*%$&>>>>;;$+##+  ",
"  ..#;>&$&;>>>&.@@@@@@@@@@@&;>;;*#=;;>;$#;=+.#;*#;=+#=>>;>>>>>=#++$>>>>>;;$+##  ",
"  ..&>&$->-&%&$.@@@@@@@@@@.$%&=>=#;>**>;#&>#.%>$%>$.%>>>>>>>>-#+++$>>>>>>;*#+#  ",
" ..+;;$=>*.....@@@@@@@........$>=#->#.&>%#>&+==$;-#+->>;>>;>>$+#++$>>>>>>;;$+#  ",
"  .#>=$;>#.....@@@@@@.........$>=#;;#.#>;#*;%>$%>%.#;>>>>>>>%++%#+$;>>>>>>>%##  ",
"  .$>-$;;$.....@@@@@@@....+...$>-#;>#.+&>%$>>=$;-++$;>>>>>>%++%-++$>>>;>>>>&+#  ",
"  ..->%%>;$+.+.@@@@@@@@.....+.$>=#;;#..$;-#=>%%>%++$;>>>>>&#+%;-#+$>>>>>>;>*##  ",
" ...%>-$%>>>;>&.@@@@@@@@@@@...$>-#->#.+.&>$$-$-;#.+%>>>>>;#++%%$++#%->>>>>>&+#  ",
"  ...*>;%$%*&*$.@@@@@@@@@@....$>=#;;#+.+#>=#$%>%+++&>>>>>-#++++++#++=>>>>>>%#+  ",
"  ...+%>>-&&%&$..@@@@@@@@@.+..$>-#;>#.+.+&>&%;;#.+#;>>>>>;######+++#=>>>>>;$##  ",
"  .....#&->>>>*....@@@@@@@@...$;&#=-#.++.#=>>;$+++&>>>>>>>--=--&#+$-;>>>;>*###  ",
"  .......++###+......@.@.@.+...#+.##.+..+.+###+.+$;>;>>>>>>>>>>=++$>>>>>>-$+##  ",
"  .....................+.+..++.+.+.++++++++++++#%>>>>>>>>>>>>>>;=*=>>>>>-$####  ",
" ..%&*&********=*========*==*=======*=*===*===-;>>>>>>>>>>>>>>>>>>>>>>;*$+####  ",
"  .%==================================-====-=========================&$#######  ",
"  .........................+.+.+.++.+++++++++++++++++++#+#+#+#########+#######  ",
"  ..............................+..+..+.+.+.+++++++++++++++++++++++#+#########  ",
"  ....................+...+.+.+.+.+.+.+.++++++++++++++++#+#+##+###+##+########  ",
"  ......+$.............%+.....+.+.+.+$#.+.+++++++$#+$$$#+++#++#++$%#+#########  ",
" .......%-..........++$>$#+.+..+..+$$;%$#+.++.+++&*$-&-*+#++##+##=%$$#+#######  ",
"  ...+&%-;&&%.......#-=-*-$..+.+.+%=%;%=&.++++++%*-%&$&&+++#++##&*#%;$########  ",
"  ...$-.%-.%-.......$&#=+*$.+...+.$=%-%**++++++++%=%&&&&+#++#+#*;*&*--#+######  ",
"  ...$=$%-$%-......#&-&-%-=$..++..%=$-%&&.++.+++$;-**&&*+++#++##$$$$$$+#######  ",
"  ...$-%=-%*&......+$$*>*$$#....+.%-&;%-*..+++++%-%%&-&$+#+++#+$=&&&-$+#######  ",
"  ......$=...........#=%=$....+...$%$=$$$#+++++.+&$.&;%##++#+#+$=#+#-$+#######  ",
" .......%=.........+&-$.$--$..+.+.+..-%$&*.+.+++.&%*%%--$+++#++$;***>$+#######  ",
"  ......+$..........$.....$+..+.+...+#$$$++++++++$#$.#$$+++#++##%#+#%#########  ",
"  ...........................+..+.++......+.++++++..+++.+#++#+#+++#+++########  ",
"  .............................+..+.+.+.++.++.+++++++++++++++#+#+#+####+######  ",
"                                                                                ",
"                                                                                ",
"                                                                                ",
"                                                                                ",
"                                                                                ",
"                                                                                ",
"                                                                                ",
"                                                                                ",
"                                                                                ",
"                                                                                ",
"                                                                                ",
"                                                                                ",
"                                                                                ",
"                                                                                ",
"                                                                                ",
"                                                                                ",
"                                                                                ",
"                                                                                ",
"                                                                                ",
"                                                                                ",
"                                                                                ",
"                                                                                "};
