/* XPM */
static char * CHERIE FM_xpm[] = {
"80 60 16 1",
" 	c None",
".	c #050404",
"+	c #781210",
"@	c #AC0708",
"#	c #D50409",
"$	c #514C4C",
"%	c #AB3532",
"&	c #EC361F",
"*	c #9F6561",
"=	c #EE5C3F",
"-	c #B28684",
";	c #E1796D",
">	c #BBABAB",
",	c #EDA9A1",
"'	c #EED1CC",
")	c #FDFAF8",
"                                                                                ",
"                                                                                ",
"                                                                                ",
"                                                                                ",
"                                                                                ",
"                                                                                ",
"                                                                                ",
"                                                                                ",
"                                                                                ",
"                                ;;*;==%=%=%=*=;                                 ",
"                        ';;==&&&&&&&&&&&&&&#&#&###&%=-                          ",
"                     ,;=============&=&=&=&=&=&&&&&&###&%;                      ",
"                  ,;=&===&=====&=%=&=&=&&&&&&&&&&&&&&####@#%;                   ",
"               ';;===;=;;,;;==&=&;';&=&=&=&&&&&&&&&&&&#=&&####%                 ",
"              ;===;===;,))),=&=&;')%&&&&&%=&&&&&&&&#&#;',#&##@#@%               ",
"            ;;=;=;===,))--))==&=')'%&=&&=')'%&&&&&&&&&,)-&#&;,=###%             ",
"          ,=;=;=;==&,')*%*)'=&&,))*@&&=,)''-%#&#&#&#&#=-%@=')),@###@=           ",
"         ,=;;;=;===,))*%=,)'%&;))'+=&&;'**+%%;=&==&&&;,=@=)'-)>@####@%          ",
"        ;=;=;=====;')*%&=')*%&'))%%&&&=+-,,%;''')';@;))*%')$''%@#####@@         ",
"      ';=;;;=;===;')>%&=,)'%%;))>%&&&&&')));')))))*&')'+;)'''*@&%######@        ",
"      ;=;========,)'%%;,))-@=,)'%%;&&%')->'$)))')>+;))%+,))>%+&,*@######@       ",
"     ;=;=;====&=;));@;)))'+&;))-$'),#,)-*)**)'%')%@')-+%,)-+@&',+#######@@      ",
"    ,=;====&=&==')'+=')))%%%,)'+'))*%')>)*@%'$%'>+=')%@*))'*;''+#######@#@%     ",
"    ;;;;====&=&,))*%,)))-%&=')$,))'%*)))%@#'-@;)>;'))'')>))))'+###########@     ",
"    ;====&=&=&=')'+%'))-+#&=)$-'>)*+,))+@#,>+@;)))-*)))-+;''-+############@%    ",
"   ,=;====&=&&;)),@=,'*%&&%')>)--)%,')),;''%@#&))>+@;,*+@#@%+@############@%    ",
"   =;==&=&=&&&,))*&#&%%#&%'))),+'))'%,)))'%+#@%*-*;;;>,,,,,,,;;%#########@#+    ",
"   =====&=&=&=,))*&&&&&&&''-))+&')'%+&,'>*%;;'''')'',,---;-;*;;=@#########@@    ",
"   &=&=&=&&&&%'))%&#&##&')%+,%@#;-+@&%;>'')''>-*%+%+@+@%%@@@#@#@#####@###@#+    ",
"   =&=&=&&&&&&,));@&#&&')*+&#@###*-''))),-*%+@@#@##=;,')*;=################@    ",
"   *&&&&&&&#&#,))'=%=;))*+###%;,'))''-*+@@@@######,,''*$>);%=@#########@#@#+    ",
"    %=&&&&&&&&;))))')))*+&=,')))',*%+@###########&%@-,+=,)*'-;;#########@#@*    ",
"    &#&#&#&#&#&,)))))-$$;,)))'>*%+@################@,>,%%'>)-',@###@#@#@#@@-    ",
"     ##&#&#&###&=;**%->))))'*%+###################=')'*%;)))')-@########@@%     ",
"     %###########@%*')))'-%+@#####################&*'$@@,)'')'-@###@###@@+'     ",
"      ###########,')))'-+@@########################=,%#%''*)-'*@####@#@#@,      ",
"       @#######*')))>$+@#############@#@#@###@#####;,+#%)$*,+%@@#@#@#@@+;       ",
"        %#####%)))>*+@###########%@%++++.+.++++%@#@;;@#;,+%%@#@#@#@#@@+;        ",
"         %@@##;)'*@@###########@@.+.............++@@#@#@@@#@#@#@#@#@@@,         ",
"           @@#=,+@###########%++...................++%######@###@#@@%'          ",
"            *@@@@@###@###@##@.....$$..........$$......@@#@#@#@@@@+%-            ",
"              %@@##########%.....$))$.$).....-))$.....+%@#@#@@@@%,              ",
"                *@@@###@#@@......>>$>.''.....$-$>.......@@@@@+*-                ",
"                   =@@@##%+......)$.>$$'.......>>......++@@%*                   ",
"                      *@@+.......>$.>..>$.....>)$.......$                       ",
"                          .......>>>'..'......>)$.......$                       ",
"                          ........))>.$>$......->.......$                       ",
"                          $........>>..>.....$.$>.......                        ",
"                           .......$'$.$'$....>$$>.......                        ",
"                            .....$)'..>)>.$>.>))$......                         ",
"                             ....$>...$$$.$$..>$......                          ",
"                              ......................$                           ",
"                                $.................$                             ",
"                                   $...........$                                ",
"                                       $-$>$                                    ",
"                                                                                ",
"                                                                                ",
"                                                                                ",
"                                                                                ",
"                                                                                "};
