/* XPM */
static char * CNBC Europe_xpm[] = {
"80 80 13 1",
" 	c None",
".	c #000000",
"+	c #3F3E3E",
"@	c #D61039",
"#	c #534FAE",
"$	c #0781DD",
"%	c #6E6C6D",
"&	c #0AB63C",
"*	c #F76217",
"=	c #9C969E",
"-	c #73C3C6",
";	c #FBC00B",
">	c #F5BD8A",
"                                                                                ",
"                                                                                ",
"                                                                                ",
"                                                                                ",
"                              >=@*=           ===#                              ",
"                            >@@@@@@@=       =#######                            ",
"                           =@@@@@@@@@*     =#########=                          ",
"                          >@@@@@@@@@@@=   =###########                          ",
"                          @@@@@@@@@@@@@>  ############%                         ",
"                          @@@@@@@@@@@@@=  #############                         ",
"                          @@@@@@@@@@@@@* =#############=                        ",
"                         =@@@@@@@@@@@@@@ =#############=                        ",
"                         >@@@@@@@@@@@@@*    ###########=                        ",
"                  >>>>    @@@@@@@@@@@@@=   =###########     ---                 ",
"                >*****>   @@@@@@@@@@@@@=  =############   -$$$$$-               ",
"              >*********> =@@@@@@@@@@@@>  ############=  $$$$$$$$$-             ",
"             >***********> @@@@@@@@@@@@   ############  $$$$$$$$$$$-            ",
"             >***********> =@@@@@@@@@@@   ###########= -$$$$$$$$$$$-            ",
"            >*************>>@@@@@@@@@@@   =##########  $$$$$$$$$$$$$            ",
"            >*************> *@@@@@@@@@*   =########## -$$$$$$$$$$$$$-           ",
"            >**************  @@@@@@@@@*   =#########  $$$$$$$$$$$$$$-           ",
"            >**************> @@@@@@@@@=    ######### -$$$$$$$$$$$$$$-           ",
"            >***************  @@@@@@@@>    ########  $$$$$$$$$$$$$$$-           ",
"             ***************>>@@@@@@@@     ######## -$$$$$$$$$$$$$$$            ",
"             >*************** =@@@@@@@     =######= $$$$$$$$$$$$$$$-            ",
"              >**************> @@@@@@@     =###### -$$$$$$$$$$$$$$-             ",
"               >************** *@@@@@*     =###### -$$$$$$$$$$$$$-              ",
"                 >************> @@@@@=      #####  $$$$$$$$$$$$$                ",
"             >>  >>***********> *@@@@=      ##### -$$$$$$$$$$$-   --            ",
"          ;;;;;;;  >*********** =@@@@>      ####= $$$$$$$$$$$-  &&&&&&-         ",
"         ;;;;;;;;;;  >*********> @@@@       #### -$$$$$$$$$-  -&&&&&&&&&        ",
"        ;;;;;;;;;;;;  >********* =@@@>      =### -$$$$$$$$-  &&&&&&&&&&&-       ",
"        ;;;;;;;;;;;;;;  ********> @@@       =## -$$$$$$$-  -&&&&&&&&&&&&&-      ",
"       ;;;;;;;;;;;;;;;;  >******* *@*       =## -$$$$$$-  -&&&&&&&&&&&&&&&      ",
"       ;;;;;;;;;;;;;;;;;>  ****** >@=       =#- $$$$$$- -&&&&&&&&&&&&&&&&&      ",
"      >;;;;;;;;;;;;;;;;;;;  >****>>@=        # -$$$$-  -&&&&&&&&&&&&&&&&&&      ",
"       ;;;;;;;;;;;;;;;;;;;;> >**** ==        = $$$$-  &&&&&&&&&&&&&&&&&&&&-     ",
"       ;;;;;;;;;;;;;;;;;;;;;>  >**>           -$$$  -&&&&&&&&&&&&&&&&&&&&&      ",
"       >;;;;;;;;;;;;;;;;;;;;;;> >**>          -$-  &&&&&&&&&&&&&&&&&&&&&&&      ",
"        ;;;;;;;;;;;;;;;;;;;;;;;> >>           $  -&&&&&&&&&&&&&&&&&&&&&&&-      ",
"        >;;;;;;;;;;;;;;;;;;;;;;;;               -&&&&&&&&&&&&&&&&&&&&&&&-       ",
"         >;;;;;;;;;;;;;;;;;;;;;;;;;           -&&&&&&&&&&&&&&&&&&&&&&&&-        ",
"           ;>;>;;;;>;;;;>;;;;>;;;>;>         -&&&&&&&&&&&&&&&&&&&&&&&&-         ",
"                                                                                ",
"                                                                                ",
"                                                                                ",
"           %%+%+%%=     =%%%%%=      %%%%  %%%%%%%%%%=         =%+%++%==        ",
"        =+.........+%   +......%    =....  ............+=    %+.........+%      ",
"       %.....++++....+  +.......=   =.... =....+%%%+....+   +.....+++.....%     ",
"      =.....%    +....% +..+.....   =...+  ...+=    +....= %....+=    +....%    ",
"      +..+.+      =%%%= +.....+..+  =....  ....%===%+...+  .....%      %=%%     ",
"     =.....             +...+%....% =...+ =..+.........+  %..+.+                ",
"     =.....             +...% +....= ....  ..........+.+  +....+                ",
"     =..+.+             +...+ =..+.+%...+ =...+%===%+...+ %....+                ",
"      +....%      %=%%= +...+  %.........  ....=    %....% .....=      %=%%=    ",
"      %.....=    %....% +...+   +....+..+ =....=    +....% +....+     +....=    ",
"       +..+..%%=+....+  +...+    +.+.....  ..+.......+...=  +.....%=%+....%     ",
"        %...........%   +...+    =....... =.............%    %..........+%      ",
"          =++.+.++=     =+%%=     =%%%%%%  %%%%%%%%%%%=        %++.+.+%=        ",
"                                                                                ",
"       ====== =   =      ==   =======       =%%%=      ======     = = ====      ",
"      %........% +.%     +.= %.......+%   %.......%   +.......+  %........%     ",
"      %.+% ====  +.+     ..= +.+= ==+..= %..+   %..+  +.+= ==+.+ =..======      ",
"      %..        +.%     ..= %.+    =..= ..+     %..  +.%    %.. =.+            ",
"      %..%%%%%%  +.%     ..= +.+    %.+ =..=      ..% +.%    +.+ =..%%%%%%      ",
"      %...+.+.+= +.%     ..= %..+.+...% =..       ..% +..+++...% %....+..+=     ",
"      %.+=       +.%     ..= +..%%%++.+ =..=      ..= +.+++++%=  %.+=           ",
"      %..        +.+    =..= %.+    %..  ..+     +..  +.%        %..            ",
"      %..+%%+%+= =..+==%..+  +.+    =..  =..+==%+..%  +.%        %..+%%+%+=     ",
"      %.+......%  %+....++   %.+     ..=  =+.....+%   +.%        =.+......%     ",
"                     ===                     ===                                ",
"                              =  =  == =%            %=                         ",
"       =   = =  =  ===  =   ==% =+%%+%%%%   = == %% =%% ==  =   %== %  = =      ",
"      =+% %+%+%+=%%%%%=++  %%+%  ++%+%+%   =++%%+%= ===+%%+++   +%%+%%++%+=     ",
"      =+= =+%%%= =%=%%=%%  %%%=  =%%%%%%%  =+%%=%%% =+%=%==+%  =%=%%=%%%=+%     ",
"                                    =   =        =                              ",
"                                                                                ",
"                                                                                ",
"                                                                                ",
"                                                                                "};
