/* XPM */
static char * CNN+_xpm[] = {
"80 80 16 1",
" 	c None",
".	c #040204",
"+	c #2F2833",
"@	c #C90E12",
"#	c #575563",
"$	c #C22A2F",
"%	c #EA2729",
"&	c #BC565A",
"*	c #79778A",
"=	c #DB6268",
"-	c #D58586",
";	c #A4A2B0",
">	c #E3A1A3",
",	c #B8B6CB",
"'	c #F3C4C5",
")	c #FEF9F9",
"                                                                                ",
"                                                                                ",
"                                                                                ",
"                                                                                ",
"                                                                                ",
"                                                                                ",
"                                                                                ",
"                                                                                ",
"                                                                                ",
"                                                                                ",
"                                                                                ",
"                                                                                ",
"                                                                                ",
"                                                                                ",
"                                                                                ",
"                                                                                ",
"                                                                                ",
"                                                                                ",
"                                                                                ",
"                                                                                ",
"                                                                                ",
"                                                                                ",
"                                                                                ",
"                                                                                ",
"                                                                                ",
"   $$%$%$$$%$$$%$$$%$$$%$$$%$$$%$$$%$$$%$$$%$$$%$%$+.+.+.+.+.+.+.+.+.+.+.+.+.   ",
"   @%%%%%%%@%%%%%%%%%%%%%%%%%%%%%%%%%%%@%%%%%%%%%%$..........................   ",
"   %%%%%%%%%%=%%%%%%%%%%%=%%%%%%%%%%%%%%%%%%%&%%%=$+.........................   ",
"   @%%%$%%%%%@@@@@@@%@@@@@%%%$%@@@@@%%%%%@@@@@%%%%$..........................   ",
"   @%%%%%%%@@$======@@=-=@@%%%@@===%@%%%%=%===@%%%$+..........#;**#+.........   ",
"   @%%%%%@@$>')))))=@>)))=@@%@@=)))>@@%@-)'>)'$%%%$...........,))))#.........   ",
"   @%%%%@@-)))>'>'>==)'>))-@%@=))'))>$%@-)>>)'$%%=$+.........+,))))#.........   ",
"   @%%%$@-))-&-----&')>$>))$@@-),&-))=@@-)>-)'$%%%$...........,))))#.........   ",
"   @%%%@&))-&')))))>>)>'&')'@@-)->=')'@@-)->)'@%%%$+.........+,))))#.........   ",
"   @%%%@')-$)))>>>'=>'-,'&))=@-);>'&')-+-)>-)'$%%%$...........,))))+.........   ",
"   @%=@=))*')'$@@@@@>)-')-=)'$=)->)>&)'$&)>>)'@%%=$+...#######,))));######...   ",
"   @%$@>)->)'+@@%@@@>'-'),&')&=)>-))==)-&'>-)>$%%%$....,),)))')))))))')));...   ",
"   @%%@')->)=@%%%%@@>)='))-&)'>)->))>&')>)>>)'@%%%$+...;))))))))))))))))),...   ",
"   @%%$>)-')=@%%%%%@>)->)))&-)));>)))--)))>-)'$%%%$...+,)))))))))))))))));...   ",
"   @%&@');>)&@%%%=%@>)-')))'&)))->))))&>))>>)'$%%=$+...)))))))))))))))))),...   ",
"   @%$@-)*-),+@@%@%@>'-')&')-&));;)->)>$))>-)>$%%%$....*,;,,;;))))),;,,;,*...   ",
"   @%%@=)'&))'$@@@@@>)-))&&))&-);>)-$))--)->)'@%%%$+.....+.+.+,))))#.+.+.+...   ",
"   @%%%@')-&)))>----)'->)=@')>&'>>)-@-)'&''-)'$%%%$...........,))))#.........   ",
"   @%%%@=))-&'))))))))-')-@&))->>>)>@$')>>->)'@%%=$+.........+,))))#.........   ",
"   @%%%@@-))>#&->-;->&*')=@@-))&&>)-@@=))=@-)'$%%%$...........,))))#.........   ",
"   @%%%%@@-)))'>>>>'-;')'$@%@')'>))-@%@>)'>))'@%%%$+.........+,))))#.........   ",
"   @%%%%%@@&')))))))))))-@%%@%))))'+@%@@'))))$@%%%$...........,))))#.........   ",
"   @%%%%%%%@@&&->>>>>>-&@%%%%@$>'>$%%%%%$-''%@%%%=$+.........+*;*,*+.........   ",
"   @%$%%%%%%%@@@@@@@@@@@%%%%%%@@%@@%%$%%@+@@@%%%%%$..........................   ",
"   @%%%%%%%%%%%%@%@%%%%%%%%%%%%%%%%%%%%%%%@%%%%%%%$+.........................   ",
"   @%%%%%%%$%%%%%%%%%%%%%%%%%%%%%%%%%%%%%%%%%%%%%%$..........................   ",
"   @@%$%@%$%@%@%@%$$@%$%@%$%@%@%@%$%@%@$@%@%@%@%@%$+.........................   ",
"                                                                                ",
"                                                                                ",
"                                                                                ",
"                                                                                ",
"                                                                                ",
"                                                                                ",
"                                                                                ",
"                                                                                ",
"                                                                                ",
"                                                                                ",
"                                                                                ",
"                                                                                ",
"                                                                                ",
"                                                                                ",
"                                                                                ",
"                                                                                ",
"                                                                                ",
"                                                                                ",
"                                                                                ",
"                                                                                ",
"                                                                                ",
"                                                                                ",
"                                                                                ",
"                                                                                ",
"                                                                                ",
"                                                                                ",
"                                                                                ",
"                                                                                "};
