/* XPM */
static char * CNN_xpm[] = {
"80 80 7 1",
" 	c None",
".	c #434444",
"+	c #DD022F",
"@	c #D7274F",
"#	c #6F6E6E",
"$	c #9E9E9E",
"%	c #CACACA",
"                                                                                ",
"                                                                                ",
"                                                                                ",
"                                                                                ",
"                                                                                ",
"                                                                                ",
"                                                                                ",
"                                                                                ",
"                                                                                ",
"                                                                                ",
"                                                                                ",
"                                                                                ",
"                                                                                ",
"                                                                                ",
"                                                                                ",
"                                                                                ",
"                                                                                ",
"                                                                                ",
"                                                                                ",
"                                                                                ",
"               @+++++++++    ++++++@           ++++++         @+++ @+++         ",
"            @++++++++++++   ++++++++@         ++++++++         +++  +++         ",
"           ++++++++++++++  @+++++++++        @+++++++++        +++  +++         ",
"         @++++++         % ++++@ @++++       ++++  @++++       +++  ++@         ",
"        @++++@             +++@   @+++@      +++    ++++       +++  +++         ",
"        ++++   @@++++++++  +++  +  ++++      +++  +  ++++      +++ @+++         ",
"       ++++   +++++++++++  +++  ++  ++++     +++  +@ @+++@     ++@ @++@         ",
"      @+++@  ++++++++++++  +++  ++@ @+++     +++  ++  ++++     ++@ @+++         ",
"      +++@  +++++@         +++  +++  ++++    +++  +++  +++@    ++@ @+++         ",
"     @+++  ++++@           +++  +++@  +++@   +++  +++@ @+++    +++ @++@         ",
"     +++@  +++@            +++  ++++  @+++   +++  ++++  ++++   ++@ @+++         ",
"     +++  ++++             +++  +++++  +++@  +++  ++++@ @+++   +++ @+++         ",
"     +++  +++@             +++  +++++@ @+++  +++  +++++  ++++ @++@ @++@         ",
"     +++  +++              +++  ++++++  +++@@+++  ++++++  ++++@++@ @+++         ",
"     +++  +++              +++  +++++++  +++++++  ++++++@ @+++++++ @+++         ",
"     +++  +++              +++  +++++++  +++++++  +++++++  ++++++@ @++@         ",
"     +++  +++              +++  ++++++++  ++++++  +++++++@  ++++++ @+++         ",
"     +++  +++              +++  +++@@+++@ @+++++  +++@++++  @++++@ @+++         ",
"     +++  ++++             +++  +++  ++++  +++++  +++  ++++  ++++@ @++@         ",
"     +++@ @+++@            +++  +++   ++++  ++++  +++  @+++@ @+++@ @+++         ",
"     @+++  ++++@           +++  +++   ++++  @+++  +++   ++++  ++++ @++@         ",
"      +++@  ++++@          +++  +++    ++++  +++  +++    +++@  ++@ @+++         ",
"      @+++@ @+++++++@+@+@+++++  +++    @++++  ++  +++    ++++@ @++ @++@         ",
"       ++++  @++++++++++++++++  +++     ++++  ++  +++     ++++  +@ @+++         ",
"        ++++   @++++++++++++++  +++      ++++  +  +++     @+++@ @+ @++@         ",
"        @++++@    @@@@@@@@@@@@  +++      ++++@    +++      ++++    @+++         ",
"         @+++++@               ++++       ++++   ++++       ++++   +++@         ",
"           ++++++++++++++++++++++++       @++++++++++       ++++++++++@         ",
"            @+++++++++++++++++++++         +++++++++@        +++++++++  $$      ",
"              @@+++++++++++++++++           @++++++@          +++++++  $..%     ",
"                  @ @@@@ @ @@@@               @+++             @+++@   $..%     ",
"                                                 %                      %%      ",
"                                                                                ",
"                                                                                ",
"                                                                                ",
"      %$%%% %%$  %% % %$ %$ %  %$  %%$  % % $%%%% %%$  %  %$  % %$ %$%%$        ",
"      %..##$#.#% #####..$..##% ..#$###% ###$.$##.#..#  .$ .# ##%..$#.$#.#       ",
"       #$$..$.$  #...#$$#####% .%#$%.%  #..$.$$...#.   .% .$ ..%#%.## ###       ",
"       #$$..$.#  #..###%#..%#% #%#% %.% #..$.$$...%$.  .% .$%..$# ##.%..$       ",
"       #$$#$#.$  $...$###..$.$%.$.  %.$ ##.##% .#.%%.% .$%.%$..#####$ #.#       ",
"       #%$$%$#.% %$$$ #.%$%#$.$#.$  $.% $%#%##%$$# ##  #.$###$$$#.%$.#$$#       ",
"                                                                                ",
"                                                                                ",
"                                                                                ",
"                                                                                ",
"                                                                                ",
"                                                                                ",
"                                                                                ",
"                                                                                ",
"                                                                                ",
"                                                                                ",
"                                                                                ",
"                                                                                ",
"                                                                                ",
"                                                                                ",
"                                                                                ",
"                                                                                ",
"                                                                                ",
"                                                                                ",
"                                                                                "};
