/* XPM */
static char * Contact FM_xpm[] = {
"80 80 16 1",
" 	c None",
".	c #2E3A67",
"+	c #284588",
"@	c #1558A1",
"#	c #0272BB",
"$	c #4066A3",
"%	c #0489CB",
"&	c #5589BD",
"*	c #F56831",
"=	c #74AFD5",
"-	c #FA925C",
";	c #A3C0DA",
">	c #FAB28C",
",	c #F1C7B0",
"'	c #CDDEEB",
")	c #FBFCFC",
"                                                                                ",
"                                                                                ",
"                                                                                ",
"                                                                                ",
"                                                                                ",
"                                                                                ",
"                                                                                ",
"                                                                                ",
"                                                                                ",
"                                                                                ",
"                                                                                ",
"                                                                                ",
"                                                                                ",
"                                                                                ",
"                                                                                ",
"                                                                                ",
"                                                                                ",
"                                                                                ",
"                                                                                ",
"                                                                                ",
"                                                                                ",
"                                                                                ",
"                                                                                ",
"                                                                                ",
"                                                                                ",
"                                                                                ",
"                                                                                ",
"                                                                                ",
"                                                                                ",
"                                                                                ",
"                                                                                ",
"       &&&&&&&&&&&&&&&&&&&&&&&&&&&&&&&&&&&&&&&&&&&&&&&&&&&&&&&&&&&&&&&&&&&&     ",
"     +++@@##$@@##########################################@###@#@#@#@#@#@#@@@@   ",
"    +@@$;,>>>,=#%%%%%%%%%%%%%%%%%%%%%%%%%%%%%%%%%%%%%%%%%%%%%%#%#%#%#%######@@  ",
"   +++$;>->---,;#%%%%%%%%%%%%%%%%%%%%%%%%%%%%%%%%%%%%%%#%%%#%#%#%#%###&%%##@#@& ",
"   ++$,>-,,,>>->;%%%%%%%%%%%%%%%#%%%%%%%%%%%%&'))=#%%%#%#%#%#%#######;))&###@#$ ",
"  &+@=>->,)>>--*,=#%%%=====%%%=====%%%======%%)))=;%#%=====%##======&;));==@#@$ ",
"  +@$>*>,)))>>--*'%%=)))''';=)))')))&)))')));;))'';&#'''')))%;))''''=)));'&#@@$ ",
"  ++&>->,,))),-**>=#)))$###%))'##')';));#%))';))=@#@&;';'')'=));#@#@=));@@@@@+  ",
"  +@&>---)))))>**>==));@@#@=))=@#))';))=@=))='))##@=))'==))';))=+#@@;))=+@@$@@  ",
" $+@&-***,)))-***-&&))'&=&&;));&'))=)))@@;))='))=&&;))'%;))&;));&&&#'))=&&$+@+  ",
" $@#%>*-*,))-****,%$;'')')=&''')''&&');@#'''@;''');&;'''''=@&'')'''&&'')')&@+$  ",
" +@@#;***>,*****-;#+@@$@$@@+@@$@$@@@$@@+@@$@$@$$&$$+@@&$$@$+$@$@$$$@@@$$&$@++   ",
" $#$@=>**-***-**,=+$+$+@+@+$+$+@+$+$+$+$+@+;;;;;;>;;&;;;;';'&>;&=>;,=;;;;&+$+   ",
" +##$@=>*******,&++++++++++++++++++++++++++$$.$&$.&&$+$$$$$$$$$+$.$$$.$$$++++   ",
" &@$#%#=,>---,;=@@++++++++++++++++++++++++++++++++++++++++++++++++++++++++++    ",
"  $@##%##&===%#++++.+.+.+.+.+.+.+.+.+.+.+.+.+.+.+.+.+.+.+.+.+.+.+.+.+.+.+.+     ",
"   &@$@$@@@@+@++.................................................+...+...       ",
"                                                                                ",
"                                                                                ",
"                                                                                ",
"                                                                                ",
"                                                                                ",
"                                                                                ",
"                                                                                ",
"                                                                                ",
"                                                                                ",
"                                                                                ",
"                                                                                ",
"                                                                                ",
"                                                                                ",
"                                                                                ",
"                                                                                ",
"                                                                                ",
"                                                                                ",
"                                                                                ",
"                                                                                ",
"                                                                                ",
"                                                                                ",
"                                                                                ",
"                                                                                ",
"                                                                                ",
"                                                                                ",
"                                                                                ",
"                                                                                ",
"                                                                                ",
"                                                                                ",
"                                                                                ",
"                                                                                ",
"                                                                                "};
