/* XPM */
static char * COSMOPOLITAN_xpm[] = {
"80 80 16 1",
" 	c None",
".	c #A7013C",
"+	c #B7054B",
"@	c #A71446",
"#	c #B62357",
"$	c #C92561",
"%	c #BE3768",
"&	c #BB4872",
"*	c #D05380",
"=	c #BD798D",
"-	c #D97095",
";	c #DD8CA9",
">	c #EAABC2",
",	c #F0C6D4",
"'	c #FAE0EA",
")	c #FEFBFC",
"                                                                                ",
"                                                                                ",
"                                                                                ",
"                                                                                ",
"                                                                                ",
"                                                                                ",
"                                                                                ",
"                                                                                ",
"                                                                                ",
"                                                                                ",
"                                                                                ",
"                                                                                ",
"                                                                                ",
"                                                                                ",
"                                                                                ",
"                                                                                ",
"                                                                                ",
"                                                                                ",
"                                                                                ",
"                                                                                ",
"                                                                                ",
"                                                                                ",
"                                                                                ",
"                                                                                ",
"                                                                                ",
"                                                                                ",
"                                                                                ",
"                                                                                ",
"                                                                                ",
"                                                                                ",
"  )))''')))'''))))',)))')))')')))''))))')))))''')))')))')')')')')))')))')))'))  ",
"  )),&#%>)'=#%;))>##*';&&,);%&>)*%#;);&&%;'),=#%;)=&>))'&=;&%*&&;;&&;)=&>);&,)  ",
"  )'&.#.%,-.+.@>,+...**..=)%..--....>&....&,*.+.#;%.;))>.+*.....*$..-'%.-)=.>)  ",
"  )>.%,&.-#@;-.**.->@$$++-,%++*$+;*+**.*;#+*@#;*.*$.;)),++;>*+$>>$++*'%+%'=@>)  ",
"  )=.*)&.++#';.+#.>)&#$++&>+++%+#'>.$$.-)*+++$);.$$.;)),+.,)-.*),@$+&,&+@>-.>)  ",
"  )=.-);%%+%'>+$$+%'''*++&;+++++#'>++$.-)*+$+%)>.$++;)),+@,)-.*)>#*%%,%++--@>)  ",
"  )%.=)')=.#'>++-+.%')*+$+*+$+++$'>++++*>++++%);.+++;)),@.,)-.*';@-%#>%.+$*+>)  ",
"  '%.;)));.%'>.$>-.+%'*%*++**+++#)>#++++..#*+%)>.+++;)),++,)-.*)-@;=+>%#$++@>)  ",
"  )%.=)''-.#'>++,'*..**@;++$*.$+#',+++++%&>*.%);+++.;)),++,)-.*'=.>*.-%#-+++>)  ",
"  '&.;);%$+%'>.$,)'*.$$%;#.--+++#)>@+$+-'));.%)>.$++;)),++,)-.*)&+%$+-%&;$++>)  ",
"  )&.*)*.#+#';.+&&''#++$,@.;-.$+#'>.$+.=)));.#';.+#.;)),@.,)-.*,%...+*%@,&.+>)  ",
"  );.*,*@-+#>;.$#.>'$++%,&.>-.*$+>-+$*.-)))>+#>-.*$+-'',@+,)-.*'#%;-+*$&';.@>)  ",
"  )>@+%.%,&.#+.--.%%.$%#'&@,-.-*.##.-&.*))),%.$+.-%.@@&*#.,)-.*>@&)>++$@',@.>)  ",
"  ));#.#>),%@@*)'=@@%,-&';&)-&;,%@@*'=@;))))>%+#='&##&#-%&,);#->@;),%&#&')*&>)  ",
"  ))),>,)))',>)))',>')',)'')',')'>,'),,'))))),>,))',',''',))','''')'',''))',))  ",
"  ))))))))))))))))))))))))))))))))))))))))))))))))))))))))))))))))))))))))))))  ",
"  )),')')))',')))))''))))))',')))))',')))))''))))))>')))))),))))))'>))))))'>))  ",
"  ));'))))))=')))))'=))))))'=))))))'=)))))),>))))));,)))))',')))))>='))))),=')  ",
"  ))'')))))',')))))',')))))',')))))''')))))'')))))),'))))))'))))))',))))))',))  ",
"  ))))))))))))))))))))))))))))))))))))))))))))))))))))))))))))))))))))))))))))  ",
"                                                                                ",
"                                                                                ",
"                                                                                ",
"                                                                                ",
"                                                                                ",
"                                                                                ",
"                                                                                ",
"                                                                                ",
"                                                                                ",
"                                                                                ",
"                                                                                ",
"                                                                                ",
"                                                                                ",
"                                                                                ",
"                                                                                ",
"                                                                                ",
"                                                                                ",
"                                                                                ",
"                                                                                ",
"                                                                                ",
"                                                                                ",
"                                                                                ",
"                                                                                ",
"                                                                                ",
"                                                                                ",
"                                                                                ",
"                                                                                ",
"                                                                                ",
"                                                                                ",
"                                                                                "};
