/* XPM */
static char * DELUXE MUSIC_xpm[] = {
"80 80 13 1",
" 	c #000000",
".	c #6B0000",
"+	c #7B0808",
"@	c #841010",
"#	c #8C1818",
"$	c #942929",
"%	c #A53131",
"&	c #B54242",
"*	c #CE5252",
"=	c #E76B6B",
"-	c #FF8484",
";	c #FDFDFD",
">	c #FFFFFF",
">>>>>>>>>>>>>>>>>>>>>>>>>>>>>>>>>>>>>>>>>>>>>>>>>>>>>>>>>>>>>>>>>>>>>>>>>>>>>>>>",
">>>>>>>>>>>>>>>>>>>>>>>>>>>>>>>>>>>>>>>>>>>>>>>>>>>>>>>>>>>>>>>>>>>>>>>>>>>>>>>>",
">>+@###############################@@@@@@@@@@@@@@++++++++++++++++++++++++.....>>",
">>@$%%%%%%%%%%%%%%%%%%%%%%%%%%%%%%$$$$$$$$$$$$###########@@@@@@@@@@@@@@@@@+++.>>",
">>#%&***********************&&&&&&&&&%%%%%%%%$$$$$$$$$$$$$#############@@@@@+.>>",
">>#%**======================********&&&&&&&%%%%%%%%%%$$$$$$$$$$$$$$#######@@+.>>",
">>#%*=-----------------=========*******&&&&&&%%%%%%%%%%%%%$$$$$$$$$$$$####@@+.>>",
">>#%*=-----------------========*******&&&&&&&&%%%%%%%%%%%$$$$$$$$$$$$#####@++.>>",
">>#%*=--------------========*******&&&&&&&&%%%%%%%%%%%$$$$$$$$$$$$#######@@+..>>",
">>#%*=-----------========*******&&&&&&&&%%%%%%%%%%%$$$$$$$$$$$$########@@@++..>>",
">>#%*=---------========*******&&&&&&&&%%%%%%%%%%%$$$$$$$$$$$$########@@@@@++..>>",
">>#%*=------========*******&&&&&&&&%%%%%%%%%%%$$$$$$$$$$$$########@@@@@@+++...>>",
">>#%*==--========*******&&&&&&&&%%%%%%%%%%%$$$$$$$$$$$$########@@@@@@++++++...>>",
">>#%&==========*******&&&&&&&&%%%%%%%%%%%$$$$$$$$$$$$########@@@@@@+++++++....>>",
">>#%&*======*******&&&&&&&&%%%%%%%%%%%$$$$$$$$$$$$########@@@@@@++++++++......>>",
">>@$&*===*******&&&&&&&&%%%%%%%%%%%$$$$$$$$$$$$########@@@@@@++++++++.........>>",
">>@$&*********&&&&&&&&%%%%%%%%%%%$$$$$$$$$$$$########@@@@@@++++++++...........>>",
">>@$%&*****&&&&&&&&%%%%%%%%%%%$$$$$$$$$$$$########@@@@@@++++++++..............>>",
">>@$%&&*&&&&&&&&%%%%%%%%%%%$$$$$$$$$$$$########@@@@@@++++++++.................>>",
">>@#$%&&&&&&&%%%%%%%%%%%$$$$$$$$$$$$########@@@@@@++++++++....................>>",
">>+#$%&&&&&%%%%%%%%%%%$$$$$$$$$$$$########@@@@@@++++++++......................>>",
">>+#$%%&%%%%%%%%%%%$$$$$$$$$$$$########@@@@@@++++++++.........................>>",
">>+#$%%%%%%%%%%%$$$$$$$$$$$$########@@@@@@++++++++............................>>",
">>+@$$%%%%%%%%$$$$$$$$$$$$########@@@@@@++++++++..............................>>",
">>+@#$%%%%%$$$$$$$$$$$$########@@@@@@++++++++.................................>>",
">>+@#$$%$$$$$$$$$$$$########@@@@@@++++++++....................................>>",
">>+@#$$$$$$$$$$$$$########@@@@@@++++++++......................................>>",
">>+@#$$$$$$$$$$########@@@@@@++++++++.........................................>>",
">>+@##$$$$$$########@@@@@@++++++++............................................>>",
">>.+@#$$$########@@@@@@++++++++...............................................>>",
">>.+@##########@@@@@@++++++++.................................................>>",
">>.+@#######@@@@@@++++++++....................................................>>",
">>.+@@###@@@@@@++++++++.......................................................>>",
">>.++@@@@@@@@++++++++.........................................................>>",
">>.++@@@@@++++++++............................................................>>",
">>..+++++++++++...............................................................>>",
">>..+++++++++.................................................................>>",
">>...+++++....................................................................>>",
">>............................................................................>>",
">>............................................................................>>",
">>............................................................................>>",
">>............................................................................>>",
">>............................................................................>>",
">>............................................................................>>",
">>............................................................................>>",
">>............................................................................>>",
">>............................................................................>>",
">>............................................................................>>",
">>............................................................................>>",
">>............................................................................>>",
">>............................................................................>>",
">>............................................................................>>",
">>............................................................................>>",
">>............................................................................>>",
">>............................................................................>>",
">>............................................................................>>",
">>............................................................................>>",
">>.....;;;;;;;;.....;;;;;;;;;..;;;.......;;;....;;;..;;;....;;;..;;;;;;;;;;...>>",
">>.....;;;;;;;;;;...;;;;;;;;;..;;;.......;;;....;;;..;;;;..;;;;..;;;;;;;;;;...>>",
">>.....;;;....;;;;..;;;........;;;.......;;;....;;;...;;;;;;;;...;;;..........>>",
">>.....;;;.....;;;..;;;;;;;;;..;;;.......;;;....;;;....;;;;;;....;;;;;;;;;....>>",
">>.....;;;.....;;;..;;;;;;;;;..;;;.......;;;....;;;.....;;;;.....;;;;;;;;;....>>",
">>.....;;;.....;;;..;;;........;;;.......;;;....;;;....;;;;;;....;;;..........>>",
">>.....;;;....;;;;..;;;........;;;.......;;;;..;;;;...;;;;;;;;...;;;..........>>",
">>.....;;;;;;;;;;...;;;;;;;;;..;;;;;;;;;..;;;;;;;;...;;;;..;;;;..;;;;;;;;;;...>>",
">>.....;;;;;;;;.....;;;;;;;;;..;;;;;;;;;...;;;;;;....;;;....;;;..;;;;;;;;;;...>>",
">>............................................................................>>",
">>............................................................................>>",
">>............................................................................>>",
">>>>>>>>>>>>>>>>>>>>>>>>>>>>>>>>>>>>>>>>>>>>>>>>>>>>>>>>>>>>>>>>>>>>>>>>>>>>>>>>",
">>>>>>>>>>>>>>>>>>>>>>>>>>>>>>>>>>>>>>>>>>>>>>>>>>>>>>>>>>>>>>>>>>>>>>>>>>>>>>>>",
">>>>>>>   >>>>   >>>>>>   >>>   >>>>>>>>      >>>>>>>>>   >>>>>>>>>       >>>>>>",
">>>>>>>   >>>>   >>>>>>   >>>   >>>>>>>        >>>>>>>>   >>>>>>>>         >>>>>",
">>>>>>>    >>    >>>>>>   >>>   >>>>>>>   >>>>>>>>>>>>>   >>>>>>>>   >>>   >>>>>",
">>>>>>>          >>>>>>   >>>   >>>>>>>       >>>>>>>>>   >>>>>>>>   >>>>>>>>>>>",
">>>>>>>          >>>>>>   >>>   >>>>>>>>       >>>>>>>>   >>>>>>>>   >>>>>>>>>>>",
">>>>>>>   >  >   >>>>>>   >>>   >>>>>>>>>>>>   >>>>>>>>   >>>>>>>>   >>>   >>>>>",
">>>>>>>   >  >   >>>>>>         >>>>>>>        >>>>>>>>   >>>>>>>>         >>>>>",
">>>>>>>   >  >   >>>>>>>       >>>>>>>>>      >>>>>>>>>   >>>>>>>>>       >>>>>>",
">>>>>>>>>>>>>>>>>>>>>>>>>>>>>>>>>>>>>>>>>>>>>>>>>>>>>>>>>>>>>>>>>>>>>>>>>>>>>>>>"};
