/* XPM */
static char * DISCOVERY_xpm[] = {
"80 80 16 1",
" 	c None",
".	c #040404",
"+	c #283135",
"@	c #205579",
"#	c #515556",
"$	c #1C6BA1",
"%	c #767D82",
"&	c #5295BA",
"*	c #9A9D9F",
"=	c #8BBCD6",
"-	c #B4B5B6",
";	c #A3DDEF",
">	c #CDCED0",
",	c #E4E4E5",
"'	c #CFEFF8",
")	c #FDFDFD",
"                                                                                ",
"                                                                                ",
"                                                                                ",
"                                                                                ",
"                                                                                ",
"                                                                                ",
"                                                                                ",
"                                                                                ",
"                                                                                ",
"                                                                                ",
"                                                                                ",
"                                                                                ",
"                                                                                ",
"                                                                                ",
"                                                                                ",
"                                                                                ",
"                                                                                ",
"                                                                                ",
"                                                                                ",
"                                                                                ",
"                                                                                ",
"                                                                                ",
"                                                                                ",
"                                                                                ",
"                                                                                ",
"       ))))))))))))))))))))))))))))))))))))))))))))))))))))))))))))))))))       ",
"       )>%%%%%>))))))))))))))))))))))))))))))))))))))))))))))))))))))))))       ",
"       )*.....+,),,)))>>>)))))->,)))),->))),,)),,)))>>>))),)),,)),,,),,))       ",
"       )*..++..%-..-,+...#,)*+..+*)>#...#,>.+*-.+-,+...#)*..+.+*,+.%,+.%)       ",
"       )*..--..%-..>%..+..%)+..+.+,%.....*>..*-..-%..+..*-.....+>+.%>+.*)       ",
"       )*..--..%-..-#.#>+.%-..*%..-#.+>..#>..*-..*#.#>+.%*..-%..>+.#,..%)       ",
"       )*..--..%-..>#..-*%--..--..*#.#)+.#-..*-..-+.#)+.%-..>*.+-#.%,+.*)       ",
"       )*..*>..%-..>-...%,)*..*>##>+.+,+.+-..*-..%+..+..%*..>%..-+.#,..%)       ",
"       )*..--..%*..-)-+..#,-..%))),+.#,+.#-..**..*+....+%-..>>%->+.%>+.*)       ",
"       )*..*-..%-..->-*+..*-..*,--,+.+)+.+>..%*..-#.#>-%>*..-))))+.#>..%)       ",
"       )*..>>..%*..>+.#,..#-..--..*#.#,+.#,+.%%.+>+.#)+.%-..-))))%.#-+.-)       ",
"       )*..%*..%-..=%#-,*#%*..--..-+.+)+.+)#.++.#,+.#,+.%*..-))))*.+%..>)       ",
"       )*..+...-=..*>)=&=>%=%++#..>%.+#+.#)*....%)+..#..%-..-)))))+...+))       ",
"       )*.....#,%@>*&;*$&&%@%#+..#)-.....-),+...>)*.....,*..-)),),%...*))       ",
"       )>****-,)>;-;&=%&$%%%@#@#*)))>*%*>)))-**-)))-%%%>),**>))),#...+,))       ",
"       ))))))))''$&&;===&$&$@@%+>))))))))))))))))))))))))))))))),####-,,)       ",
"       ))''''',';&&&&=&=$$@@@%%#%',)''')''''''''''''''''''''''''''')'''))       ",
"       )-@$$$#$=;&&&=&&&&$*@@%*%@+#@@@$$$$$@$$$@$$$$$$$$$@$$$$$@$$$$$$$=)       ",
"       )=$$$$$$&&=;=;;&&&';**&&*+++@$==$@=@&&$@&&@@&&@&$$=@&$$&=&$&$@$@=)       ",
"       )=@$$$$$$=;=$=&$&=&&#%@*&#++@'&=%$;=;=@$;'@@='&;@&'==&$';&@'&@$$=)       ",
"       )=$$$$$$$&&$&&=&=%**%+#%*#++%'$$&#'='*@;''=@;=';$&>;)$%';&@;=$$@-)       ",
"       )=@$$$$$$$$&&&;'=,''%@@%$#.@+=;'$$=$&&$;$&;$&&&;@&&&;&$;=&@=;=$@=)       ",
"       )=$$$$$$=;&&&&=&>))>'%@@@+++@+%#@@$$$$$$$@$@$@$$$@$@$@$$$$$@$$$@=)       ",
"       )'*=====&=;&@&$&=>%=;&@@++#-*=*===*=======*=====================;)       ",
"       )))))))'=&;&===%&%%@&@@++.>)))))))))))))))))))))))))))))))))))))))       ",
"       ,))),)))'=&&&=&&&%$@+@++.#)),))))))),))))))))))))))),))))))),)))))       ",
"       )))))))))==*==-;)&@@@@%++>))))))))))))))))))))))))))))))))))))))))       ",
"       ))))))))),-;;;=-;=$&$@+.%)))))))))))))))))))))))))'))))))),)))))))       ",
"       ))))))))))'*&&&$%==$%+.%))))))))))))))))))))))))))))))))))))))))))       ",
"       )))))))))))'%#@#@@+++@-)))))))))))))))))))))))))))))))))))))))))))       ",
"       ))))))))))))),>**##%>'))))))))))))))))))))))))))))))))))))))))))))       ",
"       )))))))))))))))))),)))))))))))))))))))))))))))))))))))))))))))))))       ",
"                                                                                ",
"                                                                                ",
"                                                                                ",
"                                                                                ",
"                                                                                ",
"                                                                                ",
"                                                                                ",
"                                                                                ",
"                                                                                ",
"                                                                                ",
"                                                                                ",
"                                                                                ",
"                                                                                ",
"                                                                                ",
"                                                                                ",
"                                                                                ",
"                                                                                ",
"                                                                                ",
"                                                                                ",
"                                                                                ",
"                                                                                ",
"                                                                                ",
"                                                                                "};
