/* XPM */
static char * Disney Channel_xpm[] = {
"80 80 15 1",
" 	c None",
".	c #0E4394",
"+	c #1455A3",
"@	c #2759A8",
"#	c #84386A",
"$	c #1E60AC",
"%	c #1280C5",
"&	c #4B69A5",
"*	c #059BDC",
"=	c #906A88",
"-	c #5785B9",
";	c #7F9EC8",
">	c #9DB8D9",
",	c #C4D6E8",
"'	c #E7F2F9",
"                                                                                ",
"                                                                                ",
"                                                                                ",
"                                                                                ",
"                                                                                ",
"                                                                                ",
"                                                                                ",
"                                                                                ",
"                                                                                ",
"                                                                                ",
"                                                                                ",
"     ===;-=;=                                                                   ",
"  --%*********%--                                                               ",
"-*****************-=                                                            ",
"********************-#                                                          ",
"**********************=                                                         ",
"***********************-                                                        ",
"***%******%%************-                                                       ",
"*****%%$$+$$+$$$%********-                                                      ",
"***%%+$$@$$$$$@$$+%%******-                                                     ",
"*%$+@@$$$$$$$$$$$$+$%******=                                                    ",
"%$$$$$$$$$$$$$$$$$$$+$******                                                    ",
"+$$$$$$$$$$$$$$$$$$$$@$*****=                                                   ",
"$$$$$$$$$@$$$$$$$$$$$@$%*****                                                   ",
"$$$$$$$$@$$$$$$$$$$$$$@+%****=                                                  ",
"$$$$$@$$$$$$$$$$$$$$$$$$@%***-                                                  ",
"$$$@$$$$$$$$$$$$$$$$@$$$+%****                                                  ",
"$$$$$$$$$$$$$$$$$$$$$@$$$$%***                =-******%-=                       ",
"$$$$$$$$@$$$$$$$$$$$$$$@@@%***=             -*************-=                    ",
"$$$$$$$$$$$$$$$$$$$$$$$$@@$***=           =*****************-=                  ",
"$$$$$$$$$$$$$$$$$$$$$$$$$@%***&          -******%%%%$$$$%%****-                 ",
"$$$$$$$$$$$$$$$$$$$$$$$$$@$***=         -******%$$+@+$$$$+$%****=               ",
"$$$$$$$$$$$$$$$$$$$$$$$$$$$%**=        -*****%$+$$$$$@$$$$$+$%***=              ",
"$$$$$$$$$$$$$$$$$$$$$$@$$$@%**=       =*****%@$$$$$$$$$$$$@@@@$***=             ",
"$$$$$$$$$$$$$$$$$$$$$$$$$$$***        -****%@@@$$$$$$$$$$$$$@$$@***=            ",
"$$$$$$$$$$$$$$$$$$$$$$$$$$$%**       =****%$+$$$@$$$$$$$$$$$$$$@+***=           ",
"$$$$$$$$$$$$$$$$$$$$$$$$$$$**-       -****$$$$$@$$$$$$$$$$$$$$$$@$**%           ",
"$$$$$$$$$$$$$$$$$$$$$@$$$@%**=       ****%$$$$$$$$$$@$$$$$$$@@$$$@$**=          ",
"$$$$$$$$$$$$$$$$$$$$$$$$@+%*%       =****$$$$@$$$$$$$$$$$$$$$@$$$$$%**          ",
"$$$$$$@$$$$$$$$$$$@$$$$$$$**=       =****$$$$@$$$$$$$$$$$$$$$$$$$$$$**-         ",
"$$$$$$$$$$$$$$$$$$$$$$$$+%**        -***%@$$$$$$$$$$$$$$$$$$$$$$$$$$***#        ",
"$$$$$$$$$$$$$$$$$$$$$$$$$%**-==     ****%+$$$$$$$$$$$$$$$$$$$$$$$$$+%**=        ",
"$$$$$$$$$$$$$$$$$$$$$$@$%*******;;  -***$$$$$$$$$$$$$$$$$$$$$$$$$$$@$***        ",
"$$$$$$$$$$$$$$$$$$$$$$@@%**********;****$$$$$$$$$$$$$$$$$$$$$$$$$$$$@***=       ",
"$$$+......++$$$@$$$$$$$$$$@$%%%*********$$$$$$$$$$$$$$$$$$$$$$$$$$$$+%**=       ",
"$$+@;;;;;;-@..$$$$@@$$$+.+$@@@@$%%******%@$$$$$$$$$$$$$$$$$$$$$$$$$$@%**-       ",
"$$+>,>>,,'',>-.+$$$@$++--$.$$$$$+@@%****%$$$$$$$$$$$$$$$$$$$$$$$$$$$+%**-       ",
"$+@>$++.+@&>,',-.+$$+&,'',-+$$$$$$@+$%***@@$$$$$$$$$$$$$$$$$$$$$$$$$@%**%       ",
"$$+++$+$$+..+-,'>&.+%,,';&,$+$@$$$$$$+%%*$@$$$$$$$$$$$$$$$$$$$$$$$$@@%**-       ",
"$$$$$@$$$+-$+..;''&.;''&.>;+$$@$$$$$$@@$%$$$@$$$$$$$$$$$$$$$$$$$$$$$@%**%       ",
"%$$$$$$$++,;.$+.@,'&&',>,>++$$$$$$+$$$$$$$$$$$$$$$$$$$$$$$$$$$$$$$$$$***-       ",
"**$@$$$+..,>..++.@,'&-;;&....++@+$-@@++..+$++$++$$$$$$$$$$$$$$$$$$$$$***=       ",
"***%$++@&;',>>-&..&',.$$.&>>,,-+$.,>.-;>>;+&;.+&+$$$$$$$$$$$$$@$$$@+%***=       ",
"****++-'','',,''>+.;'&>;-'>>;>&-'+-,@-',>>&>;&,'&+$$$$$$$$$$$$@@$$$$***%        ",
"***$.;>-$&'>+@&,'$.;';,;;'>-;&.>',.';@'>-.-,@'>>>+$$$$$$$$$$$$$$@$$%***=        ",
"**$@+&;@.@'>.+.;>+.;'-,;@>'',,;,>,;,>;',>+>>,,.;>+$$$$$$$$$$$$$$@@%****         ",
"%$+$@+-,&@'>.+++..&''@,>-;;,>>'';&''>,>&&@>''=-'@+$$$$$$$$$$$$$$$$****=         ",
"$$$$$@+&,,',&.@&&;''&.,>&>''',=';.>,-''''&;''''&.@@$$$$$$$$$$@@@%****-          ",
"$$$$$$$.+;''''''''>@.@--.@;>;&+-$.+&.-,>&.,',;&.%%$+$@$$$$$@@+$%****=           ",
"$$$$$$$$+.>,-----&..+$..$.......++.......@,'&.+$***%%+$$$+$$%%*****-            ",
"$$$$$$$$$@@+.&;;&-.--.;;.-;.--;@&--;;-;$+-',++$@%*****%%%%%******%=             ",
"$$$$$$$$$$$.-,;;>'->,&,'&>';>,'>;,',-;'@.;'>.$$@$***************-               ",
"$$$$$$$$$$@+-'=&;'>,,,,>,,,>',,;',',;;'-@;'&+$$@+%***********-=                 ",
"$$$$$$$$$$$+@;,>;;.-;>-&>,-@>>;@>;;>;;>,;-,&+$$$@$*****=                        ",
"$$$$$$$$$$$$++$++@$@++.+.+@+++++.++@@++@@@$$$$$$@$****%=                        ",
"$$$$$$$$$$$$$$++$+$$+$@$$+$$$+$$$$+++$++$$+$$$$$$$*****-                        ",
"$$$$$$$$$$$$$$$$$$$$$$$$$$$$$$$$$$$$$$$$$$$$$$$$$+%****%                        ",
"$$$$$$$$$$$$$$$$$@$$$$$$$$$$$@$$$$$$$$$$$$$$$@$$$@%*****                        ",
"$$$$$$$$$$$$$$$$$$$$$$$$$$$$$$$$$$$$$$$$$$$$$$$$$$%*****=                       ",
"###################################################&&&&=                        ",
"                                                                                ",
"                                                                                ",
"                                                                                ",
"                                                                                ",
"                                                                                ",
"                                                                                ",
"                                                                                ",
"                                                                                ",
"                                                                                ",
"                                                                                "};
