/* XPM */
static char * E! ENTERTAINMENT_xpm[] = {
"80 80 16 1",
" 	c None",
".	c #E10201",
"+	c #E60101",
"@	c #EA0507",
"#	c #E60B0D",
"$	c #E91818",
"%	c #E71F21",
"&	c #DF2526",
"*	c #F01E23",
"=	c #EC2D2F",
"-	c #EE4245",
";	c #F05D5D",
">	c #F27E7E",
",	c #F7A1A2",
"'	c #FACECC",
")	c #FEFDFC",
"                                                                                ",
"                                                                                ",
"                                                                                ",
"                            &@@@++++++++++++++@@#                               ",
"                            =++.+.....+.+.+.+.++$                               ",
"                            -+.#$$$$$$$$$$$$$$+.*                               ",
"                            -++>)))')))')')')'#.=                               ",
"                            -+.,))))))))))))))#+=                               ",
"                            ;..>)))))))))))))'#.-                               ",
"                            ;+.>))))))))))))))#+-                               ",
"                            ;.+;)))))))))))))'$.;                               ",
"                            ;++>))))))))))))))#.;                               ",
"                            >.@;)))))))'''''',@.>                               ",
"                            >++>)))))))>#+@@@#+#>                               ",
"                            >+.;)))))));@.++++++>                               ",
"                            >@.;)))))))>+++++@++>                               ",
"                            ,++;)))))))>+..++.++,                               ",
"                             +.;)))))))>+..+++++,                               ",
"                             ++-)))))));@.++@++.,                               ",
"                             ++;)))))))>@++@+@++,                               ",
"                             .+-)))))))>+..++.+.'                               ",
"                             @+;)))))))>###$##+@'                               ",
"                             +.=)))))))')')')>.@'                               ",
"                             @.-))))))))))))),.#'                               ",
"                             ..=)))))))))))))>.#                                ",
"                             #.=))))))))))))),.$                                ",
"                             @+=)))))))))))))>.#                                ",
"                             #+=))))))))))))),.*                                ",
"                             #+%))))))),>;>>>-.*                                ",
"                             #+&)))))));.@++.+.=                                ",
"                             #+#)))))));+++.+++=                                ",
"                             *+$)))))));+++++++-                                ",
"                             %+#)))))));+.+.+++-                                ",
"                             =+$)))))));+++++++;                                ",
"                             =+#)))))));+++.+++-                                ",
"                             -+#'))))));++++++.>                                ",
"                             -+#)))))));+.+.+++;                                ",
"                             -+#'))))));+++++++>                                ",
"                              +@'))))));@++++++>                                ",
"                              .#'))))));+@@+.@+>                                ",
"                              .@'))))));+...@++>                                ",
"                              .@'))))));+++@+@+,                                ",
"                              ..'))))))>;;;;-++,                                ",
"                              .@'))))))))))),&.'                                ",
"                              .+'))))))))))),++,                                ",
"                              .@'))))))))))),++'                                ",
"                              .+'))))))))))),+@                                 ",
"                              @+,))))))))))),.#                                 ",
"                              +@,')))')')')',@#                                 ",
"                              .@$=%%&*$=%%%&$@@                                 ",
"                              .@++@...@+..@...@                                 ",
"                              .....@.@.+.+@@++&                                 ",
"                                                                                ",
"                                                                                ",
"                                                                                ",
"                                                                                ",
"                              @.....+.........&                                 ",
"                              +++++++++@+++@++$                                 ",
"                              @.+++++++.+++.++*                                 ",
"                              @+.+++++++++++++%                                 ",
"                              @.++++++++++++++&                                 ",
"                              @+++.+++++++++++*                                 ",
"                              @.++++++++++++++*                                 ",
"                              @+++++++++++++++&                                 ",
"                              @.+++++.++++++++&                                 ",
"                              .+++++++++++++++*                                 ",
"                              @.++++++++++++++*                                 ",
"                              @+++++++++++++++=                                 ",
"                              @.+++.+.++++++++&                                 ",
"                              .+++++++++++++++$                                 ",
"                              ;;;;;-;;;;;;;;;;>                                 ",
"                                                                                ",
"                                                                                ",
"                                                                                ",
"                                                                                ",
"                                                                                ",
"                                                                                ",
"                                                                                ",
"                                                                                ",
"                                                                                "};
