/* XPM */
static char * eurosport_news_xpm[] = {
"80 80 16 1",
" 	c None",
".	c #21235A",
"+	c #4C517B",
"@	c #BF4670",
"#	c #72789C",
"$	c #CF6F94",
"%	c #8E93B2",
"&	c #DB89AA",
"*	c #A6ACC8",
"=	c #E8A5C3",
"-	c #C1C4D6",
";	c #F6C9E1",
">	c #D4DDEC",
",	c #EDEBF5",
"'	c #F9FBFC",
")	c #FEFEFE",
"                                                                                ",
"                                                                                ",
"                                                                                ",
"                                                                                ",
"                                                                                ",
"                                                                                ",
"                                                                                ",
"                                                                                ",
"                                                                                ",
"                                                                                ",
"                                                                                ",
"                                                                                ",
"                                                                                ",
"                                                                                ",
"                                                                                ",
"                                                                                ",
"                                                                                ",
"                                                                                ",
"                                                                                ",
"                                                                                ",
"                                                                                ",
"                                                                                ",
"                                                                                ",
"                                                                                ",
"                                                                                ",
"                                                                                ",
"                                                                                ",
"                                                                                ",
"                                                                                ",
"                                                                                ",
"                                                                                ",
"                                                                                ",
" )))))))))'')''')''))')))')')))))))))))')')')')')))))))))))))))))))))))))))'))) ",
" )))))))'))'')''''')')')')')))))))))))))')')'')))))')))'))))')))))))'')'-))'')) ",
" ')))')'''))'')')')''''')''''')))')''')''''''')')')))')')')')))))))''')##))'')) ",
" )))))'))))'')))))))))')))))''))''))')))')'''))))))')')))'))))))))))')-.#)')')) ",
" ')))))))')))))''))')''')'''')''))'')''''')''))))))))))))))))))')))))-+.%))))') ",
" '),%%*>-)->*%*''*%,'=#-;&$-),$&,;$&;;$&$-%,)*->#%#-%,-;,%,-#*,'%%%&%+.++*#%%') ",
" ')%#%*#-'#%#%#*%%%#=@&%&@&@=@&@&$$$@=@@&#.%'.*.++#%.-.#%+%.#.-'-..........#-') ",
" ))##>'#>,#%%,###)>#$@;,@=;@@&)=@$==@'&&)$.+*+*++%)-+#.#+-++%>')),#..+.+.%>)))) ",
" ',+*->#)*%%#+*#-)*%,$@&@.@&@;)$$@@@;,@=,.%+.+*.%%)*..#.+'>%..,)')-.....%))'')) ",
" )-#>>*#>#*#>#-%%>#*=;@$#>,'@&=$$$=@,,@,-.>*.%#+=*>-.%%.*-+>#+,))>..++..$)))))) ",
" )-+##>##*>%)**>#+-;@@&&&'))=@$;&='@;;&'-+',+*%++.;-+,-+'-+.#;))>.+*',#.#)))))) ",
" ))''''',)))')))''))'')'))'')',)')''''')))''))))')))))))))'')))'#%'))))%%)))))) ",
" ')')))))))))))')')''')))''')))'),')''''))'')))))))))))))')'''',,)'')')'''))))) ",
" '))))')))''')')))))))')')')')))''''')))))')')))))))))')))))''')''))'))))'')))) ",
" ')))))')')')')')')')''''''))')')))')))')''')''')'''))))))))'')''')''''')'')))) ",
"                                                                                ",
"                                                                                ",
"                                                                                ",
"                                                                                ",
"                                                                                ",
"                                                                                ",
"                                                                                ",
"                                                                                ",
"                                                                                ",
"                                                                                ",
"                                                                                ",
"                                                                                ",
"                                                                                ",
"                                                                                ",
"                                                                                ",
"                                                                                ",
"                                                                                ",
"                                                                                ",
"                                                                                ",
"                                                                                ",
"                                                                                ",
"                                                                                ",
"                                                                                ",
"                                                                                ",
"                                                                                ",
"                                                                                ",
"                                                                                ",
"                                                                                ",
"                                                                                ",
"                                                                                ",
"                                                                                ",
"                                                                                ",
"                                                                                "};
