/* XPM */
static char * Europe2_xpm[] = {
"80 80 7 1",
" 	c #34266C",
".	c #2C46BC",
"+	c #2C6E5C",
"@	c #E41E1C",
"#	c #14FE04",
"$	c #949ACC",
"%	c #ECEEF4",
"################################################################################",
"################################################################################",
"################################################################################",
"################################################################################",
"################################################################################",
"################################################################################",
"################################################################################",
"################################################################################",
"################################################################################",
"################################################################################",
"#####################################$%$$%$%####################################",
"##################################+++        +##################################",
"###############################+ ..$$$$%$%$$$$..++##############################",
"############################++.$$%%%%%%%%%%%%$$$$. +############################",
"##########################++.$%%%%%%%%$$$....$.$.$..  ##########################",
"########################++.$%%%%%%$$.................. +########################",
"#######################+.$%%%%%%$...... .@.@ ........... #######################",
"###################### .%%%%%%$....  @@@@@@@@@@@......... +#####################",
"####################++$%%%%%$.... @@@@@@@@@@@@@@@@ ....... +####################",
"####################+$%%%%$.... @@@@@@@@@@@@@@@@@@@ .......  ###################",
"##################++$%%%%$... @@@@@@@@@@@@@@@@@@@@@@ ....... +##################",
"##################+$%%%$.... @@@@@@@@@@@@@@@@@@@@@@@ ........ +#################",
"################# $%%%$$....@@@@@@@@@@@@@@@@@@@@@@@@@ ........ +################",
"################+.%%%$.... @@@@@@@@@@@@@@@@ @@@@@@@@@@......... ################",
"################.%%%$.....@@@@@@@@@@@@        @@@@@@@ .........  ###############",
"###############+$%%$......@@@@@@@@@@    .....  @@@@@@@ ......... +##############",
"##############++%%$........@@@@@@@   ......... @@@@@@@........... ##############",
"############## $%$........@@@@@@   ........... @@@@@@@........... +#############",
"#############+.%%$.........@@@   .............@@@@@@@ .......... . #############",
"############# $%........... @@  ..............@@@@@@@  .........$. +############",
"############# $$.......... $   .............. @@@@@@  .......$%%%$ +############",
"############+.$..........$$$  ...............@@@@@@@  $%$...$%%%$+. ############",
"############ .........$$%%%. ............... @@@@@@$ %%%%$.$%%+  .. +###########",
"############ .......$%%%%%$ .............$%%$%%$@@%%%%%$%%+%%$ $%+.. ###########",
"###########+ ......%%%%%$ ...........$..%%%%%%%%$@%%%$ .%%$%%%%%$ .. ###########",
"###########+......$%%%$  ........$%.$%$%%%%%% @%%@%%%  .%%$%%%$+ ... ###########",
"########### ......%%%  .....$$...$%$$%%%%%%%@ @%%$%%. .$%%%%$  .$%.. +##########",
"###########  ....%%%. .$%$.$%$...%%+%%%%+%%$@@$%$$%% ..%%%%% +$%%$ . +##########",
"########### ....$%%%.$%%%+ %%$..$%%$%%% +%$@@@$%$%%$ .%%%$%%%%%%$ ...+##########",
"########### ....%%%%%%%%$ $%%+.$%%%+%%$@$%$@@@%%$%% +%%%. %%%%$. ... +##########",
"########### ...$%%%%%%%. .$%% .%%%$$%%@@$%$@+%%$+%%$%%%+ ..$+   .... +##########",
"########### ...%%%%%%$+...$%$ $%%%$$%$@@$%%%%%% $%$.$$  ... ........ +##########",
"########### ...%%%%$  ...+%%.$%%%%$%%$@@@@%%%$  %%+ . ............   +##########",
"########### ..$%%%+ ....$%%%%%%$+%$$%@@@@@$+  +$%%............   @@@ ###########",
"###########+ .%%%. ...$%%%$%%%%  $$@$@@@@@@  ..$%$ .........  @@@@@@ ###########",
"###########+ .%%% ..$%%%%$ $%$ ... @@@@@@@  ...%%$ ...... @@@@@@@@   ###########",
"############ $%%. $%%%%%. ..  ... @@@@@@@  ....$. .... @@@@@@@@@     ###########",
"############ $%%%%%%%%$ ........ @@@@@@@@   @  . .. @@@@@@@@@@@   . +###########",
"############+$%%%%%%%. .........@@@@@@@@  @@@@   .@@@@@@@@@@@   ... ############",
"############+ %%%%$$  .........@@@@@@@@@@@@@@@@@@@@@@@@@@@     .... ############",
"#############  .$.  .......... @@@@@@@@@@@@@@@@@@@@@@@@@    ...... +############",
"#############+ . ............ @@@@@@@@@@@@@@@@@@@@@@@@    ........ #############",
"############## .............@@@@@@@@@@@@@@@@@@@@@@@@    .........  #############",
"##############+ ............@@@@@@@@@@@@@@@@@@@@@     ..........  ##############",
"############### ...........@@@@@@@@@@@@@@@@@@@@    ............. +##############",
"###############+..........@@@@@@@@@@@@@ @@@@     ............... ###############",
"################  .......@@@@@@@@@@@@         ................. +###############",
"################# ......@@@@@@@@@@@    .    .................  +################",
"#################+ ...  @@@@@@@@@    ......................... #################",
"##################+ .. @@@@@@@@@    ........................  ##################",
"###################+ .@@@@@@@@@   .........................  ###################",
"#####################  @@@@@@   ..........................  ####################",
"###################### @@@@@  ........................... +#####################",
"#######################+@@    .........................  +######################",
"########################+   .........................   ########################",
"##########################+  .............. ........  +#########################",
"############################+   .................   +###########################",
"##############################++    . ... . .    ++#############################",
"##################################++         ++#################################",
"####################################$......$$###################################",
"################################################################################",
"################################################################################",
"################################################################################",
"################################################################################",
"################################################################################",
"################################################################################",
"################################################################################",
"################################################################################",
"################################################################################",
"################################################################################"};
