/* XPM */
static char * Eurosport_xpm[] = {
"80 80 15 1",
" 	c None",
".	c #00126B",
"+	c #002A7D",
"@	c #043184",
"#	c #0E3781",
"$	c #013E8E",
"%	c #113B87",
"&	c #16408C",
"*	c #2B5297",
"=	c #DD1F45",
"-	c #4367A7",
";	c #5E7CB2",
">	c #7E96C1",
",	c #A6B6D3",
"'	c #DCE2EE",
"                                                                                ",
"                                                                                ",
"                                                                                ",
"                                                                                ",
"                                                                                ",
"                                                                                ",
"                                                                                ",
"                                                                                ",
"                                                                                ",
"                                                                                ",
"                                                                                ",
"                                                                                ",
"                                                                                ",
"                                                                                ",
"                                                                                ",
"                                                                                ",
"                                                                                ",
"                                                                                ",
"                                                                                ",
"                                               &&                               ",
"                                             &&&&&&                             ",
"                                      &       &&&&                              ",
"                                    &&&&     &&&&     &&&&                      ",
"                                    &&&&              &&&&&                     ",
"                                   &&&&               &&&&                      ",
"                                   &  &               & &&                      ",
"                                                               &                ",
"                            &&                               &&&                ",
"                          &&&&&                             &&&&&               ",
"                          &&&&                              &&&&                ",
"                          &&&&                              & &&                ",
"                                                                                ",
"                                                                                ",
"                                                                                ",
"        --;;-;--------------*****-****                                          ",
"        ->>>>>>->;--;;-;>>>;-**->>;**$                                          ",
"        ->'''',-',--,,;,''''>*-,'''>*$  ====  =====   ====   ====  ======       ",
"        -,'>>>;-',&-',>,'>;''*,',>,';@  = ==  == ==  == ==  ==  ==   ==         ",
"       *;,';--*;'>$-';>,,&&',-'>&+-';  ==     =   = ==   == ==  ==   =          ",
"       &;'',,>;>'>+;';>',>,',;';@@*'>   ==    == =====   == == ===   =          ",
"       %>'',,>->'-@;'->'''';*>'-+#-';    === =====  =    == ====     =          ",
"       @>'-**&-,,*%>'*,'->'>@>'*.&>'-     == ==     =    == =  =    ==          ",
"       @,';;-**>'>;',*,,@*',%;',->'>&  =  == ==     ==  == ==  ==   ==          ",
"       %,',,,>*;','';*,,+#,,**,',''*$  ===== =       ====  ==   =   =           ",
"      &&;,,>,;%&;,,-#*>;+%-;-+*>,>&#    ==            ==        =               ",
"      &&*****&&&***&%%&&#%&&###**&##                                            ",
"                                                                                ",
"                                                                                ",
"                                                                                ",
"                   &&                                 &                         ",
"                 &&&&&                              &&&&&                       ",
"                 &&&&&                              &&&&                        ",
"                  &&&                               &&&                         ",
"                                                                                ",
"                         &                                                      ",
"                        &&                &&&&&                                 ",
"                       &&&&               &&&&&                                 ",
"                       &&&&      &&       &&&&                                  ",
"                      && &     &&&&&&        &                                  ",
"                               &&&&                                             ",
"                                 &&                                             ",
"                                                                                ",
"                                                                                ",
"                                                                                ",
"                                                                                ",
"                                                                                ",
"                                                                                ",
"                                                                                ",
"                                                                                ",
"                                                                                ",
"                                                                                ",
"                                                                                ",
"                                                                                ",
"                                                                                ",
"                                                                                ",
"                                                                                ",
"                                                                                ",
"                                                                                ",
"                                                                                ",
"                                                                                "};
