/* XPM */
static char * EUSKADI TV_xpm[] = {
"80 80 16 1",
" 	c None",
".	c #022E5A",
"+	c #023D6F",
"@	c #1E3659",
"#	c #502644",
"$	c #A90510",
"%	c #214C74",
"&	c #952738",
"*	c #3E5D82",
"=	c #4E6D8E",
"-	c #6B8AA7",
";	c #7D9BB7",
">	c #D28E8E",
",	c #A3B7C8",
"'	c #CCD7E1",
")	c #F7FAFB",
"                                                                                ",
"                                                                                ",
"                                                                                ",
"                                                                                ",
"                                                                                ",
"                                                                                ",
"                                                                                ",
"                                                                                ",
"                                                                                ",
"                                                                                ",
"                                                                                ",
"                                                                                ",
"                                                                                ",
"                                                                                ",
"                                                                                ",
"                                                                                ",
"                                                                                ",
"                                                                                ",
"                                                                                ",
"                                                                                ",
"                                                                                ",
"                                                                                ",
"                                                                                ",
"                                                                                ",
"                                                                                ",
"                                                                                ",
"                                                                                ",
"                                                                                ",
" ++++.+++++++++++.+++.+++++++++++++++++++++++++++++++++++++++++++++++++++++++++ ",
" ++++++++++++++++++@+++++++++++++++++++@+++++++++++++++++++++++++++++++++++++++ ",
" ++++++++++++++++++.+++...+++++++++++++++++++++++++++++++++++++++++++++++++++++ ",
" +++++++++++++++++++++@;;-+++++++@+++++++++++++++++++++++++@+++++++++++++++++++ ",
" ++++++++++++++++.+.+.%'),..+++++.+++++++.+.+++++++++++++.+++++++++++.+++++++++ ",
" ++++++++++++++@.,=.++@))'.++++%+++++++@+%%*+++%+++%+@@###@@+++++++%%%+%.++++++ ",
" ++++.......+++.;)*...%'),....++++++++.@--;;;=%.+++.@#$$$#$#@++++.%*=***,%.++++ ",
" %+++.%-,,=@.%.;));--*@))'=,;-.+++++++%;;;;;;,;*.++##&$$$&&&#@+++**=*=*,)-@++++ ",
" .++.=)))'),%.-))))))-@')))))),.++++++-;;--;'')'%.@#&$$&'''''&..%****&,))''%.++ ",
" +++*))'#%,),.=')),;;*@)))-=,));.+++.=;;;;;))',)-+@&$$$>'>&')'.@%=*=*=,))',-.++ ",
" ++.,))&@.-))%.-))*...%'),..@')'@.++.=;-;-;))',-=+#$$$$&&#$>)'@.*****%=))=%%+++ ",
" ++@,)))'))))-.;))=.++%))'++.,))%++++-;;;;-'))))-@#$$$$$&''))'@%*=*=**=))>**+++ ",
" ++.'))---;--%.;))*.+.%'),++.>)'%.+.+=;;;-;-,')),.#$$$$&)'&=)'@+=&**=#-))&*%+++ ",
" ++.;))=....+%.;))=.++@))'..%))'@+.+.=;;;;-,->,);.@&$$$')>#>)'.+*=*=**=));=*+++ ",
" ++.*')'-%*-'*.=))';'=@')),='))-.+++++-;;-;')')'%.@#$$$>)''');..%*=****,))'*.++ ",
" +++.*'))))),%.@,))))-@)))))));@.++%++*;;;;,')'-.@+##&$&>'>>;%.++**=*=*=,'-++++ ",
" ++++.@*-;-*@.+.@*--=++==%*-;*..+++++.+%-;;;-=%.++++@#&$$#$#..+++.%*=*=**++++++ ",
" +++++.....++++%+..+.+++.+.+..+++++++++++%**%@.++%+++@@###@#++++++.@%%%%+.+++++ ",
" +++++++++++++++++++++++++%++++++++++++++.+..++++++++++++++++++++++.+++++++++++ ",
" @+++++++++%+++++++++++++++++++++++++@+++++++@+++@+++@+++++++++++++%+++++++++++ ",
"                                                                                ",
"                                                                                ",
"                                                                                ",
"                                                                                ",
"                                                                                ",
"                                                                                ",
"                                                                                ",
"                                                                                ",
"                                                                                ",
"                                                                                ",
"                                                                                ",
"                                                                                ",
"                                                                                ",
"                                                                                ",
"                                                                                ",
"                                                                                ",
"                                                                                ",
"                                                                                ",
"                                                                                ",
"                                                                                ",
"                                                                                ",
"                                                                                ",
"                                                                                ",
"                                                                                ",
"                                                                                ",
"                                                                                ",
"                                                                                ",
"                                                                                ",
"                                                                                ",
"                                                                                ",
"                                                                                ",
"                                                                                "};
