/* XPM */
static char * Extreme Sports_xpm[] = {
"80 80 15 1",
" 	c None",
".	c #2A0F0F",
"+	c #62180B",
"@	c #25303C",
"#	c #334E6D",
"$	c #7E472A",
"%	c #236EA6",
"&	c #D13808",
"*	c #8A6C4C",
"=	c #929679",
"-	c #C0A888",
";	c #F3A715",
">	c #B0C1A4",
",	c #D9DABF",
"'	c #FAFCF3",
"                                                                                ",
"                                                                                ",
"                                                                                ",
"                                                                                ",
"                                                                                ",
"                                                                                ",
"                                                                                ",
"                                                                                ",
"                                                                                ",
"                                                                                ",
"                                                                                ",
"                                                                                ",
"                                                                                ",
"                                                                                ",
"                                 %%#####$####%%                                 ",
"                             %#$+++++++++++++++++#%                             ",
"                          %$&+++++++++$$$$$$$$++++++$%                          ",
"                       ==&&&&+&+&$*-->->>---==**$$+++++%                        ",
"                      =&;&&&&$--,',,>>>-=>->,,,,--*$$+++$#                      ",
"                    =>;;;&**-''',-*@.........$=,'',>=*$++++%                    ",
"                   >;;;;*=,''',*................$-'''--*++++@                   ",
"                 =>;;;;=,''''=......+.@++@...@....#,'''-=$++++%                 ",
"                 ;;;;==,''',*+++++++$**===**++$+...@>,'',=*++.+%                ",
"                ;;;;;>'''''*+$++++&++&&&$&&&&&&&&++..>,,,;=$$.+.%               ",
"               &;;;*>''''',&&&&+&&+&+&+&&&&&&&&&&&&+.$,>>,-**++++               ",
"              *&&;*>'''''',&&&&&++&+++++&+&$&&$&$&$$.#>>-->-*$+..@              ",
"             %&&&&*''''''',&&&&&&+&*,,,,,,,------***$-,>>---=*$+++#             ",
"             $+&&&'''''''''-&&&&&&+&&--,,---;&;;;;;;=,,>>>=>=**+.+.             ",
"            %++&+-''''''''''-&+&+&&&&&&&&&;&;;;;;;;*,,,,,,>->=*$++.#            ",
"            $+++$,'''','''''',*&+&&&&&&&;;;;;;;;;=-'',,,>---=-*$+.+@            ",
"            ++++*''''=@$->''''',-$$+&&&&&&;;;;=>>'''',-*$+@==-=*$.+.            ",
"            ++++-''''=...+$*-'''''',-------->,'''',-=*&;&..==-=*$+..%           ",
"           %++++-''''=..++++++$-,'''''''''''''',-=*;;;;;$.@====*$.+.#           ",
"           %.+++,''''=...++++++++$*-'''''''',=**;;;;;;;&&.@-===*$+.+#           ",
"           %+.++-''''=...+++++++++&+&*-,,-=&*;;;;;;;;;&;&.@====*$.+.%           ",
"            .+++-','',#@+..++++++&+&&&&&&&;;;;;;;;;;;;&&&$*====#$+..%           ",
"            @+.+*,,','',-*+..++++++&+&&&&&&&;;;;;;;;&&;-->>===**$++.%           ",
"            #.++$-,,,,,''',-*$++++++&&&&&&;&;&;;;&;*,,,,>>====*$.+.@            ",
"            %..++-,,,,,''',>=*$+++&+++&&&&&&&&&&&&&*->,>>>===***+.+#            ",
"             #.+.$-,,,,=**$$++.+++++&+&+&&&&&&&&&&&&&+$$**===**+.+@             ",
"              ..++$-,,$.+.+..++++++++++$$+&&&&&&&&&&&&++..%***$++.%             ",
"              #.+.+*>,*...+.+.+.+.++$*-,,,-*$&+&&&&+&+&+..*#*$.+.#              ",
"               #.+++*>=.@+.+...@$*=>>,>,,,'''-=*$++++++..@**$+.+@               ",
"                @..++**...@#$==>>>>>>>,,,',,''',,-=$$+@..@#$@.+.                ",
"                 #.+.+$+#*==>>=>=>>>,,,,,,,,,,,,>,>>==*@.$*+..@                 ",
"                  #..++$**====>>>>,>,>,,,>,,>>>>>>>==%***$...@                  ",
"                   %@...+$$#===>>>>>>>>>>>>>>>>>>==%****++.@#                   ",
"                     #@.+.+$$*===>>>>>>>>>> >== =#***$++.+@                     ",
"                       #....++$$$#**=====%===#****$$++..#%                      ",
"                         %@...+++$$$#$##*$*$$**$$++..@#                         ",
"                            #@...+.++++$$$$$+++..+@#%                           ",
"                               %##@+..+......@##%%                              ",
"                                       % %                                      ",
"                                                                                ",
"                                                                                ",
"                                                                                ",
"              #@##    #% #    #@@%   %@@#    %@@#    #@  @%    @#@%             ",
"              .@%%    @@@#    #.@    @.%.%   @.%%    ..%#.@    .#%              ",
"              ..@%     ..      .%    @.@.    @.@%    @@.@.@    .@@              ",
"              .@%     %..%     .%    @@@@    #@%%    @*.@@@    .#%              ",
"              ..##    @%@.     .%    @@ .    @.##    @ .%#@   %.@#%             ",
"              %%%%    %  %     %     %% %     %%%    % %  %    %%%%             ",
"                                                                                ",
"                                                                                ",
"                                                                                ",
"                                                                                ",
"                                                                                ",
"                                                                                ",
"                                                                                ",
"                                                                                ",
"                                                                                ",
"                                                                                ",
"                                                                                ",
"                                                                                ",
"                                                                                ",
"                                                                                ",
"                                                                                ",
"                                                                                ",
"                                                                                ",
"                                                                                "};
