/* XPM */
static char * Fashion TV_xpm[] = {
"80 80 14 1",
" 	c None",
".	c #000000",
"+	c #010101",
"@	c #212121",
"#	c #464646",
"$	c #626262",
"%	c #757575",
"&	c #949494",
"*	c #ACACAC",
"=	c #C3C3C3",
"-	c #D8D8D8",
";	c #E9E9E9",
">	c #F8F8F8",
",	c #FFFFFF",
"                                                                                ",
"                                                                                ",
"                                                                                ",
"                                                                                ",
"                                                                                ",
"                                                                                ",
"                                                                                ",
"                                                                                ",
"                                                                                ",
"                                                                                ",
"................................................................................",
"................................................................................",
"................................................................................",
"................................................................................",
"................................................................................",
"................................................................................",
"................................................................................",
"................................................................................",
"................................................................................",
"................................................................................",
"................................................................................",
"................................................................................",
"................................................................................",
"................................................................................",
"................................................................................",
"................................................................................",
"................................................................................",
"................................................................................",
"................................................................................",
".....+++++.....++++.++.++++.+...........+..+.....+.+++.........................+",
"....++++++.....++++++..+++++++...........+++.......++..........................+",
"......+............+.+++..++++............++....++++...........................+",
".....+.+$%%%%%%%#..+.++..+..+..........+..+.......+++..........................+",
"......@*,,,,,,,,>$..+..@%&%+...........@*%......@@++.+.........................+",
"++++.+=,,,,,=&*,,,%....*$#&+.++++..+++.+**..++..&;+.++++++.+.++..++..++++.+++..+",
"+.+.+*,,,,,;$==,,,,$++@-#...+.++.++..+..*&.++.+.##+...+++..+.++++.+@@..+.+++...+",
"+.+.&,,,,,,=$,,,,,,,#.@;@.......+.......**........+++....+.......+.&&.....+....+",
"+++.@=,,,,>&#;=->,,&+@$;$@.+###@+.@##@+.*&@$$++@##++.@##@.+##+#$@.@=*#+##@+##+.+",
"++.+.@=,,,,*#>--,,%+.+#;$++*#@*&.@$@#*@.*=#@=&.+*=..$*@#=@+&-$@&*++=*@+%;#+$$+.+",
"......@*,,,=$,,,,$....@;@.@&#+&*.$=@+@..*=+.&*+.&=.@;$..=*.$;@.#;+.*&..@;%.$@..+",
".....+.@*,,=#,,,%..+..@;@..@$#=*.@-,-&+.**..&*+.%=.#,#..*-.$-@.#;+.*&...**@$.+.+",
".....++.+*,*$;,%....+.@;@.#*#+&*.+@$&;$.*&..&*+.&=.@,#..*=.%=+.#;+.*&...#>%@...+",
"......+..+*>>;$..+++++@>#.%-.+==+%%..$$+**++&=+.&=++=%.+-$.%-@.$;@.**++.+-=+.+.+",
"..........+&;#.......@$=$+@=&$%=##&$$$+@*&@@&&@@&*@.@%#$$.+%*#.%*#.$=$@..%$.....",
"++@++@++@@++#@++@+@++@@+@@@@@@+@@++@@@+@@@@+@@+@@@@@++#@@+@@+@@@+@++#@++@@+@+@++",
"#===-==-**==*&=-**==-=====*&=====**=====*&===&==*&*==-==&*==*=*===-*&===&*=*===%",
"$,&>,,,>%&,,%&,,&%>,,,,*-,=%,,,,,&&,,&;,%$;,-$-,,%-,,,,=*&>,%$=,,,,*%,,-%,,*&=,%",
"$,*,,,,,*&,,&*,,*&>,,,,=;,;*,,,,,*-,,*>,*&;,-%=,,*,,,,,-&*,,*%=,,,,*-,,>=,,;%;,&",
"@%%%%%%%$$%%$$%%$$%%%%%%%%%%%%%%%%%%%%%%%%%%%$%%%%%%%%%%$%%%%%%%%%%%%%%%%%%%$%%#",
"................................................................................",
"................................................................................",
"..++.........+.......+......+..++..+..+.++...++.....+...++....++++++......+..+.+",
"+...+..............++++++++++...+.+++++.++......++++++..............++++++++++..",
"................................................................................",
"................................................................................",
"................................................................................",
"................................................................................",
"................................................................................",
"................................................................................",
"................................................................................",
"................................................................................",
"................................................................................",
"................................................................................",
"................................................................................",
"................................................................................",
"................................................................................",
"................................................................................",
"................................................................................",
"................................................................................",
"                                                                                ",
"                                                                                ",
"                                                                                ",
"                                                                                ",
"                                                                                ",
"                                                                                ",
"                                                                                ",
"                                                                                ",
"                                                                                ",
"                                                                                ",
"                                                                                "};
