/* XPM */
static char * Festival_xpm[] = {
"80 80 16 1",
" 	c None",
".	c #000000",
"+	c #242400",
"@	c #B60000",
"#	c #0049AA",
"$	c #DB0000",
"%	c #494955",
"&	c #922455",
"*	c #DB0055",
"=	c #006DAA",
"-	c #246DAA",
";	c #246DFF",
">	c #496DAA",
",	c #6D6D55",
"'	c #B64955",
")	c #6D92AA",
"                                                                                ",
"                                                                                ",
"                                                                                ",
"                                                                                ",
"                                                                                ",
"                                                                                ",
"                                                                                ",
"                                                                                ",
"                                                                                ",
"                                                                                ",
"                                                                                ",
"                                                                                ",
"                                                                                ",
"                                                                                ",
"                                                                                ",
"                                                                                ",
"                                                                                ",
"                                                                                ",
"                                                                                ",
"                                                                                ",
"                                                                                ",
"                                                                                ",
"                                                                                ",
"                                                                                ",
"                                                                                ",
"                                                                                ",
"                                                                                ",
"                                                                                ",
"                                                                                ",
"                                                                                ",
"     ,%%+%%%    ,%%+%%   ,%%+++%   %%%%%+%+% %% %%%     ,+%   %+++%,   +%       ",
"    .......+  ........  .........+ ......... .. ,..     ... .........% ..,      ",
"   %..,      ,..+,      ..+   ,...    ..+    ..  ..%    .., ...+++...% ..       ",
"   ..        +..        ..            ..%   ,..  ,..   ... +..     ..% ..       ",
"   ..  ++++  ...++++++  ...++++,      ..%   ,..   ..,  ... ...     ..% ..       ",
"   ..  ....  .........  %........     ..    %..   ... %.+  ..........,,..       ",
"  %..        ..+               ..     ..    ...   +..+..   ...     .. %..       ",
"  %..        ..+       %+%     ..     ..    ...   ,.....   ..+     .. %..       ",
"  +..        ........+  .........     .+    ..+    ....    ..%    ,.+  .......  ",
"                                                                                ",
"                                                                                ",
"  @*$$$@$$$$$$$$$$$$$$$$$$$$$$$$$$$$$$$&-#=;-;#---;-##;;;===;-;=-#----=#;--==;  ",
"  &'*'&&$&''&&*'&&&&''&&&&*'&&&&'&&&&'*,,>>>))>>>)))>>)>)>>>))>>>>>))>>>>)>>>)  ",
"                                                                                ",
"                                                                                ",
"                                                                                ",
"                                                                                ",
"                                                                                ",
"                                                                                ",
"                                                                                ",
"                                                                                ",
"                                                                                ",
"                                                                                ",
"                                                                                ",
"                                                                                ",
"                                                                                ",
"                                                                                ",
"                                                                                ",
"                                                                                ",
"                                                                                ",
"                                                                                ",
"                                                                                ",
"                                                                                ",
"                                                                                ",
"                                                                                ",
"                                                                                ",
"                                                                                ",
"                                                                                ",
"                                                                                ",
"                                                                                ",
"                                                                                ",
"                                                                                ",
"                                                                                ",
"                                                                                ",
"                                                                                ",
"                                                                                ",
"                                                                                ",
"                                                                                ",
"                                                                                ",
"                                                                                "};
