/* XPM */
static char * Filles Tv_xpm[] = {
"80 80 14 1",
" 	c None",
".	c #B63B8D",
"+	c #E13D8A",
"@	c #8D62AF",
"#	c #E85593",
"$	c #E86B70",
"%	c #7CA0A6",
"&	c #DA84B4",
"*	c #EE8C56",
"=	c #AEB377",
"-	c #EFB32F",
";	c #F7D808",
">	c #FAE24E",
",	c #F4D6DD",
"                                                                                ",
"                                                                                ",
"                                                                                ",
"                                                                                ",
"                                                                                ",
"                                                                                ",
"                                                                                ",
"                                                                                ",
"                                                                                ",
"                                                                                ",
"                                                                                ",
"                                                                                ",
"                  >                               @@                            ",
"                  >>=                        +.$--;;-*++.                       ",
"                 >>>>%                      ++$;;;;;;;-++.                      ",
"                ;;>>>>=%                 .+*;;;;;;;;-;-;$.++                    ",
"                ;;>>>>>>               @+$>>;;;;;;--=%%%=@..+                   ",
"               %;;>>>>>%               .$>>>>;;;;=        +++.                  ",
"               ;;;>>>>%              @+>>>>>>;>           .+.+@                 ",
"               ;;;>>>%              .+;>>>>>%             ..++..                ",
"               ;;;>>>              @++;>>>>%              .+++++                ",
"              *;;;>>=              ++;;>>=                .+++++=               ",
"             @-;;;>=     .&      @++;;;;;                .++++#+;               ",
"             @-;;;;%    @.@      +++;;;;=                .++++++;               ",
"             +-;;;;     ...&     ##-;;;                 .++++.#+-               ",
"             .*-;;;     ....   @+#+;;;>                .++++###+;               ",
"             .#;;;=     @...   ++&+;;;%                ++++$$###;               ",
"             @+;;;       ..#   +#+#;;;               @++++#$$##*-               ",
"             @#$;-       ..  &++#+$;;=             @.++###$$&#-;;               ",
"              ++;;%      ..   ++++-;;              .+++++#*#&#;;=               ",
"               ++--   .....  &++++-;%            @++++####*##-;;                ",
"               +++-  @+....& #+++$;;           .##$##$#$##$#$;;>                ",
"               @#++@  .....&&&++#$;;         @@+++$$*$#####&;;;                 ",
"                +++#+.......&&+++*;-      .+++###+########*;;;                  ",
"                ++###........&++.*;-   @@+++#+############->;=                  ",
"                 *++#...#&#&.&++++++++&++##+++++####$#*##->;>                   ",
"                  @+#.&&...&..##++++++#+#++###+#######$>--- %                   ",
"                   #+.&....&..#+##+++#+#############$*>->;%                     ",
"                    .&#....&#.&##++##$#############*===>%                       ",
"                   @.&*....&&&.#&###############*>>>===                         ",
"                   .&&&&&&&&&&.#&##############-;>>>==                          ",
"                   &&&&&&&&....&##########$*-;;;;;>,                            ",
"                   &&&&#......-.*;-;;;;;;;;;;;;%                                ",
"                   &&&@.......=.$;;-;-;;;;;;;%                                  ",
"                   &&.........&..+-                                             ",
"                     .........&.@+*                                             ",
"                     .........&#.+*                                             ",
"                    @.....@...&++.$                                             ",
"                   @..&    +..&++++                                             ",
"                   @..@    ...&++++                                             ",
"                   ...     #..&+++.%                                            ",
"                   ..      #..#++++-                                            ",
"                   ..      #..#++++>                                            ",
"                  ..@      #..&+++.-                                            ",
"                  ..@      #..&++++$                                            ",
"                  &&       #&&&+++++                                            ",
"                  ..       #..&#++++   $*************.@  @$**+                  ",
"                 @..       #..&+#+++%  *;;;;;;-;;;;;;-.  .;;;@                  ",
"                 ..@       @..&+++++$  *;;;;;;>>>-;;;;$ .-;-+                   ",
"                 ..        @..&+###++  *;;;;>>>>>>>;;;##;;;@                    ",
"                ..          ..&###+#+  *---;>>--->>>;;$#;;*                     ",
"                ..          #.&###&#+@    +->$.  .>>;;$;;;.                     ",
"                .@          #.&###++++    +->$#  .>>>;;;*.                      ",
"                .@          ..&###++++    +->$@  @>>>;;;.                       ",
"                #           #.&######+    +->$.  @>>;;;$                        ",
"               .@           #.&###+++#.   +;;$@  @>;;;*                         ",
"              @.@@          #.&+##+++++   +$*+@   +***.                         ",
"             @@               &                                                 ",
"                                                                                ",
"                                                                                ",
"                                                                                ",
"                                                                                ",
"                                                                                ",
"                                                                                ",
"                                                                                ",
"                                                                                ",
"                                                                                ",
"                                                                                ",
"                                                                                ",
"                                                                                "};
