/* XPM */
static char * FIP old_xpm[] = {
"80 80 16 1",
" 	c None",
".	c #020101",
"+	c #4C0207",
"@	c #222021",
"#	c #393837",
"$	c #9F0C1D",
"%	c #F1051A",
"&	c #514F4F",
"*	c #72696A",
"=	c #E63C4B",
"-	c #8A8988",
";	c #ED8790",
">	c #A8AAA9",
",	c #CFCECE",
"'	c #FBC2C8",
")	c #FDFBFB",
"                                                                                ",
"                                                                                ",
"                                                                                ",
"                                                                                ",
"                                                                                ",
"                                                                                ",
"                                                                                ",
"                                                                                ",
"                                                                                ",
"                                                                                ",
"                                                                                ",
"                                                                                ",
"                                                                                ",
"                                                                                ",
"                                                                                ",
"                                                                                ",
"                                                                                ",
"                                                                                ",
"                                                                                ",
"                                                                                ",
"                                                                                ",
"   ..........................................................................   ",
"   ..........................................................................   ",
"   ..........................................................................   ",
"   ..........................................................................   ",
"   ..........................................................................   ",
"   ...........................................+.+++..........................   ",
"   ............*--&......@.................++$$%%=%%++.......................   ",
"   ...........@>,,&.....................++$$%%%%%%%%%+.......................   ",
"   .........@@@>>>&#@@.................$$%%%%%%%%%%%%%+......................   ",
"   .......@&>#@**$&->>&.............++$$%%%%%%%%%%%%%%+......................   ",
"   ......@&>*@*'=$.&>,&..@.....###@#$========;=%%%%%%=+..+...................   ",
"   .......***##$$+.@&#.........>),),)')')')')'=%%%%%%$+......................   ",
"   .......#*&*##++.............))))))'''''')''$%%%%%%$.@.....................   ",
"   .......@#&&&&&#&#@.........#,))))'$%%%%%$%$==;=%%%+...*>>>->>>>>*&........   ",
"   ......@.@@##&#&&&.....@...+-)))))=%%%%%%%%;')))'=$+...,))))))))))))&......   ",
"   ...........@@#@#@........+$'))))'=%%%%%%%%;)))));+...@,))))*@&>)))))#.....   ",
"   ..............@.@.......$%='))))'$%%%%%%%%=')))'=....&)))))@..#,))))>.....   ",
"   .......................+$%=)))));;;;;;;'=%$%*;=*.....-))))>....,))))-.....   ",
"   .....&>---------------;;;;')))))))))))))'=;;;;'#....@,))))*...&)))))-.....   ",
"   .....*>>>>->>>->>>->-;;;;')))))';;;;;;;;;)))))>.....#)))))@..#>)))),@.....   ",
"   ....................$$%%%;)))))=%%%%%%%%='))))-.....-)))),##-,)))),#......   ",
"   ...................+$%%%$'))))'=%%%%%%%%=)))))@.....>))))))))))),-@.......   ",
"   ..............+...+$%%%%=)))))'%%%%%%%%%'))))>@....#)))))------&@.........   ",
"   ..................+%%%%%;)))))*%%%%%%%%='))))*.....*)))),.................   ",
"   .................+%%%%%%)))))'=%%%%%%%%=)))))#.....>))))>.................   ",
"   .................$%%%%%;)))));%%%%%%%%$'))))>.....@)))))&.................   ",
"   ................+$%%%%=')))))=%%%%%%=$&)))))-.....-)))),@.................   ",
"   ................+%%%%%=)))))'=%%%%%%+.*)))))#..#@.>)))),..................   ",
"   ................$%%%%%'))'))'%%%=%$++.-))))>..&>#&)))))-..................   ",
"   ...............+$%%%%%======%%%%$+....#)))),&->#.@&&@#&#..................   ",
"   ..........@...@.$%%%%%%%%%%%%%%++......#>>,,,*@...........................   ",
"   ................+%%%%%%%%%%%$+............................................   ",
"   ................++$$=%%$$$+++.............................................   ",
"   ...................+++++..................................................   ",
"   ..............................@...........................................   ",
"   ..........................................................................   ",
"                                                                                ",
"                                                                                ",
"                                                                                ",
"                                                                                ",
"                                                                                ",
"                                                                                ",
"                                                                                ",
"                                                                                ",
"                                                                                ",
"                                                                                ",
"                                                                                ",
"                                                                                ",
"                                                                                ",
"                                                                                ",
"                                                                                ",
"                                                                                ",
"                                                                                ",
"                                                                                ",
"                                                                                ",
"                                                                                ",
"                                                                                ",
"                                                                                ",
"                                                                                "};
