/* XPM */
static char * FIP_xpm[] = {
"80 80 16 1",
" 	c None",
".	c #100C0D",
"+	c #191917",
"@	c #231F20",
"#	c #313230",
"$	c #544A4C",
"%	c #EC0178",
"&	c #ED0181",
"*	c #D22D81",
"=	c #AA4575",
"-	c #EB2F8B",
";	c #EF59A1",
">	c #908D8F",
",	c #F495BE",
"'	c #F2C2D7",
")	c #FDFBFB",
"                                                                                ",
"                                                                                ",
"                                                                                ",
"                                                                                ",
"                                                                                ",
"                                                                                ",
"                                                                                ",
"                                                                                ",
"                                                                                ",
"                                                                                ",
"                                                                                ",
"                                                                                ",
"                                                                                ",
"                    %%%%%%%%%%%%%%%%%%%%%%%%%%%%%%%%%%%%%%%%%%%%%%              ",
"                    -%&&&&&&&&&&&&&&&&&&&&&&&&&&&&&&&&&&&&&&&&&&&%              ",
"                    -&&&&&&&&&&&&&&&&&&&&&&&&&&&&&&&&&&&&&&&&&&&&&              ",
"                    -%&&&&&&&&&&&&&&&&&&&&&&&&&&&&&&&&&&&&&&&%&&&%              ",
"                    -&&&&&&&&&&&&&&&&&&&&&&&&&&&&&&&&&&&&&&&&&&&&&              ",
"                    -%&&&&&&&&&&&&&&&&&&&&&&&&&&&&&&&&&&&&&&&&&&&%              ",
"                    -&&&&&&&&&&&&&&&&&&&&&&&&&&&&&&&&&&&&&&&&&&&&&              ",
"                    -%&&&&&&&&&&&&&&&&&&&&&&&&&&&&&&&&&&&&&&&%&&&%              ",
"                    -&&&&&&&&&&&&&&&&&&&&&&&&&&&&&&&&&&&&&&&&&&&&&              ",
"            .++.++.#*&&&&&&&&&&&&&&&&&&&&&&&&&&&&&&&&&&&&&&&&&&&&%              ",
"            .@@@@@+$*&&&&&&&&&&&&&&&&&&&&&&&&&&&&&&&&&&&&&&&&&&&&&              ",
"            .@@@@@+$*&&&&&&&&&&&&&&&&&&&&&&&&&&&&&&&&&&&&&&&&%&&&%              ",
"            .@@@@@+$*&&&&&&&&&&&&&&&&&&&&&&&&&&&&&&&&&&&&&&&&&&&&&              ",
"            .@@@@@+#*&&&&&&&&&&&&&&&&&&&&&&&&&&&&&&&&&&&&&&&&&&&&%              ",
"            .@@@@@+$*&&&&&&&&&&&&&&&&&&&&&&&&&&&&&&&&&&&&&&&&&&&&&              ",
"            .@@@@@+$*&&&&&&&&&&&&&&&&&&&&&&&&&&&&&&&&&&&&&&&&%&&&%              ",
"            .@@@@@+$*&&&&&&&&&&&&&&&&&&&&&&&&&&&&&&&&&&&&&&&&&&&&&              ",
"            .@@@@@+#*&&&&&&&&&&%&&&%&&&&&&&&&&&&&&&&&&&&&&&&&&&&&%              ",
"            .@@@@@+$*&&&&&&&&&&&&&&&&&&&&&&&&&&&&&&&&&&&&&&&&&&&&&              ",
"            .@@@@@+$*&&&&&&%%%%%&%%%%%&&&&&&&&&&&&&&&&&&&&&&&%&&&%              ",
"            .@@@@@+$*&&&&&%%&---%--;--&&&&&&&&&&&&&&&&&&&&&&&&&&&&              ",
"            .@@@@@+#*&&&&%-;''),-,)''-&%&&&&&%&%&%&&&&&&&&&&&&&&&%              ",
"            .@@@@@+$*&&&&-')))))-')));%&&&&&&&&&&*&&&&&&&&&&&&&&&&              ",
"            .@@@@@+$*&&&%;)))))'-,)))-%%&%&%&%&&&&&%&&&&&&&&&%&&&%              ",
"            .@@@@@+$*&&&%,)))';;&,')';&&%&&&%&%%%&&&&&&&&&&&&&&&&&              ",
"            .@@@@@+#*&&%&,)));%%&;,;,--;;;-%;;,-%%&%&&&&&&&&&&&&&%              ",
"            .@@@@@+$*&%;,)))))',%'))';-)));,)))),-&&&&&&&&&&&&&&&&              ",
"            .@@@@@+$*&%;))))))),%,)))*;))))))))));%&&&&&&&&&&%&&&%              ",
"            .@@@@@+$*&%;)))))))'%')))--))))),)))))-&&&&&&&&&&&&&&&              ",
"            .@@@@@+#*&&-,')))',;%')))-;))));%-)))),%&&&&&&&&&&&&&%              ",
"            .@@@@@+$*&&&%,))),%%&')));;)))'-&-'))),%&&&&&&&&&&&&&&              ",
"            .@@@@@+$*&&&&,)));%%%,)))*;))),%%%,))),%&&&&&&&&&%&&&%              ",
"            .@@@@@+$*&&&%,))),%&%')))--))),-%&,))),%&&&&&&&&&&&&&&              ",
"            .@@@@@+#*&&&&,)));%%%')))-;))),%&%,))),%&&&&&&&&&&&&&%              ",
"            .@@@@@+$*&&&%'))),%&%')));;)))'-%-'))),%&&&&&&&&&&&&&&              ",
"            .@@@@@+$*&&&&,)));%&%,)))*;))));%*)))';%&&&&&&&&&%&&&%              ",
"            .@@@@@+$*&&&%,))),%&%')));-))))),))))'%&&&&&&&&&&&&&&&              ",
"            .@@@@@+#*&&%&,)));%%%')))-;))))))))));%&&&&&&&&&&&&&&%              ",
"            .@@@@@+$*&&&%'))),%&%'))';;)))'))))),-%&&&&&&&&&&&&&&&              ",
"            .@@@@@+$*&&&&-;=;%&&&*;=;%;))),-;;;-%%&&&&&&&&&&&%&&&%              ",
"            .@@@@@+$*&%&&&%&%&&&&&%&%%;))),*%&%&&&&&&&&&&&&&&&&&&&              ",
"            .@@@@+.#*&&%&&&%&%&%&&&%&%;))),%&%&&&&&%&%&%&&&&&&&&&%              ",
"            .@@@+$>>*&&&&&&&&&&&&&&&&%;)))'-%&&&&&&&&&&&&&&&&&&&&&              ",
"            .@@@.$)'-%&&&&&&&&&&&&&&&%-;;;;%&%&&&&&&&&&&&%&&&%&&&%              ",
"            .@@@.$))-%%&&&&&&&&&&&&&&&%%%%%&&&&&&&&&&&&&&&%&%&%&%&              ",
"            .@@+.$)',;,==================================-;-;;;-;-              ",
"            .+#)>$')')))#################################                       ",
"            ..>)'.@@##')#.+++++++++++++++++++++++++++++.+                       ",
"            .+$))'$>@#>)#+@@@@@@@@@@@@@@@@@@@@@@@@@@@@@@@                       ",
"            ++@>)))'$#>@@@@@@@@@@@@@@@@@@@@@@@@@@@@@@@@+@                       ",
"            .#+#>)))$.++@@@@@@@@@@@@@@@@@@@@@@@@@@@@@@@@@                       ",
"            .@@+.@>>$.@@@@@@@@@@@@@@@@@@@@@@@@@@@@@@@+@+@                       ",
"            .@@@@+..+@@@@@@@@@@@@@@@@@@@@@@@@@@@@@@@@@@@@                       ",
"            .............................................                       ",
"                                                                                ",
"                                                                                ",
"                                                                                ",
"                                                                                ",
"                                                                                ",
"                                                                                ",
"                                                                                ",
"                                                                                ",
"                                                                                ",
"                                                                                ",
"                                                                                ",
"                                                                                ",
"                                                                                "};
