/* XPM */
static char * FOX NEWS_xpm[] = {
"80 80 16 1",
" 	c None",
".	c #020101",
"+	c #3D0119",
"@	c #1A1A1A",
"#	c #3E3E3E",
"$	c #D7183C",
"%	c #595A5B",
"&	c #6F7070",
"*	c #DE4D72",
"=	c #808383",
"-	c #919293",
";	c #A5A5A5",
">	c #ED92A9",
",	c #BFBFBF",
"'	c #E9E0E2",
")	c #FEFDFD",
"                                                                                ",
"                                                                                ",
"                                                                                ",
"                                                                                ",
"                                                                                ",
"                                                                                ",
"                                                                                ",
"                                                                                ",
"                                                                                ",
"                                                                                ",
"                                                                                ",
"                                                                                ",
"                                                                                ",
"                                                                                ",
"                                                                                ",
"             @.......#')))),.....-))))))#..........................             ",
"             @.......&)))))=....#,)))))&...........................             ",
"             @.....+.;))))'%++.@;))))),@...........................             ",
"             @..++++#,)))),.+++%)))))'%............................             ",
"             #+$+@++#'))))%....-)))));++++.........................             ",
"             ++.....%'))),@...#')))),...@++++......................             ",
"             @......=)))),....-)))))#.....+$++.....................             ",
"             @......;))))&...@'))))-........+++++..................             ",
"             @.....@,)))'#...&))))'#...........++@.................             ",
"             @.....%))));...@,)))'&.............@+++...............             ",
"             @.....&))))#...&)',,=................+$+..............             ",
"             @.....=)))'@..@'),%;-====;-#...@#&==#@.@=-==@..%==--..             ",
"             @....@,)))=...&));=')))))))%..&,))))),%.;))),.@,)));@.             ",
"             @....#,)))#..@,)),=)))))))'%.&))))')))'%+'))'%%)))'#..             ",
"             @....%))),@..%)));='))))))'#%')))-#;)))'##)))'')))&...             ",
"             @....=)))&...,)))%%))),%####,))))%.%')));.;)))))),....             ",
"             @...@-)))#..&')),.&)))=.@@.%)))))%.%)))))##')))))%....             ",
"             @...@,));..@,)))%.&))),,,'&;))))'%.%'))))-.-))))=.....             ",
"             @...#'))&..%)));@.-)))))));;)))))%.%)))));.%))))%.....             ",
"             @...%))'#..,))'#..=)))))))-;)))))%.%'))))=@')))),#....             ",
"             @...-))-@.&)))=...-)))';,;#%)))))%.%))))'#&))))))-@...             ",
"             @...=))&..,)),....=)))&....#'))))%.&')));#,)))))))#...             ",
"             @..@,)'#.%)))#....-)))=.....&)))),&,)))'#-)));;))),@..             ",
"             @..#');..,))&.....=)))-@.....-))))))))'#@))),@@')));..             ",
"             @..%))=.%'),@.....-)));.......&,))))),%.')))=..=))))#.             ",
"             @..=)'@.;)'#......@&%&#........@%&&&#@.@&&&%...@%&&&@.             ",
"             @.@,)-.#''%.........................................@.             ",
"             @.@)'%.=-=%%...@%&#@%&#%%%%%#%&&...#=&...&=#.@=,,,#..+             ",
"             #.%)'@#;;'))-..#'),#,)))))),&;))%.#,)'#.#')&#,)))))-@.             ",
"             @.%)-.-';)))'#.#'),%;))))))'@-))=.%)))#.#)'&-))',)))#.             ",
"             @.;)%@);-)))),@#'),#,)),;;,-@%));.=)))=.=)'&')'@@=''%.             ",
"             @@,,.=)#%)))))#@,);#,)'#.....%))-.-)))-.;)-&'),%......             ",
"             @@)=@',.=))))),@,),#,))=&&&@.#'),@-))),@')=@)))''=%@..             ",
"             .#'#&)#.-)',')',');#;))))))&.@,),%;)')'=')%.-))))))'@.             ",
"             @-,@'=..;))=%')))),#,))''))#..-)),),-'))),#.@=')))));.             ",
"             @,=='@..-))=.,))));#;)'&#&%@..%))))&@'))),...@@%='))'@             ",
"             #;;'&...;));.%)))),#,)'@......#')))&.,)));.%,,%..=)))#             ",
"             #;,,....-));..;)));%;)';----@.@,)))&.;)))=.-))'-%,)),@             ",
"             &,,#....;));@.#')),#,)))))))=..-)))#.;)))#.#')))))))%.             ",
"             ='%.....;));...=));%,)))))))%..&)),#.=)),@..%'))))'&..             ",
"             ;&......#%%@....#%#.#%%%%%%#@..@%%#..@%%#....@%%&#@...             ",
"             ,@.@.@.@...@.@.@...@.........@.@...@.....@.@.......@.@             ",
"                                                                                ",
"                                                                                ",
"             *$$$$$$$$$>*$$$$$$$$$$$$$$$$$$$$$$$$$$$$$$$$$$$$$$$*>$             ",
"             $$$***$%+*''$*$$$$$***$$$$$*$**$$$$*$**$$%$$$**$#$$''$             ",
"             **''''>$$*)'')'$*$>')'>$%$>''')*$$*''>)>$$*>''),*$*')$             ",
"             $>)>$'*$$*'>*)'*$$>',),$$$>)*>)>$$*)>*''$$$')>>)*$$')*             ",
"             **)''>*$$*)>*''$$$'''''$$$>)**)>$$>)>$''%$%>'>'>*$*')$             ",
"             $$*>-*$$#***$**$+$*>***$+$$>$%**$$$>%$**$$$$*>**+$$**$             ",
"                                                                                ",
"                                                                                ",
"                                                                                ",
"                                                                                ",
"                                                                                ",
"                                                                                ",
"                                                                                ",
"                                                                                ",
"                                                                                ",
"                                                                                ",
"                                                                                ",
"                                                                                ",
"                                                                                ",
"                                                                                ",
"                                                                                "};
