/* XPM */
static char * France Musiques_xpm[] = {
"80 80 16 1",
" 	c None",
".	c #1F1C1D",
"+	c #951034",
"@	c #433938",
"#	c #9D183F",
"$	c #5F4447",
"%	c #A32247",
"&	c #A72B4F",
"*	c #913F51",
"=	c #73555A",
"-	c #AE495F",
";	c #938285",
">	c #BF7281",
",	c #D19FA7",
"'	c #E2C7CA",
")	c #F9F5F3",
"                                                                                ",
"                                                                                ",
"                                                                                ",
"                                                                                ",
"                                                                                ",
"                                                                                ",
"                                                                                ",
"                                                                                ",
"                                                                                ",
"                                                                                ",
"                                                                                ",
"                                                                                ",
"                    &+###+###+###+###+###+###+###+###+###+###+###+              ",
"                    -%&&&&&&&&&&&&&&&&&&&&&&&&&&&&&&&&&&&&&&&&&&&%              ",
"                    -%&&&&&&&&&&&&&&&&&&&&&&&&&&&&&&&&&&&&&&&&&&&%              ",
"                    -%&&&&&&&&&&&&&&&&&&&&&&&&&&&&&&&&&&&&&&&&&&&&              ",
"                    -#&&&&&&&&&&&&&&&&&&&&&&&&&&&&&&&&&&&&&&&&&&&%              ",
"                    -%&&&&&&&&&&&&&&&&&&&&&&&&&&&&&&&&&&&&&&&&&&&%              ",
"                    -%&&&&&&&&&&&&&&&&&&&&&&&&&&&&&&&&&&&&&&&&&&&%              ",
"                    -%&&&&&&&&&&&&&&&&&&&&&&&&&&&&&&&&&&&&&&&&&&&&              ",
"                    -%&&&&&&&&&&&&&&&&&&&&&&&&&&&&&&&&&&&&&&&&&&&%              ",
"            .......@*&&&&&&&&&&&&&&&&&&&&&&&&&&&&&&&&&&&&&&&&&&&&%              ",
"            .......@*%&&&&&&&&&&&&&&&&&&&&&&&&&&&&&&&&&&&&&&&&&&&%              ",
"            .@...@.$*&&&&&&&&&&&&&&&&&&&&&&&&&&&&&&&&&&&&&&&&&&&&&              ",
"            .......@*%&&&&&&&&&&&&&&&&&&&&&&&&&&&&&&&&&&&&&&&&&&&%              ",
"            .......$*&&&&&&&&&&&&&&&&&&&&&&&&&&&&&&&&&&&&&&&&&&&&%              ",
"            .......@*%&&&&&&&&&&&&&&&&&&&&&&&&&&&&&&&&&&&&&&&&&&&%              ",
"            .@...@.$*&&&&&&&&&&&&&&&&&&&&&&&&&&&&&&&&&&&&&&&&&&&&&              ",
"            .......@*%&&&&&&&&&&&&&&&&&&&&&&&&&&&&&&&&&&&&&&&&&&&%              ",
"            .......$*&&&&&&&&&&&&&&&&&&&&&&&&&&&&&&&&&&&&&&&&&&&&%              ",
"            .......@*%&&&&&&&&&&&&&&&&&&&&&&&&&&&&&&&&&&&&&&&&&&&%              ",
"            .@...@.$*&&&&&&&&&&&&&&&&&&&&&&&&&&&&&&&&&&&&&&&&&&&&&              ",
"            .......@*%&&&&&&&&&&&&&&&&&&&&&&&&&&&&&&&&&&&&&&&&&&&%              ",
"            .......$*&&&&&&&&&&&&&&&&&&&&&&&&&&&&&&&&&&&&&&&&&&&&%              ",
"            .......@*%&&&&&&&&&&&&&&&&&&&&&&&&&&&&&&&&&&&&&&&&&&&%              ",
"            .@...@.$*&&&&&&&&&&&&&&&&&&&&&&&&&&&&&&&&&&&&&&&&&&&&&              ",
"            .......@*%&&&&&&&&&&&&&&&&&&&&&&&&&&&&&&&&&&&&&&&&&&&%              ",
"            .......$*&&&&&&&&&&&&&&&&&&&&&&&&&&&&&&&&&&&&&&&&&&&&%              ",
"            .......@*%&%&&&%&&&&&&&&&&&&&&&&&&&&&&&&&&&&&&&&&&&&&%              ",
"            .@...@.$*&&-&*&&&*&&&&&*&&&&&&&&&&&&&&&&&&&&&&&&&&&&&&              ",
"            .......@*%&$=&&%&&&%&&&%&&&%&%&&&%&&&&&&&&&&&&&&&&&&&%              ",
"            .......$*&*@$*&*#$&*&$&-$$&-#*&&&&&&&&&&&&&&&&&&&&&&&%              ",
"            .......@*&$.*@@=$.=$@.$=$.$$@@*&&&&&&&&&&&&&&&&&&&&&&%              ",
"            .@...@.$*&$@$@@=$@@@@=$@$*$@@$$*%*&&&&&&&&&&&&&&&&&&&&              ",
"            .......@*%=.+.=+@.@.$$$.@#$.@@$*-&&&&&&&&%&&&%&&&&&&&%              ",
"            .......$*&*$#$==@$$$$=$=@$#$$$+,'>%&%&&&&&&&&&&*%&%&&&              ",
"            .......@*%*#%#*#*#*#*%*%$$&%%+%')>%#%%%%%%&%%%&%%%%%&%              ",
"            .@...@.$*%>,>'>>>'>>,>&>,->',,&,'>-,',>>>,&-,>%>,'>*%&              ",
"            .......@*#'))))'))',),&')>)'')>,);'))'),''->),>))')>%%              ",
"            .......$*%')>,))>')')'&')')),,-'),))-,),,)->)''),,))-%              ",
"            .......@*#')>-),#,),),%,)>'))),'),)'+-),''--)')))')'-#              ",
"            .@...@.$*%')>>)'#')')'*)),>,,)))),))%,),,)-,))))>>,,&%              ",
"            .......@*#')>;)'%,),))'))'),,''');')''),')')),,)',),&#              ",
"            .......@*%,'->',%,'>,)'',>,))'-,'>-'')),-)''',*,'),>%%              ",
"            .....@;;-%-&&&-&&&-%&--&-&&--%%&-&%&-,),+--%*&&%--&#&%              ",
"            .@...=))-%%%%&%&&&%&%%%%%&%%%&&&%&&%#,'>#%%&%&&&%%%&&&              ",
"            .....@)'-+%%&&&&&&&&&&&&&&&&&&&&&&&&&&-&&&&&&%%%%#%#%#              ",
"            .....=))>>>>*=*=*=*=*=*=*=*=*=*=*=*=***=*=*=*                       ",
"            ..@,;@'')))'@.@.@.@.@.@.@.@.@.@.@.@.@.@.@.@..                       ",
"            ..=),..@@@')@................................                       ",
"            ..=));=$..',@................................                       ",
"            ...'))))=@=@.................................                       ",
"            ....;'));....................................                       ",
"            .@...@=,$....@...@...@...@...@...@...@...@...                       ",
"            .............................................                       ",
"            .............................................                       ",
"                                                                                ",
"                                                                                ",
"                                                                                ",
"                                                                                ",
"                                                                                ",
"                                                                                ",
"                                                                                ",
"                                                                                ",
"                                                                                ",
"                                                                                ",
"                                                                                ",
"                                                                                ",
"                                                                                ",
"                                                                                "};
