/* XPM */
static char * France CULTURE_xpm[] = {
"80 80 16 1",
" 	c None",
".	c #201C1D",
"+	c #3F3942",
"@	c #692189",
"#	c #6E278E",
"$	c #553F61",
"%	c #722F92",
"&	c #67397E",
"*	c #773694",
"=	c #6C517B",
"-	c #7B4796",
";	c #8F61A7",
">	c #A17DB6",
",	c #B89EC8",
"'	c #DCD0E4",
")	c #F9F8FB",
"                                                                                ",
"                                                                                ",
"                                                                                ",
"                                                                                ",
"                                                                                ",
"                                                                                ",
"                                                                                ",
"                                                                                ",
"                                                                                ",
"                                                                                ",
"                                                                                ",
"                                                                                ",
"                    *@@@@@@@@@@@@@@@@@@@@@@@@@@@@@@@@@@@@@@@@@@@@.              ",
"                    -%*******************************************%              ",
"                    -%*****************************************%*%              ",
"                    -%*******************************************%              ",
"                    -#*******************************************%              ",
"                    -%*******************************************%              ",
"                    -%*****************************************%*%              ",
"                    -&*******************************************%              ",
"                    -%*%*****************************************%              ",
"            .......+-********************************************%              ",
"            .......+-******************************************%*%              ",
"            .+...+.$-********************************************%              ",
"            .......+-%*******************************************%              ",
"            .......$-********************************************%              ",
"            .......+-******************************************%*%              ",
"            .+...+.$-********************************************%              ",
"            .......+-%*******************************************%              ",
"            .......$-********************************************%              ",
"            .......+-******************************************%*%              ",
"            .+...+.$-********************************************%              ",
"            .......+-%*******************************************%              ",
"            .......$-********************************************%              ",
"            .......+-******************************************%*%              ",
"            .+...+.$-********************************************%              ",
"            .......+-%*******************************************%              ",
"            .......$-********************************************%              ",
"            .......+-**********************************%***%*****%              ",
"            .+...+.$-*********************************************              ",
"            .......+-%************************-**%*******%*******%              ",
"            .......$-************************-$-***-***-*********%              ",
"            .......+-************************++$@&&.&&@+-*@@-@$&*%              ",
"            .+...+.$-************************$.$.=$.+++++$+$$++$*&              ",
"            .......+-%*******%*******@@%*%#%*$+++&$+$.$$..==++$+-#              ",
"            .......$-**************%*,,>#->;*=.$.&++++$=++.$$+.$-%              ",
"            .......+-%*%%%%%**%#**%@-')>@,)>#&$$&%$+&$&%&&@+%$$%*%              ",
"            .+...+.$-**%&;;-#--;**---)),*'),-;;;*-;;*;-;-**;;;%***              ",
"            .......+-%%>'')';;'';*'';'),')))),''@;),>,'''*,')',-%%              ",
"            .......$-%-)))')',));-))>')'')))',))@>)'>)))',)),)),%%              ",
"            .......+-#,))--,',));*)'>')>%,)>%>)'@;),>'),;')';,)'-@              ",
"            .+...+.$-#')'*@&@>));-));')>@'),@,))@>)'>));%)))))'';#              ",
"            .......+-#'))%#>>>));&)'>')>%,)>@>)'@;),>')-&'),;;,,-#              ",
"            ...+...+-%>)),,)),'),,));'),%')'>,)),')'>));#')';,)'-#              ",
"            .....+,=-#*,)))),*'))')'>')>@,)))>'))))'>');@;'))));%#              ",
"            .+...=))-%%->',>*&;,,;>>->>;#;,',-;,>>>>->>-#%;,,,;*%%              ",
"            .....+)'-@%##%*@%*#%*##@%@@#*%#*%%#%%##@%@@%*%@@%@@#%#              ",
"            .....=))>>>>==&-=======-===-===========-===-=;;>;>;>;;              ",
"            ..+,;+','))'+.+.+.+.+.+.+.+.+.+.+.+.+.+.+.+..                       ",
"            ..=),..++=')+................................                       ",
"            ..=)),=+..',+................................                       ",
"            ...,))))=+=+.................................                       ",
"            ....>'))=....................................                       ",
"            .+...+=,+....+...+...+...+...+...+...+...+...                       ",
"            .............................................                       ",
"            .............................................                       ",
"                                                                                ",
"                                                                                ",
"                                                                                ",
"                                                                                ",
"                                                                                ",
"                                                                                ",
"                                                                                ",
"                                                                                ",
"                                                                                ",
"                                                                                ",
"                                                                                ",
"                                                                                ",
"                                                                                ",
"                                                                                "};
