/* XPM */
static char * France Musiques old_xpm[] = {
"80 80 16 1",
" 	c None",
".	c #141112",
"+	c #1E181B",
"@	c #1E1D21",
"#	c #242023",
"$	c #1E2531",
"%	c #2B2628",
"&	c #31343D",
"*	c #4B4A4F",
"=	c #66666B",
"-	c #82848A",
";	c #67A7E2",
">	c #AEAEB4",
",	c #8FBEE5",
"'	c #BBDBEF",
")	c #E4F7FC",
"                                                                                ",
"                                                                                ",
"                                                                                ",
"                                                                                ",
"                                                                                ",
"                                                                                ",
"                                                                                ",
"                                                                                ",
"                                                                                ",
"                                                                                ",
"                                                                                ",
"                                                                                ",
"                                                                                ",
"                                                                                ",
"                                                                                ",
"                                                                                ",
"                                                                                ",
"                                                                                ",
"                                                                                ",
"                                                                                ",
"                                                                                ",
"                                                                                ",
"                                                                                ",
"                                                                                ",
"                                                                                ",
"   ....+..&&&@...+.+.+.+.+.+.+.+.+.+.+.+...+.+.+.+.+...........+...+...+.+.+.   ",
"   .%%#%+='>>$$$%#%%%%%%%%%%%%%%%%%%%%%#%#+++###%%%#%%%#%%%#%#%#%%%#%#%%#%%%.   ",
"   .%%@@.>')-$.@+%%%%%%%%%%%%%%%%%%%%%%&%****&%%%%%%%%%%%%%#%&%%%%%%%%%%#&%%.   ",
"   .$%==&*>>-=-=*#%%%%%%%%%%%%%%%%%%%%%%#-)')*.++#%+++%%++++#%%#++##++++%%%%.   ",
"   .%->-$--;*=>)>*#%%%%%%%%%%%%%%%%%%%%%%'>**%&===%--=#@&==-&%@*=-&+&-=##%%%.   ",
"   .*->**''>=@->=##%%%%%%%%%%%%%%%%%%%%.*'>*&@'))=*>>'=.>)''>.%>)>=&'>)-@#%$.   ",
"   .=>->=;==$$**%%%%%%%%%%%%%%%%%%%%%%%+*)))=$)'*&&==)-#>)%>'%>)*@&)'*>)&@%%.   ",
"   .&===-*=&&%%+#%%%%%%%%%%%%%%%%%%%%%%@-'*&#*)=.%'>>)*%)-.>)%'>..&)'>>>&+%#.   ",
"   .%*===-==--*%%%%&%%%%%%%%%%%%%%%%%%##>)%++-'*.-)=-)%=)*$)>@>)=*&)>*=*#%%%.   ",
"   .%#*======-*+%%%$%%%%%%%%%%%%%%%%%%#%>-##+->.@&)>>>#='%&>=.*>)-#=)'>&@%%%.   ",
"   +%%#&%*====%%%%%%%%%%%%%%%%%%%%%%%&%&&%@&#*&%%%&*%&#&&%%&#&.&**@$&*&%%%%%.   ",
"   .%$%@#+%%%%#%%$%%%%%%%%%%%%%%%%%%%%%@.@%$%@@$%$@@@@%$@$%@$$%#@@%$@.@$%$%%.   ",
"   .#$#@####@%########################+*-&+$###$@###@######%###$@#@#@#@$@###.   ",
"   @&&&&&&&$&&&&&&&&&&&&&&&&&&&&&&&&&%%-)&&&&&&&&&&$&&&&&&&$&&&$&&&&&&&&&&&&$   ",
"   ;;,;;;,;>;>;,;,;>;,;;;,;;;,;;;>;,;>;',;;;;>;;;,;;;,;;;>;>;,;;;,;>;,;>;,;,;   ",
"   ;;;;;;;;;;;;;;;;;;;;;;;;;;;;;;;;;;;;;;;;;;;;;;;;;;;;;;;;;;;;;;;;;;;;;;;;;;   ",
"   ;;,;,;,,,;;;,,,;;;;;;;;;;;;;;;,,,;;;,;;;;;',>;,;,;,;,;;;,;,;;;,,,;;;;;,,,;   ",
"   ;;')'')))',)))),;;,';;;;,),;,)'))';,',;;')')',',='',;;;,',;;,)))',;;,)'))'   ",
"   ;;)))))))))')))),;)';;;;');,),,;',;');>'),>;)));;');;;;,);;'),,;'),;)',;,,   ",
"   ;,))),-'))';-)));;'';;;;')=');=;;;-'';,),;;;;)';;),;;;-'';,),;=;;);,)>=;;;   ",
"   ;,))';;')),;>'));;),;;;;)';;)',;;;,)';)',;;;,)';,)';,;,)';')>;,;,)';)),;,;   ",
"   ='));;;'));;;))'-'),;;;,),;;,)),;;,)>;)';;;;;),;,),;;;;),;'))))))),;;))'-;   ",
"   ;'))>;,))',;,)),;');;;;,),;;;;))';'),;),;;,;,),;'),;;;'),;)',,',,,,;;;')';   ",
"   ;))';;;)),;;,)),;'';;;;');;;;;-)';'';,),;;;;,);;')-;;;');;',-;;;;;;;;;-'';   ",
"   ,)),;;')),;;)));;')-;;')';;;;;>'';)';;)';;;,)';;));;;')';;'',;;;,;;;;;;');   ",
"   ,)),;;')),;;')';;,))>')),;'','));;)';;,)'''))';;,)'''))'-;,)'',)';,),'')>;   ",
"   ,'',;;''';;;''';;;'))',,,;'')'),;,',;;>,)'',),;;;,)''>',;;;,'')'';'')'),;;   ",
"   ;;-;;;;;;;;;;;-;;;-;;;;;;;-;;;;;;;;;;;;;;;-,),;;;;-;;;;;;;;;;;;;;;;;;;;;;;   ",
"   ;;;;;;;;;;;;;;;;;;;;;;;;;;;;;;;;;;;;;;;;;;;,);;;;;;;;;;;;;;;;;;;;;;;;;;;;;   ",
"   >,,,>,,,,,,,,,,,,,,,,,,,,,,,,,,,,,,,>,,,,,,)',,,,,,,,,,,,,,,,,,,,,,,,,,,,,   ",
"                                                                                ",
"                                                                                ",
"                                                                                ",
"                                                                                ",
"                                                                                ",
"                                                                                ",
"                                                                                ",
"                                                                                ",
"                                                                                ",
"                                                                                ",
"                                                                                ",
"                                                                                ",
"                                                                                ",
"                                                                                ",
"                                                                                ",
"                                                                                ",
"                                                                                ",
"                                                                                ",
"                                                                                ",
"                                                                                ",
"                                                                                ",
"                                                                                ",
"                                                                                ",
"                                                                                ",
"                                                                                "};
