/* XPM */
static char * France O_xpm[] = {
"80 80 11 1",
" 	c None",
".	c #FD7D00",
"+	c #F08616",
"@	c #F08834",
"#	c #F0993D",
"$	c #EFA157",
"%	c #F5BA75",
"&	c #F4C286",
"*	c #FAD6AE",
"=	c #FBF0DC",
"-	c #FCFCFA",
"                                                            =-                  ",
"                                                          &%&=                  ",
"                                                     *&$$#@@$*                  ",
"                                                  &$$@+...+.#*                  ",
"                                            %%#+.......+...+#*                  ",
"                                        *&$$#++.........+...@*                  ",
"                                   *&#+...........+.........@=                  ",
"                               &%#++@..................@+.+.@*                  ",
"                           &&$$+++.........+................@*                  ",
"                      &%#+............+......+.@.+......@...#*                  ",
"                  &%$#+@+..+@+#+...+.....................+..@=                  ",
"                &$+......+.+#&&#++................+....+.+..@&                  ",
"                %.+...+..+..%**@$*%%@$&*$@$&%*&..$*&@++&**$+@*                  ",
"                &...........%=*+$-%%#&&=%.%*%**@$**&%##**=&@@*                  ",
"                %.........+.+*&.$=$+#%%**+*=@*=@$=@+$$&*&&*$$*                  ",
"                &..........+#*&.$=#+#&&*&@&*@%*+$=@@$$&*&&&$#*                  ",
"                %..........@#&&.#*+@@*&=&@**+$*##=$$%&&*&%%@$=                  ",
"                &+.........+#&#+#%+.+&*&%@$%+#%++#*%$+#%*&%+@*                  ",
"                %........+.++++.@#+..@@#+.#@+###+###+@++##.++*                  ",
"                &....+......+...++...++..+@#%%%%##.+...+.+..+*                  ",
"                %............+..+.+...+..@$*=====*#+......@.+*                  ",
"                &..............+........#&*=--==--*$@+......@*                  ",
"                &........+.@.......+..@$*----=*==--=*$.+.+..@*                  ",
"                &...............@....@&*=---&$@$*=--=*$.....#*                  ",
"                &....+.+.........+.+.$*----=$.+.$*---=*$....@*                  ",
"                &........+.........+&*=***&@....++&**=**%@+.@*                  ",
"                &..................+#$$$$$#@@++.@+$$%$$&#@..@*                  ",
"                %+...........+.......+.+@@$##$$$####+@+.+.+.@=                  ",
"                %..................++@$&***====*-=***%$#++..+*                  ",
"                &.............+.+..@@&**=--------=--==*&$@..#*                  ",
"                &................@$&*--------------------*%@$*                  ",
"                &........+......+$*-=---=----------------==&&*                  ",
"                &..........+..+@#&==-------=-=----=-=-----=*==                  ",
"                &.............+%*=----=------------=----------                  ",
"                %.............@*=----=-=-------------------=--                  ",
"                &.......+....@&----=--------------------------                  ",
"                &............$==----------=*&&$%&&==-=-=------                  ",
"                &....+..+....&=----------=*$@+..++&-----------                  ",
"                %..........@$=---------=*#.........#*=------=-                  ",
"                &.........+.&-----------%++.........&=-------=                  ",
"                %+..........&=---------=%...+.......$=--------                  ",
"                &..........@*----------*@...........@*=-------                  ",
"                %..........@*----------%@......+...++&--------                  ",
"                &..........$=----------#@+...........$=-------                  ",
"                &..........$=--=-------@.............$=-------                  ",
"                &.....@...@$----------=+.......+.....@*-------                  ",
"                %..+.......&---=------=+.............@=-=-----                  ",
"                &..........%---=-------@............+#=---=---                  ",
"                %..........%---=------=+...+.+.......@=-------                  ",
"                &.........+$---=------=+.............@=----=--                  ",
"                %..........%----------=+...........+.#=-------                  ",
"                &..........$=--=------=+..+...+......#=-------                  ",
"                %+.......+.#=---------=#...+.......+.$=-------                  ",
"                &....+.....#=----------$............+%=----=--                  ",
"                %.........++*---------=&@...........+&--------                  ",
"                &..........#&=---------*@+....++....#*=-------                  ",
"                %...........&==--------=&@.........#&=--------                  ",
"                &...+......+$=----------*$@......+@%=---------                  ",
"                %...........#*----------=&#+......$*=---------                  ",
"                &.....+......$=-------=---=*&&*&*==-----------                  ",
"                &...........+@*-----------=========---=---=---                  ",
"                &.............%==-------------------------==--                  ",
"                %.............@*==-------------------=----==--                  ",
"                &..........+...$*=--=--------=--==----=----==-                  ",
"                &@....@.........@&==---=--=--------=------*&%*                  ",
"                %#......+......++#%=-=--=--------------===&$#*                  ",
"                %.....+..........+@&*=-----------------=*%$@@*                  ",
"                &@.......@.+.......++#%&**==-=====***&%#++..@*                  ",
"                 $@+.+.+............+..@#$$&*&&&&&$$#@@.+...+*                  ",
"                  &&$#@..+...+....+..++...........+.........#*                  ",
"                       &%$$@@+.++.+.....+...................+*                  ",
"                         *&%$@@@+............+..............+*                  ",
"                                *$$++..................+...++*                  ",
"                                   *%$$@@+@........+........+*                  ",
"                                        *$@@....+..........++*                  ",
"                                              &$@@..........@*                  ",
"                                                 &#@@@...+.+@*                  ",
"                                                      *&$+..@=                  ",
"                                                          &&*=                  ",
"                                                             -                  "};
