/* XPM */
static char * France bleu old _xpm[] = {
"80 80 16 1",
" 	c None",
".	c #26266C",
"+	c #323485",
"@	c #474781",
"#	c #5E5D91",
"$	c #70709C",
"%	c #7F7FAF",
"&	c #9697BB",
"*	c #ABAAC6",
"=	c #B7B8D9",
"-	c #C6C7DE",
";	c #EFE029",
">	c #D4D5EA",
",	c #F3ED9E",
"'	c #E9EAF8",
")	c #FEFEFE",
"                                                                                ",
"                                                                                ",
"                                                                                ",
"                                                                                ",
"                                                                                ",
"                                                                                ",
"                                                                                ",
"                                                                                ",
"                                                                                ",
"                                                                                ",
"                                                                                ",
"                                                                                ",
"                                                                                ",
"                                                                                ",
"                                                                                ",
"                                                                                ",
"                                                                                ",
"                                                                                ",
"                                                                                ",
"                                                                                ",
"                                                                                ",
"                                                                                ",
"                                                                                ",
"   ++++++++++++++++++++++++++++++++++++++++++++++++++++++++++@+++@+++++++++++   ",
"   ++++++++++++++.+++++++++++++++++++++++++++++++++++++++++++.+++.+++++++++++   ",
"   +++++++++++.+...+++++++++++++++++++++++++.+.++++++++++++++++++++@+++++++++   ",
"   ++++++++.+.$&&&&@++++++++++++++++++++++++@@@@+++++++++++++++++++++++++++.+   ",
"   ++++++++++@&=**'&.@+++++++++++++++++++@.-)))-.++++++++@+++++++@++++++.+++.   ",
"   +++++++++++#.+.-$.++++++++++++++++++++.@'*#$@.+.++.@@+.++.+@.+.@++...#+..+   ",
"   +++++++++.$#.+@>#.+++++++++++++++++++++#)#...$-=-@*''*@@>=>>%.%''$.#>'>#++   ",
"   ++++++.+..%@..#'@@++.+++++++++++++++++.%)''=.&)>$%>#&)+$)*$)*#'&=-@'*#'-.+   ",
"   ++++++@...&...#>>->-#.+++++++++++++++++&'&&$.>>..#*='>@&'..'&&>.+.*)-*)>++   ",
"   +++++.@$#%*$$$##.@@*>@.+++++++++++++++.-*...@)&.@'*$>-.>-.#)$-&.#@=>#$$#.+   ",
"   ++++.$'=)='))>''$...>%+++++++++++++++++'*.+.$)%.&)%%)&@'*.&)#=>&)@*'$&-@++   ",
"   +++.@'$%=#-,,*@*>@..-%.++++++++++++++++=#.++$=@.@--*=$@-#.%=.#-'#.@=>-$..+   ",
"   +++.->.=&*,;;,;#'..$'+....+...+++++.+...+++++.@+@@@..++.+.....@+.+......++   ",
"   ++.@'&.**,*;;,*-'**'%&&&&*&&&%@.+++&&*&#.++..$*>''>-#..+.%&&&%.++++&&&&@.+   ",
"   +++#)$.#),;;;,*#&%%@%)))))))))'$+.$))))#.+.#>))))))))&..@')))*.++.%)))'@++   ",
"   ++.#)$.+%),,,,@.....*)))))))))))@.%)')'@..%))))>='))))$.@))))$.++.*)')-..+   ",
"   +++@)*.+.@*-*@+++++.-)))-%*>))))%.=)))>..%)))'%..#')))>.%))))@+++.>)))=.++   ",
"   ++..-)@.+...&$.+++.@')')$..@'),)%.-)))&.+')))$.@#%>)')'+&)')>+.+.@')))$.++   ",
"   +++.%)>+..+.'$.+++.#)))'@..@))))#+))))%.&))))*='))))))-.>)))=.+++#)))'#.++   ",
"   ++++.*)>#@.#>#.+++.&)))'%&&')))&.$))))@.=)))))))'>=&#@.@')))%.++.&)))'.+++   ",
"   +++++.*))'>>>.+++++=)))))))))-$..&)))>@+>))))-&$#++...@$))))$.#++=)))-.+++   ",
"   ++++++.#&>')&.++++.>))')))))'=@..=)))=..-)))'#......#>%%)))'.+++.>)))&.+++   ",
"   +++++++...#@@++++.#')))&&&>)))>+@>)))&..&))))-#.@@%=))%*)))-+.++#')))$.+++   ",
"   ++++++++++.+.+++..$)))'@..@')))$+))))$.+@'))))'>-'))))$=)))*.++.%)))>@.+++   ",
"   ++++++++++@++++++.&)))-.+.@')))#$))))+...@')))))))))'%@-)))*...+>)))=.++++   ",
"   ++++.+.+++++++++++=)))*@@$-)))'@%)))>#@##@$->)))''=$...-)))'#..*))))#.++++   ",
"   ++++++++++++++++++'))))'')))))*.-))))')')))#@####+..++.%)))))>'))))*.+++++   ",
"   ++++++++++++++++.#)))))))))))*.@')))))))))'@.....+++.+.+-)))))))))-@.+++++   ",
"   ++++++++++++++@+.$)''')''>>*$..#'''''')'''-+++++++++++@.@&')))))'&@.++@+++   ",
"   +++++++++++++++++++@@@+@+@...+.+@@@@@@+@@@++++++++++++++...##$##+..+++++++   ",
"   +++++++++++++++++++.+.+.++++++++..+.+++.+.+++++++++++++++++.+...++++++++++   ",
"   ++++++++++++++++++++++++++++++++++++++++++++++++++++++++++++++++++++++++++   ",
"   ++++++++++++++++++++++++++++++++++++++++++++++++++++++++++++++++++++++++++   ",
"                                                                                ",
"                                                                                ",
"                                                                                ",
"                                                                                ",
"                                                                                ",
"                                                                                ",
"                                                                                ",
"                                                                                ",
"                                                                                ",
"                                                                                ",
"                                                                                ",
"                                                                                ",
"                                                                                ",
"                                                                                ",
"                                                                                ",
"                                                                                ",
"                                                                                ",
"                                                                                ",
"                                                                                ",
"                                                                                ",
"                                                                                ",
"                                                                                ",
"                                                                                ",
"                                                                                "};
