/* XPM */
static char * France Info old_xpm[] = {
"80 80 16 1",
" 	c None",
".	c #010101",
"+	c #14130B",
"@	c #2C2A04",
"#	c #393838",
"$	c #49470D",
"%	c #656211",
"&	c #808019",
"*	c #7B7A7A",
"=	c #9F9D1F",
"-	c #AFB151",
";	c #B8B61E",
">	c #D7D71E",
",	c #CCCCCC",
"'	c #E9EA3D",
")	c #FBFA15",
"                                                                                ",
"                                                                                ",
"                                                                                ",
"                                                                                ",
"                                                                                ",
"                                                                                ",
"                                                                                ",
"                                                                                ",
"                                                                                ",
"                                                                                ",
"                                                                                ",
"                                                                                ",
"                                                                                ",
"                                                                                ",
"                                                                                ",
"                                                                                ",
"                                                                                ",
"                                                                                ",
"                                                                                ",
"                                                                                ",
"                                                                                ",
"                                                                                ",
"                                                                                ",
"                                                                                ",
"                                                                                ",
"  ......#*##...........***+.......................=))=........................  ",
"  ......*,,#..........#,**#+#+##..++#..+#+.##....$)))'$.......................  ",
"  ...###*,,*##........*,##*,,**,*+,,,*#,,**,,*...;)>=)=..+....................  ",
"  ..#**+**&&,**.......*,,#,,##*,,#,+,*,*.#,*,*..@>)%+>;.......................  ",
"  .#*,#$,'=+*,*+......,,.+,*+,*,**-.,*,*.*,**#..%)'@$);+......................  ",
"  .@***#=&$.##+......+,#.#,++,,,***+,#*,,#,**...=);.;'&.......................  ",
"  .+****##+++........+#+.+#..###+#++@+.##.+#+..@')%%))@..+....................  ",
"  ..##*#*#***...............$=%................%)>=>)%........................  ",
"  ...+#*#*#*#..............+>)'$...+...+.......;))))=.........................  ",
"  ......++##+...............&';+..............@>)));+.........................  ",
"  ...............+........+@.@+...+@...+......%)));+.+@@.....+................  ",
"  .....................+%=>-%....%>'&.@-;@....;))=+.$-'>;&@...................  ",
"  ................+$%=;)))))=..@;)))>$>)'&..@;))=..=))))))=+..................  ",
"  ........++@$%%=;)')')>)));++&>))));;))'+.$>))>@.=')=%>)));&$$++.............  ",
"  %%%*&==>>'')')')>;=&$$>)'%%>))>)))))))%@;))));$>));+.&;)))')))>>;;==%%$%$$$$  ",
"  --;-=&=&&&&%$@@++....%))>;)))&&>)));)>=>)';>)>))))&...%))%%%&&=->>',','-','-  ",
"  ....................@))))))>$.=)))&;))))>$$)))'&>)>$@%>);.......+@+@@@@@@@@.  ",
"  ....................%')))>&+.+'))&+>)))&+.;));@.&')')))>@...................  ",
"  ...............+...++&>)=$...+&)&..%>>$.+>))=+...%;)))=#....................  ",
"  ......................@+......++....@...;))>@.....+@$@......................  ",
"  .............................+.........$)))>.....+..........................  ",
"  .......................................;)>)%................................  ",
"  ...........................+..........@)))>@...+............................  ",
"  ......................................&'));.................................  ",
"  .....................................+;)))$.................................  ",
"  .....................................@)))=..................................  ",
"  .....................................$))'@.+................................  ",
"  .....................................+;'%...................................  ",
"  ......................................+$....................................  ",
" ,                                                                              ",
"                                                                                ",
"                                                                                ",
"                                                                                ",
"                                                                                ",
"                                                                                ",
"                                                                                ",
"                                                                                ",
"                                                                                ",
"                                                                                ",
"                                                                                ",
"                                                                                ",
"                                                                                ",
"                                                                                ",
"                                                                                ",
"                                                                                ",
"                                                                                ",
"                                                                                ",
"                                                                                ",
"                                                                                ",
"                                                                                ",
"                                                                                ",
"                                                                                ",
"                                                                                ",
"                                                                                ",
"                                                                                "};
