/* XPM */
static char * France 4_xpm[] = {
"80 80 14 1",
" 	c None",
".	c #9D2F79",
"+	c #A23C80",
"@	c #A64485",
"#	c #B46098",
"$	c #BC73A4",
"%	c #C181A9",
"&	c #B69F9E",
"*	c #CC91B8",
"=	c #A2C586",
"-	c #D8ABC8",
";	c #F0DCE9",
">	c #FBF7FA",
",	c #FFFFFF",
"                                                                                ",
"                                                                                ",
"                                                                                ",
"                                                           =&%                  ",
"                                                       =%$@+..$                 ",
"                                                  =%$#+++++++.%                 ",
"                                             =&%#@@++.++++@@+.%                 ",
"                                         =&$#@@....+++@@@@@@+.%                 ",
"                                    =&$#@.....+@@@@@@@@@@@@@@.%                 ",
"                               ==%#@@+.+.+@@@@@@@@@@@@@@@@@@@.%                 ",
"                          ==&$#@@@+++++++@@@@@@@@@@@@@@@@@@@@.%                 ",
"                      =&%$#@++++...@+@@@@@@@@@@@@@@@@@@@@@@@@.%                 ",
"                    =#++...+.+@+@@@@++@@@++@@@+@+@@+@+@@@@+++.%                 ",
"                    #..@@+@@@@++%*#.+++@+++@@++++@@++.@@@++++.%                 ",
"                    #.+@@@@@@+@#;-#@@##+#$@+@@##@++@#$@.+@##..%                 ",
"                    #.@@@@@@@+@$>-@$-*$#%**$@***-#@$--*#@***%.%                 ",
"                    #.@@@@@@@+@#;*@*;*@$---*@;-*;$%-**%%$;-;-+%                 ",
"                    $.@@@@@@@++#;$@*-@.$*---#-%#-*--#..#-;---#$                 ",
"                    #.+@@@+@@+.#;*@*;@@-----#-*#;%*-%$%**;-**+%                 ",
"                    $.@@@@@@@+@@-$@%*@@*--*-@*%@*$#%--*##*-*$.%                 ",
"                    #.@@@@@@@@@@#@@@#@+@$$##@##@#@+@$%#..#%%@.%                 ",
"                    $.@@@@@@@@@@.+@+.@@+....+.++.+++...++.....%                 ",
"                    #.@@@@@@@@@@@@@@@@@@@@@@@+@+.++++.++++@@@.%                 ",
"                    #+@@@@@@@@@@@@@@@@@@@@@@@@.@*--*-----$@@@.%                 ",
"                    #.@@@@@@@@@@@@@@@@@@@@@@@.@%;>,>>>>>>-@.@.%                 ",
"                    $.@@@@@@@@@@@@@@@@@@@@@@+.$;,,,,,,,,>-#.@.%                 ",
"                    #.@@@@+@@@@@@@@@@@@@@@@+.#-,,,,,,,,,>-@.@.%                 ",
"                    $.@@@@@@@@@@@@@@@@@@@@@++*>,,,,,,,,,>-@++.%                 ",
"                    #.@@@@@@@@@@@@@@@@@@@@.+*;,,,,,,,,,,>-#.@.%                 ",
"                    #.@@@@@@@@@@@@@@@@@@@++$;,,,,,,,,,,,>-@.@.%                 ",
"                    $.@@@@@@@@@@@@@@@@@@@.#-,,,,,,,,,,,,>-#.@.*                 ",
"                    #.@@@@@@@@@@@@@@@@@@.@*,,,,,,,,,,,,,>-@.@.$                 ",
"                    #.@@@@@@@@@@+@@@@@@++*;,,,,,,,,,,,,,>-#.@.%                 ",
"                    #.@@@@@@@@@@@@@@@@++$;,,,,,,,,,,,,,,>-@.@.%                 ",
"                    $.+@@@@@@@@@@@@@@+.#;>,,,,,,,,,,,,,,>-@.@.%                 ",
"                    #.@@@@@@@@@@@@@@@.@->>,,,,,,,,,,,,,,>-@+@.%                 ",
"                    #.@@@@@@@@@@@@@@.+*>,,,,,,,,,,,,,,,,>-#.+.*                 ",
"                    #.@@@@@@@@@@@@@@+$;,,,,,,,>;>>,>,,,,>-@.@.%                 ",
"                    #.@@@@@@@@@@@@++@;,,,,,,,>;*;>,,,,,,>-#.@.%                 ",
"                    $.+@@@@@@@@@@@+@->,,,,,,,>*#;>,,,,,,>-@.@.%                 ",
"                    #.@@@@@@@@@@@.@*;,,,,,,,,-@@;>,,,,,,>-#.+.%                 ",
"                    #.@@@@@@@@@@+.$;,,,,,,,,;#.#;>,,,,,,>-@.@.%                 ",
"                    #.@@@@@@@@@@.#-,,,,,,,,;$+.#;,,,,,,,>-@.@.%                 ",
"                    $.@@@@@@@@@++->,,,,,>,>-@+.#;>,,,,,,>-#.@.%                 ",
"                    #.@@@@@@@@+.*;,,,,,,,,-#.+.#;,,,,,,,>-@.@.%                 ",
"                    #.@@@@+@@++#;,,,,,,,,;$.++.#;>,,,,,,>-@++.%                 ",
"                    $.@@@@@@@+#->,,,,,,,;%..@+.#;,,,,,,,>-@.+.%                 ",
"                    #.@@@@@@++%,,,,,,,,>*@.+@+.#;>,,,,,,>-@.+.$                 ",
"                    #.+@@@@@+@*,,,,,,,,>--------;>,,,,,,>;---*;                 ",
"                    $.+@@@@@++*>,,,,,,,,>>>>>>>>,,,,,,,,,,>>,,>                 ",
"                    #.@@@@@@++*>,,,,,,,,,,,,,,,,,,,,,,,,,,,,,,,                 ",
"                    $.@@@@@@++*>,,,,,,,,,,,,,,,,,,,,,,,,,,,,,,,                 ",
"                    #.@@@@@@++*>,,,,,,,,,,,,,,,,,,,,,,,,,,,,,,>                 ",
"                    #.@@@@@@.@*>,,,,,,,,,,,,,,,,,,,,,,,,,,,,,,,                 ",
"                    $.@+@@@@++*,,,,,,,,,,,,,,,,,,,,,,>,,,,,,,,>                 ",
"                    #.@@@@@@++*;>;;;;;>;;;>;;;;>>,,,,,,,,>;;;;>                 ",
"                    #.@@@@@@++#$$%$%$$$$%$$$$$$*;,,,,,,,,-%$%#-                 ",
"                    #.@@@@@@@@++++++++++++++++.#;>,,,,,,>-@...$                 ",
"                    #.@@@@@@@@+++++++++++++++..@;,,,,,,,>-@...%                 ",
"                    #.@@@@@@@@@@@@@@@@@@@@@@@@.#;>,,,,,,>-@.@.%                 ",
"                    #.@@@@@@@@@@@@@@@@@@@@@@@@.#;,,,,,,,>-@++.%                 ",
"                    $.@@@@@@@@@@@@@@@@@@@@@@@@.#;>,,,,,,>-@+@.%                 ",
"                    #.@@@@@@@@@@@@@@@@@@@@@@@@.#;,,,,,,,>-#.@.%                 ",
"                    #.@@@@@@@@@@@@@@@@@@@@@@@@.#;>,,,,,,>-@.@.%                 ",
"                    $.@@@@+@@@@@@@@@@@@@@@@@@@.#;;>;>;;>;-@.@.%                 ",
"                    #.@@@@@@@@@@@@@@@@@@@@@@@@@@#$$$$$$$$#@@@.%                 ",
"                    #..++@@@@@@@@@@@@@@@@@@@@@@@.........+@@+.%                 ",
"                    &+.++++++@+@@@@@@@@@@@@@@@@@@+@+@@@@+@@@@.%                 ",
"                     =&$#@.+..++@@@@@@@@@+@@@@@@@@@+@@+@@@@@@.%                 ",
"                         ==%$#++....+++@@@@@@@@@@@@@@@@@@@@@+.%                 ",
"                             ==&%##@+++..+++@@@@@@@@@@@@@@@@@.%                 ",
"                                   &&##@@++++++@+@@@@@@@@@@@@.%                 ",
"                                       =&%#@++...+@@@@@@@@@@+.%                 ",
"                                            =&%#@+....++@@@@@.%                 ",
"                                                ==%$#@++...++.$                 ",
"                                                     =&$##@++.$                 ",
"                                                          =&#@&                 ",
"                                                                                ",
"                                                                                ",
"                                                                                "};
