/* XPM */
static char * France bleu_xpm[] = {
"80 80 16 1",
" 	c None",
".	c #231F1F",
"+	c #133294",
"@	c #3D3A45",
"#	c #23409A",
"$	c #444E7E",
"%	c #4A5BA9",
"&	c #737177",
"*	c #737FBC",
"=	c #9CA1CC",
"-	c #B8BCDC",
";	c #C9C8CA",
">	c #CBCDE5",
",	c #DFDEEE",
"'	c #EFEEF6",
")	c #FEFEFE",
"                                                                                ",
"                                                                                ",
"                                                                                ",
"                                                                                ",
"                                                                                ",
"                                                                                ",
"                                                                                ",
"                                                                                ",
"                                                                                ",
"                                                                                ",
"                                                                                ",
"                                                                                ",
"                                                                                ",
"                     %+############################################             ",
"                     %#############################################             ",
"                     %+############################################             ",
"                     #+##########################################+#             ",
"                     %+############################################             ",
"                     %+############################################             ",
"                     %+############################################             ",
"                     #+##########################################+#             ",
"                     %+############################################             ",
"             .......@##############################################             ",
"             .......@%#############################################             ",
"             .......@############################################+#             ",
"             .......@$#############################################             ",
"             .......@##############################################             ",
"             .......@%#############################################             ",
"             .......@############################################+#             ",
"             .......@$#############################################             ",
"             .......@##############################################             ",
"             .......@%#############################################             ",
"             .......@####################+#######################+#             ",
"             .......@$####################+########################             ",
"             .......@#####################%%#######################             ",
"             .......@%##################+*,=+++++++#+++#+++###+++##             ",
"             .......@##+#+###########+#+#-)=***%=*%%=*=#$*=%#%=*#+#             ",
"             .......@$##+#+#########+#++%,'=,)>'>,==),'=-'->*,-,-$+             ",
"             .......@##%***#########***%#-,%,-%=-,,-,%>,)=#%=)->'%+             ",
"             .......@%+-)),%+#####+*,))>#->%,-%,->,>>%>''-%==)=--%+             ",
"             .......@#+-))'%++###++%'))>%=>%,=%,,,>->%>=-')>*>,,=+#             ",
"             .......@$+>))'%+++###+*'))>#**%%%+******%%*#**%+%**###             ",
"             .......@#+-))'#+#%##+#%'))>%+#++#%##+++#####+#+#######             ",
"             .......@%+>)),**>,>=%+*'))>##+*=-,,-=%++*---=###=--=%+             ",
"             .......@#+-))'>)))))=#%'))>%+*,))))))>%+*)))-#+%,))'%+             ",
"             .......@$+>)))),>')))*&'))>#%')))--'))>+*'))-#+%,)),%+             ",
"             .......@#+-)))>%#=)))>%,))-%=)))*#+=))'*%)))-#+%,)),%+             ",
"             .......@%+>)))*++%,))'*,))>*'))-#++#,))=*'))-#+%,)),*+             ",
"             .......@#+-))'%#+#-))'*,))-=))),->->'))-*'))=#+%>)),%+             ",
"             .......@$+>))'*+##-))'-,))>=))))))))))),-,))-#+%,)),%+             ",
"             .......@#+-)))*++#-)))=,));-))),--=-====='))-#+%,)),%+             ",
"             .......@%+>))'*+#%>))'*,))-*)))-#+#+%%%#=)))-#+$')),%+             ",
"             .......@#+-)))*+.%,)),*,))-*,))'#++#-''=*'))>#+*')),%+             ",
"             .......@$+>))),%%-)))-*,))>%-)))>**=)))=%,)))=='))),%+             ",
"             .......@#+-)''))')))'%%'))>#%,))))))))>%#,)))))),)),%+             ",
"             .....@=&%+>)-%,)))),*+*')),#+%-))))))-%+#*'))))=-))'*+             ",
"             .....&),#+%=#+%===*%++#****#++#*====%#+#+#%===*#%***#+             ",
"             .....@)>%+++###+##++###++++####+###+++####+##+++++++++             ",
"             .....&)'**%%$$$$#$$$$$$$$$$$$$$$$$#$$$$$$$$$#%********             ",
"             @.@;=@;;,')>@.@.@.@.@.@.@.@.@.@.@.@.@.@.@.@.@                      ",
"             ..&)&..@.@;).................................                      ",
"             ..&))=&&..;;@................................                      ",
"             ...=)))'@@@..................................                      ",
"             ....=;))&....................................                      ",
"             ......&=@....................................                      ",
"             .............................................                      ",
"             .............................................                      ",
"                                                                                ",
"                                                                                ",
"                                                                                ",
"                                                                                ",
"                                                                                ",
"                                                                                ",
"                                                                                ",
"                                                                                ",
"                                                                                ",
"                                                                                ",
"                                                                                ",
"                                                                                ",
"                                                                                "};
