/* XPM */
static char * Free_X TV_xpm[] = {
"80 80 16 1",
" 	c None",
".	c #000000",
"+	c #0A0510",
"@	c #0C0C0B",
"#	c #150B24",
"$	c #151615",
"%	c #231537",
"&	c #30164F",
"*	c #272726",
"=	c #4A247C",
"-	c #444444",
";	c #7138BA",
">	c #656565",
",	c #A14EFB",
"'	c #A3A3A3",
")	c #FBFBFB",
"                                                                                ",
"                                                                                ",
"                                                                                ",
"                                                                                ",
"                                                                                ",
"                                                                                ",
"                                                                                ",
"                                                                                ",
"                                                                                ",
"                                                                                ",
"                                                                                ",
"                                                                                ",
"                                                                                ",
"                                                                                ",
"                                                                                ",
"                                                                                ",
"                                                                                ",
"                                                                                ",
"                                                                                ",
"                                                                                ",
"                                                                                ",
"                                                                                ",
"                                                                                ",
"                                                                                ",
"                                                                                ",
"                                                                                ",
"                                                                                ",
"                                                                                ",
"                                                                                ",
"                                                                                ",
"                                                                                ",
"................................................................................",
"................................................................................",
"................................................................................",
".>'''''''.-''''>-...-''''''>.*'''''''$=;;#..=;;$'''''''>>''*..-''''>'>'>'>'>'>*.",
".')))))))@>))))))'..>))))))).>)))))))*&,,>.&,';*))))))))-))'..'))>@$@$@$@$@$@>-.",
".>)))''''.>))'')))-.>))'''''.-)))''''$.=,;%;,;#@'')))''>$')'.+)))............*-.",
".'))*.....>))-.-))>.>))*.....>))-......#,,;,,=.+..>))-...'))$*))>..........$->*.",
".>))'->-$.>))>*>))'.>))>>>>$.-))'>>>*.-@=,,,;.....>))-...-))>-))-..........@>>-.",
".'))))))-.>)))))))*.>))))))-.>))))))>-))+,,,&..@..>))>...@))')))@........+.$>'-.",
".>)))'))-.>))))))*..>))')')*.-)))')'>$'-&;,,;.....>))-....'))))>...........@--*.",
".'))>***@.>))>'))-..>))*.....>))-......+;,,,,&.+..>))-.@..*))))-...........$->*.",
".>))-.....>))**))'..>))>---*.-))'----@.=,,=;,;+...>))-....@'))).............*-*.",
".'))-.....>))>.'))-.>))))))).>)))))))*#,,,.=,,=...>))>...+.'))>..............--.",
".>))-.....>))-.-)))@>))))))'.-)))))))$;,,%..;,,%..>))-.....-))>->->->->->->->>-.",
".$**@.....@**@..***@@*******.@*******@#$#...+###..@**@.....@******************..",
"................................................................................",
".@.......+...+...+...+...+.......@.+.@.+.+.+.@.+.@.......+.+.@...............+..",
"................................................................................",
"                                                                                ",
"                                                                                ",
"                                                                                ",
"                                                                                ",
"                                                                                ",
"                                                                                ",
"                                                                                ",
"                                                                                ",
"                                                                                ",
"                                                                                ",
"                                                                                ",
"                                                                                ",
"                                                                                ",
"                                                                                ",
"                                                                                ",
"                                                                                ",
"                                                                                ",
"                                                                                ",
"                                                                                ",
"                                                                                ",
"                                                                                ",
"                                                                                ",
"                                                                                ",
"                                                                                ",
"                                                                                ",
"                                                                                ",
"                                                                                ",
"                                                                                ",
"                                                                                ",
"                                                                                ",
"                                                                                "};
