/* XPM */
static char * FREE_XTV 2_xpm[] = {
"80 80 16 1",
" 	c None",
".	c #000000",
"+	c #100E13",
"@	c #1D102F",
"#	c #301550",
"$	c #262625",
"%	c #4D2684",
"&	c #414241",
"*	c #59595A",
"=	c #7A41C4",
"-	c #797979",
";	c #A051FC",
">	c #A7A7A7",
",	c #CFA9FD",
"'	c #D8D8D9",
")	c #FEFEFE",
"                                                                                ",
"                                                                                ",
"                                                                                ",
"                                                                                ",
"                                                                                ",
"                                                                                ",
"                                                                                ",
"                                                                                ",
"                                                                                ",
"                                                                                ",
"                                                                                ",
"                                                                                ",
"                                                                                ",
"                                                                                ",
"                                                                                ",
"                                                                                ",
"                                                                                ",
"                                                                                ",
"                                                                                ",
"                                                                                ",
"                                                                                ",
"                                                                                ",
"                                                                                ",
"                                                                                ",
"                                                                                ",
"                                                                                ",
"                                                                                ",
"                                                                                ",
"                                                                                ",
"                                                                                ",
"                                                                                ",
"                                                                                ",
"................................................................................",
"................................................................................",
".*>>>>>>>.&>>>>-&...*>>>>>>-.$>>>>>>>+%%=+..%%=@>>>>>>>-*>>$..&>>>>------->---$.",
".>)))))))+*))))))>..-))))))).*)))))))$#;;=.$;,=$))))))))*))-..>))*+@%>;=+++++*&.",
".-))'>>>>.*))>>'))&.-))>>>>>.&))'>>>>+.%;=@=;=++>>'))>>-$')>..')'.@=,'),=@...$&.",
".>))$.....*))&.&))-.-))$.....*))&......@;;=;;%....*))&...>))+$))-.=,)',);=++&*$.",
".-))-***+.-))*$*))-.-))--*-+.&))>*--$.&+%;;;=.....-))&...&))**))$#;;,;'';;#.**&.",
".>))))))&.*)))))))$.-))))))&.*))))))-&)'.;;;#..+..-))*...+')>')'.%;;=,)'=;%+->&.",
".-)))')'&.*))))))$..-))''''$.&)))'''*+>*#=;;=.....-))&....>))))-.#;=;');;;%.&&$.",
".>))*$$$..*))->))&..-))&.....*))&......+=;;;;#.+..*))&.+..$))))&.#;;,),;;;@+**$.",
".-))&.....-))$$))>..-))*&&*&.&))-&&&&..%;;%=;=+...-))&....+'))'...%;)))';%..$&$.",
".>))&.....*))*.'))*.-))))))).*)))))))$+;;=.%;;%...-))*...+.>))-....%;,;>%....&&.",
".-))*.....-))&.&))'.-))))))'.&)))))))+=;;@..=;;@..-))&.....&))-&*&*&*=-**&***-&.",
".+$$+.....+$$+..$$$++$$$$$$$.+$$$$$$$+@@+...+@@+..+$$+.....+$$$$$$$$$$$$$$$$$$..",
"................................................................................",
"                                                                                ",
"                                                                                ",
"                                                                                ",
"                                                                                ",
"                                                                                ",
"                                                                                ",
"                                                                                ",
"                                                                                ",
"                                                                                ",
"                                                                                ",
"                                                                                ",
"                                                                                ",
"                                                                                ",
"                                                                                ",
"                                                                                ",
"                                                                                ",
"                                                                                ",
"                                                                                ",
"                                                                                ",
"                                                                                ",
"                                                                                ",
"                                                                                ",
"                                                                                ",
"                                                                                ",
"                                                                                ",
"                                                                                ",
"                                                                                ",
"                                                                                ",
"                                                                                ",
"                                                                                ",
"                                                                                ",
"                                                                                ",
"                                                                                "};
