/* XPM */
static char * FREQUENCE JAZZ_xpm[] = {
"80 80 16 1",
" 	c None",
".	c #000000",
"+	c #010101",
"@	c #0C0C0C",
"#	c #1B1B1B",
"$	c #272727",
"%	c #383838",
"&	c #474747",
"*	c #5A5A5A",
"=	c #737373",
"-	c #909090",
";	c #AEAEAE",
">	c #C7C7C7",
",	c #E2E2E2",
"'	c #F2F2F2",
")	c #FFFFFF",
"                                                                                ",
"                                                                                ",
"                                                                                ",
"                                                                                ",
"                                                                                ",
"                                                                                ",
"                                                                                ",
"                                                                                ",
"                                                                                ",
"                                                                                ",
"                                                                                ",
"         ........+..++++......+......+.....+++.+++.+..+++.+..++.+.....          ",
"         ....+..+++..+++.++.+++.....++.++..+.++..+.+..++.....+++.++...          ",
"         ...=-+.+.$-#....%-%..+.%*.+..#-*+...%-&....*=#....**+...*-#..          ",
"         ++.--@.+.$;=++..%;%...@=-+...$-=+...&;&.++.;-@...@-=+...*;%..          ",
"         ...==@.+.#;=+...&-$...$=-@...#-*+.+.&-%....-;+.+.$;&+...*=$..          ",
"         .+.-&.++.$-*.+..%-+.+.$=-#...#-*+.+.%-@....-;@...$-@....*=+..          ",
"         .+.--..+.#>&....&>#.+.%=-#...#-*+...&>#.+..=>#...$-...+.=;@..          ",
"         ...-&.++.$;*.++.%-+...$=-#.+.#=*+...&-@....*;$.+.$-@.++.*=...          ",
"         ...=%.++.$;=@.+.&-$...$=-@.+.#-*+.+.&-%....&;$.+.#-&+...*=$..          ",
"         ...-%.++.$;>#...%;%...+->%.+.#-=....%;&.+.+*=$...@-=+.+.*-%..          ",
"         ...=%.++.$-=#.+.%-%....%;%.+.+=&....%-&.+.@*%@++..*&....*-$..          ",
"         .+++.++.........++++.++....................+.............@...          ",
"         ..+...++##@+@@#+..+.++....+++...@@@@###@@@@..++@@@###@@@@....          ",
"         .++++++.&>>>>>;$.+.+++%*@.+.+..+->>,;;;>;>&...$>>>>;->>>-@...          ",
"         ...+..++@%'))'&+...+.@,)&....+.+>))-#@>)))*...&)),&@&)))>@...          ",
"         .......+.#,)),@......$,)*.......;)>..@;))'$...%))*..*)))-....          ",
"         .........#,)),#......%')-.......>)=..$'))>#...&),@..-)))-....          ",
"         .........#,)),#......&')-......+;)%..%)));....%);+..-)))&....          ",
"         ......++.#')),#......&));......+>,@..*)))-....&)-..+>))'$.+..          ",
"         .........#,)),#......=));......+;,+..-)))=....%)&..$,)),#....          ",
"         .........#,)),#......=))>+..+..+,;...;)))&.+..&)&..%'))>@.+..          ",
"         .........#,)),#......-))>+..++..>-...>))'$.++.%)$..*)))-.....          ",
"         .........#,)),#......-)),@..+..+,=..#,)),#.++.*,#..=)))=..+..          ",
"         .........#,)),#.....+;)),$.++..@>*..%'))>@..+.&>..+;)))*.....          ",
"         .........#,)),#.....#>))'&.....#>&..=)));..+..*;..@>))'%.....          ",
"         .........#,)),#.....@;))'*.++..#;%..=)))*.+++.*;..@,))>@..+..          ",
"         .........#,)),#.....#-)))*.....$;$..;)))*.+...=-..%'))>+.+...          ",
"         .........#,)),#.....@-,))=...+.$-@.@>))'%.++..*=..*)))-..+...          ",
"         .........#,)),#.....%=,))=.+...$-+.@,))>#.++..=*..-)))=...+..          ",
"         .........#,)),#.+...%=>))-.+.+.#%..$'))>+.....%$..-)))&..+...          ",
"         .........#,)),#.....*&,))-..+++..+.*)));.....+...+>))'&..+...          ",
"         .........#,)),#.....&%;));+..++++..-)))=...+..++.#,)),#...+..          ",
"         .........#,)),#..+..=#>))>@..+++.+.-)))&...+++.+.$)));@..+...          ",
"         .........#,)),#..+.+*#;)),@.+..++.+>))'%.+.+.+++.*)))-.++.+..          ",
"         .........#,)),#.+..@=@;)),#.+..++.$,)),#....+..+.=)))=.......          ",
"         .........#,)),#..+.#*@-))'#..+.+..%)));+....+....;)))*.......          ",
"         .........#,)),#.++.$=.-)))$.++.+..*)));.....+++.@>))'$.......          ",
"         .........#,)),#.+..%*.=)))%...++..=)))=......+..#,))>#.......          ",
"         .........#,)),#....%=.=)))=.+..+..;)))=......++.&'))>@.......          ",
"         .........#,)),#....%*.*)))=...+..+>))'$..#$+.+..&)))-...%$...          ",
"         .........#,)),#..+.&*.*)))-..+.+.@,)),#..$-+.+..-)))-...=&...          ",
"         .........#,)),#.+..*&.%)))-.+.+..%'))>@..%*.....-)))*.+.*%...          ",
"         .........#,)),#....*&.&'));...++.*)));+..%=....+>))'&...=%...          ",
"         ....+....#,)),#...+*$.$'));..+...-)))=...*=..+.@>)),#..@-&...          ",
"         .+.+.#-#.#,)),#.+.@=#.$,))>......;)))*.+.=-....%'))>@..#;%...          ",
"         .+..@>);.#,)),#.+.+=@.@,))>@....+>))'%.+.--..+.*'));+..$;$...          ",
"         ..+.*))'%@,)),#...@=&$&>)),#....#,)),#...--..+.=)))=...$,$...          ",
"         +++.=)))*@,)),#.+.+;;;-')),$....$'))>+...>=..+.-)))*.+.&>$...          ",
"         .+.+;)))=@,)),#...$*$##;)))%....=)));...#,=...@>)))%...='#...          ",
"         .+.+;)))&@,)),#.+.%*...;)))&..+.=)))=...$)*...#,)),$...;,@...          ",
"         .+.+;))'#@')),#.+.&*...-)))&....;)))*.+.&)=...%')),@...;,@...          ",
"         ...+->>=.#,)),@.+.&&...-)))*...+;)))%...=)*...&)))-...#,>@...          ",
"         ...+=%@..#,));@...*&...=)))=...#,))'$...>)*...=)))-.+.&)>@...          ",
"         .+..&&...$,))=....**...=)))-...%,))>+..%,)&...-)))*...-)>@...          ",
"         .+..$=#..&)),#.+..;*.+.*)))-...&)));...-))*...>))'%..%')>+...          ",
"         +++..*=++;))&..+.*)>$.+=)))>#..=)));$%-)))*..#,)))&$&,))>+...          ",
"         .+++@.=->),*..++@;>>-.%;>;;>-+.=>;;;;;>;>>&..$;;;;;;>>;>-+...          ",
"         ..++...%&%@..++++@+@+.+#+++@@.+.+++@@#++++....++++@#@.+@.....          ",
"         .............................................................          ",
"         .............................................................          ",
"                                                                                ",
"                                                                                ",
"                                                                                ",
"                                                                                ",
"                                                                                ",
"                                                                                ",
"                                                                                ",
"                                                                                ",
"                                                                                "};
