/* XPM */
static char * Fun Radio_xpm[] = {
"80 80 16 1",
" 	c None",
".	c #4F1C39",
"+	c #933170",
"@	c #556071",
"#	c #D1499D",
"$	c #0BB0DE",
"%	c #4DB3D8",
"&	c #9F9BA7",
"*	c #35C3F8",
"=	c #E97DBC",
"-	c #74D0A3",
";	c #8FD47D",
">	c #69D5F7",
",	c #C2E040",
"'	c #EDB8D6",
")	c #F4F3F4",
"                                                                                ",
"                                                                                ",
"                                                                                ",
"                                                                                ",
"                                                                                ",
"                                                                                ",
"                                                                                ",
"                                                                                ",
"                                                                                ",
"                                                                                ",
"                                                                                ",
"                                                                                ",
"                                                                                ",
"                                                                                ",
"                                                                                ",
"                                                                                ",
"                                                                                ",
"                                                                                ",
"                                                                                ",
"                                                                                ",
"                                                                                ",
"                                                                                ",
"                                                                                ",
"                                                                                ",
"                                                                                ",
"                                                                                ",
"                 &#+++++&                                                       ",
"               &.++++####=&                                                     ",
"              ..+.++#@##=&===                                                   ",
"             ..++++##=='='='==                                                  ",
"            ..+.++#@&='='''='==                                                 ",
"           ..+.++##=='''')''''==#####################=#=='                      ",
"          ....++++##=='''''''===&%>%>%>%>%>*>%>%>%&%&@&#######=='               ",
"          .....++##=='''')')''='=&*>>>%>>>>>>>>>>>>>>>>>>>>>>>&=#=#==           ",
"       =#...@@#.@@&#=='''')''='==#*%%%>%*%>%*%>%>*>%>*>>>>>->->>>>>%&&==        ",
"     ###@..)))=++##=='''''''''====%>%*%**>*>%****>*>*>****,;*;->>>>>>)>'=''     ",
"   #+@$$@.&)).++#+##=='='='='&'==#%*-%;-;%*%----;%***-;-;%,-*%***%;;;;;>>>'=    ",
"  ++@$$$.@))))'@))#=='))=)))))))'#%-,,-;;,$,;----,**,,-;-;,>$,-*;,-;--;)>)>)=   ",
"  +.@@*$@.&)'.++))##==)'=')'=='))#&$,%*%$,-$----*,-$,****$,-*,;$,*****%,-*)>)=  ",
"  .@.@$$..@)'..+))###'))=))'===))=%-,>*>**%,;;-;-,--,**>**,;$'-*,>***>*,-*>)>=  ",
"  @.@.@@@.@)'.+.)))''))'=')'===))#&$,%*%*%%,-%*%%,-$,-**-$,-*,;$,;****;,*$**##  ",
"   &.+.@...'&..++'')''''='''===)'#%*;**>*>*-,,;,;,-*%,;,;;;>*;-*$;;,;,;-**@##   ",
"     ++.......+.++++##=#====#@####**%%%$%%%@%@%@%$*********$*$*$*$$$$$$@@##     ",
"       &+....@.++#+##======##=.####&#===========#=#&#&@%$$$$$$$$$$$%@####       ",
"          ......++++##=#=#=.=#=''')))')))))&;-'&)))))''==##@@@@+++#+#=          ",
"          .....++++####=##==@))))))))&')&)&'-'@&)))))))))))'=#+=='              ",
"           .....++++#####=))&@'@&&&@'@)&@'&-)&@&&&&&&&&-@&&&)'=                 ",
"            ...+.++#+####=&)),@&&&&&@''&@')&)&&'@@@&@;&&&'@)))=                 ",
"             ...+.++#+###.#=&&)>)-);@-'&'&'&&+'&&-'>)))>);''==                  ",
"              ...++++#####+##=='''')')))))&';)&'))))))''='='                    ",
"                +.++++#####     '==#=#================'                         ",
"                  &#+&#==                                                       ",
"                                                                                ",
"                                                                                ",
"                                                                                ",
"                                                                                ",
"                                                                                ",
"                                                                                ",
"                                                                                ",
"                                                                                ",
"                                                                                ",
"                                                                                ",
"                                                                                ",
"                                                                                ",
"                                                                                ",
"                                                                                ",
"                                                                                ",
"                                                                                ",
"                                                                                ",
"                                                                                ",
"                                                                                ",
"                                                                                ",
"                                                                                ",
"                                                                                ",
"                                                                                ",
"                                                                                ",
"                                                                                ",
"                                                                                ",
"                                                                                ",
"                                                                                "};
