/* XPM */
static char * Game One_xpm[] = {
"80 80 16 1",
" 	c None",
".	c #000000",
"+	c #050505",
"@	c #0B0B0B",
"#	c #161616",
"$	c #272727",
"%	c #3A3A3A",
"&	c #464646",
"*	c #5A5A5A",
"=	c #3E56CA",
"-	c #536AD4",
";	c #7A7A7A",
">	c #7488D2",
",	c #999999",
"'	c #90A0D9",
")	c #C5C6CB",
"                                                                                ",
"                                                                                ",
"                                                                                ",
"                                                                                ",
"                                                                                ",
"                                                                                ",
"                                                                                ",
"                                                                                ",
"                                                                                ",
"                                                                                ",
"                                                                                ",
"                                                                                ",
"                                                                                ",
"                                                                                ",
"                                                                                ",
"                                                                                ",
"                                                                                ",
"                                                                                ",
"                                                                                ",
"               ,**&&&&&&&&&&&&&&&&&&&&&&&&&&&**,,                               ",
"            *#...................................#*)                            ",
"          *+...+...+...............................+*                           ",
"         #........+..................................#)                         ",
"        +..+.+.....+.........................+.+...+..+,                        ",
"       .................................................,                       ",
"      +.+......................................+........+)                      ",
"     $...................................................$                      ",
"    ;..+...+...#&;;;;;;;;;;;;;;;;;;;;;;;;;;;;;&@...+.+....;                     ",
"    #.........;                                );.........#                     ",
"   ,........+)                                   )+........,                    ",
"   %........,                                     ,........&                    ",
"   #...+.+.*                                       *.+.....#                    ",
"   ........                                         +.......                    ",
"   .......#                                         #.......                    ",
"   .......%         %......................         %.......                    ",
"   .......%         &..+...................         %.......                    ",
"   .......%         &.....................@         %.......                    ",
"   .......%         &..........+..........#         %.......                    ",
"   .......%         &.....................%         %.......                    ",
"   .......%         &..+.......+..........*         %.......                    ",
"   .......%         &.....................,         %.......                    ",
"   .......%         ;*&***&***&*&+.....+.+)         %.......                    ",
"   .......%                     *.+......%          %.......                    ",
"   .......%                    *.+.......           %.......                    ",
"   .......&                   %.........%           %.......                    ",
"   ....+..$                 *@.+........            %.......                    ",
"   ...........++++@+@@@@@@@...+........*            %.......                    ",
"   ..........................+.....+..%             %.......                    ",
"   ..................................#              %.......                    ",
"   .................................$               %.......                    ",
"   ................................&                %.......                    ",
"   ........................+.+...#;                 %.......                    ",
"   ............................@;                   %.......                    ",
"   ####$####@#@@@@+@++++...#$*                      *$$$$$$$                    ",
"                                                                                ",
"                                                                                ",
"                                                                                ",
"                                                                                ",
"                                                                                ",
"                                                                                ",
"            #.....&   *.+;   #@@    #+# %++++.$      ======- ,==>   -- --====-  ",
"           $.    %#   .$@#   @..&  *..+ $+          -=>   -=''=-=>  -- --       ",
"           @@        %+  .;  +&&.  .&&+ $+****      --     =''= >=) -- =->'>>   ",
"           #@  %$@.  .#  .@  +& .&%. *. $+****      --     =')=  -= -> --'''>   ",
"           #.    #. %.#+@@.* .% *..* &. $+          -='   >=''=  '==-- =-       ",
"            @.....& .&    $. @%  @@  &. $.....+      -=====> '=   '==> -===-=>  ",
"                                                                                ",
"                                                                                ",
"                                                                                ",
"                                                                                ",
"                                                                                ",
"                                                                                ",
"                                                                                ",
"                                                                                ",
"                                                                                ",
"                                                                                ",
"                                                                                ",
"                                                                                ",
"                                                                                ",
"                                                                                "};
