/* XPM */
static char * Hector_xpm[] = {
"80 80 16 1",
" 	c None",
".	c #010101",
"+	c #10151A",
"@	c #052030",
"#	c #0C3B54",
"$	c #3B3B3C",
"%	c #125473",
"&	c #12668C",
"*	c #6A6B6D",
"=	c #1492C5",
"-	c #0399D9",
";	c #3EACD7",
">	c #ABACAC",
",	c #79CBE5",
"'	c #B7E4EE",
")	c #F4F8F8",
"                                                                                ",
"                                                                                ",
"                                                                                ",
"                                                                                ",
"                                                                                ",
"                                                                                ",
"                                                                                ",
"                                                                                ",
"                                                                                ",
"                                                                                ",
"                                                                                ",
"                                                                                ",
"                                                                                ",
"                                                                                ",
"                                                                                ",
"                                                                                ",
"                                                                                ",
"                                                                                ",
"                                                                                ",
"                                                                                ",
"                                                                                ",
"                                                                                ",
"                                                                                ",
"                                                                                ",
"   ..........................................................................   ",
"   ..........................................................................   ",
"   ..........................................................................   ",
"   .................+'*....>>$...................+...........................   ",
"   .................*)>...+>)+..................*>$..........................   ",
"   ....++%%&@.......*)$...+)>...+*$+.....+$$+..+>)$+...$$$.....++.+$.........   ",
"   .....@##&#.......>)+...*)>..*)))>+...*')))+.>)))$.+'))))+...*)>)*.........   ",
"   ....+@+.%@..+...+))****>)*.*)>$*)>..*))$$>).*))*++))*+*)'..+))'**.........   ",
"   ....+#..%%##....$)))))>))$+)'$+$)'.+>)+..$*.$)*..*)*...>)+.$)>............   ",
"   ..@@%%##%##&%...*)>.+++)).*))))))>.$)>......>)*..>)+...>)+.*)*............   ",
"   .#&=&===&#.@%...*)$...$)>.*)*$$*$$.*)*......>)+..''+...)'+.>)$............   ",
"   .&#%&,);#&+#&...))$...*)>.*)>...>$.*)*..+*$.)>...>)+..*)>.+').............   ",
"   @&+%;))'%&%&@@@$)'@@@+*)%+#))*$>'$+#')**>'@@')**.*)>$*>)$+#)>@+@@@@@@@@@@+   ",
"   #&.#;')*@+@.@==;',===='';==;)))';===,'))'===,');==,'))';==;',=======-=-=-%   ",
"   @=+.@&&@....+=--=-----==---==;===---==;;=---===---=;;;=----==------------&   ",
"   +=%...%@....@=---------------=-------------------------------------------&   ",
"   .%*%@@%@....+=------------=---------------=-----=-------=---------=------&   ",
"   ..#*===.....@=-------------------===---------------=-=------------------;&   ",
"   ...+#%@.....+=--------------------;,=-=---=-=-=---;;=;--===-;-=-=-=-=-=--&   ",
"   ..+.........@=;------------------;',,;,;;,,=,;,,;='',',;;;,;,;,;;;;;,;,,;&   ",
"   ............+==---------------=-=,,>',,',',',,'';=''''>,,,,,,'>',,,''',,=&   ",
"   ............@=-------------------,;;,;'''>',',',-;''',,''>',,,',''',';',-%   ",
"   ............+=-------------------;=;=-;;-;--;;;;=--;=;=;-;;;==,,=;=;;;;;-&   ",
"   ............@=;-;-;---;---;---;--=;----=-=---=---=---=;--=-=-=;--=-=---=;&   ",
"   .............#################################################@##########@   ",
"   ..........................................................................   ",
"   ..........................................................................   ",
"                                                                                ",
"                                                                                ",
"                                                                                ",
"                                                                                ",
"                                                                                ",
"                                                                                ",
"                                                                                ",
"                                                                                ",
"                                                                                ",
"                                                                                ",
"                                                                                ",
"                                                                                ",
"                                                                                ",
"                                                                                ",
"                                                                                ",
"                                                                                ",
"                                                                                ",
"                                                                                ",
"                                                                                ",
"                                                                                ",
"                                                                                ",
"                                                                                ",
"                                                                                ",
"                                                                                ",
"                                                                                ",
"                                                                                ",
"                                                                                ",
"                                                                                ",
"                                                                                "};
