/* XPM */
static char * Histoire_xpm[] = {
"80 80 11 1",
" 	c None",
".	c #212725",
"+	c #A9111B",
"@	c #32475E",
"#	c #9A293E",
"$	c #BC1D2D",
"%	c #924467",
"&	c #436895",
"*	c #7A598E",
"=	c #4D7DBD",
"-	c #7477B8",
"                                                                                ",
"                                                                                ",
"                                                                                ",
"                                                                                ",
"                                                                                ",
"                                                                                ",
"                                                                                ",
"                                                                                ",
"                                                                                ",
"                                                                                ",
"                                                                                ",
"                                                                                ",
"                                                                                ",
"                                                                                ",
"                                                                                ",
"                                                                                ",
"                                                                                ",
"                                                                                ",
"                                                                                ",
"                                                                                ",
"                                                                                ",
"                                                                                ",
"                                                                                ",
"                                                                                ",
"                                                                                ",
"                                                                                ",
"                                                                                ",
"                                                                                ",
"                                                                                ",
"                                                                                ",
"                                                                                ",
"                                                                                ",
"      -****-                                                                    ",
"     %#$$#++#-                                                                  ",
"   *+$-   %+$+%                                                                 ",
"  -#+$-   %+$$+%       &@                                  @&                   ",
"  #+$$+= =$+$$$+-      .@               &=                &.&                   ",
" *+$$$#  *#%%+$$%      =               @.                  &                    ",
" %$$$$*  -   %$$+-   &=@      &@&     &.@&=     =@&     ==&&    === ==     &@@  ",
" +$$$$-      -$$+*   &..     @@&@&    @@&&=   =.@ @.    =@.&   =@.....   =.& @@ ",
" +$$$#   %+  *$$+*    .&    &.        @.      .@  =.     @.=     .@&=    .@  &.=",
" +$$$%  *+%  %+$+*   &.=    &.@&      @@     &.=  &.     @@     &.&     &.@@@.@ ",
" #$$$-  #+-  #$$+*   @.      @..=    =.&     .@   @.     .@     @.      @.      ",
" %$$#  -+$  -+$$#    .&       &.&    &.&    =.@   .@    &.&     .@      ..      ",
" -+$#  %+%  -#$+%   =.&       =.=    @@     =.&  @.     &.     =.=      @.&     ",
"  %+-  %+%   -$+    @.     .@@.&     &.@=    @.&@@      .@     @.       =@.@@@  ",
"   #%--$$$*--%+-            ==        ==      ===              =           ==   ",
"    #++$$$$++#*                                                                 ",
"     *%+#+##*                                                                   ",
"                                                                                ",
"                                                                                ",
"                                                                                ",
"                                                                                ",
"                                                                                ",
"                                                                                ",
"                                                                                ",
"                                                                                ",
"                                                                                ",
"                                                                                ",
"                                                                                ",
"                                                                                ",
"                                                                                ",
"                                                                                ",
"                                                                                ",
"                                                                                ",
"                                                                                ",
"                                                                                ",
"                                                                                ",
"                                                                                ",
"                                                                                ",
"                                                                                ",
"                                                                                ",
"                                                                                ",
"                                                                                ",
"                                                                                ",
"                                                                                ",
"                                                                                ",
"                                                                                ",
"                                                                                ",
"                                                                                "};
