/* XPM */
static char * hr_info +_xpm[] = {
"80 80 4 1",
" 	c None",
".	c #000000",
"+	c #3366CC",
"@	c #33FFCC",
"                                                                                ",
"                                                                                ",
"                                                                                ",
"                                                                                ",
"                                                                                ",
"                                                                                ",
"                                                                                ",
"                                                                                ",
"                                                                                ",
"                                                                                ",
"                                                                                ",
"                                                                                ",
"                                                                                ",
"                                                                                ",
"                                                                                ",
"                                                                                ",
"                                                                                ",
"                                                                                ",
"                                                                                ",
"                                                                                ",
"                                                                                ",
"                                                                                ",
"                                                                                ",
"                                                                                ",
"                                                                                ",
"                                                                                ",
"                                                                                ",
"                                                                                ",
"                                                                                ",
"                                                                                ",
"  +++++                         @@@@@                      @@@@@@               ",
"  +++++                         @@@@@                     @@@@@@@               ",
"  +++++                         @@@@@                    @@@@@@@@               ",
"  +++++                                                  @@@@@                  ",
"  +++++                                                  @@@@@                  ",
"  +++++  ++++      +++++  +++   @@@@@   @@@@@  @@@@    @@@@@@@@@      @@@@@@    ",
"  ++++++++++++     ++++++++++   @@@@@   @@@@@@@@@@@@   @@@@@@@@@    @@@@@@@@@@  ",
"  +++++++++++++    ++++++++++   @@@@@   @@@@@@@@@@@@@  @@@@@@@@@   @@@@@@@@@@@@ ",
"  +++++   +++++    +++++        @@@@@   @@@@@   @@@@@    @@@@@     @@@@@  @@@@@ ",
"  +++++   +++++    +++++        @@@@@   @@@@@   @@@@@    @@@@@    @@@@@    @@@@@",
"  +++++   +++++    +++++        @@@@@   @@@@@   @@@@@    @@@@@    @@@@@    @@@@@",
"  +++++   +++++    +++++        @@@@@   @@@@@   @@@@@    @@@@@    @@@@@    @@@@@",
"  +++++   +++++    +++++        @@@@@   @@@@@   @@@@@    @@@@@    @@@@@    @@@@@",
"  +++++   +++++    +++++        @@@@@   @@@@@   @@@@@    @@@@@   ...@@@    @@@@@",
"  +++++   +++++    +++++        @@@@@   @@@@@   @@@@@    @@@@@   ...@@@    @@@@@",
"  +++++   +++++    +++++        @@@@@   @@@@@   @@@@@    @@@@@   ...@@@@  @@@@@ ",
"  +++++   +++++    +++++        @@@@@   @@@@@   @@@@@    @@@@@   ...@@@@@@@@@@@ ",
"  +++++   +++++    +++++        @@@@@   @@@@@   @@@@@    @@@@@   ...@@@@@@@@@@  ",
"  +++++   +++++    +++++        @@@@@   @@@@@   @@@@@    @@@@@   ...  @@@@@@    ",
"                                                           ...............      ",
"                                                           ...............      ",
"                                                           ...............      ",
"                                                                 ...            ",
"                                                                 ...            ",
"                                                                 ...            ",
"                                                                 ...            ",
"                                                                 ...            ",
"                                                                 ...            ",
"                                                                                ",
"   ++++++++++++++++++++++++++++++++++++++++++++++++++++++++++++++++++++++++++++ ",
"   ++++++++++++++++++++++++++++++++++++++++++++++++++++++++++++++++++++++++++++ ",
"   ++++++++++++++++++++++++++++++++++++++++++++++++++++++++++++++++++++++++++++ ",
"                                                                                ",
"                                                                                ",
"                                                                                ",
"                                                                                ",
"                                                                                ",
"                                                                                ",
"                                                                                ",
"                                                                                ",
"                                                                                ",
"                                                                                ",
"                                                                                ",
"                                                                                ",
"                                                                                ",
"                                                                                ",
"                                                                                ",
"                                                                                ",
"                                                                                ",
"                                                                                "};
