/* XPM */
static char * hr1_xpm[] = {
"80 80 3 1",
" 	c None",
".	c #000000",
"+	c #3366CC",
"                                                                                ",
"                                                                                ",
"                                                                                ",
"                                                                                ",
"                                                                                ",
"                                                                                ",
"                                                                                ",
"                                                                                ",
"                                                                                ",
"                                                                                ",
"                                                                                ",
"                                                                                ",
"                                                                                ",
"                                                                                ",
"                                                                                ",
"                                                                                ",
"                                                                                ",
"                                                                                ",
"                                                                                ",
"                                                                                ",
"                                                                                ",
"                                                                                ",
"                                                                                ",
"       ++++++                                                                   ",
"       ++++++                                                                   ",
"       ++++++                                             ......                ",
"       ++++++                                            .......                ",
"       ++++++                                            .......                ",
"       ++++++                                          .........                ",
"       ++++++                                      .............                ",
"       ++++++    ++++++                            .............                ",
"       ++++++  ++++++++++        ++++++    ++++    .............                ",
"       +++++++++++++++++++       ++++++  ++++++    .............                ",
"       +++++++++++++++++++       ++++++++++++++          .......                ",
"       ++++++++++++++++++++      ++++++++++++++          .......                ",
"       ++++++++     +++++++      ++++++++++++++          .......                ",
"       ++++++       +++++++      +++++++                 .......                ",
"       ++++++        ++++++      ++++++                  .......                ",
"       ++++++        ++++++      ++++++                  .......                ",
"       ++++++        ++++++      ++++++                  .......                ",
"       ++++++        ++++++      ++++++                  .......                ",
"       ++++++        ++++++      ++++++                  .......                ",
"       ++++++        ++++++      ++++++                  .......                ",
"       ++++++        ++++++      ++++++                  .......                ",
"       ++++++        ++++++      ++++++                  .......                ",
"       ++++++        ++++++      ++++++                  .......                ",
"       ++++++        ++++++      ++++++            ...................          ",
"       ++++++        ++++++      ++++++            ...................          ",
"       ++++++        ++++++      ++++++            ...................          ",
"       ++++++        ++++++      ++++++            ...................          ",
"       ++++++        ++++++      ++++++            ...................          ",
"                                                                                ",
"                                                                                ",
"                                                                                ",
"                                                                                ",
"                                                                                ",
"                                                                                ",
"                                                                                ",
"                                                                                ",
"       ++++++++++++++++++++++++++++++++++++++++++++++++++++++++++++++++         ",
"       ++++++++++++++++++++++++++++++++++++++++++++++++++++++++++++++++         ",
"       ++++++++++++++++++++++++++++++++++++++++++++++++++++++++++++++++         ",
"                                                                                ",
"                                                                                ",
"                                                                                ",
"                                                                                ",
"                                                                                ",
"                                                                                ",
"                                                                                ",
"                                                                                ",
"                                                                                ",
"                                                                                ",
"                                                                                ",
"                                                                                ",
"                                                                                ",
"                                                                                ",
"                                                                                ",
"                                                                                ",
"                                                                                ",
"                                                                                "};
