/* XPM */
static char * IBERDROLA_xpm[] = {
"80 80 16 1",
" 	c None",
".	c #317B07",
"+	c #3080C1",
"@	c #5B9630",
"#	c #7AA911",
"$	c #6796CF",
"%	c #80AA5C",
"&	c #F19D04",
"*	c #9DBF86",
"=	c #9BB5E0",
"-	c #F2C208",
";	c #B3CEA1",
">	c #F0DA7C",
",	c #CDDFC6",
"'	c #E8EFDE",
")	c #FFFFFE",
"                                                                                ",
"                                                                                ",
"                                                                                ",
"                                                                                ",
"                                                                                ",
"                                                                                ",
"                                                                                ",
"                                                                                ",
"                                                                                ",
"                                                                                ",
"                                                                                ",
"                                                                                ",
"                                                                                ",
"                                                                                ",
"                                                                                ",
"                                                                                ",
"                                                                                ",
"                                                                                ",
"                                                                                ",
"                                                                                ",
"  )))))))))))'))))))))))))))))))))))))))))))))))))))))))))))))))))))))))))))))  ",
"  ))))))))))))))))))))))))))))))))))))))))))))))))))))))))))))))))))))))))))))  ",
"  ))))))))))))))))))))))))))))))))))))))))))))))))))))))))))))))))))))))))))))  ",
"  )))))))))))'))))))''))))))''))))))))))))))))))))))))))))))))))))))))))))))))  ",
"  )))))))))))#')))))'=))))))>>))))))))))))))))))))))))))))))))))))))))))))))))  ",
"  ))))))))))'#>))))),,')))))->))))))))))))))))))))))))))))))))))))))))))))))))  ",
"  ))))))))))*#-))))',='))))>--))))))))))))))))))))))))))))))))))))))))))))))))  ",
"  ))))))))),@-*))))'==,)))'>--')))))))))))))))))))))))))))))))))))))))))))))))  ",
"  ))))))));@###>)',====))>---->)))))))))))))))))))))))))))))))))))))))))))))))  ",
"  )))))))-@##-#,),=,===)>----->)))))))))))))))))))))))))))))))))))))))))))))))  ",
"  ))))),%@#@###*,=,==$=------->)))))))))))))))))))))))))))))))))))))))))))))))  ",
"  ))));###@##-*==,====---------)))))))))))))))))))))))))))))))))))))))))))))))  ",
"  )))*@@#@@##$=$===$=&-------&-'))))))))))))))))))))))))))))))))))))))))))))))  ",
"  ));#@#@##-*=$=====--&-------&'))))))))))))))))))))))))))))))))))))))))))))))  ",
"  )>@@#@@##$=$$$===&-&&&---&-&->))))))))))))))))))))))))))))))))))))))))))))))  ",
"  )*.##@@##*$=$===*-&-&-----&-&'))))))))))))))))))))))))))))))))))))))))))))))  ",
"  )#@@#.##%$$+$$=$&&&&&&-&-&&&&')'))))))))))))))))))))))))))))))))))))))))))))  ",
"  '%@@@###@$$$+$$$%&&&&-&-&-&&&)))))))))))))))))))))))))))))))))))))))))))))))  ",
"  )@@.@@#@@++++$$$&&&&&&&&&&&&,)))))))))))))))))))))))))))))))))))))))))))))))  ",
"  )*.@@#@#@++++$$$$&&&&-&-&&&>')))))))))))))))))))))))))))))))))))))))))))))))  ",
"  )'@.@@@@@.++$+$++$&&&&&&&&&>)))'))))))))))))))))))))))))))))))))))))))))))))  ",
"  )),@.#@@.@++++++++&&&&&&&&>)))))))))))))))))))))))))))))))))))))))))))))))))  ",
"  )))'%@@.@%',=+++$=)>>&&&->))))))))))))))))))))))))))))))))))))))))))))))))))  ",
"  )))'%)''))))))''))))))')))))))))))))))))))))))))))))))))))))))))))))))))))))  ",
"  )));%))))))))))))))')))))))))))))))))))))))))))))))))))'))))))))))))))))))))  ",
"  ))),@)))))))))))))))))))))))))))))))))))))))))))))))))))))))))))))))))))))))  ",
"  ))),@'))))))))))))))))))))))))))))))))))))))))))))))))))))))))))))))))))))))  ",
"  )))'@'))))))))))))))))))))))))))))))))))))))))))))))))))))))))))))))))))))))  ",
"  )))''')'%%);@@@@%');%@@@@%)%@@@@;))*@@@+%,))*@@@@*))),%.@@;)),@;)))));@%))))  ",
"  )))))))'.%);.*;*.%);.*;;;,)@.;;%.;)%.;;;..;)%.*,%.*);.@**%.*),.*)))))%..,)))  ",
"  )))))))'.@)*.;))@.);.;)))))@@)),.@)%.'))'.@'%.')).%'@.')))%.,,.*)))),.*.%)))  ",
"  )))))))'.%);.;;%@,),.%;;*')%@',*.;)*.')))*.,*@,'*.*,.*)))),.*,.;))))%.'*.'))  ",
"  ))))))),.@)*.*%+@%);..@.@;)@@;..;))%.,)))*.;*.;..*)*.;))))'.*,.*))),.%)'.%))  ",
"  )))))))'.%);.,))*.*,.;)))))@@),@%))%.')))*.,%@''@%',.*)))),.*,.;)));.%**.@')  ",
"  )))))))'.@)*.;));.*;.;)))))@@')*.*)%.')),.@)%.'),.*)@.,))'@.',.*)))@@@@@@.*)  ",
"  )))))))'.%);.%%%.@,,.%%%%*)@@))).@'*.%%%.@')%.'))@.''@.%@@.,),.@%**.*)))'@.)  ",
"  )))))))'*;),***%;,),***%*;)=;')),*';****,')),*))),*,)';%**'))';***,*')))),*'  ",
"  ))))))))))))))))))))))))))))))))))))))))))))))))))))))))))))))))))))))))))))  ",
"                                                                                ",
"                                                                                ",
"                                                                                ",
"                                                                                ",
"                                                                                ",
"                                                                                ",
"                                                                                ",
"                                                                                ",
"                                                                                ",
"                                                                                ",
"                                                                                ",
"                                                                                ",
"                                                                                ",
"                                                                                ",
"                                                                                ",
"                                                                                ",
"                                                                                ",
"                                                                                ",
"                                                                                ",
"                                                                                ",
"                                                                                ",
"                                                                                "};
