/* XPM */
static char * imusic TV_xpm[] = {
"80 80 16 1",
" 	c None",
".	c #666766",
"+	c #727681",
"@	c #808490",
"#	c #AA8840",
"$	c #D58A0B",
"%	c #969593",
"&	c #A19579",
"*	c #DE9808",
"=	c #B5A351",
"-	c #D0AC2D",
";	c #ECB006",
">	c #B0B0B3",
",	c #FBCE03",
"'	c #D1D0D1",
")	c #F5F1E7",
"                                                                                ",
"                                                                                ",
"                                                                                ",
"                                                                                ",
"                                           @@                                   ",
"                                   ''>>%++++%                                   ",
"                                   +........%                                   ",
"                                   @........%                                   ",
"                                   @........%                                   ",
"                                   @........>                                   ",
"                                   +..%%>''''                                   ",
"                                   >')))''>%>                                   ",
"                                   >>%%%.%%%%                                   ",
"                                   >%%%%%%%%%                                   ",
"                              @@%  %%>%%>%%%>  &@@                              ",
"                            @&#$#  %%>%>%>%%>  &$#&@                            ",
"                          %##$$$#  %>>>>>>>>>  &$$$#&@                          ",
"                        &##$$$$$&  %>>>>>>>>>  &$$$$$#&@                        ",
"                      @&#$$$$$$$&  >>>>'>>'>>  #$$*$$$$#&                       ",
"                     %#$$-$$$$$$&  >>'>'>'>>>  #$$$$$$*$#&@                     ",
"                    &#$*$$*$**$$&  >''''''''>  #$$$-$*$*$$#@                    ",
"                  @&#*******$$$#@  >''''''''>  &#$$********#%                   ",
"                  &********$##@@   >''''''''>   @&#*********#%                  ",
"                 &#*******$#%      '''''''''>     @&#**;*****#%                 ",
"                &#*;**;**#&@       >)'')'')''       %#*******;#@                ",
"               %#;**;**-#&         '')'')'')>        @&#*;*;**;&@               ",
"              @#;**;*;;#%          >)')')'))>          &#*;**;**&               ",
"              &;;;;;;*#%           ''')')''''           &#;;;;;;#%              ",
"             %#;;;;;;#%            >''''''''>            &#;;;;;*=              ",
"             =;;;;;;#&             >''>'''''>             =;;;,;;#&             ",
"            %#;;;;,;&              >'''''>''>             @=;;;;;;=@            ",
"            =;,;;;;#@              >>''>'''>>              &#,;;;;,&            ",
"           %#,;;,;;&               >>'>>'>>>>               =;;,;,;&            ",
"           &,;,;,;=@               %>>>>>>>>>               %-;;,;,#@           ",
"           =,,,;,;&                %>>>>>>>>>                =,,,,,,&           ",
"          %-,,,,,=@                %%>>>>>>%>                &,,,,,,=           ",
"          &,,,,,,&                 %%>%%%%%%%                @=,,,,,-@          ",
"          =,,,,,,%                 +%%%%%%%%>                 =,,,,,,%          ",
"         @=,,,,,=@                @%.%%%%%%%%                 &,,,,,,&          ",
"         @,,,,,,=                 ++%%%%%%%%%                 %,,,,,,=          ",
"         %,,,,,,=                 ++........%                 @-,,,,,=          ",
"         %,,,,,,&                 ++........%                  -,,,,,=@         ",
"         &,,,,,,&                 ++........%                  =,,,,,,@         ",
"         &,,,,,,%                 @+........+                  =,,,,,,@         ",
"         &,,,,,,&                 @+........%                  =,,,,,,@         ",
"         &,,,,,,&                 @.........+                  =,,,,,,@         ",
"         %,,,,,,&                  %++++++++>                 @=,,,,,=@         ",
"         %,,,,,,&                                             @,,,,,,=          ",
"         @-,,,,,=                  > '>'>  >                  %,,,,,,&          ",
"          =,,,,,-@                @>>+%%+%>+>                 &,,,,,,&          ",
"          =,,,,,,%                @>'%>%>+@+%                 =,,,,,,%          ",
"          &,,,,,,=                @%>%>%>%++>                @-,,,,,-@          ",
"          %-,,,;,=@               @%'%>%%+++>                &,,;,,,&           ",
"           =,,,,,;&               @>>>>>>> >>                =,,,;,,&           ",
"           &;,;,;,=@                                        &#,,;,,#@           ",
"           @-,,;,;;&                                       @=;,;,;,&            ",
"            &;;;,;,-@                                      &;,;;;,#%            ",
"            %-;;;;;;&                                     @#;,;,;;#             ",
"             &;;;;;;#&                                   @=;;;;;;#%             ",
"             %#;;;;;;#&                                  &;;;;;;;&              ",
"              &;;;;;;;#%                                &#;*;;;;#%              ",
"              @&;;*;;*;#%                             @&#;;;;;*#&               ",
"               %#*;;*;;*#&@                          %&;;;*;*;*&                ",
"                &#*;*;*;*;&%                        &#***;*;**#@                ",
"                 &#********#&@                    %&#*-**;***#@                 ",
"                  &#*********#&@                %&#*******$*#@                  ",
"                   &#$********$#&&@@        @@&##$$*$****$$#@                   ",
"                    %#$$*$*$$$$$$$$###+&#&###$$$$$$$$$$$$$&@                    ",
"                     %#$$$$$$$$$$$$$$$$$$$$$$$$$$$$$$$$$#&@                     ",
"                      @&#$$$$$$$$$$$$$$$$$$$$$$$$$$$$$$#@                       ",
"                        @##$$$$$$$$$$$$$$$$$$$$$$$$$$#&@                        ",
"                          %&#$$$$$$$$$$$$$$$$$$$$$$#@@                          ",
"                            %@##$$$$$$$$$$$$$$$$#&%@                            ",
"                               %&&#-$$$$$$$$##@&@                               ",
"                                  @@%@&@&%@%@                                   ",
"                                                                                ",
"                                                                                ",
"                                                                                ",
"                                                                                ",
"                                                                                "};
