/* XPM */
static char * Kiosque 8_xpm[] = {
"80 80 16 1",
" 	c None",
".	c #000000",
"+	c #020207",
"@	c #020316",
"#	c #0D0E0E",
"$	c #121316",
"%	c #191A1B",
"&	c #1F1F28",
"*	c #2C2D2E",
"=	c #36373A",
"-	c #404143",
";	c #515256",
">	c #6B6B73",
",	c #8D8E90",
"'	c #B8B8BA",
")	c #E0E1E2",
"                                                                                ",
"                                                                                ",
"                                                                                ",
"                                                                                ",
"                                                                                ",
"                                                                                ",
"                                                                                ",
"                                                                                ",
"                                                                                ",
"                                                                                ",
"                                                                                ",
"                                                                                ",
"                                                                                ",
"                                                                                ",
"                                                                                ",
"                                                                                ",
"                                                                                ",
"                                                                                ",
"                                                                                ",
"                                                                                ",
"                                                                                ",
"                                                                                ",
"                                                                                ",
"                                                                                ",
"                                                                                ",
"                                                                                ",
"                                                                                ",
"                                                                                ",
"                                                                                ",
" +.+++.++++@++.++++++++++++++++#.++++..+.++++@@@@@@&@@@$@+.@@+.+++++.....+++.+. ",
" .+...+.++@@@@@++++.........+++...++++@@++++@@&@@+@.++++@@.+@.++............... ",
" ++#&#.+++++&;&&=&.+->;>;>>-@@+@=>>>;>;&@@+@&;--=-=%.+$%@#.@@+.+$#+%%*%%%%$%$+. ",
" +.&)=..+..;)>@$)-.,)''')')),.#,)')')')),++,)')')'))>.,,++.+@...';-)))))))))'+. ",
" ..*)-.+.+,)>+.%)-=)-#+#+#+>)$>)-$#$#$%,)-+))-#%%%%,)$,'+#.@@...',;)-=------=+. ",
" ..%)=..&')-...$)->'........'=',.......+);&@''%....+)=,'@@+@@...'>;'+.......... ",
" +.*)-.-))&..+.%)-,'..++.+.+';,'........*&,,+))*.#..';,'@&+@@+..',;)+......+++. ",
" ..*)=>),+..+..$)=,,..+.+..+'--)'>,>,>,;&.,'.+')*..+'-,'+@+@@...'>;)>;;;;;#.+.. ",
" ..*)-')*.+#++.&)=>'...+...#';@;,'')'''))%>'..#))*.@'->'+#+@@...',-)')'))'%.+.. ",
" ..%)*#,);..++.%)*,,..+.++.+'-&@..+.+++%);,,...+')&.'-,,+@@++...'>;'%+#+#++.... ",
" +.*)=..>)>+.+.%)=>'.......#'=,,........'>>'.+..+')*'-,'+&+@++..',;)+......++.. ",
" ..&)*...;),$.+$)*;)=.+.++.-)@,'#......%);;)$.....'))$,'++.....+);;'+.......... ",
" ..=)=.+..*)';@-)-+))''''''),.=)'',',',))%#))',',,,))==)',,',,,))&;)'',',',',#. ",
" ..$>$++++.$,>&@;%.#>>,>,>,;+..%>,,,,,'>&..%,,',,,,;''.=,,',',',*.=>,,,,,,,,,+. ",
" +...++++@++..+..++..........++..........++.+@@&@@@+#=++++.......+...........+. ",
" .......++++......+...........................++@+@@@+@@@...+.................. ",
" +.#+#**.#&*$&*%#&+=#%&*%++*&$&*%*#**$&*+%+%*%#+$*$+.$$+.%&*#*&%%.%$#&%##++*%.. ",
" +.%$%;%.#*%===*=-&=-=*$=.#=-*=%--&*##&%&;=*%%=+=-%.+-;+.*%*=%*=-*;*=%$*=$#-*+. ",
" +.#%$&%.+%*%$@$$%%#$*&*$.+*&$#+$*#*&%+#%*%&&*&*%=$.#*&$.%**%*&$$*$%%*&%&=%=&+. ",
" .............................................................................. ",
" .............................................................................. ",
"                                                                                ",
"                                                                                ",
"                                                                                ",
"                                                                                ",
"                                                                                ",
"                                                                                ",
"                                                                                ",
"                                                                                ",
"                                                                                ",
"                                                                                ",
"                                                                                ",
"                                                                                ",
"                                                                                ",
"                                                                                ",
"                                                                                ",
"                                                                                ",
"                                                                                ",
"                                                                                ",
"                                                                                ",
"                                                                                ",
"                                                                                ",
"                                                                                ",
"                                                                                ",
"                                                                                ",
"                                                                                ",
"                                                                                ",
"                                                                                ",
"                                                                                ",
"                                                                                ",
"                                                                                "};
