/* XPM */
static char * KTO_xpm[] = {
"80 80 13 1",
" 	c None",
".	c #384290",
"+	c #E0042E",
"@	c #883778",
"#	c #0283C2",
"$	c #0389B9",
"%	c #407FB5",
"&	c #A04FC8",
"*	c #5D75C1",
"=	c #8E64C2",
"-	c #D46886",
";	c #6EB64A",
">	c #E1B428",
"                                                                                ",
"                                                                                ",
"                                                                                ",
"                                                                                ",
"                                                                                ",
"                                                                                ",
"                                                                                ",
"                                                                                ",
"                                                                                ",
"                                                                                ",
"                                                                                ",
"                                                                                ",
"                                                                                ",
"                                                                                ",
"                                                                                ",
"                                                                                ",
"                                                                                ",
"                                                                                ",
"                                                                                ",
"                                                                                ",
"                                                                                ",
"   =**%*%*%%%%%%%%%%*%%%*%%%*%%%%%%%%%%%%*%%**%**%***%%%*=                      ",
"   %$$#$#$$$$#$$#$$$$$$$$$$$$$$$#$$#$$$$$$$$$$$###$#$$#$$*                      ",
"   *$##################################$$#######$$######$*                      ",
"   *#$########################################$$########$*                      ",
"   *$$###$################################$##########$###*                      ",
"   *$######$##$##$##$##$##$##$##$##$######$#$############*                      ",
"   *#$######################################$$%#%#$##$$$$*                      ",
"   *#####$##################$$$########$####$%@@@.#$%;>;;*  -;-    @&@    ----  ",
"   *########$####$#$$######%==%##$###$$######%+++@$#%>>>;*  ;;;-   ...&   >>>-  ",
"   *#########$##########$#$&  =$####$########%+++@$$$>>>;*  ;;;-   ...    >->-  ",
"   *######$###############$   *########$$####%@@+%$$%;>>;*  -;;    &..    ->>   ",
"   *######################%   *####$#########$.%%##$$$%$$*                      ",
"   *###$###$$########$$$$$*   %$$$$$$#$$#$$$#$$$$$##$$$$$*                      ",
"   *######%=&*$$###$%===&=    ==&===========&=*%######$$$*                      ",
"   *#####$&  =$###$=                             =$$$###$*                      ",
"   *#####$   *##$$*                                *$###$*                      ",
"   *#####%   *##$*    &&&&    &&&&        && &      *$###*                      ",
"   *#####*   %#$*    %$#$%   ##$$=     =$$##$$%&     %##$*                      ",
"   *$#$#$=   $#%    %$###*   %##&    *$$######$$*    *$##*                      ",
"   *#####=   $*    %$###$&   $$*    *$$$#####$##$&    $##*                      ",
"   *$###$   **    %$$###$&  =$%    *####$#$$####$*    %$#*                      ",
"   *####$   &    %$$#$##%   *$=    $#####$#$#####%    $##*                      ",
"   %####%       %#$###$#%   %$    *$#############*    $$#*                      ",
"   *###$=       ######$#*   #$    %##$##########$    =$##*                      ",
"   *$##$&        ######$=   #$    %##$##$#$####$*    %$#$*                      ",
"   *###$&    =   =$###$#   &##    &#####$#####$%    =$###*                      ",
"   %$###    %$&   $$###$   *$$=    *$########$=     $####*                      ",
"   *$##%   *##%   &$##$%   %$#$     *%$$$$#$*&    &%$####*                      ",
"   *#$$*   $#$$*   *##$*   %$#$*      =***&      &$$##$##*                      ",
"   *###=   ####$    %$#=   $###$*               %$#######*                      ",
"   %$$$&  %#####%   &$$&  &#$$###$=          =*$$$$#$####*                      ",
"                                                                                ",
"                                                                                ",
"                                                                                ",
"                                                                                ",
"                       &                                                        ",
"                                                                                ",
"                                                                                ",
"                                                                                ",
"                                                                                ",
"                                                                                ",
"                                                                                ",
"                                                                                ",
"                                                                                ",
"                                                                                ",
"                                                                                ",
"                                                                                ",
"                                                                                ",
"                                                                                ",
"                                                                                ",
"                                                                                ",
"                                                                                ",
"                                                                                ",
"                                                                                ",
"                                                                                ",
"                                                                                ",
"                                                                                ",
"                                                                                ",
"                                                                                "};
