/* XPM */
static char * La Locale_xpm[] = {
"80 80 16 1",
" 	c None",
".	c #010101",
"+	c #27221E",
"@	c #44493F",
"#	c #A95337",
"$	c #6E894B",
"%	c #80949F",
"&	c #FD873A",
"*	c #FE834D",
"=	c #B5AF50",
"-	c #ED87D8",
";	c #7ED7F7",
">	c #96F15A",
",	c #F4F65D",
"'	c #FEFB28",
")	c #FCFCFC",
"                                                                                ",
"                                                                                ",
"                                                                                ",
"                                                                                ",
"                                                                                ",
"                                                                                ",
"                                                                                ",
"                                                                                ",
"                                                                                ",
"                                                                                ",
"                                                                                ",
"                                                                                ",
"                                                                                ",
"                                                                                ",
"                                                                                ",
"                                                                                ",
"                                                                                ",
"                                                                                ",
"                                                                                ",
"                                                                                ",
"                                                                                ",
"                                                                                ",
"                                                                                ",
" ............................................................................   ",
" .+++.@++....................................................................   ",
" .%)@%))%....................................................................   ",
" .=)@=));....................................................................   ",
" .%)@))))+...................................................................   ",
" .=)--)))@...................................................................   ",
" .%)))-,)%...................................................................   ",
" .%===@+-@....+@$$=##++.......++%%%%%@@+@@@+@+@+@+....++++++..+++++++++++++..   ",
" +#*&=*&*#+++=,,,,,,',,$.....%%;;;;;;;;)))))))))))+..-------+.@,>>>>>>>>>>>>.   ",
" .#*&**&&+.#,''''''''''''+..%-;;;;;;;;;)))))))))))@.+%------+.@>>>>>>>>>>>>%+   ",
" .#=***&*##)''''''''''''',@%;;;;;;;;;;;)))))))))))$..-------+.@,>>>>>>>>>>>>.   ",
" .#*&*&**&,''''''''''''''')-;;;;;;;;;;;)))))))))));..------%+.@>>>>>>>>>>>>$+   ",
" .#=*&**&,''''''',','''''',);;;;;;;;;);))))))))))))..-------+.@>>>>>>>>>>,>>.   ",
" .#***&*&&'''''''===,'''''',;%;;;;;%%%;))))))))))))+.#------+.@>>>>>>$$$$$$@.   ",
" .#=&**&*'',''',@...$'',',''>;;;;%...+;)))))%))))))%.-------+.@,>>>>>$.......   ",
" .#***&**&'''',#.....='''''',;;;%....+)))))-@;)))))%+------%+.@>>>>>>$.......   ",
" .#=***&*,','',+.....$,''''',>;;+....%)))))).)))))),+-------+.@>>>>>>>+++++..   ",
" .#*&****&''''=.......,''''',;;%.....%)))))=.%)))))-@#------+.@>>>>>>=>=>=;+.   ",
" .#=***&*'',',=.......='','',>;%.....>)))))%.%))))))@-------+.@,>>>>>>>>>>>@.   ",
" .#***&**&''''=.......=''''',;;@....+;)))))@.@))))))%#-----%+.@>>>>>>>>>>>>+.   ",
" .#=***&*,''',=.......='','',);%....@))))))@.@))))))=-------+.@>>>>>>>>>>>>@.   ",
" .#*&*&**&''''=.......=''''',;;@....$))))))...)))))))#------+.@>>>>>>>>>>>>+.   ",
" .#=***&*'',''=......+,''''',>;%....%))))))%@%)))))))-------+.@,>>>>>>$>$=$+.   ",
" .#*****&&'''',+.....@,''''',;;%....,))))))))))))))))------%+.@>>>>>>$.......   ",
" +#=*&**&''''''=.....,'''''',;;;@..@))))))))))))))))))------+.@>>>>>>>.......   ",
" .#*&***&&''''',=+++=''''''',%;;;+.@)))))))))))))))))------%+.@>>=>>>$.......   ",
" +#=***&&&&'&'&'',',''''''');;;;;;%;));)))))))))))))))------%-%)=;;>>>$$$$$$.   ",
" .#***&*&*&*&*&&'''''''''''>;;;;;;;;;;;)))))))))))))));----------->>>>>>>>,=+   ",
" .#*&&&&*&*&&&&,''''''',''';;;;;;;;;;;;)))@++++)))))))-----------;>>>>>>>>>>+   ",
" .#*&**********&'''''''''=@@;;;;;;;;;%;))-.....=)))))))----------=>>>>>>>>>%+   ",
" .#,&&*****&***,''''''',=@..@;;;;;;;;;;)),.....-)))))))----------->>>>>>>>>>+   ",
" .#*****&*&*&*&&'',''==+......%%;;;;;;;))%.....@)))))))----------=>;>>>>>>>%+   ",
" .+#+#+++#+#+#+++@@@++..........+@+@+@+@@+.....+@@@@@@@++++++++++@+@+@+@+@++.   ",
" ............................................................................   ",
"                                                                                ",
"                                                                                ",
"                                                                                ",
"                                                                                ",
"                                                                                ",
"                                                                                ",
"                                                                                ",
"                                                                                ",
"                                                                                ",
"                                                                                ",
"                                                                                ",
"                                                                                ",
"                                                                                ",
"                                                                                ",
"                                                                                ",
"                                                                                ",
"                                                                                ",
"                                                                                ",
"                                                                                ",
"                                                                                ",
"                                                                                ",
"                                                                                ",
"                                                                                "};
