/* XPM */
static char * LibertyTV FR_xpm[] = {
"80 80 16 1",
" 	c None",
".	c #303ABB",
"+	c #3031EF",
"@	c #31429A",
"#	c #363BD4",
"$	c #48488F",
"%	c #833F66",
"&	c #B7353E",
"*	c #5C63B3",
"=	c #6C6CDA",
"-	c #BF5960",
";	c #D57D81",
">	c #9597E5",
",	c #DAB3B7",
"'	c #BCBFE7",
")	c #EFECF3",
"                                                                                ",
"                                                                                ",
"                                                                                ",
"                                                                                ",
"                                                                                ",
"                                                                                ",
"                                                                                ",
"                                                                                ",
"                                                                                ",
"                                                                                ",
"                                                                                ",
"                                                                                ",
"                                                                                ",
"                                                                                ",
"                                                                                ",
"                                                                                ",
"                                                                                ",
"                                                                                ",
"                                                                                ",
"                                                                                ",
"                                                                                ",
"                                                                                ",
"                                                                                ",
"                                                                                ",
"                                                                                ",
"                                                                                ",
"                                                                                ",
"                                                                                ",
"                                                                                ",
"                          ' >===########.#.********                             ",
"                       ==+#+++++++++++#####...@..$------;                       ",
"                    ==+++++++#+#+#+#######.#.*.$*;;;----&-%;                    ",
"                  #+++++++++++++#+###+###.#.@.@%;-;;;--&&&&%$@                  ",
"               >+++++++++++#+#+#+#######.#.#.@%;;;;;;;--&&&&%@@*                ",
"              >=++>+>=++++++++#+++#+###......$--;;,;;;;&&&&&&@@@@*              ",
"             #>'+#>#>'+++#+++++#.+++>>.#.#...%;)))))))),&&,);%@@@$*             ",
"            =+>>+=>+>'>>#+#='>+#>*'*)'>*>..*=%;,))),,;))&%))-%@@@@@*            ",
"            #+>'+>)#>)=)'+>'='>$)'==''*>)@.)=%&-;),;--))--))&&@@@@@*            ",
"            #+>>++)+>>++)=)>=>)#)*+.'=..'**'$%-&;))--&,);;);&%@@@@@$            ",
"            #+>'+=)#>'++'>'>=>=*'=.+'>..>'>'@&&&;))-&--))))-&&@@@$@             ",
"             .>'++)+>>+=)#'=.#+#)#..'>..@,)$@$&&;))&&&&,)),&&$@@@@*             ",
"              =)=#'#>)')=+*)')*$'*.+=)'*@')@@%%&-),&&&&;))-&&$@@@*              ",
"               =#+#+#+=++++#=#+.#.#..@*.@'>.@.%&&&&&&&&&&&&&%@@$                ",
"                  +++++++##++###.#.#.@.@''@@@@$&&&&&&&&&&&&%@*                  ",
"                   ==##+#.###.###.......*.@.@.@@%%&&&&&&&%-*                    ",
"                       >*###+###.#.#.@.@.@.@@@@@$%%&&&&-                        ",
"                             **##.#...@.@@@@@@$@**-*                            ",
"                                                                                ",
"                                                                                ",
"                                                                                ",
"                                                                                ",
"                                                                                ",
"                                                                                ",
"                                                                                ",
"                                                                                ",
"                                                                                ",
"                                                                                ",
"                                                                                ",
"                                                                                ",
"                                                                                ",
"                                                                                ",
"                                                                                ",
"                                                                                ",
"                                                                                ",
"                                                                                ",
"                                                                                ",
"                                                                                ",
"                                                                                ",
"                                                                                ",
"                                                                                ",
"                                                                                ",
"                                                                                ",
"                                                                                ",
"                                                                                ",
"                                                                                ",
"                                                                                ",
"                                                                                ",
"                                                                                ",
"                                                                                ",
"                                                                                "};
