/* XPM */
static char * Live 1_xpm[] = {
"80 80 13 1",
" 	c None",
".	c #D65428",
"+	c #C05E4E",
"@	c #FB5802",
"#	c #FB6304",
"$	c #F8762C",
"%	c #F88F51",
"&	c #F9A979",
"*	c #FAC19C",
"=	c #FBD5BD",
"-	c #FDE6D4",
";	c #FDF3E9",
">	c #FDFEFD",
"                                                                                ",
"                                                                                ",
"                                                                                ",
"                                                                                ",
"                                                                                ",
"                                                                                ",
"                                                                                ",
"                                                                                ",
"                                                                                ",
"                                                                                ",
"                                                                                ",
"                                                                                ",
"                                                                                ",
"                                   +@@##@##@@.+                                 ",
"                                 .@############@+                               ",
"                              @####@############@##+                            ",
"                           .#####@@#$%*=--==%$@@#####@+                         ",
"                           @###@@#%=>>>>>>>>>;=%@#####@                         ",
"                         @###@$=>>>>>>>>>>>>>>>>>;%@####.                       ",
"                       .###@%=>>>>>>>>>>>>>>>>>>>>>>=@####+                     ",
"                      .#####;>>>>>>>>>>;-->>>>>>>>>>>&####@                     ",
"                     .###@&>>>>>>>=$@#@@@@#@@$%->>>>>>>&@##@.                   ",
"                    +###$>>>>>>&$@#############@@%>>>>>>*@###                   ",
"                    @##@=>>>>>*@#################@%>>>>>>*###.                  ",
"                   ###@*>>>>=$@####@$%=---=*%@@###@@%>>>>>&###+                 ",
"                  @##@>>>>>&####@$=>>>>>>>>>>>>&@####$=>>>>$@##.                ",
"                  ###$>>>>;@###@$>>>>>>>>>>>>>>;&@###@#>>>>=####                ",
"                 .##@>>>*%@####>>>>>>>>>>>>>>>>>>>%#@##$>>>>>@##.               ",
"          +@@@@@@##@&>*@#@@@@@#&>>>>>>;===->>>>>>>>&###@&>>>>&###               ",
"          ###@@#####;>$@@$%%%%##->>>-*$@@@#$=>>>>>;>&####->>>=###@@#@@@@@.      ",
"         .@--=--=%#=>>@@;>>>>>@@=>>##########@%>>>>>>$@##@>>>=@##@$&&%%%%#@     ",
"         @$>>>>>=@@>>>@@->;>;=@%;$@############@>;****$###*>>$#$*>>>>>>>&#+     ",
"        +#&>>>>>&@$>>>@#$$$$$@#$#@##############%$@@@@####$>>@@=>>>>>>>>%@      ",
"        #@->>>>>#@*>>=@@#@@@###@@@@@###@@@@@@@##@@#$#$$$@@#@$#%>>>>>>>>=@+      ",
"        @@>>>>>>@#=>>&@$-===;$$*****$@#&&&&&&%#@$&;;;-;-=&##@#*>>>>>>>>&@       ",
"        #@>>>>>>@#>>;#@*>>>>=@$>>>>>$@@>>>>>>@#=>>>>>>>>>>>%@@&*&>>>>>>##       ",
"        @%>>>>>=#@>>>@$>>>>>%@%>>>>>##&>>>>>*@&>>>>>>-;>>>>>%###@>>>>>>@#       ",
"       +@&>>>>>&#@>>;#&>>>>>$#$;>>>>#@=>>>>>$$;>>>>>&##->>>>&###@>>>>>>#@       ",
"       @$;>>>>>@##>>&@;>>>>>@@$>>>>>@@>>>>>-@;>>>>>.@@@*>>>>&###&>>>>>*@+       ",
"       #*>>>>>>@#@@@@@>>>>>-@#%>>>>>@&>>>>-$@>>>>>>>>>>>>>>;####->>>>>$@        ",
"       #->>>>>>@#@@#@#>>>>>*##$>>>>>@->>>>%@#>>>>>>>>>>>>>>*@##@>>>>>>#.        ",
"      +@>>>>>>;>>>>;&%>>>>>$##$>>>>>=>>>>>@#%>>>>>&%%%%%%%%##$#@>>>>>>@         ",
"      @#>>>>>>>>>>>-@=>>>>>@##$>>>>>>>>>>%##%>>>>>&@@@@#$%$##&@%>>>>>=@         ",
"      @$>>>>>>>>>>>=@>>>>>>@##$>>>>>>>>>>@##%>>>>>>*&&*->>$@%$@%>>>>>&#         ",
"     +#=>>>>>>>>>>>%@>>>>;=#$#$>>>>>>>>>&@###>>>>>>>>>>>>-@%>@#->>>>-#@         ",
"     @#************@$=====$@&#$---;--;-&@#####*>>>>>>>>-&#@>;@&>;;;>&@          ",
"     @#@@@@@@@@@@@@##@@@@@@@*@#######@##@####@@%*****&$#@##>;#$$$$$$##          ",
"       .+.#$#$##@##$#######*>*@################@@#########*>>%@###@@@.          ",
"                ###;>>>>@##@>>>>>>>##########@%>;;-;;%@#@@>>>>$#@#              ",
"                @##*>>>>###@->>>>>>-#@@#####@*>>>>>>>@###%>>>>@##+              ",
"                .##@=>>>-###@%>>>>>>>>-=**-;>>>>>>>*####&>>>>*###               ",
"                 .##@>>>>&@##@$>>>>>>>>>>>>>>>>>>>%####$>>>>>@##.               ",
"                  ###->>>>&###@&;>>>>>>>>>>>>>>>;=@###@=>>>>=###                ",
"                  @##@>>>>>&##@#@%=>>>>>>>>>>>>&@@##@#=>>>>%@##@                ",
"                  .###=>>>>>@####@@&>>>>>>>>>*%@###@@=>>>>>###@+                ",
"                   @##@$>>>>>-@####@@@##$#########@*>>>>>>$###                  ",
"                    .###%>>>>>>&#@##############@%>>>>>>-$###.                  ",
"                     ##@@;>>>>>>-$@@##########@#=;>>>>>>%@###                   ",
"                      ###@$>>>>>>>>>*&$###$%&;>>>>>>>>;@###.                    ",
"                       .###@=>>>>>>>>>>>>>>>>>>>>>>>;$@##@.                     ",
"                        ##@##%>>>>>>>>>>>>>>>>>>>>>=%@####                      ",
"                         .####@%*>>>>>>>>>>>>>>>;*@#####                        ",
"                           .#####@@%*=>>>>>;=&$@@####@@                         ",
"                            @######@@#$%%%%$@@@#####@+                          ",
"                              +@#@################.                             ",
"                                  +@@@##@####@@+                                ",
"                                     +#####++                                   ",
"                                                                                ",
"                                                                                ",
"                                                                                ",
"                                                                                ",
"                                                                                ",
"                                                                                ",
"                                                                                ",
"                                                                                ",
"                                                                                ",
"                                                                                ",
"                                                                                ",
"                                                                                ",
"                                                                                "};
