/* XPM */
static char * M_80 RADIO_xpm[] = {
"80 80 16 1",
" 	c None",
".	c #0D0E3D",
"+	c #151644",
"@	c #1D1F4B",
"#	c #252751",
"$	c #B00017",
"%	c #B50128",
"&	c #3D3E63",
"*	c #BC1C3B",
"=	c #575777",
"-	c #C43F59",
";	c #6F708B",
">	c #CB576D",
",	c #88899F",
"'	c #E29BA8",
")	c #B1B2C2",
"                                                                                ",
"                                                                                ",
"                                                                                ",
"                                                                                ",
"                                                                                ",
"                                                                                ",
"                                                                                ",
"                                                                                ",
"                                                                                ",
"                                                                                ",
"                                                                                ",
"                                                                                ",
"                                                                                ",
"                                                                                ",
"                                                                                ",
"                                                                                ",
"                                                                                ",
"                                                                                ",
"                                                                                ",
"                                                                                ",
"                                                                                ",
"                                                                                ",
"                                                                                ",
"                                                                                ",
"                                                                                ",
"                                                                                ",
"                                                                                ",
"                                                                                ",
"        )'''         >''               ;==,              ;==;                   ",
"      >*$$$%*>    >-$$$%%-           ;++++.@;          =++++++#          =&;    ",
"     %$$%%%%%$*  *$$%%%%%$%         ;.#@++#@.=        #.@#@@##@.;       =) ,,   ",
"    $%%%%%%%%%$%%%%%%%%%%%%$       ).#@@&=@@#.,      &+#@+@#+@##.,      =   =   ",
"   $%%%$%$$$%$%$%%%$%$$$%%%$$      &+@#    #@+#     ;.#@+;   &+#@+      ,= &)   ",
"  -%%%%%%--*$%%%%%%%%--*$%%%$*     #@+,    )+#+)    #@@+,     &@#+;      );)    ",
"  %$%%%-    >$%%%%$*    >$%%%$     +@+      #@+,    .@+&       +@+&             ",
"  $%%%*      -$%%%%      -$%%$     @@+)    )@@+)   ,.#.)       =+@#   = ,===,   ",
"  $%%$        $%%$        $%%$     &++&    =++#    =+@@         .@+)            ",
"  $%%$        $%%$        $%%$      .#+&  &+#+     =+@#         +#.)            ",
"  $%%$        $%%$        $$%$       +#.  .@+      #@+&         +@+;  ,;;;;&)   ",
"  $%%$        $%%%        $%%%      &@#.  .#@&     &@@&         @#.;    ;   ;   ",
"  $%%$        $%%$        $%%$     &+@+@  #+#+#    #@+&         +@+=    =   ;   ",
"  $%%$        $%%$        $%%$    ,.#+;    ,+#.,   &+@#         +#.;    ,=,=)   ",
"  $%%$        $%%$        $%%$    =.+&      =+@&   &++#         +@.;            ",
"  $%%$        $%%%        $%%%    &@.        +@#   ;.#+        ;.#.)            ",
"  $%%$        $%%$        $%%$    &+.        .@@    .@.;       &+@+)    )&=&)   ",
"  $%%$        $%%$        $%%$    &++;      ;+@&    +#@&       +@@#     =   )   ",
"  $%%$        $%%$        $%%$    ,.#+)    )@@+=     +#.;     &+#.      =   =   ",
"  $%%$        $%%%        $%%%     +@@@,  )&+#.      .##+=  ,#+#@@      ;,)=,   ",
"  $%%$        $%%$        $%%$     ;.@@.##++#.=       .@#++++@#@.               ",
"  $%%$        $%%$        $%%$      ;.+@@@@+.=         .+@@#@@.@        )       ",
"  $$%$        $$%$        $$%$        &##@#&            &##@##=         ;;),)   ",
"                                                                                ",
"                                                                                ",
"                                                                                ",
"                                                                                ",
"                                                                                ",
"                                                                                ",
"                                                                                ",
"                                                                                ",
"                                                                                ",
"                                                                                ",
"                                                                                ",
"                                                                                ",
"                                                                                ",
"                                                                                ",
"                                                                                ",
"                                                                                ",
"                                                                                ",
"                                                                                ",
"                                                                                ",
"                                                                                ",
"                                                                                ",
"                                                                                ",
"                                                                                ",
"                                                                                ",
"                                                                                ",
"                                                                                ",
"                                                                                ",
"                                                                                ",
"                                                                                "};
