/* XPM */
static char * Mangas_xpm[] = {
"80 80 15 1",
" 	c None",
".	c #634630",
"+	c #98612C",
"@	c #8E7863",
"#	c #DA7F35",
"$	c #9F9691",
"%	c #EC9A3E",
"&	c #B5AAA2",
"*	c #C2BEBA",
"=	c #F5B76E",
"-	c #D3CBC5",
";	c #E1DDD9",
">	c #ECECE9",
",	c #F6F7F4",
"'	c #FFFFFF",
"                                                                                ",
"                                                                                ",
"                                                                                ",
"                                                                                ",
"                                                                                ",
"                                                                                ",
"                                                                                ",
"                                                                                ",
"                                                                                ",
"                                                                                ",
"                                                                                ",
"                                                                                ",
"                                                                                ",
"                                                                                ",
"                                                                                ",
"                                                                                ",
"                                                                                ",
"                                                                                ",
"                                                                                ",
"                                                                                ",
"                                                                                ",
"                                                                                ",
"                                                                                ",
"                                                                                ",
"                                                                                ",
"                       $$                                                       ",
"                       ;,,;*&                                                   ",
"      ...+..@*@ .......,'''''.........................................+..+..    ",
"     .@=%##+*'',;*$+##+>'''''@+###########################################%+.   ",
"    .#=#&--@;''',,'$@=@,','''$+==%%=%=%%=%=%%=%%=%%%%%=%%%=%%%=%=%%%%%%%%##%+   ",
"    .%#=,,-$,',,','&@=@,','>'&@==========================================%##@.  ",
"    .#%,,,&$'''@;'';+%$,'';.'-+===========================================%##.  ",
"    .#=>>;@;','.$''>+@$'''&.';.%=%=%%%%%%%%%%%%%%%=%%%=%%%%%=%=%%%=%=%%%%=%#@.  ",
"    .##;==@''',@.,,'@+$'',@.>,+#%%%%%%%%%%%%%%%%%%%%%%%%%%%%%%%+%%%%%%%%%%%##.  ",
"    .#%==%$'''>@.&''&.&''*..;'@#%%#++%%%%%%%%.@@+%%%++@+#%%%%#++%%%@+@@@@.%#+.  ",
"    .#%==+-'',,.+@,'-.$''@++-'@+%%+**+%++@#%%+-;$+%+--&;@#%%#+;&+%+@;-,'&+%##   ",
"    .#%==@>'''>+#+-'>.&';.#+-'$+%%@,'@#@;*@#%+*'>@+&,@.*>.%#@->-++$'@.$&.+###.  ",
"    .#%-%@,'''>+##@''.&'$+##&'&+%#$'*&@+;'>+#%$''.@>@.++@.#+-> >+.,,+++++#%##.  ",
"    .#%=@*''',;+#%@;'$*,++%+*'-.%+;'@$@.*;$;+#@,>@;.++++.++@'&.-$.->.+++.###+.  ",
"    .#%=@>,''';.#%#$,,,*.#%#&';+#@,,@.-.&>.&*+@;$*,@++&;-&.&'@.@*.@**;;,$#%##.  ",
"    .#%=@,''''-+#%%+,''@+#%#$'>++&';..*@@,..;$.@$',>++-,&-$;'&&;;.#+.+&'$+##@.  ",
"    .#%$&'''''-.#%%+*';.#%%#+*'@.;,,&&>*$,@+@;.@@*''-.+.@*@,'',>>+#%%+$'$+###.  ",
"    .#%@-'''''-.%%%#@'@+#%%%%+$.@',,,;-,>,@+#$*$;@-''@.$,$&'-$..-$.@++>'$+##+.  ",
"    .##@,'''''*.#%%%+*@+#%%%%%+..>'$...;''@+%+*,'&.*',$,>@;;..#+@>,;&-''$+###   ",
"    .##$''''''&+%%%%#.+#%%%%%%%%@.$++#+&''$+%%+$@.+.&'''$..+.#%%+@@@&&*;@+###.  ",
"    .#+*''''''*.#%%%%++#%%%%%%%%%%++#%%@,>@+%%%+++#%+$$+.+####%%%#++++.+.+##+.  ",
"    .#.>''''''&+%%%%%%%%%%%%%%%%%%%%#%%@+.++%%%%#%%%%+++##%#%%%%%%%%%%#######.  ",
"    .##,',''''&+#%%%%#%#%%%%#%%#%%%%%%%######%#%%#%%#%##%#%%%#%#%%#%#%#%#####   ",
"    .+&''','''$+%%%#%%%%%%#%%%#%#%#####%###%#%##%###%#%##%###%#%##%#%#%@###+#.  ",
"    ..;''''','$+#%#%%#%##%#%##%##%#%#%##%#%##%#%#%#%#%#%##%#%###%##%#######%+   ",
"     .,''''','%.##########################################################%#.   ",
"     $'',''''*..+++++++++++++++++++++++++++++++++++++++++++++++++++++++++++.    ",
"     -'''''>$    . .  .  .  .                                         .         ",
"     '''''*                                                                     ",
"    &''';$                                                                      ",
"    *''*                                                                        ",
"    >>$                                                                         ",
"   $*                                                                           ",
"                                                                                ",
"                                                                                ",
"                                                                                ",
"                                                                                ",
"                                                                                ",
"                                                                                ",
"                                                                                ",
"                                                                                ",
"                                                                                ",
"                                                                                ",
"                                                                                ",
"                                                                                ",
"                                                                                ",
"                                                                                ",
"                                                                                ",
"                                                                                ",
"                                                                                ",
"                                                                                ",
"                                                                                ",
"                                                                                ",
"                                                                                ",
"                                                                                "};
