/* XPM */
static char * Match TV_xpm[] = {
"80 80 15 1",
" 	c None",
".	c #BA0520",
"+	c #D10225",
"@	c #B1273B",
"#	c #D12441",
"$	c #B85B70",
"%	c #DB4D64",
"&	c #8C72A5",
"*	c #E77586",
"=	c #EB99A3",
"-	c #F6B3BD",
";	c #FACCD2",
">	c #FCDDE1",
",	c #FDEEED",
"'	c #FBFDFC",
"                                                                                ",
"                                                                                ",
"                                                                                ",
"                                                                                ",
"                                                                                ",
"                                                                                ",
"                                                                                ",
"                                                                                ",
"                                                                                ",
"                                   &$$$$@$$$                                    ",
"                              $@@...++++......@@$&                              ",
"                           @+++++++++.++++++++++...@&                           ",
"                         $@..++++++++++++.++++++++..@&                          ",
"                       &@.++++++...+++++++++++++++++...$                        ",
"                      @#.++++++++@++++++++++++++++++++..$                       ",
"                     .++++++.++##@@.@@@@@@@@@@@.+++..++++.&                     ",
"                   %.+++++++++.=,',''''''',,'',*++++++++++.%                    ",
"                   .+++...++++.=,''''''''''''''*++++++++++++                    ",
"                 $.++++++.++++.='''''''''''''''*+++++++++++++#                  ",
"                @.+++++++++++++%******'''-*****%+++++++.+++++.%                 ",
"                ..++++++++++++++@@@.@@,''*.@@.@.++++++++.+++++.$                ",
"               .++++++++++++++++++++.@'''*.+++++++++++.++++++++.&               ",
"              #++++++++++++++@#+++++.@'''*.+++++###+++++.+.+++++@               ",
"             %++++++++.++.++%;-#++++.@'''*+++..$=;-*$..+++++++++.&              ",
"             .++.++++++++++.*''%.+++.#'''*++.%-,'''''=@++++++++++@$             ",
"            @++++++++++++++.-''*.+++.@'''*++.>'''''','>++++++++++..             ",
"           $@++++++.++++++++>''*#++++@'''*++@''',>>''''@++++++++++.&            ",
"           @@#..++#...#.+++#'''-%++++@'''*.+%'''$..>'''%.#@@@++.@.#.            ",
"          %=,,>.+++@-'-#+++#'''>$.+++@'''*.+%'',@+.;'',$#=,,,+.%','@&           ",
"          #=,',.+++%;';@+++%''',*+++.@'''*.+%'''@+.;'''$#-'',..%'''@&           ",
"          .=,''#++.=,'-@++.*''''-++++@,''*+.%'',@+.%$$$@#='',+.%'''@#&          ",
"          .=,''*.+.;'';@++.-'''';.++.@'''*.+%'',@.++....#='',..%'''#+$          ",
"         &.=,''-++.>''-@+..-''''>.+++@'''*+.%'''#.++++++#='',+.%'''#+%          ",
"         $+=,''>++@'''-@.+.,'''',.+++@'''*++%'''#.+++++.#=''>..%'''#+.          ",
"         #+=''',.+%'''-#...,','''#++.#'''*+.%'',@.+++++.#=''>+.%'''#+.          ",
"        &++=''''%+='''-@++@''''''%.++@,''*.+%'',@.++++++#=''>..%'''#++          ",
"        $++=,'''=.>'''-@++%''''''*.++@'''*.+%'',@.++++++#='',..%'''#++&         ",
"        $++=,'''-@,'''-@++*''''''=.++@'''*++%'''#.+++++++=''>@.%'''#++&         ",
"        %..=,''',;''''-@++-'','''-#++@'''*++%'''#.+++.+.#='',$@='''@++&         ",
"        %++='''''''''';@+%;'';;'',*++@'''*+.%'''#.+++++++='''''''',#+.$         ",
"        #++='''''''''';@+%;''--'',*++@'''*.+%'',@+++++++#='''''''''@+.$         ",
"        #++=,''''''''';@+*>',=$'''-++@'''*+.%'',@.++++..#='''''''',@+.$         ",
"        $.+=''';'',,''-@.-''>%@'''>.+@'''*.+%'',@.++++++#='',%@*'',@+.&         ",
"        $.+=,''-''>>''-@.-''>%@''',..@'''*+.%'''#.+++++++=''>..$'''#++&         ",
"        &.+=,''&''=-''-@.>''-+.,'''.+@'''*++%'''@+++++++#='',+.%'''#++          ",
"         @+=,''*-'%;''-@+,''=++;'''%+@'''*++%'''#.++++.+#='',#.%'''#+.          ",
"         %+='''*='%-''-@#'''%+.-'''$.@'''*.+%'',@.++++++#-'',+.%'''#+.          ",
"         &+='''*%>.;''-%%'''@..=,''-.@'''*.+%'',@.++++++#='',+.%'''#+@          ",
"          +=,''*#%.;''-@=''',>,''''>.@'''*+.%'',@+.%**$##-''>+.%'''#+&          ",
"          +='''*+#.;''-@=''''''''''>+@'''*++%'''#+.->>>%+='',..$'''#+&          ",
"          #=,''*++.;''-@;''''''''''>@@'''*++%'',@+.-'''%@=''>..%'''@$           ",
"          &=;>,*++.-,>=@,''-===*-'''@@'''*++%'''=@@,'''@@=,,;#.%,>>@            ",
"           $*&=%+++*=*$@,''*@@@@$'''@@,''*++#'''>*=''',$#%===..#===@            ",
"           @....++++.+.%'''%.+++#'''$@'''*+++>'''''''';.++...++..++$            ",
"           &@++..+++++.%'''@++++#'''*@,''*+++=>''''',;*.+++++++++++             ",
"            &.++++++++#=,',.++++.'''-$,''*+++.$;'''>-%.++++++++++.%             ",
"             @.+++++++.#$$$.+.++.%$@@@'''*@.++..@$@@..+++++++++++$              ",
"             &.+++++++++..++.++++....@,,,*..+++......++++++++++++               ",
"               .++++++.+++++++++..++..####+++..+++#++++++++++++.&               ",
"               $+.+++++.++++++#*===*==*$&%+++**@++++++++++++++.@                ",
"                .+++++...+++++@>',,,',,$=*.+.-;.++++++++++++++#&                ",
"                 #.++++++++++++###$,@##@&>@.+'-+.++++++++++++.                  ",
"                  $.+++..+++++++++%,+++.#,#.%>$+++++++++++++@                   ",
"                   .+++..+++++++++%,+++.@'%.*;$++++++++++.+#$                   ",
"                    $.++++++++++++$>.++++;*@;=@+.++++++++.@                     ",
"                      .++++++.++++%>.++++&;$'#.+++++++++#$                      ",
"                      &@.+++++++++%,.++++%,='#.++++++++@                        ",
"                         @.++++++.%,@+++..,';.++++++.%&                         ",
"                           $#..++.%-#.+..+=>$++++.#&                            ",
"                             $@..+#*+.++++%%#++.#@&                             ",
"                                 &$@@....@@@$&                                  ",
"                                                                                ",
"                                                                                ",
"                                                                                ",
"                                                                                ",
"                                                                                ",
"                                                                                ",
"                                                                                ",
"                                                                                ",
"                                                                                "};
