/* XPM */
static char * MDR1 SACHSEN_xpm[] = {
"80 80 15 1",
" 	c None",
".	c #046399",
"+	c #0266A4",
"@	c #0168AC",
"#	c #0068B6",
"$	c #006AB2",
"%	c #006CB7",
"&	c #0870B9",
"*	c #1476BC",
"=	c #2480C1",
"-	c #398DC7",
";	c #4F9ACE",
">	c #67A9D5",
",	c #86BBDE",
"'	c #A2CBE6",
"                                                                                ",
"                                                                                ",
"                                                                                ",
"                                                                                ",
"                                                                                ",
"                                                                                ",
"                                                                                ",
"                                                                                ",
"                                                                                ",
"                                                                                ",
"                                                                                ",
"                                                                                ",
"                                                                                ",
"                                                                                ",
"                                                                                ",
"                                                                                ",
"                                                                                ",
"                                                                                ",
"                                                                                ",
"                                                                                ",
"                                                                                ",
"                                                                                ",
"                                                                                ",
"                                                                                ",
"                                                                                ",
"                                                                                ",
"                                                                                ",
"                                                                       ###      ",
"                                                                                ",
"                                                                     #     #    ",
"  >''''''''''''''''',',,,,,,,,,,,,;      ;,>>>>>>>>>>>;>;;;;;;;;-   #   %%      ",
"  >'''''''''''''''',','',',,,,,,,,>;;=   ;,>>>>>>>;>;;>;;;;;;;;;-   # #%%%   %  ",
"  >'''''''''''',,,,,,,,,,,,,,,>,>>>>>-   ;>>>>;>;;;;;;;;;;;------   #  %%%   %  ",
"  >,'''''''',',,,,,,,,,,>>>>>>>>>>>>>;   ->;;;;;;;;;-;--------===   #  %%%      ",
"  ->,,>>>,>>;;>>,>>;;;;;>>>>>;;;----;-   =--------==============*   #   ##      ",
"    =  *;;*    ->;=    =->;;;=*     =*   **    *=*    *====******    #     #    ",
"        **  *   *   **   -;;=            &&     %   %  &*&&&&&&%%     #####     ",
"  =--     *-;-=    =--=  =-=   &*==*     **&#     %&#  #&&%&%%%%%               ",
"  ->;=   *-;;;-*  =----* &=    *====*    &**&    %&%   #%%%%%%%%%               ",
"  =-;-   =;----* *---===  *   &=****&&   &&%%   #%%#   #%%%%%%%%%               ",
"  =--=  *--=-===&===*==*& &   &&&&&%&%%  #%%%   %%%%%##%%%%%%%$$$               ",
"  ==-* &=======******&*&#     %%%%%%%%%%#%%%%  #%%%%%%%%%%%$$$$$$               ",
"  *==* **=****&**&&&&&%%%#    %%%%%%%%%%%%%%% #%%%%%%%%%$$$$$@@@@               ",
"  &**&%&*&&&&%&%%%%%%%%%%%#  #%%%%%%%%%%%%%%%#%%%%%%%$$$$$@@@@@@@               ",
"  &&&&%&%%%%%%%%%%%%%%%%%%####%%%%%%%%%%%%%%%#%%$$$$$$@@@@@@@@+++               ",
"  %%%%%%%%%%%%%%%%%%%%%%%%%%%%%%%%%%%%%%%%%%%%$$$$$@@@@@@@+++++++               ",
"  %%%%%%%%%%%%%%%%%%%%%%%%%%%%%%%%%%%%%%%%%$$$$$@@@@@@@@+++++++++               ",
"  %%%%%%%%%%%%%%%%%%%%%%%%%%%%%%%%%%%%%$$$$$$@@@@@@+@++++++++++.+               ",
"  %%%%%%%%%%%%%%%%%%%%%%%%%%%%%%%%%$$$$$$@@@@@@@@+++++++++.......               ",
"  %%%%%%%%%%%%%%%%%%%%%%%%%%%%%%$$$$$@@@@@@@@+++++++++.+.........               ",
"  %%%%%%%%%%%%%%%%%%%%%%%%%%%$$$$$$@@@@@@@+++++++++.+............               ",
"  %%%%%%%%%%%%%%%%%%%%%%%$$$$@@@@@@@+++++++++.+..................               ",
"  %%%%%%%%%%%%%%%%%%%%%$%$$$$$$$$@@@@@@@@@+@+++++++++++.+........               ",
"                                                                                ",
"                                                                                ",
"                                                                                ",
"                                                                                ",
"                                                                                ",
"                                                                                ",
"                                                                                ",
"                                                                                ",
"                                                                                ",
"                                                                                ",
"                                                                                ",
"                                                                                ",
"                                                                                ",
"                                                                                ",
"                                                                                ",
"                                                                                ",
"                                                                                ",
"                                                                                ",
"                                                                                ",
"                                                                                ",
"                                                                                ",
"                                                                                ",
"                                                                                ",
"                                                                                ",
"                                                                                ",
"                                                                                ",
"                                                                                "};
