/* XPM */
static char * MTV Base_xpm[] = {
"80 80 10 1",
" 	c None",
".	c #050302",
"+	c #13171C",
"@	c #15253A",
"#	c #18355C",
"$	c #313131",
"%	c #1A4683",
"&	c #1D56A4",
"*	c #666565",
"=	c #919191",
"                                                                                ",
"                                                                                ",
"                                                                                ",
"                                                                                ",
"                                                                                ",
"                                                                                ",
"                                                                                ",
"                                                                                ",
"                                                                                ",
"                                                                                ",
"                                                                                ",
"                                                                                ",
"                                                                                ",
"                                                                                ",
"                                                                                ",
"                                                                                ",
"                                                                                ",
"                                                                                ",
"                                                                                ",
"                                                                                ",
"                                                                                ",
"                                                                                ",
"                                                                                ",
"                                                                                ",
"                                                                                ",
"                                                                                ",
"                                                                                ",
"                                                                                ",
"                                                                                ",
"                     %#                                                         ",
"                     +.                                                         ",
"                     +.                                                         ",
"                     @.                                                         ",
"        #+...@&      +.   %##%        %##%    &   %#@@#%       %#@@#            ",
"      %........@     @. %......%    %......% @+  +..++...%   &+..+...#          ",
"     &++++++++++#    +.+.#   %+.#  #.+%   #.+.@&.+&    %+.% &..#    @.@         ",
"     .+..+*+..$=+&   +..%      +.& ..      %.....%      &.+ +.%      +.#        ",
"    %.+.....$$$*$@   +.#       %.++.%       @....         &@.@       &.+        ",
"    @.+...+$$$+$+.   +.&        +..+        &.++.+&        #.&        +.        ",
"    @.+..+$$$$$=..   +.         +..@         .@ @....+@@#& @.@########..&       ",
"    @.+..$**$$$=+.   @.         +..@         .+  &###@+...+............+&       ",
"    @.+..**.$.$=++   +.         +..+        &.@         &....%                  ",
"    &.$+@*$+$+$*.#   @.#       &.++.&       #.+#%        #...#                  ",
"     +*==***===$+    +..&      +.&&.+      &.....%       #.++.       #.%        ",
"      ++..++.+..&    +.+.%   &+.#  #.+%   %.+.@ +.%     %.+ &..%    #.@  #+#    ",
"       @......+      ++ #......#    #......# ++ &+..@@+..+   %...@+..@   +.+    ",
"        &#@@#&       &%   #@##        %@##   %&   #@+++@%      #@++@&    &@&    ",
"                                                                                ",
"                                                                                ",
"                                                                                ",
"                                                                                ",
"                                                                                ",
"                                                                                ",
"                                                                                ",
"                                                                                ",
"                                                                                ",
"                                                                                ",
"                                                                                ",
"                                                                                ",
"                                                                                ",
"                                                                                ",
"                                                                                ",
"                                                                                ",
"                                                                                ",
"                                                                                ",
"                                                                                ",
"                                                                                ",
"                                                                                ",
"                                                                                ",
"                                                                                ",
"                                                                                ",
"                                                                                ",
"                                                                                ",
"                                                                                ",
"                                                                                ",
"                                                                                ",
"                                                                                ",
"                                                                                ",
"                                                                                ",
"                                                                                "};
