/* XPM */
static char * MTV 2_xpm[] = {
"80 80 12 1",
" 	c None",
".	c #000000",
"+	c #020202",
"@	c #030303",
"#	c #161A1E",
"$	c #223043",
"%	c #1F4374",
"&	c #676767",
"*	c #979797",
"=	c #B9B9B9",
"-	c #DEDEDE",
";	c #FFFFFF",
"                                                                                ",
"                                                                                ",
"                                                                                ",
"                                                                                ",
"                                                                                ",
"                                                                                ",
"                                                                                ",
"                                                                                ",
"                                                                                ",
"                                                                                ",
"                                                                                ",
"                                                                                ",
"                                                                                ",
"                                                                                ",
"                                                                                ",
"                                                                                ",
"                                              $$                                ",
"                                              @.%                               ",
"                                              @.%                               ",
"                 %$$####$$%                   @.%                               ",
"              %#@+........+##%                @.%                               ",
"            %#.@@+@+++++@++..@#%              @.%            %#$#$#$%           ",
"           #.@@++@+@+++++++++@.@#             @.%          #++....+@@+$         ",
"         %@++@@++@+@+++++@++@@@@@#%           @.%        $@+@@+@+@@@+@.@$       ",
"        $+@@@@@@@+.+++++++++++@@@+@%          @.%       $+@@@+@@@@@+@@@@+$      ",
"       $@@@++++@@@@@@++@@.+++@@+@@@+%         @.%      %.@@+@@@....@@@@++.$     ",
"      %+++++@+@@+@@@++@@@@+++@@@@@@@@%        @.%      @++@@++@#$$#@@@++@+@%    ",
"      @+@@+.......@@@@@........+@@@@@@        @.%     $@@@@@@#      #@@+@@.#    ",
"     #@@@+########@@...#########@.@@+@#       @.%     #@@@@@#        #.@+@@.    ",
"    %+@@+.*-------=&&+#=-------**#..@@@%      @.%     @@@@@@%        %.+@+@.%   ",
"    #+@@+.*;;;;;;;;==&=;;;;;;;;*-&#$@@.#      @.%    %@+++.#          @+@@+.$   ",
"   %.+@@+.*;;;;;;;;;*=;;;;;;;;;*-***&.@+%     @.%    %++++.#          $.@++.#   ",
"   #@@@@+.*;;;;;;;;;;;;;;;;-*-;*-=#$*@+@#     @.%    $+++++#          #.@+++@   ",
"   @@+@@+.*;;;;;;;;;;;;;-=*#$-;*=$#*&@.+@     @.%                     #.@+@.$   ",
"  %+++@@..*;;;;;;;;;;;;;&##*;;;*$#*&@.+@@     @.%                     ..+@@.%   ",
"  $.+@@@+.*;;;;;;;;;;;;*#.*=*;;&@*&..@+@.$    @.%                    #.@+@@+    ",
"  #++@@@+.*;;;;;;;;;;=$&&@*#$;=@&&.@@+++.$    @.%                   $.@@@+.#    ",
"  @+@@@@+.*;;;;;;;;;&#*;=@*$$-&@-&.+@@++.#    @.%                  %@+++@@.%    ",
"  @@@@+@+.*;;;;;;;;;**;;=.**#&@$-&.+@@+@.#    @.%                 $@@@@+@.#     ",
"  .@@@@@+.*;;;;;;;*=;;=*=.*=@.#&-&.+++@..#    @.%                $.@++@@.@      ",
"  +@+.+@+.*;;;;;;;**-=**=.*;$.$*-&.+++@..$    @.%               #.+++++@@       ",
"  #.+@@@..*;;;;;;;=-$$$&*.*;&.&=-&.+++++.$    @.%             %@@@++@+@#        ",
"  $.@@@@+.*;;;;;;;=-$..&*.&;-&=*-&.++++@.$    @.%            $@@@@++..#         ",
"  %.@@@@+.*;;;;;;;*-$..&=.&;;;;*-&.++++@+%    @.%           #.@@@+@.@%          ",
"   @@@@++.*;;;;;;;=;$..&-&*;;;;*-&.+++@@@     @.%         %@.+@@@@.#            ",
"   @@@@++.*;;;;;;;=-#..&;;;;;;;*-$.+++++#     @.%        %@@++@@@@$             ",
"   $..@@++&*******&$...$*******&$@++++.+%     @.%       %@@@@+@@@               ",
"    @+@++@#########$$##$#######@##++++.@      @.%       @@@@@++#                ",
"    $.@@@.*=*&=**$&**&***&****=&&$.@++.$      @.%      #.++++@#                 ",
"     @@+@+&*&&*&&$$&&&&&&&*&&&&&#@@+@.#       @.%     %@@@+++#                  ",
"     %+@@.@+@#@@##@+#@#@..@.@#.+@@++@+%       @.%     #++@@@@#$$$$$$$$$$$$$$$   ",
"      $.+@@@+.@@+@@@@@+.@++@@.@@@@@+.$        @.%     @+@+++@@@@@@.+@@@@@@@@@   ",
"       #+@++@+.@@@@@+@+@+@@@@@+@@@@.$         @.%    %+@@@+++@@@@+@@@@@@@+++#   ",
"        $.@@+@+.++++@+++++@@++@++@+$          @.%    $.@@@@@@@@@@@@@@@@@@@@@@   ",
"         $++@@@@.@+++++++++++@@@+.$           @.%    #.+@+++++++++++++++++@+#   ",
"          %@+@+@+@+@+++++++@@@+.@%            @.%    #+.++................++@   ",
"            $@.++++@+@+++.+++.@$              @.%                               ",
"              $@@+...+......@$                @.%                               ",
"                %$##@@@@##$                   @.%                               ",
"                                              @.%                               ",
"                                              @.%                               ",
"                                              @.%                               ",
"                                              %%                                ",
"                                                                                ",
"                                                                                ",
"                                                                                ",
"                                                                                ",
"                                                                                ",
"                                                                                ",
"                                                                                ",
"                                                                                ",
"                                                                                ",
"                                                                                ",
"                                                                                ",
"                                                                                ",
"                                                                                ",
"                                                                                ",
"                                                                                ",
"                                                                                ",
"                                                                                "};
