/* XPM */
static char * MTV2 Pop Channel_xpm[] = {
"80 80 16 1",
" 	c None",
".	c #181818",
"+	c #252525",
"@	c #313131",
"#	c #3B3B3B",
"$	c #454545",
"%	c #555555",
"&	c #656565",
"*	c #777777",
"=	c #858585",
"-	c #969696",
";	c #A6A6A6",
">	c #B7B7B7",
",	c #C6C6C6",
"'	c #D7D7D7",
")	c #FBFBFB",
"                                                                                ",
"                                                                                ",
"                                                                                ",
"                                                                                ",
"                                                                                ",
"                                                                                ",
"                                                                                ",
"                                                                                ",
"                                                                                ",
"                                                                                ",
"                                                                                ",
"                                                                                ",
"                                                                                ",
"                                                                                ",
"                                                                                ",
"                                                                                ",
"                                                                                ",
"                                                                                ",
"                                                                                ",
"                                           ->                                   ",
"                                           .&                                   ",
"                           =%$#$&-         +*                                   ",
"                         &++@@#@+.@*       .*     ,*&$%%-                       ",
"                        @+#%$$$$$%#.%      .*    =+++++++#,                     ",
"                       @@$$###$#$@$$+%     .*   -.$@$&&##+@,                    ",
"                      %@$@+@+@@@+@+@$+=    .*   $#@%   >@$+=                    ",
"                     -+#%->;;$%;;;;$+#@    .*  ;++@     =+#$                    ",
"                     %@#%)))))')))),=%.=   .*  -+@$     ;@##                    ",
"                     @$@%'))))))))))>#@$   .*           *+#$                    ",
"                    ;+$#%))))))))))>+$##   .*          >@$.=                    ",
"                    ;+%@%')))))))))=+$#@   .*         ;+$@@                     ",
"                    ;+$#%))))),))));+$##   .*       '&+$+#                      ",
"                    >+$@%')))*.,)))-+###   .*      =@@#+&                       ",
"                     @##%))))&.))));+$@&   +*     %.$@@;                        ",
"                     &+#%')',=*')))%@#+    .*    %.$+%                          ",
"                     ,+#%,>;&,';;>;###$    .*   *+$@-                           ",
"                      *.$@#@#@#@##@#$+;    .*   #@$$;-------                    ",
"                       &.$$$#$#$#$$#.=     +*  ;+$##++++++++                    ",
"                        &.@$$$$$$#+.-      .*  *.@@++@@@@@++                    ",
"                         ;$@.++++@%,       .*                                   ",
"                           >-***;,         .*                                   ",
"                                           .&                                   ",
"                                           *;                                   ",
"                                                                                ",
"                                                                                ",
"                                                                                ",
"                      ;';,>';,;'     >,>>,>,>    ;'>,>,>,;,                     ",
"                      .;$*$-#=+>     &%*$=$*$    #=&*%&%*$*                     ",
"                      =,-,;,-,-,;  >,>>>;>;>;,;  -';,->;,;>;'                   ",
"                      #>&-$-$-&-#' *&===%=$=*;#  &-*=&*&=*=%-                   ",
"                      *,=,    =>=' --;-    ;-,*  =,->    =>->                   ",
"                      $>%,    #-$' *&=&    =&;$  %-&*    %=&-                   ",
"                      -';,;';'>,;  >>,>    >>'-  -';,;,>';,;,                   ",
"                      @;%=$-#-%=+  *&*&    =&;$  $-*=%&&***%=                   ",
"                      =';,>';'-,   ;;,;    >;'=  -';,;,;'-,                     ",
"                      #>%=$-$-#>   *&=&    =&;$  %-*=&*&*%=                     ",
"                      ='-,         ;;>;,>,>>;,-  -'->                           ",
"                      #>%,         &%-*=%=$=*-@  %-&*                           ",
"                      -'-'           ;;>;,;>-    -';>                           ",
"                      +;#>           *&=%=%*$    $-&&                           ",
"                                                                                ",
"                                                                                ",
"                                                                                ",
"                                                                                ",
"                                                                                ",
"                                                                                ",
"                                                                                ",
"                                                                                ",
"                                                                                ",
"                                                                                ",
"                                                                                ",
"                                                                                ",
"                                                                                ",
"                                                                                ",
"                                                                                ",
"                                                                                ",
"                                                                                ",
"                                                                                ",
"                                                                                ",
"                                                                                "};
