/* XPM */
static char * N_JOY_xpm[] = {
"80 80 3 1",
" 	c None",
".	c #3232AF",
"+	c #00FF00",
"                                                                                ",
"                                                                                ",
"                                                                                ",
"                                                                                ",
"                                                                                ",
"                                                                                ",
"                                                                                ",
"                                                                                ",
"                                                                                ",
"                                                                                ",
"                                                                                ",
"                   ...                                                          ",
"                   ...                                                          ",
"                   ...                                                          ",
"                   ...                                                          ",
"                   ...                                                          ",
"                   ...                                                          ",
"                   ...                                                          ",
"                   ...                                                          ",
"                   ...                                                          ",
"                   ...                                                          ",
"                   ...                                                          ",
"                   ...                                                          ",
"                   ...                                                          ",
"                   ...                                                          ",
"                   ...                                                          ",
"                   ...                                                          ",
"                   ...                                                          ",
"                   ...                                                          ",
"                   ...                                                          ",
".......       .....       +++++++++++        ++++++++     +++++++         ++++++",
".......       .....       +++++++++++      ++++++++++++    +++++++       ++++++ ",
"........      .....       +++++++++++    ++++++++++++++++  +++++++       ++++++ ",
".........     .....       +++++++++++   ++++++++++++++++++  +++++++     ++++++  ",
".........     .....            ++++++   +++++++    +++++++   ++++++     +++++   ",
"..........    .....            ++++++  +++++++      +++++++  +++++++   ++++++   ",
"..........    .....            ++++++  ++++++        ++++++   ++++++   +++++    ",
"...........   .....            ++++++ +++++++        +++++++  +++++++ ++++++    ",
"..... ......  .....            ++++++ ++++++          ++++++   ++++++++++++     ",
".....  .....  .....            ++++++ ++++++          ++++++    ++++++++++      ",
".....  ...... .....            ++++++ ++++++          ++++++    ++++++++++      ",
".....   ..... .....            ++++++ ++++++          ++++++     ++++++++       ",
".....   ...........            ++++++ ++++++          ++++++     ++++++++       ",
".....    ..........            ++++++ ++++++          ++++++      ++++++        ",
".....    ..........            ++++++ +++++++         ++++++      ++++++        ",
".....     .........            ++++++  ++++++        ++++++       ++++++        ",
".....      ........            ++++++  +++++++      +++++++       ++++++        ",
".....      ........    ++     +++++++   +++++++    +++++++        ++++++        ",
".....       .......    +++++++++++++    ++++++++++++++++++        ++++++        ",
".....       .......    ++++++++++++      ++++++++++++++++         ++++++        ",
".....        ......    +++++++++++         ++++++++++++           ++++++        ",
".....        ......    +++++++++             ++++++++             ++++++        ",
"                   ...                                                          ",
"                   ...                                                          ",
"                   ...                                                          ",
"                   ...                                                          ",
"                   ...                                                          ",
"                   ...                                                          ",
"                                                                                ",
"                                                                                ",
"                                                                                ",
"                                                                                ",
"                                                                                ",
"                                                                                ",
"                                                                                ",
"                                                                                ",
"                                                                                ",
"                                                                                ",
"                                                                                ",
"                                                                                ",
"                                                                                ",
"                                                                                ",
"                                                                                ",
"                                                                                ",
"                                                                                ",
"                                                                                ",
"                                                                                ",
"                                                                                ",
"                                                                                ",
"                                                                                "};
