/* XPM */
static char * Nat Geographic_xpm[] = {
"80 80 7 1",
" 	c None",
".	c #204220",
"+	c #237F24",
"@	c #349B35",
"#	c #5D875E",
"$	c #ADEE42",
"%	c #EEE125",
"                                                                                ",
"                                                                                ",
"                                                                                ",
"                                                                                ",
"                                                                                ",
"                                                                                ",
"                                                                                ",
"                                                                                ",
"                                                                                ",
"                                                                                ",
"                                                                                ",
"                                                                                ",
"                                                                                ",
"                                                                                ",
"                                                                                ",
"                                                                                ",
"                                                                                ",
"                                                                                ",
"                                                                                ",
"                                                                                ",
"                                                                                ",
"                                                                                ",
"                                                                                ",
"                                                                                ",
"                                                                                ",
"                                                                                ",
"  %%%%%%%%%%%%%%%%%$   .   @       ++   .       @+           .                  ",
"  %%%%%%%%%%%%%%%%%%$  ..  @  +.    +   . ++  +  .+     .+   .                  ",
"  %%%%$$%$%$%$$$%%%%$  @.     +.   @+   . .   ++ +.     ..   .                  ",
"  %%$            $%%     .     .+   +   . .    .  +.     .   .                  ",
"  %%$            $%%     +.   #+.   +   . .   +.   ..  +#.+  .                  ",
"  %%$            $%%      .+ +  .   .   . .   +     .  @  .  .                  ",
"  %%$            $%%   @   @ +  .+ @.   .  +  +     + @   .  .                  ",
"  %%$            $%%                                                            ",
"  %%$            $%%                                                            ",
"  %%$            $%%    @    +@ @               + @       +  @ @@  +  +         ",
"  %%$            $%%   .   @ .     .  +  @+     + +.  +   ++ . ++  .  .  .      ",
"  %%$            $%%  +.     .    .    . .      +  .  ..  ++ .  +  .  . +.      ",
"  %%$            $%%  .@     .+ @ .    . .      . +    .  ++ + ++  .  . +@      ",
"  %%$            $%%  ++   . .@   .    .+.   .  .++  + .+ .+   ++  .  . ++      ",
"  %%$            $%%  +.  +. .    .    . .   .  . .  @ +. ++   ++  .  .  .      ",
"  %%$            $%%   .   . .+    +  +  ++  .  . +.@   . .+   ++  .  .+ .      ",
"  %%$            $%%    @ @  @@ @               @  ++   @ @    @@  @  @   @     ",
"  %%$            $%%                                                            ",
"  %%$            $%%                                                            ",
"  %%$            $%%   $$%%$%$%$%$%$%$%$%$%$%%$%$%%$%$$$%$%$%$%$%$%$%$%$%$%$%   ",
"  %%$            $%%                                                            ",
"  %%$            $%%            #                     +@                        ",
"  %%$            $%%           @                      #  #          @+          ",
"  %%%%$%$%$%$%$%%%%%$          #+       @            +  @#        @ +       @   ",
"  %%%%%%%%%%%%%%%%%%     #   ##.+  @  # .@ .   # .#  +  @   ##.  .# #  @ # +#   ",
"  %%%%%%%%%%%%%%%%%%    ##   ##   @#@ #    #   #  #           #    # @#+ @ +#   ",
"                      ###                                                       ",
"                                                                                ",
"                                                                                ",
"                                                                                ",
"                                                                                ",
"                                                                                ",
"                                                                                ",
"                                                                                ",
"                                                                                ",
"                                                                                ",
"                                                                                ",
"                                                                                ",
"                                                                                ",
"                                                                                ",
"                                                                                ",
"                                                                                ",
"                                                                                ",
"                                                                                ",
"                                                                                ",
"                                                                                ",
"                                                                                ",
"                                                                                ",
"                                                                                ",
"                                                                                ",
"                                                                                ",
"                                                                                ",
"                                                                                ",
"                                                                                "};
