/* XPM */
static char * NDR Kultur_xpm[] = {
"80 80 3 1",
" 	c None",
".	c #3232AF",
"+	c #F70D0D",
"                                                                                ",
"                             ...                                                ",
"                             ...                                                ",
"                             ...                                                ",
"                             ...                                                ",
"                             ...                                                ",
"                             ...                                                ",
"                             ...                                                ",
"                             ...                                                ",
"                             ...                                                ",
"                             ...                                                ",
"                             ...                                                ",
"                             ...                                                ",
"                             ...                                                ",
"                             ...                                                ",
"                             ...                                                ",
"                             ...                                                ",
"                             ...                                                ",
"                             ...                                                ",
"                             ...                                                ",
"          .......       .....   ............          .............             ",
"          .......       .....   ...............       ...............           ",
"          ........      .....   ................      ................          ",
"          .........     .....   .................     .................         ",
"          .........     .....   ......     .......    ......    .......         ",
"          ..........    .....   ......      .......   ......     ......         ",
"          ..........    .....   ......       ......   ......     ......         ",
"          ...........   .....   ......       .......  ......     ......         ",
"          ..... ......  .....   ......        ......  ......     ......         ",
"          .....  .....  .....   ......        ......  ......    ......          ",
"          .....  ...... .....   ......        ......  ................          ",
"          .....   ..... .....   ......        ......  ...............           ",
"          .....   ...........   ......        ......  .............             ",
"          .....    ..........   ......        ......  ..............            ",
"          .....    ..........   ......       .......  ...... .......            ",
"          .....     .........   ......       ......   ......  .......           ",
"          .....      ........   ......      .......   ......   .......          ",
"          .....      ........   ......     .......    ......   ........         ",
"          .....       .......   .................     ......    .......         ",
"          .....       .......   ................      ......     .......        ",
"          .....        ......   ...............       ......     ........       ",
"          .....        ......   ............          ......      ........      ",
"                             ...                                                ",
"                             ...                                                ",
"                             ...                                                ",
"                             ...                                                ",
"                             ...                                                ",
"                             ...                                                ",
"                                                                                ",
"          +++      +++                ++                                        ",
"          +++     +++                +++     ++                                 ",
"          +++    +++                 +++    +++                                 ",
"          +++   +++                  +++    +++                                 ",
"          +++  ++++    +++     +++   +++   +++++++  +++     +++  +++ ++++       ",
"          +++  +++     +++     +++   +++   +++++++  +++     +++  ++++++++       ",
"          +++ +++      +++     +++   +++    +++     +++     +++  ++++  +        ",
"          +++++++      +++     +++   +++    +++     +++     +++  +++            ",
"          ++++++++     +++     +++   +++    +++     +++     +++  +++            ",
"          +++++++++    +++     +++   +++    +++     +++     +++  +++            ",
"          ++++  +++    +++     +++   +++    +++     +++     +++  +++            ",
"          +++    +++   +++     +++   +++    +++     +++     +++  +++            ",
"          +++    ++++  +++     +++   +++    +++     +++     +++  +++            ",
"          +++     +++  ++++   ++++   +++    +++     ++++   ++++  +++            ",
"          +++      +++  ++++++++++   +++     +++++   ++++++++++  +++            ",
"          +++       +++  +++++ +++    +++    +++++    +++++ +++  +++            ",
"                                                                                ",
"                                                                                ",
"                                                                                ",
"                                                                                ",
"                                                                                ",
"                                                                                ",
"                                                                                ",
"                                                                                ",
"                                                                                ",
"                                                                                ",
"                                                                                ",
"                                                                                ",
"                                                                                ",
"                                                                                ",
"                                                                                "};
