/* XPM */
static char * NICKELODEON ESP_xpm[] = {
"80 80 16 1",
" 	c None",
".	c #ED9C2C",
"+	c #EC9D34",
"@	c #EDA33A",
"#	c #EFA84B",
"$	c #F2B564",
"%	c #F2BD77",
"&	c #F3C37C",
"*	c #F4C788",
"=	c #F5CC97",
"-	c #F6D4A8",
";	c #F6DCB2",
">	c #FAE1C0",
",	c #FBE9D1",
"'	c #FCF1E0",
")	c #FCFEFB",
"                                                                                ",
"                                                                                ",
"                                                                                ",
"                                                                                ",
"                                                                                ",
"                                                                                ",
"                                                                                ",
"                                                                                ",
"                                                                                ",
"                                                                                ",
"                                                                                ",
"                                                                                ",
"                                                                                ",
"                                                                                ",
"                                                                                ",
"                                                                                ",
"                                                                                ",
"                                                                                ",
"                                                                                ",
"                                                                                ",
"                                                                                ",
"                                                                                ",
"                                                                                ",
"                                                                                ",
"                                              -=&=;                             ",
"                                            #@..+..@$=                          ",
"            -==-;                         #....+++....#                         ",
"         %#.......#=                    $..++++...@.....      *#@@+@#=          ",
"       *@+.......+.+#-                 $....+.+....+.+.+.   #@.......@+$        ",
"      $......+..+.++.+&      ===       ++.+.+..+++++++.+..$@+++.+++...+.#       ",
"     $.++.++.@.+++++.+.& =@.......@*  .+++++.@.+.++.++++++...+++++++++++..&     ",
"    $.+..+.+.+...+.+...@@+..........##+++.@.+.+++.++++.+.+++++++...+++++++.&    ",
"   =.+.....++....+..++...+.....+.+.....++..++++.+++.++++++.+.+..@.@....++.@+    ",
"   #.+..@&$@.#=&#.++..++.+..+..+...+......+++.+++.+++.+.+.+++.@+.+..@.@.....#   ",
"   +.++.$')=.%),#..++...+..+++.+......++...+.+.+.++.++++@.+@...+++.+.+..@+.++   ",
"  $+..+.-))'@-),@#@..@##.#$@.##@$$$$#@$#+..$*#$+#&-&@..$;>;;*+@-*&#.*;$.=;##.$  ",
"  #+.++@,))'$,)*$',#&,''$-)=.,';')'),*)-..&''')&,)))'&.;))));$,)')-@'),@')#$.@  ",
"  @....#')));)'$*),%''))-,)&*),;)'',-;)=.#')'');,),,),@;),==&>),,)>$))'&''@..+  ",
"  +.+..$)',))),#>);;)>-'*''=')&$),@+#)'$+-),#,)=-)>$')#=)>##%))$*)>*))),)>....  ",
"  +.+..=)>=)))>#')=''$@@&))))=#,)),;*)'##,)*#')*>)-@')*')))>-);.;);;)')))=....  ",
"  ....@>)-%)))*&)'=),@#@;))'=.&))'),;);+$')$$')&))%$),=))''=>)=@,)-,)=))'%....  ",
"  @+.+#')*#)))#;),-)>&'>,)))$.$)'=&$>)*.$')&;)>%)'=,)-$''##+,)-=))=')$')'#....  ",
"  $...&))$@,),@')=*))');');),@%));-$,)''>')'))%&))))>#*))',#-))')=*)>#,)-+...@  ",
"  &...*)'@@>)>#')*#,)),*),$')&$))))$-)))-*)))-@#')';#.$,)''##,));@*'*.*,*.+..#  ",
"   @..$;-+.$=&+&=#.%-*##&$+*'*@%*&&.@%%%@+%*$..+#%$....####+.#$$..+#@..@.....&  ",
"    ..++....+.+...+.....+..##+..........+..+...+.....+..+.+.................+   ",
"    @..+.......+.++++.....+.++.+......+...+.+...+.....+...+......+.+........&   ",
"     @...+.++++.+.+.+....+..........+.......+...+...+..$#..+...............$    ",
"      @.......++.++......+.......+.......  #.+......@#   @................#     ",
"       #..............+.....+.+.........$    $#@+@#$      @..+...........#      ",
"         #.........$ #........+++....+.@                   %....+......@        ",
"           &$###$*    #.......+++.....#                      %@.....@#&         ",
"                       #+....++++....$                         ;====;           ",
"                         #...+....@#                                            ",
"                            $@##$&                                              ",
"                                                                                ",
"                                                                                ",
"                                                                                ",
"                                                                                ",
"                                                                                ",
"                                                                                ",
"                                                                                ",
"                                                                                ",
"                                                                                ",
"                                                                                ",
"                                                                                ",
"                                                                                ",
"                                                                                ",
"                                                                                ",
"                                                                                ",
"                                                                                ",
"                                                                                ",
"                                                                                ",
"                                                                                ",
"                                                                                ",
"                                                                                ",
"                                                                                ",
"                                                                                ",
"                                                                                ",
"                                                                                "};
