/* XPM */
static char * Ocko TV_xpm[] = {
"80 80 6 1",
" 	c None",
".	c #B90A10",
"+	c #BA272B",
"@	c #C85055",
"#	c #EDAFAF",
"$	c #FCFEFE",
"                                                                                ",
"                                                                                ",
"                                                                                ",
"                                                                                ",
"                                                                                ",
"                                                                                ",
"                                                                                ",
"                                                                                ",
"                                                                                ",
"                                                                                ",
"                                                                                ",
"                                                                                ",
"                                                                                ",
"                                                                                ",
"                                                                                ",
"                                                                                ",
"                                                                                ",
"                                                                                ",
"                                                                                ",
"                                                                                ",
"                                                                                ",
"                                                                                ",
"                                                                                ",
"                                                                                ",
"................................................................................",
"................................................................................",
"................................................................................",
"........@#.....................@@...............................................",
".......@$$#..................+$$$$+.............................................",
"........$$$.................+$$$$$$+............................................",
"........+$#.................+$#..#$.............................................",
"................................................................................",
"..@$$$$$$$$$$$$$$@....+$$$$$$$$$$$$$$$$$..$$$+......@$$$$$$#..$$$$$$$$$$$$$$#...",
".$$$$$$$$$$$$$$$$$@..+$$$$$$$$$$$$$$$$$$..$$$+....+$$$$$$$+.+$$$$$$$$$$$$$$$$$..",
"@$$$$$$$$$$$$$$$$$$..$$$$$$$$$$$$$$$$$$$..$$$+..+$$$$$$$+...$$$$$$$$$$$$$$$$$$#.",
"#$$$...........+$$$..$$$#.................$$$@.#$$$$$$@.....$$$#...........#$$$.",
"#$$$............$$$+.$$$@.................$$$#$$$$$$@.......$$$@...........#$$$.",
"#$$$............$$$+.$$$@.................$$$$$$$$@.........$$$@...........#$$$.",
"#$$$............$$$+.$$$@.................$$$$$$$$@.........$$$@...........#$$$.",
"#$$$............$$$+.$$$@.................$$$#$$$$$$@.......$$$@...........#$$$.",
"#$$$...........+$$$+.$$$#.................$$$@.$$$$$$$@.....$$$#...........#$$$.",
"@$$$$$$$$$$$$$$$$$$..$$$$$$$$$$$$$$$$$$$..$$$+..+$$$$$$$+...$$$$$$$$$$$$$$$$$$$.",
".$$$$$$$$$$$$$$$$$#..+$$$$$$$$$$$$$$$$$$..$$$.....+$$$$$$$+.+$$$$$$$$$$$$$$$$$..",
"..#$$$$$$$$$$$$$$@....+$$$$$$$$$$$$$$$$$..$$$.......@$$$$$$#.+$$$$$$$$$$$$$$$...",
"................................................................................",
"................................................................................",
"................................................................................",
"................................................................................",
"................................................................................",
"................................................................................",
"                                                                                ",
"                                                                                ",
"                                                                                ",
"                                                                                ",
"                                                                                ",
"                                                                                ",
"                                                                                ",
"                                                                                ",
"                                                                                ",
"                                                                                ",
"                                                                                ",
"                                                                                ",
"                                                                                ",
"                                                                                ",
"                                                                                ",
"                                                                                ",
"                                                                                ",
"                                                                                ",
"                                                                                ",
"                                                                                ",
"                                                                                ",
"                                                                                ",
"                                                                                ",
"                                                                                ",
"                                                                                ",
"                                                                                ",
"                                                                                ",
"                                                                                ",
"                                                                                ",
"                                                                                "};
