/* XPM */
static char * PARAMOUNT COM_xpm[] = {
"80 80 16 1",
" 	c None",
".	c #0305B1",
"+	c #060ED1",
"@	c #0B15E6",
"#	c #181FC2",
"$	c #1924EF",
"%	c #2A30B3",
"&	c #2530DD",
"*	c #434AD9",
"=	c #4E54B5",
"-	c #5D65DB",
";	c #787ED9",
">	c #959DCD",
",	c #9AA2ED",
"'	c #C3CBE9",
")	c #F0F6F7",
"                                                                                ",
"                                                                                ",
"                                                                                ",
"                                                                                ",
"                                                                                ",
"                                                                                ",
"                                                                                ",
"                                                                                ",
"                                                                                ",
"                                                                                ",
"                                                                                ",
"                                                                                ",
"                                                      ,;--                      ",
"                                                '>--&&$&$%>                     ",
"                                          ';;**%&#$#$$&$&+-                     ",
"                                     ';-&&#$@@@$$&$&$&&&&$.                     ",
"                              ',>-*$#+++#@##$$$$&$$$&$&$&@.=                    ",
"                         '>;**$#@#+#@$$$@$$$$$$&$&$&$&$&$$+%                    ",
"                    ,;-%%.+.++@@@@#@$$$@$$$$$$$$$$$$$$&$$@+.-                   ",
"                >=%#.++@@@+#@$#$@$@$@$$$@$$&$$$$$&$&$&&&$$+..                   ",
"                ;...@@@+@+@+@@@@@@@@$@@@$@$@$@$$$$$$$$$$&@+..=                  ",
"                ;..++@+@+@@@@@@@$&#;;#*;$$@$@$$$$$$$$$$$$#.+.%                  ",
"                ;...++@+@+@@@@$@,;#;;.,;#-;#@@$@$#$@$@$@@++...;                 ",
"                ;..+@@+@@@@@+-,#*=.&$$$$.;,&&&@$#$@$@$#$@#....#                 ",
"                ;..+@+++@++&&%-.==,,'',;=@@#';@+#@@@$@#@$+.....=                ",
"                -..@@@+@@++'=%=')))))))))'*%-*#=#@@$@$@$@@.....%                ",
"                -.++@+@+@&%%=>)))))))))))));#.;,&@@@@@$@@@+.....'               ",
"                =+.@@@++&,%%'))))))))))))))),&=,#@@$@$@$@#...+.%'               ",
"                -.++@+++#%=')))))')))))))))))>%.**$@$@@@@+......'               ",
"                =+.@@+@;%%,'>'))))))))))))))>);+,'@@@$@@@@.....%'               ",
"                =.++@.#-=-,''-'))))''''>'>;=,))*%*@@@@@@@@+.....'               ",
"                *+.++###*;')>>;';,;-*-***-*='))'.%&&@$@@@@...+..,               ",
"                *..++*;%>;';-==**#***%;*->>=')))*#'-#@@@@@+.....,               ",
"                %..++**>),;->,%>>;,'''')))))))))>%;-@@@$@@......,               ",
"                %.++@+%>>,'=)'''));;))))))))))))'#@+#@$@@+......,               ",
"                %+++*-*)>>;')))));.+-))))))))))))=%;&@@#@#......>               ",
"                %.+.**;))'))))));.@@+%'))))))))))=*'-+@@@+......>               ",
"                %+++..>)))))))),.+@&++#')))))))));@*$@@@@@......;               ",
"                %.+#-%')))))))>.+++-*@@#>))))))));@+@@@@@++.....;               ",
"                #++$--'))))))>.+@@.,>@*%.='))))))>.>*@@@@@......;               ",
"                %.+..%))))))'.+@+++-)%-;#.*')))));#'-+@+@+......;               ",
"                #++&*=')))))*+&*+@+*),%>*+#;)))));+&#@@@@@......;               ",
"               '%.+&,*)))));..,&++@#''==,#-*'))))-@+@@@@@++.....;               ",
"               '#++##&')))'-#-'&@#+#&)*#,,*;=))))=-,#@@@@@+.....=               ",
"               '#.++*%'))';*#;>+@++++--.*,;&%=))'.;,&++@@++.....-               ",
"               '.++#,;>)),*%#,%@@@@@+*;&+%;*@+;),+.$@#+@@@.+....=               ",
"               ,#++@*.;)'&%.--++#@#+@@,=+.%-#+#>-%*+@@@@@++.....=               ",
"               '+@@@#-='-$##*&@$#$@#@@-;.#@*&@@$#''@@@@@@@++....=               ",
"               ,#@@@&,-*&@@@$@$@@@@@#@&-#+@@#@@+@*-@@+@+@++.....=               ",
"               '#$@$%=%+$#+@@#+@@#+@+@+$#@@++#+#++.#@#@@+@++....=               ",
"               ,##$#%=;*##-;*#--*%;*&=>=&-;==#-=&*>%@@@@@++...+.=               ",
"               ,#&$$-)))=>))'=')>,)';)))-))));;)-')=+@@#@#++.%..%               ",
"               ,##&$,','>>'>);')'>)';)'%='';),*',''.+@@@@++.+.+.=               ",
"               ,#&&&,);'>''''>'))))';)'=%)';)'%'));#@$@@@#+#.#.+%               ",
"               ;#%&%,)=**''>';'')))>;')';''=),%;)'-@###@@@@.#.#.%               ",
"               ,#&&*,);';''''>''))'';)'=%)'>)'.=)'&$#%#$@#+#+###%               ",
"               ;##%%,'')>,',)='>'''>;)'.='';),#%),#@##@@#+#.#.#.%               ",
"               ,#&%&;)))=>))'='''''';)));))))'.=)'#@##@$###%###%%               ",
"               ;#$&$&*;*%%;;=%;---;;*,',;>'''-+*',&@##$@###.%##.%               ",
"               ;#&&&&&#&&&&&&&&&&&%%%*#&%*%&%&$&%=$$#&$$#&#%#%#%%               ",
"               ;&#&&&%&%&&&&&&&&&&&&&$&$&$&#&$$#%#$$&#$#$@##%##.%               ",
"               ;#&%&&*&*&*&*&&&*&*&*&&&*&&&&&&&&%%&&%&#&$$#%#%#%                ",
"               =#%&%&$&#&&&%&&&&&&&&&&&&&&&&&&&&&&&$&&&#&$&#%.%                 ",
"               ';,;;-;--*-*-******&*&*&&&*&&&&&&&&&&$&$&$&%%#=                  ",
"                                     ;,;;;;-;--**&*&*&&%&%%%-                   ",
"                                                                                ",
"                                                                                ",
"                                                                                ",
"                                                                                ",
"                                                                                ",
"                                                                                ",
"                                                                                ",
"                                                                                ",
"                                                                                ",
"                                                                                ",
"                                                                                ",
"                                                                                ",
"                                                                                ",
"                                                                                ",
"                                                                                "};
