/* XPM */
static char * Paris Premiere_xpm[] = {
"80 80 8 1",
" 	c None",
".	c #070505",
"+	c #383635",
"@	c #787675",
"#	c #E58205",
"$	c #D18A32",
"%	c #D3C2A8",
"&	c #F1EBDD",
"                                                                                ",
"                                                                                ",
"                                                                                ",
"                                                                                ",
"                                                                                ",
"                                                                                ",
"                                                                                ",
"                                                                                ",
"                                                                                ",
"                                                                                ",
"                                                                                ",
"                                                                                ",
"                                                                                ",
"                                                                                ",
"                                                                                ",
"                                                                                ",
"                                                                                ",
"                                                                                ",
"                                                                                ",
"                                                                                ",
"                                                                                ",
"                                                                                ",
"                                                                                ",
"                                                                                ",
"                                                                                ",
"                                                                                ",
"                                                                                ",
"                                                                                ",
"                                                                                ",
"   ##########################################################################   ",
"   ##$$#$#############$$$#############$$$$$$############$$$############$$$$##   ",
"   #%&&&%%###########$&&%$############%&&&&%%###########%&%##########$%%&&&$#   ",
"   #&&&&&&%##########%&&&%############%&&&&&&%##########&&%##########%&&&&&%#   ",
"   #%&%$%&&$########$&&&&&$###########%&&$$&&%#########$%&&##########%&&$####   ",
"   #&&%$%&&$########%&&$&&%###########&&&$%&&%##########&&%##########%&&%%$##   ",
"   #&&&&&&&########$%&%$&&%##########$%&&&&&%##########$&&&##########$&&&&&%#   ",
"   #&&&&&%$########$&&&%&&&$##########%&&&&&%###########&&%###########$$%&&%#   ",
"   #%&&$###########%&&&&&&&%#########$%&&$%&&$##########&&&##########$$#$%&&#   ",
"   $&&%###########$&&&%$$&&&$#########&&%#$&&%##########&&%##########%&%&&&%#   ",
"   $%&&$$$$$$$$$$$$%&$#$$&&&$$$$$$$$$$$&&$$%&%$$$$$$$$$$&%%$$$$$$$$$$%&&&&&%#   ",
"   .%&&&$+..+&%&%@+.+.+%&%&%+..+&&+...+@&%...+%@...+&&%&%+..+%&%&$....+&&&%%.   ",
"   .%@++&@..+&++@&+...+&+++....+%&@....%&%....%@...+&+++....+&@+@&@...+&@.++.   ",
"   .%@..@&..+&...&@...+&+......+%@%+..+%@%....%@...+&+......+%+..%@...+%+....   ",
"   .%@.+%%..+&@+@%+...+&@+@+...+%+%@..%@@%....%@...+&@@@+...+%@+@%+...+&@@@+.   ",
"   .%&%%%+..+&%&&+....+&%%%+...+&+@%.+%+@%....%@...+&%@%+...+&&%&+....+&%@%@.   ",
"   .%@@+....+&+.%@....+&+......+%++%+@%.@%....%@...+&+......+%+.%@....+%++...   ",
"   .%@......+%+.@&+...+&.......+&+.@%@@.@%....%@...+&+......+&+.+&+...+&+....   ",
"   .%@......+&+..%@...+&@@@+...+&+.+&&..@%....&@...+&@@@+...+%+..%%...+&@@@+.   ",
"   .@@......+%...@%...+%%%%@....%+.+@@..@@....@+...+%%%%@....%+..+@+...%%%%%.   ",
"   ..........................................................................   ",
"   ..........................................................................   ",
"                                                                                ",
"                                                                                ",
"                                                                                ",
"                                                                                ",
"                                                                                ",
"                                                                                ",
"                                                                                ",
"                                                                                ",
"                                                                                ",
"                                                                                ",
"                                                                                ",
"                                                                                ",
"                                                                                ",
"                                                                                ",
"                                                                                ",
"                                                                                ",
"                                                                                ",
"                                                                                ",
"                                                                                ",
"                                                                                ",
"                                                                                ",
"                                                                                ",
"                                                                                ",
"                                                                                ",
"                                                                                ",
"                                                                                ",
"                                                                                ",
"                                                                                ",
"                                                                                "};
