/* XPM */
static char * playboy_xpm[] = {
"80 80 16 1",
" 	c None",
".	c #070405",
"+	c #0E0B0C",
"@	c #121111",
"#	c #191717",
"$	c #1F1C1D",
"%	c #231F20",
"&	c #373536",
"*	c #515051",
"=	c #6B6A6A",
"-	c #7F7F7F",
";	c #9C9B9B",
">	c #AAA9AA",
",	c #CDCDCD",
"'	c #E6E6E6",
")	c #FFFFFF",
"                                                                                ",
"                                                                                ",
"                                                                                ",
"                                                                                ",
"                                                                                ",
"                                                                                ",
"                                                                                ",
"                                                                                ",
"                                                                                ",
"                                                                                ",
"                                                                                ",
"                                                                                ",
"                                                                                ",
"                                                                                ",
"                                                                                ",
"                                                                                ",
"                                                                                ",
"                 ,*======-;>;;;;;;;;;>-======================;                  ",
"                 ;..+++..%,''''''''''',*..+++.+++++++++.++.+-=                  ",
"                 >+%%%%%%+-)))))))))))))-@$%%&%%%&%%%&%%%&+-,-                  ",
"                 ;+%%%%%%#%,)))))))))))))-+#%$%$%%%%%$%%%#%,'=                  ",
"                 >+%%%%%%%+=))))))))))))))-@#%%%%%%%%%%%%+=),=                  ",
"                 >+%%%%%%%$+;))))))))))))));@#%%%%%%%%%%$#,),=                  ",
"                 >+%%%%%%%%#%'))))))))))))));@#%%%%%%%%%@*'),=                  ",
"                 ;+%%%%%%$%%+&'))))))))))))))-@#%%%%%$%%+-)),=                  ",
"                 >+%%%%%%%%%%.=)))))))))))))))-@#%%%%%%$$,)),=                  ",
"                 >+%%%%%%%%%%%+-)))))))))))))))=+$%%%%%@&')),=                  ",
"                 >+%%%%%%%%%%%$+;)))))))))))))))=+%%%%%+*))),=                  ",
"                 ;+%%%%%%%%%%%%#@;))))))))))))))'&+%%%%+-))),=                  ",
"                 >+%%%%%%%%%%%%%##;))))))))))))))'%@%%%+;))),=                  ",
"                 >+%%%%%%%%%%$%$%#@-))))))))))))))>@$%%+;))),=                  ",
"                 >+%%%%%%%%%%%%%$&$@=')))))))))))));+%$#>))),=                  ",
"                 ;+%%%%%%%%%%%%$%%%$@%;')))))))))')'=.$#,))),=                  ",
"                 >+%%%%%%%%%%%%%%%%%%#@*>)))))))))))'&.$,))),=                  ",
"                 >+%%%%%%%%%%%%%%%%%%%%@@&>')))))))))>##,))),=                  ",
"                 >+%%%%%%%%%%%%%%%%%%%%%$#@&-'))))))))-@,))),=                  ",
"                 ;+%%%%%%%%%%%%%%$%%%$%%%%%@+$*;''))))'*,))),=                  ",
"                 >+%%%%%%%%%%%%%%%%%%%%%%%$$+..+&;'))))''))),=                  ",
"                 >+%%%%%%%%%%%%%%%%%%%%%#+@%*->>,,)))))))))),=                  ",
"                 >+%%%%%%%%%%%%%%%%%%&#+%=>')))))))))))))))),=                  ",
"                 ;+%%%%%%%%%%%%%%$%%%.%-'))))))))))))))))))),=                  ",
"                 >+%%%%%%%%%%%%%%%%$+=,))))))))))))))))))))),=                  ",
"                 >+%%%%%%%%%%%%%%%##;))))')))))))))))))))))),=                  ",
"                 >+%%%%%%%%%%%%%%#%,)))'=&*>)))))))))))))))),=                  ",
"                 ;+%%%%%%%%%%%%%#%,))))&.@++>))))))))))))))),=                  ",
"                 >+%%%%%%%%%%%%$#>))))>@%%%@=))))))))))))))),=                  ",
"                 >+%%%%%%%%%%%%+=))))),#$%%.-))))))))))))))),=                  ",
"                 >+%%%%%%%%%%%#%,))))))=.@.&,))))))))))))))),=                  ",
"                 ;+%%%%%%%%%%%+=)))))))'-*=,)')))))))))))))),=                  ",
"                 >+%%%%%%%%%%%#,)))))))))))))))))))))))))))),=                  ",
"                 >+%%%%%%%%%%#&,)))))))))))))))))))))))))))),=                  ",
"                 >+%%%%%%%%%%#&')))))))))))))))))))))))))))),=                  ",
"                 ;+%%%%%%%%%%@&')')))))))))))))))))))))))))),=                  ",
"                 >+%%%%%%%%%%$%,)))))))))))))))))))))))))))),=                  ",
"                 >+%%%%%%%%%%%@-)))))))))))))))))))))))))))),=                  ",
"                 >+%%%%%%%%%%%#%,))))))))))))))))))))))))))),=                  ",
"                 ;+%%%%%%%%%%$%@&,)))))))))))))))))))))))))),=                  ",
"                 >+%%%%%%%%%%%%%@&>))))))))))))))))))))))))),=                  ",
"                 >+%%%%%%%%%%%%%%+$='))))))))))))))))))))))),=                  ",
"                 >+%%&%%%&%%%&%%%&$@&;'))))))))))))))))))))),=                  ",
"                 ;..+...+...+.+.+.+...%=,,,,,>,,,>,,,>,,,>,,>*                  ",
"                 ,=-=-=-=-=-=-=-=-=-=-===-------------------=>                  ",
"                                                                                ",
"                                                                                ",
"                                                                                ",
"                                                                                ",
"                                                                                ",
"                                                                                ",
"                                                                                ",
"                                                                                ",
"                                                                                ",
"                                                                                ",
"                                                                                ",
"                                                                                ",
"                                                                                ",
"                                                                                ",
"                                                                                ",
"                                                                                ",
"                                                                                ",
"                                                                                "};
