/* XPM */
static char * Radio Classique_xpm[] = {
"80 80 16 1",
" 	c None",
".	c #022A67",
"+	c #495F80",
"@	c #6F809C",
"#	c #8999B1",
"$	c #9CAEC8",
"%	c #B0C0D2",
"&	c #BDC9D9",
"*	c #C5D0E1",
"=	c #D7D6D6",
"-	c #CFD9E6",
";	c #E1E1E2",
">	c #D9E3F1",
",	c #EAECEF",
"'	c #F4F5F7",
")	c #FEFEFE",
"                                                                                ",
"                                                                                ",
"                                                                                ",
"                                                                                ",
"                                                                                ",
"                                                                                ",
"                                                                                ",
"                                                                                ",
"                                                                                ",
"                                                                                ",
"                                                                                ",
"                                                                                ",
"            ;=;=;=;=;=;=;=;=;=;=;;;=;',=;;;=;=;=;=;=;=;=;=;=;=;=;=;             ",
"            ========================;);============================             ",
"            ======================;=,);============================             ",
"            =;===;=======;===;===;==''=======;===;===;===;===;===;=             ",
"            =================&;;;;;,),=;;==========================             ",
"            =======;=======;;;,)))))))))))'';==;===================             ",
"            =======&==;;,;;;;=;;;=;)))))))))),=&==================;             ",
"            =;======;,;,;;===;====;)')))))))))),=====;===;===;=====             ",
"            ======;;;============&,);==;'')))'))'==================             ",
"            =====',;=============;))=====;,)))))),=================             ",
"            ====;),==============;);==;====='))))'================;             ",
"            =====';==;=;=;===;===)';===;===,')))),=;=;===;===;=====             ",
"            =========&=======&==;),&====;;'))))))==================             ",
"            ===========;========')=====;,))))))),==================             ",
"            ===================;)'==;,''))))))';=&================;             ",
"            =;===========;=====')',)'))))))),,===;=;=;===;===;=====             ",
"            =============&==;=,))))))'))),,;=&=====================             ",
"            =;==;,,)'';=->,))))))))''';';-=======-=;===============             ",
"            ===;))))))',)''')')',;,=;->*-->==--==>;=;;==-=========;             ",
"            ==='))))))))'$##@')'=#$>==@@@@@>>##-;$#@+%;==;===;=====             ",
"            ====)))))))))+$>+#),-.+>-*+#-%++,@@>#@**#.*============             ",
"            =;*;))')))))'@%)@$);$$+%;-+%;,%+*#@>+%;;>+#,===========             ",
"            ===')))))))')@##$')'@#+@,*+%;=-.&##*+&;=>+#;==========;             ",
"            ==;)))))))))'@$@#))>@&$@;-+%;>%@-#@-+%,;>@$>=;===;=====             ",
"            =&;))))))))))+%>+%)@%)'+%>+$,*@#,@@,@+->%+*==*=========             ",
"            ===')))))))))@$)%@-@;))##,+@@#$,;#@,*@+##*;==-=========             ",
"            ===='))))))')''')'',)))'')'>-*;==*==;-&%=;====;=======;             ",
"            =;;;-)))'))))))))))))''))))'));,==;>*>,;=;;===;==>=;-==             ",
"            =;%@@+&,#*))))'@-))'%#@#)*$@@>*@>>&#@+#--@$;;%@*&+##@$;             ",
"            ;$@&*#$>+&))))>+#))$+'*%>@*'$,%@'&@=*$.#>@@,;&+*&+$-$%;             ",
"            *+%>=--*+&)')'%$@,)#+%)),.#'))&+)@#);,#+>@#;;&+**+*-*==             ",
"            &+&-==;-+&'))'@&+*)'#++*)=++$)&@'@%)')%+-@$,-&+*&+#@@;=             ",
"            *.$,==;-+&)))$#*#@)))-@.,)>#+%-+)+#)))%+,+$>>&+**+*&&==             ",
"            >@+&>&%-+>)>*@&)-+>&-)>+*%,'@$*@)$.,))#%)@+,>$.-&+*,-=,             ",
"            -*@.++&&+##@#+-=>+$$+##$,+###>%+''@+##+>)&++@@+%&+##+$)             ",
"            &;>&$&;=;>&&*==--=&'-&*))>%&''*&,))=%*++%'>&;)*=&&%&%')             ",
"            ====,==,))'=-===-===;')')));,;,>'''')''$@#,))))',;'))''             ",
"            =======)))============;'))))'',,,==;,))))''))))))')))))             ",
"            ======'));==============;'),''';;;=&;')))))))))))))))))             ",
"            =;===,));====;===;===;===,'''',,')';==;)'))))))))))))))             ",
"            ====;'),=&=================;,'';,,''';,,,')))))))')))))             ",
"            ====,));=============;=======;,),;;))))'=,'))))))))))))             ",
"            ====)),=======================;,'''''')';,','')))))))))             ",
"            ==='))=======;===;===;==========;)));,')),,'','))))))))             ",
"            =&;));===&===================*===*,'),,,,;'')==')))))))             ",
"            =;');==;=======================;===;,),;;')),;;')))))))             ",
"            =;),=================================;'''',,,')')))))''             ",
"            =)';=;=-=;=-=-=-=;=-=;=-=-=-=-=-=-=;===,)),;=')))))))>=             ",
"            ,),&-==================================*;')',;'))))),&=             ",
"            ''=;===============================;======;'))'))))),==             ",
"            )=====-===-===-===-===-===-===-===-======*==''))))))'=;             ",
"            ,============================================;')))))'==             ",
"            ,;;;;;;;;;;;;;;;;;;;;;;;;;;;;;;;;;;;;;;;;;;;;=,,'))));;             ",
"            $$$$$$$$$$$$$$$$$$$$$$$$$$$$$$$$$$$$$$$$$$$$$$$$$%%&&$$             ",
"            ......................................................+             ",
"                                                                                ",
"                                                                                ",
"                                                                                ",
"                                                                                ",
"                                                                                ",
"                                                                                ",
"                                                                                ",
"                                                                                ",
"                                                                                ",
"                                                                                ",
"                                                                                ",
"                                                                                ",
"                                                                                "};
