/* XPM */
static char * RADIO FG_xpm[] = {
"80 80 16 1",
" 	c None",
".	c #E00415",
"+	c #ED000D",
"@	c #ED0318",
"#	c #FA010E",
"$	c #FE0116",
"%	c #E11323",
"&	c #ED172B",
"*	c #EB2437",
"=	c #E02A37",
"-	c #EB3B4B",
";	c #EB5460",
">	c #F07A84",
",	c #F4A0A9",
"'	c #FBCED3",
")	c #FFFBFC",
"                                                                                ",
"                                                                                ",
"                                                                                ",
"                                                                                ",
"                                                                                ",
"                                                                                ",
"                                                                                ",
"                                                                                ",
"                                                                                ",
"                                                                                ",
"                                                                                ",
"                                                                                ",
"                                                                                ",
"                                                                                ",
"                                                                                ",
"                                                                                ",
"                                                                                ",
"                                                                                ",
"                                                                                ",
"                                                                                ",
"                                                                                ",
"                                                                                ",
"                                 ,,>>>>;>>>>,>,                                 ",
"                          ,>;-*%.%.@+++++++@...%%=-;>                           ",
"                      >;=@++#+##$######$$$$$$$$$$####@%=;>                      ",
"                   ;=%+$#$$$$$$$$$$$$$$$$$$$$$$$$$$$$$###+.=;,                  ",
"                ;&@+##$$$$$$$$$$$$$$$$$#$#$#$#$@$$$@$#$#$$$@@.&;                ",
"              -%+#$$$$$$$&$$$$$$$$$$$$$$$$$$$$$$$$$$$$$$$$$$$$#+.-              ",
"            -.####$@$$$$$#$$$$$$$$$$$$$$$$$$$$$$$$$$$$$$$#$#$#$#$+.*            ",
"          -%#####$$$$$$$$$$$$$$$$$$$$$$$##$&$$$$$$$$$$$$###$#$$$$$##.-          ",
"        >%##########$$$$$$$#$#$#$#$$$$$$##$$$#$@$#$$$$$#$$$$$$$$$$$##+%         ",
"       ;.$$&&*&*&*&*&$#$#++&&=%%.#$$$$$$$$$$$$#$+@#$$$$$@$$$$$$$$$$$$&$+;       ",
"      ;.$$@>''''''''>+#+&;,'''',>*@##@$$$$$#$@@%>;*+##$@$@$$$$$$$$$$$@###=      ",
"     ;+##$@'))))))));#+;')))))))))>*@$#$$$#$$#%'))'>%#$$$$$$$$$$$$$$$$###+-     ",
"     .$#$+*')))'''),=.>')))'','))))'-@$$$@$$$.,)))))'*####$$$$$$$$$$$##+#$+     ",
"    %$$$$@-)));====*.>))))>-%==;,)))'-#$#$$$+;)),'))));+#$$$$$$$$$$$$#-,>=+%    ",
"    @$$$$.>))'=+####='))'=+####+%>''';##$$$#%,);..-,)))>%@$#$#$$$$$###'))>++;   ",
"   -@$$$$@>))'%%@##+>)))-##$#$###$&*&&#$$$$#;);+$$++;')),*+$$$$$$$$$@-'))'##*   ",
"   @#####@'))',,,,-.,)),.$$@@+@++++.+.@$$$#.,,@#$$##+%,))'-+$$$$$$$$$@,));##%   ",
"   +#$#$#=')))))));%')),.$@->,>>>,>>>,-#$$#;'-#$$$$$$#.;')';.$$$#&$$#$%;-%#$@   ",
"   +$@$$#=)))))))'*.'))>.#+>))))))))))>+$$@>>+$$$$$$$#$.=,))>.##$@$#$$$###$#@   ",
"   =#$$$+;))'>;>;;#@,))'&#.,))))))))))-$##*,=$#$$$$$$$#$@%>)),%#$$$$$$$$##$$&   ",
"   ;#$$#+>))'%#+#+#+;))),.+*;;;-;>))),%@&+>>+##@$@$$$###$#+-')'-+#$$#$$&&@$@-   ",
"    .&$$.')),%#$$&$$+,))),=..+.%;))));#&&*,-#$#$#$$$$$###$$#%,))>=+$$$#-&$$@    ",
"    ;+$@%,))>.#@$$$##%')))),>;>,))))>.##-;>.$#$$$#$$$$$$$@$$$.;,)'>=@.->%@@=    ",
"     &@#=)));##$$$#$$$*'))))))))))'>.$##>'%#$$$$$$#$$$$$$$$$$$+&;')),,';##%     ",
"      &+;))'-#$$$@$#$$#.;,)')))''>=+#$$+--@#$@$@$$$#$$$@$$##$$$$@%;,',>.#+      ",
"       =&>>>&$$$#$$$$$#$+%=;>>;;%@###$$$@#$$#$$$#$$$$$$$$$$$$$$$$$#$%&+#%       ",
"        -.##$$$##$$#$######+#++.++++$@$+++###@#+$@####$#$$$$$@$$$@$$$+.=        ",
"          @@$$#$$$$$#$$$$$$$$$*;-*-;*$$;;-+&-;-;*--&$$#$$$$$$$$$$$#$@%          ",
"           =.@##$$$$$@$#$$$$#&',',''>.*>',.*'>>',,'@$$$$$$$#$$$$$@++-           ",
"             -@##$$$$$$$$&$$#-,''',)>=,),;+>'>>)''>@$$$$#$$$$$#$@%-             ",
"                =@#$$$$$$@$##*>>;;>;>>>>>&#;>.-;;;-@$#$#$#$$$++%                ",
"                  -%.+#$$$$$$&@&@@@@**@%%$#%@$@$@##$#$#$##++%-                  ",
"                     ;=%.+######$$$$$$$$$$$@$$$$$$$#$++.%*;                     ",
"                          -=%&.@@@@####$$$####+++@@&*;                          ",
"                                  -**%%@&@&&**;                                 ",
"                                                                                ",
"                                                                                ",
"                                                                                ",
"                                                                                ",
"                                                                                ",
"                                                                                ",
"                                                                                ",
"                                                                                ",
"                                                                                ",
"                                                                                ",
"                                                                                ",
"                                                                                ",
"                                                                                ",
"                                                                                ",
"                                                                                ",
"                                                                                ",
"                                                                                ",
"                                                                                ",
"                                                                                ",
"                                                                                ",
"                                                                                ",
"                                                                                ",
"                                                                                "};
