/* XPM */
static char * RADIO NOVA_xpm[] = {
"80 80 16 1",
" 	c None",
".	c #030707",
"+	c #1D1E1B",
"@	c #363B3B",
"#	c #574613",
"$	c #5F6464",
"%	c #797D7E",
"&	c #967F2E",
"*	c #A0A3A4",
"=	c #B5B8B8",
"-	c #C3C6C5",
";	c #FAC925",
">	c #D0D1D2",
",	c #DBDDDE",
"'	c #ECEDEE",
")	c #FEFEFE",
"                                                                                ",
"                                                                                ",
"                                                                                ",
"                                                                                ",
"                                                                                ",
"                                                                                ",
"                                                                                ",
"                                                                                ",
"                                                                                ",
"                                                                                ",
"                                                                                ",
"                                                                                ",
"                                                                                ",
"                                                                                ",
"                                                                                ",
"                                                                                ",
"                                                                                ",
"                                                                                ",
"                                                                                ",
"                                                                                ",
"                                                                                ",
"                                                                                ",
"                                                                                ",
"                                                                                ",
"                                                                                ",
"                                                                                ",
"                                                                                ",
"  ;;##@&;;;;;;;;;;;;;,&+&;;;;;;;;;;;;;;#+#;;;;;;;;;;;;;;&#;;;;;;;;;;;;;;&##;;;  ",
"  ;;#+@#;;;;;;;;;;;;;;#+&;;;;;;;;;;;;;;+&+&;;;;;;;;;;;;;&+;;;;;;;;;;;;;&+&##;;  ",
"  ;;#++;;;;;;;;;;;;;;;+##;;;;;;;;;;;;;;#$##;;;;;;;;;;;;;&#;;;;;;;;;;;;;;+&#&;;  ",
"  ;;&&&#;;;;;;;;;;;;;&&&#*;;;;;;;;;;;;;###;;;;;;;;;;;;;;&#;;;;;;;;;;;;;;&+#&;;  ",
"  #######################################$####################################  ",
"  ............................................................................  ",
"  .+++.+++...@@@++.+.+.+.+...++@@@...+.+.+++.+.+.+.+.+++++++.+...++@@@++...+..  ",
"  ..*,,>,,$+*,)''-$...+.+..@*,'''',%@....$,>,>,>@.+..$,>,>@...@%-,'''''>*@..+.  ",
"  ..*)))))%>)))))))%.+.+.@*))))))))))*...$))))))%.++.-)))>...%')))))))))))%...  ",
"  ..*))))''))))))'),+...@>))))))))))))=...=))'))-...@')))$..%))))))))))')))$..  ",
"  ..*))))))),)))))))$..+-)))))'=*))))))*..$))))))$..%)))'@.@))))))=*%,)))))-..  ",
"  ..*))))))$.$))))))%..$)))')'$..%)))))'@.+>)))))%..>)))*..@->,,'%...@))))),+.  ",
"  ..*)))))-..+,)))))%..-))))),...@')))))*..*)))))>.#))))@..+.+.+@$@$$*))))),+.  ",
"  ..*)))))=..+,)))))%.+,)))))*....,)))))>..+))))))@%)))-......@%-'))))))))),+.  ",
"  ..*)))))=+.+,)))))%.@))))))=.+.+>))))),+..=)))))*>)))%.+..@-))))))))))))),+.  ",
"  ..*)))))=..+,)))))%.@')))))*....>))))),+..$)))))))))'+...+,))))))=%%))))),+.  ",
"  ..*)))))=+.+,)))))%.+')))))>.+.+,)))))-+...,))))))))*..+.=))))))$..@))))),+.  ",
"  ..*)))))=..+,)))))%..*)'))),+..+))))))%....%)))))))'@.+.+,)))))*...$))))),+.  ",
"  ..*)))))=+.+,)))))%..$))))))%++*)))))'+..+.@'))))))>.+..+')))))>+.@>))))),+.  ",
"  ..*)))))=..+,)))))%.+.%))')))>,))))))$..+...=))))))$.....-))))))'-')))))),+.  ",
"  ..*)))))=+.+,)))))%....*))))))))))))$..+.+..@)))))'@.+.+.$))))))))),'))))'+.  ",
"  ..=)))))-..+')))))%.....$-)))))))'=@......+..>))))=...+...$,))))))=+-)))))$.  ",
"  .+@%$%$%@+.+$%$%$%@..+.+..@%*=**$@...+.+.+.+.$$%$%@..+.+.+.@$*==%$..@%$%$%@.  ",
"  ............................................................................  ",
"  ...........................................................+................  ",
"                                                                                ",
"                                                                                ",
"                                                                                ",
"                                                                                ",
"                                                                                ",
"                                                                                ",
"                                                                                ",
"                                                                                ",
"                                                                                ",
"                                                                                ",
"                                                                                ",
"                                                                                ",
"                                                                                ",
"                                                                                ",
"                                                                                ",
"                                                                                ",
"                                                                                ",
"                                                                                ",
"                                                                                ",
"                                                                                ",
"                                                                                ",
"                                                                                ",
"                                                                                ",
"                                                                                ",
"                                                                                ",
"                                                                                ",
"                                                                                ",
"                                                                                "};
