/* XPM */
static char * RADIO NOTRE_DAME_xpm[] = {
"80 80 16 1",
" 	c None",
".	c #08184D",
"+	c #072372",
"@	c #273964",
"#	c #455685",
"$	c #6B7667",
"%	c #7785A3",
"&	c #9DABC1",
"*	c #BDC478",
"=	c #D1D7A1",
"-	c #C9D3E4",
";	c #EEEF88",
">	c #FDFB62",
",	c #E7EEF3",
"'	c #F9F9B8",
")	c #FEFEFD",
"                                                                                ",
"                                                                                ",
"                                                                                ",
"                                                                                ",
"                                                                                ",
"                                                                                ",
"                                                                                ",
"                                                                                ",
"                                                                                ",
"                                                                                ",
"                )))))))))))))))))))))))))))))))))))))))))))))))))               ",
"                )))))))))))))))))))))))),))))))))))))))))))))))))               ",
"                ))))))))))))))))))))))),,))))))))))))))))))))))))               ",
"                )))))))))))))))))))))))''))))))))))))))))))))))))               ",
"                ))))))))))))))))))))))),'))))))))))))))))))))))))               ",
"                )))))))))))))))))))))))',))))))))))))))))))))))))               ",
"                )))))))))))))))))))))))='')))))))))))))))))))))))               ",
"                )))))))))))))))))))))))''))))))))))))))))))))))))               ",
"                ))),)))'))))))),))),)));''))))),))),))))))),))),)               ",
"                )))))))))))))))))))))))''))))))))))))))))))))))))               ",
"                ),&%&&-)),';';-%,;',),&$%%-,),'=&%-;''-%%#%-)))))               ",
"                ),@.#@.-)';>>;@.$>;)),++@$.#&';>..*>>*.#%%@.%,)))               ",
"                ),@@)&.@,'>>>*@.#;>,),@+='-+.&;*@+;;*.#,)),@.%)))               ",
"                ),+#,)@@,'>>;*.#.*;)),@@=))-.$;;@@;>@+-))))-.@,))               ",
"                ),@+)&.#);>>;.$&.@''),@+='),#.*;@.=*@@,)),),#.&))               ",
"                ),+@#@#,)'>>$.%'#.&)),+@*)))#+*;@@=*.#,)))))%.%))               ",
"                ),#+@.&))'>*@.@@@.%)),@.;'))#.*=@.;*.@-)))))%.&))               ",
"                ),@#-#.-)'>*.$$$$@@,),@@*))-.$;;@@=>@+&)))))@@,))               ",
"                ),@@)-.@)';#.&;>'$.&),@@='-+.$;*@+=;$.#-)))%.%)))               ",
"                ),.@,)&.#'*.@;>>;*.@,)++$$.#&'>;..*>;$.#%&#@%))))               ",
"                ),%%)))&$=*@*;>>>*$$,,%#$$&,);>*$$*>>;*##@%&)))))               ",
"                )))))))))';';>>>>>;)));>;')),>>>;>>>>>'),))))))))               ",
"                )'))),)))'>>>>>>>;;')'>>>;)));>>>>>>>>')))))),)))               ",
"                )))))))))'*>>>;;**=))';>==))),*>*;*;;>;))))))))))               ",
"                )-##,)))&@*>>;$@@.@#-''$@@#@#.$*@@@.$*')%@#@@#)))               ",
"                ),@.%)))&.*>=$.$*=$.+-)&&-+#&**'@@%$.$-)%.#&%&)))               ",
"                ),#.+&))&.*;$.%;>;'%+@,')-+#);;*@.=;#.&)%.&))))))               ",
"                ),@@.@-)&.*;@@=>>>')#.*>>=.#,;>>@@;'@.&)%.&))))))               ",
"                ),##%.#)&.**.@;>>>''#.*>>*@#);>*@+&#.$))%.###%)))               ",
"                ),@%,%.&&@**.@;>>>;)%+%>>=.#,'>;@+++$'')%+#%#-)))               ",
"                ),@#)-@.#.**@.=;>;;'#.*>>&.#);>*@+%.@=')%.&))))))               ",
"                ),@%))&@+@*'@.$'>>;,.$;>>*.#)'>;@@=*.$,)%+&))))))               ",
"                ),@@)))%+.*;*..$=**.@&>>>*.+);>*@.;;$.&)%.%&&&)))               ",
"                ),@$))))#@*>;*@@.@.%='>>>*@#,'>>@@*>;$.,%@@@.$)))               ",
"                ),,,)))),=;>>;;**$=))'';>=--);>***;>>;*,,-,-,-)))               ",
"                )))))))))';>>>>>>>;)))')')))';>>>>>>>>'))))))))))               ",
"                ))),,,)))'>>>>>>>;;')))))))));>>>>>*;;',)))))))))               ",
"                ),#####%-)>>>>>>*@$))))))-#$&'>>>>*@@>')&%###%,))               ",
"                ),@.&&%@.$;>>>>;$.@,)'';'&..#=>>>*@.@=')%.#%%#)))               ",
"                ),@@-)),@.$>>>>;@++&)';>>;.+.$;>;$.+@;')%+&))))))               ",
"                ),@.-)))&.@*>>;$.#@+,;>>>*@+#.$;$.#+#=')%.&))))))               ",
"                ),@@-)))-@.;>>=@@'%.$'>>>=.%-@.$.$%@@;')%+#%#&)))               ",
"                ),@.-)))-+.*>;$.#%%.@*>>>*.@)%..@=*.#=')%.###&)))               ",
"                ),@@-)))&+@>>;@+@@@#+%;>>=.#''$.*'$+#;')%.&))))))               ",
"                ),@.-)),#.$;>$.$**=&+.=;>*.@';;$;;*.#;')%.&))))))               ",
"                ),@+&,&#.$;>;$.=;>>)#.$>>;.#,'>>>>*.@'')%+%,-&-))               ",
"                ),#.#@@#&'>>$.$=>>;'&.@*>*.@,;>>>;$.@*')%.@++.-))               ",
"                ))-,--,))'>>***>>>;)=**>>>*=';>>>>*=*;')-----,)))               ",
"                )))))))))'>>>;>>>>>'';>>>>>');>>>>>;>>'))))))))')               ",
"                )),,,),),'=;*>*>*;='=>*;*>*=,'*;*>*>*>=,,'-,,,)))               ",
"                )-#@#@#@#@@@@.@@@.@+#+@.@.@+#+@.@.@@@.@+###@@#,))               ",
"                ),.++%@++++++#&&@+++++.%&%+++++++++++++++%&#.@-))               ",
"                )-@+@&#.+++++#%%%.+++++%$&#++++++++++++++@&+++,))               ",
"                ),@++&#++@+++%&&#++@+++&%&+++++++%+++#++.&%++#-))               ",
"                )-+..@+...+...##..+....+%@......+#..+....@@...-))               ",
"                ),&&&&&&&&&&&&%&&&&&&&&&&&&&&&&&&&&&&&&&&&&&&&,))               ",
"                                                                                ",
"                                                                                ",
"                                                                                ",
"                                                                                ",
"                                                                                ",
"                                                                                ",
"                                                                                ",
"                                                                                ",
"                                                                                ",
"                                                                                ",
"                                                                                ",
"                                                                                ",
"                                                                                ",
"                                                                                "};
