/* XPM */
static char * RAI 1_xpm[] = {
"80 80 14 1",
" 	c None",
".	c #233780",
"+	c #284191",
"@	c #254295",
"#	c #2E4289",
"$	c #4B5C99",
"%	c #6C7AAA",
"&	c #8F9BBF",
"*	c #A4AECD",
"=	c #B0BCD3",
"-	c #C6D0E4",
";	c #D4DFEA",
">	c #E1EBF6",
",	c #FCFEFD",
"                                                                                ",
"                                                                                ",
"                                                                                ",
"                                                                                ",
"                                                                                ",
"                                                                                ",
"                                                                                ",
"                                                                                ",
"                                                                                ",
"                                                                                ",
"################################################################################",
"@@+@+@+@+@+@+@+@+@+@+@+@+@+@+@+@+@+@+@+@+@+@+@+@+@+@+@+@+@+@+@+@+@+@+@+@+@+@+@+@",
"++++++++++++++++++++++++++++++++++++++++++++++++++++++++++++++++++++++++++++++++",
"++++++++++++++++++++++++++++++++++++++++++++++++++++++++++++++++++++++++++++++++",
"++++++++++++++++++++++++++++++++++++++++++++++++++++++++++++++++++++++++++++++++",
"++++++++++++++++++++++++++++++++++++++++++++++++++++++++++++++++++++++++++++++++",
"++++++++++++++++++++++++++++++++++++++++++++++++++++++++++++++++++++++++++++++++",
"++++++++++++++++++++++++++++++++++++++++++++++++++++++++++++++++++++++++++++++++",
"++++++++++++++++++++++++++++++++++++++++++++++++++++++++++++++++++++++++++++++++",
"+++++++++++++++++++++++++++++++++++++++++++++++@++++++++++++++++++++++++++++++++",
"+++++++++++++++++++++++++++++++++++++++++++++++@++++++++++++++++++++++++++++++++",
"++++++++++++++++++++++++++++++++++#++#+++++++++++++++++++++++++++++++++++++++++#",
"+++++++++++++++++++++++++++++++++++++#++++@+++++++++++++++++++++++++++++++++++@$",
"++++++++++++++++++++++++++++++++++++###++++++++#++++++++++++++++++++++++++++++.$",
"++++++++++++++++++++++++++++++++#++++#.++++++++#++++++++++++++++++++++++++++++@$",
"+++++++++++++++++++++++++++++++#++++##%#+++++++#+++++++++++++++++++++++++++++++$",
"+++++++++++++++++++++++++++++@++#+++##=#.#+@+++++++++++++++++++++++++++++++++@.$",
"+++++++++++++++++++++++++++++++##+++.#>%.#+@@++++++++++++++++++++++++++++++++++$",
"+++++++++++++++++++++++++++++@+#++++##;=.#++@@++++++++++++++++++++++++++++++++.$",
"+++++@+#++###@++++@#.+++++++@@+++++@+#;,%..@@@@@#####+@+#++@@+++@+++++++@++++++$",
"#+++++##++##+@@+.++..+++++++@@++#++@+#;,>$.+++++++++#+++#+@@@#++@@.++#++++++++@$",
"+++#++......+@@@++.$##@+@+++@@+#+++@+#;,,>$.++++@@@+#++...@@..++@+++.+++++++#++$",
"@+++#.%&&*%#+@@@+.$>*+@+++++@@+++#+++#;,,,;$#+++@@@@#+@$&%.#&&++@+++++++#+++@@.$",
"@@+++.&,,,,&......$;&@@+@+++@@+#+++@+#;,,,,*.++++++@++.%,=.$,>#.....+.....++@@+$",
"+++#+.&,&%,-.$&%%$#%$.++@+++@@+#+++++#;,,,,>#.++++++++.%,=.#,>$$%%%$.#%&%#.+@@@$",
"+++++.&,==,*%,,,,-%>=.@+++++@@++++++.#;,,,,,%..##+@@++.%,=.#,;%,>>,=#=,>,=###+.$",
"@+++@.&,,,=$=,%%,-$,=.+++@++@+++#++@+#;,,,,,;*=#..+@+@.%,=.#>>%,-$>;%,-$=,&.++@$",
"++++@.&,;,- -,$#>;$,=.+@@@@+@@+++++@.#;,,,,,,,,-%#..@+.%,;$%,;%,*.;;&,*.&,&..+.$",
"+++@@.&,&&,=&,>>,;$,=.+++.............;,,,,,,,,,,>%$#++#;,;,,&%,=.>;$;,;,>$+@@@$",
"++++#.%=%#==%&-==&$=%###%&*&&&&&&&&&&&=*=======*===&$+#.$*--&.$=%#&*.$=-=$.#++.$",
"+++++++.##....#..#.#+++@$%=,,,,,,,,,,,%........#..++++.#..##..####.###.#..+++@@$",
"+++++#+###+.++.#+.#+++@@@..$-,,,,,,,,,%.@@@@@@@@+#+.@++++++.+++++..++####++++++$",
"++++++++++@+++@@.@++++@@@@#.#=,,,,,,,,%.@@+@++@+@@@@+++++@+@+++++@++@.++++@++@.$",
"+++++++@+++@++@+@@++#+@@@@@++#=,,,,,,,%.+.+##+##@@@++++++++++++++++++++++@+++++$",
"++++++@+@@+++++++++++@@@@@+++.#*>,,,,,%.+++++++++@@@@++++#+++++++++++++++#+#++@$",
"++++@++++++++++++++++@+@+++++@#.$&=,,,%.@@@@@@@@@@@@@@@++#++#+###++++@@+++#@@@.$",
"+++++++@++#+++++++++++#+++@+@@+#..#;,,%.@@@@@@@@@@@@@@@++++++#+##++++@@@++++@@@$",
"+++++++#++@++++++++++++++++@@@@#@@#>,,%.@@@++++++++#++#++#@@+++#@+@+#++@++#+@@+$",
"+++++++++++@+@+@+@@+++++++++@+++@+.&,,%.++++++++++++#++#+++@@++++@@++++++++++@.$",
"+++++++++++++++++++++++++++++##++@.#-,%.+++++++++++++++++++++++++++++++++++++++$",
"+++++++++++++++++++++++++++++##+@@@.%,%.++++++++++++++++++++++++++++++++++++++@$",
"++++++++++++++++++++++++++++++#++@@.#;%.++++++++++++++++++++++++++++++++++++++.$",
"++++++++++++++++++++++++++++++#++@@@.%%.+++++++++++++++++++++++++++++++++++++@@$",
"+++++++++++++++++++++++++++++++++@@++$$@++++++++++++++++++++++++++++++++++++++.$",
"+++++++++++++++++++++++++++++++++@@++++++++++++++++++++++++++++++++++++++++++@.$",
"+++++++++++++++++++++++++++++@+++++@@++++++++++++++++++++++++++++++++++++++++++$",
"+++++++++++++++++++++++++++++@@+++@+++++++++++++++++++++++++++++++++++++++++++@$",
"+++++++++++++++++++++++++++++@@+#++++.@+++++++++++++++++++++++++++++++++++++++++",
"++++++++++++++++++++++++++++++++++++@@++++++++++++++++++++++++++++++++++++++++++",
"++++++++++++++++++++++++++++++++++++++++++++++++++++++++++++++++++++++++++++++++",
"++++++++++++++++++++++++++++++++++++++++++++++++++++++++++++++++++++++++++++++++",
"++++++++++++++++++++++++++++++++++++++++++++++++++++++++++++++++++++++++++++++++",
"++++++++++++++++++++++++++++++++++++++++++++++++++++++++++++++++++++++++++++++++",
"++++++++++++++++++++++++++++++++++++++++++++++++++++++++++++++++++++++++++++++++",
"++++++++++++++++++++++++++++++++++++++++++++++++++++++++++++++++++++++++++++++++",
"++++++++++++++++++++++++++++++++++++++++++++++++++++++++++++++++++++++++++++++++",
"++++++++++++++++++++++++++++++++++++++++++++++++++++++++++++++++++++++++++++++++",
"++++++++++++++++++++++++++++++++++++++++++++++++++++++++++++++++++++++++++++++++",
"@@@@@@@@@@@@@@@@@@@@@@@@@@@@@@@@@@@@@@@@@@@@@@@@@@@@@@@@@@@@@@@@@@@@@@@@@@@@@@@@",
"                                                                                ",
"                                                                                ",
"                                                                                ",
"                                                                                ",
"                                                                                ",
"                                                                                ",
"                                                                                ",
"                                                                                ",
"                                                                                ",
"                                                                                ",
"                                                                                "};
