/* XPM */
static char * Reality TV_xpm[] = {
"80 80 16 1",
" 	c None",
".	c #1C1714",
"+	c #322A06",
"@	c #454442",
"#	c #615A11",
"$	c #5E5C5B",
"%	c #817B1C",
"&	c #868485",
"*	c #9F9920",
"=	c #AEAD49",
"-	c #C2BC26",
";	c #B5B6B7",
">	c #DCD948",
",	c #FDF406",
"'	c #FAF729",
")	c #F8F8F8",
"                                                                                ",
"                                                                                ",
"                                                                                ",
"                                                                                ",
"                                                                                ",
"                                                                                ",
"                                                                                ",
"                                                                                ",
"                                                                                ",
"                                                                                ",
"                                                                                ",
"                                                                                ",
"                                                                                ",
"                                                                                ",
"                                     ;&@$&                                      ",
"                                    &.....$ ...@.@.@...                         ",
"                                   &.........&););)&..                          ",
"                                  &...%'*+..@)))));.@                           ",
"                                 &...%','=+.;))));.@                            ",
"                                &...%',,,>.$))));@.                             ",
"                               &...%',,,'#.;))))@.+...@                         ",
"                              &...%',,,'-.@))))););@.$                          ",
"                             &...%',,,,,%.;)))))))$.&                           ",
"                            &...%',,,,,,.@;;$$;);@.                             ",
"                           &...%',,,,,'%..+..&);...$                            ",
"                          &...%',,,,,,-++%=+$);.++..$                           ",
"                         &...%',,,,,,,-*,'*.);.+>=+..$                          ",
"                        &...%',,,,,,,,,',,+;;.#','-+..$                         ",
"                       &...%',,,,,,,,,,,'#@&.#',,,'*+..@                        ",
"                      &...%',,,,,,,,,,,'>+$+#',,,,,'-+..$                       ",
"                     &...%',,,,,,,,,,,,,%..#',,,,,,,'*+..$                      ",
"                    &...%',,,,,,,,,,,,,,+.#',,,,,,,,,'-+..$                     ",
"                   &...%',,,,,,,,,,,,,'%.#',,>,,,,,,,,'=+..@                    ",
"                  &+++%',,,,,,,,,,,,,,>##',,,,,,,,,',,,'-#++$                   ",
"                 '>>>>',,,',,,',',,,,,*+''',,,,,,,''',,,'>>>>>                  ",
"      &$$&$&$&&)'>%%#%#%#%-',,#%#%#%,'%=#%#%-',,,*#%#*-%#%#%#%$&$&$   $&$;      ",
"      @.........>=........*,,*......>->*....-,,,'+...+=............& @...&      ",
"      @....$.+..%>...+.+++*''%.@....*''-...+-',,'#.@.#=+.+.@.+.+.+.$ @..@       ",
"      $...$ &...%-+...==>=,,,+..@+..#''*....-,,,'#...#>->#...+--#...&...&       ",
"      $...# $..+=>+..@#%$%>'-+..%%.++,'*.@.+-',,'#.@.#'''%.+.#>'=+.@.@.@        ",
"      $.......+&'-+.......-'%...>*...*'*....-,,,'+...+','#...+>,'+.....$        ",
"      $..+.....#>>++...+.+-'#..+==.@.%'-...+-',,'#.@.#','%.@.+>,'=.@...         ",
"      $...@&....*-+...*=--'-+...+++..+'*....-'','#...#','%...+,,,>@...$         ",
"      $...$ @...%>+..+%*%*>-.@.....@.+>-.@.+#*%%-%.@.#','%.@.#>'' @...$         ",
"      $...@ $...$=+.......=$...+%$@...=*........=#...+','#...+>'  @...$         ",
"      @...@ &...+=.....+..%#...-''%...#-...+....=#.+.#','%.+.+>   ....$         ",
"                 >-----*-*-*-*--,,,*-*---=-*---*,--*--,,,----=                  ",
"                  >%%*=',',',',,>,>>>'>>>>''>'>,,',,,','-***=                   ",
"                   $...*',,,,,,>#.+++++++.*'%.+#',,,,,'-+..+                    ",
"                    &..+*',,,,,'#+...+++..%)#..*,,,,,'-#..@                     ",
"                     $...*',,,,,,-#..#>%..%>+.+-,,,,'-+..@                      ",
"                      &..+*',,,,,'#..%'>+.#;+.+,,,,'-+..@                       ",
"                       $...*',,,,>#..#'>#.+%..%',,'-+..@                        ",
"                        &..+*',,,,+..%,'#..@..*','-+..@                         ",
"                         &...%',,>#..#',*....+>,'-+..@                          ",
"                          &..+*','+..%,'-+.+.#,'-#..@                           ",
"                           &...%',-=--,,,--=--'-+..@                            ",
"                            &...*',',,,,,,,','-+..@                             ",
"                             &...*',,,,,,,,,'-+..@                              ",
"                              &..+*',,,,,,,'-+..@                               ",
"                               &...%',,,,,'-+..@                                ",
"                                &..+*',,,'-+..@                                 ",
"                                 &...%','-+..@                                  ",
"                                  &..+*'-+..@                                   ",
"                                   &...++..@                                    ",
"                                    &.....$                                     ",
"                                     ;$.@&                                      ",
"                                                                                ",
"                                                                                ",
"                                                                                ",
"                                                                                ",
"                                                                                ",
"                                                                                ",
"                                                                                ",
"                                                                                ",
"                                                                                ",
"                                                                                ",
"                                                                                ",
"                                                                                ",
"                                                                                "};
