/* XPM */
static char * RFI Multilingues_xpm[] = {
"80 80 16 1",
" 	c None",
".	c #E20102",
"+	c #F10101",
"@	c #FD0101",
"#	c #EA0A10",
"$	c #D5202A",
"%	c #E81A1B",
"&	c #E41F26",
"*	c #EA3133",
"=	c #D93B3E",
"-	c #E94B4C",
";	c #F06265",
">	c #EB7D7F",
",	c #F8AAA9",
"'	c #FCD6D4",
")	c #FEFDFD",
"                                                                                ",
"                                                                                ",
"                                                                                ",
"                                                                                ",
"                                                                                ",
"                                                                                ",
"                                                                                ",
"                                                                                ",
"                                                                                ",
"                                                                                ",
"                                                                                ",
"                                                                                ",
"                                                                                ",
"                                                                                ",
"             @@@@@@@@@@@@@@@@@@@@@@@@@@+@@@@@@@+@@@@@@@@@@@@@@@+@               ",
"             @@@@@@@@@@@@@@@@@@@+#@@@@@@@@@@@@@@@@@@@@@@@@@@@#@@@               ",
"             @@@@@@@@@@@@@@@@@@+@+@@+.+.+.+@@@@++++++++++++...@@@               ",
"             @@@@@@@@@@@@@@@@@@@@@+.*;>>>>-#@@#>>>>>>>>>>>>>>-+@@               ",
"             @@@@@@@@@@@@@@@@@@@@.->'))))),.@+&')))))))))))))>+@@               ",
"             @@@@@@@@@@@@@@@@@@#.>'))))))),#@@&')))))))))))))>+@@               ",
"             @@@@@@@@@@@@@@@@@@+-')))))))),.@@%')))))))))))));+@@               ",
"             @@@@@@@@@@@@@@@@@@$,)))))'',,-#@@%')))))))))))))>+@@               ",
"             @@@@@@@@@@@@@@@@@+-)))')';...+@@@%')))))))))))));+@@               ",
"             @@@@@@@@@@@@@@@@@#'))))'-.@@#@#@@%')))))))))))))>+@@               ",
"             @@@@@@@@@@@@@@@@+*')))),.@@@@@@@+%')))))))))))));+@@               ",
"             @@@@@@@@@@@@@@@@@*)))));+@@@@@@@@%')))))))))))))>.@@               ",
"             @@@@@@@@@@@@@@@@+=')))'=+@+@@@@@+%')))))))))))));++@               ",
"             @@@@@@@@@@@@@@@@@=)))))*@@@@@@@@@#;;>;>;>;>;>;>;-+@@               ",
"             @@@@@@@@@@@@@@@@+=')))'=+@@@+@@@@@.....+...+.....@+@               ",
"             @@@@@@@@@@@@@@@@+=)))))*@@@@@@@@@@@@@@@@@@@@@@@@@@#@               ",
"             @@+@+..@@@@@.##++=')))'=.+.+.@@@@@..++.+++++++.++@@@               ",
"             @@@+;>>%@+.&>,'&+=)))))>;;;;>*@@@#;;;;;;;;;;;;;;*+@@               ",
"             @@@+>)'&+.-'))'*.='))))))))))>.@+&')))))))))))));.@@               ",
"             @@@.,)'$.-)),>-#+=)))))))))))>.@@%')))))))))))))>.@@               ",
"             @@@.>)'$-)'-...@+='))))))))))>.@@%')))))))))))));+@@               ",
"             @@@.,)'=''=.@@@@+=))))),,,,,,-+@@%')))))))))))))>+@@               ",
"             @@@.>),>'-.@+@@@+=')))'=.###.@@@+%')))))))))))));+@@               ",
"             @@@.>))'>.#@#+#@+=)))))*@++@@+@@@%')))))))))))))>+@@               ",
"             @@@.>))'$@@#@@@@.=')))'*@@@@@#+@+%')))))))))))))>++@               ",
"             @@@.,))>@@@+@@@@@=)))))*@@@@@@@@@%')))))))))))))>+@@               ",
"             @@@.>));+@@@@@@@+=')))'*@@@@+@@@@%')))))))))))));+@@               ",
"             @@@.,))-@@@@@@@@@=)))))*@@@@@@@@@%')))))))))))))>+@@               ",
"             @@@.>)'-+@@@@@@@+=')))'*@@@@@@@@@%')))))))))))));+@@               ",
"             @@@.,))-@@@@@@@@@=)))))*@@@@@@@@@%')))))))))))))>+@@               ",
"             @@@.>)'-+@@@@@@@+=')))'*+@@@+@@@@%')))))))))))))=@@@               ",
"             @@@.>))-@@@@@@@@@=)))))*@@@@@@@@@%')))))))))))))=+@@               ",
"             @@@.>)'-+@@@@@@@+=')))'*@@@@@@@@@%')))))))))))))-@@@               ",
"             @@@.,))-@@@@@@@@@=)))))*@@@@@@@@@%')))))))))))))>+@@               ",
"             +@@.>)'-+@@@@@@@+=')))'*+@@@+@@@@%')))))))))))));+@@               ",
"             @@@.>))-@@@@@@@@+=)))))*@@@@@@@@@%')))))))))))))>+@@               ",
"             @@@.>)'-+@@@@@@@+=')))'*@@@@@@@@@%')))))))))))));+@@               ",
"             @@@.,))-@@@@@@@@@=)))))*@@@@@@@@@%')))))))))))))>+@@               ",
"             @@@.>)'-+@@@@@@@+=')))'*+@@@+@@@@%')))))))))))));+@@               ",
"             @@@.>))-@@@@@@@@+=)))))*@@@@@@@@@%')))))))))))))>+@@               ",
"             @@@.>)'-+@@@@@@@+=')))'*@@@@@@@@@%')))))))))))));+@@               ",
"             @@@.,))-@@@@@@@@@=)))))*@@@@@@@@@%')))))))))))))>+@@               ",
"             @@@.>)'-+@@@@@@@+=')))'*+@@@+@@@@%')))))))))))));+@@               ",
"             @@@.>))-@@@@@@@@+=)))))*@@@@@@@@@%')))))))))))))>+@@               ",
"             +@+.>))-+@@@@@@@+=')))'=+@@@@@@@@&')))))))))))))>.@@               ",
"             @@@.;,,*@@@@@@@@@*'''''*@@#@#@@@#&,''''''''''''';.@@               ",
"             @@@@.###@@@@@@@@@#%$$$%#@@+@+@@@@#%$$%$%$%$%$%$&#@@@               ",
"             @@@@@@@@@@@@@@@@@@@+@+@@@@@@@@@@@@@+@+@@@+@@@+@+@@@@               ",
"             @@@@@@@@@@@@@@@@@@@@@@@@@@@@@@@@@@@@@@@@@@@@@@@@@@@@               ",
"                                                                                ",
"                                                                                ",
"                                                                                ",
"                                                                                ",
"                                                                                ",
"                                                                                ",
"                                                                                ",
"                                                                                ",
"                                                                                ",
"                                                                                ",
"                                                                                ",
"                                                                                ",
"                                                                                ",
"                                                                                ",
"                                                                                ",
"                                                                                ",
"                                                                                "};
