/* XPM */
static char * RFM_xpm[] = {
"80 80 7 1",
" 	c #14165C",
".	c #1C2A8C",
"+	c #E40A14",
"@	c #BC6654",
"#	c #7486BC",
"$	c #2CFE04",
"%	c #E4E6F4",
"$$$$$$$$$$$$$$$$$$$$$$$$$$$$$$$$$$$$$$$$$$$$$$$$$$$$$$$$$$$$$$$$$$$$$$$$$$$$$$$$",
"$$$$$$$$$$$$$$$$$$$$$$$$$$$$$$$$$$$$$$$$$$$$$$$$$$$$$$$$$$$$$$$$$$$$$$$$$$$$$$$$",
"$$$$$$$$$$$$$$$$$$$$$$$$$$$$$$$$$$$$$$$$$$$$$$$$$$$$$$$$$$$$$$$$$$$$$$$$$$$$$$$$",
"$$$$$$$$$$$$$$$$$$$$$$$$$$$$$$$$$$$$$$$$$$$$$$$$$$$$$$$$$$$$$$$$$$$$$$$$$$$$$$$$",
"$$$$$$$$$$$$$$$$$$$$$$$$$$$$$$$$$$$$$$$$$$$$$$$$$$$$$$$$$$$$$$$$$$$$$$$$$$$$$$$$",
"$$$$$$$$$$$$$$$$$$$$$$$$$$$$$$$$$$$$$$$$$$$$$$$$$$$$$$$$$$$$$$$$$$$$$$$$$$$$$$$$",
"$$$$$$$$$$$$$$$$$$$$$$$$$$$$$$$$$$$$$$$$$$$$$$$$$$$$$$$$$$$$$$$$$$$$$$$$$$$$$$$$",
"$$$$$$$$$$$$$$$$$$$$$$$$$$$$$$$$$$$$$$$$$$$$$$$$$$$$$$$$$$$$$$$$$$$$$$$$$$$$$$$$",
"$$$$$$$$$$$$$$$$$$$$$$$$$$$$$$$$$$$$$$$$$$$$$$$$$$$$$$$$$$$$$$$$$$$$$$$$$$$$$$$$",
"$$$$$$$$$$$$$$$$$$$$$$$$$$$$$$$$$$$$$$$$$$$$$$$$$$$$$$$$$$$$$$$$$$$$$$$$$$$$$$$$",
"$$$$$$$$$$$$$$$$$$$$$$$$$$$$$$$$$$$$$$$$$$$$$$$$$$$$$$$$$$$$$$$$$$$$$$$$$$$$$$$$",
"$$$$$$$$$$$$$$$$$$$$$$$$$$$$$$$$$$$$$$$$$$$$$$$$$$$$$$$$$$$$$$$$$$$$$$$$$$$$$$$$",
"$$$$$$$$$$$$$$$$$$$$$$$$$$$$$$$$$$$$$$$$$$$$$$$$$$$$$$$$$$$$$$$$$$$$$$$$$$$$$$$$",
"$$$$$$$$$$$$$$$$$$$$$$$$$$$$$$$$$$$$$$$$$$$$$$$$$$$$$$$$$$$$$$$$$$$$$$$$$$$$$$$$",
"$$$$$$$$$$$$$$$$$$$$$$$$$$$$$$$$$@@+++++@$$$$$$$$$$$$$$$$$$$$$$$$$$$$$$$$$$$$$$$",
"$$$$$$$$$$$$$$$$$$$$$$$$$$$$@+++++++++++++++++$$$$$$$$$$$$$$$$$$$$$$$$$$$$$$$$$$",
"$$$$$$$$$$$$$$$$$$$$$$$$$$@++++++++++++++++++++++@$$$$$$$$$$$$$$$$$$$$$$$$$$$$$$",
"$$$$$$$$$$$$$$$$$$$$$$$$@+++++++++++++++++++++++++++@$$$$$$$$$$$$$$$$$$$$$$$$$$$",
"$$$$$$$$$$$$$$$$$$$$$$$+++++++++++++++++++++++++++++++@$$$$$$$$$$$$$$$$$$$$$$$$$",
"$$$$$$$$$$$$$$$$$$$$$@+++++++++++++++++++++++++++++++++++@$$$$$$$$$$$$$$$$$$$$$$",
"$$$$$$$$$$$$$$$$$$$$@+++++++++++++++++++++++++++@@@@@@@@+@+$$$$$$$$$$$$$$$$$$$$$",
"$$$$$$$$$$$$$$$$$$$@++++++++++++++++++++++@+@#@##@##%#%%%%@@$$$$$$$$$$$$$$$$$$$$",
"$$$$$$$$$$$$$$$$$$$+++++++++++++++++@+. .. ........      #%%%@$$$$$$$$$$$$$$$$$$",
"$$$$$$$$$$$$$$$$$$++++++++++++++@     ...................   #%%+$$$$$$$$$$$$$$$$",
"$$$$$$$$$$$$$$$$$@++++++++++++  . .. .. ....................  #%+$$$$$$$$$$$$$$$",
"$$$$$$$$$$$$$$$$$+++++++++@ .....######### #................ . #@+$$$$$$$$$$$$$$",
"$$$$$$$$$$$$$$$$++++++++   ... #####%######.#...... .. .........#++@$$$$$$$$$$$$",
"$$$$$$$$$$$$$$$@++++++. ....####%%%%#%%#####............... ....@@++$$$$$$$$$$$$",
"$$$$$$$$$$$$$$$+++++.+....#.##%#%#%%%%####..#............... . . @++@$$$$$$$$$$$",
"$$$$$$$$$$$$$$@++++@  ...# ###%%%%%#######.......... .. .. .....  +++@$$$$$$$$$$",
"$$$$$$$$$$$$$$++++  .....###%%#%%#%#%###...................... .. ++++$$$$$$$$$$",
"$$$$$$$$$$$$$@++@ .....####%%#%%#%#####..#...... ........... ... +++++$$$$$$$$$$",
"$$$$$$$$$$$$$@++ ......###%#%%%%#%###.#........... ........ ......++++@$$$$$$$$$",
"$$$$$$$$$$$$$+@......#####%%%%#%#####......... ......... .... . ..+++++$$$$$$$$$",
"$$$$$$$$$$$$$+@.........######%####.. ........  ... .. .........  +++++$$$$$$$$$",
"$$$$$$$$$$$$@@# ....# .#. .#.####. #.#.#. ... ..........  .... . .+++++$$$$$$$$$",
"$$$$$$$$$$$$@@# ...%%%%%%%%%%#.#.#%%%%%%%%%%#.%%%#.. .. .%%%%.. .++++++@$$$$$$$$",
"$$$$$$$$$$$$#%. . .%%%%%%%%%%%% .#%%%%%%%%%%#.%%%%%  .  #%%%%...  +++++$$$$$$$$$",
"$$$$$$$$$$$$@#.....%%%##.###%%%# #%%### ####..%%%%%# ..#%%%%%....++++++$$$$$$$$$",
"$$$$$$$$$$$$%% ....%%%      @%%# #%%#        .%%%%%%#  %%%%%% .. ++++++$$$$$$$$$",
"$$$$$$$$$$$$%%.   #%%%######%%%# #%%%######...%%%#%%%#%%%#%%%. . ++++++$$$$$$$$$",
"$$$$$$$$$$$@%%# . .%%%%%%%%%%%%  #%%%%%%%%%. .%%% #%%%%%# %%%.. +++++++$$$$$$$$$",
"$$$$$$$$$$$+%%# ...%%%%%%%%%%%. .#%%%%%%%%%.. %%%  #%%%%  %%%. ..+++++@$$$$$$$$$",
"$$$$$$$$$$$@@%%# ..%%%....#%%%.  #%%#   . .. .%%%. .%%%  .%%%.. ++++++$$$$$$$$$$",
"$$$$$$$$$$$@@%%%.  %%%.. . %%%#  #%%#  . . ...%%%.  .#. . %%%. .++++++$$$$$$$$$$",
"$$$$$$$$$$$$+@%%% .%%% ... .%%%# #%%#....... .%%% .. ... .%%%. ++++++@$$$$$$$$$$",
"$$$$$$$$$$$$++@%%#..#. ....  ##. .##. .... ....#.  ..  . . .#. ++++++$$$$$$$$$$$",
"$$$$$$$$$$$$++@%%%#   ... ...  ...   ... ... .   .  . .. ...   +++++@$$$$$$$$$$$",
"$$$$$$$$$$$$++++%%%# ... ... . . .....  .   .. . ..  .  .     ++++++$$$$$$$$$$$$",
"$$$$$$$$$$$$@++++@%%# ... ........  .. .. .  . .   ..     .   +++++@$$$$$$$$$$$$",
"$$$$$$$$$$$$$+++++@%%#  ..... .........  . ... .  .   .       +++++$$$$$$$$$$$$$",
"$$$$$$$$$$$$$$+++++@%%# .. .... .      .     .   .           +++++$$$$$$$$$$$$$$",
"$$$$$$$$$$$$$$@++++++%%# ..  . . .. ..  .                    ++++@$$$$$$$$$$$$$$",
"$$$$$$$$$$$$$$$@++++++@%#. ....  .    . .                   ++++@$$$$$$$$$$$$$$$",
"$$$$$$$$$$$$$$$$+++++++@%%.  . .. . .   .                   ++++$$$$$$$$$$$$$$$$",
"$$$$$$$$$$$$$$$$$++++++++%%#  ..                           ++++$$$$$$$$$$$$$$$$$",
"$$$$$$$$$$$$$$$$$$@++++++++%%.    .                        +++@$$$$$$$$$$$$$$$$$",
"$$$$$$$$$$$$$$$$$$$@++++++++@%#                           +++@$$$$$$$$$$$$$$$$$$",
"$$$$$$$$$$$$$$$$$$$$$+++++++++@%.                         ++@$$$$$$$$$$$$$$$$$$$",
"$$$$$$$$$$$$$$$$$$$$$$@++++++++@%@#                     +++$$$$$$$$$$$$$$$$$$$$$",
"$$$$$$$$$$$$$$$$$$$$$$$$@++++++++@@@.                  @++$$$$$$$$$$$$$$$$$$$$$$",
"$$$$$$$$$$$$$$$$$$$$$$$$$$@@+++++++@@%@              @@+@$$$$$$$$$$$$$$$$$$$$$$$",
"$$$$$$$$$$$$$$$$$$$$$$$$$$$$$@++++++++@@@@@        @@@+@$$$$$$$$$$$$$$$$$$$$$$$$",
"$$$$$$$$$$$$$$$$$$$$$$$$$$$$$$$$@++++++++@@@@@@@@@@+@@$$$$$$$$$$$$$$$$$$$$$$$$$$",
"$$$$$$$$$$$$$$$$$$$$$$$$$$$$$$$$$$$@++++++++++@+@++@$$$$$$$$$$$$$$$$$$$$$$$$$$$$",
"$$$$$$$$$$$$$$$$$$$$$$$$$$$$$$$$$$$$$$$$@$@@@@@$$$$$$$$$$$$$$$$$$$$$$$$$$$$$$$$$",
"$$$$$$$$$$$$$$$$$$$$$$$$$$$$$$$$$$$$$$$$$$$$$$$$$$$$$$$$$$$$$$$$$$$$$$$$$$$$$$$$",
"$$$$$$$$$$$$$$$$$$$$$$$$$$$$$$$$$$$$$$$$$$$$$$$$$$$$$$$$$$$$$$$$$$$$$$$$$$$$$$$$",
"$$$$$$$$$$$$$$$$$$$$$$$$$$$$$$$$$$$$$$$$$$$$$$$$$$$$$$$$$$$$$$$$$$$$$$$$$$$$$$$$",
"$$$$$$$$$$$$$$$$$$$$$$$$$$$$$$$$$$$$$$$$$$$$$$$$$$$$$$$$$$$$$$$$$$$$$$$$$$$$$$$$",
"$$$$$$$$$$$$$$$$$$$$$$$$$$$$$$$$$$$$$$$$$$$$$$$$$$$$$$$$$$$$$$$$$$$$$$$$$$$$$$$$",
"$$$$$$$$$$$$$$$$$$$$$$$$$$$$$$$$$$$$$$$$$$$$$$$$$$$$$$$$$$$$$$$$$$$$$$$$$$$$$$$$",
"$$$$$$$$$$$$$$$$$$$$$$$$$$$$$$$$$$$$$$$$$$$$$$$$$$$$$$$$$$$$$$$$$$$$$$$$$$$$$$$$",
"$$$$$$$$$$$$$$$$$$$$$$$$$$$$$$$$$$$$$$$$$$$$$$$$$$$$$$$$$$$$$$$$$$$$$$$$$$$$$$$$",
"$$$$$$$$$$$$$$$$$$$$$$$$$$$$$$$$$$$$$$$$$$$$$$$$$$$$$$$$$$$$$$$$$$$$$$$$$$$$$$$$",
"$$$$$$$$$$$$$$$$$$$$$$$$$$$$$$$$$$$$$$$$$$$$$$$$$$$$$$$$$$$$$$$$$$$$$$$$$$$$$$$$",
"$$$$$$$$$$$$$$$$$$$$$$$$$$$$$$$$$$$$$$$$$$$$$$$$$$$$$$$$$$$$$$$$$$$$$$$$$$$$$$$$",
"$$$$$$$$$$$$$$$$$$$$$$$$$$$$$$$$$$$$$$$$$$$$$$$$$$$$$$$$$$$$$$$$$$$$$$$$$$$$$$$$",
"$$$$$$$$$$$$$$$$$$$$$$$$$$$$$$$$$$$$$$$$$$$$$$$$$$$$$$$$$$$$$$$$$$$$$$$$$$$$$$$$",
"$$$$$$$$$$$$$$$$$$$$$$$$$$$$$$$$$$$$$$$$$$$$$$$$$$$$$$$$$$$$$$$$$$$$$$$$$$$$$$$$"};
