/* XPM */
static char * Rire&Chansons_xpm[] = {
"80 80 16 1",
" 	c None",
".	c #1C0D0D",
"+	c #970A21",
"@	c #D70329",
"#	c #BA1635",
"$	c #813C34",
"%	c #5B5B4F",
"&	c #A14E5A",
"*	c #D34D68",
"=	c #BA7983",
"-	c #95948C",
";	c #A6A329",
">	c #C1AFAD",
",	c #EAE824",
"'	c #E3D8D7",
")	c #FDFDFD",
"                                                                                ",
"                                                                                ",
"                                                                                ",
"                                                                                ",
"                                                                                ",
"                                                                                ",
"                                                                                ",
"                                                                                ",
"                                                                                ",
"                                                                                ",
"                                                                                ",
"                                                                                ",
"                              >%%.............%%--                              ",
"                          -%....%%%----'>>->--%%...%%-                          ",
"                       %%...%.-')))))))))))))))))>>%%...%                       ",
"                     %..%>')=#+=))))))))))))))))))))))>-...-                    ",
"                   ...-'))))&@@+=))))))))))))))))))))))))>%..%                  ",
"                 %.%>)))))))=+@@+')))))))))))))))))))))))))'%..-                ",
"               %..>)))))))))'+@@+>)''>>===')'>>==&&$&')))))))'%.%               ",
"              ..-)))))''>>>))'$#$'>&##@@@@+=+@+@+@@+=)))))))'))'..-             ",
"             ..>))))'=&+#++&))'=>>$+@@@+@@@++@@+++#$')))))>$++>))%.%            ",
"            .%))))>*+@@@@@@+=)'&+$+@@$&&+@@@@@@&=>=')))))>+$###)))-.%           ",
"           .-))))'&+@@+##+@+='&+@@@+@='$@@@+#@@#=&$>)))))$+&*+&')))>..          ",
"          .-)))))'$@@#='&@@$'>+@@#+@+=&@@#+#@@@@@@+'))))'$+$+$')))))>.%         ",
"         .%))))))>$+@+'&+@+=)$@@@++@@+@@#&=+@@@+++=))'))'+@@#=-')))))-.%        ",
"        %.'))))))'$@@##@@#=)=+@@@+@@@@@@&)&#@@#>>'))')))&++###+=))))))%.        ",
"        .-)))))))>$+@@@@@&)'$+@@++@@@@@@#&&@@@#&*&&+>))>+#&+@+$>))))))).%       ",
"       %%))))))))'%#@@@@@$=-+@@@$$@@+&+@@#+@@@@@@@@$'))-+#+$+#$')))))))>.       ",
"       .>))))))))>&@@+++@@&#@@@+=#@@&=$+@@@+++@@@++&)))'=#&>=$-')))))))).%      ",
"       %)))))))))'%#@#&&+**$@#+=>$@@=)-&+#+++++#+$&,;,>)';;>>;>,-'))))))%.      ",
"      %%)))))))))'&+@+>=&+&$==='-.$$-')>%$%$;;>&;>;,,%,=;,,%,,,;;>))))))>.      ",
"      .-)))))))))'&@@$')--.-'','-,,,;;>';,;,,,;,;;-;,,,;%,;;,,%>')))))))'.%     ",
"      .-)))))))))>%.$$;>;-;'>;,%;,,,;,>%,,;,,%;,;>'%,;,,;,;%;,;'))))))))).%     ",
"      .>)))))))))'-;;,;;,,>>;,;;,,;,;,,;,,%;,;;,;)-;,;;,,,;;%,,,))))))))'..     ",
"      .-)))))))))';>,,;%,,;%;,;;,%;,;,,,,,;%;,,;;>;>;;%;,,;;,,,;))))))))'.%     ",
"      .-))))))))'>,,;>-;,,;,,,;,,,,,;,;,,,;,,,;,>,,;;'-;,,%;;,>)))))))))'.%     ",
"      %.)))))))';;,-')-%,,,,,,,;;%;,;;%;,;;;;%%%;;;%;-'--->->'))))))))))>.-     ",
"       .'))))))';,;,'>;;,,%;,,;;'>%;;>-;;;->')>-->''>)))))))))))))))))))%.-     ",
"       .-))))))-;,,;,,,;,;>%;;;')'>%->)>'))))))))))))))))))))))))))))))'..>     ",
"       %.=*****=%,,,,,;>&*==$****=***=***=***=***=*********************%.-      ",
"        ..@@@@@#=%;$;&&&#+##&##+@@@##@###+#+@+@@@@@+#+#@@@@@@@@@@@@@@@#.%-      ",
"        %.+@@@@@#*&&##@#@*>'))''*@*)'''''''>#@@@@@#>'''>#@@@@@@@@@@@@#..->      ",
"         ..+@@@@@@@@@@@@*')))')))&=))))))))'*@@@@+>))))'*@@@@@@@@@@@#..%->      ",
"         >.+#@@@@@@@@@@@=)))>-'))'*''''))))'#@@@@=))))))*#@@@@@@@@@#+.%--       ",
"          -..+@@@@@@@@@+=)))>%'))'&##+=))))=#@@+*')')))'*+@@@@@@@@@...--        ",
"           -..+#@@@@@@@@*)))))))))=#@#')))>*@@@*')'>')))&#@#@@@@@#..%--'        ",
"            -...#@@@@@@@@&'''')))'=@@=)))'=@@@@=)))>))))'*@@@@@@#..%--'         ",
"             >%..#@@@@@@*'')>-'))'&@#))))'&@@*#>)))))))))>@@@*#+.%%>-'          ",
"              >%..++@@@@*')))')))=#@>)))'&@@>''=>>>>)))'>=#@#+..%---'           ",
"               '-%..+@@@@=')))))>*@*')')>&@@=))=###&>)')=*@+...----             ",
"                '--...++##**===&#@@@***&*@@@#*=#@@@@#*=&$...%%--->              ",
"                  >>--...++$#&##@@@@@#@@@@@@@#@@@@@#+$...%%-->->                ",
"                    '--%%.....++@+#@#@@@@@@@@@@@#.+.....-%--->                  ",
"                      >>--%-%......+.+.++#@@@@@#...%%-->---'                    ",
"                         >>----%%%%.%.%..+@@@@#..%------>'                      ",
"                            ''>>->------.+@@@@+.%>->>'                          ",
"                                 >>>>->>%.@@@@+.--                              ",
"                                        >.+#@#.%-                               ",
"                                         ..+@@+.>                               ",
"                                         '.+@*+.-                               ",
"                                          -.+@#.-                               ",
"                                           -.+++.                               ",
"                                           '-....%                              ",
"                                            '-%...-                             ",
"                                             '-%%..-                            ",
"                                               '--.>                            ",
"                                                '>--                            ",
"                                                                                ",
"                                                                                ",
"                                                                                ",
"                                                                                ",
"                                                                                ",
"                                                                                ",
"                                                                                ",
"                                                                                ",
"                                                                                ",
"                                                                                ",
"                                                                                ",
"                                                                                ",
"                                                                                "};
