/* XPM */
static char * Seasons_xpm[] = {
"80 80 9 1",
" 	c None",
".	c #512714",
"+	c #804521",
"@	c #83623D",
"#	c #6E8E38",
"$	c #AE7737",
"%	c #998269",
"&	c #82AA54",
"*	c #B89972",
"                                                                                ",
"                                                                                ",
"                                                                                ",
"                                                                                ",
"                                                                                ",
"                                                                                ",
"                                                                                ",
"                                                                                ",
"                                                                                ",
"                                                                                ",
"                                                                                ",
"                                                                                ",
"                                                                                ",
"                                                                                ",
"                                                                                ",
"                                                                                ",
"                                                                                ",
"                                                                                ",
"                                                                                ",
"                                                                                ",
"                                                                                ",
"                                                                                ",
"        @@@                            #@.                              #$@     ",
"      +...@&                         @....@                           @++++@    ",
"     ....++%                        +......                          @++++++    ",
"    +....++@                       #..+....                         $+++++++&   ",
"    .+.+.+@@                       ++.+....#                        ++++$++@&   ",
"   @..+.@%&    &####       @@@     ++++@%&       ###      #    &&   +$+$+$*     ",
"   ....+*     &+$+++@     #...    &.+@.#        %@++#   #..@  @++@ *++++*       ",
"   ....#      #+++++@     #+..%   #++@@        &@@@+.&  #.++  #++@ *$++$&       ",
"   @...@       +@+@@@     $+.+@   #.@@@        %%@@@.@  #+.+& $++% &+++$        ",
"   #...+       ++@&&      @.+.@    +@@%        %%@@+++   .+.# &$+$  ++++*       ",
"   #....#      ++@        +.+.@    @@%%%      &%%%@@+.&  .++@ $$+%  ++$+$       ",
"    .....      ++@        ++.++    #%%%%      %**%%@++#  +.+@ *$$&  @++$$&      ",
"    #....@     ++$&       .+.+.     %%%%%     **** *++@  ++++**$$&  &++$+$      ",
"     ....+&    +$+$$@     +.+..&     %%%%&    ***&  ++@  ++++**$$&   $+$++$     ",
"      ...+@    +++@@+&   #.++..      &*%%%    ***   ++@  ++++%*$$&    +$+++     ",
"      @..++   $+$+$+$$   #.+@..#      **%%%   ***   +++  ++++@**$     #++$+$    ",
"       ...+@  +$++@@@%   @.+@..#       *%%%   ***   @+@  ++@+@$*$&     +++++    ",
"       #..++   ++$%      ...%...       *%*%&  ***   @+@ &++%++@@+&     &++++*   ",
"       #.+.+   ++@       ..##..@       *%***  ***   $+# &++%#@+++&      $+++@   ",
"        +.+.&  .+@       ..# ...       *****  ***   @+# &++**@++.&      +++.+   ",
"        ++.+#  ++@       ..  ...       *****  ***  &$+# #++& #++.&      +++.+   ",
"       @.++.#  .++      #..  ...       *****  ***  *$$# #++& #++.&     #++..+   ",
"      #...++&  .+@      @..  ...&     ******  *$$  $$$$ #++& &+..&     ++...%   ",
"    #....+++&  .++&     @..# ...#    *******  $$$$*$$@& @.+&  +..#  ##.....+%   ",
"   #.......@   .+++@@#  +.......@  %*******&  *$$$$$$%  @.+&  +..#  .......+&   ",
"    ......+&  #++++++$  +.......@  %*******    $$$$$$%  @++$  +..#  +......@    ",
"    ......@   @.+@+++% #...@@...+  &%**$**&    $+$$$%&  +..%  @..#  +.....@&    ",
"    .....@    #++@+@@& &+.@   ..@  &%%$%*%      $$@$%   #@+%   @@&  @.....&     ",
"    ....%       &  &     &&        &%%%%         &%&                @...%       ",
"      &                              *                                #         ",
"                                                                                ",
"                                                                                ",
"                                                                                ",
"                                                                                ",
"                                                                                ",
"                                                                                ",
"                                                                                ",
"                                                                                ",
"                                                                                ",
"                                                                                ",
"                                                                                ",
"                                                                                ",
"                                                                                ",
"                                                                                ",
"                                                                                ",
"                                                                                ",
"                                                                                ",
"                                                                                ",
"                                                                                ",
"                                                                                ",
"                                                                                ",
"                                                                                ",
"                                                                                ",
"                                                                                ",
"                                                                                ",
"                                                                                ",
"                                                                                ",
"                                                                                "};
