/* XPM */
static char * Skyrock_xpm[] = {
"80 80 8 1",
" 	c #141214",
".	c #CC0E34",
"+	c #34728C",
"@	c #C4566C",
"#	c #B48E94",
"$	c #2CFA04",
"%	c #ECBAC4",
"&	c #FCF2F4",
"$$$$$$$$$$$$$$$$$$$$$$$$$$$$$$$$$$$$$$$$$$$$$$$$$$$$$$$$$$$$$$$$$$$$$$$$$$$$$$$$",
"$$$$$$$$$$$$$$$$$$$$$$$$$$$$$$$$$$$$$$$$$$$$$$$$$$$$$$$$$$$$$$$$$$$$$$$$$$$$$$$$",
"$$$$$$$$$$$$$$$$$$$$$$$$$$$$$$$$$$$$$$$$$$$$$$$$$$$$$$$$$$$$$$$$$$$$$$$$$$$$$$$$",
"$$$$$$$$$$$$$$$$$$$$$$$$$$$$$$$$$$$$$$$$$$$$$$$$$$$$$$$$$$$$$$$$$$$$$$$$$$$$$$$$",
"$$$$$$$$$$$$$$$$$$$$$$$$$$$$$$$$$$$$$$$$$$$$$$$$$$$$$$$$$$$$$$$$$$$$$$$$$$$$$$$$",
"$$$$$$$$$$$$$$$$$$$$$$$$$$$$$$$$$$$$$$$$$$$$$$$$$$$$$$$$$$$$$$$$$$$$$$$$$$$$$$$$",
"$$$$$$$$$$$$$$$$$$$$$$$$$$$$$$$$$$$$$$$$$$$$$$$$$$$$$$$$$$$$$$$$$$$$$$$$$$$$$$$$",
"$$$$$$$$$$$$$$$$$$$$$$$$$$$$$$$$$$$$$$$$$$$$$$$$$$$$$$$$$$$$$$$$$$$$$$$$$$$$$$$$",
"$$$$$$$$$$$$$$$$$$$$$$$$$$$$$$$$$$$$$$$$$$$$$$$$$$$$$$$$$$$$$$$$$$$$$$$$$$$$$$$$",
"$$$$$$$$$$$$$$$$$$$$$$$$$$$$$$$$$$$$$$$$$$$$$$$$$$$$$$$$$$$$$$$$$$$$$$$$$$$$$$$$",
"$$$$$$$$$$$$$$$$$$$$$$$$$$$$$$$$$$$$$$$$$$$$$$$$$$$$$$$$$$$$$$$$$$$$$$$$$$$$$$$$",
"$$$$$$$$$$$$$$$$$$$$$$$$$$$$$$$$$$$$$$$$$$$$$$$$$$$$$$$$$$$$$$$$$$$$$$$$$$$$$$$$",
"$$$$$$$$$$$$$$$$$$$$$$$$$$$$$$$$$$$$$$$$$$$$$$$$$$$$$$$$$$$$$$$$$$$$$$$$$$$$$$$$",
"$$$$$$$$$$$$$$$$$$$$$$$$$$$$$$$$$$$$$$$$$$$$$$$$$$$$$$$$$$$$$$$$$$$$$$$$$$$$$$$$",
"$$$$$$$$$$$$$$$$$$$$$$$$$$$$$$$$$$$$$$$$$$$$$$$$$$$$$$$$$$$$$$$$$$$$$$$$$$$$$$$$",
"$$$$$$$$$$$$$$$$$$$$$$$$$$$$$$$$$$$$$$$$$$$$$$$$$$$$$$$$$$$$$$$$$$$$$$$$$$$$$$$$",
"$$$$$$$$$$$$$$$$$$$$$$$$$$$$$$$$$$$$$$$$$$$$$$$$$$$$$$$$$$$$$$$$$$$$$$$$$$$$$$$$",
"$$$$$$$$$$$$$$$$$$$$$$$$$$$$$$$$$$$$$$$$$$$$$$$$$$$$$$$$$$$$$$$$$$$$$$$$$$$$$$$$",
"$$$$$$$$$$$$$$$$$$$$$$$$$$$$$$$$$$$$$$$$$$$$$$$$$$$$$$$$$$$$$$$$$$$$$$$$$$$$$$$$",
"$$$$$$$$$$$$$$$$$$$$$$$$$$$$$$$$$$$$$$$$$$$$$$$$$$$$$$$$$$$$$$$$$$$$$$$$$$$$$$$$",
"$$$$$$$$$$$$$$$$$$$$$$$$$$$$$$$$$$$$$$$$$$$$$$$$$$$$$$$$$$$$$$$$$$$$$$$$$$$$$$$$",
"$$$$$$$$$$$$$$$$$$$$$$$$$$$$$$$$$$$$$$$$$$$$$$$$$$$$$$$$$$$$$$$$$$$$$$$$$$$$$$$$",
"$$$$$$$$$$$$$$$$$$$$$$$$$$$$$$$$$$$$$$$$$$$$$$$$$$$$$+$$$$$$$$$$$$$$$$$$$$$$$$$$",
"$$$$$$$$$$$$$$$$$$$$$$$$$$$$$$$$$$$$$$$$$$$$$$$$$$$$++$#$+$$$$$$$$$$$$$$$$$$$$$$",
"$$$$$$$$$$$$$$$$$$$$$$$$$$$$$$$$$$$$$$$$$$$$$$$$$$$++++++$$$$$$$$$$$$$$$$$$$$$$$",
"$$$$$$$$$$$$$$$$$$$$$$$$$$$$$$$$$$$$$$$$$$$$$$$+++++++++%$$$$$$$$$$$$$$$$$$$$$$$",
"$$$$#@@@@@@@@@@@@@@@@@@@@@@@@@@@@@@@@@@@#$#@###@++++++++@@@@@@@@@@@@@@@@@@@%$$$$",
"$$$$@............................................++++++....................#$$$$",
"$$$$@.............................................+++++...................@$$$$$",
"$$$$#.....@%&%@...@@@..@@@@@@..@@@.#@@#@@@...@%&&#+++++%&%#...@@@..@@@....$$$$$$",
"$$$$@....@&&&&&#.@&&#.@&&##&&@@&&##&&&&&&%..@&&&&#+++++&&&&#..&&%..%&&....$$$$$$",
"$$$$@....%&%@%&%.@&&%.#&&@+&&@+%&#+&&##%&&..%&%+###@ @++##&&@.&&%.+&&#...@$$$$$$",
"$$$$@...@&&#.#&&@@&&# %&%.@%&@@&%@#&&@.%&&..&&%.##&@@%#+.@&&@.&&%@#&&...@#$$$$$$",
"$$$$@...@%&#.#&&@@&&#@&&@..%&##&%.+&&# %&%.@%&%.#&&@ %&%.@&&@.%&%@%&#...@$$$$$$$",
"$$$$@...@&&#..@@..&&#%&&...%&##&%.#&&#.%&&..&&% @&&#.%&%.@&&@ &&%#&&@...$$$$$$$$",
"$$$$@....&&&.....@&&&&&#...@&%#&#.#&&@ %&&.@%&%.#&&@ %&&..@...&&&&&%....$$$$$$$$",
"$$$$@....#&&%....@&&&&&@...@&&%&@ #&&#.%&& @%&%.#&&#@%&%......&&&&&#...#$$$$$$$$",
"$$$$@.....%&&#...@&&&&%.....&&&&@.#&&#+%&%..&&%.#&&@ %&%......&&&&&@...$$$$$$$$$",
"$$$$@.....@&&&@..@&&&&#.....%&&%..#&&&&&&+..%&% @&&#.%&%......%&&&%...@$$$$$$$$$",
"$$$$@......@&&%@.@&&&&&.....%&&%..#&&%#%&%..&&%.#&&@ %&%......&&&&&@..@$$$$$$$$$",
"$$$$@.......#&&#.@&&&&&@....#&&#..#&&# %&&..&&% #&&@@%&%......&&&&&#...$$$$$$$$$",
"$$$$@........%&&@.&&%&&#....#&&#..#&&@.%&&.@%&%.#&&@ %&&.@#%..&&%&&%...@$$$$$$$$",
"$$$$@........#&&.@&&##&%....#&&#..#&&+.%&&..&&%.#&&@@%&%.@&&@@%&%#&&@..@$$$$$$$$",
"$$$$@...@%&#.%&&@@&&##&&@...@&&@..#&&# %&%..&&% #&&@ %&%.@&&@.%&%+&&#...%$$$$$$$",
"$$$$@...@&&#.#&& @&&#.&&#...#&&#..#&&@.%&&..%&%.@&&#@%&%.@&&@ &&%.%&%...@$$$$$$$",
"$$$$@...@%&# %&&.@&&#.%&%...#&&#..#&&# %&&..&&% #&&@ %&% @&&@@%&%@#&&@..@$$$$$$$",
"$$$$@....%&%%%&#.@&&#.#&&@..#&&@..#&&#.%&&..#&&%%&%@.#&&%%&&@.&&% @%&#...%$$$$$$",
"$$$$@....@&&&&%@.@&&%.@%&#..@&&#..#&&# %&&..@%&&&&@...%&&&&#..&&%@.%&%...@$$$$$$",
"$$$$@......#%#....@@@ .@@@..@@@...@@@...@@....@%@@.....#%#@...@@@..@@@....$$$$$$",
"$$$$@.....................................................................$$$$$$",
"$$$$@.....................................................................@$$$$$",
"$$$$%....@..........@.......@.........................@......@.....@.....@@$$$$$",
"$$$$##%#%##%%#%%#%%###%#%#%###%#%#%#%#%#%#%#%#%%#%#%%###%#%#%##%#%##%#%%##%#$$$$",
"$$$$                                                             +          +$$$",
"$$$$        +%  %  #  %# +  #  %     #  @+ #+    +  #     %  #+ +#           $$$",
"$$$$        +# +%  #  %% +  % +%     ++ #+ ##    @  #+    &  ## +#           $$$",
"$$$$            +  +        +  +     @  +        +  +     +                  +$$",
"$$$$+$$+$$+$$#$$+$$#$$$$#$$#$$+$$#$$+$$#$$$#$$$+$$$#$$$+$$+$$$#$$#$$+$$+$$+$$#$$",
"$$$$$$$$$$$$$$$$$$$$$$$$$$$$$$$$$$$$$$$$$$$$$$$$$$$$$$$$$$$$$$$$$$$$$$$$$$$$$$$$",
"$$$$$$$$$$$$$$$$$$$$$$$$$$$$$$$$$$$$$$$$$$$$$$$$$$$$$$$$$$$$$$$$$$$$$$$$$$$$$$$$",
"$$$$$$$$$$$$$$$$$$$$$$$$$$$$$$$$$$$$$$$$$$$$$$$$$$$$$$$$$$$$$$$$$$$$$$$$$$$$$$$$",
"$$$$$$$$$$$$$$$$$$$$$$$$$$$$$$$$$$$$$$$$$$$$$$$$$$$$$$$$$$$$$$$$$$$$$$$$$$$$$$$$",
"$$$$$$$$$$$$$$$$$$$$$$$$$$$$$$$$$$$$$$$$$$$$$$$$$$$$$$$$$$$$$$$$$$$$$$$$$$$$$$$$",
"$$$$$$$$$$$$$$$$$$$$$$$$$$$$$$$$$$$$$$$$$$$$$$$$$$$$$$$$$$$$$$$$$$$$$$$$$$$$$$$$",
"$$$$$$$$$$$$$$$$$$$$$$$$$$$$$$$$$$$$$$$$$$$$$$$$$$$$$$$$$$$$$$$$$$$$$$$$$$$$$$$$",
"$$$$$$$$$$$$$$$$$$$$$$$$$$$$$$$$$$$$$$$$$$$$$$$$$$$$$$$$$$$$$$$$$$$$$$$$$$$$$$$$",
"$$$$$$$$$$$$$$$$$$$$$$$$$$$$$$$$$$$$$$$$$$$$$$$$$$$$$$$$$$$$$$$$$$$$$$$$$$$$$$$$",
"$$$$$$$$$$$$$$$$$$$$$$$$$$$$$$$$$$$$$$$$$$$$$$$$$$$$$$$$$$$$$$$$$$$$$$$$$$$$$$$$",
"$$$$$$$$$$$$$$$$$$$$$$$$$$$$$$$$$$$$$$$$$$$$$$$$$$$$$$$$$$$$$$$$$$$$$$$$$$$$$$$$",
"$$$$$$$$$$$$$$$$$$$$$$$$$$$$$$$$$$$$$$$$$$$$$$$$$$$$$$$$$$$$$$$$$$$$$$$$$$$$$$$$",
"$$$$$$$$$$$$$$$$$$$$$$$$$$$$$$$$$$$$$$$$$$$$$$$$$$$$$$$$$$$$$$$$$$$$$$$$$$$$$$$$",
"$$$$$$$$$$$$$$$$$$$$$$$$$$$$$$$$$$$$$$$$$$$$$$$$$$$$$$$$$$$$$$$$$$$$$$$$$$$$$$$$",
"$$$$$$$$$$$$$$$$$$$$$$$$$$$$$$$$$$$$$$$$$$$$$$$$$$$$$$$$$$$$$$$$$$$$$$$$$$$$$$$$",
"$$$$$$$$$$$$$$$$$$$$$$$$$$$$$$$$$$$$$$$$$$$$$$$$$$$$$$$$$$$$$$$$$$$$$$$$$$$$$$$$",
"$$$$$$$$$$$$$$$$$$$$$$$$$$$$$$$$$$$$$$$$$$$$$$$$$$$$$$$$$$$$$$$$$$$$$$$$$$$$$$$$",
"$$$$$$$$$$$$$$$$$$$$$$$$$$$$$$$$$$$$$$$$$$$$$$$$$$$$$$$$$$$$$$$$$$$$$$$$$$$$$$$$",
"$$$$$$$$$$$$$$$$$$$$$$$$$$$$$$$$$$$$$$$$$$$$$$$$$$$$$$$$$$$$$$$$$$$$$$$$$$$$$$$$",
"$$$$$$$$$$$$$$$$$$$$$$$$$$$$$$$$$$$$$$$$$$$$$$$$$$$$$$$$$$$$$$$$$$$$$$$$$$$$$$$$",
"$$$$$$$$$$$$$$$$$$$$$$$$$$$$$$$$$$$$$$$$$$$$$$$$$$$$$$$$$$$$$$$$$$$$$$$$$$$$$$$$",
"$$$$$$$$$$$$$$$$$$$$$$$$$$$$$$$$$$$$$$$$$$$$$$$$$$$$$$$$$$$$$$$$$$$$$$$$$$$$$$$$"};
