/* XPM */
static char * Spice Platinum_xpm[] = {
"80 80 16 1",
" 	c None",
".	c #0C090A",
"+	c #181516",
"@	c #221F20",
"#	c #2F2D2D",
"$	c #3D3B3C",
"%	c #4F4E4E",
"&	c #646263",
"*	c #818080",
"=	c #9C9B9C",
"-	c #B3B2B3",
";	c #C3C2C3",
">	c #D1D1D1",
",	c #E0DFDF",
"'	c #F1F1F1",
")	c #FEFEFE",
"                                                                                ",
"                                                                                ",
"                                                                                ",
"                                                                                ",
"                                                                                ",
"                                                                                ",
"                                                                                ",
"                                                                                ",
"                                                                                ",
"                                                                                ",
"                                                                                ",
"                                                                                ",
"                                                                                ",
"                                                                                ",
" )))))))))))))))))))))))))))))))))))))))))))))))))))))))))))))))))))))))))))))) ",
" )))))=&%=')))))))))))))))))=&&;))))))))))))))))))>*%*')))))))))))))))))))))))) ",
" )))'%+...$;))))))))))))))>$+.++=))))))>&&;))))))=@.+.$-))))))))))))))),,,))))) ",
" )))=.+$&$.@-)))))))';;))>#..+@@+;)))))=..%)))))*++@++.@-))))))))))))'*$@#&,))) ",
" )))*.+&)'=.+-))))))*++;)$.#*&#++&)))))&+.*))));++@@**%.@;))))))))))>$.++..#,)) ",
" )))*++%'));.@>)))))&++==.$,))=++$'))))&++=))))&.@@;)))*.&)))))))))'#+@+$%+.&)) ",
" )))>+@.&)))-.%)))))-.+%$.;)));++#')))'$++-)))>+@.*))))'%.;)))))))'%+++*''*.@>) ",
" ))))*.@+=)))==)))))>#+@.*))))-@+&'))),$+#>)))=++#>)))))-.&)))))))=+@+*))))%.*) ",
" ))))'$.@.-)))))))))'$++@>)'))=.+*))))>@+$')))&++&)))))))%+,))))),#++&)))))*.$) ",
" )))))>#+@+-)))))))))&++%)))))%++>))))-++&)))'#@+=)))))));*')))))=.@#')))))-.$' ",
" ))))));@++@;))))))))*+.*))))-@.&'))))=.+&)));@+@-)))')))))))')))$+.=))))')-+$' ",
" )))))))-++@@>)))))));@+&))))&.@;)))))*+.=)));+@#,))))))))))))))-++#,))))))=.%) ",
" ))))))))=+++@>))))))'$.$'));+.&))))))*.+-)))-++%'))))))))))))))*.+*)))')))&.*) ",
" )))))))))=+@+$'))))))&+#,)'$.%'))))))&+@,)))-++%)))))))))))))))$+@,)))))),#+>) ",
" ))))))))))=++.%))))))*.+-)&.#,))))))'%.$,)))=+.&))))))))))))))>#.%'))))),%.&)) ",
" )))))))))))*+@+*)))))-+.-=.@>))))))),#+%))))-++&))))))))))))))-++*)))',=$.#>)) ",
" ))))))))))))&+++;))))>@+#+#>))))))));@.*))))-@.&))))))))))))))&.@>>%$$@..%>))) ",
" )))))))))))))%+.&))))'%++$,)))))))));++=))))>@+&))))))))))))))&.%),@+@$%-')))) ",
" ))))))))));->>@+.;))))&.@>))))))))))*.@;))))>#.%')))))))))))))$.%)),>>,))))))) ",
" )))))))),&@.$)=.+&))))-++-))))))))))*.#,))))'$+$'))))))))))))'%.*))))))))))))) ",
" )))))))-@..@@,,#.$,)))>@.=))))))))))&.$')))))&.@;))))))))))))'$.*))))))))))))) ",
" ))))))=++@*@$')%+@>)))'$.&))))))))))&.&))))))=++-))))))))))))'$.=))))))))))))) ",
" '))))=.+.--.*))&.@;))))&.%')))))))))$.*))))))>+.&))))))))))))'$.*))))))))))))) ",
" ))))-+@.='$+,))%+@>))))=.#'))))))))'$.-))))))'$.%')))))))))))'%.*))))))))))))) ",
" )))>@@.&)*.*))>#+$,))))>++-)))))))),@@>)))))))*.+-)))))))';'))%.&))))))))))))) ",
" )))%++#,)@%'))*.+&)))))'$.=))))))));+#'))))))),@+&)))))))*+;))=.%))))))**))))) ",
" ))=.@+*)'>'));+++>))))))%.&))))))))-.%))'))))))&.+;))))))%.;))>@+;))')>.$))))) ",
" )'%++$')))))>#+.=)))))))=.&))))))))*.&)))))))))>#.%')))))$@>)))%.%))))*.=))))) ",
" );+@.*))))'=@+.&')))))))-+#')))))))*.=))))))))))=..&')))>+#')));++*))>+@,))))) ",
" )-+@+*)',=%.++*))))))))),#@;)))))))&.-)))))))))))*..&>)'*.*)))))=..&=@.=)))))) ",
" ))&.+@#$+..+$;))'))))))))&.=))))))'$.>))')))))))))&+.@$$.#,))))))=@..@=))))))) ",
" ))'*$+..#$*;)))))))))))))*.*))))))'##')))))))))))))-%+..%>))))))))'--,)))))))) ",
" ))))'>-;>))))))))))))))))';')))))))>>))))))))))))))))>-;'))))))))))))))))))))) ",
" )))))))))))))))))))))))))))))))))))))))))))))))))))))))))))))))))))))))))))))) ",
" ))))'))))))))))))))))))))))))))))))))))))))))))))))))))))))))))))))))))))))))) ",
" )))))))))))))))))))))))))))))))))))))))))))))))))))))))))))))))))))))))))))))) ",
" ))''))')))))'))))))))))'))))))''''')))))')))))))')))))))))))))'))))))))))))))) ",
" ))*@#;))))))**))))))))=#))))))-@#@;)))))**))))))&=)%,)))))>%)=*))))))%-)-%)))) ",
" ))%%*#,)')))$&))))))))%.>)))'),=.=,)')))$&))))))#%'@;)))))-@)*%))))))$@)##))') ",
" ))&*)+;)))))%&)))))))'$.-)))))),@,))))))%&))))))%.,#>)))));#)*&))))))%.&.$)))) ",
" ))%%*@,)))))%&)))))))>#%*))))))>+,))))))%&))))))$.*$;)))))-#)*%))))))%$.$$)))) ",
" ))&.&>))))))%&)))))))=&-&))))))>+>))))))&&))))))%%$@>)))));#)*&))))))$=*=$)))) ",
" ')%&))))')))%&)))))))*@%$)))'))>+,))))))%&))))))$=@.>)))))-#)*%))))))$*)*#)))) ",
" ))&&))))))))%&)))))))&#$@,)))))>+>))))))%&))))))$=*.>)))));@)*&))))))#=)=#)))) ",
" ))$&))))))))%+%*))))'#-)+=)))))>.>))))))$&))))))@=>.;))))),#$@=))))))#*)*#)))) ",
" ))--))))))));**=)))))=')-;)))))'='))))))--))))))->)='))))))>*=)))))))=>)>=)))) ",
" )))))))))))))))))))))))))))))))))))))))))))))))))))))))))))))))))))))))))))))) ",
"                                                                                ",
"                                                                                ",
"                                                                                ",
"                                                                                ",
"                                                                                ",
"                                                                                ",
"                                                                                ",
"                                                                                ",
"                                                                                ",
"                                                                                ",
"                                                                                ",
"                                                                                ",
"                                                                                ",
"                                                                                ",
"                                                                                ",
"                                                                                ",
"                                                                                ",
"                                                                                ",
"                                                                                "};
