/* XPM */
static char * Sport+_xpm[] = {
"80 80 14 1",
" 	c None",
".	c #000000",
"+	c #000001",
"@	c #010101",
"#	c #191C1D",
"$	c #383B3C",
"%	c #06647B",
"&	c #088AAB",
"*	c #696969",
"=	c #07AED9",
"-	c #959595",
";	c #C7C7C7",
">	c #E9E9E9",
",	c #FFFFFF",
"                                                                                ",
"                                                                                ",
"                                                                                ",
"                                                                                ",
"                                                                                ",
"                                                                                ",
"                                                                                ",
"                                                                                ",
"                                                                                ",
"                                                                                ",
"                                                                                ",
"                                                                                ",
"                                                                                ",
"                                                                                ",
"                                                                                ",
"                                                                                ",
"                                                                                ",
"                                                                                ",
"                                                                                ",
"                                                                                ",
"                                                                                ",
"                                                                                ",
"                                                                                ",
"                                                                                ",
"                                                                                ",
"                                                                                ",
"   ++++++++++++++++++++++++++++++++++++++++++++++++++++++++++++++++++++++++++   ",
"   +.++++++++...++++++++++++++++++++++++++++++++++++++++++++++++++++++++....+   ",
"   ++@@@@@........@@@@@@@@@@@@@@@@@@@@@@@@@@@@@@@@@@@@@@@@@@@@@@@@@@@@@@....+   ",
"   ++......#$***$@..@@@@@@@.@@@.@@....@@.@.@@@..@@@@.....@@++@@@.++@@@.@@@@@@   ",
"   +.@@@.#->,,,,>;*@.@@@@@@@@@@..@@.@@@@.@@@@..@@@@@@$$$#.@@@@@@####@@@@@@@@+   ",
"   +..@.#;,,,,,,,,,;$.@@@@.@@@@@@.@.@@..@..@@@@..@@.#>,,*.@@@@@@%==&@@@@@@@@@   ",
"   ++@@.-,,,,-;;,,,,-..........@@@.........@@....@..#>,,*.@@@@@.%==&#@@@@@@@+   ",
"   +...#;,,>$..#*;,-##$$#@***$..@@..#$***#...#$$$.@#$>,,-$#@@@@@%==&#+@@@@@@.   ",
"   ++@.#>,,;@....$*..-,,;;,,,>-@..@*>,,,,>-#.$>,>*;>*;,,,,*+@@@@%==&@.@@@@+@+   ",
"   +.@.#>,,,;*$$#....-,,,,>>,,,-.@-,,,,>,,,;@$,,,,,,*;,,,,*.@@@@%===@@@@@@@@+   ",
"   ++@.@-,,,,,,>;-*@.-,,,;$#-,,>$$,,,-$$-,,,-$,,,,>;*>,,;*$%&%%%&==&&%%%%$@@.   ",
"   ++...#;,,,,,,,,,-#-,,>#..#;,,*-,,;@...-,,;*>,,-$@#;,,*.#==============%+@@   ",
"   +@@@@.#*;>>,,,,,,*-,,;@.@.-,,-;,,*..@.$,,>*>,,$..#>,,*.#==============%@@+   ",
"   +.@@@@..@#$**;,,,;-,,;.@@.-,,;;,,*..@.$,,>->,,#..#>,,*.#%&&&&&===&&&&&$+@@   ",
"   ++@...##.....@;,,>-,,;..@.-,,-;,,*.@@.$,,>->,,$..#>,,*.@@@@@@%==&@@@@@@@@.   ",
"   +@@.@*>;$@...$;,,;-,,>#..#>,,*-,,;@...-,,;*>,,$..#>,,*..@@@@.%==&#.@@@@@@@   ",
"   ++@@-,,,,;-*->,,,*-,,,-##-,,>#*,,,-$#*>,,-$,,>$..#>,,-$#@@@@@%==&@@@@@@@@+   ",
"   +..@$;,,,,,,,,,,;#-,,,,>>,,,-.@-,,,>,,,,;#$,,,$..@;,,,,*.@@@@%===#+@@@@@@@   ",
"   +@@@.#->,,,,,,,-#.-,,>;,,,,-#@.@->,,,,>;#.$>,>$...*>,,,*.@@@@%==&@@@@@@@@+   ",
"   ++@@@..#*----*$...-,,;#*-*$@..@..#*-**$..@#$$$#.@@.$*-*$@@@@@#$##@@@@@@@@@   ",
"   ++@@@@@.........@.-,,;......@.@@@......@@......@@@@.....@@@@@+...@+@@@@@@+   ",
"   +.@@@@@@....@@@@@.-,,;@...@@@@.@@@@..@@@@.@@.@@@@@@@.@@@@@@@@@@@@@@@@@@@@@   ",
"   +..@@@.....@....@.->>;@.@@.@....@@@.@@..@.....@@@....@@@@@@@@@@@@@@@@@@+++   ",
"   +................@@##@@@@@............................................@..+   ",
"   +...............@@....@@@@............................................@..+   ",
"   +.................++.@++@++..............................................+   ",
"   ++++++++++++++++@@@@@@@@@@++++++++++++++++++++++++++++++++++++++++++++++++   ",
"                                                                                ",
"                                                                                ",
"                                                                                ",
"                                                                                ",
"                                                                                ",
"                                                                                ",
"                                                                                ",
"                                                                                ",
"                                                                                ",
"                                                                                ",
"                                                                                ",
"                                                                                ",
"                                                                                ",
"                                                                                ",
"                                                                                ",
"                                                                                ",
"                                                                                ",
"                                                                                ",
"                                                                                ",
"                                                                                ",
"                                                                                ",
"                                                                                ",
"                                                                                ",
"                                                                                ",
"                                                                                ",
"                                                                                ",
"                                                                                "};
