/* XPM */
static char * SR1_xpm[] = {
"80 80 3 1",
" 	c None",
".	c #000000",
"+	c #F70D0D",
"                                                                                ",
"                                                                                ",
"                                                                                ",
"                                                                                ",
"                                                                                ",
"                                                                                ",
"                                                                                ",
"                                                                                ",
"                                                                                ",
"                                                                                ",
"                                                                                ",
"                                                                                ",
"                                                                                ",
"                                                                                ",
"                                                                                ",
"                                                                                ",
"                                                                                ",
"                                                                                ",
"                                                                                ",
"                                                                                ",
"                                                                                ",
"                                                                                ",
"                                                                                ",
"                                                                                ",
"           .........                                                            ",
"        ................      ................                    ......        ",
"      ...................     ..................                 .......        ",
"     ....................     ...................                .......        ",
"    .....................     ....................             .........        ",
"    ........       ......     .....................        .............        ",
"   .......            ...     .......      ........        .............        ",
"   .......              .     .......       .......        .............        ",
"   .......                    .......       .......        .............        ",
"   .........                  .......       .......              .......        ",
"   ..............             .......       .......              .......        ",
"    .................         .......     ........               .......        ",
"    ...................       ....................               .......        ",
"     ...................      ...................                .......        ",
"       ..................     ..................                 .......        ",
"         ................     ................                   .......        ",
"             .............    .................                  .......        ",
"                 .........    .......  .........                 .......        ",
"                   .......    .......   .........                .......        ",
"   ..              .......    .......    ........                .......        ",
"   ....            .......    .......     ........               .......        ",
"   .......       ........     .......     .........              .......        ",
"   ......................     .......      .........       ...................  ",
"   .....................      .......       ........       ...................  ",
"   ....................       .......       .........      ...................  ",
"    .................         .......        .........     ...................  ",
"        ..........            .......         .........    ...................  ",
"                                                                                ",
"                                                                                ",
"                                                                                ",
"   +++++++++++++++++++++++++++++++++++++++++++++++++++++++++++++++++++++++++++  ",
"   +++++++++++++++++++++++++++++++++++++++++++++++++++++++++++++++++++++++++++  ",
"   +++++++++++++++++++++++++++++++++++++++++++++++++++++++++++++++++++++++++++  ",
"   +++++++++++++++++++++++++++++++++++++++++++++++++++++++++++++++++++++++++++  ",
"   +++++++++++++++++++++++++++++++++++++++++++++++++++++++++++++++++++++++++++  ",
"   +++++++++++++++++++++++++++++++++++++++++++++++++++++++++++++++++++++++++++  ",
"   +++++++++++++++++++++++++++++++++++++++++++++++++++++++++++++++++++++++++++  ",
"                                                                                ",
"                                                                                ",
"                                                                                ",
"                                                                                ",
"                                                                                ",
"                                                                                ",
"                                                                                ",
"                                                                                ",
"                                                                                ",
"                                                                                ",
"                                                                                ",
"                                                                                ",
"                                                                                ",
"                                                                                ",
"                                                                                ",
"                                                                                ",
"                                                                                ",
"                                                                                ",
"                                                                                "};
