/* XPM */
static char * SR2_xpm[] = {
"80 80 3 1",
" 	c None",
".	c #000000",
"+	c #FFFF00",
"                                                                                ",
"                                                                                ",
"                                                                                ",
"                                                                                ",
"                                                                                ",
"                                                                                ",
"                                                                                ",
"                                                                                ",
"                                                                                ",
"                                                                                ",
"                                                                                ",
"                                                                                ",
"                                                                                ",
"                                                                                ",
"                                                                                ",
"                                                                                ",
"                                                                                ",
"                                                                                ",
"                                                                                ",
"                                                                                ",
"                                                                                ",
"                                                                                ",
"                                                                                ",
"                                                                                ",
"           .........                                            .........       ",
"        ................      ................              ................    ",
"      ...................     ..................            .................   ",
"     ....................     ...................           ..................  ",
"    .....................     ....................          ..................  ",
"    ........       ......     .....................         ....      ......... ",
"   .......            ...     .......      ........         ..         ........ ",
"   .......              .     .......       .......                     ....... ",
"   .......                    .......       .......                     ....... ",
"   .........                  .......       .......                     ....... ",
"   ..............             .......       .......                     ....... ",
"    .................         .......     ........                     .......  ",
"    ...................       ....................                     .......  ",
"     ...................      ...................                     .......   ",
"       ..................     ..................                     ........   ",
"         ................     ................                      ........    ",
"             .............    .................                    ........     ",
"                 .........    .......  .........                  ........      ",
"                   .......    .......   .........                ........       ",
"   ..              .......    .......    ........              ........         ",
"   ....            .......    .......     ........            ........          ",
"   .......       ........     .......     .........          ........           ",
"   ......................     .......      .........       .................... ",
"   .....................      .......       ........       .................... ",
"   ....................       .......       .........      .................... ",
"    .................         .......        .........     .................... ",
"        ..........            .......         .........    .................... ",
"                                                                                ",
"                                                                                ",
"                                                                                ",
"   ++++++++++++++++++++++++++++++++++++++++++++++++++++++++++++++++++++++++++++ ",
"   ++++++++++++++++++++++++++++++++++++++++++++++++++++++++++++++++++++++++++++ ",
"   ++++++++++++++++++++++++++++++++++++++++++++++++++++++++++++++++++++++++++++ ",
"   ++++++++++++++++++++++++++++++++++++++++++++++++++++++++++++++++++++++++++++ ",
"   ++++++++++++++++++++++++++++++++++++++++++++++++++++++++++++++++++++++++++++ ",
"   ++++++++++++++++++++++++++++++++++++++++++++++++++++++++++++++++++++++++++++ ",
"   ++++++++++++++++++++++++++++++++++++++++++++++++++++++++++++++++++++++++++++ ",
"                                                                                ",
"                                                                                ",
"                                                                                ",
"                                                                                ",
"                                                                                ",
"                                                                                ",
"                                                                                ",
"                                                                                ",
"                                                                                ",
"                                                                                ",
"                                                                                ",
"                                                                                ",
"                                                                                ",
"                                                                                ",
"                                                                                ",
"                                                                                ",
"                                                                                ",
"                                                                                ",
"                                                                                "};
