/* XPM */
static char * SR3_xpm[] = {
"80 80 3 1",
" 	c None",
".	c #000000",
"+	c #00FF00",
"                                                                                ",
"                                                                                ",
"                                                                                ",
"                                                                                ",
"                                                                                ",
"                                                                                ",
"                                                                                ",
"                                                                                ",
"                                                                                ",
"                                                                                ",
"                                                                                ",
"                                                                                ",
"                                                                                ",
"                                                                                ",
"                                                                                ",
"                                                                                ",
"                                                                                ",
"                                                                                ",
"                                                                                ",
"                                                                                ",
"                                                                                ",
"                                                                                ",
"                                                                                ",
"                                                                                ",
"           .........                                         ..........         ",
"        ................      ................            ................      ",
"      ...................     ..................          .................     ",
"     ....................     ...................         ..................    ",
"    .....................     ....................        ...................   ",
"    ........       ......     .....................       ....      .........   ",
"   .......            ...     .......      ........       .           .......   ",
"   .......              .     .......       .......                   .......   ",
"   .......                    .......       .......                   .......   ",
"   .........                  .......       .......                   ......    ",
"   ..............             .......       .......                 ........    ",
"    .................         .......     ........             ............     ",
"    ...................       ....................             ...........      ",
"     ...................      ...................              ..........       ",
"       ..................     ..................               .............    ",
"         ................     ................                 ..............   ",
"             .............    .................                       .......   ",
"                 .........    .......  .........                       .......  ",
"                   .......    .......   .........                      .......  ",
"   ..              .......    .......    ........                      .......  ",
"   ....            .......    .......     ........                    ........  ",
"   .......       ........     .......     .........       ...        .........  ",
"   ......................     .......      .........      ...................   ",
"   .....................      .......       ........      ..................    ",
"   ....................       .......       .........     .................     ",
"    .................         .......        .........    ................      ",
"        ..........            .......         .........     ...........         ",
"                                                                                ",
"                                                                                ",
"                                                                                ",
"   +++++++++++++++++++++++++++++++++++++++++++++++++++++++++++++++++++++++++++  ",
"   +++++++++++++++++++++++++++++++++++++++++++++++++++++++++++++++++++++++++++  ",
"   +++++++++++++++++++++++++++++++++++++++++++++++++++++++++++++++++++++++++++  ",
"   +++++++++++++++++++++++++++++++++++++++++++++++++++++++++++++++++++++++++++  ",
"   +++++++++++++++++++++++++++++++++++++++++++++++++++++++++++++++++++++++++++  ",
"   +++++++++++++++++++++++++++++++++++++++++++++++++++++++++++++++++++++++++++  ",
"   +++++++++++++++++++++++++++++++++++++++++++++++++++++++++++++++++++++++++++  ",
"                                                                                ",
"                                                                                ",
"                                                                                ",
"                                                                                ",
"                                                                                ",
"                                                                                ",
"                                                                                ",
"                                                                                ",
"                                                                                ",
"                                                                                ",
"                                                                                ",
"                                                                                ",
"                                                                                ",
"                                                                                ",
"                                                                                ",
"                                                                                ",
"                                                                                ",
"                                                                                ",
"                                                                                "};
