/* XPM */
static char * Sud Radio_xpm[] = {
"80 80 16 1",
" 	c None",
".	c #C80A0A",
"+	c #E40102",
"@	c #FC0102",
"#	c #E01A1C",
"$	c #D42E30",
"%	c #C04443",
"&	c #DF4747",
"*	c #B96869",
"=	c #DD5D5C",
"-	c #E37070",
";	c #E48B8B",
">	c #EDA4A2",
",	c #EFBDBE",
"'	c #FBE0DD",
")	c #FDFDFD",
"                                                                                ",
"                                                                                ",
"                                                                                ",
"                                                                                ",
"                                                                                ",
"                                                                                ",
"                                                                                ",
"                                                                                ",
"                                                                                ",
"                                                                                ",
"      @@@@@@@@@@@@@@@@@@@@@@@@@@@@@@@@@+@+@+@@@@@@@@@@@@@@@@@@@@@@@@@@@@@@      ",
"      @@@@@@@@@@@@@@@@@@@@@@@@@@@@@@@@@@@@@@@@@@@@@@@@@@@@@@@@@@@@@@@@@@@@      ",
"      @@@@@@@@@@@@@@@@@@@@@@@@@@@@@@@@@@@@@@@@@@@+@@@@@@@@@@++#&-=&.@@@@@@      ",
"      @@@@@@@@@@@@@@@@@@@@@@@@@@@@@@@@@@@@@@@@@@@@@@@@@@@@+#&>,))))>.@@#@@      ",
"      @@@@@@@@@@@@@@@@@@@@@@@@@@@@@@@@@+@@@+@@@+@@@@@@@++#;,))))))))=+@@@@      ",
"      @@@@@@@@@@@@@@@@@@@@@@@@@@@@@@@@@@@@@#@#@@@#@@@+#=.;)))))))))),#@@@@      ",
"      @@@@@@@@@@@@@@@@@@@@@@@@@@@@@@@@@@@@@@@@@@@+@@#;,'%*)))';%;'))'.@@@@      ",
"      @@@@@@@@@@@@@@@@@@@@@@@@@@@@@@@@@@@@@@@@+@@@@+=)))*,))'=.+.,)))=+@@@      ",
"      @@@@@@@@@@@@@@@@@@@@@@@@@@@@@@@@@@@@@@+.&=+@@+=)))*>))'.@@+;)))-+@@@      ",
"      @@@@@@@@@@@@@@@@@@@@@@@@@@@@@@@@@@@@@+-')'.@@@=)))*,))'$@@+-)));+@@@      ",
"      @@@@@@@+@@@@@@@@@@@+@@@@@@@+@@@+++#+@.,)),.@@+=)))*>))'.+@@%)))-+@@@      ",
"      @@@@@@@@@@@@@@@@@@@@@@@@@#@@@+#=>'';#+>))'.@@@=)))*,))'$+@@&'))-+#@@      ",
"      @@@@@@@@@+@@@@@@@@@@@@@@@+@@+=')))))>.,)),.@@+=)))*>))'$+@+=))'.@+@@      ",
"      @@@@@@@@@@@@@@@@@@@@@@@#@@+$>))))))))%>))'.@@@*)))*,))'$@@+>)),#@@@@      ",
"      @@@@@@@@@@@@@@@+@@#+@@@+@@+;))),>,)),$,)),.@@+=)))*>))'#@+&'))-.@@@@      ",
"      @@@@@@@@@@@@@@@@+#;#@@@@@@=)))=#.&>=++,))'.@@@=)))*,))'$.='))'+@@@@@      ",
"      @@@@@@@@@@@@++@@@$'$@@@@@.,))*.+@+.+@.,)),.@@+=)))*>))';>')))&@@@@@@      ",
"      @@@@@@@@@@@##$+@+=);+@@@@#,))-.$&=&#++,))'.@@@*)))*,))))))))-+@@@@@@      ",
"      @@@@@@@@@@@+%;+++-),#@@@@#'))',,))),-.')),.@@+=))'*,)))))),&+@@+@@@@      ",
"      @@@@@@@@@@@@$)$@+'))$@@@@$'))))))))))*,))'.@@+;))'%'))))';.+@@@@@@@@      ",
"      @@@@@@@##@@+;);++,));+@@@.,))))))))))>,))'=..='))-.,)',*%%&&#+@@@@@@      ",
"      @@@@@@@;&@@+>),+&))),#@@@+='))))))))),>)))',,)))'$#;&%.-,)))'-+@@@@@      ",
"      @@@@@+@;>.@#')).*))))%+@@@+.===&&=)));=))))))))'%+@++.,))))))'&+@@@@      ",
"      @@@@@@+>'$+&)))>>))));+@@@@@+++@+%'))-$))))))),$+@@@$')))))))),#@@@@      ",
"      @@@@@+#,)*+-))))))))),#@@++$&+@@+-))'.+=''',,%$$#@@.'))'',')))'#@+@@      ",
"      @@@@@@$))'.'))))))))))=@@=>)'&.$;)))-+@+.$#.$;,)-@+,))'-...,))'=+@@@      ",
"      @@@@@+=')';,))))))))))>++;)))'',)));#@@@@@@+&)));.=))'=.@@+&)))-+@@@      ",
"      @@@@@@;)))))))))))))))'#+=))))))))>.+++#++@@&)));%,)),.@@@@$'));+@@@      ",
"      @@@@@.,))))))))))))))))=+.>))))))*.+=;>,>&++&'));$)))-+@@@@.'));+@@@      ",
"      @@@@@#,)))))))))))))))),.@+;,,;-%*>'))))))-+&)));=)))=+@@@@%'));+@@@      ",
"      @@@@+$'))))))))))))))))'&+@+..+$')))))))))'.$)));-)))&@+@@@$)))=+@@@      ",
"      @@@@+=))))))))))))))))),$@@@@@@-)))))))))))&&)));>)))=@@@@+-))'$+@@@      ",
"      @@@@+-))))))))))))))'>*..+@@@@@=))),-.%,)));%)))>>)))&@@@@+>)),+@+@@      ",
"      @@@@+,)))))))))))';=$.$>,=+@@@+-)))%+@+=))),-)));>)))=+@@@$)))-+@@@@      ",
"      @@@@+')'))))))';=.+++-)))>#+@@@=)))$@@@.'))>=)));-)))>#.+#,))'$+@@@@      ",
"      @@@@#')))))),=#++@@@#'))))$@@@@-)))&@@@#')),*)));=))))>==')))-+@@@@@      ",
"      @@@+=')))',&..@@@@@+&)))));+@@@=)))$@@@+'))>=)))-.')))))))))>.@@@+@@      ",
"      @@@+;))'-%.%&-#@@@@@=)))))'#@@@-)))&@@@#'));=)))=+=)))))))';.@@@@@@@      ",
"      @@@+-;%.$-,,)),#+@@.>)),)))%+@@=)))#@@+$)))$%)))=++*')))'>%.@@@@@@@@      ",
"      @@@@.%-,)))))));+@@.,)'*')),+#@-))'$@@+;)),+$)))=@@+$=&=#+@@@@@@@@@@      ",
"      @@@+=')))))))))>@@@$'),.,))'$+@=))'#@+$'))-+&'))-+@@@+++@@@@@@@@@@@@      ",
"      @@@+>))))',')))>+@+-));.=)));+@-))'$+%,))'.@$)',&@@@@@@@@@@@@@@@@@@@      ",
"      @@@.;)),=#.%)))=@@+-))-+.,))'#@=)));>'))'&++#-$.+@@@@+@@@@@@@@@@@@@@      ",
"      @@@+;))>.@@$'))&+@+>))*$*')))-+-))))))))=+@@@++@@@@@@@@@@@@@@@@@@@@@      ",
"      @@@+;))>@+.=));+@+#,))''))))),.-)))))),$++@@@@@@@@@@@@@@@@@@@@@@@@@@      ",
"      @@@+;))>.$-))'.@@@$)))))))))))*>)))'>=+@@@@@@@@@@@@@@@@@@@@@@@@@@@@@      ",
"      @@@+;)),;,)))'=+@+-))))'';,')),*)>-#++@@@@@+@@@@@@@@@@@+@@@+@@@@@@@@      ",
"      @@@+;))))))))))&+@;)))>&#+$)))>&#++@@@@@@@@@@@@@@@@@@@@@@@@@@@@@@@@@      ",
"      @@@.;))))))))')%++,))*.+@@#>;$++@@@@@@@@@@@@@@@@@@@@@@@@@@@@@@@@@@@@      ",
"      @@@+;)))>;%>)))-+#'))&+@@@+#+@@@@@@@@@@@@@@@@@@@@@@@@@@@@@@@@@@@@@@@      ",
"      @@@.>));+++$)))>+$))'#@@@@@+@@@@@@@@@@@@@@@@@@@@@@@@@@@@@@@@@@@@@@@@      ",
"      @@@+;));+@@#,))'.-)'=#@@@@@@@@@@@@@@@@@@@@@@@@@@@@@@@@@@@@@@@@@@@@@@      ",
"      @@@+>));++@+,))'&=&.+@@@@@@@@@@@@@@@@@@@@@@@@@@@@@@@@@@@@@@@@@@@@@@@      ",
"      @@@+;))>+@@@,)>=#@+@@@@@@@@@@@@@@@@@@@@@@@@@@@@@@@@@@@@@@@@@@@@@@@@@      ",
"      @@@.;));+@@+=$..@@@@@@@@@@@@@@@@@@@@@@@@@@@@@@@@@@@@@@@@@@@@@@@@@@@@      ",
"      @@@+;)),+@@@+@@@@@@@@@@@@@@@@@@@@@@@@@@@@@@@@@@@@@@@@@@@@@@@@@@@@@@@      ",
"      @@@+;',=+@@@@+@@@+@@@@@@@@@@@@@@@@@@@@@@@@@@@@@@@@@@@@@@@@@@@@@@@@@@      ",
"      @@@@$&+@@@@@@@+@@@@@@@@@@@@@@@@@@@@@@@@@@@@@@@@@@@@@@@@@@@@@@@@@@@@@      ",
"                                                                                ",
"                                                                                ",
"                                                                                ",
"                                                                                ",
"                                                                                ",
"                                                                                ",
"                                                                                ",
"                                                                                ",
"                                                                                ",
"                                                                                ",
"                                                                                ",
"                                                                                "};
