/* XPM */
static char * TAQUILLA X_xpm[] = {
"80 80 16 1",
" 	c None",
".	c #010101",
"+	c #010108",
"@	c #080001",
"#	c #080808",
"$	c #1D0701",
"%	c #311202",
"&	c #462409",
"*	c #5E340F",
"=	c #7D4A18",
"-	c #9F601D",
";	c #BF7A20",
">	c #D58924",
",	c #EC8902",
"'	c #EF9215",
")	c #E89527",
"                                                                                ",
"                                                                                ",
"                                                                                ",
"                                                                                ",
"                                                                                ",
"                                                                                ",
"                                                                                ",
"                                                                                ",
"                                                                                ",
"                                                                                ",
" ................................++...+.@@@++.@.+++...#...+......+++........... ",
" ............................@...++&==%$@@.+.@.#.#.+.#.#.@++.#.#.+++.....#..... ",
" .................................$-)'>-*$@........++++...+++.....+......#..... ",
" ..............................++@&),,,')>=*$@.#...@++.#.+++.......+.....#.#... ",
" ...............................+.=',,,,,''>;%......@.....+..............#..... ",
" ............................@.#.$;',,,,,,,')*@#.#.++@...#.@.....@.......#..... ",
" ............................+...&>,,;,>,,,,'-$+#+#++...++...............#..... ",
" ............................@++@-',,,,,,,,,,>*@++.@%=&%.+@@@@.+.+.+.....#.#... ",
" .............................+.%;',,,,,,,,,,,>*%$%*;)'-=%$...+.+.#......#..... ",
" ............................@++*),,,',,,,,,,,''>;;'',,'')-=%$@++#+#.....#..... ",
" .............................+@-',,,>,,,,,,,>,,',',,,,,,,''>=$..++......#..... ",
" ............................@.&>',,,,,,,,,,,,,,,,,,,,,,,,,,')*..++@.....#.#... ",
" ............................+@*',,,,,,,,,,,,,,,,,,,,,,,,,,,,>*...+......#..... ",
" ............................+$;,,,,,,,,,,,,,,,,,,,,,,,,,,,,';$..+++.....#..... ",
" .............................&>,;,,,,,,,;,,,,,,,,,,,,,,,,,,)=@++.++.....#..... ",
" ............................@=',,,)',,,,,,,,,,,,,,,,,,,,,,'>&.+...+.....#.#... ",
" ............................$;,,,-=>>'>,,,,,,,>,,,,,,,,,,,'-$...........#..... ",
" ............................*>,,'-$$*->>,,,,',,,,,,,,,,,,,)*@...@.#.....#..... ",
" ............................=',,,;$..$&>,,,,>,,,,,,,,,,,,,>&++.@+.......#..... ",
" ......................#....%>,,,'>*.#.%;',',,,,,,,',,,,,,'-@+.#++++.....#.#... ",
" .....................#...+.*>,,,,'=....-',>,,,,,'',,,,;,,'*..#...++.....#..... ",
" ....................#.#.#.$-',,,,';#...&),,,,';=-;)',,,,';%.#.@.#.@.....#..... ",
" ..........................%>,,>,,,;%...%;','>-%@@%*-;,,,,-@+............#..... ",
" ....................+...+.=',,',,,)*@.+$-''>=$@++..$->,,'&.+#.@.#.@.....#.#... ",
" ....................+@...$-',,>,,,'-@..@*);&.@.++@%->,,';$.+............#..... ",
" ....................+@...&,,,,,,,,';%.+.&=%.#.#+$*>)',,)=.+...+.#.@.....#..... ",
" ....................++..@=',,,,,,,,'&..#.#.+...$=),,,,,>%...............#..... ",
" ....................+...%;',,,,,,,,'-@@.#.+...&-),,,,,)-$.+.+.+...@.....#.#... ",
" ........................&),,,,,,,,,'-$...#.@@=;',,,,,'>=...+.+..........#..... ",
" ..................+@#..@-',,,,,,',);*+#@++@%-'',',,,,'>%+...+...........#..... ",
" ...................#...%;',,,,,,,)=%..@@.+%;',,,>,,,,'=$................#..... ",
" .....................+.*),,,,,,'>*$+#...#.*)',,,,,,,,)*.+...............#.#... ",
" .....................+@-',,,,,';&.+++.....%;',;,,,,,,;%.................#..... ",
" ..................@.#.&>',,,'>=$+++@@#%.#.$-),,,,,,,'=@.#...............#..... ",
" ...................@..*),,,';&.+++.@$-=...@=>,,,,,,,>&.+................#..... ",
" ..................#..$;',,>-%.+##.@&;);$++@&),,,,,,,;$++#...............#.#... ",
" ...................#.&>,,'=%...+.$=>''>*.+.$;',,,,,)*.+.................#..... ",
" ....................@=),,,,-=%@@&-),,')=@++@-),,,,'>&.#.#...............#..... ",
" ....................$;,,,,,''>-=;',,>,'-@.+@&),,>,'-@..@................#..... ",
" ............@+@.@.#.*',,,,,,,,''',,,,,'>%.#.%;',,,'*..@@+...............#.#... ",
" .............+.....@-',,,,,,,,,,,,,,,,,)*.++@-',,';%...@................#..... ",
" ........+.....+.#..%>,,,,,,,,,,,,,,,,,,'-$...=),,'-@..@.+...............#..... ",
" .........+.....+.+@=',,,,,,,,,,,,,,,,,,,>;*&@%>',>&..@..................#..... ",
" ........+.@...#++.$-',,,,,,,,,,,,,,,,,,,,')>-*,'';%+@@@.@...............#.#... ",
" ...........@...+..%>,,,,,,,,,,,,,,,,,,,,,,,,''>,'-.+.@..................#..... ",
" ..........@.@.#.@@=',,,,,,,,,,,,,,,,,,,,,,,,,,,,)&.+@@@.................#..... ",
" ...........@..++.%-';,,,,,,,,,,,,,,,,,,,,,>,-,,'-$..@@..................#..... ",
" ..........@@@.++@&),,,,,,,,,,,,,,,,,,,,,,,,,,,,'=.+@@.@.#...............#.#... ",
" ...........+...@@*),,,,,,,>,,,,,,,,,,,>,,,,,,,,>&..@++.+................#..... ",
" ........++++#.@@@$-')',,,,,,','',,,,,,,,',,,','-$@@.@++++...............#..... ",
" ...........+...@@@$&=;'',,,'>>;>',,,>,,,,,,,,,'=.@.@.+++................#..... ",
" ..........+.+.#.@@@.@$*-;>);*%%&->',,,,,,,',,';%.@@++.+.+...............#.#... ",
" ....................+@@$%==%....@=',,,,,,,>,,)=@.@......................#..... ",
" ............@...++#.#.......+.#++$;',,,,,,,,')*.@++.....#...............#..... ",
" .................+.+.......++@.++@=);,,,,,,,,;#..+......................#..... ",
" ........+++.....+++++.@.@.+.#@@++.*>)'',,,,,)=@.+.......+...............#.#... ",
" .........+++.....+.+...++@..++.++@@%*-;)',,,>&.+.......+................#..... ",
" ........###+#.#.#+@+#.#+#+#.#++.#@#..$&*;>));$#.#.#.#.#+#+#.#.#.#.#.#.#.%..... ",
" .......#.#+#.###.###.###+###@###@###.#.@#&=-####.###.###+###.###.###.####..... ",
"                                                                                ",
"                                                                                ",
"                                                                                ",
"                                                                                ",
"                                                                                ",
"                                                                                ",
"                                                                                ",
"                                                                                ",
"                                                                                ",
"                                                                                ",
"                                                                                "};
