/* XPM */
static char * TCHATCHE TV_xpm[] = {
"80 80 16 1",
" 	c None",
".	c #030403",
"+	c #141211",
"@	c #5C0607",
"#	c #222324",
"$	c #313437",
"%	c #A50505",
"&	c #37485C",
"*	c #E90203",
"=	c #494949",
"-	c #6E6E6E",
";	c #577397",
">	c #7298CD",
",	c #9A9A9A",
"'	c #CACACA",
")	c #F9F9F9",
"                                                                                ",
"                                                                                ",
"                                                                                ",
"                                                                                ",
"                                                                                ",
"                                                                                ",
"                                                                                ",
"                                                                                ",
"                                                                                ",
"                                                                                ",
"                                                                                ",
"                                                                                ",
"                                                                                ",
"                                                                                ",
"                                                                                ",
"                                                                                ",
"                                                                                ",
"                                                                                ",
"                                                                                ",
"                                                                                ",
"                                                                                ",
"                                                                                ",
"                                                                                ",
"                                                                                ",
"                        '  ,  , -==$$##++++#-                                   ",
"                ,-=-==$$##++.................+                                  ",
"              =.............+.@.@+@@@@%@%%%+...,              $..+-             ",
"             =..+@@%@%%%%*%*%***************%@..             -+;;$+             ",
"            $.@%*********************%*******%+.#            +&>>$#     ,$=     ",
"           ,.@****************%*%*%%%***%%@%@%@+.           -#;>;+$ ,   +&#+    ",
"           +.%*%%@%@%@*****%@++.+..+#%*%++++#+%+.-          #&>>$.+++ '+&>>+-   ",
"       ===$++#**@#+#+=*****%+$=--,-#+%%@.,''+#%%.#=-=     -$+,>;.+&>&++&>';+-   ",
"      +=,-,,#+%@.&'-.@%@@.@++')))),.....#')-..++..+++.#  $##;>>;;#>>;.+;>;+#    ",
"      +))))'.+.+.')-++++$=$##,'))-=-,,-+=)),,,+#,'')'=., #;>>>>'&&>>$.&>>$+     ",
"     -+=))-$,''-#))')=+,))),.+)),.'))))$,)))))#,)))))=+  +;;>>;&+;>;+$>>&.,     ",
"      -$))#')))'=)')),-)''),.-))=,)',)'$'),')'#))-,)'##  =+>>;..#>>;+,>;.-      ",
"       -),$)'-)-,)-,)$''=')=.,)'#,)-,),=)'=')=-))-)),.-  $$>>#++&>>#&>;.$       ",
"      .'),-)--,=')=)'+#-')'+#)),$))$$=+')'-))#')))))=+   +;>;+$#;>;&>>##        ",
"      #')$')=++$),,),#'))),.-))=-)'#=##')-'),$)),$=$+-  $$>>$# +>>;;>$+,        ",
"     -=)'$)'-)-,),,)='),')=.,))#')-'),=))-))=,))$''-. - #>>>+,-$>>;>&+-         ",
"     #,),=),')=,)=)'=))=)'++)),$)'-))$,),-)'#'),,))#+@*@$>>$# #&>;>;+=          ",
"     +')-,))))=)',),=))))'.-))=-))))'$))-'),$)))))-.%***#>;#- #;>>>$#           ",
"     +,,#$,,,$=,-='$$,,;,=.=,,+$,,'-#$';$,,$+-,,,-+@***@&>&+  #&>>&.            ",
"    =$##$$#..++..+.++....+++.+++.+..+#..++.++..+.+$$*-%$#&+,   +$&+,            ",
"            ..%%%%%%%%%%%%%%%%%%%@%%%@%@%@%@%@+.#   $=  , ,     =$              ",
"            =.@******************************@.+                                ",
"             $..@%%%%%%%%%*%*%*%*%*%***%***@+.+-                                ",
"              =+.........+.+.+++.@@****@+@...+                                  ",
"                 &=$ $=$ $=$ $=$=...%**@...#-                                   ",
"                                  #..@%*+.                                      ",
"                                    #..@@.-                                     ",
"                                     ,..+.#                                     ",
"                                       $...=                                    ",
"                                        -+.+                                    ",
"                                          -.=                                   ",
"                                            #                                   ",
"                                             ,                                  ",
"                                                                                ",
"                                                                                ",
"                                                                                ",
"                                                                                ",
"                                                                                ",
"                                                                                ",
"                                                                                ",
"                                                                                ",
"                                                                                ",
"                                                                                ",
"                                                                                ",
"                                                                                ",
"                                                                                ",
"                                                                                ",
"                                                                                ",
"                                                                                ",
"                                                                                ",
"                                                                                ",
"                                                                                ",
"                                                                                ",
"                                                                                ",
"                                                                                ",
"                                                                                "};
