/* XPM */
static char * TCM_xpm[] = {
"80 80 13 1",
" 	c None",
".	c #171715",
"+	c #4D4D4B",
"@	c #81817F",
"#	c #A8A8A6",
"$	c #C7C7C6",
"%	c #DCDDDC",
"&	c #E9E9E8",
"*	c #F3F3F2",
"=	c #FAFAF9",
"-	c #FEFEFE",
";	c #FFFFFD",
">	c #FFFFFF",
"                                                                                ",
"                                                                                ",
"                                                                                ",
"                                                                                ",
"                                                                                ",
"                                                                                ",
"                                                                                ",
"                                                                                ",
"                                                                                ",
"                                                                                ",
"                                                                                ",
"                                                                                ",
"                                                                                ",
"                                                                                ",
"                                                                                ",
"                                                                                ",
"                                                                                ",
"                                                                                ",
">>>>>>>>>>>>>>>>>>>>>>>>>>>>>>>>>>>>>>>>>>>>>>>>>>>>>>>>>>>>>>>>>>>>>>>>>>>>>>>>",
">>>>>>>-->>>>>>>>>>>>>>>>>>>>>>>>>>>>>>>>>>>>>>>>>>>>>>>>>>>>>>>>>>>>>>>>>>>>>>>",
">>>>>->-->>>>>>>>>>>>>>>>>>>>>>>>>>>>>>>>>>>>>>>>>>>>>>>>>>>>>>>>>>>>>>---->>>>>",
">>>>>>>----------------------------------------->>>>>>>>>>>>>>>>>>>>>>----->>>>>",
">>-----;;;>>>>>>>>>>>>>>>>>>>>>>>>>>>>>>>>>>>>>>>>>>>>>>>>>>>>>>>>>>>>>>>>>>>>>>",
">>-----;-->>>>>>>>>>>>>>>>>>>>>>>>>>>>>>>>>>>>>>-------------------->>>>>>>>>>>>",
">--->;;;-;;--;;;;;;;;;;;;;;;;;;;;-;-;-;;-;---;;;-;-;;;;;;;;;;;-;--;;--;=-;;;;;>>",
"--->>>>>>>>>>>>>>>>>>>>>>>>>>>>>>>>>>>>>>>>>>>>>>>>>>>>>>>>>>>>>>>>>>>>>;;;-;->>",
"---%#@#@#@#@#############################$#$#$$$$$$$$$$$$$$$$$$$$$$$$$$$&-;-;->>",
"-->#....................................................................@>;-;;>>",
">>>#.+$%$%$%$$$$$$$$$$$$$$$$$$$$$$#$#$$#$###$#########################+.@>;-;->>",
">>>#.+*>>>>>>>>>>>>>>>>>>>>>>>>>>>>>>>>>>>>>>>>>>>>>>>>>>>>>>>>>>>>>>>@.@>;-;;>>",
">>>#.+*>-;;-;;-;;;;;;;;;;;-;;;-;;-;;;;;;;--;;;-;;;;;;-;-;;;;;;;;;;-;>=@.@>;;;;>>",
">>>#.+*>-;;>>>>>>>>>>>>>>;-;-;;;>>>>>>>>>>;-;;>;>>>>>;-;;;>>>>>;;;-;-=@.@>;;-;>>",
">>>#.+*>-;*&&&&&&&&&&&&&*;;--;>>&%$$$%%*&$=-;-*******;-;;>**======;->*@.@>;;-->>",
">>>#.+*>;>#+.++++++++.+++;;;>=$@.......+++&-;%+++++++#>>>#+++++++$>->=@.@>;;;->>",
">>>#.+=>>*+..@+......@+..%>>%@.....@#@@...%>;*@....+..#>$.......+%>;>*@.@>;;-;>>",
">>>$.+*>>%.+&>#..@+.@>&@.#>*@..@+.@>>>=%+.#>;;>@...##..@....@+.+=>;;>=@.@>;;-;>>",
">>>#.+*>>&@$>>#..#+.@;>*@#>#..+%..#>;;>>%@$>-;>+.@..#@...#..#@.+*;;;>>+.@>;;;->>",
">>>#.+*>;;>;;>#..#+.+>;;>->#..@$..#>-;-->-=;;;>@+%@..#..#&..#@.+*>;;>=@.@>;;-;>>",
">>>#.+=>;;;;->#..$+.@>;-;;>$..+#+.#>;;;>>=;;-->+.%=@...@>&..#@.+*>;;>*@.@>;;-;>>",
">>>#.+*>;;;;;>#..@+.+>;-=;;;@..++.@;;;=&#+%>->>++%>*+.+;>%+.@+.+=>-->-@.@>;-;;>>",
">>>#.+*>-;-;;#.......@&;;;-;;#.....+@@+...$>-&#..+$>%@*>%+......@&;;-*@.@>;;-;>>",
">>>#.+*>;;;;=@++++++++&>---=;>&#+++..+++#$&=>%++++#;>;>;#++++++++$>;>-@.@>;;;;>>",
">>>#.+*>;---=**==***-==------>>>>&%&%%*>>>;;--*&&&*--;=-&%%%%%%%%*;=;*@.@>;;;->>",
"-->#.+=>-;->->>>>>>>>>->-->>->>->>>>>>>--;;;-;>>>>-;;;-;;>>>>>>>>;-;;=@.@>;-;->>",
"-->$.+=>>>>>>>>>>>>>>>>>>>>>>>>>>>>>>>>>>>>>>>>>;>>>;>>>>>>>>>>>>>>>>;+.@>>;;;>>",
"-->#.+#$$$$$$$$$$$$$$$%$$$$%$$$%$%%$%%%%%%%%%%%%&%%&%&%&&&&&&&&&&&&***@.@*%&&->>",
"---#...................................................+..+..+.+..+.+...@$###=>>",
"-->&#############################@#@#@#@#@#@#@#@#@#@@#@@@@@@@@@@@@@@@@@@$%$$$;>>",
"->>>>>>>>>>>>>>>>>>>>>>>>>>>>>>>>>>>>>>>>>>>>>->>>>>>>>>>>>>>>>>>>=>>>>>;;->;;>>",
"---===->->-=->>>->>==->=---->>>>>->>>->>>>>>->>>>>->>>>>>>>>>>>>>>>>>>>>>>>>>>>>",
"---%##&%%%*##*%$&%&##=$#$-==$#*%&->$&-%#&*$$-%**#%--*%=%**#%*&&%&&&$$*%$&>>->>>>",
"-->*@$%#$#%@@$$+#$%@#>#@@*>%@$%#$>*@#-@#&$@$-#%$##*>%@$@%$##$##$$$%@$&##%>>-->>>",
"----#$&@$#%@@&$#+#%@$=#@#->$#&*#$>$@@=$##*##&#%#%&*>%@+@%#$#&#@&$$%@$*$#$>>>->>>",
"-->=$%-#@%&$#%%$#$&@$&$$#*>&#@&$@$$##$$@$&##&#&$@#=>%#%#&$@#=$@>$$%@#*$@#>>>>>>>",
"->--==>>*>=--*>->--*&==-=-->=*>-&**>--=&==%*>=--&*---=>=--&*>-=-==*&&**&=>>>>>>>",
">->>>-->>->>>>>>>-->>-->>--->--->>>>>->>>->>->->>>--->->->>----->>>>>->>>>>>>>>>",
"--->>------>----->----------->->-------->->-->------>-->-------------->->>>>>>>>",
"-->---------------------->------>-------->----------------------------->------>>",
">->>>>>>->>->->>>>>>->>->>>->->>>>>>->>>->>->->>->->>>>->>>>->>>>->->>>>->>>>>>>",
">>>>>>>>>>>>>>>>>>>>>>>>>>>>>>>>>>>>>>>>>>>>>>>>>>>>>>>>>>>>>>>>>>>>>>>>>>>>>>>>",
"                                                                                ",
"                                                                                ",
"                                                                                ",
"                                                                                ",
"                                                                                ",
"                                                                                ",
"                                                                                ",
"                                                                                ",
"                                                                                ",
"                                                                                ",
"                                                                                ",
"                                                                                ",
"                                                                                ",
"                                                                                ",
"                                                                                ",
"                                                                                ",
"                                                                                ",
"                                                                                ",
"                                                                                ",
"                                                                                "};
