/* XPM */
static char * TELENOVELAS_xpm[] = {
"80 80 16 1",
" 	c None",
".	c #E51B0F",
"+	c #2B5EA7",
"@	c #A1470F",
"#	c #C96046",
"$	c #479AF1",
"%	c #6F91C1",
"&	c #DD9508",
"*	c #C69F71",
"=	c #C4BBBB",
"-	c #F9D70F",
";	c #91E4F7",
">	c #DCDBDB",
",	c #F6F346",
"'	c #F6EF9B",
")	c #F6F6F4",
"                                                                                ",
"                                                                                ",
"                                                                                ",
"                                                                                ",
"                                                                                ",
"                                                                                ",
"                                                                                ",
"                                                                                ",
"                                                                                ",
"                                                                                ",
"                                                                                ",
"                                                                                ",
"                                                                                ",
"                                                                                ",
"                      )'',',,,,,,,,-,,,,,,,,,,,,,,','                           ",
"              ) ' '',',,,,,,-,---,---,---,-,-,-,-,,,,,,,,'' ' '                 ",
"         ' '',,,,------------&-&-&-&-&-&-&-&-&-&------------,-,,,,,'  )         ",
"       ),,,,-,--------&-&&&&&&&&#&#&#&#&#&#&#&#&&&&&&&&-&-&--------,-,*'        ",
"       ,,------&&&&&&&&#&@#@@@@@@@@@@@#@@@@@@@@@@@@@@@#@##&&&&&&-&----&&        ",
"      ',--&-&-&&&&#&@&@@@@@#@* *% ** =* *' =* ** ** @&@&@&@&#&&&&-&-&-&&        ",
"      '--&&&&&&#@@@@%@*#                               > %%@%@&&&&&&-&&&        ",
"      =-&&&&&&@@@= '                                         '&---&---@*        ",
"      '&&&&&&@@*                        )   >                  *---&-&@#        ",
"       '&-&&&&&                      );;;;$$+*                  *----&&         ",
"        -&&&&+                   ; ;;$;$$+++%                   -&---@          ",
"       '--&&@&                ;);;;;$$+++%                      ,--,--*         ",
"        -&&#@@              >;;;;$$+++%                         '-----*         ",
"       '--&&@*           );;;;;$+++%                             ,---,&         ",
"        -&&#&#         ;;;;;;$++%        .#                     )*----&         ",
"       '--&&@*       >;;;;$$$$+=        #..@>                    ,----&*        ",
"        -&&&&*     ;;;;$$+$+$++         #...                     -----&#        ",
"       '--&&&'   );;;;+++$$$$$+=        #..@*                    '----&*        ",
"       '-&&&&   ;$;$++++ +$$$+$%        #...                      ---&&@        ",
"        --&-&' ;$$+++%   %$$$$+=        #..@*                     ----&*        ",
"       '---&-  ;%++%     %$$$$$         #...                      ---&*@        ",
"        ----*'           ;$;$$$%        #..@@                    )----&*        ",
"       '---&-             $$$$$+        #...@                     ,--&&@        ",
"        ----*'           )$;$$+%        #..@.                     ,-&-&*        ",
"       '----*             ;$$$$+>        ...@                     '--&&@        ",
"       '-,--*)            %;$$$%        #..@@                      -&-&&        ",
"        -----             =$$$$+        #...@                     '--&&@        ",
"       '----*             ;;$$$%        #..@@                     '--&&&        ",
"        ---&=              $$$$+=       #...@                      *-&&@        ",
"       '--&&*              ;$$$$%       #..@@                      ---&&        ",
"        -&&@               %$$$+%       #...@                      *-&&@        ",
"       '--&*                $$$$%        ..@@*                     ,--&&        ",
"       '-&&#               >%$$+%       #...@#                     *-&&@        ",
"        --#*                %;$$+        ....*                     ,--&&        ",
"       '-&&%)                $$++=       ...@                      *-&&@        ",
"        --@*                 %$$+       *....#                      --&&        ",
"       '-&&*                 %+++%      @.....## = >               >-&&@        ",
"        --@=                  +@+       .#.......#.#.####=          --&@        ",
"       '-&#*                           =@...................##=    >,-&+        ",
"        *&@                              @@@@@.@.@...........@+     ',@*        ",
"        &@@                                ##+@.#@@@@@@@@@@@@+                  ",
"        =*=                                    >   =      =                     ",
"                                              ) >                               ",
"                                              > >                               ",
"                                              >        >)                       ",
"             >=>  >==         >>    >>    >   >>      ===>>      ) >=>          ",
"            == > > >>>    ====* )   ==  >=>>) >>     %;  >      == >>           ",
"              >) = )>    == >>  >   = ))= = ) >     =>   >     )>>              ",
"               >;> =    =>   >) >  => >>==>  >>    >=   )>      > >>            ",
"              > >   >  >>    >  > =>  >)     >>  )==   > )   )   ) >>)          ",
"              >>   ) >=>>   =>   >>   >>   >==)  %=>>  %>> >=%>    >>=          ",
"              =   > == )> >=>   >>    >> > =>> >=  >>==  >== >=> > >=           ",
"             >>   ) >  >>==>    =     )===    ;=    >    >>    ====             ",
"                                                                                ",
"                                                                                ",
"                                                                                ",
"                                                                                ",
"                                                                                ",
"                                                                                ",
"                                                                                ",
"                                                                                ",
"                                                                                ",
"                                                                                ",
"                                                                                ",
"                                                                                ",
"                                                                                "};
