/* XPM */
static char * TELESUD_xpm[] = {
"80 80 16 1",
" 	c None",
".	c #010101",
"+	c #030E2D",
"@	c #111009",
"#	c #2C1912",
"$	c #092561",
"%	c #292A03",
"&	c #3E3D05",
"*	c #532F1A",
"=	c #0F4AB6",
"-	c #5B5C0F",
";	c #817514",
">	c #4A7BD5",
",	c #AFA624",
"'	c #7BA4F3",
")	c #F4ED30",
"                                                                                ",
"                                                                                ",
"                                                                                ",
"                                                                                ",
"                                                                                ",
"                                                                                ",
"                                                                                ",
"                                                                                ",
"                                                                                ",
"                                                                                ",
"                                                                                ",
"                                                                                ",
"                                                                                ",
"                                                                                ",
"                                                                                ",
"                                                                                ",
"                                                                                ",
"                                                                                ",
"                                                                                ",
"                                                                                ",
"                                                                                ",
"                                                                                ",
"                                                                                ",
"                                                                                ",
"                                                                                ",
"                                                                                ",
"                                                                                ",
"                                                                                ",
" .......@@@@@@@@@+@#$.........................................................  ",
" ..@@@+%@@+++++$++++#@.....+...........@.......@...@...................@......  ",
" .@+%$$$$$====>====+@+........................................................  ",
" @@->''>>>>>=>======.%...@...+...+.......@...@.......+.......+.............@..  ",
" +#>''>=>========$==++@.............................................+.........  ",
" ##>>>=>=>==========$@@..@@@...@.......@@..........@.......@.............@@@..  ",
" ++$=='''''>=='>'>==$+@..&),%..........$,;%..............................%,,%.  ",
" @+$=>''>'''=>''''===@@..-))--%@&---&@.&))&.@--;-*.@.%-;--@.@--%.--&.@&--,))&.  ",
" +@$=='>==''->'>''===+@..-),;-%;),-;);@&))&@,);-,,;.-,)-;,,@%,)*.;);.-),-;))&.  ",
" @+$====>'''=''>>'>==$@@.-))#.@)),.;))@&))%%))-@,),.;),#@&&%%))-.,),.,),.&))&.  ",
" @@$====>''>>''=>''==+@..-),%.@,),;;,;@%))&@)),-,,;.&,,;;,;.%))&.,);.;),.&))&.  ",
" @@$=>'>=>'''''''''>=$@@.-))%.@)),%&&-@&))&%))-%&-&@@&&%-))&%))-.,),.,),.&))&.  ",
" .@+=>''>>'''''>'''==$@..&),%.@;);%-,;@&),&@,);%,,;.-,,%-,)%%,)-&,);.-),&-),&.  ",
" .@$=>''''''''==='''=$+@.%-;@..%-;;;-&.&;;%.%;;;;;#.@-;;;;*@%;;;;;-*.%-;;;;;%.  ",
" .@.====>=>=>==$==>==$++..@@.....@@@....@@@...@@#.....@@@...@.@@@.@.....@@@.@.  ",
" +@@$===============$+@@.@#-@@...@@@....#**#...%**@..@@##..@.........@........  ",
" ...$========$=====$+##..@#***********##*#****@**#*******#..@#@..@*...##@..##.  ",
" ..@.$========$=$$+@@*#..%###*#***###*@#*#@*##.#@##*#*##*#..@#.+.@#..@@#...#@.  ",
" .....++$$$+$+++@@#+#.@.........#@..................@@....................+...  ",
" ..@@@@@@#@#@%@%@@.....@.@...........@.....@.@...+.......@...+.......@.@......  ",
" .....@@@+@...................................................................  ",
" .............................................................................  ",
" .............................................................................  ",
"                                                                                ",
"                                                                                ",
"                                                                                ",
"                                                                                ",
"                                                                                ",
"                                                                                ",
"                                                                                ",
"                                                                                ",
"                                                                                ",
"                                                                                ",
"                                                                                ",
"                                                                                ",
"                                                                                ",
"                                                                                ",
"                                                                                ",
"                                                                                ",
"                                                                                ",
"                                                                                ",
"                                                                                ",
"                                                                                ",
"                                                                                ",
"                                                                                ",
"                                                                                ",
"                                                                                ",
"                                                                                ",
"                                                                                ",
"                                                                                ",
"                                                                                ",
"                                                                                "};
