/* XPM */
static char * TERRA NOVA_xpm[] = {
"80 80 16 1",
" 	c None",
".	c #616161",
"+	c #8C8C8C",
"@	c #A5A50D",
"#	c #BABA45",
"$	c #B6B6B6",
"%	c #CFCF81",
"&	c #DBDBDA",
"*	c #DFDFDD",
"=	c #E2E1E2",
"-	c #E8E6B9",
";	c #E2E4EC",
">	c #E8E8E7",
",	c #EDEEF9",
"'	c #F4F3EE",
")	c #FFFFFF",
"                                                                                ",
"                                                                                ",
"                                                                                ",
"                                                                                ",
"                                                                                ",
"                                                                                ",
"                                                                                ",
"                                                                                ",
"                                                                                ",
"                                                                                ",
"                                                                                ",
"                                                                                ",
"                                                                                ",
"                                                                                ",
"                                                                                ",
"                                                                                ",
"                                                                                ",
"                                                                                ",
"                                                                                ",
"                                                                                ",
"                                                                                ",
"                                                                                ",
" )))))))))))))))))))))))))))))))))))))))))))))))))))))))))))))))))))))))))))))) ",
" )))))))))))))))))))))))))))))))))))))))))))))))))))))))))))))))))))))))))))))) ",
" ))))))))))))))))))))'>=>=>=>=>=>=>=>=>=>=>=>=>>''))))))))))))))))))))))))))))) ",
" )))))))))))))))))))))=&&&&*&&&*&&&*&&&*&&&*&*&*&=>)))))))))))))))))))))))))))) ",
" )))))))))))))))))))))>&***********************&*&&&,)))))))))))))))))))))))))) ",
" )))))))))))))))))))))>*****************************&>))))))))))))))))))))))))) ",
" )))))))))))))))))))))>&***&*****&*&*&*&*&*&*&*******&>)))))))))))))))))))))))) ",
" )))))))))))))))))))))=********************************)))))))))))))))))))))))) ",
" )))))))))))))))))))))>&***&*&&&&&&&&&&&&&&&&&*&******&>))))))))))))))))))))))) ",
" )))))))))))))))))))))>*****&>>'>'>'>'>'>'>,>';=********')))))))))))))))))))))) ",
" )))))))))))))))))))))>&****&>)))))))))))))))'),=&***&*&')))))))))))))))))))))) ",
" )))))))))))))))))))))>****=&'))))))))))))))))))'*******,)))))))))))))))))))))) ",
" ))))))'))))))))))))))'**>>==')))))))))')))))))));====;&'))')))')))))')))))'))) ",
" &+))))))&+++++>))=$+++$>&++++$>++++$)))-%#####-)-#######-)%#))))))'#-))%#-)))) ",
" +.')'))$.++$++.>>..$++$$.++$+&>$+$+.+)'#@%%%%#@-&@#$####@%%@%)))))#@-)%@@@'))) ",
" $.)))))++)))),.$&.*))''++;'>)))))))$.,-@-))))'@%>@-;;;;'#@)#@')))%@%)'@#-@%))) ",
" +.+$+$)+.$+$+$.$$.>))>=++>*&,)$$+$++.,%@-)))))@%*@$;**&,##)-@%))-@@))%@-)%@')) ",
" $.$$$$)++$$$&$&,$.'))>>++>*&)+.$&$&+.,-@')))))#%>@&;=*&,%#))%@')%@-)-@%))'@#)) ",
" +.)))))++)))))))+.>))>=+.>*=>.$))))&.,-@-)))))@%=@$,=;='##')'@#-@%))@@')))%@%) ",
" &.$&&$>$.$&&&=))$.'))>>++>*=>.$&&&&.+'-@'))))'#%,@#%%%%%#@)))%@@#')%@%)))))@@' ",
" )&+++++)$+++.$))$+,))>*++=*=>+.+++.+&)-#>)))))#%,&##@#@##%')))##-)'##))))))-#- ",
" )))))))))))))))))))))>*=>**&')))))))))))))))))))>*>=;==>)))))))))))))))))))))) ",
" )))))))))))))))))))))>&***&&>)))))))))))))))))))>&****&,)))))))))))))))))))))) ",
" )))))))))))))))))))))>&****&*'))))))))))))))))))>&=****>)))))))))))))))))))))) ",
" )))))))))))))))))))))'&*&*&*&=,)))))))))))))))))>&&*&*&>)))))))))))))))))))))) ",
" ))))))))))))))))))))))*&*****&*='>>>,>>>'>>>,>>>>*****&>)))))))))))))))))))))) ",
" ))))))))))))))))))))')>&&*****&*&&&&&&&&&&&&&&&*&*****&>)))))))))))))))))))))) ",
" )))))))))))))))))))))))*&*****************************&>)))))))))))))))))))))) ",
" )))))))))))))))))))))))'&&********&*&*&*&*&*&*&*******&>)))))))))))))))))))))) ",
" )))))))))))))))))))))))))=&***************************&>)))))))))))))))))))))) ",
" ))))))))))))))))))))))))))>=&&&&&&&&&&&&&&&&&&&&&&&&&*&>)))))))))))))))))))))) ",
" ))))))))))))))))))))))))))))'>,>>=>>>=>>>=>>>=>>>=>>>;>,)))))))))))))))))))))) ",
" )))))))))))))))))))))))))))))))))))))))))))))))))))))))))))))))))))))))))))))) ",
"                                                                                ",
"                                                                                ",
"                                                                                ",
"                                                                                ",
"                                                                                ",
"                                                                                ",
"                                                                                ",
"                                                                                ",
"                                                                                ",
"                                                                                ",
"                                                                                ",
"                                                                                ",
"                                                                                ",
"                                                                                ",
"                                                                                ",
"                                                                                ",
"                                                                                ",
"                                                                                ",
"                                                                                ",
"                                                                                ",
"                                                                                ",
"                                                                                ",
"                                                                                ",
"                                                                                ",
"                                                                                "};
