/* XPM */
static char * TPS Star_xpm[] = {
"80 80 15 1",
" 	c None",
".	c #CB090F",
"+	c #C91824",
"@	c #CD181F",
"#	c #A22557",
"$	c #D22D31",
"%	c #D74447",
"&	c #DC5B5E",
"*	c #E17778",
"=	c #E48382",
"-	c #EBA0A0",
";	c #F0BBBA",
">	c #F7DAD8",
",	c #FBF1EF",
"'	c #FFFFFF",
"                                                                                ",
"                                                                                ",
"                                                                                ",
"                                                                                ",
"                                                                                ",
"                                                                                ",
"                                                                                ",
"                                                                                ",
"                                                                                ",
"                                                                                ",
"                                                                                ",
"                                                                                ",
"                                                                                ",
"                                                                                ",
"                                                                                ",
"                                                                                ",
"                                                                                ",
"                                                                                ",
"                                                                                ",
"                                                                                ",
"                                                                                ",
"                                                                                ",
"                                                                                ",
" #@@@@@@@@@@@@@@@@@@@@@@@@@@@@@@@@@@@@@@@@@@@@@@@@@@@@@@@@@@@@@@@@@@@@@@@@@@@@# ",
" #@@@@@@@@@@@@@@@@@@@@@@@@@@@@@@@@@@@@@@@@@@@@@@@@@@@@@@@@@@@@@@@@@@@@@@@@@@@@# ",
" #@@@@@@....................@.....................@@.....................@@@@@# ",
" #@@@@.$*==*=*=*=*=*=*=*===&.*==*==*=*=*=*=*=*=*=*$.&=*=*=*==*=*=*=*=*==*$.@@@# ",
" #@@@@.*'''''''''''''''''''*@,''''''''''''''''''',$$>'''''''''''''''''''>$.@@@# ",
" #@@@@@;'''''''''''''''''''%%,'''''''''''''''''''>@=''''''',,,,'''''''''-@@@@+# ",
" #+@@.$;,>,>>,'''''',>>,>,;@=''''''>>;>;>>'''''''-$>'''''';&%%&-''''''''*.@@@@# ",
" #@@@@@%%$%%%;''''',=$%%%%$@;''''''&@$@$@&,''''''&&'''''',*....@=-----;-%.@@@+# ",
" #+@@@@.....@>'''''>$......$>'''''>$.....%,''''',$*'''''''>>;--&%%@@..@@@@@@@@# ",
" #@@@@@@+@@.&,''''';.@@@@@.&,''''';$$$$$%;''''''>@&''''''''''''',,>;-%..@@@@@+# ",
" #+@@@@@@@@.*''''''-.@@@@@.='''''',>>>>>,'''''',*.$;''''''''''''''''''-+@@@@@@# ",
" #@@@@@@@@@.;''''',&.@@@@@.;'''''''''''''''''''=.@.$=>,,'''''''''''''''=.@@@@+# ",
" #+@@@@@@@.$>'''''>$.@@@@.$>'''''''''''''''',>*@......$$%*=;>>,''''''''-.@@@@@# ",
" #@@@@@@@@.&,''''';@@@@@@.&,''''',-;;;;;;;--&+..$%&%%%%%%...@@%>'''''''-.@@@@+# ",
" #+@@@@@@@.=''''''-.@@@@@.=''''''=.@....@.@...@.&,','',''=@..@&,'''''',%.@@@@@# ",
" #@@@@@@@.@;''''''&.@@@@@@-''''''&.@@@@@@@@@@@@.%,'''''''';;;;,'''''''-.@@@@@+# ",
" #+@@@@@@.$>'''''>$.@@@@.$>'''''>$.@@@@@@@@@@@@@@;'''''''''''''''''''-.@@@@@@@# ",
" #@@@@@@@.&'''''';$.@@@@.&'''''';....@@@@@@@@@@@.$-,'''''''''''''',;&..@@@@@@+# ",
" #+@@@@@@@$******&@@@@@@@%******-----$@@@@@@@@@@@.@%*-;>>,>,>>>;=*%@.@@@@@@@@@# ",
" #@@@@@@@@@.....................;'''>$.@@@@@.........@@@@$$@$@@@....@@@@@@@@@+# ",
" #+@@@@@@@@@@@@...+$%%%%$@..@@.$>'''-.@@@@..$$%%%%$$...@...@.@..@$$@@@@@@@@@@@# ",
" #@@@@@@@@@@@@@@&;;>,,,>>;=+.&;;,'''>;-$..&-;>,',,>>-&@.%;;;;$%-;>>$.@@@@@@@@+# ",
" #+@@@@@@@@@@.$-'''',>''''';@-'''''''';@@-''''>>>,''',%.-''',;,'''>$.@@@@@@@@@# ",
" #@@@@@@@@@@@.=''''-$$*;;;;;$-;,''',;;&.&>;;;*@..-''''*.;''','''''-.@@@@@@@@@+# ",
" #+@@@@@@@@@@.;''''>--=-==%@@.$>''';@@@.@%&==**==>''',%$>''''>=**=&.@@@@@@@@@@# ",
" #@@@@@@@@@@@.*,''''''''''>&..&,'''*.@.$=>,''''''''''>@&'''';$.....@@@@@@@@@@+# ",
" #+@@@@@@@@@@..%=--;;>,''''-@.=''',%..@;''',>--*=,'''-.=''''%.@@@@@@@@@@@@@@@@# ",
" #@@@@@@@@@@@=;---=$.&>''''-..;''''=&$&''''>@..@=,'''*.;'''>@.@@@@@@@@@@@@@@@+# ",
" #+@@@@@@@+.$,'''''>;>'''''&.%,''''''*='''',;-->'''',$$,''';@@@@@@@@@@@@@@@@@@# ",
" #@@@@@@@@@@$===*======*==*$.$===*==*$&==*===-===*==*@$====%.@@@@@@@@@@@@@@@@+# ",
" #@@@@@@@@@@@..............@@@.......@...............@@.....@@@@@@@@@@@@@@@@@@# ",
" #@@.@@.@@@@.@.@.@.@.@@.@.@.@@.@.@.@.@@@.@.@.@.@.@.@.@.@.@.@@@@@@@.@@@.@@@.@@@# ",
" ##+#$#+#+#+#$#+#+#$#+#+#$#+#+#$#+#+#+#+#+#$#+#$#+#+#$#+#+#$+#+#+#+#+#+#+#+#+$# ",
"                                                                                ",
"                                                                                ",
"                                                                                ",
"                                                                                ",
"                                                                                ",
"                                                                                ",
"                                                                                ",
"                                                                                ",
"                                                                                ",
"                                                                                ",
"                                                                                ",
"                                                                                ",
"                                                                                ",
"                                                                                ",
"                                                                                ",
"                                                                                ",
"                                                                                ",
"                                                                                ",
"                                                                                ",
"                                                                                ",
"                                                                                ",
"                                                                                ",
"                                                                                ",
"                                                                                "};
