/* XPM */
static char * TPS CINETOILE_xpm[] = {
"80 80 14 1",
" 	c None",
".	c #385663",
"+	c #405C69",
"@	c #49636F",
"#	c #894A5B",
"$	c #627984",
"%	c #7B8E97",
"&	c #99A7AF",
"*	c #ABB7BD",
"=	c #BDC7CC",
"-	c #CCD5D8",
";	c #DDE3E6",
">	c #EFF2F4",
",	c #FFFFFF",
"                                                                                ",
"                                                                                ",
"                                                                                ",
"                                                                                ",
"                                                                                ",
"                                                                                ",
"                                                                                ",
"                                                                                ",
"                                                                                ",
"                                                                                ",
"                                                                                ",
"                                                                                ",
"                                                                                ",
"                                                                                ",
"                                                                                ",
"                                                                                ",
"                                                                                ",
"                                                                                ",
"                                                                                ",
"                                                                                ",
"                                                                                ",
"                                                                                ",
"                                                                                ",
" #@@@@@@@@@@@@@@@@@@@@@@@@@@@@@@@@@@@@@@@@@@@@@@@@@@@@@@@@@@@@@@@@@@@@@@@@@@@@# ",
" #@+@@@@@@@@@@@@@@@@@@@@@@@@@@@@@@@@@@@@@@@@@@@@@@@@@@@@@@@@@@@@@@@@@@@@@@@@@@# ",
" #@@@@@@@@@@@@@@@@@@@@@@@@@@@@@@@@@@@@@@@@@@@@@@@@@@@@@@@@@@@@@@@@@@@@@@@@@@@@# ",
" #@@@@@+...................+@.....................+@.....................+@@@@# ",
" #@@@@+%*&&&*&&&*&&&*&&&*&*$@&&*&&&*&&&*&&&*&&&&**$+%*&&&&*&*&*&&*&&*&&*&$+@@@# ",
" #@@@+@-,,,,,,,,,,,,,,,,,,,%$,,,,,,,,,,,,,,,,,,,,,$$>,,,,,,,,,,,,,,,,,,,,%.@@@# ",
" #@@@.$>,,,,,,,,,,,,,,,,,,>@%,,,,,,,,,,,,,,,,,,,,;+*,,,,,,,;-=-;,,,,,,,,;$.@@@# ",
" #@@@@$=**=**>,,,,,>-**=**&+=,,,,,,*%%&%%=>,,,,,,=$;,,,,,,*+..+@-,,>,,,,=+@@@@# ",
" #@@@@@+++..$;,,,,,;$..+++.@;,,,,,>$.....@;,,,,,,%%,,,,,,,-%%$@+$$$$$%$%$+@@@@# ",
" #@@@@@+@@+.%,,,,,,=+++@@@.$>,,,,,;+.+...%>,,,,,,$%,,,,,,,,,>>>;=*%%$...+@@@@@# ",
" #@@@@@@@@@+*,,,,,,*.@@@@@.&,,,,,,;&&&&&*>,,,,,,-+$>,,,,,,,,,,,,,,,,>-%@+@@@@@# ",
" #@@@@@@@@+@-,,,,,,%.@@@@@+=,,,,,,,,,,,,,,,,,,,>%.+%;,,,,,,,,,,,,,,,,,,&.@@@@@# ",
" #@@@@@@@@+$>,,,,,>$.@@@@+@-,,,,,,,,,,,,,,,,,,;%.@++$%*=;;>>,,,,,,,,,,,;$.@@@@# ",
" #@@@@@@@@.%,,,,,,-++@@@@.%>,,,,,,,,,,,,,,,>-*$.+++.....+@$%%*=>,,,,,,,;$+@@@@# ",
" #@@@@@@@@.*,,,,,,*.@@@@@.&,,,,,,-%%&%%&%&%$@.++$&*******%.....=,,,,,,,-++@@@@# ",
" #@@@@@@@+@-,,,,,,%.@@@@@.*,,,,,,&...+.....++@@+$>,,,,,,,;%$$$*>,,,,,,,&.@@@@@# ",
" #@@@@@@@+$>,,,,,>$+@@@@+@;,,,,,>$.@@@@@@@@@@@@+@;,,,,,,,,,>>,,,,,,,,,*.+@@@@@# ",
" #@@@@@@@.%>>>>>>=@+@@@@+$>>>>>>;@+@@@@@@@@@@@@@@%>>>>>>>>>>>>>>>>>>>&@+@@@@@@# ",
" #@@@@@@@@@$$$$$$$@@@@@@@@$$$$$$$@@@@@@@@@@@@@@@+@$$$$$$$$$$$$$$$$$$$++@@@@@@@# ",
" #@@@@@@++....+...@@+.+@@@..+....+..@++.....@@@+.....+...+...++++.....+.+@@@@@# ",
" #@@@@@+@%**%@+@%&$+%&$@@@&%@$%&&&&&%$&&&&&&%.+$&*&@+@@&%@@&%$+@@@%&%&&&&@+@@@# ",
" #@@@@+@=,,>,=%.*,$.*,-++@;;+@>,,>>,%&,>,,,,&.&>,>,;$.$;;@@>;@+@@.&,,>,>>$+@@@# ",
" #@@@@+*,*$@%>%.&,$.&,,*+.-=.@;-$@$$$$$$;;$$$$>;$@&>-++;-+@;;+@@@.%,&@$$%@+@@@# ",
" #@@@.$;;@.++$@.*>$.*,;,&.--.@;;%%%@+@..-;+..*,%...*,$+;-+@;;@+@@+%>*$%$.@@@@@# ",
" #@@@+$>=.@@@.++&,$.*;%;>%=-.@;,>,;$.@@@-;@++=>$.@+&,%+;-+@;;+@@@.%,,>,&.@@+@@# ",
" #@@@+@;-+++.$@.*>$.*>+$>>>=.@;;$$%@+@+@-;@++*>%.+.*,$+;-+@;-+++++%,&$%$.@@@@@# ",
" #@@@@+=,*@@%-%.&,$.*>$.%,,=.@;-@+@@$@@+-;@++%,-$.%>;@+;-+@;;@@@$@%,%.+@$@@@@@# ",
" #@@@@+@-,>;>;%.*,$.*,$..&,-+@;,>>>>*++@;;@+@+&,>;,;%.@;;+@;,>>>>$%,>>>>>%.@@@# ",
" #@@@@@+@&==&@.+%&$+%&$++$&%@$&&&*&*%@+$&&@@@++%*=&$++$&%@@&&&*&*$$&*&&**$+@@@# ",
" #@@@@@@+++..+@@++@@++@@@++@@+.+.+.+@@@+.+@@@@@.@+++@@@++@@++.+.+@@+.+...@@@@@# ",
" #@@@@@@@@+@@@@@@@@@@@@@@@@@@@@@@@@@@@@@@@@@@@@@+@@@@@@@@@@@@@@@@@@@@@@@@@@@@@# ",
" #@+@@@@@@@@@@@@@@@@@+@@@@@@@@@@@@@@@@@@@@@@@@@@@@@@@@@@+@@@@@@@@@@@+@@+@@@@+@# ",
" #@@@#@@#@@#@@#@@#@@#@@@#@@@#@@#@@#@@#@@#@@#@@#@@@#@@#@@@#@@@#@@#@@#@@@#@@@@@@# ",
"                                                                                ",
"                                                                                ",
"                                                                                ",
"                                                                                ",
"                                                                                ",
"                                                                                ",
"                                                                                ",
"                                                                                ",
"                                                                                ",
"                                                                                ",
"                                                                                ",
"                                                                                ",
"                                                                                ",
"                                                                                ",
"                                                                                ",
"                                                                                ",
"                                                                                ",
"                                                                                ",
"                                                                                ",
"                                                                                ",
"                                                                                ",
"                                                                                ",
"                                                                                ",
"                                                                                "};
