/* XPM */
static char * TPS CINECULTE_xpm[] = {
"80 80 15 1",
" 	c None",
".	c #5B78AC",
"+	c #00A7EE",
"@	c #3199D2",
"#	c #01AEF0",
"$	c #0DABED",
"%	c #00B3F8",
"&	c #17B2EF",
"*	c #27B6F1",
"=	c #3EBEF3",
"-	c #66CCF5",
";	c #8EDBF8",
">	c #BFEBFB",
",	c #E2F6FC",
"'	c #FFFFFF",
"                                                                                ",
"                                                                                ",
"                                                                                ",
"                                                                                ",
"                                                                                ",
"                                                                                ",
"                                                                                ",
"                                                                                ",
"                                                                                ",
"                                                                                ",
"                                                                                ",
"                                                                                ",
"                                                                                ",
"                                                                                ",
"                                                                                ",
"                                                                                ",
"                                                                                ",
"                                                                                ",
"                                                                                ",
"                                                                                ",
"                                                                                ",
"                                                                                ",
"                                                                                ",
" .%%%%%%%%%%%%%%%%%%%%%%%%%%%%%%%%%%%%%%%%%%%%%%%%%%%%%%%%%%%%%%%%%%%%%%%%%%%%. ",
" .%#########################################################################%%. ",
" .%%#########################################################################%. ",
" .%#####+++++++++++++++++++##+++++++++++++++++++++##+++++++++++++++++#+++####%. ",
" .%####-;;;;;;;;;;;;;;;;;;;=$-;;;;;;;;;;;;;;;;;;;;*#-;;;;;;;;;;;;;;;;;;;;*+##%. ",
" .%###$>'''''''''''''''''''=='''''''''''''''''''''*=,''''''''''''''''''''=+##%. ",
" .%##+=,'''''''''''''''''',&-''''''',',',''''''''>&;'''''',>;;>>''''''''>*###%. ",
" .%###*;;;;;;,'''''';;;;;;-+>'''''';=-==-;,'''''';*,'''''';$+++&>,,,,,,';####%. ",
" .%####+#+++&,''''',&+++#++&>''''',=+++++$,''''''-='''''''>--=*$&*****=*&####%. ",
" .%###+####+-''''''>+#####+=,'''''>$+++++-,''''',=='''''''''',,,>;-==$++#####%. ",
" .%########+;'''''';+#####+-'''''',-;-;-;,''''''>$*,'''''''''''''''''>-$#####%. ",
" .%########$>''''''=+#####$;''''''''''''''''''',=++=>'''''''''''''''''';+####%. ",
" .%#######+*,''''',&+#####&>'''''''''''''''''',=+##+*=-;>,,,''''''''''',&####%. ",
" .%#######+-''''''>$#####+=''''''''''''''',,>-*+#++#+$+$+$*==-;,''''''',*+###%. ",
" .%#######+;'''''';+#####+-''''''>=--=---==*#++#&;;;;;;;;=+++++>'''''''>+####%. ",
" .%#######$>''''''=+##+###;''''''-+++++++$+#+##+=,''''''',-==-;,'''''''-#####%. ",
" .%######+=,''''',*######&,''''',=+############+&>''''''''''''''''''''-$+####%. ",
" .%######+=,,,,,,;&######*,,,,,,>&##############+-,,,,,,,,,,,,,,,,,,>-$######%. ",
" .%#######&****==*#######&******&+####+#+#########**=**=*=*=**=*=****+++#####%. ",
" .%#####$$$$&*$+++##++###++*======&#+#$$&**&#+####+++++++++++++++*====-=$####%. ",
" .%###&-;>>>>,=&;;#=;;=+*;*;'',,,>=$->;>>>,-$&###$*&--####&&&&&&&>'',,,>*####%. ",
" .%##+&,,;----&&>;$-'';+=,-;'-===*+&,';----*=;*##=>=>>$#+=>>>>>>*>,-==**#####%. ",
" .%###&,>$+$+$+&==$;,,>$=,-;'*+++++*,,&+$$++=,*#+-,=>>&#+=,'''',=>,&++++#####%. ",
" .%##+*>,&+####*,>$;,;,==,-;';--=#+&,,=+###+=>*#+=,-;,&+#&**;,=*$>';--*######%. ",
" .%###&>,*####+*',&;>-,-=,-;'''';$+&,,=+###+=>=++=,=>,&###++;,&+&>'''';+#####%. ",
" .%##+*>'=+##+#*,>$;>-,;*,-;',>,;$#&,'=+###+=>=+#=,-;,*+###+;,*+&;',>,-$#####%. ",
" .%##+&>'-+$+$+*,,*;,=,>=,-;'-$&$##&,'=$$+$+=,*++=,-;'=$$$#+>,*+$>,=$&&######%. ",
" .%###*>'>;>;;-*,,&;,=>,>,-;'=+++++&,',;>;;-*,-&&-,-;'>>>>;*>,&+$>'&+++++####%. ",
" .%##+&,''''''>*,,*;,*>'''-;';--;--=,''''''>*>,,>,,=>''''''->>&#$>,;--;--*+##%. ",
" .%###&;>>>>>>-&>;&-;*-,,,-->>>>>>;=;>>>>>>;$->>>>-$;>>>>>>=;;&##;>>>>>>;*+##%. ",
" .%####&&$$$$$##$$#$&##&&&##$&$$$$$#$&$$$$$#++#$$&##$#$++++#$&####$$&$$$$####%. ",
" .%%%%%%%%%%%%%%%%%%%%%#%#%%%%%%%%%%%%%%%%%%%%%%%#%%%%%%%%%%%%%%%%%%#%%%%%%%%%. ",
" .@@@@@@@@@@@@@@@@@@@@@@@@@@@@@@@@@@@@@@@@@@@@@@@@@@@@@@@@@@@@@@@@@@@@@@@@@@@@. ",
"                                                                                ",
"                                                                                ",
"                                                                                ",
"                                                                                ",
"                                                                                ",
"                                                                                ",
"                                                                                ",
"                                                                                ",
"                                                                                ",
"                                                                                ",
"                                                                                ",
"                                                                                ",
"                                                                                ",
"                                                                                ",
"                                                                                ",
"                                                                                ",
"                                                                                ",
"                                                                                ",
"                                                                                ",
"                                                                                ",
"                                                                                ",
"                                                                                ",
"                                                                                ",
"                                                                                "};
