/* XPM */
static char * TSF_xpm[] = {
"80 80 16 1",
" 	c None",
".	c #1D488A",
"+	c #23539D",
"@	c #265497",
"#	c #3C5888",
"$	c #4D6D9E",
"%	c #BF7737",
"&	c #728FB6",
"*	c #8DA3C3",
"=	c #D0A985",
"-	c #A3B6CD",
";	c #B4C4D6",
">	c #C6D3E1",
",	c #EACFB4",
"'	c #DBE8F3",
")	c #FBFDFE",
"                                                                                ",
"                                                                                ",
"                                                                                ",
"                                                                                ",
"                                                                                ",
"                                                                                ",
"                                                                                ",
"                                                                                ",
"                                                                                ",
"                                                                                ",
"                                                                                ",
"                                                                                ",
"                                                                                ",
"                                                                                ",
"                                                                                ",
"                                                                                ",
"                                                                                ",
"                                                                                ",
"                        ,,                                                      ",
"                  ,>>>;,%%=>;>>,'                                               ",
"            ,=,;-=;>,>',=%,,'>>;;=--;>     '>**$$+#+#.....@@$$&*>               ",
"           '%%='                    '>-***$$.....+.+++++++++.+...$&>            ",
"          >*=%,                     >*&...+.@+++@@@@@@@+@@@+++@+@...&>          ",
"         ,-                      >&$...@@@@@+++++@@@+@+@+#@@@@@@+@@@.#-         ",
"        ;;                    >&$...@+@@@+++@+@+@+@+@+@+++++++++@+@@+..&        ",
"       ,;                   -&...++++++++@+@@@@@+@@@@@@@+++++++@@@@@+++.-       ",
"       *                  *@..@+++++@+@+@+@+@+@+++@+@+@+++@@@+@+++@++++.#'      ",
"      >,                *$.++@@@+#+@@@@@+++@+@+@@+++@@@++@+@+@+@+#++@#@#.-      ",
"      ;               -#..+.+.+.+...+.+++.........++@.@.+.+.+.+.+.+.@@+@.$      ",
"      *             ;$@$$$$$$$$$$$$$$$+@.$$*****&&@..@+$$$$$$$$$$$$$$++@.&      ",
"     =%=           &..-')')')')')')')-.@-'))))))))'*#.+;)')')')')')'>++@.$      ",
"     ,%,         >$.+@-))))))))))))));#'))))))))))))>$.>))))))))))))'$+@.*      ",
"      >;        *..++.-))')))))))')')*-))))'-**;)))))-.;)))))')')'))'+.+.-      ",
"       -      '&.++@+@#&$&$-))))*$$&$$>))))&....*))))'#>))))&$$&$&$&$@++#       ",
"       ->    >$.++@@@@@.+..&))))&.+..+'))))*$##..#$$$$#;)))'#........++.&       ",
"        -   ;#.++@@+@#@@+@.*))))&.+++#;)))))))'>-*$$...>))))**&*&*&*$@.#'       ",
"        >= ;#.++@@@+@+++++.&))))*.@+@.$')))))))))))';+.;))))))))))))&..-        ",
"         ;;$.+++@@+@@@+@++.*))))&.@@+@.$;')))))))))))'#>))))))))))))&.&         ",
"          #.++++@@@+@@@+++.&))))*.@++++..@$$*->>))))))--)))';-;-;;;-$#-         ",
"         &.@+@+@@@@@+@++++.&))))&.+@+$$&$&$#.#.#$)))));>))))#..@.@..#)';        ",
"         .@+++@@@+@@@+++@+.&))))*.+@+@'))');.....>))));;)))'$.@@@..@   ;>       ",
"        $++@+@@@++@@@@+@@@.*))))&.+@+#>)))))>*&*>)))))&;))))$+@@+.$     -       ",
"        .+++@+@+++@@++++@+.&))))*.+++.&')))))))))))));#;)))'$.@..$      ;>      ",
"       &.@@@@@+@@#@++++@++.*))))&.++++.$>))))))))))'*#.>))))$@.#*        ;      ",
"       @++@@@++@..#@@.@.$+.@&$&$$.$+@.@..$&*--;--&&@..@$&$&$@.$          =      ",
"       #+++@+@+#$>>'>$#;'';$....$>'';$.@++.+.@.#.+.++@++.+...&           ;      ",
"       .++@@@++.*)%$)**)$#';##%.;'$#'-.+@+@+@@@++++@@@@++..#;            ;      ",
"       #+@@@+++.$)>>'&&)*&''#=%%*)&*''@@@@@@+@+@@@@@@@++.$*              -      ",
"       @@@@+++@.;'$#';#*;*>>##%#$*-*'>++@@@@@++++++@+..@*               =%,     ",
"        .++@@@@#-)*=)-$'=*'-.##.&'*=)&.++++@@@@@++++.#&                 =%,     ",
"        #.@@@@@.#&;-&+@$--&.++++@&--&.@+++++++@@+..#*                   -,      ",
"         ..@@@+++....++@.+.++@@++@...@@@@$+@++..@&                     ;>       ",
"          @.++++++@+++@@@+++++@+@.+++@++@.@...$*                      -;        ",
"           &..+@@@+@@@@@+++@@@+#@@++++++.@@&*                       >->         ",
"             $#...@+@@@+++++++@++.....#$$&>                     =,,*;           ",
"               -$$@+...+.+...+.@@$$&*    ';;->>    ,,        '>=%=,             ",
"                   ;-&&&&%&&**-              >>;;==%%=;-;=;-;=>>==              ",
"                                                   ==                           ",
"                                                                                ",
"                                                                                ",
"                                                                                ",
"                                                                                ",
"                                                                                ",
"                                                                                ",
"                                                                                ",
"                                                                                ",
"                                                                                ",
"                                                                                ",
"                                                                                ",
"                                                                                ",
"                                                                                ",
"                                                                                ",
"                                                                                ",
"                                                                                ",
"                                                                                ",
"                                                                                ",
"                                                                                ",
"                                                                                ",
"                                                                                ",
"                                                                                "};
