/* XPM */
static char * TSR1_xpm[] = {
"80 80 16 1",
" 	c None",
".	c #0F1C75",
"+	c #0F228B",
"@	c #2E3984",
"#	c #3C403C",
"$	c #3F463E",
"%	c #434943",
"&	c #484D48",
"*	c #5E615D",
"=	c #5F688C",
"-	c #7B839C",
";	c #9D9D9D",
">	c #99A5C9",
",	c #B7B8B8",
"'	c #C4CAD8",
")	c #FBFCFA",
"                                                                                ",
"                                                                                ",
"                                                                                ",
"                                                                                ",
"                                                                                ",
"                                                                                ",
"                                                                                ",
"                                                                                ",
"                                                                                ",
"                                                                                ",
"                                                                                ",
"                                                                                ",
"                             @..+...+.......+...+.......=                       ",
"                          =@..+++++++++++++++++++++++++++@.                     ",
"                         @+++++++++++++++++++++++++++++.+++.@                   ",
"                        .++++++++++++++++++++++++++++@++++++.#                  ",
"                       ..++..+@.+++++++++++++++++++++.+++++++.@                 ",
"                      @++..='>+++++++++++++++++++++++++++++++++#                ",
"                     =.+.@')-...+++++++++++.+++.+++++++++++.+++.=               ",
"                     #++@))=.+++++++++++++++++++++++++++++++++++.               ",
"                     ..@))=.++++++++++++++++++++++++++++++++++++.=              ",
"                    @+.')-.++++++++++++++++++++++++++++++++++++++=              ",
"                    +.=)'.+++++.+++++++++++++++++++++++++++++++++.              ",
"                    ..>)@.+++++++++++++++++++++++++++++++++++++++@              ",
"                    ..'>.++++.+++.+++++++.+++++++++++.+++.++++++++              ",
"                    ..>=.+++++++++++++++++++++++++.+++++++++++.++@              ",
"                    ..=++++.+++++++++++++++++++++++.++++++++++++++              ",
"                    .+.++@++++++++++++++..++.++++++++++++++++++++@              ",
"                    ..+++++++++++++++++.@='>-@..+++++.+++.+++++++.              ",
"                    .+++++++++++++++++.-))))))=.+++++++++++++++++@              ",
"                    .++++++++++++++++.=')))))))=.+++++++++++++++++              ",
"                    .++++++++++++++++.-)))))))),.++++++++++++++++@              ",
"                    .++++.+++.+++++++.'))))))))>.++.+.+++.++++++++              ",
"                    .++++++++++++++++.-))))))))'.++++++++++++++++@              ",
"                    .++++++++++++++++.=))))))))=.+++++++++++++++++              ",
"                    .++++++++++++@+++@.>))))))-.++++++++++++++.++@              ",
"                    @++++.+++.+++.++++..=-))>@..+++.+.+++.+++.+++.              ",
"                    .+++++++++++++++++++..@@..++++++++++++++++.++@              ",
"                    @++++++++++++++.+++++++.+++++++.+++++++++.+@+.              ",
"                    .++++++++++++@+++@++++++++++++++++++++++++@-.@              ",
"                 ''=.++++++++.+++.+++.+++++++.+++++++.+++++++.'>.+              ",
"               ),,;-.@++++++++++++++++++++++++++++++++++++++.@)>.@              ",
"             ''>>;;*.++++++.+++++++++++++++++++++++.+++.+++..>)@.@              ",
"             ',,;;--.++++++++++++++++++++++++++++++++++++++.-)'@.=              ",
"            ',,;;*-**.+++.+++.+++.+++.+++.+++.+++.+++.++++.=)'@..@              ",
"            ',;,;;-;=.+++++++++++++++++++++++++++++++++@+.@))=.++               ",
"             ,,;>;;--@..+++++++++++++++++++++++++++++++..-)'@.+.=               ",
"              '',,;;;-.+++++++++++++++++++++++++++++++++->=@.+.@                ",
"                ',,;;;=.+.+++++++.+++.+++.+++.+++.++++++@..++..                 ",
"                 ' ',,>=..++++++++++++++++++++++++++++++.+++.@                  ",
"                     '',-@.++++++++++++++++++++++++++.+++++.@                   ",
"                           @.@.++@++++++++++++++++++++++.@@                     ",
"                            =@@.+.....+.+.+.+.+.+.+.+...=@                      ",
"                                                                                ",
"                                                                                ",
"                                                                                ",
"                                                                                ",
"                    -**=*******        ;&&$*;        =*=***-;                   ",
"                    *#&$$$$$%#*      *%$%&%$#*       #$$$$%@%%&;                ",
"                    *&%&%&&%#%*     *%&%&&%%&        &%&%$#&&&%&                ",
"                    *#&%&%&$&#*     &$&$- ;**        %%%%* &$%&$;               ",
"                       *$&$*       -#&%$             &%&%   $&%%*               ",
"                       &&%$*       *$&&%$%% ,        %%%%   %%%#                ",
"                       *&&%*        &&%&%&%%%        &%&%&&%%&&%                ",
"                       &%%$*         *&%%%%%%%       %%%%$%&$%-                 ",
"                       *%&$=             -%&&&       &%&$&%%$&                  ",
"                       &%%$*        *    *%#&&       %%%%  #&$&                 ",
"                       *%&$        ;%%&%%&%&#*       &%&$  *%%#*                ",
"                       &&%$*       &%&&%&%%%*        %%%$  *$%%#-               ",
"                       *$&#-         *%&%%&          &%%$   %&%%%-              ",
"                                                                                ",
"                                                                                ",
"                                                                                ",
"                                                                                ",
"                                                                                ",
"                                                                                ",
"                                                                                ",
"                                                                                ",
"                                                                                ",
"                                                                                "};
