/* XPM */
static char * TSR2_xpm[] = {
"80 80 16 1",
" 	c None",
".	c #434842",
"+	c #6B6C69",
"@	c #D25A1D",
"#	c #E3560B",
"$	c #F65808",
"%	c #DE6421",
"&	c #FE5B02",
"*	c #D26D37",
"=	c #ED6A2A",
"-	c #DF824F",
";	c #A9A6A8",
">	c #E79D6D",
",	c #F2C099",
"'	c #DAD4CC",
")	c #FAFAF1",
"                                                                                ",
"                                                                                ",
"                                                                                ",
"                                                                                ",
"                                                                                ",
"                                                                                ",
"                                                                                ",
"                                                                                ",
"                                                                                ",
"                                                                                ",
"                                                                                ",
"                           ,-*%%%=%%%%%%%=%%%%%%%=%%%%@->                       ",
"                         ;*##$&$$$$$$$$$$$$$$$$$$$$$$$$$$*>                     ",
"                       ,-%$&&$&&&&&&&&&&&&$&&&&&&&$&&&$$$$#-,                   ",
"                      ,@#&&$$$=$&%&$&%&$&&&&&$&$&$$$$$$$$$&#*,                  ",
"                      =$$&#%==$&&&&&&&&&&=&&&&$$$&$$&=$&$&$=#*,                 ",
"                     *#$$@-,>#$$&$&&&&&&&%&&&&$$$$$$$&$$&$$$$#-                 ",
"                    -#&#*',>@&$&&&&&&&&&&&&&&&$&$$#$$$$&$&$&&&#>                ",
"                   ,%$#-),>@$$$$&&&&&&&&&$&$$$&#@=>->=##$$&$&$&@,               ",
"                   >#$-))>#$$&&&&&&&&&&&&=&&$&#*,))))),*#&&&&&$#-               ",
"                   =$@,)>#$$&&&&&&&&&&&&&$&$$$#>)))))))>%$&&&&&$-               ",
"                   #$-''@&&&&&&&&&&&&&&&&&%&$$-)))))))))=$&&&&&&=               ",
"                   @#>)*#$&$&&&&&&&&&&&&&&&&&#>))))))))'-$&&&$&$%               ",
"                   %#,,#$&&&&=&&&&&&&&&&&&&&&$>)))))))))-$&&&=&&*               ",
"                   @#>-#$$&$&&&&&&&&&&&&&&&&&#-,)'))))),-#&&&&&$=               ",
"                   #$>%&&$$&&&&&&&&&&&&&&&%=&&#>))))))'>#&&&&&&&=               ",
"                   #$$$&$$&&&&&&&&&&&&&&&&&$&&$#>'))),>@$&&&&&&$=               ",
"                   %$$$&$=&&&&&&&&&&&&&&&&&&&&&$@->,-*#$$&&&&=&&=               ",
"                   #$$$$$$&%&&&&&&&&&&&&&$&&&$$$&###$#$$$&&$&&&$=               ",
"                   #$&&&$&&&&&$&&&&&&&&&$&&&&&&&&&&&&&$&&&&&&&&&=               ",
"                   @&&&&&&&&&$$$&$&$&&&$$$&&&&&&&&&&&&&&&&&&&&&$$               ",
"                   #&&&&&&&&&&$$$=$&&&&$$&&&&&&&&&&&&&&&&&&&&=&&#               ",
"                   @&&&&&$&&&$$$&$&&&$&$$$&&&&&&&&&&&&&&&&&&$$&$$               ",
"                   #&&&&&&&&&&$&$&&&&&&&$&&&&&&&&&&&&&&&&&&&$$$$#               ",
"                   @&$&&&&&&&&$$$$&$$&&&&&&&&&&&&&&&&&&&&&&&$$$$=               ",
"                   #&&&&&&&&$%#*=-@$&&&&&&&&&&&&&&&&&&&&&&&&$=$$=               ",
"                   @&&$$&&&$#=,,),,-%#&&&&&&&&&&&&&&&&&&&&&$&$$$=               ",
"                   #$&$&&&$$-)))))))-#$&&&&&&&&&&&&&&&&&&&&&$==$=               ",
"                   @$$$$&$&$,))))))),%$$$&&&&&&&&&&&&&&&&&&$&=-#=               ",
"               '''-%$=$$$&#>)))))))))>#=&&&&&&&&&&&&$&&$$=%$#,>$=               ",
"            );';;+-$&$&$$$$-)))))))))>#&&&&&&&&&&&&$&$&$$#$#-,,#=               ",
"           ''';;;;+%&&&=&&$-))))))))'-$&&&&&&&&&&&&&&&&&&$#=,)-$=               ",
"          ';';;+;+*@&&&$&&$@>')))))),@$$&&&&&&&&&&&&&&&$$$@>),%#-               ",
"         )'';';;;;+*$&&&%&$&@,')))),%%&&$&&&&&&&&&&&&=&$$#>))-$$-               ",
"         '';';;+;+++%$&$&$$$$@=>>>*#%%&$$&&&&&&&&&&$&$&&#-)'>#$%                ",
"         )'''';;;;+;*$$&&&$&$$$%@##&&&&&$&&&&&&&&&&&$$%%>),-#$#>                ",
"          ';';';;;;+-%$$$$$$&&$$&&=$&&&$&&&&&&&&&&&$$$%->-*#$#-                 ",
"           )'''';,;;;;=$&&$&&=&&$&&$&=&=&&&&&&&&&&&&&&$=##$$$=                  ",
"             '';';;;;;-@$$&&&$$$$$$$&$&$&$$$&$&$&$&$&$$$$$$#%                   ",
"               )'''';';>*$$&&$$$&&$&$&$&&$$&$$$&$&$$$$$$$$#-                    ",
"                    ''',,-*@$$$$$$$$&&&&&&&&&&&&&&&&&$$##%>                     ",
"                          ,>-=#$#$$$$$$$$$$$$$$$$$$$##%--                       ",
"                                                                                ",
"                                                                                ",
"                                                                                ",
"                                                                                ",
"                   ++.+.+.+.++       ;+...+;        +.+.+.++                    ",
"                   +.........+      +.......+       ..........;                 ",
"                   ...........     .........        ...........                 ",
"                   +.+...+.+.+    ;..+.   ++        ....+;...+.;                ",
"                      .....       +....             ....;  ....+                ",
"                      ....+       +.......+         ....+  ....;                ",
"                      +...+        .........+       ...........;                ",
"                      ....+         ++.......       .........;                  ",
"                      ....+              ....       .........                   ",
"                      ....+        ++    ..+.       ....  ....;                 ",
"                      +...+        ..........       ....  ....+                 ",
"                      ....+       +..+.....+        ....  +....+                ",
"                      ....+        ++.....          ....   .....                ",
"                                                                                ",
"                                                                                ",
"                                                                                ",
"                                                                                ",
"                                                                                ",
"                                                                                ",
"                                                                                ",
"                                                                                ",
"                                                                                ",
"                                                                                ",
"                                                                                "};
