/* XPM */
static char * TV CANARIA_xpm[] = {
"80 80 16 1",
" 	c None",
".	c #008A6A",
"+	c #008E6F",
"@	c #019074",
"#	c #019377",
"$	c #17977A",
"%	c #31A188",
"&	c #6EA063",
"*	c #60B6A4",
"=	c #A1A85D",
"-	c #CDAF56",
";	c #F3AD41",
">	c #F5B34F",
",	c #97CEBF",
"'	c #F3BF6B",
")	c #F6D39B",
"                                                                                ",
"                                                                                ",
"                                                                                ",
"                                                                                ",
"                                                                                ",
"                                                                                ",
"                                                                                ",
"                                                                                ",
"                                                                                ",
"                                                                                ",
"                                                                                ",
"                                                                                ",
"                                                                                ",
"                                                                                ",
"                                                                                ",
"                                                  ;;;;;;;;'                     ",
"                                                  ;>>;>>>;'                     ",
"                                                  ;>>>>>>;'                     ",
"                                                  >>>>>>>;)                     ",
"                                                  >>>>>>>;)                     ",
"                                                  >;>>>>>;)                     ",
"                                                  >>>>>>>;                      ",
"                                                  ';>>>>>;                      ",
"                                                  '>>>>>>>                      ",
"                                                  ';>>>>>;                      ",
"                      '>;'                        '>>>>>;'                      ",
"                     >;;>;;'                      );>>>>>>                      ",
"                     ;>>>>>>          **$$$$$**,  );>>>>;'                      ",
"                    ';>>>>>;       *%...++@@@+..$%,;>->>;'                      ",
"                    ';>'>>>;      $++###########+.+&->>>;)                      ",
"                     ;>>>>;>    *.+##############@#@$=>>;'                      ",
"                     );;;>;    %.#####################=>;)                      ",
"                       '''    %.#@###@###@#####@#@####@=;)                      ",
"                             *.#######@###@#########@@&>;)                      ",
"                            *.#@#############@#@###@@=>>;                       ",
"                            +###########@+++@###@$@$=>;;;                       ",
"                           &++########@.@$%%$.+##.$                             ",
"                     ';;;;;&######@##@+,     ,%+.%                              ",
"                     '>>>>>&######@#.$         %%                               ",
"                     '>>>>>=@######@$                                           ",
"                     >>>>>>=@####@#.,               )>>'                        ",
"                     >>>>>>-######+%               ';>;>;                       ",
"                     ;>>>>>=######.*              );>>>>;>                      ",
"                     >>>>>>-@#####.               '>>>>>>>)                     ",
"                     ;>>>;>-$@####.               ';>>>>>;)                     ",
"                    );>>>>>>$#####.*              );>>>>;'                      ",
"                    );>;>>>;$@###@@$               >;;>;;                       ",
"                    );>>>>>>$#@###@+,               ''>'                        ",
"                    );>>>>>>&####@#+$                                           ",
"                    ';>>>>>>&######$.%         *%                               ",
"                    ';>>>>>>&@#@#@###+#*     ,%..%                              ",
"                    '>>>>>>>&@######@##.@%%%$++##+$                             ",
"                    ';>>>>>>=@#########@@.++@@#@##+.                            ",
"                    >>>>>>>>=@@$######@#######@###@#.                           ",
"                    >;>>>>>;)%.########@############@.                          ",
"                    ;>>>>>>;' %.################@#####.                         ",
"                    ;;>>>;>;'  %.##@###########@###@+.,                         ",
"                    ;;;;;;;;>   *.+#############@#@.$                           ",
"                                 ,$.+####@#@#####.+%                            ",
"                                   ,%+.++@@@++..@*                              ",
"                                     ,*%%#$#$%*,                                ",
"                                                                                ",
"                                                                                ",
"                                                                                ",
"                                                                                ",
"                                                                                ",
"                                                                                ",
"                                                                                ",
"                                                                                ",
"                                                                                ",
"                                                                                ",
"                                                                                ",
"                                                                                ",
"                                                                                ",
"                                                                                ",
"                                                                                ",
"                                                                                ",
"                                                                                ",
"                                                                                ",
"                                                                                "};
