/* XPM */
static char * tv5europe_xpm[] = {
"80 80 13 1",
" 	c None",
".	c #214694",
"+	c #2F4383",
"@	c #2D4197",
"#	c #2B4494",
"$	c #2C458E",
"%	c #415180",
"&	c #4C5C98",
"*	c #707EA9",
"=	c #A6B1D8",
"-	c #CED8F4",
";	c #E9F1FF",
">	c #FBFEFE",
"                                                                                ",
"                                                                                ",
"                                                                                ",
"                                                                                ",
"                                                                                ",
"                                                                                ",
"                                                                                ",
"                                                                                ",
"                                                                                ",
"                                                                                ",
"................................................................................",
"$$$$$$$$$$$$$$$$$$$$$$$$$$$$$$$$$$$$$$$$$$$$$$$$$$$$$$$$$$$$$$$$$$$$$$$$$$$$$$$$",
"################################################################################",
"$$$$$$$$$$$$$$$$$$$$$$$$$$$$$$$$$$$$$$$$$$$$$$$$$$$$$$$$$$$$$$$$$$$$$$$$$$$$$$$$",
"###############################################################################.",
"$$$$$$$$$$$$$$$$$$$$$$$$$$$$$$$$$$$$$$$$$$$$$$$$$$$$$$$$$$$$$$$$$$$$$$$$$$$$$$$$",
"################################################################################",
"$$$$$$$$$$$$$$$$$$$$$$$$$$$$$$$$$$$$$$$$$$$$$$$$$$$$$$$$$$$$$$$$$$$$$$$$$$$$$$$$",
"###############################################################################.",
"$$$$$$$$$$+#@#$####@##@@#######$#@$$##$$$$#++#@###@#$$#$+#@$$$$$$$$##$$$$$$$$$$$",
"##########$#@++++++++%+++%++++%+++++$####$+++++++%++++$+%+++$$$#+$$#$###########",
"$$$$$$$$$#$#$======================%$#$#$$========%===============&$#$$$$$$$$$$$",
"########$#$++>>>>>>>>>>>>>>>>>>>>>;-+#$++=>>>>>>>;%;>>>>>>>>;>>;>>&$#$#########.",
"$$$$$$$$#$$$$;>>>>>>>>>>>>>>>>>>>>>>%@#$*>>>>>>>>*%>>>>>>>>>>>>>>;*$$#$$$$$$$$$$",
"#######$####+;>>>>>>>>>>>>>>>>>>>>>>%##$=;>>>>>>-%*>>>>>>>>>>>>>>;*#$###########",
"$$$$$$$#$$##+>>>>>>>>>>>>>>>>>>>>>>>*##+>>>>>>>>%$=>>>>>>>>>>>>>>>&##$$$$$$$$$$$",
"######$##$#@$-;-->>>>>>>>----;;>>>>>;+$&>>>>>>>-$$;>>>>>=%++%+%++%$+$##########.",
"$$$$$$#$$$@@@&%%&->>>>>>>%%++*>>>>>>>+$*>>>>>>>*$+;>>>>>*&%***%++#$$$$$$$$$$$$$$",
"#####$###$+@####$->>>>>>>%++$+>>>>>>>%%->>>>>>>+++>>>>>>>>>>>>>>=+$@############",
"$$$$$#$$$#.#@.##$->>>>>>>%+$$$->>>>>>*+>>>>>>>;++%>>>>>>>>>>>>;>;*+$$$$$$$$$$$$$",
"####$###$$##$$$#$->>>>>>>%$###%>>>>>>>*>>>>>>;%$+%>>>>>>>>>>>>>>>;;+##$########.",
"$$$$#$$$##$@#$$#$->>>>>>>+$$#$#-;>>>>>>>>>>>>*+$+*-**&&&&=->>>>>>>>&#$#$$$$$$$$$",
"###$###$$$$@#$$#$->>>>>>>%+$@#$=>>>>>>>>>>>>>+$$#&&++$##$+%>>>>>>>>*$#$#########",
"$$$#$$$###$@#$#$$->>>>>>>%#$$@@#=>>>>>>>>>>>-#@&@*++$$$$+++;>>>>>>;*#$#$$$$$$$$$",
"##$###$$$$$@$$##$->>>>>>>+$+@$#++>>>>>>>>>>>+##+*>>>-=***->>>>>>>>>+##$########.",
"$$#$$$##$@$@#$$#$->>>>>>>%$#$@$++>>>>>>>>>>>+#$$=>>>>;>>>>>>>>>>>>>+#$#$$$$$$$$$",
"#$###$$#$$$##$#$$->>>>>>>%$#$@$+.*>>>>>>>>;=##$+-;>>>>>>>>>>>>>>;>%$#$##########",
"$#$$$##$$#$@$$#$#->>>>>>;%$$##$#++;>>>>>>>=+#$.+;>>>>>>>>>>>>>>>=+##$#$$$$$$$$$$",
"$###$$##$$@##$$$+->>>>>>>%$#$###$#->>>>>>>%+@$$+=->>>>>>>>>>>>;=%@@#$##########.",
"#$$$##$$#$$@$#$#+&*****&*++####$#$+&*%**%*++###$$$$+%*=====*%+$#$$#$$$$$$$$$$$$$",
"###$$##$#$$+$$#@@@@+@$##$$@$####@###$#$@#@##.##@@$$$##$$$$$@######@@############",
"$$$###$#$#######@#@$#@$@#$$$$+$$$$#$#@#@@##$+$+$$$$$$#@$#$$###$$$$$##$$$$$$$$$$$",
"##$$$#$$#$#$$#$##+$#$++#@@$+#.$$$$$$+####$@#.#$$#@#$#$$$$#@#+$$$.##@###########.",
"$$$@$##$#$$$$$#+$#$$$+$+@@###@##@#$$$$$#$$$.$##@@##$++$#$@@$$$###@@$$$$$$$$$$$$$",
"##$#$$#$#$##$##$$$$$#+$$#@..@#####$$$$$.$$+$$#######$$$##@$$$$#####$$###########",
"$$#$#$$#$#$#@@#@$$####$$#$$+$#$########$###$#$$$$$##@#@#$+$#$$$#@#$+#$$$$$$$$$$$",
"#$$###$#$#+$$#$++++$@@#@+$###$+$$##$$+$$$#$$#$$##$#$$$$$$$##$+++$##$###########.",
"$##$$$#$#$####+++**%+$++&&+#$&*+&&&&%**+++&**%+#$&%+%*%++@#+%***+$##$$$$$$$$$$$$",
"$$###$#$#$###@+=>;>;=+$+>=+#+*>%%*>>>>>=*>>>>>-$+*>>>>>>%##=>>>>;%+$############",
"##$$$#$#$#$##$&;>-->>*$+>=+#+=;%+*>>;;;%;;>-;;>++*;>;->>*@$;>--;>*+$$$$$$$$$$$$$",
"$###$#$#$#$@@+;>*++*>>++>=+++*>++*>;+++%>>%++;>*+*>*%+=>-+&>%+++>;&$###########.",
"#$$$#$#$#$#.$%;>---->>#$>=+++=>&$*>=@@$+>>+++=>=+*>+$+*>;%*>----;>*@#$$$$$$$$$$$",
"###$#$#$###$$+>>>>>>>>#+>=+##*>%+=>-+@.%>;+$#=>-%*>+#$&;;%*>>>>>>>*$############",
"$$$#$#$#$$@.$+;>%%++++@+>-+++=;++*>-$##&>>+##=>=+*>%$@*>;+*>%%+%&++##$$$$$$$$$$$",
"##$#$#$##.#$.#=>;%%**%#+;>=%*>>++*>=$#$$>>*%%>>%+*>-*%;>=$&>-%%%-+&$$##########.",
"$$#$#$#$$$@$$@*;>==;>=++;>;->>>%+=>-$@#+;>>;;>>++*>>;-;>*$+>>;=-;=++#$$$$$$$$$$$",
"#$#$#$###$#$$#@+->>>*+@#+->;==>++*>=$$#++*>>;=%++*>*->>=$$+%-;>;-+$#############",
"$#$#$#$$$###$+@#+++$@#++$++++++$@$++$#@#$$+$++$#+*>%+$+@##..@+++#+$@#$$$$$$$$$$$",
"$#$#$###$#$#.$##$.$$#$$$##+#$$$.#$$#$$##$$##.$$$+*>++$+$##$.@$$..$.############.",
"#$#$#$$$#$#.#$$$.$$$##$$#$#$##$$###$###$@$$$$##++*>+#@+#$$#$$$.$#.$##$$$$$$$$$$$",
"#$#$###$#$$$###$###$$##$@$#$$##$$$#$$$$$#$@$#$##+%*##@+$$$$##$##$#$$############",
"$#$#$$$#$###$$$#$$$##$$$$$$##$$###$#####$#$#$#$$#$+@@#.$@$@$$#$$#$##$$$$$$$$$$$$",
"$#$###$#$$$###$###$$#$@$##$$##$$$#$$$$$$$#$$#$#$$#$@##$$$$@$$##$#$$############.",
"#$#$$$#$###$$$#$$$##$#$#$$##$$###$#######$##$#$##$#$$$#$#@###$$#$##$$$$$$$$$$$$$",
"#$###$#$$$###$###$$#$#$##$$##$$$#$$$$$$$#$$#$#$#$$#$+$#$$@$$##$#$$##############",
"$#$$$#$###$$$#$$$##$#$#$$##$$###$#######$##$##$$$+@$+$@$$.##$$#$##$$$$$$$$$$$$$$",
"$###$#$$$###$###$$#$#$##$$##$$$#$$$$$$$#$$#$$####$@.+$@#$#$##$#$$##############.",
"#$$$#$###$$$#$$$##$#$#$$##$$###$#######$##$##$$$$.@$$#@$#$$$$#$##$$$$$$$$$$$$$$$",
"###$#$$$###$###$$#$#$##$$##$$$#$$$$$$$#$$#$$####$.$##.#$$###$#$$################",
"$$$#$###$$$#$$$##$#$#$$##$$###$#######$##$##$$$$#$#$$$$##$$$#$##$$$$$$$$$$$$$$$$",
"                                                                                ",
"                                                                                ",
"                                                                                ",
"                                                                                ",
"                                                                                ",
"                                                                                ",
"                                                                                ",
"                                                                                ",
"                                                                                ",
"                                                                                "};
