/* XPM */
static char * tv5fbs_xpm[] = {
"80 80 13 1",
" 	c None",
".	c #214694",
"+	c #2D4298",
"@	c #2D4393",
"#	c #2C458F",
"$	c #324786",
"%	c #415282",
"&	c #6979A5",
"*	c #A5B3D3",
"=	c #E4EFFE",
"-	c #FFFEEF",
";	c #FFFEF5",
">	c #FCFEFE",
"                                                                                ",
"                                                                                ",
"                                                                                ",
"                                                                                ",
"                                                                                ",
"                                                                                ",
"                                                                                ",
"                                                                                ",
"                                                                                ",
"                                                                                ",
"................................................................................",
"################################################################################",
"@@@@@@@@@@@@@@@@@@@@@@@@@@@@@@@@@@@@@@@@@@@@@@@@@@@@@@@@@@@@@@@@@@@@@@@@@@@@@@@.",
"################################################################################",
"@@@@@@@@@@@@@@@@@@@@@@@@@@@@@@@@@@@@@@@@@@@@@@@@@@@@@@@@@@@@@@@@@@@@@@@@@@@@@@@.",
"################################################################################",
".............................................................................@@.",
"################################################################################",
"@@@@@@@@@@@@@@@@@@@@@@@@@@@@@@@@@@@@@@@@@@@@@@@@@@@@@@@@@@@@@@@@@@@@@@@@@@@@.@@.",
"################################################################################",
"...........................................................................@.@@.",
"################################################################################",
"@@@@@@@@@@@@@@@@@@@@@@@@@@@@@@@@@@@@@@@@@@@@@@@@@@@@@@@@@@@@@@@@@@@@@@@@@@.@.@@.",
"################################################################################",
"@@@@@@@@@@@@@@@@@@@@@@@@@@@@@@@@@@@@@@@@@@@@@@@@@@@@@@@@@@@@@@@@@@@@@@@@@@.@.@@.",
"################################################################################",
"........................................................................@@.@.@@.",
"################################################################################",
"@@@@@@@@@@@@@@@@@@@@@@@##@@@@@@#@@@@@@@@@@#@@##@##@@@@@@@@@#@@@@##@@##@##@.@#@@.",
"@@###@@@##@@@##@@###++###@+++@##@##@+#+#@@@#@@@@###+++#@+##@###########.#@@##.##",
".@###.@@##************************&%.$##@#**********$*****************@.#@@.#@@.",
"@@..###@##>>>;>>>>>>;;>;;;;;;;;>>>>&#.#@+$>>>>>>>>>%%>>>>>>>>>>>>>>>=>####@@#@##",
".@#.#.@#$#>>>>>>>>>>;>>>>>>>>>>>>>>*#..+@$>;>>>>>>>%%>>>>>>>>>>>>>>>>>#@##@@@@@.",
"@@@#@####$>>>>>>>>>>>>>>>>>>>>>>>;>>#@.@$*;->>>>>=*$&>>>>>>>>>>>;;>>>>$@.#@@@@##",
"@@##@.@###=>>>>>;>>>>>>>>>;>>>>>>->>$@##&>>>>>>>>>$$*>>>>>>>>>>>>>>;>>#@.#@.#@@.",
"@.@######$>>>>>>>>>>>>>>>>>>>>;>>;;>&@#$*>>>>>>>>=$$*>>;>>;>>>>>>>>=>>#@##@@@@##",
"@@.#@@@###=>>>>>>>>>>>>>>>>=>>>>>>>>=#+#>>>>>>>>>&#%=>>>>>>%%%$$%%%%%%@@#.###@@.",
"@.###@@@.#$.#$%=>>>>>>>>$##$*>>>>>>>>$$%>>>>>>>>&%@*>>>>>>>&**==**%$##@#.@@#$.##",
"@@.#.@@@@...@$%=>;;>>>>>$@@#%=>>>>>>;%$&>>>>;;>;%$@*>>>>>>>=>=>>>>=&$$@##@@@$@@.",
"#@#.#.@#@#@@#@%=>>>>>>>=$@@##&>>>>>>>*$=>>>>>>>=@#+=>>>>>>>>>>>>=>>>=&#.#@+@@.##",
"#@#@.#@#@@@@.@%=>>>>>>>>$#@#.$=>>>>;>>&=>>>>>>>%#.#=>>>>>>>>>>>;>>>>>>&$.@@.#@@.",
".#@##.#.##+#.@%=>>>>>>>=#@#@##*>>>>>>;*>>>>>>;>$#@@>>>>=>===>>>>>>>>>>*$#@##@.##",
".#@@#.#.@#+#.@%=>>>>>>>>#@###@$>>>>>>;;>>>>>>>*####&%$##$$$$&*>>>>>>>>>$#+##@@@.",
"#.##@#@##@@@#@$=>>>>>>;=#@@##.#=>>>>;;>>>;>>>*$+##$##@##$##+$%=>>>>>>;>%@@#$@.##",
"#@.#@#@.#@+@.#&=>>>>>>>;$@@@#@@*>>>>>;>>>;>>>&#@@@&&%$#$$$##$%=>>>>>;>>$#+@#@@@.",
"@##@#@##.#@.#+$=>>>>>>;=#.@#@.#$*>>>>>>>>>>>=#@@.@=>>>**&$&&=>>>>>>>>>=$#@##@.##",
".@#.#.@#@.@@##%=>>>>>>>>#@@#@.#$%=>;>>>>>>>>&@@#@@=>>>>>>>>>>>>>>>>>>>&#$@@@##@.",
"##.#.##@##+.#@$=>>>>>>>>#@@#.@@$$=;->>>>>>>>%#.@$#>>>>>;>>>>>>>>>>>>=>$$#.+@$@##",
".#@#@.#.@####@&=>>>>>;>>$@@#$..##&>>>>>>;;>=#@@@$%=>>>>>>=>>>>;>>>>>*$..#.@@#@@.",
"#@#@##@##@##@@$=>>>>>>>=$++@.@@##%=>>>;>>>>&@@@##%>>>>>=>>>>>;>;>===$@##.#@..###",
"#@#@@#@.#@@###%=>>>>=>>=#++++@@##$==>=>=>>*$@@@###$%&==>>>>>=>=>*&$#@@.@@###.@@.",
".#.##.##@#.##@@@@++@##$$#@#$$$###@@@@@+#$$##@+@#@+@####@$$$%$$#@@@@+@####.@@####",
".#@.#@@#.#....@@+@+@#####..######@##@@+@#$##@+@@.@###@@+##$#####@@##.@..###@.@@.",
"#@##@##.#@@@######$$####.+++@@@@@@$$$$##@@#@.@@@@.#$#@#@###@#######.####@.@#####",
"#.@#..#@###@@##@@@@@..@@#@@+@####@@@@@+######@@@#.@@@+@@#####@++++@#@@@###.@.@@.",
"@##@##@#.@#@+#@++@@+@++@##@@####@@@+++@#.@###@@@##+++@+@@@###@+++@#####.@@######",
"@.#@@#@###$@+@#@.##@$.+@##@+##@@#@@@.@#$@++.#@@@####@##@@@@@##$$$$##.@###@.@.@@.",
"##.##.#@@.#.+@..#$.@##+@##@@#.@###@.@.@#@@+@#.@@#@@@.##$###@@@@@+@@@##@@.#######",
"@#..#.###...@@##.#.@..@...#@#@@@@##@##@.@.@.@.@..@@@@..#@@.@@@..@@@@.###@@.@.@@.",
"#@##@#..@###@#@.###.##.@##..@####.@#@@##.@##.#####.########...@@...@#..@########",
"#@@#@###@@@#@##.@@.@@.#@@###@.@@##.##.@@#@@#@.@@.@@.@@@..@#.@..@###@###.@@.@.@@.",
"@##@#@@@###.#.@#######.##@@@####@@#..###.##@##############@#####@@.#@@@#########",
".@#.###..@#.##@.@@..@#..###.@..##@##@..#..#.@..@.@@...@@.#@.@@.###.###@.@@.@.@@.",
"##.#..@###@#@@#######@##@..####..#@@###@##@##############.#####..@#...##########",
".#@###@@.#@##.@.@@@.#@@###@.@@##@##@@@#@@#@@@@.@.@@@@.@@#@@.@@###@###@@.@@.@.@@.",
"#@#@@.###@#..#######@##.@@####@@#@.###@##.##############@#####@@@#@@@###########",
"#@###@@@#.##@.@..@@#.@###@@..##.##@.@#..#...@@.@..@@@..#.@@..###.###..@.@@.@.@@.",
".#@.@###.#@@#######.##@@.####..#.@###.##@##############.#####..@#@.@############",
".###...#@##@@@@@..#@.###@@@@##@##.@.#@@#@@@.@@@@@..@@@#@.@@@###@###@@.@.@@.@.@@.",
"#.@@###@#@.#######@##..@####@@#@@###@##@##############@#####@@.#.@.#############",
"                                                                                ",
"                                                                                ",
"                                                                                ",
"                                                                                ",
"                                                                                ",
"                                                                                ",
"                                                                                ",
"                                                                                ",
"                                                                                ",
"                                                                                "};
