/* XPM */
static char * VH1_xpm[] = {
"80 80 14 1",
" 	c None",
".	c #EA2992",
"+	c #A04AB7",
"@	c #E3587A",
"#	c #99869C",
"$	c #39C3F3",
"%	c #ED7C92",
"&	c #CDA752",
"*	c #F3AB3F",
"=	c #FDAE32",
"-	c #F7B756",
";	c #C2DC2B",
">	c #FCDF3D",
",	c #FCEB35",
"                                                                                ",
"                                                                                ",
"                                                                                ",
"                                                                                ",
"                                                                                ",
"                                                                                ",
"                                                                                ",
"                                                                                ",
"                                                                                ",
"                                                                                ",
"                                                                                ",
"                                                                                ",
"                                                                                ",
"                                                                                ",
"                                                                                ",
"                                                                                ",
"                                                                                ",
"                                                                                ",
"                                                                                ",
"                                                                                ",
"                                  +++++..%-&&#### #                             ",
"                     + +++.+.............%-========&*&&&#####                   ",
"          ++++.+.........................%-*********=**====*====*&&&&&###       ",
"          ...............................%-*******************=**=****===#      ",
"    #     ...............................%-****************************==#      ",
"    #&    ...............................%-*****************************=#      ",
"    #=*&##...............................%-*****************************=#      ",
"     =*****%@............................%-*****************************=#      ",
"     *****=**@.......@.@@@@@.............%-*****************************=#      ",
"     &********......@>-&;;;&.............%-*****************************=#      ",
"     #=******=@.....%,-&;;;&.............%-*****************************=#      ",
"      #==******.....*,-&;;;&.............%-*****************************=#      ",
"       #&=*****@....-,-&;;;&.............%-*****************************=#      ",
"          ****=%....,,-&;;;&.............%-*****************************=#      ",
"          @*%*=%...@,,-&;;;&....@........%-*****************************=#      ",
"          %,>&%=...@,,-&;;;&.@&;;;%$$#...%-*****************************=#      ",
"          @,>,=%...*,,-&;;;&@;;;;;#$$$...%-*****************************=#      ",
"          .>,>,*@..->,-&;;;&;;;;;;#$$$#..%-*****************************=#      ",
"          .-,,,,@..>,,-&;;;;;;;;;;%$$$$$#%-*****************************=#      ",
"          .%,,>,%.@>>,-&;;;;;;&;;;#$$$$$$$-*****************************=#      ",
"          .@,>,,*.%,>,-&;;;;&@.@;;%$$$$$$$-*****************************=#      ",
"          .@>>>,-.*,>,*&;;;;@...%;#$$$$###>*****************************=#      ",
"          ..-,,,>.-,>,%&;;;&....@;#$$$+..%-*****************************=#      ",
"          ..*,>>,%>>,,@&;;;&....@;&$$$+..%-*****************************=#      ",
"          ..@,,>,->>,-@&;;;&....@;#$$$+..%-*****************************=#      ",
"          ..@>,>,>>>,-.&;;;&....@;&$$$+..%-*****************************=#      ",
"          ...>,>,>>,,%.&;;;&....@;#$$$@..%-*****************************=#      ",
"          ...->>,>,,>@.&;;;&....@;#$$$+..%-*****************************=#      ",
"          ...*,,>>>,>..&;;;&....@;%$$$+..%-*****************************=#      ",
"          ...@,,>>>,-..&;;;&....@;#$$$+..%-*****************************=#      ",
"          ...@>,,>,,%..&;;;&....@;#$$$@..%-*****************************=#      ",
"          ....-,,>,,@..;;;;&....@;&$$$+..%-*****************************=#      ",
"          ....-,,,,>@..&;;;&....@;#$$$+..%-*****************************=#      ",
"          .....@@@@@...&&&&&....@;#$$$#..%-*****************************=#      ",
"          .......................@@###...%-*****************************=#      ",
"          ...............................%-*****************************=#      ",
"          ...............................%-****************************==#      ",
"          +..............................%-****************=*=========*&&#      ",
"                 ++++....................%-********=======***&&#####            ",
"                          +++++..........%-==*****&&&####                       ",
"                                      ++++## #                                  ",
"                                                                                ",
"                                                                                ",
"                                                                                ",
"                                                                                ",
"                                                                                ",
"                                                                                ",
"                                                                                ",
"                                                                                ",
"                                                                                ",
"                                                                                ",
"                                                                                ",
"                                                                                ",
"                                                                                ",
"                                                                                ",
"                                                                                ",
"                                                                                ",
"                                                                                ",
"                                                                                ",
"                                                                                "};
