/* XPM */
static char * VIAJAR_xpm[] = {
"80 80 16 1",
" 	c None",
".	c #C01A1A",
"+	c #B32526",
"@	c #C72223",
"#	c #D2211F",
"$	c #D62A29",
"%	c #DC2828",
"&	c #B24143",
"*	c #C53E40",
"=	c #CB5658",
"-	c #CC6C6E",
";	c #DB8382",
">	c #E8A19F",
",	c #ECBBBB",
"'	c #FADAD9",
")	c #FEFBFA",
"                                                                                ",
"                                                                                ",
"                                                                                ",
"                                                                                ",
"                                                                                ",
"                                                                                ",
"                                                                                ",
"                                                                                ",
"                                                                                ",
"                                                                                ",
"                                                                                ",
"                                                                                ",
"                                                                                ",
"                                                                                ",
"                                                                                ",
"                                                                                ",
"                                                                                ",
"                                                                                ",
"                                                                                ",
"                                                                                ",
"                                                                                ",
"                                                                                ",
"                                                                                ",
"                                                                                ",
"      ++++++++++++++++++++++++++++++++++++++++++++++++++++++++++++++++++++&     ",
"      +$$$$%$%$%$%$%$%$%$%$%$%$%$%$%$%$%$%$%$%$%$%$%$%$%$%$%$%$%$%$%$$%%$$&     ",
"      +%%#$$$$$$$$$$$$$$$$$$$$$$$$$$$$$$$$$$$$$$$$$$$$$$$$$$$$$$$$$$$$%$$@&     ",
"      +%%$$%$%$%$%$%$%$%$%$%$%$%$%$%$%$%$%$%$%$%$%$%$%$%$%$%$%$%$%$%$*%%$%*     ",
"      +%%@$$$$$$$$$$$$$$$$$$$$$$$$$$$$$$$$$$$$$$$$$$$$$$$$$$$$$$$$$$$@%$$#*     ",
"      +%%$%%$%#$$%$%%%%%%$$%$$$%%%$%$$$$$$$$$$$$$$$%$%$$$$$$$$$$$%$%%%%%#%*     ",
"      +%..##%$%#..@$$.#@%$$#$$#.##%$$$$@$$$$#+@@$%%%%#@.$$$$$$%.@@@@##%%%#*     ",
"      +$*-=*@%$*==*$$===@%$%$**==*#%$$$%%%$$$==*@*#%#*==*$$$$%%=====&++$%%&     ",
"      +$,''-@$.-)'>.=,),*@$%@+,''=@#$@$$$$$.;');+@$$.-''>+$$$.*''''''>-+##&     ",
"      +@>))>.%.>));+=))'*%$%.-'));.$$$$$$$@+;))>+$$$+,))'*#%$#*)))))))'-.%&     ",
"      +.-))>@#$,))-.='),*#$%#;))),*#%$%$$$%.;))>@#$#*')))=.#$#=')',,))),*#*     ",
"      +#&))'$#*')'*#=))'*#$%@,)))'*#%%%%$%%.;))>@%%#=))))>@%$#*))'&+-)))=#*     ",
"      +#+,)'=.=');+.='),*#$.*')')';+%%%$$@%.;))>@#$.;')))>+@$@*'),+@+>));.&     ",
"      +%.>))-.-));.#=))'&#$@-)),')>+#%$$$$$.;))>@$@@>)',))*#$#*)),+#.>))-.&     ",
"      +$#-));.>))=#.='),&#%+;))-'),+#%$%%$%.;))>@##$'),;))-+$.='),+.-')'=.&     ",
"      +%#=))>&,)'*##=))'&%#+,)'=>)'*#$$%$%%+;))>.%@=');-))>+%#*))),'')),+$&     ",
"      +$#+'),&'),+%.='),*##*'),+;))-.#%#%$$.;))>@%+-)'=+'),+#.*')))))),*@@*     ",
"      +%%+>)';');+$#=))'*%.-))>&;))>+%%%@$$+;))>@%+,)'--,)'=##*)))'))'&@$$&     ",
"      +#%.;)),)'=.%.='),*#+;)))'')),&@*+=$%.;))>@#*'))'')))-..='),-')'*.%@&     ",
"      +%%#=))))'*$%#=))'+#+,))))))))=+;''-.#;))>.#=))))))))>@#*)),+>))>+#$&     ",
"      +$%@*,)))>@@%.='),*.*')',>,'));.>));++,))-..>)),,>,'),*.='),+=))'&##&     ",
"      +%$$.,)))>.$$#=))'&.=)),+*+;))>+-)))>,))'=#+,))-++&'))&.*)),+*,));.%&     ",
"      +$%$+-)))=@$$.='),*.>));+%#=))'++>))))))>+#&')'@##.>));.='),+.;)),$@*     ",
"      +%$$@='),=@$$@='',@$>)'-#%#*,),=.*>)))'>+$#-')>$#%.>');.*'',+@*'''=@*     ",
"      +%%#$+=&=+$$$@**=*#@===+$@$+*==@%#+=;-=.#%$$==*+$$$&===#$&=%$$@*==*.*     ",
"      +%%%$$@#@%$$$$#..$$$@#.$$$$$@#.$%*#..#.$$$$$.#@$$$$$.#@$$#@$$*$#.##$&     ",
"      +@$$$$%$%$$$%$%$%$$$%$%$%$%$%$%$%$%$%$%$$@$$%$%$%$%$%$%$%$%$%$$$$$$@&     ",
"      +%%%$%$%%%$%$%$%$%$%$%$%$%$%$%$%$%$%$%$%$%$%%%$%$%$%$%$%%%$%$%@%$$$$&     ",
"      +%%#$$$#$$$$$$$$$$%$$$$$$$$$$$$$%$%$$$$@$$$$%$$$$$$$$#$$$$$$$$%%%$$@*     ",
"      +%%%$$$$$$$$$$$$$$$$$$$$$$$$$$$$$$$$$%$$$$$$$$$$$$$$$$$$$%$$$%%%%%$$&     ",
"      +%%%%%%%%%%%%%%%%%%%%%%%%%%%%%%%%%%%%%%%%%%%%%%%%%%%%%%%%%%%%%%%%%%@*     ",
"      +++@++++++++++++++++++++++++++++++++++++++++++++++++++++++++++++++++&     ",
"                                                                                ",
"                                                                                ",
"                                                                                ",
"                                                                                ",
"                                                                                ",
"                                                                                ",
"                                                                                ",
"                                                                                ",
"                                                                                ",
"                                                                                ",
"                                                                                ",
"                                                                                ",
"                                                                                ",
"                                                                                ",
"                                                                                ",
"                                                                                ",
"                                                                                ",
"                                                                                ",
"                                                                                ",
"                                                                                ",
"                                                                                ",
"                                                                                ",
"                                                                                ",
"                                                                                "};
