/* XPM */
static char * W9_xpm[] = {
"80 80 11 1",
" 	c None",
".	c #5D0372",
"+	c #690281",
"@	c #692679",
"#	c #73527C",
"$	c #9A6BA4",
"%	c #B98CC2",
"&	c #CBA8D0",
"*	c #E2CAE6",
"=	c #F3E5F4",
"-	c #FDFDFB",
"                                                                                ",
"                                                                                ",
"                                                                                ",
"                                                                                ",
"                                                                                ",
"                                                                                ",
"                                                                                ",
"                                                                                ",
"                                                                                ",
"                                                                                ",
"                                                                                ",
"                                                                                ",
"                                                                                ",
"                                                                                ",
"                                                                                ",
"                                                                                ",
"                                                                                ",
"                                                                                ",
"                                                                                ",
"                                                                                ",
"                                                                                ",
"                                                                                ",
"    .++.+.+.          @.++.++..          #..+++++.++++.++++++.@#                ",
"    +++.++++#         .++.+++..#         @.+.+++..+..++++++++++.+@              ",
"    @+++++++@         +++++++++@         +.++++++++.+++++++++++++..#            ",
"    #.++++++.        #.++++++++.         .++.++++++++..........+++...           ",
"     .+..+++.        #+++..++++.        @+++.+++++++.@@#$$$$$$$@..++++          ",
"     +++.+++.#       @.+++..++++        @+++.+++++.@%*=--------=%#..++.         ",
"     #+++++++@       +++++++.+++#       .+++++++..$*-------------=%.++++        ",
"     #.+++++++       .++.++..++.@       ..+++++.@%-----------------&+++.@       ",
"      ++++++++       +++++++++++@      @.++++++.%-------------------%.++.       ",
"      @+++++++#     #++++++++++++      .++.+++.#---------=*==--------$.++.      ",
"      #.+++++.@     @++++++++++++      ++++.+.+&-------*$#@@$*-------*+.+.      ",
"       .+++++..     +++++++++++++#    #+++..+.@=------*@.....@=-------#.++#     ",
"       .+++++..     +++++++++++++#    @+++.+++#-------$.+++++.%-------$.++.     ",
"       @.+++.+.#    ++++++@++++++@    +++++.+.$=------$.+++++.$-------&.++.     ",
"       #++++.+++   #++.+++$@++++++    .+++++++#=------&.++++..&-------*.++.     ",
"        .++..+++   @++.++@&@++++++   #+.+++++.@=-------%@....$--------*.+++     ",
"        ++++.++.#  +++.++@ #+++++.#  @+.++++++.&--------*&%&*---------*.+++#    ",
"        @.+++.++@  .+++++#  ++++++#  .+++++.++.@=---------------------*.+++#    ",
"        #+.+++++@  .++.++#  ++++++@  +++++..++..#=--------------------&.+++     ",
"         .+++.++. #.+++++   ++++++@&#.++++...+++.#&----------*&=------%.++.     ",
"         @++++++.#@+++++.   @+.++++$@.++++..+++++.+$%*====*&%@#-------#+++.     ",
"         @+++++++..+++++.   #++++++.+.+++++.++++......@@#@@+..&------=@+++@     ",
"          ++++++++++++++@   #+++++++.++++++++++$$$$ $$#..++..$=------%.++.#     ",
"          ++++++++++++++#    ..+++++++++++++++.*-------$@@+@%=------=@+.++      ",
"          @+++++++++++++     +++++++++.+++...+.#--------***=--------$.+..@      ",
"          #++..++++++.++     @.+++.++++.+.@$++.+&------------------%..+.+       ",
"           ++.++++++++++     @++++.++++.++$ #.++@&----------------%.++..#       ",
"           ++++.+.+.+++@     #.++.++++.+++   #.++@%*------------*#...+.@        ",
"           @+++...++++.@      ++++++++++++    @++..@$&*==-=-==&$@.+.+.@         ",
"           #.+++.++.+++#      .++++++++..@     @.+++..@@#$$##@..+++++@          ",
"            .++++++++++       +++.++.+++.#      #+++++.......++++++.#           ",
"            +++++++++++       .++++.+++++         +..+++++++++++++@             ",
"            @.+.++...+.       @+++++++++.           #.++++++++..@               ",
"             @@@@@@@@@@        +@@@@@@@.#              #@@@@@#                  ",
"                                                                                ",
"                                                                                ",
"                                                                                ",
"                                                                                ",
"                                                                                ",
"                                                                                ",
"                                                                                ",
"                                                                                ",
"                                                                                ",
"                                                                                ",
"                                                                                ",
"                                                                                ",
"                                                                                ",
"                                                                                ",
"                                                                                ",
"                                                                                ",
"                                                                                ",
"                                                                                ",
"                                                                                ",
"                                                                                ",
"                                                                                ",
"                                                                                ",
"                                                                                ",
"                                                                                "};
