/* XPM */
static char * Wuerfelzucker_xpm[] = {
"80 80 12 1",
" 	c None",
".	c #808181",
"+	c #7C914B",
"@	c #7D9344",
"#	c #73A701",
"$	c #85B30B",
"%	c #93B830",
"&	c #AEAEAE",
"*	c #A7C94F",
"=	c #D0D0D1",
"-	c #E6E6E7",
";	c #FAFBFB",
"                                                                                ",
"                                                                                ",
"                                                                                ",
"                                                                                ",
"                                                                                ",
"                                                                                ",
"                                                                                ",
"                                                                                ",
"                                                                                ",
"                                                                                ",
"                                                                                ",
"                                                                                ",
"                                                                                ",
"                                                                                ",
"                                                                                ",
"                                                                                ",
"                                                                                ",
"                                                                                ",
"                                                                                ",
"                                                                                ",
"                                                                                ",
"                                                                                ",
"                                                                                ",
"                                                                                ",
"                                                                                ",
"                                                                                ",
"                                                          $$        @@%@    @+  ",
"                                                         @##       @$##$ %####  ",
"             .&-;;;&                                 @ @ @$#  %#% $#$##$@@$$@+  ",
"  &&...&==-;;;;-=&&-;;=   &                    +   ####  @$$$##$  #$$##$# $$$   ",
"  ;;;;;;--&&.        .=;--;..=&          @%% +##   %#$## @$$$$#+  #$$##$#@$#$@  ",
"  =;;.                 -;;;;;;;  @$%$#+  $#%  $#@ %#%  %@@$$$$$$* $#%   @ %$$@  ",
"  .;;;=            &=;;;-=;;&   @#####   +##  ##@ %#*    @#$$$$#% $#% @#$ %##%  ",
"   ;- &--&     .&-;;;=.   &;       $$#%@ +##  %#@ ##*  *@ #$#$##$ +###$#+  $%+  ",
"   -;   &;;=&=;;;-&.       ;     *$##%%+  $$  %#+ ##$%%#@ ##% +##%  %$%         ",
"   =;     .-;;=&           ;&     %$%    +$#%%#$% @%###$  *$%  %@  + +    @     ",
"   .;&      &-             -=    %$%     @#$$####+  %$%    ++@                  ",
"    ;=      .;             &;   @#$%%#$   ####$+++        #@                    ",
"    ;-      .;             .;   $####%%+  %@                                    ",
"    --       ;.             ;   ++@                                             ",
"    --       ;&             ;.   @@%                                            ",
"    ;=       ;=             ;&                                                  ",
"    ;=       --             -=                                                  ",
"   &;&       --             -=      &.                                          ",
"   =;.       =-             -=      ;-                                          ",
"   &;        =-             -=      ;=                                          ",
"    =-&      -=                  . .;.        &                                 ",
"      =-=    ;=                  ;-     ..   &;&                                ",
"        &;=  ;=          .&=-;=  ;=    .;-                                      ",
"          &--;=     .=-;;;;-==&         &                                       ",
"            &;;---;;;-=&.                                                       ",
"              &&&.                                                              ",
"                                                                                ",
"                                                                                ",
"                                                                                ",
"                                                                                ",
"                                                                                ",
"                                                                                ",
"                                                                                ",
"                                                                                ",
"                                                                                ",
"                                                                                ",
"                                                                                ",
"                                                                                ",
"                                                                                ",
"                                                                                ",
"                                                                                ",
"                                                                                ",
"                                                                                ",
"                                                                                ",
"                                                                                ",
"                                                                                ",
"                                                                                ",
"                                                                                ",
"                                                                                ",
"                                                                                ",
"                                                                                ",
"                                                                                ",
"                                                                                ",
"                                                                                "};
