/* XPM */
static char * YOU FM_xpm[] = {
"80 80 3 1",
" 	c None",
".	c #000000",
"+	c #FF0000",
"                                                                                ",
"                                                                                ",
"                                                                                ",
"                                                                                ",
"                                                                                ",
"                                                                                ",
"                                                                                ",
"                                                                                ",
"                                                                                ",
"                                                                                ",
"                                                                                ",
"                                                                                ",
"                                                                                ",
"                                                                                ",
"                                                                                ",
"                                                                                ",
"                                                                                ",
"                                                                                ",
"                                                                                ",
"                                                                                ",
"                                                                                ",
"                                                                                ",
"                                                                                ",
"                                                                                ",
"                                                                                ",
"                                                                                ",
"                                                ....                            ",
"                                               .....                            ",
"                                               .....                            ",
"                                               ...                              ",
"     +++      +++      +++++       +++    +++ ......  ...  ....    ....         ",
"     +++      +++    +++++++++     +++    +++ ......  .......... .......        ",
"     ++++    +++    +++++++++++    +++    +++ ......  ...................       ",
"      +++    +++    ++++   ++++    +++    +++  ...    ....   .....   ....       ",
"      +++   ++++   ++++     ++++   +++    +++  ...    ...     ...     ...       ",
"       +++  +++    +++       +++   +++    +++  ...    ...     ...     ...       ",
"       +++  +++    +++       +++   +++    +++  ...    ...     ...     ...       ",
"       +++++++     +++       +++   +++    +++  ...    ...     ...     ...       ",
"        ++++++     ++++     ++++   +++    +++  ...    ...     ...     ...       ",
"        +++++       ++++   ++++    ++++  ++++  ...    ...     ...     ...       ",
"         ++++       +++++++++++     ++++++++   ...    ...     ...     ...       ",
"         ++++        +++++++++      ++++++++   ...    ...     ...     ...       ",
"         +++           +++++          ++++     ...    ...     ...     ...       ",
"         +++                                                                    ",
"        +++                                                                     ",
"        +++                                                                     ",
"       +++                                                                      ",
"       +++                                                                      ",
"                                                                                ",
"                                                                                ",
"                                                                                ",
"                                                                                ",
"                                                                                ",
"                                                                                ",
"                                                                                ",
"                                                                                ",
"                                                                                ",
"                                                                                ",
"                                                                                ",
"                                                                                ",
"                                                                                ",
"                                                                                ",
"                                                                                ",
"                                                                                ",
"                                                                                ",
"                                                                                ",
"                                                                                ",
"                                                                                ",
"                                                                                ",
"                                                                                ",
"                                                                                ",
"                                                                                ",
"                                                                                ",
"                                                                                ",
"                                                                                ",
"                                                                                ",
"                                                                                ",
"                                                                                ",
"                                                                                ",
"                                                                                "};
