/* XPM */
static char * Zi_One_xpm[] = {
"80 80 16 1",
" 	c None",
".	c #071E75",
"+	c #293A7A",
"@	c #48588C",
"#	c #6A614B",
"$	c #6572A0",
"%	c #8B92AC",
"&	c #C2A84E",
"*	c #9FA8C6",
"=	c #F5C320",
"-	c #CBC3A4",
";	c #BDC4D8",
">	c #CFD6EA",
",	c #F7E188",
"'	c #E6EBF3",
")	c #FEFEFE",
"                                                                                ",
"                                                                                ",
"                                                                                ",
"                                                                                ",
"                                                                                ",
"                                                                                ",
"                                                                                ",
"                                                                                ",
"                                                                                ",
"                                                                                ",
"                                                                                ",
"                                                                                ",
"                                                                                ",
"                                                                                ",
"                                                                                ",
"                                                                                ",
"                                                                                ",
"                                                                                ",
"                                                                                ",
"                                                                                ",
"                                                                                ",
"                                                                                ",
"                                                                                ",
"                                                                                ",
"  )))))))))))')')'))))))))))))))))))))))))))))))))))))))))))))))))))))))))))))  ",
"  )))))))))'>;**%**'))))))))))))))))))))))))))))))))))))))))))))))))))))))))))  ",
"  )))))))>-%&&&&&%&**@*'))))))))))))))))))))))))))))))))))))))))))))))))))))))  ",
"  ))))))--&======,,;...;))))))))))))))))))))))))))))))))))))))))))))))))))))))  ",
"  )))))';&,=,====&,&...$)))))))))))))))))))))')))))))))))))))')))))))))))'))))  ",
"  ))))))))))))))),&>++@>%>))))))))))))))))))))))))))))))))))))))))))))))))))))  ",
"  )))))))))))))))>#*,-,,$@)))))))>*%$$$$%;'))'*$%$%''*$@$$;')))))>*$$$$$*>))))  ",
"  )))))))))))))))'+%=,==,#*))))'$+.......+@>))@....%+......$'))>$+.......@%'))  ",
"  )'>;;;>;>')')')%.%,,,=,#@'))'@...........+>'$.............%);+...........@')  ",
"  ))%$####%)))));+@)))>&&-.;));+.+.+%;*$....$'@....@*;*@....@)@....$*>*@....$)  ",
"  )-*&=&&&'))));++-,))'+&=@$))*....$)))>+...@>$....*)))*+...$>@...+>)))%....@'  ",
"  )*====,)))))*++==,,)>@&,$@))%..+.*))))@...+>$...+')))>+...$'+...+>'''*.+..@'  ",
"  '%====)')));+.===&,)'@&=%.')%....%)))'@...+>$...+;)));+...$>+....++++.....@>  ",
"  '-===)))))'$+=====,)>#&,%+>)%..+.*))))@...+>$....>)))>+...$'+.............@'  ",
"  '%&=,))))'$.&====&,)'@&,%.')%....%)))'@...+>$...+;)));+...$>+...+%******;*;'  ",
"  )&&)))))'%.&======,)>@&,$+')%..+.*))))@...+>$...+>)))>+...$'+...+)))))')))))  ",
"  )*>,)))'%.%&===&==,>%+=&+@))*....@'''*+...@>$....;)));+...$'@...+*'''%@@@+%'  ",
"  )))))))'*>'),),,====#==&.*))>+....+$@+....%)@....>)))>+...@)%....+@$++....*)  ",
"  ))))))))))))))))-&====,#+>)))*+.........+$''@....;)));....@')$+.........+*))  ",
"  ))))))))))))))))*#===,>+$)))))>%@@+++@+$*)))$@+@@>)))>+@++$)));%@++++@@*>)))  ",
"  ))))))))))))))))$+===,@.>))))))))>>;>>')))))'>'>''))))'>'>')))))'>>;>>))))))  ",
"  ))))>***%***%**%.#=,-$.*))))>''';'''>))'>>''''>'''>''>'))>''''>'''));''>'>>)  ",
"  ))))'@.$%#######&&,%+.*)))));-)'%*;;;>)-;%>;-;-%>;%>'*;)'%>%>**;;;)'&;;%>*;'  ",
"  )))))'##%,,,,,,),;@.+;))))))')))')')')))''))''''')')))'))'''')')))))''''))')  ",
"  )))))))$++$#&**$@..$>))))))))))))))))))))))))))))))))))'))))))))))))))))))))  ",
"  ))))))))>*@@+++++$>)))))))))))))))))))))))))))))))))))))))))))))))))))))))))  ",
"  )))))))))))>>*;;'))))'))))))))))))))))))))))))))))))))))))))))))))))))))))))  ",
"  ))))))))))))))))))))))))))))))))))))))))))))))))))))))))))))))))))))))))))))  ",
"  ))))))))))))))))))))))))))))))))))))))))))))))))))))))))))))))))))))))))))))  ",
"                                                                                ",
"                                                                                ",
"                                                                                ",
"                                                                                ",
"                                                                                ",
"                                                                                ",
"                                                                                ",
"                                                                                ",
"                                                                                ",
"                                                                                ",
"                                                                                ",
"                                                                                ",
"                                                                                ",
"                                                                                ",
"                                                                                ",
"                                                                                ",
"                                                                                ",
"                                                                                ",
"                                                                                ",
"                                                                                ",
"                                                                                ",
"                                                                                ",
"                                                                                ",
"                                                                                ",
"                                                                                ",
"                                                                                ",
"                                                                                "};
