<?xml version="1.0" encoding="UTF-8" standalone="no"?>
<!-- Created with Sodipodi ("http://www.sodipodi.com/") -->
<svg
   xmlns:xapMM="http://ns.adobe.com/xap/1.0/mm/"
   xmlns:xapGImg="http://ns.adobe.com/xap/1.0/g/img/"
   xmlns:xap="http://ns.adobe.com/xap/1.0/"
   xmlns:pdf="http://ns.adobe.com/pdf/1.3/"
   xmlns:ns="http://ns.adobe.com/SaveForWeb/1.0/"
   xmlns:x="adobe:ns:meta/"
   xmlns:xml="http://www.w3.org/XML/1998/namespace"
   xmlns:dc="http://purl.org/dc/elements/1.1/"
   xmlns:cc="http://web.resource.org/cc/"
   xmlns:rdf="http://www.w3.org/1999/02/22-rdf-syntax-ns#"
   xmlns:svg="http://www.w3.org/2000/svg"
   xmlns="http://www.w3.org/2000/svg"
   xmlns:xlink="http://www.w3.org/1999/xlink"
   xmlns:sodipodi="http://inkscape.sourceforge.net/DTD/sodipodi-0.dtd"
   xmlns:inkscape="http://www.inkscape.org/namespaces/inkscape"
   inkscape:export-ydpi="240.00000"
   inkscape:export-xdpi="240.00000"
   inkscape:export-filename="/mnt/vdrsrc/xxv/devlop/XXV-Skins/stone/images/audio.png"
   width="48pt"
   height="36.000000pt"
   viewBox="0 0 256 256"
   overflow="visible"
   enable-background="new 0 0 256 256"
   xml:space="preserve"
   id="svg3232"
   sodipodi:version="0.32"
   sodipodi:docname="audio.svg"
   sodipodi:docbase="/mnt/vdrsrc/xxv/devlop/XXV-Skins/stone/images/artwork"
   inkscape:version="0.41.1">
  <defs
   id="defs3296">
  <linearGradient
   id="linearGradient3897"
   gradientUnits="userSpaceOnUse"
   x1="128.0024"
   y1="39.8628"
   x2="128.0024"
   y2="216.1587">
      <stop
   offset="0.0000000"
   style="stop-color:#330033;stop-opacity:1.0000000;"
   id="stop3899" />


      <stop
   offset="1.0000000"
   style="stop-color:#000066;stop-opacity:1.0000000;"
   id="stop3901" />


      
      
      
    </linearGradient>

  <linearGradient
   id="linearGradient3891"
   gradientUnits="userSpaceOnUse"
   x1="127.7437"
   y1="211.125"
   x2="127.7436"
   y2="44.9092">
      <stop
   offset="0.0000000"
   style="stop-color:#330099;stop-opacity:1.0000000;"
   id="stop3893" />


      <stop
   offset="1.0000000"
   style="stop-color:#0000ff;stop-opacity:1.0000000;"
   id="stop3895" />


      
      
      
    </linearGradient>

  <radialGradient
   id="radialGradient3885"
   cx="100.5962"
   cy="124.4897"
   r="86.1955"
   fx="100.5962"
   fy="124.4897"
   gradientTransform="matrix(0.826 -0.0247 -0.0247 0.738 18.1722 45.3572)"
   gradientUnits="userSpaceOnUse">
      <stop
   offset="0.3933"
   style="stop-color:#FFFFFF"
   id="stop3887" />


      <stop
   offset="0.73030001"
   style="stop-color:#0000e1;stop-opacity:1.0000000;"
   id="stop3889" />


      
      
      
    </radialGradient>

  <linearGradient
   id="linearGradient3867"
   gradientUnits="userSpaceOnUse"
   x1="126.2256"
   y1="55.0059"
   x2="126.2256"
   y2="283.1829">
      <stop
   offset="0"
   style="stop-color:#FFFFFF"
   id="stop3869" />


      <stop
   offset="0.38200000"
   style="stop-color:#0000ff;stop-opacity:1.0000000;"
   id="stop3871" />


      <stop
   offset="0.43309999"
   style="stop-color:#0200fb;stop-opacity:1.0000000;"
   id="stop3873" />


      <stop
   offset="0.48740000"
   style="stop-color:#0900ee;stop-opacity:1.0000000;"
   id="stop3875" />


      <stop
   offset="0.54320002"
   style="stop-color:#1300d9;stop-opacity:1.0000000;"
   id="stop3877" />


      <stop
   offset="0.59969997"
   style="stop-color:#2200bb;stop-opacity:1.0000000;"
   id="stop3879" />


      <stop
   offset="0.65170002"
   style="stop-color:#330099;stop-opacity:1.0000000;"
   id="stop3881" />


      <stop
   offset="0.82580000"
   style="stop-color:#000066;stop-opacity:1.0000000;"
   id="stop3883" />


      
      
      
      
      
      
      
    </linearGradient>

  <linearGradient
   id="linearGradient3861"
   gradientUnits="userSpaceOnUse"
   x1="128.0024"
   y1="39.8628"
   x2="128.0024"
   y2="216.1587">
      <stop
   offset="0.0000000"
   style="stop-color:#333300;stop-opacity:1.0000000;"
   id="stop3863" />


      <stop
   offset="1.0000000"
   style="stop-color:#660000;stop-opacity:1.0000000;"
   id="stop3865" />


      
      
      
    </linearGradient>

  <radialGradient
   id="radialGradient3855"
   cx="100.5962"
   cy="124.4897"
   r="86.1955"
   fx="100.5962"
   fy="124.4897"
   gradientTransform="matrix(0.826 -0.0247 -0.0247 0.738 18.1722 45.3572)"
   gradientUnits="userSpaceOnUse">
      <stop
   offset="0.3933"
   style="stop-color:#FFFFFF"
   id="stop3857" />


      <stop
   offset="0.73030001"
   style="stop-color:#e10000;stop-opacity:1.0000000;"
   id="stop3859" />


      
      
      
    </radialGradient>

  <linearGradient
   id="linearGradient2333"
   gradientUnits="userSpaceOnUse"
   x1="127.7437"
   y1="211.125"
   x2="127.7436"
   y2="44.9092">
      <stop
   offset="0.0000000"
   style="stop-color:#993300;stop-opacity:1.0000000;"
   id="stop2335" />


      <stop
   offset="1.0000000"
   style="stop-color:#ff0000;stop-opacity:1.0000000;"
   id="stop2337" />


      
      
      
    </linearGradient>

  <linearGradient
   id="linearGradient2315"
   gradientUnits="userSpaceOnUse"
   x1="126.2256"
   y1="55.0059"
   x2="126.2256"
   y2="283.1829">
      <stop
   offset="0"
   style="stop-color:#FFFFFF"
   id="stop2317" />


      <stop
   offset="0.38200000"
   style="stop-color:#ff0000;stop-opacity:1.0000000;"
   id="stop2319" />


      <stop
   offset="0.43309999"
   style="stop-color:#fb0200;stop-opacity:1.0000000;"
   id="stop2321" />


      <stop
   offset="0.48740000"
   style="stop-color:#ee0900;stop-opacity:1.0000000;"
   id="stop2323" />


      <stop
   offset="0.54320002"
   style="stop-color:#d91300;stop-opacity:1.0000000;"
   id="stop2325" />


      <stop
   offset="0.59969997"
   style="stop-color:#bb2200;stop-opacity:1.0000000;"
   id="stop2327" />


      <stop
   offset="0.65170002"
   style="stop-color:#993300;stop-opacity:1.0000000;"
   id="stop2329" />


      <stop
   offset="0.82580000"
   style="stop-color:#660000;stop-opacity:1.0000000;"
   id="stop2331" />


      
      
      
      
      
      
      
    </linearGradient>

  <linearGradient
   id="XMLID_9_"
   gradientUnits="userSpaceOnUse"
   x1="128.0024"
   y1="39.8628"
   x2="128.0024"
   y2="216.1587">
      <stop
   offset="0"
   style="stop-color:#003333"
   id="stop3256" />


      <stop
   offset="1"
   style="stop-color:#006600"
   id="stop3257" />


      
      
      
    </linearGradient>

  <linearGradient
   id="XMLID_10_"
   gradientUnits="userSpaceOnUse"
   x1="127.7437"
   y1="211.125"
   x2="127.7436"
   y2="44.9092">
      <stop
   offset="0"
   style="stop-color:#009933"
   id="stop3263" />


      <stop
   offset="1"
   style="stop-color:#00FF00"
   id="stop3264" />


      
      
      
    </linearGradient>

  <linearGradient
   id="XMLID_11_"
   gradientUnits="userSpaceOnUse"
   x1="126.2256"
   y1="55.0059"
   x2="126.2256"
   y2="283.1829">
      <stop
   offset="0"
   style="stop-color:#FFFFFF"
   id="stop3271" />


      <stop
   offset="0.382"
   style="stop-color:#00FF00"
   id="stop3272" />


      <stop
   offset="0.4331"
   style="stop-color:#00FB02"
   id="stop3273" />


      <stop
   offset="0.4874"
   style="stop-color:#00EE09"
   id="stop3274" />


      <stop
   offset="0.5432"
   style="stop-color:#00D913"
   id="stop3275" />


      <stop
   offset="0.5997"
   style="stop-color:#00BB22"
   id="stop3276" />


      <stop
   offset="0.6517"
   style="stop-color:#009933"
   id="stop3277" />


      <stop
   offset="0.8258"
   style="stop-color:#006600"
   id="stop3278" />


      
      
      
      
      
      
      
    </linearGradient>

  <radialGradient
   id="XMLID_12_"
   cx="100.5962"
   cy="124.4897"
   r="86.1955"
   fx="100.5962"
   fy="124.4897"
   gradientTransform="matrix(0.826 -0.0247 -0.0247 0.738 18.1722 45.3572)"
   gradientUnits="userSpaceOnUse">
      <stop
   offset="0.3933"
   style="stop-color:#FFFFFF"
   id="stop3288" />


      <stop
   offset="0.7303"
   style="stop-color:#00E100"
   id="stop3289" />


      
      
      
    </radialGradient>

  <radialGradient
   inkscape:collect="always"
   xlink:href="#XMLID_12_"
   id="radialGradient1489"
   gradientUnits="userSpaceOnUse"
   gradientTransform="matrix(0.826000,-2.470000e-2,-2.470000e-2,0.738000,18.17220,45.35720)"
   cx="100.5962"
   cy="124.4897"
   fx="100.5962"
   fy="124.4897"
   r="86.1955" />

  <linearGradient
   inkscape:collect="always"
   xlink:href="#XMLID_11_"
   id="linearGradient1492"
   gradientUnits="userSpaceOnUse"
   x1="126.2256"
   y1="55.0059"
   x2="126.2256"
   y2="283.1829" />

  <linearGradient
   inkscape:collect="always"
   xlink:href="#XMLID_10_"
   id="linearGradient1496"
   gradientUnits="userSpaceOnUse"
   x1="127.7437"
   y1="211.125"
   x2="127.7436"
   y2="44.9092" />

  <linearGradient
   inkscape:collect="always"
   xlink:href="#XMLID_9_"
   id="linearGradient1499"
   gradientUnits="userSpaceOnUse"
   x1="128.0024"
   y1="39.8628"
   x2="128.0024"
   y2="216.1587" />

  <radialGradient
   inkscape:collect="always"
   xlink:href="#radialGradient3885"
   id="radialGradient1527"
   gradientUnits="userSpaceOnUse"
   gradientTransform="matrix(0.826000,-2.470000e-2,-2.470000e-2,0.738000,-142.4940,-9.991605)"
   cx="100.59620"
   cy="124.48970"
   fx="100.59620"
   fy="124.48970"
   r="86.195503" />

  <linearGradient
   inkscape:collect="always"
   xlink:href="#linearGradient3867"
   id="linearGradient1529"
   gradientUnits="userSpaceOnUse"
   x1="126.22560"
   y1="55.005901"
   x2="126.22560"
   y2="283.18289"
   gradientTransform="translate(-160.6662,-55.34880)" />

  <linearGradient
   inkscape:collect="always"
   xlink:href="#linearGradient3891"
   id="linearGradient1531"
   gradientUnits="userSpaceOnUse"
   x1="127.74370"
   y1="211.12500"
   x2="127.74360"
   y2="44.909199"
   gradientTransform="translate(-160.6662,-55.34880)" />

  <linearGradient
   inkscape:collect="always"
   xlink:href="#linearGradient3897"
   id="linearGradient1533"
   gradientUnits="userSpaceOnUse"
   x1="128.00240"
   y1="39.862801"
   x2="128.00240"
   y2="216.15871"
   gradientTransform="translate(-160.6662,-55.34880)" />

  <radialGradient
   inkscape:collect="always"
   xlink:href="#radialGradient3855"
   id="radialGradient1549"
   gradientUnits="userSpaceOnUse"
   gradientTransform="matrix(0.826000,-2.470000e-2,-2.470000e-2,0.738000,159.5004,1.275237)"
   cx="100.59620"
   cy="124.48970"
   fx="100.59620"
   fy="124.48970"
   r="86.195503" />

  <linearGradient
   inkscape:collect="always"
   xlink:href="#linearGradient2315"
   id="linearGradient1551"
   gradientUnits="userSpaceOnUse"
   gradientTransform="translate(141.3282,-44.08196)"
   x1="126.22560"
   y1="55.005901"
   x2="126.22560"
   y2="283.18289" />

  <linearGradient
   inkscape:collect="always"
   xlink:href="#linearGradient2333"
   id="linearGradient1553"
   gradientUnits="userSpaceOnUse"
   gradientTransform="translate(141.3282,-44.08196)"
   x1="127.74370"
   y1="211.12500"
   x2="127.74360"
   y2="44.909199" />

  <linearGradient
   inkscape:collect="always"
   xlink:href="#linearGradient3861"
   id="linearGradient1555"
   gradientUnits="userSpaceOnUse"
   gradientTransform="translate(141.3282,-44.08196)"
   x1="128.00240"
   y1="39.862801"
   x2="128.00240"
   y2="216.15871" />

  <linearGradient
   inkscape:collect="always"
   xlink:href="#XMLID_9_"
   id="linearGradient3930"
   gradientUnits="userSpaceOnUse"
   x1="128.0024"
   y1="39.8628"
   x2="128.0024"
   y2="216.1587" />

  <linearGradient
   inkscape:collect="always"
   xlink:href="#XMLID_10_"
   id="linearGradient3932"
   gradientUnits="userSpaceOnUse"
   x1="127.7437"
   y1="211.125"
   x2="127.7436"
   y2="44.9092" />

  <linearGradient
   inkscape:collect="always"
   xlink:href="#XMLID_11_"
   id="linearGradient3934"
   gradientUnits="userSpaceOnUse"
   x1="126.2256"
   y1="55.0059"
   x2="126.2256"
   y2="283.1829" />

  <radialGradient
   inkscape:collect="always"
   xlink:href="#XMLID_12_"
   id="radialGradient3936"
   gradientUnits="userSpaceOnUse"
   gradientTransform="matrix(0.826000,-2.470000e-2,-2.470000e-2,0.738000,18.17220,45.35720)"
   cx="100.5962"
   cy="124.4897"
   fx="100.5962"
   fy="124.4897"
   r="86.1955" />

  <linearGradient
   inkscape:collect="always"
   xlink:href="#linearGradient3861"
   id="linearGradient3938"
   gradientUnits="userSpaceOnUse"
   gradientTransform="translate(141.3282,-44.08196)"
   x1="128.00240"
   y1="39.862801"
   x2="128.00240"
   y2="216.15871" />

  <linearGradient
   inkscape:collect="always"
   xlink:href="#linearGradient2333"
   id="linearGradient3940"
   gradientUnits="userSpaceOnUse"
   gradientTransform="translate(141.3282,-44.08196)"
   x1="127.74370"
   y1="211.12500"
   x2="127.74360"
   y2="44.909199" />

  <linearGradient
   inkscape:collect="always"
   xlink:href="#linearGradient2315"
   id="linearGradient3942"
   gradientUnits="userSpaceOnUse"
   gradientTransform="translate(141.3282,-44.08196)"
   x1="126.22560"
   y1="55.005901"
   x2="126.22560"
   y2="283.18289" />

  <radialGradient
   inkscape:collect="always"
   xlink:href="#radialGradient3855"
   id="radialGradient3944"
   gradientUnits="userSpaceOnUse"
   gradientTransform="matrix(0.826000,-2.470000e-2,-2.470000e-2,0.738000,159.5004,1.275237)"
   cx="100.59620"
   cy="124.48970"
   fx="100.59620"
   fy="124.48970"
   r="86.195503" />

  <linearGradient
   inkscape:collect="always"
   xlink:href="#linearGradient3897"
   id="linearGradient3946"
   gradientUnits="userSpaceOnUse"
   gradientTransform="translate(-160.6662,-55.34880)"
   x1="128.00240"
   y1="39.862801"
   x2="128.00240"
   y2="216.15871" />

  <linearGradient
   inkscape:collect="always"
   xlink:href="#linearGradient3891"
   id="linearGradient3948"
   gradientUnits="userSpaceOnUse"
   gradientTransform="translate(-160.6662,-55.34880)"
   x1="127.74370"
   y1="211.12500"
   x2="127.74360"
   y2="44.909199" />

  <linearGradient
   inkscape:collect="always"
   xlink:href="#linearGradient3867"
   id="linearGradient3950"
   gradientUnits="userSpaceOnUse"
   gradientTransform="translate(-160.6662,-55.34880)"
   x1="126.22560"
   y1="55.005901"
   x2="126.22560"
   y2="283.18289" />

  <radialGradient
   inkscape:collect="always"
   xlink:href="#radialGradient3885"
   id="radialGradient3952"
   gradientUnits="userSpaceOnUse"
   gradientTransform="matrix(0.826000,-2.470000e-2,-2.470000e-2,0.738000,-142.4940,-9.991605)"
   cx="100.59620"
   cy="124.48970"
   fx="100.59620"
   fy="124.48970"
   r="86.195503" />

</defs>


  <sodipodi:namedview
   id="base"
   inkscape:zoom="5.9833333"
   inkscape:cx="30.000000"
   inkscape:cy="30.116994"
   inkscape:window-width="1175"
   inkscape:window-height="949"
   inkscape:window-x="0"
   inkscape:window-y="0"
   inkscape:current-layer="svg3232" />


  <metadata
   id="metadata3233">
    <ns:sfw
   id="sfw6">
      <ns:slices
   id="slices8">
        <ns:slice
   x="0"
   y="0"
   width="256"
   height="256"
   sliceID="124165071"
   id="slice10" />


      </ns:slices>


      <ns:sliceSourceBounds
   x="0"
   y="0"
   width="256"
   height="256"
   bottomLeftOrigin="true"
   id="sliceSourceBounds12" />


      <ns:optimizationSettings
   id="optimizationSettings14">
        <ns:targetSettings
   fileFormat="PNG24Format"
   targetSettingsID="0"
   id="targetSettings16">
          <ns:PNG24Format
   transparency="true"
   includeCaption="false"
   interlaced="false"
   noMatteColor="false"
   matteColor="#FFFFFF"
   filtered="false"
   id="PNG24Format18" />


        </ns:targetSettings>


      </ns:optimizationSettings>


    </ns:sfw>


    <xpacket
   id="xpacket20">begin='﻿' id='W5M0MpCehiHzreSzNTczkc9d'    </xpacket>


    <x:xmpmeta
   x:xmptk="XMP toolkit 3.0-29, framework 1.6"
   id="xmpmeta22">
      
    <metadata
   id="metadata113">
  <rdf:RDF
   id="RDF24">
        <rdf:Description
   rdf:about="uuid:6fb7133e-0d42-4d20-8954-32780fe62e43"
   id="Description26">
          <pdf:Producer
   id="Producer28">
Adobe PDF library 5.00</pdf:Producer>


        </rdf:Description>


        <rdf:Description
   rdf:about="uuid:6fb7133e-0d42-4d20-8954-32780fe62e43"
   id="Description30" />


        <rdf:Description
   rdf:about="uuid:6fb7133e-0d42-4d20-8954-32780fe62e43"
   id="Description32" />


        <rdf:Description
   rdf:about="uuid:6fb7133e-0d42-4d20-8954-32780fe62e43"
   id="Description34">
          <xap:CreateDate
   id="CreateDate36">
2004-01-26T11:58:28+02:00</xap:CreateDate>


          <xap:ModifyDate
   id="ModifyDate38">
2004-03-28T20:35:22Z</xap:ModifyDate>


          <xap:CreatorTool
   id="CreatorTool40">
Adobe Illustrator 10.0</xap:CreatorTool>


          <xap:MetadataDate
   id="MetadataDate42">
2004-02-16T23:09:30+01:00</xap:MetadataDate>


          <xap:Thumbnails
   id="Thumbnails44">
            <rdf:Alt
   id="Alt46">
              <rdf:li
   rdf:parseType="Resource"
   id="li48">
                <xapGImg:format
   id="format50">
JPEG</xapGImg:format>


                <xapGImg:width
   id="width52">
256</xapGImg:width>


                <xapGImg:height
   id="height54">
256</xapGImg:height>


                <xapGImg:image
   id="image56">
/9j/4AAQSkZJRgABAgEASABIAAD/7QAsUGhvdG9zaG9wIDMuMAA4QklNA+0AAAAAABAASAAAAAEA
AQBIAAAAAQAB/+4ADkFkb2JlAGTAAAAAAf/bAIQABgQEBAUEBgUFBgkGBQYJCwgGBggLDAoKCwoK
DBAMDAwMDAwQDA4PEA8ODBMTFBQTExwbGxscHx8fHx8fHx8fHwEHBwcNDA0YEBAYGhURFRofHx8f
Hx8fHx8fHx8fHx8fHx8fHx8fHx8fHx8fHx8fHx8fHx8fHx8fHx8fHx8fHx8f/8AAEQgBAAEAAwER
AAIRAQMRAf/EAaIAAAAHAQEBAQEAAAAAAAAAAAQFAwIGAQAHCAkKCwEAAgIDAQEBAQEAAAAAAAAA
AQACAwQFBgcICQoLEAACAQMDAgQCBgcDBAIGAnMBAgMRBAAFIRIxQVEGE2EicYEUMpGhBxWxQiPB
UtHhMxZi8CRygvElQzRTkqKyY3PCNUQnk6OzNhdUZHTD0uIIJoMJChgZhJRFRqS0VtNVKBry4/PE
1OT0ZXWFlaW1xdXl9WZ2hpamtsbW5vY3R1dnd4eXp7fH1+f3OEhYaHiImKi4yNjo+Ck5SVlpeYmZ
qbnJ2en5KjpKWmp6ipqqusra6voRAAICAQIDBQUEBQYECAMDbQEAAhEDBCESMUEFURNhIgZxgZEy
obHwFMHR4SNCFVJicvEzJDRDghaSUyWiY7LCB3PSNeJEgxdUkwgJChgZJjZFGidkdFU38qOzwygp
0+PzhJSktMTU5PRldYWVpbXF1eX1RlZmdoaWprbG1ub2R1dnd4eXp7fH1+f3OEhYaHiImKi4yNjo
+DlJWWl5iZmpucnZ6fkqOkpaanqKmqq6ytrq+v/aAAwDAQACEQMRAD8A9U4q7FXYq7FXYq7FXYq7
FXYq7FXYq7FXYq7FXYq7FXYq7FXYq7FXYq7FXYq7FXYq7FXYq7FXYq7FXYq7FXYq7FXYqlvmDzFo
3l7TJdT1e5W1tItuTbszHoiKN2Y+AxV4j5g/5ydvTcMnl/SYlgU0Se/LOzDxMcTIF/4M4qk//QzP
nv8A5YNL/wCRVx/2UYq7/oZnz3/ywaX/AMirj/soxV3/AEMz57/5YNL/AORVx/2UYq7/AKGZ89/8
sGl/8irj/soxV3/QzPnv/lg0v/kVcf8AZRirv+hmfPf/ACwaX/yKuP8AsoxV3/QzPnv/AJYNL/5F
XH/ZRirv+hmfPf8AywaX/wAirj/soxV3/QzPnv8A5YNL/wCRVx/2UYq7/oZnz3/ywaX/AMirj/so
xV3/AEMz57/5YNL/AORVx/2UYq7/AKGZ89/8sGl/8irj/soxV3/QzPnv/lg0v/kVcf8AZRirv+hm
fPf/ACwaX/yKuP8AsoxV3/QzPnv/AJYNL/5FXH/ZRirv+hmfPf8AywaX/wAirj/soxV3/QzPnv8A
5YNL/wCRVx/2UYq7/oZnz3/ywaX/AMirj/soxV3/AEMz57/5YNL/AORVx/2UYq7/AKGZ89/8sGl/
8irj/soxV3/QzPnv/lg0v/kVcf8AZRirv+hmfPf/ACwaX/yKuP8AsoxVFad/zk75oS4B1HSbG4t+
6W/qwP8A8E7zj/hcVeyeRfzJ8tec7Vn0yUx3kQBuLCaizJ25AAkMlf2l+mmKsqxV2KuxV2KuxV2K
vm/XDqf5ufmk+j287Q+XtJLqJF3VIY2CSzAHYvM9AvtTwOKvePLfk/y35bs0tdHsYrZVFGlCgyuf
GSQ/Ex+ZxVOK4q6oxVrkMVdyGKu5jFWvUGKu9RffFWvVX3xV3rL74q71l8DirXrp4HFXfWE8DirX
1hPA4q76yngcVd9Zj8D+GKtfWo/A/hirvrcfgfw/rirvrcfgfw/rirX1yLwb8P64q765F4N+H9cV
d9di8G/D+uKtfXovBvw/riqVa/5X8r+abR7TV7GO55CiyMoWZP8AKjkHxKR7HFXzB5n0XXfys8/R
NZXBJgIudOujsJYGJUpIB8ijj+oxV9VeWtfs/MGhWWsWf9xexLKErUoxHxI3up2OKplirsVdirsV
Q+oMy2Fyy/aWJyvzCnFXhP8AziwqvL5nmYcpQLIBz1oxuC2/uVGKvficVaxVrFWicVaJxVrFWsVa
JxVonFWsVaxVrFWicVaxVrFWicVaJxVrFWsVaJxVonFWsVaxVdCSJkp/MP14q8V/5ypRBJ5ZkCjm
wvVZu5CmAgfRyOKsn/5x3vJX8lwWzElQZmSvbjMR/wAbYq9XxV2KuxV2KofUv+Oddf8AGGT/AIic
VeE/84pn/lKP+jD/ALGcVe+nFWsVaJxVonFWsVaxVonFWicVaxVTSaKQsEdXKHi4Ug0PgadMVXYq
0TirWKtYq0TirROKtYq1irROKtE4q1irWKtE4quh/vo/9YfrxV4t/wA5WH/lF/8Ao/8A+xbFU/8A
+cc/+UVg+Vx/yfGKvX8VdirsVdiqH1L/AI511/xhk/4icVeD/wDOKJr/AIp/6MP+xnFXvx64q0Ti
rROKtYq1irROKtE4q1iry7/nI3Xdc0f8tppdJleB7q6itbueMlXS3kVy3FhuOTKqH2OShzcfVSIh
s+WPK3mLzH5N1PT/ADFpUxjMhY0qfTmVG4yQyr3B/CoI3wxzRnKUOsf08vx5Oow6kCZA+qPP4vtH
yF540vzl5fg1axIUuKTwVq0cg+0p+WRIp3kJiQsMjwM2sVaJxVonFWsVaxVonFWicVaxVrFWicVa
JxVdD/fR/wCsP14q8V/5yuNP8Lf9H/8A2LYqyD/nHL/lFLf5XH/J8Yq9gxV2KuxV2KofUv8AjnXX
/GGT/iJxV4N/ziea/wCKf+jD/sZxV78euKtE4q1irWKtE4q0TirWKtYqxL81vL/+IPy813TAvOV7
Vprde5lt6TRgfNowMIO7VmjxQIfKv5caPH5o0rUPLLJzuC4ubIihdZCpVitaV+wNu9aZoO15ZcOp
x5sQskGJHfW9ffTw3afi49RjyYhcjcSO+t6++neQ/Omv/lh5ueO5RmsmYJqFoK8ZI67SR1pv4fcf
bd6fUw1GMTgdj+KLv+z9fGcROO8T+Pm+wtA1/S9f0m31bS51uLK5XlHIv4qR2IOxGTd9GQIsJgTi
lonFWsVaxVonFWicVaxVrFWicVaJxVrFV0H9/H/rD9eKvFf+csDT/C3/AEf/APYtirIP+ccP+UTt
/lcf8nxir2HFXYq7FXYqh9S/4511/wAYZP8AiJxV4J/ziYf+Uq/6MP8AsZxV7+x3OKtYq1irROKt
E4q1irWKtYqtNCKffir430uN/I/51XNhGOMVtfSRQKdqxlxNb/fRM13bECcHGPqxkTHwP6nke2YG
EDIfVikJj4H9T3L83vyj0/zhp51bS1C6gV9UFBu3IV5oB15ftL+11HxdcXJCWKfj4NxLeUf53mP6
X3/fPWaSUZfmdPvxbzh/O/pR/pff7+fBvIvn/wA2fldr72s8bTabIwN7pzMeDrWnqwt0D0Gx+g+2
30+px54ccDY/HNy9B2hGceKBuJ/HzfWXlLzjoHmzSI9U0W5E8DUEqHaSJ6VMcqdVYfj1FRljvYZB
IWE5xZtYq0TirROKtYq1irROKtE4q1irWKroD+/j/wBZf14q8U/5yzP/ACiv/R//ANi2Ksh/5xv/
AOUSt/lcf8n8VexYq7FXYq7FUPqX/HOuv+MMn/ETirwL/nEo/wDKVf8ARh/2M4q+gG6nFWsVaJxV
onFWsVaxVrFWicVaxV8s/wDOTmjyaV5/03zBAvEahbo/PxuLNgp39kMeRnATiYnkRTqO0cQlseUh
T3v8u9cj1Tyhp9wjBuMYj27Koqg/5Flc0vZ2Q+CIn6oXE/D9jgdjZydOIn6oXE/5v7KST8yvyp0T
zfaPII1h1EVZZBReR7mtPhb36Hv4hy4JRn4uE8M+o/hl7/Pza9ZoDxnLgPDk6j+GXv8APz/tfNz2
/n38q/MZu7KSS2dG9N5KVhlXr6c0ZqCD2+9T3zP0mvhm9J9OQc4nn8O8ea6LtHikY/RkHOJ/G483
0P8All+eXlzzisVhdldL8wGi/UpG/dzN427n7Vf5D8Xz65mvQ4dTGe3IvSicXJaJxVrFWsVaJxVo
nFWsVaxVonFV8H9/H/rL+vFXiX/OWp/5RX/o/wD+xbFWRf8AONv/ACiNt8rn/k/ir2PFXYq7FXYq
h9S/4511/wAYZP8AiJxV4D/ziQa/4r/7d/8A2M4q+gW+0fniq0nFWicVaxVrFWsVaJxVrFWsVeP/
APOT2gfpDyBFqaJWXSLpJGbwhn/cuP8Ag2jP0YuHrY3C+5LP+ccPMP1ny1LpzvV7Y/Cv+qaE/wDA
NGM0BHh6mcekqkPuP2vNaSXh6jJDpKpj7pfbT2D1cyOJ2nGlfmDy/o+vWbWuowLIpBVXoOQB6jcE
Eex2yjPhjk57SHIjmHE1Wlx5x6tpDlIcx7i+c/zC/IvVNFke+0X9/aA8goqKb9iSSp9mPybtksXa
M8Xpzbx/nj/fDo4I1WTTms3qh/PH++HRGfl3/wA5C6/5flXSPNyS6jp8Z9P6y3+9kFNqNyp6oH+V
8XuembqMxIWDYeg0+u2Fnij3vo/QfMWieYNNj1LR7yO9spOksZ6GlSrqaMrCu6sAck7SExIWEwxZ
NE4q0TirWKtYq0TirROKr4P7+P8A11/XirxL/nLc0/wp/wBvD/sWxVkf/ONf/KH23yuf+T+KvY8V
dirsVdiqH1L/AI511/xhk/4icVfP/wDziMa/4r/7d/8A2M4q+gm+0fniq0nFWsVaxVrFWicVaxVr
FWicVSbzhoa695W1bRiAWvrWWGMt0EjIfTb/AGL0OLDJHiiQ+Yf+cf8AWn0/zXJYSEotxQFOhqf3
ZBB/ymQ/Rmk7Tjwzx5PPhPx5fa8brfRmx5PMxPx5fa9k8y/mZb+XPMMdjqkYjsJwPRuOhLcQTVie
HcgA06dcwfHyccgI8UYgcufv82rJrssc0oiHFCIHL6t+vn3Mo03XtM1OIS2VwkwIqVBowHiVO+W4
9RGfIuZh1kMo9Jv7/kjGkVlKsAVIoQdwQcsMm4yt5x5+/J7Q/MMT3Fmgtr4AleNAPGint/qnb/Vy
iHHhPFiO3WJ5H3dzrTp5YjxYDXfA/Sfd3H7HiNvP59/K/XzcWcrwfEFlUgm3nUbhJoz7Hbv3U983
Ok10M2w2mOcTzdhou0RI0PTMc4n8bjzfR/5Z/m/oHne2EApY65GtbjTnavIDq8Lbc1/Ed/E5oL0W
DUDJ72eE4XIaxVrFWicVaJxVrFV9v/vRF/rr+vFXiP8Azlyaf4U/7eH/AGLYqyT/AJxq/wCUOtvl
c/8AURir2TFXYq7FXYqh9S/4511/xhk/4icVfPv/ADiGf+Us/wC3f/2M4q+g3PxH54qtxVrFWsVa
JxVrFWsVaJxVonFWsVfIHm2yfyn+dl8kdYoZLz1oSNgI7wCRaeyNJT6M13aWLjwyA5jcfDd5XtnA
TCYHMeofDdnX57aeuqeVbTWIkNUVJPkPtAf8DI5+jNRpctZ4S6SFfpDq4ZR42PIOUxw/P1ReK6Dr
vmjTVa40qWb0LUhpAoLxx8q0J/krTqKZuc+ixZd5D1d42Pzdlm0GPL6jHcdRsfmHpfln/nITUIOE
Osw+qgoDKKtsPf7Y+nlmuydn5YfRLjHcefz/AFuGdNqMf0S8SPdLY/P9b1by9+ZHljW4g1vdoj7c
kdhQE/5Xb/ZUPtmGcpiamDE+f6+TWNaAamDCXn+g8kf5h8v6Vr9i9rfRK/JaJIQCRXfv1Ht/HfHJ
Hi35SHI9QnPijk35SHIjmHzl528g635K1VNR02SRIInEtvcxMQ8RB2ZWG9B947+J2mi7QMjwZNp9
D0l+3yb9JrpCQhk2ydD0l+3ye5/k5+cUHm61Gl6sUh8w26jlSircqNvUQdm/mX7s24NvVabUcYo/
U9QwuU0TirROKtYq1iq+3P8ApEX+uv68VeIf85eH/lE/+3h/2LYqyX/nGj/lDbX5XP8A1EYq9lxV
2KuxV2KofUv+Oddf8YZP+InFXz5/ziCf+Us/7d//AGM4q+g3+0fmcVW4q1irROKtYq1irROKtE4q
1irWKvm//nKfQjDrOi6/EKfWIXtJnG1Hgb1IyfdhK3/A5XMOr7QhuD3p3p8sXmX8ryrDkRES1TWl
Ryf/AIFJGXOOkDjsdYS+439zwxBhjMf4sUtv8039zyb8qL79G+dVs7kDhcB7eRG3HNDXv/qkZ1+K
YkARyL2fZ+UGQI5SD3rzF+RPkfzHbC7tYTpt3Mob1INl5Eb1X5+NctMXZZNNCXR475p/Ivz15Yka
+0stf20VSJrUkSqPdRv/AJ9MqyYRIURYddqOzrFVxRQ/lP8AOHzBocos9UDSwIeLq60ZTv1TanX9
mnvXNNm7MrfEa/onl8O55/L2dLH/AHRr+ieXw7nsllrflvzpo7Qo6SLKprGaMVNNytetO4+8DNXP
nwyBjIfMeYcKchk9EgYzHzHmP1vA/NWhar5G80x3Ni5h9KT1LSVTUKRvx91IPfqNj3ze9n6w5I1L
648/Pzdr2drJS2l/eQ+3z+L6h/LfzxbebvLlvfKQt0F43MVdw67N+ObUG3rcWQTiCGVk4WxrFWsV
aJxVfb/70Rf66/rxV4h/zl8f+UT/AO3h/wBi2Ksl/wCcZ/8AlDLX5XP/AFEYq9mxV2KuxV2KofUv
+Oddf8YZP+InFXz1/wA4fmv+Lf8At3/9jWKvoR/tt8ziq3FWicVaxVrFWicVaJxVrFWsVaJxV5r/
AM5BaF+lfy1vZUXlNpkkd7H40Q8JP+ScjH6MjMbOLrIXjPk8y/IzVEn0m70uYBlSoKk9UrWn0+of
uzlu0ocOUnpIA/oeG1kOHMe6cQfls8880Qy6B57ebvDOs+3ejUf72Vs2nZmS8Q/o7fJ2PZOYjHHv
ga+X7H1z5M1Bb3QoXVuVBsfEHev31zbvZBPCcVYT56/KTyj5ugdrm3FpqVD6WoW4CyA9uY6OPY4D
G2nLgjMb83zlr/lnzn+WGvI0tWtJGrb3cXL0JwprSv7Eg8Oo+WYGr0kcoqXPoe557tDs4SFS+Eu7
8dzMNa1LTvP3k1plKrqdqOhoCTtToNmDNuOlCSPbnxKWnygy5j7Yl5o5JYMgM/qjz/pRP45JH+Q/
mqbR/Mz6dIxEN38QjP8AvxPtCniy/qzqscnttBl34e99Uo6uiupqrAFT4g5c7Z2KtE4q1iq+2/3o
i/11/Xirw/8A5zANP8Jf9vD/ALFcVZN/zjL/AMoXafK5/wCojFXs+KuxV2KuxVD6l/xzrr/jDJ/x
E4q+eP8AnD01/wAW/wDbu/7GsVfQr/bb5nFVpOKtYq1irROKtE4q1irWKtE4q0TiqE1bToNT0u80
64FYL2CS3lHX4ZUKN+BxKJRsU+RvyyuZ9D87TabdUSRZHt5g2wWSJjG3/AhmzQdq47gJdx+94ftb
FQjL+bKvnsmH526YE1G3v0ApIOLU7VG1fpRj9OY/ZGXeUfj+hx+ysvrlHvAP6C9Z/IPXvrvlm3hd
qvHH6TDvWI8RX5qK50sDYe50s+LGHq2SchrFUs8x+XtJ8xaPcaTqsIms7haMP2lb9l0O/FlO4OAi
2E4CQovkzUtK1P8ALvzrPpN8xe1JB9UCizW7k+nMB4jv7gjNV2hpPFhX8Q5PJ9rdn8cTH+Icvx5p
dPJ+iPPUdzEaRi5jmBHQpLQvT6GIw9n5eLFEnpt8k9k5yccCeY2+Wz698sXn1rR4XJqyjifur/Gm
bV65NScVaxVrFV9t/vTF/rr+vFXh3/OYRp/hL/t4/wDYrirKP+cY/wDlCrT5XP8A1EYq9nxV2Kux
V2KofUv+Oddf8YZP+InFXzv/AM4dH/lLv+3d/wBjWKvoWQ/G3zOKrcVaxVonFWicVaxVrFWicVaJ
xVrFWsVfJ35vad/h384Li6UcLe9eK/Q9KrOOMx+mRZM1+txcUZR7w832tp+ITj/OH4+1kf5kQfpb
ycLoENLGokPEftU5P9xQr9OcxoMvDmHv+95HRZuHNE+f+6/UUB/zjxrv1bUrmxdqDmsyD2YcX+4K
PvzscJ6PoHZ09jF9M5c7JonFWicVeQf85I+Vo9Q8pw69Ev8ApWkSgSsOpt52CEHx4ycSPDfKso2t
wNfjuPF3PnC/u/rSWrE1kihELn/UZuP/AAnHMHFDh4vM3+Pi6HDj4DLuMr+dfpt9d/lrdtPoq8vt
FEc18TWv8M2YesibDL8UtYq1iq+2P+kxf66/rxV4d/zmKf8AlEf+3j/2K4qyj/nGL/lCbT5XX/UR
ir2jFXYq7FXYqh9S/wCOddf8YZP+InFXzr/zhwf+Uv8A+3d/2NYq+hpPtt8ziq3FWicVaJxVrFWs
VaJxVonFWsVaxVonFXg3/OUmhcrTRdeRd4nksp28Q49WL7uD/flGcdXWdow2Ekr8q3o1fyUIpGLv
6RRlArUr8QH+ykVs4nVx8PP+PeHznVx8PMY+f7Q898iXbaJ57gjY0QyvbOfEE/D97KudfpsnFR73
uOzc9mMv5w+99habcfWLCCWteSCp9xsfxGZz0KIJxVrFULqenWWp6fcaffRCezuo2iniatGRhQjb
cfMYCLRKIIovEL3/AJxytLPVBPZzS31gG5JBIUBG+yyEAch8srGEOFHs+AN29Y8p6HNpdqRNs7AA
L+J6Za5ye4q1irROKqlt/vTF/rr+vFXhn/OY5/5RD/t4/wDYrirKf+cYP+UHs/ldf9ROKvacVdir
sVdiqH1L/jnXX/GGT/iJxV85/wDOGxr/AIv/AO3d/wBjWKvoiT+8b5nFVhOKtE4q1irWKtE4q0Ti
rWKtYq0TirROKsK/OPQv0z+XOs26rynt4vrkPchrYiRqe5RWX6cryi4lx9XDixl4J+U2pssdzZcj
VD6kajx6j7qNnIduY9hMfinzrt3GQRMfiv2Fjvni1fS/NRuIAVqyTQk+KH4fwUHNn2bm4sQP473a
dkZrxCv4T+0Pqb8u9Wj1Hy7BKhqpVJE/1XWo/Vm/Bt7eMrAPeyfCyaxVonFWsVaxVrFWicVaxVUt
f96Yv9df14q8L/5zJNP8If8Abx/7FcVZV/zi/wD8oNZ/K6/6icVe1Yq7FXYq7FUPqX/HOuv+MMn/
ABE4q+cv+cNDX/GH/bu/7GsVfREn943zP68VWE4q1irWKtE4q0TirWKtYq0TirROKtYqpyxRzRPF
KoaORSrqehUihGKkPj/RoH8s/mBd6VMWC21xNase7LG5of8AZIu3zzQdo4eLGQ8P2xp7xkH+E/Zy
TT81dOJitr0KeSMY5GJrv0P3UQZquw8h4TE9HUdg5SCYn8EfsL0b/nHvXPX0ZLR2q0JeEj5fEv8A
wtBnXYJXF9E0M+LGPJ7LlzltE4q1irWKtYq0TirWKtYqqWv+9UP+uv68VeF/85lmn+D/APt4/wDY
rirKv+cXf+UFs/ldf9ROKva8VdirsVdiqH1L/jnXX/GGT/iJxV84f84Ymv8AjD/t2/8AY1ir6JlP
7xvmf14qsxVrFWicVaJxVrFWsVed+efzw8oeV3ks4nOq6rHs1pbMOCMO0s26r7gciPDKZ54xcTNr
YQ25l41rH56fmbrszppjjTrcmgisogzAduUsgdq+445iZNWRzNOpz9pyHMiISFj+Z+qMWm1DULgk
1PO6lencbB2pmJLWx7y62XasT/FI/Nr9C/mRCRItxeqwPwsJ5VNfY1GAa6HexHakO+X2q9p5z/Nv
SCGh1a/YJSiySfW1AH+TJ6q0+jLoawdJOTi7WHSfz/ax/WPMmp6r5jbXNR4/pB3jecxoIwzRqqV4
jYEhd8ch4wb6p1B8YG/4g9H8xW66p5SLIOR9IOrE1J4/DX/ZOFOczpT4WpI79/1/peP0kvC1H2/o
KWfkXrRsvME1qTtKFlQe6GhH01GdjppbkPonZs9zF9RhgwBU1B3BzMdu7FWsVaxVonFWsVaxVrFV
S1P+lQ/66/rGKvCv+czjT/B//by/7FcVZX/zi5/ygll8rr/qJxV7ZirsVdirsVQ+pf8AHOuv+MMn
/ETir5v/AOcLzX/GP/bt/wCxrFX0TL/eP8z+vFVmKtE4q0TirWKrWYAFmNFG5J6AYq+c/wA2Pzuv
tWuZfL3lKZo9Pr6VxqEVRJcHoUiI3WP3G7f6vXAz6noOTpdZr+Yiaj3sf8j/AJRXurss15RYtiwb
ZBUV3p1/z6jNTLUSmeGH4/Hzec/MZM0uHFsO/wDH9r23Q/y58paVEgeL6w6UpX4FBHcBaEfQae2S
jpIc5kyPyH6/tcvF2VhG+Qmcvl+37fgnUlp5fRSBp9sfdokY/ewJyUsOAfwR+QciWm0w/wAnD/Sg
/ek2p2GgzKR9UijPZolEZH/A0zBz6fBIfSB7tvudbqtHppj6Ij3bfcwnVLZbeb0OXrQfaQOAw+kH
bNDljLFKok08pqsUsM+GJPD0SDU/LmjaihWeAK+9JEG4qfD+CkZkYO0skDvu2aftDJjP4+7kiNO0
0WuljTi6zbMkbGtACoVKkgfZIrhy6mM80ZD4/FGXOJ5RIfi3m+g3J0bztbuDxRbjh7cJdhX5cgc6
3S5NwXu+zc+8Jd/9j670O6FzpVvIDX4Qv3dPwzbvUo7FWsVaJxVrFWsVaxVonFVS1/3qh/11/WMV
eFf85oGn+Dv+3l/2K4qyz/nFr/lA7L5XX/UScVe2Yq7FXYq7FUPqX/HOuv8AjDJ/xE4q+bf+cLTX
/GP/AG7f+xrFX0VL/ev/AKx/XiqwnFWicVaxVrFXiv8AzkP+YU2n2aeU9Nk43N/H6mpSKd1tyaLE
Kd5KfF/k/wCtmJqstekOs7Q1HCOAdebzryP5WigWK7u1BuJyBGrCoUE038aeHc+w35nXavfhi8J2
hreOQhHlf4P6ns1pqMNtAkMXwonTx9yfc4MeYRFBz8WeMIiI5Kja1/lZM6lmdWhZtZ2+1lMtS0T1
aV3WsdfizFyahw8mrSK8vTPLWuw2GYWQmRdNqMnHJD+plfA0cLvUx4F4Xm/n20MGt/WEoBMOQK7A
N9rb5BgM6vRZOKAL2HZeXix/jr+19H/lTra6p5bhk5AsyK5A7NSjj6DQZ0cJcQBe7xT44iXezXJN
jROKtYq1irWKtE4q1iqpa/71Q/66/rGKvCf+c0jT/B3/AG8v+xXFWW/84sf8oFY/K6/6iTir23FX
Yq7FXYqh9S/4511/xhk/4icVfNf/ADhWf+Uy/wC3b/2N4q+i5T+9f/WP68VWE4q1irWKrWYKCSaK
NyT0pir46ub+Tzb5/vdVnYmO5uGmUsCeMQbjEtPBE4/dmh1OXmXjO09RtKX877v7GbLNxKlPhCU4
DwC9PuzmZ3I2Xi5EmVo9NZenxbHIHiDd48lx1diOuQ459ynUSUJNTkbocHDMsDlkUO9y79Tkhiaz
ZWerkuBHC71ceBeF3q48C8LG/PsKSaVBOTV0cqPYCn/VQ5t+zjQp3fZEiJV7/wBbNv8AnH3UpFtD
bk/AszxgexCt/wASkzptIbh8Xv8As6V4/cXuZOZTntYq1irWKtE4q1irWKqlp/vXD/xkX9YxV4R/
zmof+UN/7eX/AGKYqy7/AJxX/wCUBsfldf8AUUcVe3Yq7FXYq7FUPqX/ABzrr/jDJ/xE4q+af+cK
DX/GX/bt/wCxvFX0ZMf3r/6x/XiqzFWsVaJxVB6wsr6TepDX1mt5RHTryKGn44JcmM+RfH/kR0TU
ZqkA+k1K/wCow/jnN5xcS8F2kPSPj9zL/WzU+G87wu9bHw14Xetj4a8LvWx8NeF3rY+GvC71sfDX
hd62Phrwu9bHw14WO+d74CzgswQWZjIw7itP6Kc2Olx8Idz2Zio3+N2ffkdp8sNrbyEU9eX1iPYu
oH/CxVzodJGoe97rs+FYve90zJc5rFWsVaJxVrFWsVaxVUtD/pcP/GRf1jFXg/8Azmuaf4N/7eX/
AGKYqy//AJxV/wDJf2Pyu/8AqKOKvb8VdirsVdiqH1L/AI511/xhk/4icVfNH/OExr/jP/t2/wDY
3ir6Nm/vX/1j+vFVPFWicVaJxVrFXyL520G58k+fbq34FbNpDPZNTZraRuS0r14EcT7jNHqMfDIh
5PtHS0TH4hMfrEbok0RrFIKqf1j6MwJYqeVniotevkfDYcDvXx8NeB3r4+GvA718fDXgd6+PhrwO
9fHw14Ft1fwWMBnuDTascfdiem3h+v8AHJxw97fh05kWMafY33mbW6GojJ5TydQkdfHxP68zsGIz
NB6bQ6OyIj4l9K+QNCWzt1l4cEjULGvhtQD/AGK/rzdgUKeriABQZlhS1irROKtYq1irWKtE4qq2
n+9cH/GRf+JDFXg3/ObJp/gz/t5f9imKsv8A+cVP/JfWHyu/+oo4q9wxV2KuxV2KofUv+Oddf8YZ
P+InFXzN/wA4SH/lM/8At2f9jeKvo6b++f8A1j+vFVMnFWicVaxVrFWGfmf+Xlp5z0P0AVh1W05S
adcnoGI3jf8AyHoK+Gx9jRqMIyDzcXVaYZY+Y5Pmb1NY8tahPpGrW7xPC3Ga3fqpHRloaEHqCD8s
00gYmi8lqtGbN7STaOeC4T1LWUOvUoSAw/VX9ftiIguqlho7tO0kbFXUow6qwofxw8AYmFLfWOPC
EcLvWOPCF4VbhMK+p+6AoSZPhoD3p9oj5DHgDLw0vu/MFnbDjb/v5qfaNOI+XUfr+jImg5OLSE89
kHpuja35ku/U3EXL95cPXgteoX+Zvb78tw4ZZDtyd1o9CZbRG3UvbvIP5ew2kSLHHwjUhpZHHxM3
i3v4L2zcYsQgKD0mDBHHGg9SghigiWKMcUQUAyxuX4q0TirWKtYq1irROKtYqq2f+9cH/GRf+JDF
Xgv/ADm2f+UM/wC3n/2KYqzD/nFL/wAl7YfK7/6ijir3HFXYq7FXYqh9S/4511/xhk/4icVfMv8A
zhEf+U0/7dn/AGN4q+jpz++f/WP68VUycVaxVrFWicVaJxVjPnX8v/Lvm6z9LU4eN1GKW99HQTR9
6A91/wAk7ZVlwxmN2jPp4ZBUg8B80fkr5x8vyvNZD6/ZrutxB8Lgf5Sk7ffmtyaKcfp3dNn7LmOX
qDFHvvMmnq0dwksaftLIjKD93GuYx448w6vJouHmDFYvmS7VQvowmncoCfvNTkfELT+VHf8Ac6PW
9alUw2wajbFIlY1r7VOESkeTOGjHIWUTb+WPNWpMOcLxof2pz6aj/Yn4vuXLY6bJLp83Pw9mz6Rr
3/i2a+WvygaWRGu1a6k6+mAVjH0fab8Bmbi0MRvLd2uHsyMd5b/c9e0DyHaWKIZ1UcAOESAAAeG2
y/R9+ZwFcnZAACgyuOOONAkahUXYKNhhS3irROKtYq1irWKtE4q1irWKqtn/AL2Qf8ZF/wCJDFXg
v/Obp/5Qv/t5/wDYpirMf+cUP/JeWHyu/wDqKOKvccVdirsVdiqH1L/jnXX/ABhk/wCInFXzH/zg
+a/40/7dn/Y3ir6PnP76T/WP68VU8VaxVonFWicVaxVrFWjiqWXvl3RLwlp7SMuerqODfetMVSiX
8uvLTsWETKT13B/WMHCEcIXR+QNBSm0hA6Dl/ZhSj7byzolsQY7YEj9o9fwpiqZRxxRLxjQIv8qg
AfhireKtYq0TirWKtYq1irROKtYq1irWKqtmf9Mg/wCMif8AEhirwT/nOA0/wX/28/8AsUxVmX/O
J/8A5LvT/ld/9RRxV7lirsVdirsVQ+pf8c66/wCMMn/ETir5g/5wgkVJ/Olu54zkacwjOzUQ3Qbb
2LCuKvpG4qJpK/zH9eKqeKtE4q0TirWKtYq0TirWKtYq1irROKtYq1irWKtE4q1irWKtYq0TirWK
tYq1irROKq1iCbyAAVPNT9xrirwD/nOGaMy+TIgwMiLqTsncKxtQp+nicVZt/wA4nhh+XWn1BB43
Z38DdEjFXuWKuxV2KuxVbJGskbRt9lwVb5EUxV8Y6ze63+RH543GtRWzT+XtWaQywLRVltpnDyxp
XYPDJRk9qdicVfVPlPzx5J876fHf+X9UhvA61eFHC3EZ7rLCfjQj3Hy2xVPP0dF/M34Yq79GxfzN
+GKtfoyL+dvwxV36Mi/nb8MVd+i4f52/DFWv0VD/ADt+GKu/RUP87fh/TFWv0TD/ADt+GKu/RMP8
7fhirv0RB/O34f0xVr9Dwfzt+H9MVd+h4P52/D+mKu/Q0H87fh/TFWv0LB/O34f0xV36Fg/34/4f
0xVr9CW/+/H/AA/pirv0Hb/78f8AD+mKtfoO3/34/wCH9MVd+grf/fj/AIf0xV36Ct/9+P8Ah/TF
Wv0Db/78f8P6Yq79AW3+/H/D+mKpN5n84eRPIlhLqGvanDacVJSKRw1xJ4LFCvxuT7D57Yq+IvzF
87a9+cH5kLcWtu0ccvG00myJr6NshLcpCNqmrO5+joBir7H/ACe8uR6FoVtYwD9zaW6RBiKFiafE
fduFT88VehYq7FXYq7FXYqxP8xvy38v+etDk0zVYlL0rBPSrI46Ed/uxV8j+b/8AnFvzbpN66WEy
ywEn0zMGK8faSMNX6UGKsd/6F88/eNr/AMFP/wBUsVd/0L55+8bX/gp/+qWKu/6F88/eNr/wU/8A
1SxV3/Qvnn7xtf8Agp/+qWKu/wChfPP3ja/8FP8A9UsVd/0L55+8bX/gp/8Aqlirv+hfPP3ja/8A
BT/9UsVd/wBC+efvG1/4Kf8A6pYq7/oXzz942v8AwU//AFSxV3/Qvnn7xtf+Cn/6pYq7/oXzz942
v/BT/wDVLFXf9C+efvG1/wCCn/6pYq7/AKF88/eNr/wU/wD1SxV3/Qvnn7xtf+Cn/wCqWKu/6F88
/eNr/wAFP/1SxV3/AEL55+8bX/gp/wDqlirv+hfPP3ja/wDBT/8AVLFXf9C+efvG1/4Kf/qlirv+
hfPP3ja/8FP/ANUsVd/0L55+8bX/AIKf/qlirv8AoXzz942v/BT/APVLFXf9C+efvG1/4Kf/AKpY
qi9M/wCcc/OVxcBLueCCLu8Ylkb/AIFlj/Xir3r8rPyT0zy4P9FhM97IB691LQuR1oxAoif5I698
Ve76bYR2NqsKbnq7eLHviqKxV2KuxV2KuxV2KrZIo5VKSIHQ9VYAj8cVQp0bSyf95k+7FXfobS/+
WZPxxV36G0v/AJZk/HFXfobS/wDlmT8cVd+htL/5Zk/HFXfobS/+WZPxxV36G0v/AJZk/HFXfobS
/wDlmT8cVd+htL/5Zk/HFXfobS/+WZPxxV36G0v/AJZk/HFXfobS/wDlmT8cVd+htL/5Zk/HFXfo
bS/+WZPxxV36G0v/AJZk/HFXfobS/wDlmT8cVd+htL/5Zk/HFXfobS/+WZPxxV36G0v/AJZk/HFX
fobS/wDlmT8cVd+htL/5Zk/HFXfobS/+WZPxxVw0bSwf95k+7FUVHFHEoSNAiDoqgAfhiq7FXYq7
FX//2Q==</xapGImg:image>


              </rdf:li>


            </rdf:Alt>


          </xap:Thumbnails>


        </rdf:Description>


        <rdf:Description
   rdf:about="uuid:6fb7133e-0d42-4d20-8954-32780fe62e43"
   id="Description58">
          <xapMM:DocumentID
   id="DocumentID60">
uuid:ed137d39-db88-465a-86b4-e2eb2fd20abb</xapMM:DocumentID>


        </rdf:Description>


        <rdf:Description
   rdf:about="uuid:6fb7133e-0d42-4d20-8954-32780fe62e43"
   id="Description62">
          <dc:format
   id="format64">
image/svg+xml</dc:format>


          <dc:title
   id="title66">
            <rdf:Alt
   id="Alt68">
              <rdf:li
   xml:lang="x-default"
   id="li70">
mime.ai</rdf:li>


            </rdf:Alt>


          </dc:title>


        </rdf:Description>


      <cc:Work
   rdf:about=""
   id="Work139">
  <dc:format
   id="format141">image/svg+xml</dc:format>

  <dc:type
   id="type143"
   rdf:resource="http://purl.org/dc/dcmitype/StillImage" />

</cc:Work>

</rdf:RDF>

</metadata>

</x:xmpmeta>


    <xpacket
   id="xpacket72">end='w'    </xpacket>


  </metadata>


  <rect
   id="_x3C_Slice_x3E_"
   width="256.00000"
   height="256.00000"
   style="fill:none"
   x="-8.5571032"
   y="-0.71309191" />


<g
   id="g3903"
   transform="translate(91.03804,41.12163)">
  <path
   d="M -52.527154,-12.024855 C -54.316154,-11.205855 -55.471154,-9.4068547 -55.471154,-7.4408547 L -55.299154,-6.1378547 C -55.299154,-6.1378547 -27.041154,99.325145 -26.156154,102.62615 C -30.169154,101.43015 -34.437154,100.65115 -38.905154,100.36015 C -47.438154,99.806145 -55.478154,101.06215 -60.962154,103.80515 C -60.918154,103.78415 -60.860154,103.75315 -60.815154,103.73415 C -71.695157,108.20015 -80.737157,117.60415 -83.851157,127.69415 C -84.623157,130.19615 -85.015157,132.70515 -85.015157,135.14915 C -85.015157,139.34715 -83.835157,143.33915 -81.602157,146.69515 C -76.874157,154.48315 -68.807157,160.11115 -58.906154,162.50815 C -49.367154,164.81815 -38.499154,164.03415 -28.304154,160.30215 C -28.237154,160.27615 -28.158154,160.24615 -28.158154,160.24615 C -15.359154,154.91515 -6.8171544,147.61215 -3.3921544,139.10415 C -2.2931544,136.37115 -1.7361544,133.55015 -1.7361544,130.72215 C -1.7361544,127.66215 -2.3991544,124.53015 -3.6981544,121.41015 C -3.7181544,121.33715 -24.033154,45.523145 -25.004154,41.899145 C -22.764154,42.795145 -19.283154,44.186145 -19.283154,44.186145 C -11.998154,46.992145 -3.7411544,50.173145 3.1818456,55.067145 C 10.781846,60.440145 15.554846,67.080145 17.774846,75.367145 C 18.446846,77.873145 20.883846,79.452145 23.445846,79.041145 C 26.007846,78.630145 27.828846,76.366145 27.680846,73.775145 C 26.065846,45.513145 8.8758456,34.342145 -9.3221544,22.515145 C -22.225154,14.126145 -35.560154,5.4581453 -46.256154,-10.275855 C -47.645154,-12.316855 -50.282154,-13.052855 -52.527154,-12.024855 z "
   id="path1513"
   style="opacity:0.20000000" />

  <path
   d="M -54.527154,-13.024855 C -56.316154,-12.205855 -57.471154,-10.406855 -57.471154,-8.4408547 L -57.299154,-7.1378547 C -57.299154,-7.1378547 -29.041154,98.325145 -28.156154,101.62615 C -32.169154,100.43015 -36.437154,99.651145 -40.905154,99.360145 C -49.438154,98.806145 -57.478154,100.06215 -62.962157,102.80515 C -62.918157,102.78415 -62.860157,102.75315 -62.815157,102.73415 C -73.695157,107.20015 -82.737157,116.60415 -85.851157,126.69415 C -86.623157,129.19615 -87.015157,131.70515 -87.015157,134.14915 C -87.015157,138.34715 -85.835157,142.33915 -83.602157,145.69515 C -78.874157,153.48315 -70.807157,159.11115 -60.906154,161.50815 C -51.367154,163.81815 -40.499154,163.03415 -30.304154,159.30215 C -30.237154,159.27615 -30.158154,159.24615 -30.158154,159.24615 C -17.359154,153.91515 -8.8171544,146.61215 -5.3921544,138.10415 C -4.2931544,135.37115 -3.7361544,132.55015 -3.7361544,129.72215 C -3.7361544,126.66215 -4.3991544,123.53015 -5.6981544,120.41015 C -5.7181544,120.33715 -26.033154,44.523145 -27.004154,40.899145 C -24.764154,41.795145 -21.283154,43.186145 -21.283154,43.186145 C -13.998154,45.992145 -5.7411544,49.173145 1.1818456,54.067145 C 8.7818456,59.440145 13.554846,66.080145 15.774846,74.367145 C 16.446846,76.873145 18.883846,78.452145 21.445846,78.041145 C 24.007846,77.630145 25.828846,75.366145 25.680846,72.775145 C 24.065846,44.513145 6.8758456,33.342145 -11.322154,21.516145 C -24.225154,13.127145 -37.560154,4.4591453 -48.256154,-11.274855 C -49.645154,-13.316855 -52.282154,-14.052855 -54.527154,-13.024855 z "
   id="path1515"
   style="opacity:0.20000000" />

  <path
   d="M -56.527154,-15.024855 C -58.316154,-14.205855 -59.471154,-12.406855 -59.471154,-10.440855 L -59.299154,-9.1378547 C -59.299154,-9.1378547 -31.041154,96.325145 -30.156154,99.626145 C -34.169154,98.430145 -38.437154,97.651145 -42.905154,97.360145 C -51.438154,96.806145 -59.478154,98.062145 -64.962157,100.80515 C -64.918157,100.78415 -64.860157,100.75315 -64.815157,100.73415 C -75.695157,105.20015 -84.737157,114.60415 -87.851157,124.69415 C -88.623157,127.19615 -89.015157,129.70515 -89.015157,132.14915 C -89.015157,136.34715 -87.835157,140.33915 -85.602157,143.69515 C -80.874157,151.48315 -72.807157,157.11115 -62.906157,159.50815 C -53.367154,161.81815 -42.499154,161.03415 -32.303154,157.30215 C -32.236154,157.27615 -32.158154,157.24615 -32.158154,157.24615 C -19.359154,151.91515 -10.817154,144.61215 -7.3921544,136.10415 C -6.2931544,133.37115 -5.7361544,130.55015 -5.7361544,127.72215 C -5.7361544,124.66215 -6.3991544,121.53015 -7.6981544,118.41015 C -7.7181544,118.33715 -28.033154,42.523145 -29.004154,38.899145 C -26.764154,39.795145 -23.283154,41.186145 -23.283154,41.186145 C -15.998154,43.992145 -7.7411544,47.173145 -0.81815437,52.067145 C 6.7818456,57.440145 11.554846,64.080145 13.774846,72.367145 C 14.446846,74.872145 16.883846,76.451145 19.445846,76.040145 C 22.007846,75.629145 23.828846,73.365145 23.680846,70.774145 C 22.065846,42.512145 4.8758456,31.341145 -13.322154,19.515145 C -26.225154,11.126145 -39.560154,2.4581453 -50.256154,-13.275855 C -51.645154,-15.316855 -54.282154,-16.052855 -56.527154,-15.024855 z "
   id="path1517"
   style="fill:url(#linearGradient3946);fill-opacity:1.0000000" />

  <path
   d="M -37.091154,29.153145 C -25.269154,38.476145 10.280846,40.796145 18.389846,71.064145 C 15.864846,26.832145 -27.768154,29.153145 -54.682154,-10.439855 L -22.857154,108.33715 C -34.035154,101.33315 -53.325154,100.49915 -62.962157,105.31715 C -78.684157,111.65515 -89.422157,129.28215 -81.644157,140.92415 C -73.255157,154.90815 -53.365154,159.54515 -34.292154,152.56715 C -17.539154,145.58715 -6.6711544,133.94215 -12.754154,119.98115 L -37.091154,29.153145 z "
   id="path1519"
   style="fill:url(#linearGradient3948);fill-opacity:1.0000000" />

  <path
   d="M -20.895154,107.81115 C -20.849154,107.98515 -20.828154,108.16115 -20.828154,108.33615 C -20.828154,108.96915 -21.125154,109.57815 -21.650154,109.96715 C -22.321154,110.46315 -23.226154,110.49615 -23.932154,110.05515 C -34.923154,103.16815 -53.450154,102.82815 -62.054157,107.13115 C -62.102157,107.15415 -62.152157,107.17815 -62.202157,107.19715 C -71.293157,110.86315 -78.807157,118.54915 -81.347157,126.77915 C -82.400157,130.19115 -83.014157,135.22015 -79.956157,139.79715 C -79.937157,139.82415 -79.920157,139.85415 -79.903157,139.88115 C -76.148157,146.14115 -69.611157,150.67015 -61.495157,152.63515 C -53.313154,154.61515 -43.914154,153.91815 -35.027154,150.67415 C -24.258154,146.18015 -16.864154,140.06915 -14.207154,133.46315 C -13.454154,131.59415 -13.078154,129.67815 -13.078154,127.72915 C -13.078154,125.45615 -13.590154,123.13715 -14.613154,120.79115 C -14.652154,120.69915 -14.685154,120.60315 -14.712154,120.50615 L -39.050154,29.678145 C -39.096154,29.503145 -39.119154,29.327145 -39.119154,29.153145 C -39.119154,28.482145 -38.786154,27.840145 -38.206154,27.459145 C -37.476154,26.978145 -36.520154,27.019145 -35.834154,27.560145 C -32.583154,30.124145 -27.211154,32.193145 -20.994154,34.588145 C -13.323154,37.544145 -4.6281544,40.894145 3.0108456,46.294145 C 7.1438456,49.216145 10.567846,52.473145 13.327846,56.100145 C 11.561846,51.470145 9.0308456,47.310145 5.6638456,43.457145 C -0.40815437,36.507145 -8.6761544,31.134145 -17.429154,25.445145 C -28.043154,18.547145 -39.821154,10.876145 -50.079154,-1.1018547 C -45.635154,15.484145 -20.895154,107.81115 -20.895154,107.81115 z "
   id="path1521"
   style="fill:#ffffff" />

  <path
   d="M -20.895154,107.81115 C -20.849154,107.98515 -20.828154,108.16115 -20.828154,108.33615 C -20.828154,108.96915 -21.125154,109.57815 -21.650154,109.96715 C -22.321154,110.46315 -23.226154,110.49615 -23.932154,110.05515 C -34.923154,103.16815 -53.450154,102.82815 -62.054157,107.13115 C -62.102157,107.15415 -62.152157,107.17815 -62.202157,107.19715 C -71.293157,110.86315 -78.807157,118.54915 -81.347157,126.77915 C -82.400157,130.19115 -83.014157,135.22015 -79.956157,139.79715 C -79.937157,139.82415 -79.920157,139.85415 -79.903157,139.88115 C -76.148157,146.14115 -69.611157,150.67015 -61.495157,152.63515 C -53.313154,154.61515 -43.914154,153.91815 -35.027154,150.67415 C -24.258154,146.18015 -16.864154,140.06915 -14.207154,133.46315 C -13.454154,131.59415 -13.078154,129.67815 -13.078154,127.72915 C -13.078154,125.45615 -13.590154,123.13715 -14.613154,120.79115 C -14.652154,120.69915 -14.685154,120.60315 -14.712154,120.50615 L -39.050154,29.678145 C -39.096154,29.503145 -39.119154,29.327145 -39.119154,29.153145 C -39.119154,28.482145 -38.786154,27.840145 -38.206154,27.459145 C -37.476154,26.978145 -36.520154,27.019145 -35.834154,27.560145 C -32.583154,30.124145 -27.211154,32.193145 -20.994154,34.588145 C -13.323154,37.544145 -4.6281544,40.894145 3.0108456,46.294145 C 7.1438456,49.216145 10.567846,52.473145 13.327846,56.100145 C 11.561846,51.470145 9.0308456,47.310145 5.6638456,43.457145 C -0.40815437,36.507145 -8.6761544,31.134145 -17.429154,25.445145 C -28.043154,18.547145 -39.821154,10.876145 -50.079154,-1.1018547 C -45.635154,15.484145 -20.895154,107.81115 -20.895154,107.81115 z "
   id="path1523"
   style="fill:url(#linearGradient3950);fill-opacity:1.0000000" />

  <path
   d="M -73.480157,121.18015 C -72.081157,126.53315 -62.852157,128.75415 -52.869154,126.14315 C -42.886154,123.53315 -35.928154,117.07715 -37.328154,111.72315 C -38.728154,106.37015 -47.957154,104.14915 -57.939154,106.75915 C -67.923157,109.37115 -74.881157,115.82715 -73.480157,121.18015 z "
   id="path1525"
   style="fill:url(#radialGradient3952);fill-opacity:1.0000000" />

</g>

<g
   id="g3921"
   transform="translate(-73.68621,16.87650)">
  <path
   d="M 249.46728,-0.75801140 C 247.67828,0.060988602 246.52328,1.8599886 246.52328,3.8259886 L 246.69528,5.1289886 C 246.69528,5.1289886 274.95328,110.59199 275.83828,113.89300 C 271.82528,112.69700 267.55728,111.91800 263.08928,111.62700 C 254.55628,111.07299 246.51628,112.32900 241.03227,115.07200 C 241.07627,115.05100 241.13427,115.02000 241.17927,115.00100 C 230.29927,119.46700 221.25727,128.87100 218.14327,138.96100 C 217.37127,141.46300 216.97927,143.97200 216.97927,146.41600 C 216.97927,150.61400 218.15927,154.60600 220.39227,157.96200 C 225.12027,165.75000 233.18727,171.37800 243.08827,173.77500 C 252.62728,176.08500 263.49528,175.30100 273.69028,171.56900 C 273.75728,171.54300 273.83628,171.51300 273.83628,171.51300 C 286.63528,166.18200 295.17728,158.87900 298.60228,150.37100 C 299.70128,147.63800 300.25828,144.81700 300.25828,141.98900 C 300.25828,138.92900 299.59528,135.79700 298.29628,132.67700 C 298.27628,132.60400 277.96128,56.789989 276.99028,53.165989 C 279.23028,54.061989 282.71128,55.452989 282.71128,55.452989 C 289.99628,58.258987 298.25328,61.439987 305.17628,66.333987 C 312.77628,71.706987 317.54928,78.346987 319.76928,86.633987 C 320.44128,89.139987 322.87828,90.718987 325.44028,90.307987 C 328.00228,89.896987 329.82328,87.632987 329.67528,85.041987 C 328.06028,56.779989 310.87028,45.608989 292.67228,33.781989 C 279.76928,25.392989 266.43428,16.724989 255.73828,0.99098860 C 254.34928,-1.0500114 251.71228,-1.7860114 249.46728,-0.75801140 z "
   id="path1535"
   style="opacity:0.20000000" />

  <path
   d="M 247.46728,-1.7580114 C 245.67828,-0.93901140 244.52328,0.85998860 244.52328,2.8259886 L 244.69528,4.1289886 C 244.69528,4.1289886 272.95328,109.59199 273.83828,112.89300 C 269.82528,111.69700 265.55728,110.91799 261.08928,110.62699 C 252.55628,110.07299 244.51628,111.32900 239.03227,114.07200 C 239.07627,114.05100 239.13427,114.02000 239.17927,114.00100 C 228.29927,118.46700 219.25727,127.87100 216.14327,137.96100 C 215.37127,140.46300 214.97927,142.97200 214.97927,145.41600 C 214.97927,149.61400 216.15927,153.60600 218.39227,156.96200 C 223.12027,164.75000 231.18727,170.37800 241.08827,172.77500 C 250.62728,175.08500 261.49528,174.30100 271.69028,170.56900 C 271.75728,170.54300 271.83628,170.51300 271.83628,170.51300 C 284.63528,165.18200 293.17728,157.87900 296.60228,149.37100 C 297.70128,146.63800 298.25828,143.81700 298.25828,140.98900 C 298.25828,137.92900 297.59528,134.79700 296.29628,131.67700 C 296.27628,131.60400 275.96128,55.789989 274.99028,52.165989 C 277.23028,53.061989 280.71128,54.452989 280.71128,54.452989 C 287.99628,57.258989 296.25328,60.439987 303.17628,65.333987 C 310.77628,70.706987 315.54928,77.346987 317.76928,85.633987 C 318.44128,88.139987 320.87828,89.718987 323.44028,89.307987 C 326.00228,88.896987 327.82328,86.632987 327.67528,84.041987 C 326.06028,55.779989 308.87028,44.608989 290.67228,32.782989 C 277.76928,24.393989 264.43428,15.725989 253.73828,-0.0080113983 C 252.34928,-2.0500114 249.71228,-2.7860114 247.46728,-1.7580114 z "
   id="path1537"
   style="opacity:0.20000000" />

  <path
   d="M 245.46728,-3.7580114 C 243.67828,-2.9390114 242.52327,-1.1400114 242.52327,0.82598860 L 242.69527,2.1289886 C 242.69527,2.1289886 270.95328,107.59199 271.83828,110.89299 C 267.82528,109.69699 263.55728,108.91799 259.08928,108.62699 C 250.55628,108.07299 242.51627,109.32899 237.03227,112.07200 C 237.07627,112.05100 237.13427,112.02000 237.17927,112.00100 C 226.29927,116.46700 217.25727,125.87100 214.14327,135.96100 C 213.37127,138.46300 212.97927,140.97200 212.97927,143.41600 C 212.97927,147.61400 214.15927,151.60600 216.39227,154.96200 C 221.12027,162.75000 229.18727,168.37800 239.08827,170.77500 C 248.62728,173.08500 259.49528,172.30100 269.69128,168.56900 C 269.75828,168.54300 269.83628,168.51300 269.83628,168.51300 C 282.63528,163.18200 291.17728,155.87900 294.60228,147.37100 C 295.70128,144.63800 296.25828,141.81700 296.25828,138.98900 C 296.25828,135.92900 295.59528,132.79700 294.29628,129.67700 C 294.27628,129.60400 273.96128,53.789989 272.99028,50.165989 C 275.23028,51.061989 278.71128,52.452989 278.71128,52.452989 C 285.99628,55.258989 294.25328,58.439987 301.17628,63.333987 C 308.77628,68.706987 313.54928,75.346987 315.76928,83.633987 C 316.44128,86.138987 318.87828,87.717987 321.44028,87.306987 C 324.00228,86.895987 325.82328,84.631987 325.67528,82.040987 C 324.06028,53.778989 306.87028,42.607989 288.67228,30.781989 C 275.76928,22.392989 262.43428,13.724989 251.73828,-2.0090114 C 250.34928,-4.0500114 247.71228,-4.7860114 245.46728,-3.7580114 z "
   id="path1539"
   style="fill:url(#linearGradient3938);fill-opacity:1.0000000" />

  <path
   d="M 264.90328,40.419989 C 276.72528,49.742989 312.27528,52.062989 320.38428,82.330987 C 317.85928,38.098989 274.22628,40.419989 247.31228,0.82698860 L 279.13728,119.60400 C 267.95928,112.60000 248.66928,111.76600 239.03227,116.58400 C 223.31027,122.92200 212.57227,140.54900 220.35027,152.19100 C 228.73927,166.17500 248.62928,170.81200 267.70228,163.83400 C 284.45528,156.85400 295.32328,145.20900 289.24028,131.24800 L 264.90328,40.419989 z "
   id="path1541"
   style="fill:url(#linearGradient3940);fill-opacity:1.0000000" />

  <path
   d="M 281.09928,119.07800 C 281.14528,119.25200 281.16628,119.42800 281.16628,119.60300 C 281.16628,120.23600 280.86928,120.84500 280.34428,121.23400 C 279.67328,121.73000 278.76828,121.76300 278.06228,121.32200 C 267.07128,114.43500 248.54428,114.09500 239.94027,118.39800 C 239.89227,118.42100 239.84227,118.44500 239.79227,118.46400 C 230.70127,122.13000 223.18727,129.81600 220.64727,138.04600 C 219.59427,141.45800 218.98027,146.48700 222.03827,151.06400 C 222.05727,151.09100 222.07427,151.12100 222.09127,151.14800 C 225.84627,157.40800 232.38327,161.93700 240.49927,163.90200 C 248.68128,165.88200 258.08028,165.18500 266.96728,161.94100 C 277.73628,157.44700 285.13028,151.33600 287.78728,144.73000 C 288.54028,142.86100 288.91628,140.94500 288.91628,138.99600 C 288.91628,136.72300 288.40428,134.40400 287.38128,132.05800 C 287.34228,131.96600 287.30928,131.87000 287.28228,131.77300 L 262.94428,40.944989 C 262.89828,40.769989 262.87528,40.593989 262.87528,40.419989 C 262.87528,39.748989 263.20828,39.106989 263.78828,38.725989 C 264.51828,38.244989 265.47428,38.285989 266.16028,38.826989 C 269.41128,41.390989 274.78328,43.459989 281.00028,45.854989 C 288.67128,48.810989 297.36628,52.160989 305.00528,57.560989 C 309.13828,60.482987 312.56228,63.739987 315.32228,67.366987 C 313.55628,62.736987 311.02528,58.576987 307.65828,54.723989 C 301.58628,47.773989 293.31828,42.400989 284.56528,36.711989 C 273.95128,29.813989 262.17328,22.142989 251.91528,10.164989 C 256.35928,26.750989 281.09928,119.07800 281.09928,119.07800 z "
   id="path1543"
   style="fill:#ffffff" />

  <path
   d="M 281.09928,119.07800 C 281.14528,119.25200 281.16628,119.42800 281.16628,119.60300 C 281.16628,120.23600 280.86928,120.84500 280.34428,121.23400 C 279.67328,121.73000 278.76828,121.76300 278.06228,121.32200 C 267.07128,114.43500 248.54428,114.09500 239.94027,118.39800 C 239.89227,118.42100 239.84227,118.44500 239.79227,118.46400 C 230.70127,122.13000 223.18727,129.81600 220.64727,138.04600 C 219.59427,141.45800 218.98027,146.48700 222.03827,151.06400 C 222.05727,151.09100 222.07427,151.12100 222.09127,151.14800 C 225.84627,157.40800 232.38327,161.93700 240.49927,163.90200 C 248.68128,165.88200 258.08028,165.18500 266.96728,161.94100 C 277.73628,157.44700 285.13028,151.33600 287.78728,144.73000 C 288.54028,142.86100 288.91628,140.94500 288.91628,138.99600 C 288.91628,136.72300 288.40428,134.40400 287.38128,132.05800 C 287.34228,131.96600 287.30928,131.87000 287.28228,131.77300 L 262.94428,40.944989 C 262.89828,40.769989 262.87528,40.593989 262.87528,40.419989 C 262.87528,39.748989 263.20828,39.106989 263.78828,38.725989 C 264.51828,38.244989 265.47428,38.285989 266.16028,38.826989 C 269.41128,41.390989 274.78328,43.459989 281.00028,45.854989 C 288.67128,48.810989 297.36628,52.160989 305.00528,57.560989 C 309.13828,60.482987 312.56228,63.739987 315.32228,67.366987 C 313.55628,62.736987 311.02528,58.576987 307.65828,54.723989 C 301.58628,47.773989 293.31828,42.400989 284.56528,36.711989 C 273.95128,29.813989 262.17328,22.142989 251.91528,10.164989 C 256.35928,26.750989 281.09928,119.07800 281.09928,119.07800 z "
   id="path1545"
   style="fill:url(#linearGradient3942);fill-opacity:1.0000000" />

  <path
   d="M 228.51427,132.44700 C 229.91327,137.80000 239.14227,140.02100 249.12528,137.41000 C 259.10828,134.80000 266.06628,128.34400 264.66628,122.99000 C 263.26628,117.63700 254.03728,115.41600 244.05528,118.02600 C 234.07127,120.63800 227.11327,127.09400 228.51427,132.44700 z "
   id="path1547"
   style="fill:url(#radialGradient3944);fill-opacity:1.0000000" />

</g>

<g
   id="g3912"
   transform="translate(26.85978,33.99071)">
  <path
   d="M 108.13900,43.324000 C 106.35000,44.143000 105.19500,45.942000 105.19500,47.908000 L 105.36700,49.211000 C 105.36700,49.211000 133.62500,154.67400 134.51000,157.97500 C 130.49700,156.77900 126.22900,156.00000 121.76100,155.70900 C 113.22800,155.15500 105.18800,156.41100 99.704000,159.15400 C 99.748000,159.13300 99.806000,159.10200 99.851000,159.08300 C 88.971000,163.54900 79.929000,172.95300 76.815000,183.04300 C 76.043000,185.54500 75.651000,188.05400 75.651000,190.49800 C 75.651000,194.69600 76.831000,198.68800 79.064000,202.04400 C 83.792000,209.83200 91.859000,215.46000 101.76000,217.85700 C 111.29900,220.16700 122.16700,219.38300 132.36200,215.65100 C 132.42900,215.62500 132.50800,215.59500 132.50800,215.59500 C 145.30700,210.26400 153.84900,202.96100 157.27400,194.45300 C 158.37300,191.72000 158.93000,188.89900 158.93000,186.07100 C 158.93000,183.01100 158.26700,179.87900 156.96800,176.75900 C 156.94800,176.68600 136.63300,100.87200 135.66200,97.248000 C 137.90200,98.144000 141.38300,99.535000 141.38300,99.535000 C 148.66800,102.34100 156.92500,105.52200 163.84800,110.41600 C 171.44800,115.78900 176.22100,122.42900 178.44100,130.71600 C 179.11300,133.22200 181.55000,134.80100 184.11200,134.39000 C 186.67400,133.97900 188.49500,131.71500 188.34700,129.12400 C 186.73200,100.86200 169.54200,89.691000 151.34400,77.864000 C 138.44100,69.475000 125.10600,60.807000 114.41000,45.073000 C 113.02100,43.032000 110.38400,42.296000 108.13900,43.324000 z "
   id="path3253"
   style="opacity:0.20000000" />

  <path
   d="M 106.13900,42.324000 C 104.35000,43.143000 103.19500,44.942000 103.19500,46.908000 L 103.36700,48.211000 C 103.36700,48.211000 131.62500,153.67400 132.51000,156.97500 C 128.49700,155.77900 124.22900,155.00000 119.76100,154.70900 C 111.22800,154.15500 103.18800,155.41100 97.704000,158.15400 C 97.748000,158.13300 97.806000,158.10200 97.851000,158.08300 C 86.971000,162.54900 77.929000,171.95300 74.815000,182.04300 C 74.043000,184.54500 73.651000,187.05400 73.651000,189.49800 C 73.651000,193.69600 74.831000,197.68800 77.064000,201.04400 C 81.792000,208.83200 89.859000,214.46000 99.760000,216.85700 C 109.29900,219.16700 120.16700,218.38300 130.36200,214.65100 C 130.42900,214.62500 130.50800,214.59500 130.50800,214.59500 C 143.30700,209.26400 151.84900,201.96100 155.27400,193.45300 C 156.37300,190.72000 156.93000,187.89900 156.93000,185.07100 C 156.93000,182.01100 156.26700,178.87900 154.96800,175.75900 C 154.94800,175.68600 134.63300,99.872000 133.66200,96.248000 C 135.90200,97.144000 139.38300,98.535000 139.38300,98.535000 C 146.66800,101.34100 154.92500,104.52200 161.84800,109.41600 C 169.44800,114.78900 174.22100,121.42900 176.44100,129.71600 C 177.11300,132.22200 179.55000,133.80100 182.11200,133.39000 C 184.67400,132.97900 186.49500,130.71500 186.34700,128.12400 C 184.73200,99.862000 167.54200,88.691000 149.34400,76.865000 C 136.44100,68.476000 123.10600,59.808000 112.41000,44.074000 C 111.02100,42.032000 108.38400,41.296000 106.13900,42.324000 z "
   id="path3254"
   style="opacity:0.20000000" />

  <path
   d="M 104.13900,40.324000 C 102.35000,41.143000 101.19500,42.942000 101.19500,44.908000 L 101.36700,46.211000 C 101.36700,46.211000 129.62500,151.67400 130.51000,154.97500 C 126.49700,153.77900 122.22900,153.00000 117.76100,152.70900 C 109.22800,152.15500 101.18800,153.41100 95.704000,156.15400 C 95.748000,156.13300 95.806000,156.10200 95.851000,156.08300 C 84.971000,160.54900 75.929000,169.95300 72.815000,180.04300 C 72.043000,182.54500 71.651000,185.05400 71.651000,187.49800 C 71.651000,191.69600 72.831000,195.68800 75.064000,199.04400 C 79.792000,206.83200 87.859000,212.46000 97.760000,214.85700 C 107.29900,217.16700 118.16700,216.38300 128.36300,212.65100 C 128.43000,212.62500 128.50800,212.59500 128.50800,212.59500 C 141.30700,207.26400 149.84900,199.96100 153.27400,191.45300 C 154.37300,188.72000 154.93000,185.89900 154.93000,183.07100 C 154.93000,180.01100 154.26700,176.87900 152.96800,173.75900 C 152.94800,173.68600 132.63300,97.872000 131.66200,94.248000 C 133.90200,95.144000 137.38300,96.535000 137.38300,96.535000 C 144.66800,99.341000 152.92500,102.52200 159.84800,107.41600 C 167.44800,112.78900 172.22100,119.42900 174.44100,127.71600 C 175.11300,130.22100 177.55000,131.80000 180.11200,131.38900 C 182.67400,130.97800 184.49500,128.71400 184.34700,126.12300 C 182.73200,97.861000 165.54200,86.690000 147.34400,74.864000 C 134.44100,66.475000 121.10600,57.807000 110.41000,42.073000 C 109.02100,40.032000 106.38400,39.296000 104.13900,40.324000 z "
   id="path3261"
   style="fill:url(#linearGradient3930)" />

  <path
   d="M 123.57500,84.502000 C 135.39700,93.825000 170.94700,96.145000 179.05600,126.41300 C 176.53100,82.181000 132.89800,84.502000 105.98400,44.909000 L 137.80900,163.68600 C 126.63100,156.68200 107.34100,155.84800 97.704000,160.66600 C 81.982000,167.00400 71.244000,184.63100 79.022000,196.27300 C 87.411000,210.25700 107.30100,214.89400 126.37400,207.91600 C 143.12700,200.93600 153.99500,189.29100 147.91200,175.33000 L 123.57500,84.502000 z "
   id="path3268"
   style="fill:url(#linearGradient3932)" />

  <path
   d="M 139.77100,163.16000 C 139.81700,163.33400 139.83800,163.51000 139.83800,163.68500 C 139.83800,164.31800 139.54100,164.92700 139.01600,165.31600 C 138.34500,165.81200 137.44000,165.84500 136.73400,165.40400 C 125.74300,158.51700 107.21600,158.17700 98.612000,162.48000 C 98.564000,162.50300 98.514000,162.52700 98.464000,162.54600 C 89.373000,166.21200 81.859000,173.89800 79.319000,182.12800 C 78.266000,185.54000 77.652000,190.56900 80.710000,195.14600 C 80.729000,195.17300 80.746000,195.20300 80.763000,195.23000 C 84.518000,201.49000 91.055000,206.01900 99.171000,207.98400 C 107.35300,209.96400 116.75200,209.26700 125.63900,206.02300 C 136.40800,201.52900 143.80200,195.41800 146.45900,188.81200 C 147.21200,186.94300 147.58800,185.02700 147.58800,183.07800 C 147.58800,180.80500 147.07600,178.48600 146.05300,176.14000 C 146.01400,176.04800 145.98100,175.95200 145.95400,175.85500 L 121.61600,85.027000 C 121.57000,84.852000 121.54700,84.676000 121.54700,84.502000 C 121.54700,83.831000 121.88000,83.189000 122.46000,82.808000 C 123.19000,82.327000 124.14600,82.368000 124.83200,82.909000 C 128.08300,85.473000 133.45500,87.542000 139.67200,89.937000 C 147.34300,92.893000 156.03800,96.243000 163.67700,101.64300 C 167.81000,104.56500 171.23400,107.82200 173.99400,111.44900 C 172.22800,106.81900 169.69700,102.65900 166.33000,98.806000 C 160.25800,91.856000 151.99000,86.483000 143.23700,80.794000 C 132.62300,73.896000 120.84500,66.225000 110.58700,54.247000 C 115.03100,70.833000 139.77100,163.16000 139.77100,163.16000 z "
   id="path3269"
   style="fill:#ffffff" />

  <path
   d="M 139.77100,163.16000 C 139.81700,163.33400 139.83800,163.51000 139.83800,163.68500 C 139.83800,164.31800 139.54100,164.92700 139.01600,165.31600 C 138.34500,165.81200 137.44000,165.84500 136.73400,165.40400 C 125.74300,158.51700 107.21600,158.17700 98.612000,162.48000 C 98.564000,162.50300 98.514000,162.52700 98.464000,162.54600 C 89.373000,166.21200 81.859000,173.89800 79.319000,182.12800 C 78.266000,185.54000 77.652000,190.56900 80.710000,195.14600 C 80.729000,195.17300 80.746000,195.20300 80.763000,195.23000 C 84.518000,201.49000 91.055000,206.01900 99.171000,207.98400 C 107.35300,209.96400 116.75200,209.26700 125.63900,206.02300 C 136.40800,201.52900 143.80200,195.41800 146.45900,188.81200 C 147.21200,186.94300 147.58800,185.02700 147.58800,183.07800 C 147.58800,180.80500 147.07600,178.48600 146.05300,176.14000 C 146.01400,176.04800 145.98100,175.95200 145.95400,175.85500 L 121.61600,85.027000 C 121.57000,84.852000 121.54700,84.676000 121.54700,84.502000 C 121.54700,83.831000 121.88000,83.189000 122.46000,82.808000 C 123.19000,82.327000 124.14600,82.368000 124.83200,82.909000 C 128.08300,85.473000 133.45500,87.542000 139.67200,89.937000 C 147.34300,92.893000 156.03800,96.243000 163.67700,101.64300 C 167.81000,104.56500 171.23400,107.82200 173.99400,111.44900 C 172.22800,106.81900 169.69700,102.65900 166.33000,98.806000 C 160.25800,91.856000 151.99000,86.483000 143.23700,80.794000 C 132.62300,73.896000 120.84500,66.225000 110.58700,54.247000 C 115.03100,70.833000 139.77100,163.16000 139.77100,163.16000 z "
   id="path3286"
   style="fill:url(#linearGradient3934)" />

  <path
   d="M 87.186000,176.52900 C 88.585000,181.88200 97.814000,184.10300 107.79700,181.49200 C 117.78000,178.88200 124.73800,172.42600 123.33800,167.07200 C 121.93800,161.71900 112.70900,159.49800 102.72700,162.10800 C 92.743000,164.72000 85.785000,171.17600 87.186000,176.52900 z "
   id="path3293"
   style="fill:url(#radialGradient3936)" />

</g>

</svg>
