<?xml version="1.0" encoding="UTF-8" standalone="no"?>
<!-- Created with Sodipodi ("http://www.sodipodi.com/") -->
<svg
   xmlns:dc="http://purl.org/dc/elements/1.1/"
   xmlns:cc="http://web.resource.org/cc/"
   xmlns:rdf="http://www.w3.org/1999/02/22-rdf-syntax-ns#"
   xmlns:svg="http://www.w3.org/2000/svg"
   xmlns="http://www.w3.org/2000/svg"
   xmlns:xlink="http://www.w3.org/1999/xlink"
   xmlns:sodipodi="http://sodipodi.sourceforge.net/DTD/sodipodi-0.dtd"
   xmlns:inkscape="http://www.inkscape.org/namespaces/inkscape"
   inkscape:export-ydpi="22.5"
   inkscape:export-xdpi="22.5"
   inkscape:export-filename="/mnt/vdrsrc/xxv/devlop/XXV-Skins/stone/images/down.png"
   inkscape:version="0.45.1"
   sodipodi:docbase="/mnt/vdrsrc/xxv/svn/xxv/XXV-Skins/trunk/stone/images/artwork"
   sodipodi:docname="down.svg"
   sodipodi:version="0.32"
   id="svg696"
   xml:space="preserve"
   style="overflow:visible;enable-background:new 0 0 256 256"
   viewBox="0 0 256 256"
   height="64"
   width="64"
   inkscape:output_extension="org.inkscape.output.svg.inkscape"
   version="1.0"><metadata
   id="metadata28"><rdf:RDF><cc:Work
       rdf:about=""><dc:format>image/svg+xml</dc:format><dc:type
         rdf:resource="http://purl.org/dc/dcmitype/StillImage" /></cc:Work></rdf:RDF></metadata><defs
   id="defs731">
  <linearGradient
   gradientTransform="matrix(0,1,1,0,-4.882813e-4,-9.765625e-4)"
   y2="188.4328"
   x2="204.8024"
   y1="67.090797"
   x1="83.460403"
   gradientUnits="userSpaceOnUse"
   id="XMLID_5_">
      <stop
   id="stop703"
   style="stop-color:#0066CC"
   offset="0" />


      <stop
   id="stop704"
   style="stop-color:#003399"
   offset="1" />


    </linearGradient>
  <linearGradient
   gradientTransform="matrix(0,1,1,0,-4.882813e-4,-9.765625e-4)"
   y2="188.3932"
   x2="204.8073"
   y1="66.984398"
   x1="83.398399"
   gradientUnits="userSpaceOnUse"
   id="XMLID_6_">
      <stop
   id="stop710"
   style="stop-color:#FFFFFF"
   offset="0" />


      <stop
   id="stop711"
   style="stop-color:#F0F0F0"
   offset="1" />


    </linearGradient>
  <linearGradient
   gradientTransform="matrix(0,1,1,0,-4.882813e-4,-9.765625e-4)"
   y2="189.3049"
   x2="203.9109"
   y1="67.966301"
   x1="82.572304"
   gradientUnits="userSpaceOnUse"
   id="XMLID_7_">
      <stop
   id="stop717"
   style="stop-color:#FFFFFF"
   offset="0" />


      <stop
   id="stop718"
   style="stop-color:#DFDFDF"
   offset="1" />


    </linearGradient>
  <linearGradient
   gradientTransform="matrix(0,1,1,0,-4.882813e-4,-9.765625e-4)"
   y2="184.881"
   x2="195.35629"
   y1="92.283203"
   x1="102.7588"
   gradientUnits="userSpaceOnUse"
   id="XMLID_8_">
      <stop
   id="stop724"
   style="stop-color:#428AFF"
   offset="0" />


      <stop
   id="stop725"
   style="stop-color:#003399"
   offset="1" />


    </linearGradient>
  <linearGradient
   y2="184.881"
   x2="195.35629"
   y1="92.283203"
   x1="102.7588"
   gradientTransform="matrix(0,-1,1,0,0.356058,256.3575)"
   gradientUnits="userSpaceOnUse"
   id="linearGradient1349"
   xlink:href="#XMLID_8_"
   inkscape:collect="always" />
  <linearGradient
   y2="189.3049"
   x2="203.9109"
   y1="67.966301"
   x1="82.572304"
   gradientTransform="matrix(0,-1,1,0,0.356058,256.3575)"
   gradientUnits="userSpaceOnUse"
   id="linearGradient1352"
   xlink:href="#XMLID_7_"
   inkscape:collect="always" />
  <linearGradient
   y2="188.3932"
   x2="204.8073"
   y1="66.984398"
   x1="83.398399"
   gradientTransform="matrix(0,-1,1,0,0.356058,256.3575)"
   gradientUnits="userSpaceOnUse"
   id="linearGradient1355"
   xlink:href="#XMLID_6_"
   inkscape:collect="always" />
  <linearGradient
   y2="188.4328"
   x2="204.8024"
   y1="67.090797"
   x1="83.460403"
   gradientTransform="matrix(0,-1,1,0,0.356058,256.3575)"
   gradientUnits="userSpaceOnUse"
   id="linearGradient1358"
   xlink:href="#XMLID_5_"
   inkscape:collect="always" />
</defs>
<sodipodi:namedview
   inkscape:current-layer="svg696"
   inkscape:window-y="0"
   inkscape:window-x="0"
   inkscape:window-height="641"
   inkscape:window-width="872"
   inkscape:cy="30"
   inkscape:cx="30"
   inkscape:zoom="7.1333333"
   id="base"
   width="64px"
   height="64px" />
<g
   id="g1363"
   transform="matrix(1.0624905,0,0,1.1352902,-10.358175,-20.091103)"><path
   id="path700"
   d="M 22.244441,119.25923 C 22.245441,119.26123 24.017441,122.13823 24.017441,122.13823 C 25.878441,125.16123 42.804441,152.45423 63.722441,179.56624 C 93.503441,218.16624 115.22545,236.14324 132.08645,236.14324 L 132.08645,236.14324 C 148.94445,236.14324 170.66745,218.16624 200.44745,179.56624 C 221.40745,152.40023 238.29845,125.15623 240.15445,122.13823 L 241.92745,119.25723 C 243.50845,116.69223 243.57645,113.46223 242.10545,110.83223 C 240.63545,108.20123 237.84945,106.56723 234.83845,106.56723 C 234.83845,106.56723 192.35245,106.56723 186.10845,106.56723 C 186.10845,100.06023 186.10845,37.243233 186.10845,37.243233 C 186.10845,32.653233 182.37545,28.919233 177.78445,28.919233 L 86.387441,28.918233 C 81.797441,28.918233 78.062441,32.653233 78.062441,37.243233 C 78.062441,37.243233 78.062441,100.05923 78.062441,106.56723 C 71.819441,106.56723 29.333441,106.56723 29.333441,106.56723 C 26.319441,106.56723 23.534441,108.20223 22.065441,110.83423 C 20.594441,113.46223 20.662441,116.69023 22.244441,119.25923 z "
   style="opacity:0.2" />
<path
   id="path701"
   d="M 20.244441,116.68196 C 20.245441,116.68396 22.017441,119.56096 22.017441,119.56096 C 23.878441,122.58396 40.804441,149.87696 61.722441,176.98897 C 91.503441,215.58897 113.22545,233.56597 130.08645,233.56597 L 130.08645,233.56597 C 146.94445,233.56597 168.66745,215.58897 198.44745,176.98897 C 219.40745,149.82296 236.29845,122.57896 238.15445,119.56096 L 239.92745,116.67996 C 241.50845,114.11496 241.57645,110.88496 240.10545,108.25496 C 238.63545,105.62396 235.84945,103.98996 232.83845,103.98996 C 232.83845,103.98996 190.35245,103.98996 184.10845,103.98996 C 184.10845,97.482966 184.10845,34.665966 184.10845,34.665966 C 184.10845,30.075966 180.37545,26.341966 175.78445,26.341966 L 84.387441,26.340966 C 79.797441,26.340966 76.062441,30.075966 76.062441,34.665966 C 76.062441,34.665966 76.062441,97.481966 76.062441,103.98996 C 69.819441,103.98996 27.333441,103.98996 27.333441,103.98996 C 24.319441,103.98996 21.534441,105.62496 20.065441,108.25696 C 18.594441,110.88496 18.662441,114.11296 20.244441,116.68196 z "
   style="opacity:0.2" />
<path
   id="path708"
   d="M 18.514546,115.08554 C 18.515546,115.08754 20.287546,117.96454 20.287546,117.96454 C 22.148546,120.98754 39.074546,148.28054 59.992546,175.39255 C 89.773546,213.99155 111.49655,231.96855 128.35655,231.96855 L 128.35655,231.96855 C 145.21555,231.96855 166.93855,213.99155 196.71855,175.39155 C 217.67855,148.22554 234.56955,120.98154 236.42555,117.96354 L 238.19855,115.08254 C 239.77955,112.51754 239.84755,109.28754 238.37655,106.65754 C 236.90655,104.02654 234.12055,102.39254 231.10955,102.39254 C 231.10955,102.39254 188.62355,102.39254 182.37955,102.39254 C 182.37955,95.885542 182.37955,33.068542 182.37955,33.068542 C 182.37955,28.478542 178.64655,24.744542 174.05555,24.744542 L 82.658546,24.743542 C 78.068546,24.743542 74.333546,28.478542 74.333546,33.068542 C 74.333546,33.068542 74.333546,95.884542 74.333546,102.39254 C 68.090546,102.39254 25.604546,102.39254 25.604546,102.39254 C 22.590546,102.39254 19.805546,104.02754 18.336546,106.65954 C 16.864546,109.28854 16.932546,112.51654 18.514546,115.08554 z "
   style="fill:url(#linearGradient1358)" />
<path
   id="path715"
   d="M 27.376546,113.59954 C 30.143546,118.09254 95.503546,223.64355 128.35655,223.64355 C 161.20755,223.64355 226.56955,118.09354 229.33655,113.59954 L 231.10955,110.71854 C 231.10955,110.71854 177.58255,110.71854 174.05455,110.71854 C 174.05455,107.11954 174.05455,33.069542 174.05455,33.069542 L 82.657546,33.069542 C 82.657546,33.069542 82.657546,107.12054 82.657546,110.71854 C 79.130546,110.71854 25.602546,110.71854 25.602546,110.71854 L 27.376546,113.59954 z "
   style="fill:url(#linearGradient1355)" />
<path
   id="path722"
   d="M 128.35655,217.34355 C 148.86055,217.34355 193.45555,158.41255 219.75955,117.01854 C 205.19355,117.01854 167.75455,117.01854 167.75455,117.01854 C 167.75455,117.01854 167.75455,50.007542 167.75455,39.370542 C 157.64055,39.370542 99.072546,39.369542 88.958546,39.369542 C 88.958546,50.007542 88.958546,117.01854 88.958546,117.01854 C 88.958546,117.01854 51.519546,117.01854 36.953546,117.01854 C 63.251546,158.41255 107.84355,217.34355 128.35655,217.34355 z "
   style="fill:url(#linearGradient1352)" />
<path
   id="path729"
   d="M 81.353546,156.09254 L 81.353546,156.09254 C 111.61855,195.73755 125.63455,202.23355 128.35855,203.18255 C 131.08455,202.23155 145.10055,195.72655 175.35855,156.09254 C 181.18355,148.46254 187.26055,140.05054 193.46755,131.05854 C 182.40655,131.05854 153.71455,131.05854 153.71455,131.05854 C 153.71455,131.05854 153.71455,61.397542 153.71455,53.410542 C 146.64855,53.410542 110.06555,53.410542 102.99755,53.410542 C 102.99755,61.397542 102.99755,131.05854 102.99755,131.05854 C 102.99755,131.05854 74.305546,131.05854 63.243546,131.05854 C 69.446546,140.04354 75.523546,148.45554 81.353546,156.09254 z "
   style="fill:url(#linearGradient1349)" />


  </g>


</svg>