<?xml version="1.0" encoding="UTF-8" standalone="no"?>
<!-- Created with Sodipodi ("http://www.sodipodi.com/") -->
<svg
   xmlns:dc="http://purl.org/dc/elements/1.1/"
   xmlns:cc="http://web.resource.org/cc/"
   xmlns:rdf="http://www.w3.org/1999/02/22-rdf-syntax-ns#"
   xmlns:svg="http://www.w3.org/2000/svg"
   xmlns="http://www.w3.org/2000/svg"
   xmlns:xlink="http://www.w3.org/1999/xlink"
   xmlns:sodipodi="http://sodipodi.sourceforge.net/DTD/sodipodi-0.dtd"
   xmlns:inkscape="http://www.inkscape.org/namespaces/inkscape"
   width="64"
   height="64"
   viewBox="0 0 48 48"
   style="overflow:visible;enable-background:new 0 0 48 48"
   xml:space="preserve"
   id="svg786"
   sodipodi:version="0.32"
   sodipodi:docname="edit.svg"
   sodipodi:docbase="/mnt/vdrsrc/xxv/svn/xxv/XXV-Skins/trunk/stone/images/artwork"
   inkscape:version="0.45.1"
   inkscape:output_extension="org.inkscape.output.svg.inkscape"
   version="1.0"
   inkscape:export-filename="/mnt/vdrsrc/xxv/svn/xxv/XXV-Skins/trunk/stone/images/edit.png"
   inkscape:export-xdpi="22"
   inkscape:export-ydpi="22"><metadata
   id="metadata40"><rdf:RDF><cc:Work
       rdf:about=""><dc:format>image/svg+xml</dc:format><dc:type
         rdf:resource="http://purl.org/dc/dcmitype/StillImage" /></cc:Work></rdf:RDF></metadata>
  <defs
   id="defs962">
    <linearGradient
   id="XMLID_29_"
   gradientUnits="userSpaceOnUse"
   x1="-157.73241"
   y1="294.55859"
   x2="-134.7892"
   y2="271.61539"
   gradientTransform="matrix(1,0,0,-1,178.5,315.5)">
      <stop
   offset="0"
   style="stop-color:#FFFFFF"
   id="stop864" />

      <stop
   offset="1"
   style="stop-color:#B1B1C5"
   id="stop865" />

    </linearGradient>
    <linearGradient
   id="XMLID_36_"
   gradientUnits="userSpaceOnUse"
   x1="-201.0083"
   y1="268.4639"
   x2="-178.6366"
   y2="281.3212"
   gradientTransform="matrix(1,0,0,-1,178.5,315.5)">
      <stop
   offset="0"
   style="stop-color:#336666"
   id="stop921" />

      <stop
   offset="1"
   style="stop-color:#003333"
   id="stop922" />

    </linearGradient>
    <linearGradient
   id="XMLID_37_"
   gradientUnits="userSpaceOnUse"
   x1="-368.0845"
   y1="21.1597"
   x2="-364.22961"
   y2="17.304501"
   gradientTransform="matrix(0.999,4.35e-2,4.35e-2,-0.999,401.3,52.7485)">
      <stop
   offset="0"
   style="stop-color:#F8F1DC"
   id="stop928" />

      <stop
   offset="1"
   style="stop-color:#D6A84A"
   id="stop929" />

    </linearGradient>
    <linearGradient
   id="XMLID_38_"
   gradientUnits="userSpaceOnUse"
   x1="-360.80081"
   y1="30.289101"
   x2="-358.75189"
   y2="32.730801"
   gradientTransform="matrix(0.999,4.35e-2,4.35e-2,-0.999,401.3,52.7485)">
      <stop
   offset="0"
   style="stop-color:#009F81"
   id="stop935" />

      <stop
   offset="1"
   style="stop-color:#336666"
   id="stop936" />

    </linearGradient>
    <linearGradient
   id="XMLID_39_"
   gradientUnits="userSpaceOnUse"
   x1="-372.77591"
   y1="37.686501"
   x2="-364.164"
   y2="18.5667"
   gradientTransform="matrix(0.999,4.35e-2,4.35e-2,-0.999,401.3,52.7485)">
      <stop
   offset="0"
   style="stop-color:#2CA900"
   id="stop942" />

      <stop
   offset="0.7753"
   style="stop-color:#33CC33"
   id="stop943" />

      <stop
   offset="1"
   style="stop-color:#006A00"
   id="stop944" />

    </linearGradient>
    <linearGradient
   id="XMLID_40_"
   gradientUnits="userSpaceOnUse"
   x1="-219.2041"
   y1="144.43649"
   x2="-222.7178"
   y2="144.43649"
   gradientTransform="matrix(-0.1991,0.98,-0.98,-0.1991,123.7572,270.0863)">
      <stop
   offset="0"
   style="stop-color:#336666"
   id="stop952" />

      <stop
   offset="1"
   style="stop-color:#003333"
   id="stop953" />

    </linearGradient>
  
    

    

    

    

    

    

    

    

    

    

    

    

    

    

    

    <linearGradient
   inkscape:collect="always"
   xlink:href="#XMLID_40_"
   id="linearGradient2195"
   gradientUnits="userSpaceOnUse"
   gradientTransform="matrix(-0.3338491,1.6355765,-1.6432552,-0.332289,176.91852,446.98212)"
   x1="-219.2041"
   y1="144.43649"
   x2="-222.7178"
   y2="144.43649" /><linearGradient
   inkscape:collect="always"
   xlink:href="#XMLID_39_"
   id="linearGradient2198"
   gradientUnits="userSpaceOnUse"
   gradientTransform="matrix(1.6751142,7.2599569e-2,7.2940409e-2,-1.6672867,642.83534,83.719418)"
   x1="-372.77591"
   y1="37.686501"
   x2="-364.164"
   y2="18.5667" /><linearGradient
   inkscape:collect="always"
   xlink:href="#XMLID_38_"
   id="linearGradient2201"
   gradientUnits="userSpaceOnUse"
   gradientTransform="matrix(1.6751142,7.2599569e-2,7.2940409e-2,-1.6672867,642.83534,83.719418)"
   x1="-360.80081"
   y1="30.289101"
   x2="-358.75189"
   y2="32.730801" /><linearGradient
   inkscape:collect="always"
   xlink:href="#XMLID_37_"
   id="linearGradient2204"
   gradientUnits="userSpaceOnUse"
   gradientTransform="matrix(1.6751142,7.2599569e-2,7.2940409e-2,-1.6672867,642.83534,83.719418)"
   x1="-368.0845"
   y1="21.1597"
   x2="-364.22961"
   y2="17.304501" /><linearGradient
   inkscape:collect="always"
   xlink:href="#XMLID_36_"
   id="linearGradient2207"
   gradientUnits="userSpaceOnUse"
   gradientTransform="matrix(1.676791,0,0,-1.6689556,269.24631,522.24)"
   x1="-201.0083"
   y1="268.4639"
   x2="-178.6366"
   y2="281.3212" /><linearGradient
   inkscape:collect="always"
   xlink:href="#XMLID_29_"
   id="linearGradient2214"
   gradientUnits="userSpaceOnUse"
   gradientTransform="matrix(1.7200703,0.730663,1.0391748,-1.8927242,-13.886436,684.81228)"
   x1="-157.73241"
   y1="294.55859"
   x2="-134.7892"
   y2="271.61539" /></defs>
  <sodipodi:namedview
   id="base"
   inkscape:zoom="6.3028633"
   inkscape:cx="89.06562"
   inkscape:cy="40.257749"
   inkscape:window-width="1269"
   inkscape:window-height="950"
   inkscape:window-x="0"
   inkscape:window-y="0"
   showguides="true"
   inkscape:guide-bbox="true"
   inkscape:current-layer="svg786"
   width="64px"
   height="64px" />
  <path
   id="path859"
   d="M 8.2397612,3.6263251 C 6.3305312,3.6214601 4.7666862,5.0414641 4.7525182,6.7895451 L 4.4855262,44.076753 C 4.4713562,45.824835 6.0170702,47.248135 7.9263022,47.253001 L 43.785168,47.320014 C 45.694398,47.324882 47.258238,45.904876 47.272408,44.156794 L 47.539398,6.8695881 C 47.550928,5.1226361 46.006208,3.6974941 44.098628,3.6933361 L 8.2397612,3.6263251 z "
   style="opacity:0.2" /><path
   id="path861"
   d="M 5.4255778,1.5000047 C 3.4290902,1.4968862 1.7956633,2.9574537 1.7808554,4.7577934 L 1.5000874,43.159033 C 1.4863166,44.957484 3.1007937,46.425234 5.0962437,46.430245 L 42.576161,46.499991 C 44.569892,46.50427 46.206076,45.042545 46.219166,43.241469 L 46.499933,4.8402304 C 46.511984,3.0410494 44.897505,1.5733014 42.903776,1.5690222 L 5.4255778,1.5000047 z "
   style="fill:#003366" /><path
   id="path862"
   d="M 2.5658422,43.161262 C 2.5564368,44.434047 3.6924085,45.467452 5.1040031,45.469537 L 42.583924,45.539281 C 43.994482,45.54326 45.145724,44.512761 45.153409,43.239244 L 45.434857,4.840628 C 45.444264,3.5678405 44.308292,2.534436 42.894975,2.5316223 L 5.416776,2.4626058 C 4.0051794,2.4605213 2.8549784,3.4891306 2.8455725,4.761915 L 2.5658422,43.161262 z "
   style="fill:#ffffff" /><path
   id="path869"
   d="M 42.756752,4.2515302 L 42.756752,4.2515302 L 5.2785527,4.1825127 C 5.0722158,4.1835642 4.8901421,4.2486032 4.7771575,4.3616663 C 4.7028725,4.4351463 4.6653921,4.526597 4.6647117,4.6360143 L 4.3856649,43.037984 C 4.3811898,43.374533 4.7506853,43.748566 5.2456671,43.751091 L 42.72387,43.820105 C 42.929164,43.820947 43.11228,43.754015 43.225262,43.640953 C 43.300586,43.565579 43.337029,43.476022 43.337707,43.366605 L 43.616754,4.9646368 C 43.620192,4.6299781 43.250014,4.2533222 42.756752,4.2515302 z "
   style="fill:url(#linearGradient2214)" /><path
   id="path870"
   d="M 31.484251,19.791247 C 35.468863,16.451427 40.239496,14.81331 45.368233,14.006549 L 45.434857,4.840628 C 45.444264,3.5678405 44.308292,2.534436 42.894975,2.5316223 L 5.416776,2.4626058 C 4.0051794,2.4605213 2.8549784,3.4891306 2.8455725,4.761915 L 2.6439446,32.270607 C 13.197704,33.007391 23.232433,26.402202 31.484251,19.791247 z "
   style="opacity:0.4;fill:#ffffff" /><path
   id="path917"
   d="M 46.089842,31.09547 C 40.086971,31.502694 19.77564,34.540956 19.685922,34.547632 C 19.685922,34.547632 19.683291,34.577673 19.683291,34.577673 C 19.331028,34.626074 17.13701,36.051362 9.8662846,40.776173 L 9.7409501,40.857952 C 9.7409501,40.857952 9.7132441,40.876311 9.7119249,40.87798 C 10.155212,41.175054 10.572117,41.453769 10.60246,41.473796 C 10.665788,41.503838 20.139774,45.869826 20.139774,45.869826 C 20.139774,45.869826 20.151645,45.87984 20.162193,45.889853 C 20.342938,45.878171 37.652495,43.831185 45.226669,43.337173 L 46.089842,31.09547 z "
   style="opacity:0.2"
   sodipodi:nodetypes="cccccsscscc" /><path
   id="path918"
   d="M 39.421969,1.1603564 C 39.420295,1.1620259 15.433793,27.743483 15.259405,27.937081 C 15.261079,27.937081 15.279532,27.960447 15.279532,27.960447 C 14.999504,28.30759 14.038705,31.28 10.859506,41.123497 L 10.804173,41.293732 C 10.804173,41.293732 10.794111,41.330449 10.792434,41.333787 C 11.40111,41.148532 11.974574,40.971623 12.016487,40.958271 C 12.093631,40.923223 23.712115,35.534168 23.712115,35.534168 C 23.712115,35.534168 23.730554,35.530829 23.747319,35.527491 C 24.030694,35.217066 47.976957,8.7858154 47.976957,8.7858154 C 48.136254,8.5938847 48.210023,8.3485491 48.210023,8.0648254 C 48.210023,6.8281304 46.81997,4.8604314 45.131436,3.3516949 C 43.045505,1.480796 40.339168,0.14896904 39.421969,1.1603564 z "
   style="opacity:0.2" /><path
   id="path919"
   d="M 39.108411,0.84826148 C 39.106723,0.84993095 15.120235,27.431388 14.945847,27.624986 C 14.947521,27.624986 14.965974,27.648352 14.965974,27.648352 C 14.685946,27.995495 13.725147,30.967905 10.545947,40.811404 L 10.490612,40.981637 C 10.490612,40.981637 10.480552,41.018354 10.478875,41.021692 C 11.087551,40.836437 11.661012,40.659528 11.702932,40.646176 C 11.780065,40.611128 23.398544,35.222073 23.398544,35.222073 C 23.398544,35.222073 23.416996,35.218734 23.433762,35.215396 C 23.717136,34.901633 47.6634,8.4720509 47.6634,8.4720509 C 47.822682,8.2801217 47.896465,8.0347846 47.896465,7.7510623 C 47.896465,6.514366 46.506412,4.546667 44.817878,3.0379319 C 42.730274,1.1670329 40.02561,-0.16312452 39.108411,0.84826148 z "
   style="opacity:0.2" /><path
   id="path926"
   d="M 38.793166,0.53449844 C 38.791492,0.53616792 14.80499,27.117623 14.630616,27.311222 C 14.63229,27.311222 14.650729,27.334588 14.650729,27.334588 C 14.370701,27.68173 13.409901,30.65414 10.23071,40.497639 L 10.177052,40.667872 C 10.177052,40.667872 10.166991,40.70459 10.165315,40.707929 C 10.775667,40.522674 11.347453,40.345765 11.389373,40.332413 C 11.466505,40.297365 23.084986,34.908308 23.084986,34.908308 C 23.084986,34.908308 23.103439,34.904971 23.120204,34.901633 C 23.403579,34.587869 47.349828,8.1582879 47.349828,8.1582879 C 47.509124,7.9663572 47.582908,7.7210216 47.582908,7.4372993 C 47.582908,6.2006029 46.192854,4.232904 44.504321,2.7241674 C 42.416716,0.85493798 39.710379,-0.47688896 38.793166,0.53449844 z "
   style="fill:url(#linearGradient2207)" /><path
   id="path933"
   d="M 15.586381,27.696751 L 11.350806,39.41282 L 22.578602,33.911942 L 22.528292,33.86688 C 22.605423,33.841846 22.68088,33.811804 22.744607,33.768412 L 22.781484,33.805129 L 46.03187,8.1215707 L 45.994993,8.0898605 C 46.689182,7.3254782 45.6764,5.2960283 43.738021,3.5569772 C 41.799657,1.8195941 39.668452,1.0318476 38.975936,1.7945604 L 15.728912,27.47478 L 15.586381,27.696751 z "
   style="fill:url(#linearGradient2204)" /><path
   id="path940"
   d="M 43.738021,3.5569772 C 41.799657,1.8195941 39.668452,1.0318476 38.975936,1.7945604 L 33.739323,7.5808292 L 33.383838,15.720326 L 38.934023,15.960656 L 46.03187,8.1199012 L 45.994993,8.088191 C 46.687495,7.3254782 45.674726,5.2960283 43.738021,3.5569772 z "
   style="fill:url(#linearGradient2201)" /><path
   id="path950"
   d="M 46.117397,7.9196274 C 45.584178,8.4653758 44.26622,8.1582879 42.832552,7.2453686 C 42.356351,6.9432877 41.865044,6.5711113 41.387169,6.1438576 C 40.932753,5.7366335 40.53703,5.3127188 40.191616,4.8954792 C 39.088285,3.5469631 38.620466,2.2401713 39.118467,1.6426845 L 39.111759,1.6360095 L 15.70375,27.486464 C 15.505888,28.182417 15.883173,29.484203 16.860738,30.669161 C 17.194422,31.074717 17.583437,31.48528 18.024434,31.879154 C 18.514053,32.319758 19.018778,32.701949 19.508397,33.009037 C 20.972234,33.93197 22.38074,34.297471 22.908924,33.715006 C 23.029656,33.57982 23.55784,32.997355 23.571258,32.975658 L 46.191167,7.9847158 L 46.117397,7.9196274 z "
   style="fill:url(#linearGradient2198)" /><path
   id="path957"
   d="M 12.676485,34.462516 L 10.682786,40.043504 L 15.476732,37.69862 C 15.476732,37.69862 14.769125,37.658565 13.74796,36.648847 C 12.39311,35.31702 12.676485,34.462516 12.676485,34.462516 z "
   style="opacity:0.8;fill:url(#linearGradient2195)" /><path
   id="path958"
   d="M 16.773551,30.550665 L 40.285511,5.0056309 C 40.255329,4.9689136 40.220125,4.9321964 40.189942,4.8954792 C 39.748944,4.3564072 39.413586,3.8223409 39.193924,3.3400128 L 15.802681,28.756538 C 15.972048,29.317308 16.295662,29.944835 16.773551,30.550665 z "
   style="opacity:0.5;fill:#ffffff" /><path
   id="path959"
   d="M 40.189942,4.8954792 C 39.995428,4.6551492 39.822713,4.4198276 39.666778,4.1878422 L 16.198405,29.686147 C 16.376154,30.013261 16.594128,30.345384 16.862426,30.667492 C 17.092144,30.94287 17.345336,31.223254 17.623676,31.496964 L 41.155763,5.9285627 C 40.796931,5.5880965 40.473317,5.2409538 40.189942,4.8954792 z "
   style="opacity:0.5;fill:#ffffff" />
</svg>