<?xml version="1.0" encoding="UTF-8" standalone="no"?>
<!-- Created with Sodipodi ("http://www.sodipodi.com/") -->
<svg
   xmlns:dc="http://purl.org/dc/elements/1.1/"
   xmlns:cc="http://web.resource.org/cc/"
   xmlns:rdf="http://www.w3.org/1999/02/22-rdf-syntax-ns#"
   xmlns:svg="http://www.w3.org/2000/svg"
   xmlns="http://www.w3.org/2000/svg"
   xmlns:sodipodi="http://sodipodi.sourceforge.net/DTD/sodipodi-0.dtd"
   xmlns:inkscape="http://www.inkscape.org/namespaces/inkscape"
   inkscape:version="0.45.1"
   sodipodi:docbase="/mnt/vdrsrc/xxv/svn/xxv/XXV-Skins/trunk/stone/images/artwork"
   sodipodi:docname="home.svg"
   sodipodi:version="0.32"
   id="svg696"
   xml:space="preserve"
   style="overflow:visible;enable-background:new 0 0 256 256"
   viewBox="0 0 256 256"
   height="64"
   width="64"
   inkscape:output_extension="org.inkscape.output.svg.inkscape"
   version="1.0"
   inkscape:export-filename="/mnt/vdrsrc/xxv/svn/xxv/XXV-Skins/trunk/stone/images/home.png"
   inkscape:export-xdpi="22"
   inkscape:export-ydpi="22"><metadata
   id="metadata24"><rdf:RDF><cc:Work
       rdf:about=""><dc:format>image/svg+xml</dc:format><dc:type
         rdf:resource="http://purl.org/dc/dcmitype/StillImage" /></cc:Work></rdf:RDF></metadata>
  <defs
   id="defs731" />
  <sodipodi:namedview
   inkscape:current-layer="svg696"
   inkscape:window-y="0"
   inkscape:window-x="0"
   inkscape:window-height="620"
   inkscape:window-width="872"
   inkscape:cy="24"
   inkscape:cx="24"
   inkscape:zoom="7.4791667"
   id="base"
   width="64px"
   height="64px" />
  <g
   transform="matrix(1.0655752,0,0,1.1362345,-10.031549,-19.710485)"
   id="Layer_1">
    <path
   id="path700"
   d="M 21.234,145.271 C 21.235,145.269 23.007,142.392 23.007,142.392 C 24.868,139.369 41.794,112.076 62.712,84.964 C 92.493,46.364 114.215,28.387 131.076,28.387 L 131.076,28.387 C 147.934,28.387 169.657,46.364 199.437,84.964 C 220.397,112.13 237.288,139.374 239.144,142.392 L 240.917,145.273 C 242.498,147.838 242.566,151.068 241.095,153.698 C 239.625,156.329 236.839,157.963 233.828,157.963 C 233.828,157.963 191.342,157.963 185.098,157.963 C 185.098,164.47 185.098,227.287 185.098,227.287 C 185.098,231.877 181.365,235.611 176.774,235.611 L 85.377,235.612 C 80.787,235.612 77.052,231.877 77.052,227.287 C 77.052,227.287 77.052,164.471 77.052,157.963 C 70.809,157.963 28.323,157.963 28.323,157.963 C 25.309,157.963 22.524,156.328 21.055,153.696 C 19.584,151.068 19.652,147.84 21.234,145.271 z "
   style="opacity:0.2" />
    <path
   id="path701"
   d="M 19.234,143.271 C 19.235,143.269 21.007,140.392 21.007,140.392 C 22.868,137.369 39.794,110.076 60.712,82.964 C 90.493,44.364 112.215,26.387 129.076,26.387 L 129.076,26.387 C 145.934,26.387 167.657,44.364 197.437,82.964 C 218.397,110.13 235.288,137.374 237.144,140.392 L 238.917,143.273 C 240.498,145.838 240.566,149.068 239.095,151.698 C 237.625,154.329 234.839,155.963 231.828,155.963 C 231.828,155.963 189.342,155.963 183.098,155.963 C 183.098,162.47 183.098,225.287 183.098,225.287 C 183.098,229.877 179.365,233.611 174.774,233.611 L 83.377,233.612 C 78.787,233.612 75.052,229.877 75.052,225.287 C 75.052,225.287 75.052,162.471 75.052,155.963 C 68.809,155.963 26.323,155.963 26.323,155.963 C 23.309,155.963 20.524,154.328 19.055,151.696 C 17.584,149.068 17.652,145.84 19.234,143.271 z "
   style="opacity:0.2" />
    <linearGradient
   gradientTransform="matrix(0,1,1,0,-4.882813e-4,-9.765625e-4)"
   y2="188.4328"
   x2="204.8024"
   y1="67.090797"
   x1="83.460403"
   gradientUnits="userSpaceOnUse"
   id="XMLID_5_">
      <stop
   id="stop703"
   style="stop-color:#0066CC"
   offset="0" />
      <stop
   id="stop704"
   style="stop-color:#003399"
   offset="1" />
    </linearGradient>
    <path
   id="path708"
   d="M 18.158,141.271 C 18.159,141.269 19.931,138.392 19.931,138.392 C 21.792,135.369 38.718,108.076 59.636,80.964 C 89.417,42.365 111.14,24.388 128,24.388 L 128,24.388 C 144.859,24.388 166.582,42.365 196.362,80.965 C 217.322,108.131 234.213,135.375 236.069,138.393 L 237.842,141.274 C 239.423,143.839 239.491,147.069 238.02,149.699 C 236.55,152.33 233.764,153.964 230.753,153.964 C 230.753,153.964 188.267,153.964 182.023,153.964 C 182.023,160.471 182.023,223.288 182.023,223.288 C 182.023,227.878 178.29,231.612 173.699,231.612 L 82.302,231.613 C 77.712,231.613 73.977,227.878 73.977,223.288 C 73.977,223.288 73.977,160.472 73.977,153.964 C 67.734,153.964 25.248,153.964 25.248,153.964 C 22.234,153.964 19.449,152.329 17.98,149.697 C 16.508,147.068 16.576,143.84 18.158,141.271 z "
   style="fill:url(#XMLID_5_)" />
    <linearGradient
   gradientTransform="matrix(0,1,1,0,-4.882813e-4,-9.765625e-4)"
   y2="188.3932"
   x2="204.8073"
   y1="66.984398"
   x1="83.398399"
   gradientUnits="userSpaceOnUse"
   id="XMLID_6_">
      <stop
   id="stop710"
   style="stop-color:#FFFFFF"
   offset="0" />
      <stop
   id="stop711"
   style="stop-color:#F0F0F0"
   offset="1" />
    </linearGradient>
    <path
   id="path715"
   d="M 27.02,142.757 C 29.787,138.264 95.147,32.713 128,32.713 C 160.851,32.713 226.213,138.263 228.98,142.757 L 230.753,145.638 C 230.753,145.638 177.226,145.638 173.698,145.638 C 173.698,149.237 173.698,223.287 173.698,223.287 L 82.301,223.287 C 82.301,223.287 82.301,149.236 82.301,145.638 C 78.774,145.638 25.246,145.638 25.246,145.638 L 27.02,142.757 z "
   style="fill:url(#XMLID_6_)" />
    <linearGradient
   gradientTransform="matrix(0,1,1,0,-4.882813e-4,-9.765625e-4)"
   y2="189.3049"
   x2="203.9109"
   y1="67.966301"
   x1="82.572304"
   gradientUnits="userSpaceOnUse"
   id="XMLID_7_">
      <stop
   id="stop717"
   style="stop-color:#FFFFFF"
   offset="0" />
      <stop
   id="stop718"
   style="stop-color:#DFDFDF"
   offset="1" />
    </linearGradient>
    <path
   id="path722"
   d="M 128,39.013 C 148.504,39.013 193.099,97.944 219.403,139.338 C 204.837,139.338 167.398,139.338 167.398,139.338 C 167.398,139.338 167.398,206.349 167.398,216.986 C 157.284,216.986 98.716,216.987 88.602,216.987 C 88.602,206.349 88.602,139.338 88.602,139.338 C 88.602,139.338 51.163,139.338 36.597,139.338 C 62.895,97.944 107.487,39.013 128,39.013 z "
   style="fill:url(#XMLID_7_)" />
    <linearGradient
   gradientTransform="matrix(0,1,1,0,-4.882813e-4,-9.765625e-4)"
   y2="184.881"
   x2="195.35629"
   y1="92.283203"
   x1="102.7588"
   gradientUnits="userSpaceOnUse"
   id="XMLID_8_">
      <stop
   id="stop724"
   style="stop-color:#428AFF"
   offset="0" />
      <stop
   id="stop725"
   style="stop-color:#003399"
   offset="1" />
    </linearGradient>
    <path
   id="path729"
   d="M 80.997,100.264 L 80.997,100.264 C 111.262,60.619 125.278,54.123 128.002,53.174 C 130.728,54.125 144.744,60.63 175.002,100.264 C 180.827,107.894 186.904,116.306 193.111,125.298 C 182.05,125.298 153.358,125.298 153.358,125.298 C 153.358,125.298 153.358,194.959 153.358,202.946 C 146.292,202.946 109.709,202.946 102.641,202.946 C 102.641,194.959 102.641,125.298 102.641,125.298 C 102.641,125.298 73.949,125.298 62.887,125.298 C 69.09,116.313 75.167,107.901 80.997,100.264 z "
   style="fill:url(#XMLID_8_)" />
  </g>
</svg>