<?xml version="1.0" encoding="UTF-8" standalone="no"?>
<!-- Generator: Adobe Illustrator 9.0, SVG Export Plug-In  -->
<svg
   xmlns:xml="http://www.w3.org/XML/1998/namespace"
   xmlns:dc="http://purl.org/dc/elements/1.1/"
   xmlns:cc="http://web.resource.org/cc/"
   xmlns:rdf="http://www.w3.org/1999/02/22-rdf-syntax-ns#"
   xmlns:svg="http://www.w3.org/2000/svg"
   xmlns="http://www.w3.org/2000/svg"
   xmlns:xlink="http://www.w3.org/1999/xlink"
   xmlns:sodipodi="http://inkscape.sourceforge.net/DTD/sodipodi-0.dtd"
   xmlns:inkscape="http://www.inkscape.org/namespaces/inkscape"
   width="48pt"
   height="48pt"
   viewBox="0 0 144 144"
   xml:space="preserve"
   id="svg2"
   sodipodi:version="0.32"
   inkscape:version="0.41"
   sodipodi:docname="newfolder.svg"
   sodipodi:docbase="/mnt/vdrsrc/xxv/devlop/XXV-Skins/stone/images/artwork"
   inkscape:export-filename="/mnt/vdrsrc/xxv/devlop/XXV-Skins/stone/images/newfolder.png"
   inkscape:export-xdpi="24.000000"
   inkscape:export-ydpi="24.000000"><metadata
   id="metadata57">
  <rdf:RDF
   id="RDF59">
    <cc:Work
   rdf:about=""
   id="Work61">
      <dc:format
   id="format63">image/svg+xml</dc:format>

      <dc:type
   id="type65"
   rdf:resource="http://purl.org/dc/dcmitype/StillImage" />

    </cc:Work>

  </rdf:RDF>

</metadata>

<defs
   id="defs95">
		
		
		
		
	
			

			

			

			

			

			

			

			

			

		<linearGradient
   inkscape:collect="always"
   xlink:href="#aigrd1"
   id="linearGradient1434"
   gradientUnits="userSpaceOnUse"
   x1="19.8828"
   y1="91.0132"
   x2="134.8701"
   y2="91.0132" />

<linearGradient
   inkscape:collect="always"
   xlink:href="#aigrd2"
   id="linearGradient1436"
   gradientUnits="userSpaceOnUse"
   x1="92.4307"
   y1="97.6382"
   x2="42.7989"
   y2="77.1293" />

<linearGradient
   inkscape:collect="always"
   xlink:href="#aigrd3"
   id="linearGradient1438"
   gradientUnits="userSpaceOnUse"
   x1="0.8496"
   y1="59.8013"
   x2="110.4102"
   y2="59.8013" />

<linearGradient
   inkscape:collect="always"
   xlink:href="#aigrd4"
   id="linearGradient1440"
   gradientUnits="userSpaceOnUse"
   x1="20.6514"
   y1="58.9077"
   x2="77.5928"
   y2="58.9077" />

</defs>


<sodipodi:namedview
   inkscape:current-layer="svg2"
   inkscape:window-y="42"
   inkscape:window-x="10"
   id="base"
   pagecolor="#ffffff"
   bordercolor="#666666"
   borderopacity="1.0"
   inkscape:pageopacity="0.0"
   inkscape:pageshadow="2"
   inkscape:window-width="764"
   inkscape:window-height="757"
   inkscape:cy="30.000000"
   inkscape:cx="30.000000"
   inkscape:zoom="5.9833333" />


<g
   id="Layer_x0020_2"
   style="fill-rule:nonzero;clip-rule:nonzero;fill:#FFFFFF;stroke:#FFFFFF;stroke-width:0;stroke-miterlimit:4;"
   inkscape:export-filename="/mnt/vdrsrc/xxv/devlop/XXV-Skins/stone/folder.png"
   inkscape:export-xdpi="24.000000"
   inkscape:export-ydpi="24.000000"><path
   style="fill:none;stroke:none;"
   d="M144,144H0V0h144v144z"
   id="path5" />


<path
   style="opacity:0.2;fill:#000000;stroke:none;"
   d="M142.619,92.638L110.871,15.87c-0.402-0.974-1.182-1.747-2.16-2.139c-0.979-0.393-2.074-0.376-3.039,0.051l-27.213,12.03c-1.421,0.628-2.329,2.028-2.329,3.574c0,0.011,0.021,0.784,0.052,1.907l-18.051-7.34    c-1.477-0.602-3.17-0.246-4.281,0.897L6.93,73.137c-0.895,0.922-1.281,2.223-1.033,3.482c0.248,1.262,1.098,2.32,2.275,2.834l18.37,8.021l-7.802,4.174c-1.121,0.6-1.879,1.705-2.037,2.967c-0.159,1.26,0.305,2.52,1.242,3.377l43.857,40.089    c1.235,1.129,3.045,1.349,4.512,0.546l73.919-40.408c0.447-0.244,0.815-0.586,1.13-0.971c1.397-1.061,1.945-2.946,1.256-4.61z"
   id="path7" />


<g
   style="stroke:none;"
   id="g9"><path
   id="path11"
   d="M59.217,131.637L14.252,90.533l-0.18-1.085l75.835-40.565l45.499,41.104l-76.189,41.65z" />




			<linearGradient
   id="aigrd1"
   gradientUnits="userSpaceOnUse"
   x1="19.8828"
   y1="91.0132"
   x2="134.8701"
   y2="91.0132">
				<stop
   offset="0"
   style="stop-color:#CFF0FF"
   id="stop14" />




				<stop
   offset="1"
   style="stop-color:#6DB8FF"
   id="stop16" />




			</linearGradient>




			<path
   id="path18"
   style="fill:url(#aigrd1);"
   d="M62.666,129.227L20.053,91.266l-0.17-1.003l71.865-37.464l43.122,37.959l-72.204,38.469z" />




			<linearGradient
   id="aigrd2"
   gradientUnits="userSpaceOnUse"
   x1="92.4307"
   y1="97.6382"
   x2="42.7989"
   y2="77.1293">
				<stop
   offset="0"
   style="stop-color:#0032A4"
   id="stop21" />




				<stop
   offset="1"
   style="stop-color:#3995E5"
   id="stop23" />




			</linearGradient>




			<path
   style="fill:url(#aigrd2);"
   d="M92.355,47.463l43.576,39.367c0.941,0.85,1.412,2.104,1.264,3.363s-0.896,2.37-2.01,2.979L61.268,133.58c-1.468,0.803-3.277,0.583-4.512-0.545L12.898,92.946c-0.938-0.857-1.402-2.117-1.243-3.378s0.917-2.366,2.038-2.966l74.189-39.687     c1.457-0.779,3.246-0.56,4.473,0.548z M89.729,50.368c-1.44,0.77-72.45,38.757-74.191,39.687c0.919,0.838,42.637,38.976,43.857,40.089c1.444-0.787,71.016-38.822,73.914-40.406c-2.407-2.173-42.395-38.299-43.578-39.37l-0.002,0.001z"
   id="path25" />




			<path
   id="path20"
   style="opacity:0.15;fill:#000047;"
   d="M102.805,61.723l-35.592,44.708L21.156,86.969l69.576-34.996l12.072,9.75z" />




			<path
   id="path21"
   d="M50.485,22.96l55.546,22.589L63.406,98.047L3.107,71.717L50.485,22.96z" />




			<linearGradient
   id="aigrd3"
   gradientUnits="userSpaceOnUse"
   x1="0.8496"
   y1="59.8013"
   x2="110.4102"
   y2="59.8013">
				<stop
   offset="0"
   style="stop-color:#BFBFBF"
   id="stop30" />




				<stop
   offset="1"
   style="stop-color:#7084CC"
   id="stop32" />




			</linearGradient>




			<path
   style="fill:url(#aigrd3);"
   d="M48.803,19.804L1.883,68.09c-0.895,0.921-1.281,2.223-1.033,3.482c0.247,1.261,1.098,2.319,2.274,2.834l59.715,26.074c1.612,0.704,3.496,0.246,4.606-1.119l42.212-51.99c0.782-0.964,1.062-2.24,0.753-3.441s-1.168-2.186-2.317-2.652     L53.084,18.906c-1.477-0.601-3.171-0.245-4.281,0.898z"
   id="path34" />




			<path
   d="M51.609,22.532l55.009,22.372L64.405,96.893L4.69,70.818l46.919-48.286z"
   id="path36" />




			<linearGradient
   id="aigrd4"
   gradientUnits="userSpaceOnUse"
   x1="20.6514"
   y1="58.9077"
   x2="77.5928"
   y2="58.9077">
				<stop
   offset="0"
   style="stop-color:#FFFFFF"
   id="stop39" />




				<stop
   offset="1"
   style="stop-color:#DFDFEC"
   id="stop41" />




			</linearGradient>




			<path
   id="path43"
   style="fill:url(#aigrd4);"
   d="M51.77,27.608l46.65,18.865L62.914,90.209L12.678,68.275L51.77,27.606v0.002z" />




			<linearGradient
   id="aigrd5"
   gradientUnits="userSpaceOnUse"
   x1="35.2422"
   y1="64.311"
   x2="93.5708"
   y2="72.5198">
				<stop
   offset="0"
   style="stop-color:#FFFFFF"
   id="stop46" />




				<stop
   offset="0.2022"
   style="stop-color:#CDF8FF"
   id="stop48" />




				<stop
   offset="1"
   style="stop-color:#0074FF"
   id="stop50" />




			</linearGradient>




			<path
   style="opacity:0.6;fill:url(#aigrd5);"
   d="M74.119,36.583l-0.357-13.037l29.085-12.857l32.652,78.957l-75.478,41.288L29.333,57.953l44.786-21.369z"
   id="path52" />




			<linearGradient
   id="aigrd6"
   gradientUnits="userSpaceOnUse"
   x1="73.8438"
   y1="108.4019"
   x2="127.6324"
   y2="82.4796">
				<stop
   offset="0"
   style="stop-color:#FFFFFF"
   id="stop55" />




				<stop
   offset="1"
   style="stop-color:#B1B1C5"
   id="stop57" />




			</linearGradient>




			<path
   id="path38"
   style="fill:url(#aigrd6);"
   d="M126.39,67.293l-76.55,38.391l10.005,25.25l75.835-40.93l-9.29-22.711z" />




			<path
   id="path39"
   style="opacity:0.75;"
   d="M77.706,39.252l-0.342-12.44l27.181-12.015l-1.698-4.108L73.762,23.546l0.357,13.037L29.333,57.953l30.688,72.981l4.002-2.19L34.965,59.645l42.741-20.393z" />




			<linearGradient
   id="aigrd7"
   gradientUnits="userSpaceOnUse"
   x1="87.2275"
   y1="113.1079"
   x2="121.3573"
   y2="93.2346">
				<stop
   offset="0"
   style="stop-color:#FFFFFF"
   id="stop62" />




				<stop
   offset="0.1066"
   style="stop-color:#DDDDE7"
   id="stop64" />




				<stop
   offset="0.2778"
   style="stop-color:#AEAEC4"
   id="stop66" />




				<stop
   offset="0.4407"
   style="stop-color:#8888A9"
   id="stop68" />




				<stop
   offset="0.5909"
   style="stop-color:#6D6D96"
   id="stop70" />




				<stop
   offset="0.7239"
   style="stop-color:#5D5D8A"
   id="stop72" />




				<stop
   offset="0.8258"
   style="stop-color:#575786"
   id="stop74" />




			</linearGradient>




			<path
   id="path76"
   style="opacity:0.46;fill:url(#aigrd7);"
   d="M134.839,85.161l-75.876,40.315l1.859,3.864l75.836-40.928l-1.819-3.252z" />




			<linearGradient
   id="aigrd8"
   gradientUnits="userSpaceOnUse"
   x1="104.9521"
   y1="79.8618"
   x2="37.8989"
   y2="53.9456">
				<stop
   offset="0"
   style="stop-color:#0032A4"
   id="stop79" />




				<stop
   offset="1"
   style="stop-color:#3995E5"
   id="stop81" />




			</linearGradient>




			<path
   style="fill:url(#aigrd8);"
   d="M103.664,8.683c0.979,0.393,1.758,1.166,2.16,2.14l31.748,76.768c0.764,1.847,0.016,3.977-1.737,4.936l-73.341,40.119c-0.973,0.531-2.123,0.627-3.17,0.262c-1.045-0.365-1.887-1.156-2.316-2.178L27.297,60.081     c-0.208-0.495-0.307-1.01-0.307-1.518c0-1.465,0.826-2.863,2.229-3.532c0,0,34.345-16.39,42.15-20.114c-0.008-0.292-0.287-10.541-0.287-10.577c0-1.546,0.908-2.946,2.329-3.575l27.214-12.03c0.965-0.427,2.06-0.444,3.039-0.051z M102.205,12.317     c-2.025,0.893-25.842,11.422-27.207,12.027c0.037,1.453,0.333,12.229,0.333,12.239c0,0.476-0.271,0.911-0.696,1.112c0,0-41.711,19.902-43.729,20.867c0.875,2.08,28.719,68.291,29.709,70.646c2.236-1.223,71.484-39.103,73.342-40.118     c-0.818-1.974-30.844-74.571-31.752-76.774z"
   id="path83" />




			<linearGradient
   id="aigrd9"
   gradientUnits="userSpaceOnUse"
   x1="70.8623"
   y1="54.1187"
   x2="105.8568"
   y2="73.56">
				<stop
   offset="0"
   style="stop-color:#A8DCFF"
   id="stop86" />




				<stop
   offset="0.3202"
   style="stop-color:#3C64B4"
   id="stop88" />




				<stop
   offset="0.9888"
   style="stop-color:#000000"
   id="stop90" />




			</linearGradient>




			<path
   id="path92"
   style="opacity:0.3;fill:url(#aigrd9);"
   d="M53.443,103.654c0,0-2.049-26.173,27.981-43.589c29.966-17.38,20.78-47.747,20.78-47.747L125.07,67.51l-71.627,36.144z" />




		</g>




	</g>




<g
   transform="matrix(3.967258,0.000000,0.000000,3.967258,49.33947,0.835650)"
   style="fill-rule:nonzero;stroke:#000000;stroke-miterlimit:4.0000000"
   id="g1420">
    <path
   id="path55"
   d="M 24.000000,24.000000 L 0.0000000,24.000000 L 0.0000000,0.0000000 L 24.000000,0.0000000 L 24.000000,24.000000 z "
   style="fill:none;stroke:none" />


  </g>










<g
   transform="matrix(1.324597,0.000000,0.000000,1.282754,-47.00166,-0.330696)"
   id="g1357">
  <path
     style="fill:none;fill-rule:nonzero;stroke:#878383;stroke-width:4.0849667;stroke-linecap:round;stroke-linejoin:round;stroke-miterlimit:4.0000000;stroke-opacity:1.0000000"
     d="M 105.46737,3.2120390 L 117.06870,26.361149 L 142.75737,30.494912 L 123.69803,48.683481 L 127.84135,74.312881 L 104.63868,61.911549 L 81.436017,74.312881 L 85.579342,48.683481 L 66.519999,30.494912 L 92.208670,26.361149 L 105.46737,3.2120390 z "
     id="path2944" />
  <path
     style="fill:none;fill-rule:nonzero;stroke:#000000;stroke-width:3.9672582;stroke-linecap:round;stroke-linejoin:round;stroke-miterlimit:4.0000000;stroke-opacity:1.0000000"
     d="M 105.50767,4.2650287 L 116.80436,26.688051 L 141.81852,30.692164 L 123.25965,48.310241 L 127.29419,73.135756 L 104.70077,61.123414 L 82.107356,73.135756 L 86.141860,48.310241 L 67.582986,30.692164 L 92.597144,26.688051 L 105.50767,4.2650287 z "
     id="path70" />
  <path
     style="fill:#f6f623;fill-rule:nonzero;stroke:none;stroke-miterlimit:4.0000000"
     d="M 105.50767,4.2650287 L 116.80436,26.688051 L 141.81852,30.692164 L 123.25965,48.310241 L 127.29419,73.135756 L 104.70077,61.123414 L 82.107356,73.135756 L 86.141860,48.310241 L 67.582986,30.692164 L 92.597144,26.688051 L 105.50767,4.2650287 z "
     id="path72" />
  <path
     style="opacity:0.49999997;fill:#ffffff;fill-rule:nonzero;stroke:none;stroke-miterlimit:4.0000000"
     d="M 105.50767,4.2650287 L 105.50767,38.700392 L 94.210945,26.688051 L 105.50767,4.2650287 z "
     id="path74" />
  <path
     style="opacity:0.059999947;fill-rule:nonzero;stroke:none;stroke-miterlimit:4.0000000"
     d="M 105.50767,4.2650287 L 105.50767,38.700392 L 116.80436,26.688051 L 105.50767,4.2650287 z "
     id="path1427" />
  <path
     style="opacity:0.059999947;fill-rule:nonzero;stroke:none;stroke-miterlimit:4.0000000"
     d="M 83.721158,73.135756 L 106.31457,38.700392 L 106.31457,61.123414 L 83.721158,73.135756 L 83.721158,73.135756 z "
     id="path78" />
  <path
     style="opacity:0.059999947;fill-rule:nonzero;stroke:none;stroke-miterlimit:4.0000000"
     d="M 124.06655,48.310241 L 105.50767,38.700392 L 141.81852,30.692164 L 123.25965,48.310241 L 124.06655,48.310241 z "
     id="path80" />
  <path
     style="opacity:0.49999997;fill:#ffffff;fill-rule:nonzero;stroke:none;stroke-miterlimit:4.0000000"
     d="M 128.10109,73.135756 L 105.50767,38.700392 L 105.50767,61.123414 L 128.10109,73.135756 z "
     id="path82" />
  <path
     style="opacity:0.49999997;fill:#ffffff;fill-rule:nonzero;stroke:none;stroke-miterlimit:4.0000000"
     d="M 83.721158,73.135756 L 106.31457,38.700392 L 87.755700,48.310241 L 83.721158,73.135756 L 83.721158,73.135756 z "
     id="path84" />
  <path
     style="opacity:0.059999947;fill-rule:nonzero;stroke:none;stroke-miterlimit:4.0000000"
     d="M 69.196827,30.692164 L 87.755700,48.310241 L 106.31457,38.700392 L 70.003728,30.692164 L 69.196827,30.692164 z "
     id="path86" />
</g>

</svg>
