<?xml version="1.0" encoding="UTF-8" standalone="no"?>
<!-- Created with Sodipodi ("http://www.sodipodi.com/") -->
<svg
   xmlns:xml="http://www.w3.org/XML/1998/namespace"
   xmlns:svg="http://www.w3.org/2000/svg"
   xmlns="http://www.w3.org/2000/svg"
   xmlns:sodipodi="http://inkscape.sourceforge.net/DTD/sodipodi-0.dtd"
   xmlns:inkscape="http://www.inkscape.org/namespaces/inkscape"
   inkscape:version="0.41"
   sodipodi:docbase="/mnt/vdrsrc/xxv/devlop/XXV-Skins/stone/images/artwork"
   sodipodi:docname="off.svg"
   sodipodi:version="0.32"
   id="svg548"
   xml:space="preserve"
   style="overflow:visible;enable-background:new 0 0 256 256"
   viewBox="0 0 256 256"
   height="48pt"
   width="48pt">
  <defs
     id="defs580" />
  <sodipodi:namedview
     inkscape:current-layer="svg548"
     inkscape:window-y="63"
     inkscape:window-x="15"
     inkscape:window-height="541"
     inkscape:window-width="640"
     inkscape:cy="29.618822"
     inkscape:cx="24.000000"
     inkscape:zoom="7.4791667"
     id="base" />
  <g
     transform="translate(0.356546,-0.356546)"
     id="Layer_1">
    <path
       id="path552"
       d="M 194.17000,32.183000 L 194.17000,32.183000 L 194.17000,32.183000 M 183.85000,36.465000 L 136.77900,83.528000 C 135.62100,84.692000 134.04300,85.344000 132.40100,85.344000 L 132.40100,85.344000 C 130.75500,85.344000 129.18000,84.692000 128.01700,83.528000 L 80.953000,36.462000 C 75.266000,30.775000 66.004000,30.772000 60.312000,36.457000 L 35.360000,61.409000 C 32.602000,64.163000 31.087000,67.828000 31.087000,71.729000 C 31.087000,75.630000 32.602000,79.296000 35.360000,82.046000 C 35.360000,82.051000 82.422000,129.12000 82.422000,129.12000 C 84.844000,131.54000 84.844000,135.46600 82.422000,137.88800 L 35.360000,184.95100 C 32.606000,187.71000 31.087000,191.37500 31.087000,195.27000 C 31.087000,199.17200 32.602000,202.84100 35.360000,205.58900 L 60.305000,230.54300 C 63.059000,233.30000 66.724000,234.81500 70.629000,234.81500 C 74.526000,234.81500 78.196000,233.29900 80.953000,230.54300 L 128.01600,183.47600 C 130.43800,181.05800 134.35900,181.05800 136.77800,183.47600 L 183.84500,230.54300 C 186.60000,233.30000 190.27100,234.81500 194.17100,234.81500 C 198.07100,234.81500 201.73200,233.29900 204.48800,230.54300 L 229.43200,205.59800 C 232.19100,202.83300 233.71100,199.17200 233.71100,195.27000 C 233.71100,191.36700 232.19000,187.70900 229.43400,184.95100 C 229.43200,184.95100 182.37300,137.88700 182.37300,137.88700 C 181.16200,136.67700 180.55800,135.08800 180.55800,133.50000 C 180.55800,131.91800 181.16200,130.32900 182.37300,129.11900 L 229.43200,82.051000 C 232.15600,79.339000 233.71100,75.578000 233.71100,71.729000 C 233.71100,67.825000 232.19000,64.160000 229.43200,61.406000 L 204.48800,36.463000 C 201.73100,33.703000 198.07300,32.186000 194.16900,32.184000 C 190.27100,32.183000 186.60600,33.702000 183.85000,36.465000 z "
       style="opacity:0.20000000;" />
    <path
       id="path553"
       d="M 191.77000,30.983000 L 191.77000,30.983000 L 191.77000,30.983000 M 181.45000,35.265000 L 134.37800,82.329000 C 133.22100,83.493000 131.64200,84.144000 130.00000,84.144000 L 130.00000,84.144000 C 128.35500,84.144000 126.78000,83.492000 125.61600,82.329000 L 78.552000,35.262000 C 72.865000,29.575000 63.604000,29.572000 57.912000,35.257000 L 32.960000,60.208000 C 30.202000,62.962000 28.687000,66.627000 28.687000,70.528000 C 28.687000,74.428000 30.202000,78.095000 32.960000,80.844000 C 32.960000,80.849000 80.022000,127.91800 80.022000,127.91800 C 82.444000,130.33800 82.444000,134.26400 80.022000,136.68500 L 32.960000,183.75100 C 30.206000,186.51000 28.687000,190.17600 28.687000,194.07000 C 28.687000,197.97200 30.202000,201.64200 32.960000,204.39000 L 57.905000,229.34300 C 60.659000,232.10000 64.324000,233.61600 68.229000,233.61600 C 72.126000,233.61600 75.796000,232.09900 78.552000,229.34300 L 125.61600,182.27700 C 128.03800,179.85800 131.95900,179.85800 134.37800,182.27700 L 181.44500,229.34300 C 184.20000,232.10000 187.87200,233.61600 191.77100,233.61600 C 195.67100,233.61600 199.33300,232.09900 202.08800,229.34300 L 227.03200,204.39800 C 229.79100,201.63300 231.31200,197.97200 231.31200,194.07000 C 231.31200,190.16700 229.79100,186.50900 227.03500,183.75100 C 227.03200,183.75100 179.97300,136.68700 179.97300,136.68700 C 178.76200,135.47700 178.15800,133.88800 178.15800,132.30000 C 178.15800,130.71800 178.76200,129.12900 179.97300,127.92000 L 227.03200,80.851000 C 229.75600,78.139000 231.31200,74.379000 231.31200,70.529000 C 231.31200,66.625000 229.79100,62.960000 227.03200,60.205000 L 202.08800,35.262000 C 199.33200,32.502000 195.67300,30.985000 191.76900,30.984000 C 187.87200,30.983000 184.20600,32.502000 181.45000,35.265000 z "
       style="opacity:0.20000000;" />
    <path
       id="path554"
       d="M 191.77000,28.583000 L 191.77000,28.583000 L 191.77000,28.583000 M 181.45000,32.865000 L 134.37800,79.928000 C 133.22100,81.092000 131.64200,81.744000 130.00000,81.744000 L 130.00000,81.744000 C 128.35500,81.744000 126.78000,81.092000 125.61600,79.928000 L 78.552000,32.862000 C 72.865000,27.175000 63.604000,27.172000 57.912000,32.857000 L 32.960000,57.809000 C 30.202000,60.563000 28.687000,64.228000 28.687000,68.129000 C 28.687000,72.029000 30.202000,75.696000 32.960000,78.445000 C 32.960000,78.450000 80.022000,125.51900 80.022000,125.51900 C 82.444000,127.93900 82.444000,131.86500 80.022000,134.28600 L 32.960000,181.35200 C 30.206000,184.11000 28.687000,187.77600 28.687000,191.67100 C 28.687000,195.57300 30.202000,199.24200 32.960000,201.99000 L 57.905000,226.94400 C 60.659000,229.70000 64.324000,231.21600 68.229000,231.21600 C 72.126000,231.21600 75.796000,229.69900 78.552000,226.94400 L 125.61600,179.87700 C 128.03800,177.45800 131.95900,177.45800 134.37800,179.87700 L 181.44500,226.94400 C 184.20000,229.70000 187.87200,231.21600 191.77100,231.21600 C 195.67100,231.21600 199.33300,229.69900 202.08800,226.94400 L 227.03200,201.99800 C 229.79100,199.23400 231.31200,195.57300 231.31200,191.67100 C 231.31200,187.76800 229.79100,184.10900 227.03500,181.35200 C 227.03200,181.35200 179.97300,134.28700 179.97300,134.28700 C 178.76200,133.07800 178.15800,131.48900 178.15800,129.90100 C 178.15800,128.31800 178.76200,126.73000 179.97300,125.52000 L 227.03200,78.451000 C 229.75600,75.739000 231.31200,71.979000 231.31200,68.129000 C 231.31200,64.225000 229.79100,60.560000 227.03200,57.805000 L 202.08800,32.862000 C 199.33200,30.102000 195.67300,28.585000 191.76900,28.583000 C 187.87200,28.583000 184.20600,30.102000 181.45000,32.865000 z "
       style="opacity:0.20000000;" />
    <linearGradient
       y2="127.50000"
       x2="235.11360"
       y1="127.50000"
       x1="20.086399"
       gradientUnits="userSpaceOnUse"
       id="XMLID_4_">
      <stop
         id="stop556"
         style="stop-color:#AA0000"
         offset="0.0056" />
      <stop
         id="stop557"
         style="stop-color:#663333"
         offset="1" />
    </linearGradient>
    <path
       id="path561"
       d="M 189.36900,26.183000 L 189.36900,26.183000 L 189.36900,26.183000 M 179.05000,30.465000 L 131.97900,77.528000 C 130.82100,78.692000 129.24300,79.344000 127.60100,79.344000 L 127.60100,79.344000 C 125.95500,79.344000 124.38100,78.692000 123.21700,77.528000 L 76.152000,30.462000 C 70.465000,24.775000 61.204000,24.772000 55.512000,30.457000 L 30.560000,55.409000 C 27.802000,58.163000 26.287000,61.828000 26.287000,65.729000 C 26.287000,69.630000 27.803000,73.296000 30.560000,76.046000 C 30.560000,76.051000 77.622000,123.12000 77.622000,123.12000 C 80.044000,125.54000 80.044000,129.46500 77.622000,131.88700 L 30.560000,178.95100 C 27.806000,181.71000 26.287000,185.37500 26.287000,189.27000 C 26.287000,193.17200 27.803000,196.84100 30.560000,199.58900 L 55.505000,224.54300 C 58.259000,227.30000 61.924000,228.81500 65.828000,228.81500 C 69.725000,228.81500 73.395000,227.29900 76.152000,224.54300 L 123.21600,177.47600 C 125.63800,175.05800 129.55900,175.05800 131.97800,177.47600 L 179.04400,224.54300 C 181.80000,227.30000 185.47100,228.81500 189.37100,228.81500 C 193.27000,228.81500 196.93200,227.29900 199.68800,224.54300 L 224.63200,199.59800 C 227.39100,196.83300 228.91100,193.17200 228.91100,189.27000 C 228.91100,185.36700 227.39000,181.70900 224.63400,178.95100 C 224.63200,178.95100 177.57200,131.88700 177.57200,131.88700 C 176.36200,130.67700 175.75800,129.08800 175.75800,127.50000 C 175.75800,125.91800 176.36200,124.32900 177.57200,123.12000 L 224.63200,76.051000 C 227.35600,73.339000 228.91100,69.578000 228.91100,65.729000 C 228.91100,61.825000 227.39000,58.160000 224.63200,55.406000 L 199.68800,30.463000 C 196.93100,27.703000 193.27300,26.186000 189.36800,26.184000 C 185.47200,26.183000 181.80700,27.702000 179.05000,30.465000 z "
       style="fill:url(#XMLID_4_);" />
    <linearGradient
       y2="127.50290"
       x2="222.71390"
       y1="127.50290"
       x1="32.484901"
       gradientUnits="userSpaceOnUse"
       id="XMLID_5_">
      <stop
         id="stop563"
         style="stop-color:#FF6D00"
         offset="0.0056" />
      <stop
         id="stop564"
         style="stop-color:#CF0000"
         offset="0.5" />
      <stop
         id="stop565"
         style="stop-color:#FF6666"
         offset="1" />
    </linearGradient>
    <path
       id="path571"
       d="M 164.43000,127.50000 C 174.12300,117.79100 220.25100,71.667000 220.25100,71.667000 C 221.83000,70.094000 222.71400,67.953000 222.71400,65.729000 C 222.71400,63.504000 221.83000,61.368000 220.25100,59.790000 L 195.30400,34.847000 C 192.03200,31.565000 186.70800,31.565000 183.43300,34.847000 C 183.43300,34.847000 137.30300,80.969000 127.60000,90.682000 C 117.89300,80.969000 71.768000,34.847000 71.768000,34.847000 C 68.486000,31.565000 63.172000,31.572000 59.887000,34.847000 L 34.942000,59.789000 C 33.300000,61.431000 32.484000,63.581000 32.484000,65.728000 C 32.484000,67.881000 33.299000,70.026000 34.942000,71.666000 C 34.942000,71.666000 81.067000,117.79100 90.774000,127.49900 C 81.067000,137.20600 34.942000,183.33100 34.942000,183.33100 C 33.300000,184.97600 32.484000,187.12000 32.484000,189.26900 C 32.484000,191.41900 33.299000,193.57100 34.942000,195.20900 L 59.887000,220.15600 C 61.464000,221.72900 63.601000,222.62000 65.828000,222.62000 C 68.059000,222.62000 70.189000,221.72900 71.768000,220.15600 C 71.768000,220.15600 117.89300,174.02900 127.60000,164.32400 C 137.30300,174.02900 183.43300,220.15600 183.43300,220.15600 C 186.70800,223.43800 192.03200,223.43800 195.30400,220.15600 L 220.25100,195.20900 C 221.89700,193.57000 222.71400,191.41900 222.71400,189.26900 C 222.71400,187.12000 221.89700,184.97500 220.25100,183.33100 C 220.25100,183.33200 174.12300,137.20700 164.43000,127.50000 z "
       style="fill:url(#XMLID_5_);" />
    <linearGradient
       y2="139.14560"
       x2="127.59720"
       y1="36.853500"
       x1="127.59720"
       gradientUnits="userSpaceOnUse"
       id="XMLID_6_">
      <stop
         id="stop573"
         style="stop-color:#FFFFFF"
         offset="0.0056" />
      <stop
         id="stop574"
         style="stop-color:#FF6666"
         offset="1" />
    </linearGradient>
    <path
       id="path578"
       d="M 126.87900,133.94400 C 136.48000,133.94400 145.72600,132.77700 154.41700,130.63900 C 152.44800,128.67400 151.27700,127.49900 151.27700,127.49900 C 151.27700,127.49900 211.80100,66.974000 213.04000,65.728000 C 211.85300,64.541000 190.54700,43.233000 189.36900,42.056000 C 188.12700,43.303000 127.60500,103.82700 127.60500,103.82700 C 127.60500,103.82700 67.070000,43.295000 65.829000,42.055000 C 64.664000,43.217000 43.331000,64.553000 42.155000,65.729000 C 48.312000,71.892000 103.92600,127.50000 103.92600,127.50000 C 103.92600,127.50000 102.65000,128.78100 100.50600,130.91700 C 108.85300,132.88300 117.70400,133.94400 126.87900,133.94400 z "
       style="fill:url(#XMLID_6_);" />
  </g>
</svg>
