<?xml version="1.0" encoding="UTF-8" standalone="no"?>
<!-- Created with Sodipodi ("http://www.sodipodi.com/") -->

<svg
   xmlns:dc="http://purl.org/dc/elements/1.1/"
   xmlns:cc="http://creativecommons.org/ns#"
   xmlns:rdf="http://www.w3.org/1999/02/22-rdf-syntax-ns#"
   xmlns:svg="http://www.w3.org/2000/svg"
   xmlns="http://www.w3.org/2000/svg"
   xmlns:sodipodi="http://sodipodi.sourceforge.net/DTD/sodipodi-0.dtd"
   xmlns:inkscape="http://www.inkscape.org/namespaces/inkscape"
   inkscape:export-ydpi="22.5"
   inkscape:export-xdpi="22.5"
   inkscape:export-filename="/media/build/xxv/svn/xxv/XXV-Skins/trunk/stone/images/star_rated.png"
   sodipodi:docname="star_rated.svg"
   inkscape:version="0.47 r22583"
   sodipodi:version="0.32"
   id="svg1"
   xml:space="preserve"
   viewBox="0 0 24 24"
   height="64"
   width="64"
   inkscape:output_extension="org.inkscape.output.svg.inkscape"
   version="1.0">
  <defs
   id="defs59" />


  <sodipodi:namedview
   inkscape:current-layer="svg1"
   inkscape:window-y="0"
   inkscape:window-x="0"
   inkscape:window-height="735"
   inkscape:window-width="1175"
   inkscape:cy="14.447007"
   inkscape:cx="47.646358"
   inkscape:zoom="4.3125"
   inkscape:pageshadow="2"
   inkscape:pageopacity="0.0"
   borderopacity="1.0"
   bordercolor="#666666"
   pagecolor="#ffffff"
   id="base"
   width="64px"
   height="64px"
   showgrid="false"
   inkscape:window-maximized="0" />


  
  


  <metadata
   id="metadata60">
    <rdf:RDF>
      <cc:Work
   rdf:about="">
        <dc:format>image/svg+xml</dc:format>


        <dc:type
   rdf:resource="http://purl.org/dc/dcmitype/StillImage" />


      <dc:title /></cc:Work>


    </rdf:RDF>


  </metadata>


  
  
  
  
  
  
  
  
  
  










<g
   id="g1323"
   transform="matrix(2.9336552,0,0,2.8836873,-14.388854,-3.2131853)"
   inkscape:tile-w="9.9235394"
   inkscape:tile-h="9.4040159"
   inkscape:tile-cx="5.0877847"
   inkscape:tile-cy="10.000155">
  <path
   style="fill:none;stroke:#878383;stroke-width:0.4032321;stroke-linecap:round;stroke-linejoin:round;stroke-miterlimit:4;stroke-opacity:1"
   d="M 9.0770116,1.7663762 10.222194,4.0514533 12.757955,4.4595027 10.876584,6.2549205 11.285578,8.784827 8.9952131,7.5606787 6.7048487,8.784827 7.1138422,6.2549205 5.2324715,4.4595027 7.7682317,4.0514533 9.0770116,1.7663762 z"
   id="path2944" />

  <path
   style="fill:none;stroke:#000000;stroke-width:0.39161295;stroke-linecap:round;stroke-linejoin:round;stroke-miterlimit:4;stroke-opacity:1"
   d="M 9.080991,1.8703177 10.196103,4.0837223 12.66528,4.4789731 10.83331,6.2180769 11.231564,8.6686321 9.00134,7.4828794 6.7711159,8.6686321 7.1693702,6.2180769 5.3374004,4.4789731 7.8065769,4.0837223 9.080991,1.8703177 z"
   id="path70" />

  <path
   style="fill:#f6f623;fill-rule:nonzero;stroke:none"
   d="M 9.080991,1.8703177 10.196103,4.0837223 12.66528,4.4789731 10.83331,6.2180769 11.231564,8.6686321 9.00134,7.4828794 6.7711159,8.6686321 7.1693702,6.2180769 5.3374004,4.4789731 7.8065769,4.0837223 9.080991,1.8703177 z"
   id="path72" />

  <path
   style="opacity:0.5;fill:#ffffff;fill-rule:nonzero;stroke:none"
   d="m 9.080991,1.8703177 0,3.3991571 L 7.9658787,4.0837223 9.080991,1.8703177 z"
   id="path74" />

  <path
   style="opacity:0.05999995;fill-rule:nonzero;stroke:none"
   d="m 9.080991,1.8703177 0,3.3991571 1.115112,-1.1857525 -1.115112,-2.2134046 z"
   id="path76" />

  <path
   style="opacity:0.05999995;fill-rule:nonzero;stroke:none"
   d="m 6.9304176,8.6686321 2.2302244,-3.3991573 0,2.2134046 -2.2302244,1.1857527 0,0 z"
   id="path78" />

  <path
   style="opacity:0.05999995;fill-rule:nonzero;stroke:none"
   d="m 10.912961,6.2180769 -1.83197,-0.9486021 3.584289,-0.7905017 -1.83197,1.7391038 0.07965,0 z"
   id="path80" />

  <path
   style="opacity:0.5;fill:#ffffff;fill-rule:nonzero;stroke:none"
   d="m 11.311215,8.6686321 -2.230224,-3.3991573 0,2.2134046 2.230224,1.1857527 z"
   id="path82" />

  <path
   style="opacity:0.5;fill:#ffffff;fill-rule:nonzero;stroke:none"
   d="M 6.9304176,8.6686321 9.160642,5.2694748 7.3286719,6.2180769 6.9304176,8.6686321 l 0,0 z"
   id="path84" />

  <path
   style="opacity:0.05999995;fill-rule:nonzero;stroke:none"
   d="M 5.4967021,4.4789731 7.3286719,6.2180769 9.160642,5.2694748 5.576353,4.4789731 l -0.079651,0 z"
   id="path86" />

</g>

</svg>