<?xml version="1.0" encoding="UTF-8" standalone="no"?>
<!-- Created with Sodipodi ("http://www.sodipodi.com/") -->
<svg
   xmlns:dc="http://purl.org/dc/elements/1.1/"
   xmlns:cc="http://web.resource.org/cc/"
   xmlns:rdf="http://www.w3.org/1999/02/22-rdf-syntax-ns#"
   xmlns:svg="http://www.w3.org/2000/svg"
   xmlns="http://www.w3.org/2000/svg"
   xmlns:xlink="http://www.w3.org/1999/xlink"
   xmlns:sodipodi="http://sodipodi.sourceforge.net/DTD/sodipodi-0.dtd"
   xmlns:inkscape="http://www.inkscape.org/namespaces/inkscape"
   inkscape:export-ydpi="22.5"
   inkscape:export-xdpi="22.5"
   inkscape:export-filename="/mnt/vdrsrc/xxv/devlop/XXV-Skins/stone/images/topten.png"
   sodipodi:docbase="/mnt/vdrsrc/xxv/svn/xxv/XXV-Skins/trunk/stone/images/artwork"
   sodipodi:docname="topten.svg"
   inkscape:version="0.45.1"
   sodipodi:version="0.32"
   id="svg1"
   xml:space="preserve"
   viewBox="0 0 24 24"
   height="64"
   width="64"
   inkscape:output_extension="org.inkscape.output.svg.inkscape"
   version="1.0">
  <defs
   id="defs59" />


  <sodipodi:namedview
   inkscape:current-layer="svg1"
   inkscape:window-y="0"
   inkscape:window-x="0"
   inkscape:window-height="949"
   inkscape:window-width="1175"
   inkscape:cy="-12.451544"
   inkscape:cx="85.095633"
   inkscape:zoom="4.3125"
   inkscape:pageshadow="2"
   inkscape:pageopacity="0.0"
   borderopacity="1.0"
   bordercolor="#666666"
   pagecolor="#ffffff"
   id="base"
   width="64px"
   height="64px" />


  
  


  <metadata
   id="metadata60">
    <rdf:RDF>
      <cc:Work
   rdf:about="">
        <dc:format>image/svg+xml</dc:format>


        <dc:type
   rdf:resource="http://purl.org/dc/dcmitype/StillImage" />


      </cc:Work>


    </rdf:RDF>


  </metadata>


  
  
  
  
  
  
  
  
  
  










<g
   id="g2174"
   transform="matrix(0.9975543,0,0,0.9679025,3.1059476,-32.29884)"><g
     inkscape:tile-cy="10.000155"
     inkscape:tile-cx="5.0877847"
     inkscape:tile-h="9.4040159"
     inkscape:tile-w="9.9235394"
     transform="matrix(1.000944,0,0,1.014037,-7.3989838,36.789463)"
     id="g1323">
  <path
   id="path2944"
   d="M 9.0770116,1.7663762 L 10.222194,4.0514533 L 12.757955,4.4595027 L 10.876584,6.2549205 L 11.285578,8.784827 L 8.9952131,7.5606787 L 6.7048487,8.784827 L 7.1138422,6.2549205 L 5.2324715,4.4595027 L 7.7682317,4.0514533 L 9.0770116,1.7663762 z "
   style="fill:none;fill-rule:nonzero;stroke:#878383;stroke-width:0.4032321;stroke-linecap:round;stroke-linejoin:round;stroke-miterlimit:4;stroke-opacity:1" />

  <path
   id="path70"
   d="M 9.080991,1.8703177 L 10.196103,4.0837223 L 12.66528,4.4789731 L 10.83331,6.2180769 L 11.231564,8.6686321 L 9.00134,7.4828794 L 6.7711159,8.6686321 L 7.1693702,6.2180769 L 5.3374004,4.4789731 L 7.8065769,4.0837223 L 9.080991,1.8703177 z "
   style="fill:none;fill-rule:nonzero;stroke:#000000;stroke-width:0.39161295;stroke-linecap:round;stroke-linejoin:round;stroke-miterlimit:4;stroke-opacity:1" />

  <path
   id="path72"
   d="M 9.080991,1.8703177 L 10.196103,4.0837223 L 12.66528,4.4789731 L 10.83331,6.2180769 L 11.231564,8.6686321 L 9.00134,7.4828794 L 6.7711159,8.6686321 L 7.1693702,6.2180769 L 5.3374004,4.4789731 L 7.8065769,4.0837223 L 9.080991,1.8703177 z "
   style="fill:#f6f623;fill-rule:nonzero;stroke:none;stroke-miterlimit:4" />

  <path
   id="path74"
   d="M 9.080991,1.8703177 L 9.080991,5.2694748 L 7.9658787,4.0837223 L 9.080991,1.8703177 z "
   style="opacity:0.5;fill:#ffffff;fill-rule:nonzero;stroke:none;stroke-miterlimit:4" />

  <path
   id="path76"
   d="M 9.080991,1.8703177 L 9.080991,5.2694748 L 10.196103,4.0837223 L 9.080991,1.8703177 z "
   style="opacity:0.05999995;fill-rule:nonzero;stroke:none;stroke-miterlimit:4" />

  <path
   id="path78"
   d="M 6.9304176,8.6686321 L 9.160642,5.2694748 L 9.160642,7.4828794 L 6.9304176,8.6686321 L 6.9304176,8.6686321 z "
   style="opacity:0.05999995;fill-rule:nonzero;stroke:none;stroke-miterlimit:4" />

  <path
   id="path80"
   d="M 10.912961,6.2180769 L 9.080991,5.2694748 L 12.66528,4.4789731 L 10.83331,6.2180769 L 10.912961,6.2180769 z "
   style="opacity:0.05999995;fill-rule:nonzero;stroke:none;stroke-miterlimit:4" />

  <path
   id="path82"
   d="M 11.311215,8.6686321 L 9.080991,5.2694748 L 9.080991,7.4828794 L 11.311215,8.6686321 z "
   style="opacity:0.5;fill:#ffffff;fill-rule:nonzero;stroke:none;stroke-miterlimit:4" />

  <path
   id="path84"
   d="M 6.9304176,8.6686321 L 9.160642,5.2694748 L 7.3286719,6.2180769 L 6.9304176,8.6686321 L 6.9304176,8.6686321 z "
   style="opacity:0.5;fill:#ffffff;fill-rule:nonzero;stroke:none;stroke-miterlimit:4" />

  <path
   id="path86"
   d="M 5.4967021,4.4789731 L 7.3286719,6.2180769 L 9.160642,5.2694748 L 5.576353,4.4789731 L 5.4967021,4.4789731 z "
   style="opacity:0.05999995;fill-rule:nonzero;stroke:none;stroke-miterlimit:4" />

</g><use
     height="24"
     width="24"
     id="use1695"
     transform="matrix(0.756604,0.756604,-0.756604,0.756604,36.812707,4.7443647)"
     xlink:href="#g1323"
     inkscape:tiled-clone-of="#g1323"
     y="0"
     x="0" /><use
     height="24"
     width="24"
     id="use1697"
     transform="matrix(0,1.14,-1.14,0,60.978974,37.416975)"
     xlink:href="#g1323"
     inkscape:tiled-clone-of="#g1323"
     y="0"
     x="0" /><use
     height="24"
     width="24"
     id="use1699"
     transform="matrix(-0.855599,0.855599,-0.855599,-0.855599,53.447965,80.50731)"
     xlink:href="#g1323"
     inkscape:tiled-clone-of="#g1323"
     y="0"
     x="0" /><use
     height="24"
     width="24"
     id="use1701"
     transform="matrix(-1.28,0,0,-1.28,14.612278,106.06276)"
     xlink:href="#g1323"
     inkscape:tiled-clone-of="#g1323"
     y="0"
     x="0" /><use
     height="24"
     width="24"
     id="use1703"
     transform="matrix(-0.954594,-0.954594,0.954594,-0.954594,-33.040064,94.484952)"
     xlink:href="#g1323"
     inkscape:tiled-clone-of="#g1323"
     y="0"
     x="0" /></g>

</svg>