<?xml version="1.0" encoding="UTF-8" standalone="no"?>
<!-- Created with Sodipodi ("http://www.sodipodi.com/") -->
<svg
   xmlns:xml="http://www.w3.org/XML/1998/namespace"
   xmlns:svg="http://www.w3.org/2000/svg"
   xmlns="http://www.w3.org/2000/svg"
   xmlns:xlink="http://www.w3.org/1999/xlink"
   xmlns:sodipodi="http://inkscape.sourceforge.net/DTD/sodipodi-0.dtd"
   xmlns:inkscape="http://www.inkscape.org/namespaces/inkscape"
   id="svg613"
   sodipodi:version="0.32"
   width="75pt"
   height="75pt"
   xml:space="preserve"
   sodipodi:docbase="/mnt/vdrsrc/xxv/devlop/XXV-Skins/stone/images/artwork"
   sodipodi:docname="xxv.svg"
   inkscape:version="0.41">
  <defs
     id="defs615">
    <radialGradient
       id="radialGradient662"
       cx="3.1196"
       cy="0.8853"
       r="43.9955"
       fx="3.1196"
       fy="0.8853"
       gradientUnits="userSpaceOnUse">
      <stop
   offset="0"
   style="stop-color:#000000;stop-opacity:1;"
   id="stop663" />

      <stop
   offset="1"
   style="stop-color:#000000;stop-opacity:0.0039;"
   id="stop664" />

    </radialGradient>
    <radialGradient
       id="radialGradient626"
       cx="3.1196"
       cy="0.8853"
       r="43.9955"
       fx="3.1196"
       fy="0.8853"
       gradientUnits="userSpaceOnUse">
      <stop
   offset="0"
   style="stop-color:#ff3d32;stop-opacity:1;"
   id="stop627" />

      <stop
   offset="1"
   style="stop-color:#820010;stop-opacity:1;"
   id="stop628" />

    </radialGradient>
    <linearGradient
       id="linearGradient674">
      <stop
   offset="0"
   style="stop-color:#0aff00;stop-opacity:1;"
   id="stop675" />

      <stop
   offset="1"
   style="stop-color:#00a700;stop-opacity:1;"
   id="stop676" />

    </linearGradient>
    <linearGradient
       id="linearGradient659">
      <stop
   offset="0"
   style="stop-color:#ffffff;stop-opacity:1;"
   id="stop662" />

      <stop
   offset="1"
   style="stop-color:#0000ff;stop-opacity:1;"
   id="stop661" />

    </linearGradient>
    <radialGradient
       xlink:href="#linearGradient659"
       id="radialGradient663"
       cx="-1.32945943"
       cy="19.2559814"
       r="9.30203247"
       fx="-1.32945943"
       fy="19.2559814" />
    <radialGradient
       xlink:href="#linearGradient659"
       id="radialGradient645"
       cx="39.4047012"
       cy="32.7985802"
       r="6.66751862"
       fx="39.4047012"
       fy="32.7985802"
       gradientUnits="userSpaceOnUse" />
    <radialGradient
       id="aigrd1"
       cx="6.72499943"
       cy="16.8863277"
       r="17.9873276"
       fx="6.72499943"
       fy="16.8863277"
       gradientUnits="userSpaceOnUse"
       spreadMethod="pad"
       xlink:href="#radialGradient626" />
    <linearGradient
       xlink:href="#linearGradient674"
       id="linearGradient655"
       x1="0.92307681"
       y1="6.25007227e-2"
       x2="3.8461566e-2"
       y2="0.99218744" />
    <radialGradient
       xlink:href="#radialGradient662"
       id="radialGradient665"
       cx="0.77290529"
       cy="0.2906785"
       r="0.88054329"
       fx="0.77290529"
       fy="0.2906785"
       gradientTransform="scale(0.672456,1.487087)" />
  </defs>
  <sodipodi:namedview
     id="base"
     inkscape:zoom="4.0000000"
     inkscape:cx="46.875000"
     inkscape:cy="46.875000"
     inkscape:window-width="640"
     inkscape:window-height="541"
     inkscape:window-x="10"
     inkscape:window-y="42"
     inkscape:current-layer="svg613" />
  <path
     style="font-size:12;fill-opacity:0.3137;fill-rule:evenodd;stroke:url(#radialGradient665);stroke-width:8.580001;"
     d="M 66.42096 37.84363 L 77.67097 26.59363 C 80.82097 23.44363 80.82097 18.49362 77.67097 15.34362 C 74.52097 12.19362 69.57096 12.19362 66.42096 15.34362 L 61.17096 20.59362 C 61.17096 18.64362 60.42096 16.84362 58.92096 15.34362 C 55.77096 12.19362 50.97096 12.19362 47.67096 15.34362 L 45.87096 17.29362 L 43.92096 15.34362 C 40.77096 12.19362 35.67096 12.19362 32.82095 15.34362 C 31.32095 16.84362 30.42095 18.64362 30.57095 20.59362 L 25.32095 15.34362 C 22.17095 12.19362 16.92096 12.19362 14.07096 15.34362 C 10.92096 18.49362 10.92096 23.74363 14.07096 26.59363 L 25.32095 37.84363 L 14.07096 49.09363 C 10.92096 52.24363 10.92096 57.19363 14.07096 60.34363 C 17.22096 63.49363 22.17095 63.49363 25.32095 60.34363 L 30.57095 55.09363 C 30.42095 56.89363 31.32095 58.84363 32.82095 60.34363 C 35.97096 63.49363 40.77096 63.49363 43.92096 60.34363 L 45.87096 58.39363 L 47.67096 60.34363 C 49.77096 62.44363 52.62096 63.04363 55.02096 61.99363 L 57.87096 71.14363 L 61.92096 84.34363 C 62.97096 88.09363 66.42096 89.89363 69.57096 88.54363 C 69.87096 88.39363 70.17096 88.24363 70.17096 87.94363 C 70.62096 87.64363 71.07096 87.34363 71.22096 86.74363 C 72.12097 86.29363 72.72097 85.54363 72.87097 84.64363 C 73.17097 84.64363 73.17097 84.34363 73.32097 84.04363 L 77.52097 70.84363 L 81.57097 57.79363 L 85.62097 44.59363 C 86.82097 40.84363 85.17097 36.94363 82.02097 35.59363 C 78.87097 34.24363 75.57097 36.04363 74.37097 39.79363 L 73.02097 44.44363 L 66.42096 37.84363 z M 67.17096 60.64363 L 67.62096 61.99363 L 67.92096 60.94363 C 67.62096 61.09363 67.32096 60.94363 67.17096 60.64363 z "
     id="path782" />
  <path
     style="font-size:12;fill-rule:evenodd;stroke:#000000;stroke-width:8.326656;"
     d="M 45.58212 35.3674 L 56.81412 24.1354 C 59.98212 20.96739 59.98212 16.07139 56.81412 12.90339 C 53.64612 9.735383 48.75012 9.735383 45.58212 12.90339 L 34.35011 24.1354 L 23.11814 12.90339 C 19.95014 9.735383 14.76614 9.735383 11.88614 12.90339 C 8.718143 16.07139 8.718143 21.25539 11.88614 24.1354 L 23.11814 35.3674 L 11.88614 46.5994 C 8.718143 49.7674 8.718143 54.66343 11.88614 57.83143 C 15.05414 60.99943 19.95014 60.99943 23.11814 57.83143 L 34.35011 46.5994 L 45.58212 57.83143 C 48.75012 60.99943 53.64612 60.99943 56.81412 57.83143 C 59.98212 54.66343 59.98212 49.7674 56.81412 46.5994 L 45.58212 35.3674 L 45.58212 35.3674 z "
     id="path604" />
  <path
     style="font-size:12;fill:url(#aigrd1);fill-rule:evenodd;"
     d="M 45.58212 35.3674 L 56.81412 24.1354 C 59.98212 20.96739 59.98212 16.07139 56.81412 12.90339 C 53.64612 9.735383 48.75012 9.735383 45.58212 12.90339 L 34.35011 24.1354 L 23.11814 12.90339 C 19.95014 9.735383 14.76614 9.735383 11.88614 12.90339 C 8.718143 16.07139 8.718143 21.25539 11.88614 24.1354 L 23.11814 35.3674 L 11.88614 46.5994 C 8.718143 49.7674 8.718143 54.66343 11.88614 57.83143 C 15.05414 60.99943 19.95014 60.99943 23.11814 57.83143 L 34.35011 46.5994 L 45.58212 57.83143 C 48.75012 60.99943 53.64612 60.99943 56.81412 57.83143 C 59.98212 54.66343 59.98212 49.7674 56.81412 46.5994 L 45.58212 35.3674 L 45.58212 35.3674 z "
     id="path609" />
  <g
     id="g636"
     transform="matrix(2.88,0,0,2.88,4.546619,-38.55026)"
     style="fill:url(#linearGradient655);">
    <path
   style="font-size:12;fill-rule:evenodd;stroke:#000000;stroke-width:2.8912;fill:url(#linearGradient655);"
   d="M 20.74391 25.66585 L 24.64391 21.76585 C 25.74391 20.66585 25.74391 18.96585 24.64391 17.86585 C 23.54391 16.76585 21.84391 16.76585 20.74391 17.86585 L 16.84391 21.76585 L 12.94391 17.86585 C 11.84391 16.76585 10.0439 16.76585 9.043903 17.86585 C 7.943903 18.96585 7.943903 20.76585 9.043903 21.76585 L 12.94391 25.66585 L 9.043903 29.56585 C 7.943903 30.66585 7.943903 32.36585 9.043903 33.46585 C 10.1439 34.56585 11.84391 34.56585 12.94391 33.46585 L 16.84391 29.56585 L 20.74391 33.46585 C 21.84391 34.56585 23.54391 34.56585 24.64391 33.46585 C 25.74391 32.36585 25.74391 30.66585 24.64391 29.56585 L 20.74391 25.66585 L 20.74391 25.66585 z "
   id="path625" />

    <path
   style="font-size:12;fill:url(#linearGradient655);fill-rule:evenodd;"
   d="M 20.74391 25.66585 L 24.64391 21.76585 C 25.74391 20.66585 25.74391 18.96585 24.64391 17.86585 C 23.54391 16.76585 21.84391 16.76585 20.74391 17.86585 L 16.84391 21.76585 L 12.94391 17.86585 C 11.84391 16.76585 10.0439 16.76585 9.043903 17.86585 C 7.943903 18.96585 7.943903 20.76585 9.043903 21.76585 L 12.94391 25.66585 L 9.043903 29.56585 C 7.943903 30.66585 7.943903 32.36585 9.043903 33.46585 C 10.1439 34.56585 11.84391 34.56585 12.94391 33.46585 L 16.84391 29.56585 L 20.74391 33.46585 C 21.84391 34.56585 23.54391 34.56585 24.64391 33.46585 C 25.74391 32.36585 25.74391 30.66585 24.64391 29.56585 L 20.74391 25.66585 L 20.74391 25.66585 z "
   id="path630" />

  </g>
  <g
     id="g646"
     transform="matrix(2.88,0,0,2.88,96.16405,16.29282)">
    <path
   style="font-size:12;fill-rule:evenodd;stroke:#000000;stroke-width:2.349525;"
   d="M -5.833751 13.52657 L -4.418951 8.962985 C -4.019921 7.675809 -4.558771 6.319107 -5.655121 5.850679 C -6.751481 5.382181 -7.907021 6.014797 -8.306081 7.301973 L -9.720861 11.86556 L -11.13565 16.42915 L -12.55045 20.99276 C -12.9495 22.27991 -12.41066 23.63657 -11.3143 24.10506 C -10.21793 24.57355 -9.062381 23.94093 -8.663351 22.65376 L -7.248551 18.09017 L -5.833751 13.52657 L -5.833751 13.52657 z "
   id="path633"
   sodipodi:nodetypes="cccccccccccc" />

    <path
   style="font-size:12;fill-rule:evenodd;stroke:#000000;stroke-width:2.349525;"
   d="M -15.48611 13.64742 L -16.90091 9.083829 C -17.29994 7.796653 -16.76109 6.439951 -15.66474 5.971523 C -14.56838 5.503025 -13.41284 6.135641 -13.01378 7.422817 L -11.599 11.98641 L -10.18421 16.54999 L -8.769414 21.1136 C -8.370364 22.40076 -8.909204 23.75741 -10.00556 24.22591 C -11.10193 24.6944 -12.25748 24.06178 -12.65651 22.7746 L -14.07131 18.21102 L -15.48611 13.64742 L -15.48611 13.64742 z "
   id="path643"
   sodipodi:nodetypes="cccccccccccc" />

    <path
   style="font-size:12;fill:url(#radialGradient663);fill-rule:evenodd;"
   d="M -15.48611 13.64742 L -16.90091 9.083829 C -17.29994 7.796653 -16.76109 6.439951 -15.66474 5.971523 C -14.56838 5.503025 -13.41284 6.135641 -13.01378 7.422817 L -11.599 11.98641 L -10.18421 16.54999 L -8.769414 21.1136 C -8.370364 22.40076 -8.909204 23.75741 -10.00556 24.22591 C -11.10193 24.6944 -12.25748 24.06178 -12.65651 22.7746 L -14.07131 18.21102 L -15.48611 13.64742 L -15.48611 13.64742 z "
   id="path644"
   sodipodi:nodetypes="cccccccccccc" />

    <path
   style="font-size:12;fill:url(#radialGradient645);fill-rule:evenodd;"
   d="M -5.833751 13.52657 L -4.418951 8.962985 C -4.019921 7.675809 -4.558771 6.319107 -5.655121 5.850679 C -6.751481 5.382181 -7.907021 6.014797 -8.306081 7.301973 L -9.720861 11.86556 L -11.13565 16.42915 L -12.55045 20.99276 C -12.9495 22.27991 -12.41066 23.63657 -11.3143 24.10506 C -10.21793 24.57355 -9.062381 23.94093 -8.663351 22.65376 L -7.248551 18.09017 L -5.833751 13.52657 L -5.833751 13.52657 z "
   id="path638"
   sodipodi:nodetypes="cccccccccccc" />

  </g>
</svg>
